G04*
G04 #@! TF.GenerationSoftware,Altium Limited,Altium Designer,22.0.2 (36)*
G04*
G04 Layer_Color=8388736*
%FSLAX25Y25*%
%MOIN*%
G70*
G04*
G04 #@! TF.SameCoordinates,14A72887-5544-470D-8401-3C00119275A7*
G04*
G04*
G04 #@! TF.FilePolarity,Positive*
G04*
G01*
G75*
%ADD12C,0.00600*%
%ADD93C,0.00790*%
%ADD94C,0.00100*%
%ADD95C,0.00394*%
%ADD96C,0.01181*%
%ADD97C,0.00160*%
%ADD98C,0.00250*%
%ADD99C,0.00380*%
D12*
X21227Y-11385D02*
Y-16027D01*
X21536Y-16955D01*
X22155Y-17574D01*
X23084Y-17884D01*
X23702D01*
X24631Y-17574D01*
X25250Y-16955D01*
X25559Y-16027D01*
Y-11385D01*
X27354D02*
Y-17884D01*
Y-11385D02*
X31686Y-17884D01*
Y-11385D02*
Y-17884D01*
X33481Y-11385D02*
Y-17884D01*
X37009Y-11385D02*
Y-17884D01*
X34843Y-11385D02*
X39175D01*
X40258Y-13551D02*
X39949Y-13860D01*
X40258Y-14170D01*
X40568Y-13860D01*
X40258Y-13551D01*
Y-17265D02*
X39949Y-17574D01*
X40258Y-17884D01*
X40568Y-17574D01*
X40258Y-17265D01*
X47097Y-11385D02*
Y-17884D01*
Y-11385D02*
X49573Y-17884D01*
X52049Y-11385D02*
X49573Y-17884D01*
X52049Y-11385D02*
Y-17884D01*
X53905Y-11385D02*
Y-17884D01*
Y-11385D02*
X56381Y-17884D01*
X58857Y-11385D02*
X56381Y-17884D01*
X58857Y-11385D02*
Y-17884D01*
X18110Y92662D02*
X18729Y92972D01*
X19658Y93900D01*
Y87402D01*
X22876Y92662D02*
X23495Y92972D01*
X24423Y93900D01*
Y87402D01*
X77023Y29567D02*
X76713Y30186D01*
X75785Y31114D01*
X82284D01*
X75785Y38665D02*
X82284Y35570D01*
X75785Y34333D02*
Y38665D01*
D93*
X473357Y518354D02*
G03*
X473357Y518354I-7800J0D01*
G01*
X-271164Y530854D02*
G03*
X-271164Y530854I-3900J0D01*
G01*
Y-71177D02*
G03*
X-271164Y-71177I-3900J0D01*
G01*
X469457Y518354D02*
G03*
X469457Y518354I-3900J0D01*
G01*
X-267264Y530854D02*
G03*
X-267264Y530854I-7800J0D01*
G01*
Y-71177D02*
G03*
X-267264Y-71177I-7800J0D01*
G01*
X-280963Y-76077D02*
X-278963Y-74077D01*
X-272164Y-71177D02*
X-271495Y-71847D01*
X-280963Y525954D02*
X-278963Y527954D01*
X-276963Y532854D02*
X-273164Y528954D01*
X458757Y517454D02*
X459657Y518354D01*
X-280963Y-76077D02*
X-279963Y-77077D01*
X-275063Y527954D02*
X-272164Y530854D01*
X467457Y522354D02*
X469457Y524254D01*
X462657Y511454D02*
X465557Y514454D01*
X459657Y513454D02*
X460658Y512454D01*
X463378Y511274D02*
X465557Y513454D01*
X-275963Y526954D02*
X-275063Y525954D01*
X468458Y521354D02*
X470458Y523354D01*
X-273753Y-63677D02*
X-267264Y-70177D01*
X-282863Y530854D02*
X-275063Y523054D01*
X465557Y525254D02*
X466347Y526044D01*
X-275963Y530854D02*
X-275063Y531854D01*
X461387Y512184D02*
X463658Y514454D01*
X-279963Y-77077D02*
X-277963Y-75077D01*
X-281863Y-72077D02*
X-280963Y-71177D01*
X-270163Y-65277D02*
X-269163Y-66177D01*
X-275063Y537754D02*
X-268264Y530854D01*
X-280963Y-71177D02*
X-275063Y-77077D01*
X464817Y510714D02*
X465557Y511454D01*
X466866Y525854D02*
X473357Y519354D01*
X-277963Y530854D02*
X-275063Y533854D01*
X-281863Y529954D02*
X-280963Y530854D01*
X-270163Y536754D02*
X-269163Y535854D01*
X469457Y521354D02*
X471457Y523354D01*
X-281863Y530854D02*
X-275063Y523954D01*
X-282194Y528624D02*
X-279963Y530854D01*
X460388Y513184D02*
X462657Y515454D01*
X-273164Y530854D02*
X-272164Y529954D01*
X462167Y519864D02*
X464038Y521734D01*
X-279234Y524684D02*
X-276963Y526954D01*
X-279963Y530854D02*
X-278963Y529954D01*
X-282653Y-71967D02*
X-281863Y-71177D01*
X461997Y519014D02*
X462657Y518354D01*
X465557Y522354D02*
X468458Y525254D01*
X-276963Y-69177D02*
X-273164Y-73077D01*
X465557Y506554D02*
Y530154D01*
X-282504Y529604D02*
X-276063Y523164D01*
X-273753Y538354D02*
X-267264Y531854D01*
X-275963Y-68177D02*
X-275063Y-69177D01*
X-271164Y-70177D02*
X-268495Y-67507D01*
X-271164Y-69177D02*
X-269163Y-67177D01*
X-275803Y523214D02*
X-275063Y523954D01*
X-277963D02*
X-275063Y526954D01*
Y-75077D02*
X-271164Y-71177D01*
Y530854D02*
X-268264Y533854D01*
X460658Y518354D02*
X461657Y517454D01*
X457967Y517564D02*
X458757Y518354D01*
X-271164Y531854D02*
X-268495Y534524D01*
X-281863Y-74077D02*
X-278963Y-71177D01*
X465557Y524254D02*
X471457Y518354D01*
X-272463Y-63967D02*
X-267845Y-68597D01*
X-275063Y-65277D02*
X-274164Y-64277D01*
X465557Y516454D02*
X466458Y515454D01*
X-286863Y-71177D02*
X-263264D01*
X458757Y515454D02*
X461657Y518354D01*
X-274164Y-67177D02*
X-271545Y-64557D01*
X-282504Y-72427D02*
X-276063Y-78867D01*
X462657Y520354D02*
X464657Y518354D01*
X458116Y517104D02*
X464558Y510664D01*
X-280234Y525684D02*
X-277963Y527954D01*
X-272164Y534854D02*
X-270163Y536754D01*
Y530854D02*
X-268264Y532854D01*
X-279963Y524954D02*
X-277963Y526954D01*
X465557Y523354D02*
X467457Y525254D01*
X-275063Y-65277D02*
X-269163Y-71177D01*
X-273164D02*
X-272164Y-72077D01*
X-275063Y-73077D02*
X-273164Y-71177D01*
X-275963D02*
X-275063Y-70177D01*
X-272164Y-68177D02*
X-270163Y-66177D01*
X-275063Y534854D02*
X-272164Y537754D01*
X465557Y515454D02*
X466328Y514684D01*
X-281633Y-74747D02*
X-278963Y-72077D01*
X458988Y514784D02*
X461657Y517454D01*
Y518354D02*
X465557Y522354D01*
X461888Y511684D02*
X464657Y514454D01*
X-276963Y-71177D02*
X-275063Y-69177D01*
X459288Y514084D02*
X461657Y516454D01*
X-272164Y533854D02*
X-270163Y535854D01*
X-275063Y-64277D02*
X-268264Y-71177D01*
X-275063Y529954D02*
X-273113Y528004D01*
X465557Y515454D02*
X468458Y518354D01*
X-271164Y-70177D02*
X-270163Y-71177D01*
X-271164Y-68177D02*
X-269163Y-66177D01*
X465557Y514454D02*
X469457Y518354D01*
X453757D02*
X477357D01*
X-278624Y-70517D02*
X-277963Y-71177D01*
X458757Y518354D02*
X465557Y511454D01*
X-271164Y532854D02*
X-269163Y534854D01*
X-278733Y-77847D02*
X-275963Y-75077D01*
X466458Y522354D02*
X469078Y524974D01*
X-281863Y527954D02*
X-278963Y530854D01*
X-280963D02*
X-275063Y524954D01*
Y526954D02*
X-271164Y530854D01*
X-275063Y536754D02*
X-269163Y530854D01*
X-274164Y534854D02*
X-271545Y537474D01*
X459657Y518354D02*
X465557Y512454D01*
X467457Y518354D02*
X468458Y517454D01*
X465557Y523354D02*
X466458Y522354D01*
X-275063Y-74077D02*
X-272164Y-71177D01*
X463658Y518354D02*
X465557Y520354D01*
X-273704Y527414D02*
X-271533Y529584D01*
X465557Y524254D02*
X466458Y525254D01*
X-276963Y-68177D02*
X-275063Y-70177D01*
X466458Y518354D02*
X468529Y516294D01*
X-277963Y532854D02*
X-275963Y530854D01*
X-275063Y-74077D02*
X-274294Y-74847D01*
X-278733Y524184D02*
X-275963Y526954D01*
X463658Y521354D02*
X465557Y519354D01*
X-276963Y533854D02*
X-275063Y531854D01*
Y527954D02*
X-274294Y527184D01*
X-281863Y-74077D02*
X-277963Y-78077D01*
X-275063Y528954D02*
X-274164Y527954D01*
X-275063Y537754D02*
X-274273Y538544D01*
X463658Y520354D02*
X467457Y516454D01*
X468458Y522354D02*
X470458Y524254D01*
X-277963Y-69177D02*
X-275963Y-71177D01*
X-273164Y534854D02*
X-271164Y536754D01*
X469457Y520354D02*
X471457Y522354D01*
X-278453Y532364D02*
X-276584Y534234D01*
X465557Y516454D02*
X467457Y518354D01*
X-277963Y-78077D02*
X-275063Y-75077D01*
X464657Y521354D02*
X465557Y520354D01*
X469457Y518354D02*
X472358Y521354D01*
X-275063Y-73077D02*
X-274164Y-74077D01*
X-275963Y523954D02*
X-275063Y524954D01*
X-282194Y-73407D02*
X-279963Y-71177D01*
X-271164D02*
X-268264Y-68177D01*
X468458Y518354D02*
X469129Y517684D01*
X464996Y522014D02*
X465557Y521354D01*
X464657Y518354D02*
X465557Y519354D01*
X-280234Y-76347D02*
X-277963Y-74077D01*
X-274164Y530854D02*
X-272094Y528794D01*
X-277244Y523774D02*
X-275063Y525954D01*
X-282863Y-71177D02*
X-275063Y-78977D01*
X-275963Y-75077D02*
X-275063Y-76077D01*
X-278624Y531514D02*
X-277963Y530854D01*
X-275063Y-72077D02*
X-274164Y-71177D01*
X-275063Y-66177D02*
X-273164Y-64277D01*
X469457Y519354D02*
X470458Y518354D01*
X-275623Y534514D02*
X-275063Y533854D01*
X-278963Y530854D02*
X-275063Y534854D01*
Y-64277D02*
X-274273Y-63487D01*
X-279963Y-71177D02*
X-278963Y-72077D01*
X-277244Y-78257D02*
X-275063Y-76077D01*
X-275963Y-78077D02*
X-275063Y-77077D01*
X-273704Y-74617D02*
X-271533Y-72447D01*
X-275063Y-63277D02*
X-267264Y-71177D01*
X-275063Y-66177D02*
X-274164Y-67177D01*
X-272463Y538064D02*
X-267845Y533434D01*
X-275063Y535854D02*
X-273164Y537754D01*
X-275063Y528954D02*
X-273164Y530854D01*
X-271164Y533854D02*
X-269163Y535854D01*
X465557Y525254D02*
X472358Y518354D01*
X-272164Y-67177D02*
X-270163Y-65277D01*
X470458Y518354D02*
X472358Y520354D01*
X462657Y518354D02*
X465557Y521354D01*
X-275803Y-78817D02*
X-275063Y-78077D01*
Y-67177D02*
X-272164Y-64277D01*
X-276963Y530854D02*
X-275063Y532854D01*
X-278963Y-71177D02*
X-275063Y-67177D01*
X-273164D02*
X-271164Y-65277D01*
X-275063Y535854D02*
X-274164Y534854D01*
X-275063Y519054D02*
Y542654D01*
X-280963Y525954D02*
X-279963Y524954D01*
X-277963Y531854D02*
X-276963Y530854D01*
X465557Y517454D02*
X466458Y518354D01*
X466917Y514914D02*
X469088Y517084D01*
X464657Y514454D02*
X465557Y513454D01*
X-275063Y529954D02*
X-274164Y530854D01*
X469457Y519354D02*
X472128Y522024D01*
X-275623Y-67517D02*
X-275063Y-68177D01*
X-281333Y-75447D02*
X-278963Y-73077D01*
X-271164Y531854D02*
X-270163Y530854D01*
X-275063Y538754D02*
X-267264Y530854D01*
X-275063Y536754D02*
X-274164Y537754D01*
Y-71177D02*
X-272094Y-73237D01*
X464657Y511454D02*
X465557Y512454D01*
X-275063Y-82977D02*
Y-59377D01*
X-281863Y527954D02*
X-277963Y523954D01*
X-281633Y527284D02*
X-278963Y529954D01*
X-272164Y530854D02*
X-271495Y530184D01*
X460658Y512454D02*
X462657Y514454D01*
X457758Y518354D02*
X465557Y510554D01*
X459657Y513454D02*
X461657Y515454D01*
X-275963Y533854D02*
X-275063Y532854D01*
Y-72077D02*
X-273113Y-74027D01*
X462657Y519354D02*
X463658Y518354D01*
X-281333Y526584D02*
X-278963Y528954D01*
X-282653Y530064D02*
X-281863Y530854D01*
X-277963Y-70177D02*
X-276963Y-71177D01*
X468157Y525564D02*
X472779Y520934D01*
X-270163Y-71177D02*
X-268264Y-69177D01*
X-279234Y-77347D02*
X-276963Y-75077D01*
X458428Y516124D02*
X460658Y518354D01*
X-281863Y-71177D02*
X-275063Y-78077D01*
X-278453Y-69667D02*
X-276584Y-67797D01*
X-277963Y-71177D02*
X-275063Y-68177D01*
X-286863Y530854D02*
X-263264D01*
X465557Y517454D02*
X467508Y515504D01*
X458757Y515454D02*
X462657Y511454D01*
X465557Y526254D02*
X473357Y518354D01*
X470458Y524254D02*
X471457Y523354D01*
D94*
X0Y76772D02*
Y100394D01*
X25269Y53164D02*
Y53912D01*
X22750D02*
X25269D01*
X22750Y53164D02*
Y53912D01*
X37340Y58400D02*
X38340Y58900D01*
X37340Y59400D02*
X38340Y58900D01*
X37340Y58400D02*
Y59400D01*
X43307Y76772D02*
Y100394D01*
X35247Y90551D02*
X43307D01*
X25660Y25576D02*
Y26324D01*
X23140D02*
X25660D01*
X23140Y25576D02*
Y26324D01*
X38340Y48400D02*
Y60900D01*
X33576Y41140D02*
X34324D01*
Y43660D01*
X33576D02*
X34324D01*
X0Y90551D02*
X11997D01*
X19060Y51976D02*
Y52724D01*
X16540D02*
X19060D01*
X16540Y51976D02*
Y52724D01*
X27559Y88091D02*
X43307Y90551D01*
X27559Y93011D02*
X43307Y90551D01*
X27559Y88091D02*
Y93011D01*
X0Y90551D02*
X15748Y93011D01*
X0Y90551D02*
X15748Y88091D01*
Y93011D01*
X53150Y0D02*
X88583D01*
X78740D02*
Y19871D01*
X76280Y15748D02*
X78740Y0D01*
X81200Y15748D01*
X76280D02*
X81200D01*
X78740Y66929D02*
X81200Y51181D01*
X76280D02*
X78740Y66929D01*
X76280Y51181D02*
X81200D01*
X53150Y66929D02*
X88583D01*
X78740Y43121D02*
Y66929D01*
D95*
X-614817Y210023D02*
X-500642D01*
X-619132Y373797D02*
Y374782D01*
Y373797D02*
X-579762D01*
Y382656D01*
X-619132D02*
X-579762D01*
X-619132Y374782D02*
Y382656D01*
X-546297Y400372D02*
X-519722D01*
Y409231D01*
X-546297D02*
X-519722D01*
X-546297Y400372D02*
Y409231D01*
X-519722Y418089D02*
Y419073D01*
Y418089D02*
X-476414D01*
Y426947D01*
X-519722D02*
X-476414D01*
X-519722Y418089D02*
Y426947D01*
X-614817Y150968D02*
Y227740D01*
X-618935Y430392D02*
X-618931Y430416D01*
X-618935Y430392D02*
X-553188D01*
Y431376D01*
X-618935D02*
X-553188D01*
X-618935D02*
X-618931Y430416D01*
X-546297Y418089D02*
X-519722D01*
Y426947D01*
X-546297D02*
X-519722D01*
X-546297Y418089D02*
Y426947D01*
X-614817Y162779D02*
X-500642D01*
X-619033Y386888D02*
X-619030Y386912D01*
X-619033Y386888D02*
X-546494D01*
Y387872D01*
X-619033D02*
X-546494D01*
X-619033D02*
X-619030Y386912D01*
X-555760Y162779D02*
Y210023D01*
X-619132Y409231D02*
Y410215D01*
Y409231D02*
X-579762D01*
Y418089D01*
X-619132D02*
X-579762D01*
X-619132Y409231D02*
Y418089D01*
X-619033Y422321D02*
X-619030Y422345D01*
X-619033Y422321D02*
X-546494D01*
Y423305D01*
X-619033D02*
X-546494D01*
X-619033D02*
X-619030Y422345D01*
X-619132Y391514D02*
Y392498D01*
Y391514D02*
X-579762D01*
Y400372D01*
X-619132D02*
X-579762D01*
X-619132Y391514D02*
Y400372D01*
X-619033Y369172D02*
X-619030Y369195D01*
X-619033Y369172D02*
X-546494D01*
Y370156D01*
X-619033D02*
X-546494D01*
X-619033D02*
X-619030Y369195D01*
X-614817Y186401D02*
X-500642D01*
X-579762Y373797D02*
X-553188D01*
Y382656D01*
X-579762D02*
X-553188D01*
X-579762Y373797D02*
Y382656D01*
X-519722D02*
Y383640D01*
Y382656D02*
X-476414D01*
Y391514D01*
X-519722D02*
X-476414D01*
X-519722Y382656D02*
Y391514D01*
X-537947Y339386D02*
X-511372D01*
Y348244D01*
X-537947D02*
X-511372D01*
X-537947Y339386D02*
Y348244D01*
X-618428Y359386D02*
X-618424Y359410D01*
X-618428Y359386D02*
X-552679D01*
Y360371D01*
X-618428D02*
X-552679D01*
X-618428D02*
X-618424Y359410D01*
X-519722Y400372D02*
Y401357D01*
Y400372D02*
X-476414D01*
Y409231D01*
X-519722D02*
X-476414D01*
X-519722Y400372D02*
Y409231D01*
X-500642Y150968D02*
Y227740D01*
X-519722Y400372D02*
Y401357D01*
Y400372D02*
X-476414D01*
Y409231D01*
X-519722D02*
X-476414D01*
X-519722Y400372D02*
Y409231D01*
X-579762Y391514D02*
X-553188D01*
Y400372D01*
X-579762D02*
X-553188D01*
X-579762Y391514D02*
Y400372D01*
X-519722Y364939D02*
Y365923D01*
Y364939D02*
X-476414D01*
Y373797D01*
X-519722D02*
X-476414D01*
X-519722Y364939D02*
Y373797D01*
X-546297Y382656D02*
X-519722D01*
Y391514D01*
X-546297D02*
X-519722D01*
X-546297Y382656D02*
Y391514D01*
X-631549Y210023D02*
X-614817D01*
X-631549D02*
Y227740D01*
X-614817D01*
Y150968D02*
X-500642D01*
X-663422Y439742D02*
Y440727D01*
Y439742D02*
X-455510D01*
Y448601D01*
X-663422D02*
X-455510D01*
X-663422Y439742D02*
Y448601D01*
X-619033Y404605D02*
X-619030Y404628D01*
X-619033Y404605D02*
X-546494D01*
Y405589D01*
X-619033D02*
X-546494D01*
X-619033D02*
X-619030Y404628D01*
X-546297Y364939D02*
X-519722D01*
Y373797D01*
X-546297D02*
X-519722D01*
X-546297Y364939D02*
Y373797D01*
X-614817Y198212D02*
X-500642D01*
X-614817Y174590D02*
X-500642D01*
X-614817Y227740D02*
X-500642D01*
X-579762Y409231D02*
X-553188D01*
Y418089D01*
X-579762D02*
X-553188D01*
X-579762Y409231D02*
Y418089D01*
D96*
X-618640Y387380D02*
X-546985D01*
X-618640Y422813D02*
X-546985D01*
X-618640Y369664D02*
X-546985D01*
X-618640Y405097D02*
X-546985D01*
D97*
X31477Y37753D02*
X31715Y37634D01*
X32072Y37277D01*
Y39777D01*
X33310Y37753D02*
X33548Y37634D01*
X33905Y37277D01*
Y39777D01*
X35857Y37277D02*
X35500Y37396D01*
X35262Y37753D01*
X35143Y38348D01*
Y38705D01*
X35262Y39301D01*
X35500Y39658D01*
X35857Y39777D01*
X36095D01*
X36452Y39658D01*
X36690Y39301D01*
X36809Y38705D01*
Y38348D01*
X36690Y37753D01*
X36452Y37396D01*
X36095Y37277D01*
X35857D01*
X33411Y43843D02*
X33292Y43605D01*
X32935Y43486D01*
X32697D01*
X32340Y43605D01*
X32102Y43962D01*
X31983Y44557D01*
Y45152D01*
X32102Y45628D01*
X32340Y45867D01*
X32697Y45985D01*
X32816D01*
X33173Y45867D01*
X33411Y45628D01*
X33530Y45271D01*
Y45152D01*
X33411Y44795D01*
X33173Y44557D01*
X32816Y44438D01*
X32697D01*
X32340Y44557D01*
X32102Y44795D01*
X31983Y45152D01*
X34316Y43486D02*
X35625D01*
X34911Y44438D01*
X35268D01*
X35506Y44557D01*
X35625Y44676D01*
X35744Y45033D01*
Y45271D01*
X35625Y45628D01*
X35387Y45867D01*
X35030Y45985D01*
X34673D01*
X34316Y45867D01*
X34197Y45748D01*
X34078Y45509D01*
D98*
X-544327Y368931D02*
X-544090Y369050D01*
X-543732Y369407D01*
Y366908D01*
X-539936Y368574D02*
X-540174Y368455D01*
X-540412Y368217D01*
X-540531Y367860D01*
Y367622D01*
X-540412Y367265D01*
X-540174Y367027D01*
X-539936Y366908D01*
X-539578D01*
X-539340Y367027D01*
X-539102Y367265D01*
X-538983Y367622D01*
Y367860D01*
X-539102Y368217D01*
X-539340Y368455D01*
X-539578Y368574D01*
X-539936D01*
X-537127D02*
X-538436Y366908D01*
Y368574D02*
X-537127D01*
X-538436Y366908D02*
X-537127D01*
X-644633Y445013D02*
X-645823Y443347D01*
X-644038D01*
X-644633Y445013D02*
Y442514D01*
X-641634Y445013D02*
Y442514D01*
X-640206D01*
X-638028D02*
X-638980Y445013D01*
X-639932Y442514D01*
X-639575Y443347D02*
X-638385D01*
X-637444Y445013D02*
X-636492Y443823D01*
Y442514D01*
X-635540Y445013D02*
X-636492Y443823D01*
X-633671Y445013D02*
X-635219D01*
Y442514D01*
X-633671D01*
X-635219Y443823D02*
X-634267D01*
X-633255Y445013D02*
Y442514D01*
Y445013D02*
X-632184D01*
X-631826Y444894D01*
X-631707Y444775D01*
X-631589Y444537D01*
Y444299D01*
X-631707Y444061D01*
X-631826Y443942D01*
X-632184Y443823D01*
X-633255D01*
X-632422D02*
X-631589Y442514D01*
X-627280Y444418D02*
X-627399Y444656D01*
X-627637Y444894D01*
X-627875Y445013D01*
X-628351D01*
X-628589Y444894D01*
X-628827Y444656D01*
X-628946Y444418D01*
X-629065Y444061D01*
Y443466D01*
X-628946Y443109D01*
X-628827Y442871D01*
X-628589Y442633D01*
X-628351Y442514D01*
X-627875D01*
X-627637Y442633D01*
X-627399Y442871D01*
X-627280Y443109D01*
X-626578Y445013D02*
Y442514D01*
Y445013D02*
X-625506D01*
X-625149Y444894D01*
X-625030Y444775D01*
X-624911Y444537D01*
Y444299D01*
X-625030Y444061D01*
X-625149Y443942D01*
X-625506Y443823D01*
X-626578D01*
X-625744D02*
X-624911Y442514D01*
X-623638Y445013D02*
X-623876Y444894D01*
X-624114Y444656D01*
X-624233Y444418D01*
X-624352Y444061D01*
Y443466D01*
X-624233Y443109D01*
X-624114Y442871D01*
X-623876Y442633D01*
X-623638Y442514D01*
X-623162D01*
X-622924Y442633D01*
X-622686Y442871D01*
X-622567Y443109D01*
X-622448Y443466D01*
Y444061D01*
X-622567Y444418D01*
X-622686Y444656D01*
X-622924Y444894D01*
X-623162Y445013D01*
X-623638D01*
X-620198Y444656D02*
X-620436Y444894D01*
X-620793Y445013D01*
X-621269D01*
X-621626Y444894D01*
X-621864Y444656D01*
Y444418D01*
X-621745Y444180D01*
X-621626Y444061D01*
X-621388Y443942D01*
X-620674Y443704D01*
X-620436Y443585D01*
X-620317Y443466D01*
X-620198Y443228D01*
Y442871D01*
X-620436Y442633D01*
X-620793Y442514D01*
X-621269D01*
X-621626Y442633D01*
X-621864Y442871D01*
X-617972Y444656D02*
X-618210Y444894D01*
X-618568Y445013D01*
X-619044D01*
X-619401Y444894D01*
X-619639Y444656D01*
Y444418D01*
X-619520Y444180D01*
X-619401Y444061D01*
X-619163Y443942D01*
X-618448Y443704D01*
X-618210Y443585D01*
X-618091Y443466D01*
X-617972Y443228D01*
Y442871D01*
X-618210Y442633D01*
X-618568Y442514D01*
X-619044D01*
X-619401Y442633D01*
X-619639Y442871D01*
X-613783Y444656D02*
X-614021Y444894D01*
X-614378Y445013D01*
X-614854D01*
X-615211Y444894D01*
X-615449Y444656D01*
Y444418D01*
X-615330Y444180D01*
X-615211Y444061D01*
X-614973Y443942D01*
X-614259Y443704D01*
X-614021Y443585D01*
X-613902Y443466D01*
X-613783Y443228D01*
Y442871D01*
X-614021Y442633D01*
X-614378Y442514D01*
X-614854D01*
X-615211Y442633D01*
X-615449Y442871D01*
X-611676Y445013D02*
X-613223D01*
Y442514D01*
X-611676D01*
X-613223Y443823D02*
X-612271D01*
X-609474Y444418D02*
X-609593Y444656D01*
X-609831Y444894D01*
X-610069Y445013D01*
X-610545D01*
X-610783Y444894D01*
X-611022Y444656D01*
X-611140Y444418D01*
X-611260Y444061D01*
Y443466D01*
X-611140Y443109D01*
X-611022Y442871D01*
X-610783Y442633D01*
X-610545Y442514D01*
X-610069D01*
X-609831Y442633D01*
X-609593Y442871D01*
X-609474Y443109D01*
X-607939Y445013D02*
Y442514D01*
X-608772Y445013D02*
X-607106D01*
X-606808D02*
Y442514D01*
X-605570Y445013D02*
X-605808Y444894D01*
X-606046Y444656D01*
X-606165Y444418D01*
X-606284Y444061D01*
Y443466D01*
X-606165Y443109D01*
X-606046Y442871D01*
X-605808Y442633D01*
X-605570Y442514D01*
X-605094D01*
X-604856Y442633D01*
X-604618Y442871D01*
X-604499Y443109D01*
X-604380Y443466D01*
Y444061D01*
X-604499Y444418D01*
X-604618Y444656D01*
X-604856Y444894D01*
X-605094Y445013D01*
X-605570D01*
X-603797D02*
Y442514D01*
Y445013D02*
X-602131Y442514D01*
Y445013D02*
Y442514D01*
X-599476Y445013D02*
Y442514D01*
Y445013D02*
X-598405D01*
X-598048Y444894D01*
X-597929Y444775D01*
X-597810Y444537D01*
Y444299D01*
X-597929Y444061D01*
X-598048Y443942D01*
X-598405Y443823D01*
X-599476D02*
X-598405D01*
X-598048Y443704D01*
X-597929Y443585D01*
X-597810Y443347D01*
Y442990D01*
X-597929Y442752D01*
X-598048Y442633D01*
X-598405Y442514D01*
X-599476D01*
X-597251Y445013D02*
Y443228D01*
X-597132Y442871D01*
X-596894Y442633D01*
X-596536Y442514D01*
X-596299D01*
X-595941Y442633D01*
X-595703Y442871D01*
X-595584Y443228D01*
Y445013D01*
X-594894D02*
Y442514D01*
X-594370Y445013D02*
Y442514D01*
X-592942D01*
X-592668Y445013D02*
Y442514D01*
Y445013D02*
X-591835D01*
X-591478Y444894D01*
X-591240Y444656D01*
X-591121Y444418D01*
X-591002Y444061D01*
Y443466D01*
X-591121Y443109D01*
X-591240Y442871D01*
X-591478Y442633D01*
X-591835Y442514D01*
X-592668D01*
X-588479Y443585D02*
X-586336D01*
X-581849Y444418D02*
X-581968Y444656D01*
X-582206Y444894D01*
X-582444Y445013D01*
X-582920D01*
X-583158Y444894D01*
X-583396Y444656D01*
X-583516Y444418D01*
X-583635Y444061D01*
Y443466D01*
X-583516Y443109D01*
X-583396Y442871D01*
X-583158Y442633D01*
X-582920Y442514D01*
X-582444D01*
X-582206Y442633D01*
X-581968Y442871D01*
X-581849Y443109D01*
X-580433Y445013D02*
X-580671Y444894D01*
X-580909Y444656D01*
X-581028Y444418D01*
X-581147Y444061D01*
Y443466D01*
X-581028Y443109D01*
X-580909Y442871D01*
X-580671Y442633D01*
X-580433Y442514D01*
X-579957D01*
X-579719Y442633D01*
X-579481Y442871D01*
X-579362Y443109D01*
X-579243Y443466D01*
Y444061D01*
X-579362Y444418D01*
X-579481Y444656D01*
X-579719Y444894D01*
X-579957Y445013D01*
X-580433D01*
X-578659D02*
Y442514D01*
Y445013D02*
X-576993Y442514D01*
Y445013D02*
Y442514D01*
X-575470Y445013D02*
Y442514D01*
X-576303Y445013D02*
X-574636D01*
X-574339D02*
Y442514D01*
Y445013D02*
X-573268D01*
X-572911Y444894D01*
X-572792Y444775D01*
X-572673Y444537D01*
Y444299D01*
X-572792Y444061D01*
X-572911Y443942D01*
X-573268Y443823D01*
X-574339D01*
X-573506D02*
X-572673Y442514D01*
X-571399Y445013D02*
X-571637Y444894D01*
X-571875Y444656D01*
X-571994Y444418D01*
X-572113Y444061D01*
Y443466D01*
X-571994Y443109D01*
X-571875Y442871D01*
X-571637Y442633D01*
X-571399Y442514D01*
X-570923D01*
X-570685Y442633D01*
X-570447Y442871D01*
X-570328Y443109D01*
X-570209Y443466D01*
Y444061D01*
X-570328Y444418D01*
X-570447Y444656D01*
X-570685Y444894D01*
X-570923Y445013D01*
X-571399D01*
X-569626D02*
Y442514D01*
X-568197D01*
X-567924Y445013D02*
Y442514D01*
X-566495D01*
X-564674Y445013D02*
X-566222D01*
Y442514D01*
X-564674D01*
X-566222Y443823D02*
X-565269D01*
X-564258Y445013D02*
Y442514D01*
Y445013D02*
X-563425D01*
X-563067Y444894D01*
X-562829Y444656D01*
X-562710Y444418D01*
X-562591Y444061D01*
Y443466D01*
X-562710Y443109D01*
X-562829Y442871D01*
X-563067Y442633D01*
X-563425Y442514D01*
X-564258D01*
X-560068Y445013D02*
Y442514D01*
X-559545Y445013D02*
Y442514D01*
Y445013D02*
X-558592Y442514D01*
X-557640Y445013D02*
X-558592Y442514D01*
X-557640Y445013D02*
Y442514D01*
X-556926Y443704D02*
X-555855D01*
X-555498Y443823D01*
X-555379Y443942D01*
X-555260Y444180D01*
Y444537D01*
X-555379Y444775D01*
X-555498Y444894D01*
X-555855Y445013D01*
X-556926D01*
Y442514D01*
X-553153Y445013D02*
X-554700D01*
Y442514D01*
X-553153D01*
X-554700Y443823D02*
X-553748D01*
X-552736Y445013D02*
Y442514D01*
Y445013D02*
X-551903D01*
X-551546Y444894D01*
X-551308Y444656D01*
X-551189Y444418D01*
X-551070Y444061D01*
Y443466D01*
X-551189Y443109D01*
X-551308Y442871D01*
X-551546Y442633D01*
X-551903Y442514D01*
X-552736D01*
X-548606D02*
X-549558Y445013D01*
X-550511Y442514D01*
X-550154Y443347D02*
X-548963D01*
X-548023Y445013D02*
Y442514D01*
Y445013D02*
X-546357Y442514D01*
Y445013D02*
Y442514D01*
X-543881Y444418D02*
X-544000Y444656D01*
X-544238Y444894D01*
X-544476Y445013D01*
X-544952D01*
X-545190Y444894D01*
X-545428Y444656D01*
X-545547Y444418D01*
X-545667Y444061D01*
Y443466D01*
X-545547Y443109D01*
X-545428Y442871D01*
X-545190Y442633D01*
X-544952Y442514D01*
X-544476D01*
X-544238Y442633D01*
X-544000Y442871D01*
X-543881Y443109D01*
X-541632Y445013D02*
X-543179D01*
Y442514D01*
X-541632D01*
X-543179Y443823D02*
X-542227D01*
X-652596Y369407D02*
Y366908D01*
Y369407D02*
X-651524D01*
X-651167Y369288D01*
X-651048Y369169D01*
X-650929Y368931D01*
Y368693D01*
X-651048Y368455D01*
X-651167Y368336D01*
X-651524Y368217D01*
X-652596D02*
X-651524D01*
X-651167Y368098D01*
X-651048Y367979D01*
X-650929Y367741D01*
Y367384D01*
X-651048Y367146D01*
X-651167Y367027D01*
X-651524Y366908D01*
X-652596D01*
X-649656Y369407D02*
X-649894Y369288D01*
X-650132Y369050D01*
X-650251Y368812D01*
X-650370Y368455D01*
Y367860D01*
X-650251Y367503D01*
X-650132Y367265D01*
X-649894Y367027D01*
X-649656Y366908D01*
X-649180D01*
X-648942Y367027D01*
X-648703Y367265D01*
X-648585Y367503D01*
X-648465Y367860D01*
Y368455D01*
X-648585Y368812D01*
X-648703Y369050D01*
X-648942Y369288D01*
X-649180Y369407D01*
X-649656D01*
X-647049D02*
Y366908D01*
X-647882Y369407D02*
X-646216D01*
X-645085D02*
Y366908D01*
X-645918Y369407D02*
X-644252D01*
X-643240D02*
X-643478Y369288D01*
X-643716Y369050D01*
X-643835Y368812D01*
X-643955Y368455D01*
Y367860D01*
X-643835Y367503D01*
X-643716Y367265D01*
X-643478Y367027D01*
X-643240Y366908D01*
X-642764D01*
X-642526Y367027D01*
X-642288Y367265D01*
X-642169Y367503D01*
X-642050Y367860D01*
Y368455D01*
X-642169Y368812D01*
X-642288Y369050D01*
X-642526Y369288D01*
X-642764Y369407D01*
X-643240D01*
X-641467D02*
Y366908D01*
Y369407D02*
X-640515Y366908D01*
X-639563Y369407D02*
X-640515Y366908D01*
X-639563Y369407D02*
Y366908D01*
X-603155Y203664D02*
Y201165D01*
X-603989Y203664D02*
X-602322D01*
X-602025Y202831D02*
Y201165D01*
Y202117D02*
X-601906Y202474D01*
X-601668Y202712D01*
X-601430Y202831D01*
X-601073D01*
X-599418D02*
Y201165D01*
Y202474D02*
X-599656Y202712D01*
X-599894Y202831D01*
X-600251D01*
X-600489Y202712D01*
X-600727Y202474D01*
X-600846Y202117D01*
Y201879D01*
X-600727Y201522D01*
X-600489Y201284D01*
X-600251Y201165D01*
X-599894D01*
X-599656Y201284D01*
X-599418Y201522D01*
X-597323Y202474D02*
X-597561Y202712D01*
X-597799Y202831D01*
X-598156D01*
X-598394Y202712D01*
X-598632Y202474D01*
X-598751Y202117D01*
Y201879D01*
X-598632Y201522D01*
X-598394Y201284D01*
X-598156Y201165D01*
X-597799D01*
X-597561Y201284D01*
X-597323Y201522D01*
X-596788Y202117D02*
X-595359D01*
Y202355D01*
X-595478Y202593D01*
X-595598Y202712D01*
X-595835Y202831D01*
X-596193D01*
X-596431Y202712D01*
X-596669Y202474D01*
X-596788Y202117D01*
Y201879D01*
X-596669Y201522D01*
X-596431Y201284D01*
X-596193Y201165D01*
X-595835D01*
X-595598Y201284D01*
X-595359Y201522D01*
X-592860Y203664D02*
X-592265Y201165D01*
X-591670Y203664D02*
X-592265Y201165D01*
X-591670Y203664D02*
X-591075Y201165D01*
X-590480Y203664D02*
X-591075Y201165D01*
X-589742Y203664D02*
X-589622Y203545D01*
X-589503Y203664D01*
X-589622Y203783D01*
X-589742Y203664D01*
X-589622Y202831D02*
Y201165D01*
X-587635Y203664D02*
Y201165D01*
Y202474D02*
X-587873Y202712D01*
X-588111Y202831D01*
X-588468D01*
X-588706Y202712D01*
X-588944Y202474D01*
X-589063Y202117D01*
Y201879D01*
X-588944Y201522D01*
X-588706Y201284D01*
X-588468Y201165D01*
X-588111D01*
X-587873Y201284D01*
X-587635Y201522D01*
X-586611Y203664D02*
Y201641D01*
X-586492Y201284D01*
X-586254Y201165D01*
X-586016D01*
X-586968Y202831D02*
X-586135D01*
X-585659Y203664D02*
Y201165D01*
Y202355D02*
X-585302Y202712D01*
X-585064Y202831D01*
X-584707D01*
X-584469Y202712D01*
X-584350Y202355D01*
Y201165D01*
X-583576Y202831D02*
X-583695Y202712D01*
X-583576Y202593D01*
X-583457Y202712D01*
X-583576Y202831D01*
Y201403D02*
X-583695Y201284D01*
X-583576Y201165D01*
X-583457Y201284D01*
X-583576Y201403D01*
X-612243Y376956D02*
X-611171D01*
X-610814Y377075D01*
X-610695Y377194D01*
X-610576Y377432D01*
Y377789D01*
X-610695Y378027D01*
X-610814Y378146D01*
X-611171Y378265D01*
X-612243D01*
Y375766D01*
X-610017Y378265D02*
Y375766D01*
Y378265D02*
X-608946D01*
X-608589Y378146D01*
X-608469Y378027D01*
X-608351Y377789D01*
Y377551D01*
X-608469Y377313D01*
X-608589Y377194D01*
X-608946Y377075D01*
X-610017D01*
X-609184D02*
X-608351Y375766D01*
X-606244Y378265D02*
X-607791D01*
Y375766D01*
X-606244D01*
X-607791Y377075D02*
X-606839D01*
X-605827Y376956D02*
X-604756D01*
X-604399Y377075D01*
X-604280Y377194D01*
X-604161Y377432D01*
Y377789D01*
X-604280Y378027D01*
X-604399Y378146D01*
X-604756Y378265D01*
X-605827D01*
Y375766D01*
X-603602Y378265D02*
Y375766D01*
Y378265D02*
X-602530D01*
X-602173Y378146D01*
X-602054Y378027D01*
X-601935Y377789D01*
Y377551D01*
X-602054Y377313D01*
X-602173Y377194D01*
X-602530Y377075D01*
X-603602D01*
X-602768D02*
X-601935Y375766D01*
X-599828Y378265D02*
X-601376D01*
Y375766D01*
X-599828D01*
X-601376Y377075D02*
X-600424D01*
X-597627Y377670D02*
X-597746Y377908D01*
X-597984Y378146D01*
X-598222Y378265D01*
X-598698D01*
X-598936Y378146D01*
X-599174Y377908D01*
X-599293Y377670D01*
X-599412Y377313D01*
Y376718D01*
X-599293Y376361D01*
X-599174Y376123D01*
X-598936Y375885D01*
X-598698Y375766D01*
X-598222D01*
X-597984Y375885D01*
X-597746Y376123D01*
X-597627Y376361D01*
Y376718D01*
X-598222D02*
X-597627D01*
X-636847Y431415D02*
Y428916D01*
Y431415D02*
X-635895Y428916D01*
X-634943Y431415D02*
X-635895Y428916D01*
X-634943Y431415D02*
Y428916D01*
X-632325D02*
X-633277Y431415D01*
X-634229Y428916D01*
X-633872Y429749D02*
X-632682D01*
X-630075Y431058D02*
X-630313Y431296D01*
X-630670Y431415D01*
X-631146D01*
X-631503Y431296D01*
X-631742Y431058D01*
Y430820D01*
X-631622Y430582D01*
X-631503Y430463D01*
X-631265Y430344D01*
X-630551Y430106D01*
X-630313Y429987D01*
X-630194Y429868D01*
X-630075Y429630D01*
Y429273D01*
X-630313Y429035D01*
X-630670Y428916D01*
X-631146D01*
X-631503Y429035D01*
X-631742Y429273D01*
X-629516Y431415D02*
Y428916D01*
X-627849Y431415D02*
X-629516Y429749D01*
X-628921Y430344D02*
X-627849Y428916D01*
X-515786Y369407D02*
Y366908D01*
Y369407D02*
X-514714D01*
X-514357Y369288D01*
X-514238Y369169D01*
X-514119Y368931D01*
Y368693D01*
X-514238Y368455D01*
X-514357Y368336D01*
X-514714Y368217D01*
X-515786D01*
X-514952D02*
X-514119Y366908D01*
X-512846Y369407D02*
X-513084Y369288D01*
X-513322Y369050D01*
X-513441Y368812D01*
X-513560Y368455D01*
Y367860D01*
X-513441Y367503D01*
X-513322Y367265D01*
X-513084Y367027D01*
X-512846Y366908D01*
X-512370D01*
X-512132Y367027D01*
X-511894Y367265D01*
X-511774Y367503D01*
X-511656Y367860D01*
Y368455D01*
X-511774Y368812D01*
X-511894Y369050D01*
X-512132Y369288D01*
X-512370Y369407D01*
X-512846D01*
X-511072D02*
Y367622D01*
X-510953Y367265D01*
X-510715Y367027D01*
X-510358Y366908D01*
X-510120D01*
X-509763Y367027D01*
X-509525Y367265D01*
X-509406Y367622D01*
Y369407D01*
X-507882D02*
Y366908D01*
X-508716Y369407D02*
X-507049D01*
X-506752D02*
Y366908D01*
X-506228Y369407D02*
Y366908D01*
Y369407D02*
X-504562Y366908D01*
Y369407D02*
Y366908D01*
X-502086Y368812D02*
X-502205Y369050D01*
X-502443Y369288D01*
X-502681Y369407D01*
X-503157D01*
X-503395Y369288D01*
X-503633Y369050D01*
X-503752Y368812D01*
X-503871Y368455D01*
Y367860D01*
X-503752Y367503D01*
X-503633Y367265D01*
X-503395Y367027D01*
X-503157Y366908D01*
X-502681D01*
X-502443Y367027D01*
X-502205Y367265D01*
X-502086Y367503D01*
Y367860D01*
X-502681D02*
X-502086D01*
X-618373Y332087D02*
X-618135Y332206D01*
X-617778Y332563D01*
Y330064D01*
X-616422Y330302D02*
X-616541Y330183D01*
X-616422Y330064D01*
X-616302Y330183D01*
X-616422Y330302D01*
X-658989Y333563D02*
X-659227Y333444D01*
X-659466Y333206D01*
X-659585Y332968D01*
X-659703Y332611D01*
Y332016D01*
X-659585Y331659D01*
X-659466Y331421D01*
X-659227Y331183D01*
X-658989Y331064D01*
X-658513D01*
X-658275Y331183D01*
X-658037Y331421D01*
X-657918Y331659D01*
X-657799Y332016D01*
Y332611D01*
X-657918Y332968D01*
X-658037Y333206D01*
X-658275Y333444D01*
X-658513Y333563D01*
X-658989D01*
X-656859D02*
Y331540D01*
X-656740Y331183D01*
X-656502Y331064D01*
X-656264D01*
X-657216Y332730D02*
X-656383D01*
X-655907Y333563D02*
Y331064D01*
Y332254D02*
X-655550Y332611D01*
X-655312Y332730D01*
X-654954D01*
X-654716Y332611D01*
X-654598Y332254D01*
Y331064D01*
X-653943Y332016D02*
X-652515D01*
Y332254D01*
X-652634Y332492D01*
X-652753Y332611D01*
X-652991Y332730D01*
X-653348D01*
X-653586Y332611D01*
X-653824Y332373D01*
X-653943Y332016D01*
Y331778D01*
X-653824Y331421D01*
X-653586Y331183D01*
X-653348Y331064D01*
X-652991D01*
X-652753Y331183D01*
X-652515Y331421D01*
X-651979Y332730D02*
Y331064D01*
Y332016D02*
X-651860Y332373D01*
X-651622Y332611D01*
X-651384Y332730D01*
X-651027D01*
X-648837Y333563D02*
Y331064D01*
Y333563D02*
X-647170Y331064D01*
Y333563D02*
Y331064D01*
X-645885Y332730D02*
X-646123Y332611D01*
X-646361Y332373D01*
X-646480Y332016D01*
Y331778D01*
X-646361Y331421D01*
X-646123Y331183D01*
X-645885Y331064D01*
X-645528D01*
X-645290Y331183D01*
X-645052Y331421D01*
X-644933Y331778D01*
Y332016D01*
X-645052Y332373D01*
X-645290Y332611D01*
X-645528Y332730D01*
X-645885D01*
X-644028Y333563D02*
Y331540D01*
X-643909Y331183D01*
X-643671Y331064D01*
X-643433D01*
X-644385Y332730D02*
X-643552D01*
X-643076Y332016D02*
X-641648D01*
Y332254D01*
X-641767Y332492D01*
X-641886Y332611D01*
X-642124Y332730D01*
X-642481D01*
X-642719Y332611D01*
X-642957Y332373D01*
X-643076Y332016D01*
Y331778D01*
X-642957Y331421D01*
X-642719Y331183D01*
X-642481Y331064D01*
X-642124D01*
X-641886Y331183D01*
X-641648Y331421D01*
X-639803Y332373D02*
X-639922Y332611D01*
X-640279Y332730D01*
X-640636D01*
X-640993Y332611D01*
X-641112Y332373D01*
X-640993Y332135D01*
X-640755Y332016D01*
X-640160Y331897D01*
X-639922Y331778D01*
X-639803Y331540D01*
Y331421D01*
X-639922Y331183D01*
X-640279Y331064D01*
X-640636D01*
X-640993Y331183D01*
X-641112Y331421D01*
X-639160Y332730D02*
X-639279Y332611D01*
X-639160Y332492D01*
X-639041Y332611D01*
X-639160Y332730D01*
Y331302D02*
X-639279Y331183D01*
X-639160Y331064D01*
X-639041Y331183D01*
X-639160Y331302D01*
X-610457Y395387D02*
X-610576Y395625D01*
X-610814Y395863D01*
X-611052Y395982D01*
X-611528D01*
X-611766Y395863D01*
X-612005Y395625D01*
X-612123Y395387D01*
X-612243Y395030D01*
Y394435D01*
X-612123Y394078D01*
X-612005Y393840D01*
X-611766Y393602D01*
X-611528Y393483D01*
X-611052D01*
X-610814Y393602D01*
X-610576Y393840D01*
X-610457Y394078D01*
X-609041Y395982D02*
X-609279Y395863D01*
X-609517Y395625D01*
X-609636Y395387D01*
X-609755Y395030D01*
Y394435D01*
X-609636Y394078D01*
X-609517Y393840D01*
X-609279Y393602D01*
X-609041Y393483D01*
X-608565D01*
X-608327Y393602D01*
X-608089Y393840D01*
X-607970Y394078D01*
X-607851Y394435D01*
Y395030D01*
X-607970Y395387D01*
X-608089Y395625D01*
X-608327Y395863D01*
X-608565Y395982D01*
X-609041D01*
X-607267D02*
Y393483D01*
Y395982D02*
X-606196D01*
X-605839Y395863D01*
X-605720Y395744D01*
X-605601Y395506D01*
Y395268D01*
X-605720Y395030D01*
X-605839Y394911D01*
X-606196Y394792D01*
X-607267D01*
X-606434D02*
X-605601Y393483D01*
X-603494Y395982D02*
X-605042D01*
Y393483D01*
X-603494D01*
X-605042Y394792D02*
X-604089D01*
X-544242Y192191D02*
X-544004Y192310D01*
X-543647Y192667D01*
Y190168D01*
X-542290Y192072D02*
Y192191D01*
X-542171Y192429D01*
X-542053Y192548D01*
X-541815Y192667D01*
X-541338D01*
X-541100Y192548D01*
X-540981Y192429D01*
X-540862Y192191D01*
Y191953D01*
X-540981Y191715D01*
X-541219Y191358D01*
X-542410Y190168D01*
X-540743D01*
X-540065Y190406D02*
X-540184Y190287D01*
X-540065Y190168D01*
X-539946Y190287D01*
X-540065Y190406D01*
X-538684Y192667D02*
X-539041Y192548D01*
X-539279Y192191D01*
X-539398Y191596D01*
Y191239D01*
X-539279Y190644D01*
X-539041Y190287D01*
X-538684Y190168D01*
X-538446D01*
X-538089Y190287D01*
X-537851Y190644D01*
X-537732Y191239D01*
Y191596D01*
X-537851Y192191D01*
X-538089Y192548D01*
X-538446Y192667D01*
X-538684D01*
X-536458D02*
X-536816Y192548D01*
X-537054Y192191D01*
X-537173Y191596D01*
Y191239D01*
X-537054Y190644D01*
X-536816Y190287D01*
X-536458Y190168D01*
X-536220D01*
X-535863Y190287D01*
X-535625Y190644D01*
X-535506Y191239D01*
Y191596D01*
X-535625Y192191D01*
X-535863Y192548D01*
X-536220Y192667D01*
X-536458D01*
X-532983Y191834D02*
Y190168D01*
Y191358D02*
X-532626Y191715D01*
X-532388Y191834D01*
X-532031D01*
X-531793Y191715D01*
X-531674Y191358D01*
Y190168D01*
Y191358D02*
X-531317Y191715D01*
X-531079Y191834D01*
X-530722D01*
X-530484Y191715D01*
X-530365Y191358D01*
Y190168D01*
X-529341Y192667D02*
X-529222Y192548D01*
X-529103Y192667D01*
X-529222Y192786D01*
X-529341Y192667D01*
X-529222Y191834D02*
Y190168D01*
X-528662Y192667D02*
Y190168D01*
X-526830Y191477D02*
X-526949Y191715D01*
X-527306Y191834D01*
X-527663D01*
X-528020Y191715D01*
X-528139Y191477D01*
X-528020Y191239D01*
X-527782Y191120D01*
X-527187Y191001D01*
X-526949Y190882D01*
X-526830Y190644D01*
Y190525D01*
X-526949Y190287D01*
X-527306Y190168D01*
X-527663D01*
X-528020Y190287D01*
X-528139Y190525D01*
X-587558Y192480D02*
X-587796Y192718D01*
X-588153Y192837D01*
X-588629D01*
X-588986Y192718D01*
X-589224Y192480D01*
Y192242D01*
X-589106Y192004D01*
X-588986Y191885D01*
X-588748Y191766D01*
X-588034Y191528D01*
X-587796Y191409D01*
X-587677Y191290D01*
X-587558Y191052D01*
Y190695D01*
X-587796Y190457D01*
X-588153Y190338D01*
X-588629D01*
X-588986Y190457D01*
X-589224Y190695D01*
X-586999Y192004D02*
Y189505D01*
Y191647D02*
X-586761Y191885D01*
X-586523Y192004D01*
X-586166D01*
X-585928Y191885D01*
X-585690Y191647D01*
X-585570Y191290D01*
Y191052D01*
X-585690Y190695D01*
X-585928Y190457D01*
X-586166Y190338D01*
X-586523D01*
X-586761Y190457D01*
X-586999Y190695D01*
X-583607Y192004D02*
Y190338D01*
Y191647D02*
X-583845Y191885D01*
X-584083Y192004D01*
X-584440D01*
X-584678Y191885D01*
X-584916Y191647D01*
X-585035Y191290D01*
Y191052D01*
X-584916Y190695D01*
X-584678Y190457D01*
X-584440Y190338D01*
X-584083D01*
X-583845Y190457D01*
X-583607Y190695D01*
X-581512Y191647D02*
X-581750Y191885D01*
X-581988Y192004D01*
X-582345D01*
X-582583Y191885D01*
X-582821Y191647D01*
X-582940Y191290D01*
Y191052D01*
X-582821Y190695D01*
X-582583Y190457D01*
X-582345Y190338D01*
X-581988D01*
X-581750Y190457D01*
X-581512Y190695D01*
X-580738Y192837D02*
X-580619Y192718D01*
X-580500Y192837D01*
X-580619Y192956D01*
X-580738Y192837D01*
X-580619Y192004D02*
Y190338D01*
X-580060Y192004D02*
Y190338D01*
Y191528D02*
X-579703Y191885D01*
X-579465Y192004D01*
X-579108D01*
X-578870Y191885D01*
X-578751Y191528D01*
Y190338D01*
X-576668Y192004D02*
Y190100D01*
X-576787Y189743D01*
X-576906Y189624D01*
X-577144Y189505D01*
X-577501D01*
X-577739Y189624D01*
X-576668Y191647D02*
X-576906Y191885D01*
X-577144Y192004D01*
X-577501D01*
X-577739Y191885D01*
X-577977Y191647D01*
X-578096Y191290D01*
Y191052D01*
X-577977Y190695D01*
X-577739Y190457D01*
X-577501Y190338D01*
X-577144D01*
X-576906Y190457D01*
X-576668Y190695D01*
X-575882Y192004D02*
X-576001Y191885D01*
X-575882Y191766D01*
X-575763Y191885D01*
X-575882Y192004D01*
Y190576D02*
X-576001Y190457D01*
X-575882Y190338D01*
X-575763Y190457D01*
X-575882Y190576D01*
X-533042Y344691D02*
X-532804Y344810D01*
X-532447Y345167D01*
Y342668D01*
X-531090Y342906D02*
X-531210Y342787D01*
X-531090Y342668D01*
X-530971Y342787D01*
X-531090Y342906D01*
X-529710Y345167D02*
X-530067Y345048D01*
X-530305Y344691D01*
X-530424Y344096D01*
Y343739D01*
X-530305Y343144D01*
X-530067Y342787D01*
X-529710Y342668D01*
X-529472D01*
X-529115Y342787D01*
X-528877Y343144D01*
X-528758Y343739D01*
Y344096D01*
X-528877Y344691D01*
X-529115Y345048D01*
X-529472Y345167D01*
X-529710D01*
X-527484D02*
X-527841Y345048D01*
X-528079Y344691D01*
X-528198Y344096D01*
Y343739D01*
X-528079Y343144D01*
X-527841Y342787D01*
X-527484Y342668D01*
X-527246D01*
X-526889Y342787D01*
X-526651Y343144D01*
X-526532Y343739D01*
Y344096D01*
X-526651Y344691D01*
X-526889Y345048D01*
X-527246Y345167D01*
X-527484D01*
X-524009Y344334D02*
Y342668D01*
Y343858D02*
X-523652Y344215D01*
X-523414Y344334D01*
X-523057D01*
X-522819Y344215D01*
X-522699Y343858D01*
Y342668D01*
Y343858D02*
X-522342Y344215D01*
X-522104Y344334D01*
X-521747D01*
X-521509Y344215D01*
X-521390Y343858D01*
Y342668D01*
X-520605Y344334D02*
Y342668D01*
Y343858D02*
X-520248Y344215D01*
X-520010Y344334D01*
X-519653D01*
X-519415Y344215D01*
X-519296Y343858D01*
Y342668D01*
Y343858D02*
X-518938Y344215D01*
X-518700Y344334D01*
X-518343D01*
X-518105Y344215D01*
X-517986Y343858D01*
Y342668D01*
X-543623Y405037D02*
X-543386Y405156D01*
X-543028Y405513D01*
Y403014D01*
X-539232Y404680D02*
X-539470Y404561D01*
X-539708Y404323D01*
X-539827Y403966D01*
Y403728D01*
X-539708Y403371D01*
X-539470Y403133D01*
X-539232Y403014D01*
X-538874D01*
X-538636Y403133D01*
X-538398Y403371D01*
X-538279Y403728D01*
Y403966D01*
X-538398Y404323D01*
X-538636Y404561D01*
X-538874Y404680D01*
X-539232D01*
X-536423D02*
X-537732Y403014D01*
Y404680D02*
X-536423D01*
X-537732Y403014D02*
X-536423D01*
X-515786Y422556D02*
Y420057D01*
Y422556D02*
X-514714D01*
X-514357Y422437D01*
X-514238Y422318D01*
X-514119Y422080D01*
Y421842D01*
X-514238Y421604D01*
X-514357Y421485D01*
X-514714Y421366D01*
X-515786D01*
X-514952D02*
X-514119Y420057D01*
X-512846Y422556D02*
X-513084Y422437D01*
X-513322Y422199D01*
X-513441Y421961D01*
X-513560Y421604D01*
Y421009D01*
X-513441Y420652D01*
X-513322Y420414D01*
X-513084Y420176D01*
X-512846Y420057D01*
X-512370D01*
X-512132Y420176D01*
X-511894Y420414D01*
X-511774Y420652D01*
X-511656Y421009D01*
Y421604D01*
X-511774Y421961D01*
X-511894Y422199D01*
X-512132Y422437D01*
X-512370Y422556D01*
X-512846D01*
X-511072D02*
Y420771D01*
X-510953Y420414D01*
X-510715Y420176D01*
X-510358Y420057D01*
X-510120D01*
X-509763Y420176D01*
X-509525Y420414D01*
X-509406Y420771D01*
Y422556D01*
X-507882D02*
Y420057D01*
X-508716Y422556D02*
X-507049D01*
X-506752D02*
Y420057D01*
X-506228Y422556D02*
Y420057D01*
Y422556D02*
X-504562Y420057D01*
Y422556D02*
Y420057D01*
X-502086Y421961D02*
X-502205Y422199D01*
X-502443Y422437D01*
X-502681Y422556D01*
X-503157D01*
X-503395Y422437D01*
X-503633Y422199D01*
X-503752Y421961D01*
X-503871Y421604D01*
Y421009D01*
X-503752Y420652D01*
X-503633Y420414D01*
X-503395Y420176D01*
X-503157Y420057D01*
X-502681D01*
X-502443Y420176D01*
X-502205Y420414D01*
X-502086Y420652D01*
Y421009D01*
X-502681D02*
X-502086D01*
X-659569Y343283D02*
Y340784D01*
Y343283D02*
X-658497D01*
X-658140Y343164D01*
X-658021Y343045D01*
X-657902Y342807D01*
Y342569D01*
X-658021Y342331D01*
X-658140Y342212D01*
X-658497Y342093D01*
X-659569D02*
X-658497D01*
X-658140Y341974D01*
X-658021Y341855D01*
X-657902Y341617D01*
Y341260D01*
X-658021Y341022D01*
X-658140Y340903D01*
X-658497Y340784D01*
X-659569D01*
X-656629Y343283D02*
X-656867Y343164D01*
X-657105Y342926D01*
X-657224Y342688D01*
X-657343Y342331D01*
Y341736D01*
X-657224Y341379D01*
X-657105Y341141D01*
X-656867Y340903D01*
X-656629Y340784D01*
X-656153D01*
X-655914Y340903D01*
X-655677Y341141D01*
X-655557Y341379D01*
X-655439Y341736D01*
Y342331D01*
X-655557Y342688D01*
X-655677Y342926D01*
X-655914Y343164D01*
X-656153Y343283D01*
X-656629D01*
X-652951Y340784D02*
X-653903Y343283D01*
X-654855Y340784D01*
X-654498Y341617D02*
X-653308D01*
X-652368Y343283D02*
Y340784D01*
Y343283D02*
X-651297D01*
X-650939Y343164D01*
X-650820Y343045D01*
X-650701Y342807D01*
Y342569D01*
X-650820Y342331D01*
X-650939Y342212D01*
X-651297Y342093D01*
X-652368D01*
X-651535D02*
X-650701Y340784D01*
X-650142Y343283D02*
Y340784D01*
Y343283D02*
X-649309D01*
X-648952Y343164D01*
X-648714Y342926D01*
X-648595Y342688D01*
X-648476Y342331D01*
Y341736D01*
X-648595Y341379D01*
X-648714Y341141D01*
X-648952Y340903D01*
X-649309Y340784D01*
X-650142D01*
X-645119Y343283D02*
Y340784D01*
X-645952Y343283D02*
X-644286D01*
X-643989D02*
Y340784D01*
X-642322Y343283D02*
Y340784D01*
X-643989Y342093D02*
X-642322D01*
X-641632Y343283D02*
Y340784D01*
X-639323Y342688D02*
X-639442Y342926D01*
X-639680Y343164D01*
X-639918Y343283D01*
X-640394D01*
X-640632Y343164D01*
X-640870Y342926D01*
X-640989Y342688D01*
X-641108Y342331D01*
Y341736D01*
X-640989Y341379D01*
X-640870Y341141D01*
X-640632Y340903D01*
X-640394Y340784D01*
X-639918D01*
X-639680Y340903D01*
X-639442Y341141D01*
X-639323Y341379D01*
X-638621Y343283D02*
Y340784D01*
X-636954Y343283D02*
X-638621Y341617D01*
X-638026Y342212D02*
X-636954Y340784D01*
X-636395Y343283D02*
Y340784D01*
Y343283D02*
X-634729Y340784D01*
Y343283D02*
Y340784D01*
X-632491Y343283D02*
X-634038D01*
Y340784D01*
X-632491D01*
X-634038Y342093D02*
X-633086D01*
X-630408Y342926D02*
X-630646Y343164D01*
X-631003Y343283D01*
X-631479D01*
X-631836Y343164D01*
X-632074Y342926D01*
Y342688D01*
X-631955Y342450D01*
X-631836Y342331D01*
X-631598Y342212D01*
X-630884Y341974D01*
X-630646Y341855D01*
X-630527Y341736D01*
X-630408Y341498D01*
Y341141D01*
X-630646Y340903D01*
X-631003Y340784D01*
X-631479D01*
X-631836Y340903D01*
X-632074Y341141D01*
X-628182Y342926D02*
X-628420Y343164D01*
X-628778Y343283D01*
X-629254D01*
X-629611Y343164D01*
X-629849Y342926D01*
Y342688D01*
X-629730Y342450D01*
X-629611Y342331D01*
X-629373Y342212D01*
X-628658Y341974D01*
X-628420Y341855D01*
X-628301Y341736D01*
X-628182Y341498D01*
Y341141D01*
X-628420Y340903D01*
X-628778Y340784D01*
X-629254D01*
X-629611Y340903D01*
X-629849Y341141D01*
X-623755Y340784D02*
X-624707Y343283D01*
X-625659Y340784D01*
X-625302Y341617D02*
X-624112D01*
X-623172Y343283D02*
Y340784D01*
Y343283D02*
X-621624D01*
X-623172Y342093D02*
X-622219D01*
X-620506Y343283D02*
Y340784D01*
X-621339Y343283D02*
X-619672D01*
X-617828D02*
X-619375D01*
Y340784D01*
X-617828D01*
X-619375Y342093D02*
X-618423D01*
X-617411Y343283D02*
Y340784D01*
Y343283D02*
X-616340D01*
X-615983Y343164D01*
X-615864Y343045D01*
X-615745Y342807D01*
Y342569D01*
X-615864Y342331D01*
X-615983Y342212D01*
X-616340Y342093D01*
X-617411D01*
X-616578D02*
X-615745Y340784D01*
X-613221Y341974D02*
X-612150D01*
X-611793Y342093D01*
X-611674Y342212D01*
X-611555Y342450D01*
Y342807D01*
X-611674Y343045D01*
X-611793Y343164D01*
X-612150Y343283D01*
X-613221D01*
Y340784D01*
X-610996Y343283D02*
Y340784D01*
X-609567D01*
X-607389D02*
X-608341Y343283D01*
X-609294Y340784D01*
X-608937Y341617D02*
X-607746D01*
X-605973Y343283D02*
Y340784D01*
X-606806Y343283D02*
X-605140D01*
X-604842D02*
Y340784D01*
X-604319Y343283D02*
Y340784D01*
Y343283D02*
X-602652Y340784D01*
Y343283D02*
Y340784D01*
X-600176Y342688D02*
X-600296Y342926D01*
X-600534Y343164D01*
X-600772Y343283D01*
X-601248D01*
X-601486Y343164D01*
X-601724Y342926D01*
X-601843Y342688D01*
X-601962Y342331D01*
Y341736D01*
X-601843Y341379D01*
X-601724Y341141D01*
X-601486Y340903D01*
X-601248Y340784D01*
X-600772D01*
X-600534Y340903D01*
X-600296Y341141D01*
X-600176Y341379D01*
Y341736D01*
X-600772D02*
X-600176D01*
X-599486Y342450D02*
X-599605Y342331D01*
X-599486Y342212D01*
X-599367Y342331D01*
X-599486Y342450D01*
Y341022D02*
X-599605Y340903D01*
X-599486Y340784D01*
X-599367Y340903D01*
X-599486Y341022D01*
X-601568Y222453D02*
X-601806Y222691D01*
X-602163Y222810D01*
X-602639D01*
X-602996Y222691D01*
X-603234Y222453D01*
Y222215D01*
X-603116Y221977D01*
X-602996Y221858D01*
X-602758Y221739D01*
X-602044Y221501D01*
X-601806Y221382D01*
X-601687Y221263D01*
X-601568Y221025D01*
Y220668D01*
X-601806Y220430D01*
X-602163Y220311D01*
X-602639D01*
X-602996Y220430D01*
X-603234Y220668D01*
X-601009Y222810D02*
Y220311D01*
X-598700Y222215D02*
X-598819Y222453D01*
X-599057Y222691D01*
X-599295Y222810D01*
X-599771D01*
X-600009Y222691D01*
X-600247Y222453D01*
X-600366Y222215D01*
X-600485Y221858D01*
Y221263D01*
X-600366Y220906D01*
X-600247Y220668D01*
X-600009Y220430D01*
X-599771Y220311D01*
X-599295D01*
X-599057Y220430D01*
X-598819Y220668D01*
X-598700Y220906D01*
Y221263D01*
X-599295D02*
X-598700D01*
X-598129Y222810D02*
Y220311D01*
Y222810D02*
X-596462Y220311D01*
Y222810D02*
Y220311D01*
X-593867D02*
X-594820Y222810D01*
X-595772Y220311D01*
X-595415Y221144D02*
X-594225D01*
X-593284Y222810D02*
Y220311D01*
X-591856D01*
X-577835Y222810D02*
Y220311D01*
X-577312Y222810D02*
Y220311D01*
Y222810D02*
X-576359Y220311D01*
X-575407Y222810D02*
X-576359Y220311D01*
X-575407Y222810D02*
Y220311D01*
X-574693Y221501D02*
X-573622D01*
X-573265Y221620D01*
X-573146Y221739D01*
X-573027Y221977D01*
Y222334D01*
X-573146Y222572D01*
X-573265Y222691D01*
X-573622Y222810D01*
X-574693D01*
Y220311D01*
X-570920Y222810D02*
X-572467D01*
Y220311D01*
X-570920D01*
X-572467Y221620D02*
X-571515D01*
X-570504Y222810D02*
Y220311D01*
Y222810D02*
X-569670D01*
X-569313Y222691D01*
X-569075Y222453D01*
X-568956Y222215D01*
X-568837Y221858D01*
Y221263D01*
X-568956Y220906D01*
X-569075Y220668D01*
X-569313Y220430D01*
X-569670Y220311D01*
X-570504D01*
X-566373D02*
X-567326Y222810D01*
X-568278Y220311D01*
X-567921Y221144D02*
X-566730D01*
X-565790Y222810D02*
Y220311D01*
Y222810D02*
X-564124Y220311D01*
Y222810D02*
Y220311D01*
X-561648Y222215D02*
X-561767Y222453D01*
X-562005Y222691D01*
X-562243Y222810D01*
X-562719D01*
X-562957Y222691D01*
X-563196Y222453D01*
X-563314Y222215D01*
X-563434Y221858D01*
Y221263D01*
X-563314Y220906D01*
X-563196Y220668D01*
X-562957Y220430D01*
X-562719Y220311D01*
X-562243D01*
X-562005Y220430D01*
X-561767Y220668D01*
X-561648Y220906D01*
X-559399Y222810D02*
X-560946D01*
Y220311D01*
X-559399D01*
X-560946Y221620D02*
X-559994D01*
X-612243Y412389D02*
X-611171D01*
X-610814Y412508D01*
X-610695Y412627D01*
X-610576Y412865D01*
Y413222D01*
X-610695Y413460D01*
X-610814Y413579D01*
X-611171Y413698D01*
X-612243D01*
Y411199D01*
X-610017Y413698D02*
Y411199D01*
Y413698D02*
X-608946D01*
X-608589Y413579D01*
X-608469Y413460D01*
X-608351Y413222D01*
Y412984D01*
X-608469Y412746D01*
X-608589Y412627D01*
X-608946Y412508D01*
X-610017D01*
X-609184D02*
X-608351Y411199D01*
X-606244Y413698D02*
X-607791D01*
Y411199D01*
X-606244D01*
X-607791Y412508D02*
X-606839D01*
X-605827Y412389D02*
X-604756D01*
X-604399Y412508D01*
X-604280Y412627D01*
X-604161Y412865D01*
Y413222D01*
X-604280Y413460D01*
X-604399Y413579D01*
X-604756Y413698D01*
X-605827D01*
Y411199D01*
X-603602Y413698D02*
Y411199D01*
Y413698D02*
X-602530D01*
X-602173Y413579D01*
X-602054Y413460D01*
X-601935Y413222D01*
Y412984D01*
X-602054Y412746D01*
X-602173Y412627D01*
X-602530Y412508D01*
X-603602D01*
X-602768D02*
X-601935Y411199D01*
X-599828Y413698D02*
X-601376D01*
Y411199D01*
X-599828D01*
X-601376Y412508D02*
X-600424D01*
X-597627Y413103D02*
X-597746Y413341D01*
X-597984Y413579D01*
X-598222Y413698D01*
X-598698D01*
X-598936Y413579D01*
X-599174Y413341D01*
X-599293Y413103D01*
X-599412Y412746D01*
Y412151D01*
X-599293Y411794D01*
X-599174Y411556D01*
X-598936Y411318D01*
X-598698Y411199D01*
X-598222D01*
X-597984Y411318D01*
X-597746Y411556D01*
X-597627Y411794D01*
Y412151D01*
X-598222D02*
X-597627D01*
X-543223Y387437D02*
X-542985Y387556D01*
X-542628Y387913D01*
Y385414D01*
X-538832Y387080D02*
X-539070Y386961D01*
X-539308Y386723D01*
X-539427Y386366D01*
Y386128D01*
X-539308Y385771D01*
X-539070Y385533D01*
X-538832Y385414D01*
X-538475D01*
X-538237Y385533D01*
X-537998Y385771D01*
X-537879Y386128D01*
Y386366D01*
X-537998Y386723D01*
X-538237Y386961D01*
X-538475Y387080D01*
X-538832D01*
X-536023D02*
X-537332Y385414D01*
Y387080D02*
X-536023D01*
X-537332Y385414D02*
X-536023D01*
X-603399Y331064D02*
X-604351Y333563D01*
X-605303Y331064D01*
X-604946Y331897D02*
X-603756D01*
X-602816Y333563D02*
Y331064D01*
X-602292Y333563D02*
Y331064D01*
X-599805Y332730D02*
X-599091Y331064D01*
X-598376Y332730D02*
X-599091Y331064D01*
X-597734Y333563D02*
X-597615Y333444D01*
X-597496Y333563D01*
X-597615Y333682D01*
X-597734Y333563D01*
X-597615Y332730D02*
Y331064D01*
X-595627Y332730D02*
Y331064D01*
Y332373D02*
X-595865Y332611D01*
X-596103Y332730D01*
X-596460D01*
X-596698Y332611D01*
X-596936Y332373D01*
X-597055Y332016D01*
Y331778D01*
X-596936Y331421D01*
X-596698Y331183D01*
X-596460Y331064D01*
X-596103D01*
X-595865Y331183D01*
X-595627Y331421D01*
X-593651Y332373D02*
X-593770Y332611D01*
X-594127Y332730D01*
X-594484D01*
X-594841Y332611D01*
X-594960Y332373D01*
X-594841Y332135D01*
X-594603Y332016D01*
X-594008Y331897D01*
X-593770Y331778D01*
X-593651Y331540D01*
Y331421D01*
X-593770Y331183D01*
X-594127Y331064D01*
X-594484D01*
X-594841Y331183D01*
X-594960Y331421D01*
X-589854Y332373D02*
X-589973Y332611D01*
X-590331Y332730D01*
X-590688D01*
X-591045Y332611D01*
X-591164Y332373D01*
X-591045Y332135D01*
X-590807Y332016D01*
X-590211Y331897D01*
X-589973Y331778D01*
X-589854Y331540D01*
Y331421D01*
X-589973Y331183D01*
X-590331Y331064D01*
X-590688D01*
X-591045Y331183D01*
X-591164Y331421D01*
X-589331Y333563D02*
Y331064D01*
Y332254D02*
X-588974Y332611D01*
X-588736Y332730D01*
X-588379D01*
X-588140Y332611D01*
X-588022Y332254D01*
Y331064D01*
X-586772Y332730D02*
X-587010Y332611D01*
X-587248Y332373D01*
X-587367Y332016D01*
Y331778D01*
X-587248Y331421D01*
X-587010Y331183D01*
X-586772Y331064D01*
X-586415D01*
X-586177Y331183D01*
X-585939Y331421D01*
X-585820Y331778D01*
Y332016D01*
X-585939Y332373D01*
X-586177Y332611D01*
X-586415Y332730D01*
X-586772D01*
X-585272D02*
Y331540D01*
X-585153Y331183D01*
X-584915Y331064D01*
X-584558D01*
X-584320Y331183D01*
X-583963Y331540D01*
Y332730D02*
Y331064D01*
X-583308Y333563D02*
Y331064D01*
X-581356Y333563D02*
Y331064D01*
Y332373D02*
X-581594Y332611D01*
X-581832Y332730D01*
X-582189D01*
X-582428Y332611D01*
X-582665Y332373D01*
X-582785Y332016D01*
Y331778D01*
X-582665Y331421D01*
X-582428Y331183D01*
X-582189Y331064D01*
X-581832D01*
X-581594Y331183D01*
X-581356Y331421D01*
X-578726Y333563D02*
Y331064D01*
Y332373D02*
X-578488Y332611D01*
X-578250Y332730D01*
X-577893D01*
X-577655Y332611D01*
X-577417Y332373D01*
X-577298Y332016D01*
Y331778D01*
X-577417Y331421D01*
X-577655Y331183D01*
X-577893Y331064D01*
X-578250D01*
X-578488Y331183D01*
X-578726Y331421D01*
X-576762Y332016D02*
X-575334D01*
Y332254D01*
X-575453Y332492D01*
X-575572Y332611D01*
X-575810Y332730D01*
X-576167D01*
X-576405Y332611D01*
X-576643Y332373D01*
X-576762Y332016D01*
Y331778D01*
X-576643Y331421D01*
X-576405Y331183D01*
X-576167Y331064D01*
X-575810D01*
X-575572Y331183D01*
X-575334Y331421D01*
X-571882Y333563D02*
X-572120D01*
X-572358Y333444D01*
X-572477Y333087D01*
Y331064D01*
X-572834Y332730D02*
X-572001D01*
X-571287Y333563D02*
X-571168Y333444D01*
X-571049Y333563D01*
X-571168Y333682D01*
X-571287Y333563D01*
X-571168Y332730D02*
Y331064D01*
X-570609Y333563D02*
Y331064D01*
X-570085Y333563D02*
Y331064D01*
X-569561Y332016D02*
X-568133D01*
Y332254D01*
X-568252Y332492D01*
X-568371Y332611D01*
X-568609Y332730D01*
X-568966D01*
X-569204Y332611D01*
X-569442Y332373D01*
X-569561Y332016D01*
Y331778D01*
X-569442Y331421D01*
X-569204Y331183D01*
X-568966Y331064D01*
X-568609D01*
X-568371Y331183D01*
X-568133Y331421D01*
X-566169Y333563D02*
Y331064D01*
Y332373D02*
X-566407Y332611D01*
X-566645Y332730D01*
X-567002D01*
X-567240Y332611D01*
X-567478Y332373D01*
X-567597Y332016D01*
Y331778D01*
X-567478Y331421D01*
X-567240Y331183D01*
X-567002Y331064D01*
X-566645D01*
X-566407Y331183D01*
X-566169Y331421D01*
X-563539Y332730D02*
X-563063Y331064D01*
X-562586Y332730D02*
X-563063Y331064D01*
X-562586Y332730D02*
X-562110Y331064D01*
X-561634Y332730D02*
X-562110Y331064D01*
X-560813Y333563D02*
X-560694Y333444D01*
X-560575Y333563D01*
X-560694Y333682D01*
X-560813Y333563D01*
X-560694Y332730D02*
Y331064D01*
X-559778Y333563D02*
Y331540D01*
X-559659Y331183D01*
X-559420Y331064D01*
X-559183D01*
X-560135Y332730D02*
X-559302D01*
X-558825Y333563D02*
Y331064D01*
Y332254D02*
X-558468Y332611D01*
X-558230Y332730D01*
X-557873D01*
X-557635Y332611D01*
X-557516Y332254D01*
Y331064D01*
X-553588Y332373D02*
X-553708Y332611D01*
X-554065Y332730D01*
X-554422D01*
X-554779Y332611D01*
X-554898Y332373D01*
X-554779Y332135D01*
X-554541Y332016D01*
X-553945Y331897D01*
X-553708Y331778D01*
X-553588Y331540D01*
Y331421D01*
X-553708Y331183D01*
X-554065Y331064D01*
X-554422D01*
X-554779Y331183D01*
X-554898Y331421D01*
X-552470Y332730D02*
X-552708Y332611D01*
X-552946Y332373D01*
X-553065Y332016D01*
Y331778D01*
X-552946Y331421D01*
X-552708Y331183D01*
X-552470Y331064D01*
X-552113D01*
X-551874Y331183D01*
X-551637Y331421D01*
X-551517Y331778D01*
Y332016D01*
X-551637Y332373D01*
X-551874Y332611D01*
X-552113Y332730D01*
X-552470D01*
X-550970Y333563D02*
Y331064D01*
X-549018Y333563D02*
Y331064D01*
Y332373D02*
X-549256Y332611D01*
X-549494Y332730D01*
X-549851D01*
X-550089Y332611D01*
X-550327Y332373D01*
X-550446Y332016D01*
Y331778D01*
X-550327Y331421D01*
X-550089Y331183D01*
X-549851Y331064D01*
X-549494D01*
X-549256Y331183D01*
X-549018Y331421D01*
X-548351Y332730D02*
Y331064D01*
Y332254D02*
X-547994Y332611D01*
X-547756Y332730D01*
X-547399D01*
X-547161Y332611D01*
X-547042Y332254D01*
Y331064D01*
Y332254D02*
X-546685Y332611D01*
X-546447Y332730D01*
X-546090D01*
X-545852Y332611D01*
X-545733Y332254D01*
Y331064D01*
X-543519Y332730D02*
Y331064D01*
Y332373D02*
X-543757Y332611D01*
X-543995Y332730D01*
X-544352D01*
X-544590Y332611D01*
X-544828Y332373D01*
X-544947Y332016D01*
Y331778D01*
X-544828Y331421D01*
X-544590Y331183D01*
X-544352Y331064D01*
X-543995D01*
X-543757Y331183D01*
X-543519Y331421D01*
X-541543Y332373D02*
X-541662Y332611D01*
X-542020Y332730D01*
X-542377D01*
X-542734Y332611D01*
X-542853Y332373D01*
X-542734Y332135D01*
X-542496Y332016D01*
X-541900Y331897D01*
X-541662Y331778D01*
X-541543Y331540D01*
Y331421D01*
X-541662Y331183D01*
X-542020Y331064D01*
X-542377D01*
X-542734Y331183D01*
X-542853Y331421D01*
X-541020Y333563D02*
Y331064D01*
X-539829Y332730D02*
X-541020Y331540D01*
X-540544Y332016D02*
X-539711Y331064D01*
X-633061Y422556D02*
Y420057D01*
X-633894Y422556D02*
X-632228D01*
X-631216D02*
X-631455Y422437D01*
X-631693Y422199D01*
X-631812Y421961D01*
X-631931Y421604D01*
Y421009D01*
X-631812Y420652D01*
X-631693Y420414D01*
X-631455Y420176D01*
X-631216Y420057D01*
X-630740D01*
X-630502Y420176D01*
X-630264Y420414D01*
X-630145Y420652D01*
X-630026Y421009D01*
Y421604D01*
X-630145Y421961D01*
X-630264Y422199D01*
X-630502Y422437D01*
X-630740Y422556D01*
X-631216D01*
X-629443Y421247D02*
X-628372D01*
X-628015Y421366D01*
X-627896Y421485D01*
X-627777Y421723D01*
Y422080D01*
X-627896Y422318D01*
X-628015Y422437D01*
X-628372Y422556D01*
X-629443D01*
Y420057D01*
X-577078Y413698D02*
X-577435Y413579D01*
X-577673Y413222D01*
X-577793Y412627D01*
Y412270D01*
X-577673Y411675D01*
X-577435Y411318D01*
X-577078Y411199D01*
X-576840D01*
X-576483Y411318D01*
X-576245Y411675D01*
X-576126Y412270D01*
Y412627D01*
X-576245Y413222D01*
X-576483Y413579D01*
X-576840Y413698D01*
X-577078D01*
X-575448Y411437D02*
X-575567Y411318D01*
X-575448Y411199D01*
X-575329Y411318D01*
X-575448Y411437D01*
X-574662Y413103D02*
Y413222D01*
X-574543Y413460D01*
X-574424Y413579D01*
X-574186Y413698D01*
X-573710D01*
X-573472Y413579D01*
X-573353Y413460D01*
X-573234Y413222D01*
Y412984D01*
X-573353Y412746D01*
X-573591Y412389D01*
X-574781Y411199D01*
X-573115D01*
X-570592Y412865D02*
Y411199D01*
Y412389D02*
X-570235Y412746D01*
X-569997Y412865D01*
X-569639D01*
X-569402Y412746D01*
X-569282Y412389D01*
Y411199D01*
Y412389D02*
X-568925Y412746D01*
X-568687Y412865D01*
X-568330D01*
X-568092Y412746D01*
X-567973Y412389D01*
Y411199D01*
X-567188Y412865D02*
Y411199D01*
Y412389D02*
X-566831Y412746D01*
X-566593Y412865D01*
X-566235D01*
X-565997Y412746D01*
X-565878Y412389D01*
Y411199D01*
Y412389D02*
X-565521Y412746D01*
X-565283Y412865D01*
X-564926D01*
X-564688Y412746D01*
X-564569Y412389D01*
Y411199D01*
X-652596Y404840D02*
Y402341D01*
X-651167D01*
X-650774Y404245D02*
Y404364D01*
X-650656Y404602D01*
X-650536Y404721D01*
X-650298Y404840D01*
X-649822D01*
X-649584Y404721D01*
X-649465Y404602D01*
X-649346Y404364D01*
Y404126D01*
X-649465Y403888D01*
X-649703Y403531D01*
X-650893Y402341D01*
X-649227D01*
X-648668Y401508D02*
X-646763D01*
X-646442Y404840D02*
Y402341D01*
X-645918Y404840D02*
Y402341D01*
Y404840D02*
X-644252Y402341D01*
Y404840D02*
Y402341D01*
X-643562Y404840D02*
Y402341D01*
Y404840D02*
X-641895Y402341D01*
Y404840D02*
Y402341D01*
X-639658Y404840D02*
X-641205D01*
Y402341D01*
X-639658D01*
X-641205Y403650D02*
X-640253D01*
X-639241Y404840D02*
Y402341D01*
Y404840D02*
X-638170D01*
X-637813Y404721D01*
X-637694Y404602D01*
X-637575Y404364D01*
Y404126D01*
X-637694Y403888D01*
X-637813Y403769D01*
X-638170Y403650D01*
X-639241D01*
X-638408D02*
X-637575Y402341D01*
X-543951Y180550D02*
X-543713Y180669D01*
X-543355Y181026D01*
Y178527D01*
X-585828Y214491D02*
X-587018D01*
X-587138Y213420D01*
X-587018Y213539D01*
X-586661Y213658D01*
X-586304D01*
X-585947Y213539D01*
X-585709Y213301D01*
X-585590Y212944D01*
Y212706D01*
X-585709Y212349D01*
X-585947Y212111D01*
X-586304Y211992D01*
X-586661D01*
X-587018Y212111D01*
X-587138Y212230D01*
X-587256Y212468D01*
X-584317Y214491D02*
X-584674Y214372D01*
X-584912Y214015D01*
X-585031Y213420D01*
Y213063D01*
X-584912Y212468D01*
X-584674Y212111D01*
X-584317Y211992D01*
X-584079D01*
X-583722Y212111D01*
X-583484Y212468D01*
X-583364Y213063D01*
Y213420D01*
X-583484Y214015D01*
X-583722Y214372D01*
X-584079Y214491D01*
X-584317D01*
X-580246Y213658D02*
X-580484Y213539D01*
X-580722Y213301D01*
X-580841Y212944D01*
Y212706D01*
X-580722Y212349D01*
X-580484Y212111D01*
X-580246Y211992D01*
X-579889D01*
X-579651Y212111D01*
X-579413Y212349D01*
X-579294Y212706D01*
Y212944D01*
X-579413Y213301D01*
X-579651Y213539D01*
X-579889Y213658D01*
X-580246D01*
X-578746Y214491D02*
Y211992D01*
Y213182D02*
X-578389Y213539D01*
X-578151Y213658D01*
X-577794D01*
X-577556Y213539D01*
X-577437Y213182D01*
Y211992D01*
X-576783Y213658D02*
Y211992D01*
Y213182D02*
X-576426Y213539D01*
X-576188Y213658D01*
X-575830D01*
X-575592Y213539D01*
X-575473Y213182D01*
Y211992D01*
Y213182D02*
X-575116Y213539D01*
X-574878Y213658D01*
X-574521D01*
X-574283Y213539D01*
X-574164Y213182D01*
Y211992D01*
X-572069Y213301D02*
X-572188Y213539D01*
X-572545Y213658D01*
X-572902D01*
X-573259Y213539D01*
X-573379Y213301D01*
X-573259Y213063D01*
X-573022Y212944D01*
X-572426Y212825D01*
X-572188Y212706D01*
X-572069Y212468D01*
Y212349D01*
X-572188Y212111D01*
X-572545Y211992D01*
X-572902D01*
X-573259Y212111D01*
X-573379Y212349D01*
X-568510Y214134D02*
Y211992D01*
X-569582Y213063D02*
X-567439D01*
X-566701Y211635D02*
X-565035Y214491D01*
X-564868Y213063D02*
X-562726D01*
X-560024Y214015D02*
X-559786Y214134D01*
X-559429Y214491D01*
Y211992D01*
X-557477Y214491D02*
X-557834Y214372D01*
X-558072Y214015D01*
X-558191Y213420D01*
Y213063D01*
X-558072Y212468D01*
X-557834Y212111D01*
X-557477Y211992D01*
X-557239D01*
X-556882Y212111D01*
X-556644Y212468D01*
X-556525Y213063D01*
Y213420D01*
X-556644Y214015D01*
X-556882Y214372D01*
X-557239Y214491D01*
X-557477D01*
X-553823D02*
X-555966Y211992D01*
X-555371Y214491D02*
X-555132Y214253D01*
Y214015D01*
X-555252Y213777D01*
X-555489Y213658D01*
X-555728D01*
X-555966Y213896D01*
Y214134D01*
X-555847Y214372D01*
X-555609Y214491D01*
X-555371D01*
X-555132Y214372D01*
X-554775Y214253D01*
X-554418D01*
X-554061Y214372D01*
X-553823Y214491D01*
X-554299Y212825D02*
X-554537Y212706D01*
X-554656Y212468D01*
Y212230D01*
X-554418Y211992D01*
X-554180D01*
X-553942Y212111D01*
X-553823Y212349D01*
Y212587D01*
X-554061Y212825D01*
X-554299D01*
X-515786Y403531D02*
X-514714D01*
X-514357Y403650D01*
X-514238Y403769D01*
X-514119Y404007D01*
Y404364D01*
X-514238Y404602D01*
X-514357Y404721D01*
X-514714Y404840D01*
X-515786D01*
Y402341D01*
X-513560Y404840D02*
Y402341D01*
X-512132D01*
X-509953D02*
X-510906Y404840D01*
X-511858Y402341D01*
X-511501Y403174D02*
X-510311D01*
X-509370Y404840D02*
Y402341D01*
Y404840D02*
X-507704Y402341D01*
Y404840D02*
Y402341D01*
X-505466Y404840D02*
X-507014D01*
Y402341D01*
X-505466D01*
X-507014Y403650D02*
X-506061D01*
X-636932Y360015D02*
Y357516D01*
Y360015D02*
X-635979Y357516D01*
X-635027Y360015D02*
X-635979Y357516D01*
X-635027Y360015D02*
Y357516D01*
X-632409D02*
X-633361Y360015D01*
X-634313Y357516D01*
X-633956Y358349D02*
X-632766D01*
X-630159Y359658D02*
X-630397Y359896D01*
X-630754Y360015D01*
X-631230D01*
X-631587Y359896D01*
X-631825Y359658D01*
Y359420D01*
X-631706Y359182D01*
X-631587Y359063D01*
X-631349Y358944D01*
X-630635Y358706D01*
X-630397Y358587D01*
X-630278Y358468D01*
X-630159Y358230D01*
Y357873D01*
X-630397Y357635D01*
X-630754Y357516D01*
X-631230D01*
X-631587Y357635D01*
X-631825Y357873D01*
X-629600Y360015D02*
Y357516D01*
X-627933Y360015D02*
X-629600Y358349D01*
X-629005Y358944D02*
X-627933Y357516D01*
X-576909Y396813D02*
X-577266Y396694D01*
X-577504Y396337D01*
X-577624Y395742D01*
Y395385D01*
X-577504Y394790D01*
X-577266Y394433D01*
X-576909Y394314D01*
X-576671D01*
X-576314Y394433D01*
X-576076Y394790D01*
X-575957Y395385D01*
Y395742D01*
X-576076Y396337D01*
X-576314Y396694D01*
X-576671Y396813D01*
X-576909D01*
X-575279Y394552D02*
X-575398Y394433D01*
X-575279Y394314D01*
X-575160Y394433D01*
X-575279Y394552D01*
X-573422Y396813D02*
X-574612Y395147D01*
X-572827D01*
X-573422Y396813D02*
Y394314D01*
X-570958Y396813D02*
X-572149D01*
X-572267Y395742D01*
X-572149Y395861D01*
X-571791Y395980D01*
X-571434D01*
X-571077Y395861D01*
X-570839Y395623D01*
X-570720Y395266D01*
Y395028D01*
X-570839Y394671D01*
X-571077Y394433D01*
X-571434Y394314D01*
X-571791D01*
X-572149Y394433D01*
X-572267Y394552D01*
X-572387Y394790D01*
X-570161Y395980D02*
Y394314D01*
Y395504D02*
X-569804Y395861D01*
X-569566Y395980D01*
X-569209D01*
X-568971Y395861D01*
X-568852Y395504D01*
Y394314D01*
Y395504D02*
X-568495Y395861D01*
X-568257Y395980D01*
X-567899D01*
X-567661Y395861D01*
X-567542Y395504D01*
Y394314D01*
X-566757Y395980D02*
Y394314D01*
Y395504D02*
X-566400Y395861D01*
X-566162Y395980D01*
X-565805D01*
X-565567Y395861D01*
X-565448Y395504D01*
Y394314D01*
Y395504D02*
X-565091Y395861D01*
X-564853Y395980D01*
X-564495D01*
X-564257Y395861D01*
X-564138Y395504D01*
Y394314D01*
X-595400Y181026D02*
X-595638Y180907D01*
X-595877Y180669D01*
X-595996Y180431D01*
X-596114Y180074D01*
Y179479D01*
X-595996Y179122D01*
X-595877Y178884D01*
X-595638Y178646D01*
X-595400Y178527D01*
X-594924D01*
X-594686Y178646D01*
X-594448Y178884D01*
X-594329Y179122D01*
X-594210Y179479D01*
Y180074D01*
X-594329Y180431D01*
X-594448Y180669D01*
X-594686Y180907D01*
X-594924Y181026D01*
X-595400D01*
X-593627Y180193D02*
Y178527D01*
Y179717D02*
X-593270Y180074D01*
X-593032Y180193D01*
X-592675D01*
X-592437Y180074D01*
X-592318Y179717D01*
Y178527D01*
X-589699Y181026D02*
Y178527D01*
X-588271D01*
X-586569Y180193D02*
Y178527D01*
Y179836D02*
X-586807Y180074D01*
X-587045Y180193D01*
X-587402D01*
X-587640Y180074D01*
X-587878Y179836D01*
X-587997Y179479D01*
Y179241D01*
X-587878Y178884D01*
X-587640Y178646D01*
X-587402Y178527D01*
X-587045D01*
X-586807Y178646D01*
X-586569Y178884D01*
X-585783Y180193D02*
X-585069Y178527D01*
X-584355Y180193D02*
X-585069Y178527D01*
X-585307Y178051D01*
X-585545Y177813D01*
X-585783Y177694D01*
X-585902D01*
X-583939Y179479D02*
X-582510D01*
Y179717D01*
X-582629Y179955D01*
X-582748Y180074D01*
X-582986Y180193D01*
X-583344D01*
X-583581Y180074D01*
X-583819Y179836D01*
X-583939Y179479D01*
Y179241D01*
X-583819Y178884D01*
X-583581Y178646D01*
X-583344Y178527D01*
X-582986D01*
X-582748Y178646D01*
X-582510Y178884D01*
X-581975Y180193D02*
Y178527D01*
Y179479D02*
X-581856Y179836D01*
X-581618Y180074D01*
X-581380Y180193D01*
X-581023D01*
X-579487Y179836D02*
X-579606Y180074D01*
X-579963Y180193D01*
X-580320D01*
X-580677Y180074D01*
X-580796Y179836D01*
X-580677Y179598D01*
X-580439Y179479D01*
X-579844Y179360D01*
X-579606Y179241D01*
X-579487Y179003D01*
Y178884D01*
X-579606Y178646D01*
X-579963Y178527D01*
X-580320D01*
X-580677Y178646D01*
X-580796Y178884D01*
X-578844Y180193D02*
X-578963Y180074D01*
X-578844Y179955D01*
X-578725Y180074D01*
X-578844Y180193D01*
Y178765D02*
X-578963Y178646D01*
X-578844Y178527D01*
X-578725Y178646D01*
X-578844Y178765D01*
X-543831Y167636D02*
Y167755D01*
X-543713Y167993D01*
X-543593Y168112D01*
X-543355Y168231D01*
X-542879D01*
X-542641Y168112D01*
X-542522Y167993D01*
X-542403Y167755D01*
Y167517D01*
X-542522Y167279D01*
X-542760Y166922D01*
X-543951Y165732D01*
X-542284D01*
X-611863Y168231D02*
Y165732D01*
Y168231D02*
X-610791D01*
X-610434Y168112D01*
X-610315Y167993D01*
X-610196Y167755D01*
Y167517D01*
X-610315Y167279D01*
X-610434Y167160D01*
X-610791Y167041D01*
X-611863D01*
X-611029D02*
X-610196Y165732D01*
X-609637Y166684D02*
X-608209D01*
Y166922D01*
X-608328Y167160D01*
X-608447Y167279D01*
X-608685Y167398D01*
X-609042D01*
X-609280Y167279D01*
X-609518Y167041D01*
X-609637Y166684D01*
Y166446D01*
X-609518Y166089D01*
X-609280Y165851D01*
X-609042Y165732D01*
X-608685D01*
X-608447Y165851D01*
X-608209Y166089D01*
X-606721Y168231D02*
X-606959D01*
X-607197Y168112D01*
X-607316Y167755D01*
Y165732D01*
X-607673Y167398D02*
X-606840D01*
X-606364Y166684D02*
X-604935D01*
Y166922D01*
X-605055Y167160D01*
X-605173Y167279D01*
X-605411Y167398D01*
X-605769D01*
X-606007Y167279D01*
X-606245Y167041D01*
X-606364Y166684D01*
Y166446D01*
X-606245Y166089D01*
X-606007Y165851D01*
X-605769Y165732D01*
X-605411D01*
X-605173Y165851D01*
X-604935Y166089D01*
X-604400Y167398D02*
Y165732D01*
Y166684D02*
X-604281Y167041D01*
X-604043Y167279D01*
X-603805Y167398D01*
X-603448D01*
X-603222Y166684D02*
X-601793D01*
Y166922D01*
X-601912Y167160D01*
X-602031Y167279D01*
X-602269Y167398D01*
X-602626D01*
X-602865Y167279D01*
X-603102Y167041D01*
X-603222Y166684D01*
Y166446D01*
X-603102Y166089D01*
X-602865Y165851D01*
X-602626Y165732D01*
X-602269D01*
X-602031Y165851D01*
X-601793Y166089D01*
X-601258Y167398D02*
Y165732D01*
Y166922D02*
X-600901Y167279D01*
X-600663Y167398D01*
X-600306D01*
X-600067Y167279D01*
X-599948Y166922D01*
Y165732D01*
X-597865Y167041D02*
X-598104Y167279D01*
X-598342Y167398D01*
X-598699D01*
X-598937Y167279D01*
X-599175Y167041D01*
X-599294Y166684D01*
Y166446D01*
X-599175Y166089D01*
X-598937Y165851D01*
X-598699Y165732D01*
X-598342D01*
X-598104Y165851D01*
X-597865Y166089D01*
X-597330Y166684D02*
X-595902D01*
Y166922D01*
X-596021Y167160D01*
X-596140Y167279D01*
X-596378Y167398D01*
X-596735D01*
X-596973Y167279D01*
X-597211Y167041D01*
X-597330Y166684D01*
Y166446D01*
X-597211Y166089D01*
X-596973Y165851D01*
X-596735Y165732D01*
X-596378D01*
X-596140Y165851D01*
X-595902Y166089D01*
X-593938Y168231D02*
Y165732D01*
Y167041D02*
X-594176Y167279D01*
X-594414Y167398D01*
X-594771D01*
X-595009Y167279D01*
X-595247Y167041D01*
X-595366Y166684D01*
Y166446D01*
X-595247Y166089D01*
X-595009Y165851D01*
X-594771Y165732D01*
X-594414D01*
X-594176Y165851D01*
X-593938Y166089D01*
X-590474Y168231D02*
Y165732D01*
X-591307Y168231D02*
X-589641D01*
X-588749Y167398D02*
X-588986Y167279D01*
X-589224Y167041D01*
X-589344Y166684D01*
Y166446D01*
X-589224Y166089D01*
X-588986Y165851D01*
X-588749Y165732D01*
X-588391D01*
X-588153Y165851D01*
X-587915Y166089D01*
X-587796Y166446D01*
Y166684D01*
X-587915Y167041D01*
X-588153Y167279D01*
X-588391Y167398D01*
X-588749D01*
X-587130D02*
X-587249Y167279D01*
X-587130Y167160D01*
X-587011Y167279D01*
X-587130Y167398D01*
Y165970D02*
X-587249Y165851D01*
X-587130Y165732D01*
X-587011Y165851D01*
X-587130Y165970D01*
X-543951Y203188D02*
X-543713Y203307D01*
X-543355Y203664D01*
Y201165D01*
X-541880Y203664D02*
X-540570D01*
X-541284Y202712D01*
X-540927D01*
X-540689Y202593D01*
X-540570Y202474D01*
X-540451Y202117D01*
Y201879D01*
X-540570Y201522D01*
X-540808Y201284D01*
X-541165Y201165D01*
X-541523D01*
X-541880Y201284D01*
X-541998Y201403D01*
X-542118Y201641D01*
X-539773Y201403D02*
X-539892Y201284D01*
X-539773Y201165D01*
X-539654Y201284D01*
X-539773Y201403D01*
X-538987Y203069D02*
Y203188D01*
X-538868Y203426D01*
X-538749Y203545D01*
X-538511Y203664D01*
X-538035D01*
X-537797Y203545D01*
X-537678Y203426D01*
X-537559Y203188D01*
Y202950D01*
X-537678Y202712D01*
X-537916Y202355D01*
X-539106Y201165D01*
X-537440D01*
X-536166Y203664D02*
X-536523Y203545D01*
X-536762Y203188D01*
X-536881Y202593D01*
Y202236D01*
X-536762Y201641D01*
X-536523Y201284D01*
X-536166Y201165D01*
X-535928D01*
X-535571Y201284D01*
X-535333Y201641D01*
X-535214Y202236D01*
Y202593D01*
X-535333Y203188D01*
X-535571Y203545D01*
X-535928Y203664D01*
X-536166D01*
X-532691Y202831D02*
Y201165D01*
Y202355D02*
X-532334Y202712D01*
X-532096Y202831D01*
X-531739D01*
X-531501Y202712D01*
X-531382Y202355D01*
Y201165D01*
Y202355D02*
X-531025Y202712D01*
X-530787Y202831D01*
X-530430D01*
X-530192Y202712D01*
X-530072Y202355D01*
Y201165D01*
X-529049Y203664D02*
X-528930Y203545D01*
X-528811Y203664D01*
X-528930Y203783D01*
X-529049Y203664D01*
X-528930Y202831D02*
Y201165D01*
X-528371Y203664D02*
Y201165D01*
X-526538Y202474D02*
X-526657Y202712D01*
X-527014Y202831D01*
X-527371D01*
X-527728Y202712D01*
X-527847Y202474D01*
X-527728Y202236D01*
X-527490Y202117D01*
X-526895Y201998D01*
X-526657Y201879D01*
X-526538Y201641D01*
Y201522D01*
X-526657Y201284D01*
X-527014Y201165D01*
X-527371D01*
X-527728Y201284D01*
X-527847Y201522D01*
X-515423Y388513D02*
Y386014D01*
Y388513D02*
X-514352D01*
X-513995Y388394D01*
X-513876Y388275D01*
X-513757Y388037D01*
Y387799D01*
X-513876Y387561D01*
X-513995Y387442D01*
X-514352Y387323D01*
X-515423D01*
X-514590D02*
X-513757Y386014D01*
X-512484Y388513D02*
X-512722Y388394D01*
X-512960Y388156D01*
X-513079Y387918D01*
X-513198Y387561D01*
Y386966D01*
X-513079Y386609D01*
X-512960Y386371D01*
X-512722Y386133D01*
X-512484Y386014D01*
X-512008D01*
X-511769Y386133D01*
X-511531Y386371D01*
X-511412Y386609D01*
X-511294Y386966D01*
Y387561D01*
X-511412Y387918D01*
X-511531Y388156D01*
X-511769Y388394D01*
X-512008Y388513D01*
X-512484D01*
X-510710D02*
Y386728D01*
X-510591Y386371D01*
X-510353Y386133D01*
X-509996Y386014D01*
X-509758D01*
X-509401Y386133D01*
X-509163Y386371D01*
X-509044Y386728D01*
Y388513D01*
X-507520D02*
Y386014D01*
X-508354Y388513D02*
X-506687D01*
X-506390D02*
Y386014D01*
X-505866Y388513D02*
Y386014D01*
Y388513D02*
X-504200Y386014D01*
Y388513D02*
Y386014D01*
X-501724Y387918D02*
X-501843Y388156D01*
X-502081Y388394D01*
X-502319Y388513D01*
X-502795D01*
X-503033Y388394D01*
X-503271Y388156D01*
X-503390Y387918D01*
X-503509Y387561D01*
Y386966D01*
X-503390Y386609D01*
X-503271Y386371D01*
X-503033Y386133D01*
X-502795Y386014D01*
X-502319D01*
X-502081Y386133D01*
X-501843Y386371D01*
X-501724Y386609D01*
Y386966D01*
X-502319D02*
X-501724D01*
X-544044Y422637D02*
X-543807Y422756D01*
X-543449Y423113D01*
Y420614D01*
X-539653Y422280D02*
X-539891Y422161D01*
X-540129Y421923D01*
X-540248Y421566D01*
Y421328D01*
X-540129Y420971D01*
X-539891Y420733D01*
X-539653Y420614D01*
X-539295D01*
X-539057Y420733D01*
X-538819Y420971D01*
X-538700Y421328D01*
Y421566D01*
X-538819Y421923D01*
X-539057Y422161D01*
X-539295Y422280D01*
X-539653D01*
X-536844D02*
X-538153Y420614D01*
Y422280D02*
X-536844D01*
X-538153Y420614D02*
X-536844D01*
X-652596Y387123D02*
Y384624D01*
X-651167D01*
X-650656Y387123D02*
X-649346D01*
X-650060Y386171D01*
X-649703D01*
X-649465Y386052D01*
X-649346Y385933D01*
X-649227Y385576D01*
Y385338D01*
X-649346Y384981D01*
X-649584Y384743D01*
X-649941Y384624D01*
X-650298D01*
X-650656Y384743D01*
X-650774Y384862D01*
X-650893Y385100D01*
X-648668Y383791D02*
X-646763D01*
X-646442Y387123D02*
Y384624D01*
X-645918Y387123D02*
Y384624D01*
Y387123D02*
X-644252Y384624D01*
Y387123D02*
Y384624D01*
X-643562Y387123D02*
Y384624D01*
Y387123D02*
X-641895Y384624D01*
Y387123D02*
Y384624D01*
X-639658Y387123D02*
X-641205D01*
Y384624D01*
X-639658D01*
X-641205Y385933D02*
X-640253D01*
X-639241Y387123D02*
Y384624D01*
Y387123D02*
X-638170D01*
X-637813Y387004D01*
X-637694Y386885D01*
X-637575Y386647D01*
Y386409D01*
X-637694Y386171D01*
X-637813Y386052D01*
X-638170Y385933D01*
X-639241D01*
X-638408D02*
X-637575Y384624D01*
X-577130Y378613D02*
X-577487Y378494D01*
X-577726Y378137D01*
X-577844Y377542D01*
Y377185D01*
X-577726Y376590D01*
X-577487Y376233D01*
X-577130Y376114D01*
X-576892D01*
X-576535Y376233D01*
X-576297Y376590D01*
X-576178Y377185D01*
Y377542D01*
X-576297Y378137D01*
X-576535Y378494D01*
X-576892Y378613D01*
X-577130D01*
X-575500Y376352D02*
X-575619Y376233D01*
X-575500Y376114D01*
X-575381Y376233D01*
X-575500Y376352D01*
X-574714Y378018D02*
Y378137D01*
X-574595Y378375D01*
X-574476Y378494D01*
X-574238Y378613D01*
X-573762D01*
X-573524Y378494D01*
X-573405Y378375D01*
X-573286Y378137D01*
Y377899D01*
X-573405Y377661D01*
X-573643Y377304D01*
X-574833Y376114D01*
X-573167D01*
X-570644Y377780D02*
Y376114D01*
Y377304D02*
X-570287Y377661D01*
X-570049Y377780D01*
X-569692D01*
X-569453Y377661D01*
X-569334Y377304D01*
Y376114D01*
Y377304D02*
X-568977Y377661D01*
X-568739Y377780D01*
X-568382D01*
X-568144Y377661D01*
X-568025Y377304D01*
Y376114D01*
X-567240Y377780D02*
Y376114D01*
Y377304D02*
X-566883Y377661D01*
X-566644Y377780D01*
X-566288D01*
X-566049Y377661D01*
X-565930Y377304D01*
Y376114D01*
Y377304D02*
X-565573Y377661D01*
X-565335Y377780D01*
X-564978D01*
X-564740Y377661D01*
X-564621Y377304D01*
Y376114D01*
X-611863Y156420D02*
Y153921D01*
Y156420D02*
X-610196Y153921D01*
Y156420D02*
Y153921D01*
X-608911Y155587D02*
X-609149Y155468D01*
X-609387Y155230D01*
X-609506Y154873D01*
Y154635D01*
X-609387Y154278D01*
X-609149Y154040D01*
X-608911Y153921D01*
X-608554D01*
X-608316Y154040D01*
X-608078Y154278D01*
X-607959Y154635D01*
Y154873D01*
X-608078Y155230D01*
X-608316Y155468D01*
X-608554Y155587D01*
X-608911D01*
X-607054Y156420D02*
Y154397D01*
X-606935Y154040D01*
X-606697Y153921D01*
X-606459D01*
X-607411Y155587D02*
X-606578D01*
X-606102Y154873D02*
X-604674D01*
Y155111D01*
X-604793Y155349D01*
X-604912Y155468D01*
X-605150Y155587D01*
X-605507D01*
X-605745Y155468D01*
X-605983Y155230D01*
X-606102Y154873D01*
Y154635D01*
X-605983Y154278D01*
X-605745Y154040D01*
X-605507Y153921D01*
X-605150D01*
X-604912Y154040D01*
X-604674Y154278D01*
X-604019Y155587D02*
X-604138Y155468D01*
X-604019Y155349D01*
X-603900Y155468D01*
X-604019Y155587D01*
Y154159D02*
X-604138Y154040D01*
X-604019Y153921D01*
X-603900Y154040D01*
X-604019Y154159D01*
X-603352Y156420D02*
Y153921D01*
Y156420D02*
X-602281D01*
X-601924Y156301D01*
X-601805Y156182D01*
X-601686Y155944D01*
Y155706D01*
X-601805Y155468D01*
X-601924Y155349D01*
X-602281Y155230D01*
X-603352D01*
X-602519D02*
X-601686Y153921D01*
X-601127Y156420D02*
Y153921D01*
Y156420D02*
X-599579D01*
X-601127Y155230D02*
X-600175D01*
D99*
X-625264Y218245D02*
X-625740Y218721D01*
X-626454Y218959D01*
X-627406D01*
X-628120Y218721D01*
X-628596Y218245D01*
Y217768D01*
X-628359Y217292D01*
X-628120Y217054D01*
X-627644Y216816D01*
X-626216Y216340D01*
X-625740Y216102D01*
X-625502Y215864D01*
X-625264Y215388D01*
Y214674D01*
X-625740Y214198D01*
X-626454Y213960D01*
X-627406D01*
X-628120Y214198D01*
X-628596Y214674D01*
X-624145Y218006D02*
X-623669Y218245D01*
X-622955Y218959D01*
Y213960D01*
M02*
