G04*
G04 #@! TF.GenerationSoftware,Altium Limited,Altium Designer,22.0.2 (36)*
G04*
G04 Layer_Physical_Order=2*
G04 Layer_Color=36540*
%FSLAX25Y25*%
%MOIN*%
G70*
G04*
G04 #@! TF.SameCoordinates,14A72887-5544-470D-8401-3C00119275A7*
G04*
G04*
G04 #@! TF.FilePolarity,Positive*
G04*
G01*
G75*
%ADD76C,0.06000*%
%ADD77C,0.01400*%
G36*
X42504Y803D02*
X803D01*
Y66126D01*
X42504D01*
Y803D01*
D02*
G37*
%LPC*%
G36*
X24213Y63914D02*
X23709Y63814D01*
X23282Y63529D01*
X22997Y63102D01*
X22897Y62598D01*
X22997Y62095D01*
X23282Y61668D01*
X23709Y61383D01*
X24213Y61283D01*
X24716Y61383D01*
X25143Y61668D01*
X25428Y62095D01*
X25528Y62598D01*
X25428Y63102D01*
X25143Y63529D01*
X24716Y63814D01*
X24213Y63914D01*
D02*
G37*
G36*
X39888Y63504D02*
X39385Y63404D01*
X38958Y63119D01*
X38673Y62692D01*
X38573Y62189D01*
X38673Y61685D01*
X38958Y61258D01*
X39385Y60973D01*
X39888Y60873D01*
X40392Y60973D01*
X40819Y61258D01*
X41104Y61685D01*
X41204Y62189D01*
X41104Y62692D01*
X40819Y63119D01*
X40392Y63404D01*
X39888Y63504D01*
D02*
G37*
G36*
X23907Y58757D02*
X23403Y58657D01*
X22976Y58371D01*
X22691Y57945D01*
X22591Y57441D01*
X22691Y56937D01*
X22976Y56511D01*
X23403Y56225D01*
X23907Y56125D01*
X24410Y56225D01*
X24837Y56511D01*
X25123Y56937D01*
X25223Y57441D01*
X25123Y57945D01*
X24837Y58371D01*
X24410Y58657D01*
X23907Y58757D01*
D02*
G37*
G36*
X28465Y58048D02*
X27961Y57948D01*
X27534Y57663D01*
X27249Y57236D01*
X27149Y56732D01*
X27249Y56229D01*
X27534Y55802D01*
X27961Y55517D01*
X28465Y55416D01*
X28968Y55517D01*
X29395Y55802D01*
X29680Y56229D01*
X29780Y56732D01*
X29680Y57236D01*
X29395Y57663D01*
X28968Y57948D01*
X28465Y58048D01*
D02*
G37*
G36*
X21142Y47812D02*
X20638Y47712D01*
X20211Y47427D01*
X19926Y47000D01*
X19826Y46496D01*
X19926Y45992D01*
X20211Y45566D01*
X20638Y45280D01*
X21142Y45180D01*
X21645Y45280D01*
X22072Y45566D01*
X22357Y45992D01*
X22458Y46496D01*
X22357Y47000D01*
X22072Y47427D01*
X21645Y47712D01*
X21142Y47812D01*
D02*
G37*
G36*
X28071Y47851D02*
X27567Y47751D01*
X27140Y47466D01*
X26855Y47039D01*
X26755Y46535D01*
X26855Y46032D01*
X27140Y45605D01*
X26982Y45109D01*
X26966Y45086D01*
X26866Y44582D01*
X26966Y44078D01*
X27252Y43652D01*
X27678Y43366D01*
X28182Y43266D01*
X28686Y43366D01*
X29112Y43652D01*
X29398Y44078D01*
X29498Y44582D01*
X29398Y45086D01*
X29112Y45512D01*
X29271Y46008D01*
X29287Y46032D01*
X29387Y46535D01*
X29287Y47039D01*
X29001Y47466D01*
X28574Y47751D01*
X28071Y47851D01*
D02*
G37*
G36*
X3661Y45135D02*
X3158Y45035D01*
X2731Y44749D01*
X2446Y44322D01*
X2346Y43819D01*
X2446Y43315D01*
X2731Y42889D01*
X3158Y42603D01*
X3661Y42503D01*
X4165Y42603D01*
X4592Y42889D01*
X4877Y43315D01*
X4977Y43819D01*
X4877Y44322D01*
X4592Y44749D01*
X4165Y45035D01*
X3661Y45135D01*
D02*
G37*
G36*
X11600Y42116D02*
X11096Y42016D01*
X10670Y41730D01*
X10050Y41662D01*
X9952Y41728D01*
X9449Y41828D01*
X8945Y41728D01*
X8518Y41442D01*
X8233Y41015D01*
X8133Y40512D01*
X8233Y40008D01*
X8518Y39581D01*
X8945Y39296D01*
X9449Y39196D01*
X9952Y39296D01*
X10379Y39581D01*
X10999Y39649D01*
X11096Y39584D01*
X11600Y39484D01*
X12104Y39584D01*
X12530Y39870D01*
X12816Y40296D01*
X12916Y40800D01*
X12816Y41304D01*
X12530Y41730D01*
X12104Y42016D01*
X11600Y42116D01*
D02*
G37*
G36*
X23401Y43517D02*
X22897Y43417D01*
X22471Y43131D01*
X22185Y42705D01*
X22085Y42201D01*
X22185Y41697D01*
X22437Y41321D01*
X22072Y41009D01*
X21645Y41294D01*
X21142Y41395D01*
X20638Y41294D01*
X20211Y41009D01*
X19926Y40582D01*
X19826Y40079D01*
X19926Y39575D01*
X20211Y39148D01*
X20638Y38863D01*
X21142Y38763D01*
X21645Y38863D01*
X22072Y39148D01*
X22357Y39575D01*
X22458Y40079D01*
X22357Y40582D01*
X22106Y40959D01*
X22471Y41271D01*
X22897Y40985D01*
X23401Y40885D01*
X23905Y40985D01*
X24331Y41271D01*
X24617Y41697D01*
X24717Y42201D01*
X24617Y42705D01*
X24331Y43131D01*
X23905Y43417D01*
X23401Y43517D01*
D02*
G37*
G36*
X16292Y42937D02*
X15789Y42837D01*
X15362Y42552D01*
X15077Y42125D01*
X14976Y41621D01*
X15077Y41118D01*
X15362Y40691D01*
X15789Y40405D01*
X16292Y40305D01*
X16796Y40405D01*
X17223Y40691D01*
X17508Y41118D01*
X17608Y41621D01*
X17508Y42125D01*
X17223Y42552D01*
X16796Y42837D01*
X16292Y42937D01*
D02*
G37*
G36*
X35276Y42576D02*
X34772Y42476D01*
X34345Y42190D01*
X34060Y41763D01*
X33960Y41260D01*
X34060Y40756D01*
X34345Y40329D01*
X34772Y40044D01*
X35276Y39944D01*
X35779Y40044D01*
X36206Y40329D01*
X36491Y40756D01*
X36591Y41260D01*
X36491Y41763D01*
X36206Y42190D01*
X35779Y42476D01*
X35276Y42576D01*
D02*
G37*
G36*
X31850Y37536D02*
X31347Y37436D01*
X30920Y37151D01*
X30635Y36724D01*
X30535Y36220D01*
X30635Y35717D01*
X30920Y35290D01*
X31347Y35005D01*
X31850Y34905D01*
X32354Y35005D01*
X32781Y35290D01*
X33066Y35717D01*
X33166Y36220D01*
X33066Y36724D01*
X32781Y37151D01*
X32354Y37436D01*
X31850Y37536D01*
D02*
G37*
G36*
X8059Y33454D02*
X7555Y33354D01*
X7128Y33068D01*
X6843Y32642D01*
X6743Y32138D01*
X6843Y31634D01*
X7128Y31208D01*
X7555Y30922D01*
X8059Y30822D01*
X8562Y30922D01*
X8989Y31208D01*
X9274Y31634D01*
X9375Y32138D01*
X9274Y32642D01*
X8989Y33068D01*
X8562Y33354D01*
X8059Y33454D01*
D02*
G37*
G36*
X33307Y32694D02*
X32803Y32594D01*
X32377Y32308D01*
X32091Y31881D01*
X31991Y31378D01*
X32091Y30874D01*
X32377Y30448D01*
X32803Y30162D01*
X33307Y30062D01*
X33811Y30162D01*
X34238Y30448D01*
X34523Y30874D01*
X34623Y31378D01*
X34523Y31881D01*
X34238Y32308D01*
X33811Y32594D01*
X33307Y32694D01*
D02*
G37*
G36*
X27600Y29517D02*
X27096Y29417D01*
X26670Y29131D01*
X26384Y28705D01*
X26284Y28201D01*
X26384Y27697D01*
X26522Y27491D01*
X26653Y27246D01*
X26396Y26852D01*
X26314Y26797D01*
X26028Y26370D01*
X25928Y25866D01*
X26028Y25363D01*
X26314Y24936D01*
X26741Y24651D01*
X27244Y24550D01*
X27748Y24651D01*
X28174Y24936D01*
X28460Y25363D01*
X28560Y25866D01*
X28460Y26370D01*
X28322Y26576D01*
X28191Y26822D01*
X28448Y27215D01*
X28530Y27271D01*
X28816Y27697D01*
X28916Y28201D01*
X28816Y28705D01*
X28530Y29131D01*
X28104Y29417D01*
X27600Y29517D01*
D02*
G37*
G36*
X5394Y28048D02*
X4890Y27948D01*
X4463Y27663D01*
X4178Y27236D01*
X4078Y26732D01*
X4178Y26229D01*
X4463Y25802D01*
X4890Y25517D01*
X5394Y25416D01*
X5615Y25461D01*
X5674Y25166D01*
X5959Y24739D01*
X6386Y24454D01*
X6890Y24353D01*
X7393Y24454D01*
X7820Y24739D01*
X8105Y25166D01*
X8206Y25669D01*
X8105Y26173D01*
X7820Y26600D01*
X7393Y26885D01*
X6890Y26985D01*
X6668Y26941D01*
X6609Y27236D01*
X6324Y27663D01*
X5897Y27948D01*
X5394Y28048D01*
D02*
G37*
G36*
X12992Y28481D02*
X12489Y28381D01*
X12062Y28096D01*
X11777Y27669D01*
X11676Y27165D01*
X11777Y26662D01*
X11934Y26426D01*
X12185Y25992D01*
X11899Y25565D01*
X11799Y25061D01*
X11899Y24558D01*
X12185Y24131D01*
X12611Y23846D01*
X13115Y23746D01*
X13619Y23846D01*
X14045Y24131D01*
X14331Y24558D01*
X14431Y25061D01*
X14331Y25565D01*
X14173Y25801D01*
X13923Y26235D01*
X14208Y26662D01*
X14308Y27165D01*
X14208Y27669D01*
X13923Y28096D01*
X13496Y28381D01*
X12992Y28481D01*
D02*
G37*
G36*
X32520Y27615D02*
X32016Y27515D01*
X31589Y27230D01*
X31304Y26803D01*
X31204Y26299D01*
X31304Y25796D01*
X31464Y25556D01*
X31629Y25064D01*
X31343Y24637D01*
X31243Y24134D01*
X31343Y23630D01*
X31629Y23203D01*
X32056Y22918D01*
X32559Y22818D01*
X33063Y22918D01*
X33490Y23203D01*
X33775Y23630D01*
X33875Y24134D01*
X33775Y24637D01*
X33615Y24877D01*
X33450Y25369D01*
X33735Y25796D01*
X33836Y26299D01*
X33735Y26803D01*
X33450Y27230D01*
X33023Y27515D01*
X32520Y27615D01*
D02*
G37*
G36*
X12559Y21473D02*
X12055Y21373D01*
X11629Y21088D01*
X11343Y20661D01*
X11243Y20157D01*
X11343Y19654D01*
X11629Y19227D01*
X12055Y18942D01*
X12559Y18842D01*
X13063Y18942D01*
X13489Y19227D01*
X13775Y19654D01*
X13875Y20157D01*
X13775Y20661D01*
X13489Y21088D01*
X13063Y21373D01*
X12559Y21473D01*
D02*
G37*
G36*
X7795Y21080D02*
X7292Y20979D01*
X6865Y20694D01*
X6580Y20267D01*
X6479Y19764D01*
X6580Y19260D01*
X6865Y18833D01*
X7292Y18548D01*
X7795Y18448D01*
X8299Y18548D01*
X8726Y18833D01*
X9011Y19260D01*
X9111Y19764D01*
X9011Y20267D01*
X8726Y20694D01*
X8299Y20979D01*
X7795Y21080D01*
D02*
G37*
G36*
X23110Y21040D02*
X22607Y20940D01*
X22180Y20655D01*
X21895Y20228D01*
X21794Y19724D01*
X21895Y19221D01*
X22180Y18794D01*
X22607Y18509D01*
X23110Y18409D01*
X23614Y18509D01*
X24041Y18794D01*
X24326Y19221D01*
X24426Y19724D01*
X24326Y20228D01*
X24041Y20655D01*
X23614Y20940D01*
X23110Y21040D01*
D02*
G37*
G36*
X19134Y20962D02*
X18630Y20861D01*
X18203Y20576D01*
X17918Y20149D01*
X17818Y19646D01*
X17918Y19142D01*
X18203Y18715D01*
X18630Y18430D01*
X19134Y18330D01*
X19637Y18430D01*
X20064Y18715D01*
X20349Y19142D01*
X20450Y19646D01*
X20349Y20149D01*
X20064Y20576D01*
X19637Y20861D01*
X19134Y20962D01*
D02*
G37*
G36*
X39134Y22103D02*
X38630Y22003D01*
X38203Y21718D01*
X37918Y21291D01*
X37818Y20787D01*
X37918Y20284D01*
X38167Y19912D01*
X38036Y19716D01*
X37936Y19213D01*
X38036Y18709D01*
X38322Y18282D01*
X38748Y17997D01*
X39252Y17897D01*
X39755Y17997D01*
X40182Y18282D01*
X40468Y18709D01*
X40568Y19213D01*
X40468Y19716D01*
X40219Y20088D01*
X40350Y20284D01*
X40450Y20787D01*
X40350Y21291D01*
X40064Y21718D01*
X39637Y22003D01*
X39134Y22103D01*
D02*
G37*
G36*
X29724Y18599D02*
X29221Y18499D01*
X28794Y18214D01*
X28509Y17787D01*
X28409Y17284D01*
X28509Y16780D01*
X28794Y16353D01*
X29221Y16068D01*
X29724Y15968D01*
X30228Y16068D01*
X30655Y16353D01*
X30940Y16780D01*
X31040Y17284D01*
X30940Y17787D01*
X30655Y18214D01*
X30228Y18499D01*
X29724Y18599D01*
D02*
G37*
G36*
X8937Y14662D02*
X8433Y14562D01*
X8007Y14277D01*
X7721Y13850D01*
X7621Y13347D01*
X7721Y12843D01*
X8007Y12416D01*
X8433Y12131D01*
X8937Y12031D01*
X9441Y12131D01*
X9867Y12416D01*
X10153Y12843D01*
X10253Y13347D01*
X10153Y13850D01*
X9867Y14277D01*
X9441Y14562D01*
X8937Y14662D01*
D02*
G37*
G36*
X2992Y14660D02*
X2489Y14560D01*
X2062Y14275D01*
X1777Y13848D01*
X1676Y13344D01*
X1777Y12841D01*
X2062Y12414D01*
X2489Y12128D01*
X2992Y12028D01*
X3496Y12128D01*
X3923Y12414D01*
X4208Y12841D01*
X4308Y13344D01*
X4208Y13848D01*
X3923Y14275D01*
X3496Y14560D01*
X2992Y14660D01*
D02*
G37*
G36*
X36715Y8621D02*
X35778Y8498D01*
X34904Y8136D01*
X34154Y7561D01*
X33579Y6811D01*
X33217Y5937D01*
X33094Y5000D01*
X33217Y4063D01*
X33579Y3189D01*
X34154Y2439D01*
X34904Y1864D01*
X35778Y1502D01*
X36715Y1378D01*
X37652Y1502D01*
X38526Y1864D01*
X39276Y2439D01*
X39851Y3189D01*
X40213Y4063D01*
X40336Y5000D01*
X40213Y5937D01*
X39851Y6811D01*
X39276Y7561D01*
X38526Y8136D01*
X37652Y8498D01*
X36715Y8621D01*
D02*
G37*
G36*
X26715D02*
X25778Y8498D01*
X24904Y8136D01*
X24154Y7561D01*
X23579Y6811D01*
X23217Y5937D01*
X23094Y5000D01*
X23217Y4063D01*
X23579Y3189D01*
X24154Y2439D01*
X24904Y1864D01*
X25778Y1502D01*
X26715Y1378D01*
X27652Y1502D01*
X28526Y1864D01*
X29276Y2439D01*
X29851Y3189D01*
X30213Y4063D01*
X30336Y5000D01*
X30213Y5937D01*
X29851Y6811D01*
X29276Y7561D01*
X28526Y8136D01*
X27652Y8498D01*
X26715Y8621D01*
D02*
G37*
G36*
X16715D02*
X15778Y8498D01*
X14904Y8136D01*
X14154Y7561D01*
X13579Y6811D01*
X13217Y5937D01*
X13093Y5000D01*
X13217Y4063D01*
X13579Y3189D01*
X14154Y2439D01*
X14904Y1864D01*
X15778Y1502D01*
X16715Y1378D01*
X17652Y1502D01*
X18526Y1864D01*
X19276Y2439D01*
X19851Y3189D01*
X20213Y4063D01*
X20336Y5000D01*
X20213Y5937D01*
X19851Y6811D01*
X19276Y7561D01*
X18526Y8136D01*
X17652Y8498D01*
X16715Y8621D01*
D02*
G37*
%LPD*%
D76*
X6715Y5000D02*
D03*
D77*
X25157Y21417D02*
D03*
X6339Y31339D02*
D03*
X14291Y33898D02*
D03*
X14606Y30236D02*
D03*
X20945Y31220D02*
D03*
X21142Y33228D02*
D03*
X11400Y55000D02*
D03*
X11102Y2283D02*
D03*
X11024Y4606D02*
D03*
X11600Y63200D02*
D03*
X1600Y62150D02*
D03*
Y65000D02*
D03*
X15354Y32165D02*
D03*
X1600Y53600D02*
D03*
Y56450D02*
D03*
Y59300D02*
D03*
X22200Y2600D02*
D03*
X23200Y33600D02*
D03*
X2400Y2400D02*
D03*
Y5600D02*
D03*
X27200Y33000D02*
D03*
X31400Y6800D02*
D03*
X31600Y3000D02*
D03*
X3800Y55400D02*
D03*
X4000Y62800D02*
D03*
X6200Y55400D02*
D03*
Y62800D02*
D03*
X8400Y57800D02*
D03*
Y60600D02*
D03*
X8600Y55400D02*
D03*
X9000Y63000D02*
D03*
X2342Y8742D02*
D03*
X18268Y32087D02*
D03*
X23622Y31969D02*
D03*
X16732Y33779D02*
D03*
X19094Y33898D02*
D03*
X13858Y63701D02*
D03*
X15394Y65630D02*
D03*
X18440D02*
D03*
X21486D02*
D03*
X24532D02*
D03*
X27579D02*
D03*
X30625D02*
D03*
X33671D02*
D03*
X36718D02*
D03*
X39764D02*
D03*
X42008Y32441D02*
D03*
X39402Y11654D02*
D03*
X36638D02*
D03*
X33874D02*
D03*
X31110D02*
D03*
X1339Y11417D02*
D03*
X1299Y22992D02*
D03*
Y29941D02*
D03*
X42008Y53228D02*
D03*
Y25512D02*
D03*
Y15118D02*
D03*
X42008Y11654D02*
D03*
X42008Y28976D02*
D03*
Y49764D02*
D03*
Y35906D02*
D03*
Y22047D02*
D03*
Y18583D02*
D03*
Y39370D02*
D03*
Y63622D02*
D03*
Y56693D02*
D03*
Y60157D02*
D03*
Y46299D02*
D03*
Y42835D02*
D03*
X28346Y11654D02*
D03*
X7106Y48740D02*
D03*
X10069D02*
D03*
X13032D02*
D03*
X4144D02*
D03*
X1299Y48740D02*
D03*
Y45522D02*
D03*
Y42303D02*
D03*
Y39085D02*
D03*
Y35866D02*
D03*
Y32648D02*
D03*
X21575Y50433D02*
D03*
X19646Y48740D02*
D03*
X22087Y48779D02*
D03*
X26063Y51417D02*
D03*
X38425Y52677D02*
D03*
X35906Y52362D02*
D03*
X25433Y32598D02*
D03*
X38346Y39331D02*
D03*
X40197Y37598D02*
D03*
X39803Y54488D02*
D03*
X20000Y64173D02*
D03*
X2756Y50827D02*
D03*
X5669Y50906D02*
D03*
X8852Y50852D02*
D03*
X11693Y50906D02*
D03*
X5039Y59055D02*
D03*
X16535Y56221D02*
D03*
X18779Y56496D02*
D03*
X14567Y55551D02*
D03*
X14213Y53347D02*
D03*
X14173Y51102D02*
D03*
X35394Y54606D02*
D03*
X40827Y47677D02*
D03*
X40787Y13307D02*
D03*
X25315Y12480D02*
D03*
X19055Y27402D02*
D03*
X22953Y27598D02*
D03*
X15394Y28032D02*
D03*
X41260Y9173D02*
D03*
X41417Y1929D02*
D03*
X38110Y9606D02*
D03*
X35354Y9882D02*
D03*
X40551Y43976D02*
D03*
X40669Y40984D02*
D03*
X3504Y46496D02*
D03*
X6024Y46772D02*
D03*
X10197Y46614D02*
D03*
X8268Y46732D02*
D03*
X11024Y7008D02*
D03*
X41457Y5276D02*
D03*
X40827Y51299D02*
D03*
X37402Y54291D02*
D03*
X18819Y61890D02*
D03*
X16929Y64134D02*
D03*
X21496Y43819D02*
D03*
X36378Y45158D02*
D03*
X17402Y20906D02*
D03*
X21063Y20945D02*
D03*
X14961Y20472D02*
D03*
X13110Y21969D02*
D03*
X14095Y40433D02*
D03*
X31260Y39252D02*
D03*
X33307Y39291D02*
D03*
X35906Y39488D02*
D03*
X32638Y45197D02*
D03*
X9291Y35984D02*
D03*
X14055Y41969D02*
D03*
X26732Y22323D02*
D03*
X26969Y30591D02*
D03*
X19449Y29921D02*
D03*
X25315Y28071D02*
D03*
X22284Y29921D02*
D03*
X24921Y30079D02*
D03*
X21063Y28307D02*
D03*
X16772Y30512D02*
D03*
X17402Y28622D02*
D03*
X32520Y52047D02*
D03*
X30354Y52126D02*
D03*
X28543Y51535D02*
D03*
M02*
