G04*
G04 #@! TF.GenerationSoftware,Altium Limited,Altium Designer,22.0.2 (36)*
G04*
G04 Layer_Color=128*
%FSLAX25Y25*%
%MOIN*%
G70*
G04*
G04 #@! TF.SameCoordinates,14A72887-5544-470D-8401-3C00119275A7*
G04*
G04*
G04 #@! TF.FilePolarity,Positive*
G04*
G01*
G75*
%ADD110C,0.00200*%
D110*
X4715Y5000D02*
X8715D01*
X6715Y3000D02*
Y7000D01*
X34715Y5000D02*
X38715D01*
X36715Y3000D02*
Y7000D01*
X24715Y5000D02*
X28715D01*
X26715Y3000D02*
Y7000D01*
X14715Y5000D02*
X18715D01*
X16715Y3000D02*
Y7000D01*
X24758Y21417D02*
X25557D01*
X25157Y21018D02*
Y21817D01*
X5939Y31339D02*
X6738D01*
X6339Y30939D02*
Y31738D01*
X13892Y33898D02*
X14691D01*
X14291Y33498D02*
Y34297D01*
X14207Y30236D02*
X15006D01*
X14606Y29837D02*
Y30636D01*
X20545Y31220D02*
X21344D01*
X20945Y30821D02*
Y31620D01*
X20742Y33228D02*
X21541D01*
X21142Y32829D02*
Y33628D01*
X12593Y27165D02*
X13392D01*
X12992Y26766D02*
Y27565D01*
X20742Y40079D02*
X21541D01*
X21142Y39679D02*
Y40478D01*
X11000Y55000D02*
X11800D01*
X11400Y54601D02*
Y55400D01*
X10703Y2283D02*
X11502D01*
X11102Y1884D02*
Y2683D01*
X11201Y40800D02*
X11999D01*
X11600Y40400D02*
Y41199D01*
X10624Y4606D02*
X11423D01*
X11024Y4207D02*
Y5006D01*
X11201Y63200D02*
X11999D01*
X11600Y62801D02*
Y63599D01*
X1201Y62150D02*
X2000D01*
X1600Y61751D02*
Y62550D01*
X1201Y65000D02*
X2000D01*
X1600Y64600D02*
Y65399D01*
X14955Y32165D02*
X15754D01*
X15354Y31766D02*
Y32565D01*
X1201Y53600D02*
X2000D01*
X1600Y53201D02*
Y54000D01*
X1201Y56450D02*
X2000D01*
X1600Y56050D02*
Y56849D01*
X1201Y59300D02*
X2000D01*
X1600Y58900D02*
Y59699D01*
X21801Y2600D02*
X22600D01*
X22200Y2200D02*
Y2999D01*
X22801Y33600D02*
X23599D01*
X23200Y33200D02*
Y33999D01*
X23001Y42201D02*
X23800D01*
X23401Y41802D02*
Y42601D01*
X2001Y2400D02*
X2799D01*
X2400Y2001D02*
Y2799D01*
X2001Y5600D02*
X2799D01*
X2400Y5201D02*
Y5999D01*
X26801Y33000D02*
X27599D01*
X27200Y32601D02*
Y33400D01*
X27200Y28201D02*
X27999D01*
X27600Y27801D02*
Y28600D01*
X27782Y44582D02*
X28582D01*
X28182Y44183D02*
Y44982D01*
X31001Y6800D02*
X31800D01*
X31400Y6401D02*
Y7199D01*
X31201Y3000D02*
X31999D01*
X31600Y2600D02*
Y3399D01*
X3401Y55400D02*
X4200D01*
X3800Y55001D02*
Y55800D01*
X3601Y62800D02*
X4400D01*
X4000Y62401D02*
Y63200D01*
X5801Y55400D02*
X6600D01*
X6200Y55001D02*
Y55800D01*
X5801Y62800D02*
X6600D01*
X6200Y62401D02*
Y63200D01*
X8000Y57800D02*
X8800D01*
X8400Y57401D02*
Y58200D01*
X8000Y60600D02*
X8800D01*
X8400Y60201D02*
Y61000D01*
X8201Y55400D02*
X8999D01*
X8600Y55001D02*
Y55800D01*
X8601Y63000D02*
X9399D01*
X9000Y62600D02*
Y63399D01*
X23813Y62598D02*
X24612D01*
X24213Y62199D02*
Y62998D01*
X23507Y57441D02*
X24306D01*
X23907Y57041D02*
Y57840D01*
X1943Y8742D02*
X2742D01*
X2342Y8343D02*
Y9142D01*
X8537Y13347D02*
X9337D01*
X8937Y12946D02*
Y13747D01*
X2592Y13344D02*
X3392D01*
X2992Y12944D02*
Y13744D01*
X12716Y25061D02*
X13514D01*
X13115Y24662D02*
Y25461D01*
X18734Y19646D02*
X19534D01*
X19134Y19246D02*
Y20046D01*
X22710Y19724D02*
X23510D01*
X23110Y19324D02*
Y20124D01*
X7395Y19764D02*
X8195D01*
X7795Y19364D02*
Y20164D01*
X12159Y20157D02*
X12959D01*
X12559Y19758D02*
Y20558D01*
X7659Y32138D02*
X8459D01*
X8059Y31738D02*
Y32538D01*
X3261Y43819D02*
X4061D01*
X3661Y43419D02*
Y44219D01*
X9049Y40512D02*
X9848D01*
X9449Y40112D02*
Y40911D01*
X28065Y56732D02*
X28865D01*
X28465Y56332D02*
Y57132D01*
X27671Y46535D02*
X28471D01*
X28071Y46135D02*
Y46935D01*
X32160Y24134D02*
X32959D01*
X32559Y23734D02*
Y24533D01*
X32120Y26299D02*
X32920D01*
X32520Y25899D02*
Y26699D01*
X32907Y31378D02*
X33707D01*
X33307Y30978D02*
Y31778D01*
X31450Y36220D02*
X32250D01*
X31850Y35820D02*
Y36621D01*
X38734Y20787D02*
X39534D01*
X39134Y20387D02*
Y21187D01*
X38852Y19213D02*
X39652D01*
X39252Y18813D02*
Y19613D01*
X29325Y17284D02*
X30124D01*
X29724Y16884D02*
Y17683D01*
X17868Y32087D02*
X18667D01*
X18268Y31687D02*
Y32486D01*
X23223Y31969D02*
X24022D01*
X23622Y31569D02*
Y32368D01*
X16333Y33779D02*
X17132D01*
X16732Y33380D02*
Y34179D01*
X18695Y33898D02*
X19494D01*
X19094Y33498D02*
Y34297D01*
X15893Y41621D02*
X16692D01*
X16292Y41222D02*
Y42021D01*
X13459Y63701D02*
X14258D01*
X13858Y63301D02*
Y64100D01*
X14994Y65630D02*
X15793D01*
X15394Y65230D02*
Y66029D01*
X18041Y65630D02*
X18839D01*
X18440Y65230D02*
Y66029D01*
X21087Y65630D02*
X21886D01*
X21486Y65230D02*
Y66029D01*
X24133Y65630D02*
X24932D01*
X24532Y65230D02*
Y66029D01*
X27179Y65630D02*
X27978D01*
X27579Y65230D02*
Y66029D01*
X30226Y65630D02*
X31025D01*
X30625Y65230D02*
Y66029D01*
X33272Y65630D02*
X34071D01*
X33671Y65230D02*
Y66029D01*
X36318Y65630D02*
X37117D01*
X36718Y65230D02*
Y66029D01*
X39364Y65630D02*
X40163D01*
X39764Y65230D02*
Y66029D01*
X41608Y32441D02*
X42407D01*
X42008Y32041D02*
Y32840D01*
X39002Y11654D02*
X39801D01*
X39402Y11254D02*
Y12053D01*
X36238Y11654D02*
X37037D01*
X36638Y11254D02*
Y12053D01*
X33474Y11654D02*
X34273D01*
X33874Y11254D02*
Y12053D01*
X30711Y11654D02*
X31510D01*
X31110Y11254D02*
Y12053D01*
X939Y11417D02*
X1738D01*
X1339Y11018D02*
Y11817D01*
X900Y22992D02*
X1699D01*
X1299Y22593D02*
Y23392D01*
X900Y29941D02*
X1699D01*
X1299Y29541D02*
Y30340D01*
X41608Y53228D02*
X42407D01*
X42008Y52829D02*
Y53628D01*
X41608Y25512D02*
X42407D01*
X42008Y25112D02*
Y25911D01*
X41608Y15118D02*
X42407D01*
X42008Y14719D02*
Y15518D01*
X41608Y11654D02*
X42407D01*
X42008Y11254D02*
Y12053D01*
X41608Y28976D02*
X42407D01*
X42008Y28577D02*
Y29376D01*
X41608Y49764D02*
X42407D01*
X42008Y49364D02*
Y50163D01*
X41608Y35906D02*
X42407D01*
X42008Y35506D02*
Y36305D01*
X41608Y22047D02*
X42407D01*
X42008Y21648D02*
Y22447D01*
X41608Y18583D02*
X42407D01*
X42008Y18183D02*
Y18982D01*
X41608Y39370D02*
X42407D01*
X42008Y38971D02*
Y39770D01*
X41608Y63622D02*
X42407D01*
X42008Y63222D02*
Y64021D01*
X41608Y56693D02*
X42407D01*
X42008Y56293D02*
Y57092D01*
X41608Y60157D02*
X42407D01*
X42008Y59758D02*
Y60557D01*
X41608Y46299D02*
X42407D01*
X42008Y45900D02*
Y46699D01*
X41608Y42835D02*
X42407D01*
X42008Y42435D02*
Y43234D01*
X27947Y11654D02*
X28746D01*
X28346Y11254D02*
Y12053D01*
X6707Y48740D02*
X7506D01*
X7106Y48341D02*
Y49140D01*
X9669Y48740D02*
X10468D01*
X10069Y48341D02*
Y49140D01*
X12632Y48740D02*
X13431D01*
X13032Y48341D02*
Y49140D01*
X3744Y48740D02*
X4543D01*
X4144Y48341D02*
Y49140D01*
X900Y48740D02*
X1699D01*
X1299Y48341D02*
Y49140D01*
X900Y45522D02*
X1699D01*
X1299Y45122D02*
Y45921D01*
X900Y42303D02*
X1699D01*
X1299Y41904D02*
Y42703D01*
X900Y39085D02*
X1699D01*
X1299Y38685D02*
Y39484D01*
X900Y35866D02*
X1699D01*
X1299Y35467D02*
Y36266D01*
X900Y32648D02*
X1699D01*
X1299Y32248D02*
Y33047D01*
X21175Y50433D02*
X21974D01*
X21575Y50034D02*
Y50833D01*
X19246Y48740D02*
X20045D01*
X19646Y48341D02*
Y49140D01*
X21687Y48779D02*
X22486D01*
X22087Y48380D02*
Y49179D01*
X25664Y51417D02*
X26463D01*
X26063Y51018D02*
Y51817D01*
X38026Y52677D02*
X38825D01*
X38425Y52278D02*
Y53077D01*
X35506Y52362D02*
X36305D01*
X35906Y51963D02*
Y52762D01*
X25034Y32598D02*
X25833D01*
X25433Y32199D02*
Y32998D01*
X37947Y39331D02*
X38746D01*
X38346Y38931D02*
Y39730D01*
X39797Y37598D02*
X40596D01*
X40197Y37199D02*
Y37998D01*
X39404Y54488D02*
X40203D01*
X39803Y54089D02*
Y54888D01*
X19601Y64173D02*
X20400D01*
X20000Y63774D02*
Y64573D01*
X2356Y50827D02*
X3155D01*
X2756Y50427D02*
Y51226D01*
X5270Y50906D02*
X6069D01*
X5669Y50506D02*
Y51305D01*
X8452Y50852D02*
X9251D01*
X8852Y50453D02*
Y51252D01*
X11293Y50906D02*
X12092D01*
X11693Y50506D02*
Y51305D01*
X4640Y59055D02*
X5439D01*
X5039Y58656D02*
Y59455D01*
X16136Y56221D02*
X16935D01*
X16535Y55821D02*
Y56620D01*
X18380Y56496D02*
X19179D01*
X18779Y56097D02*
Y56896D01*
X14167Y55551D02*
X14966D01*
X14567Y55152D02*
Y55951D01*
X13813Y53347D02*
X14612D01*
X14213Y52947D02*
Y53746D01*
X13774Y51102D02*
X14573D01*
X14173Y50703D02*
Y51502D01*
X34994Y54606D02*
X35793D01*
X35394Y54207D02*
Y55006D01*
X39489Y62189D02*
X40288D01*
X39888Y61789D02*
Y62588D01*
X40427Y47677D02*
X41226D01*
X40827Y47278D02*
Y48077D01*
X40388Y13307D02*
X41187D01*
X40787Y12908D02*
Y13707D01*
X24915Y12480D02*
X25714D01*
X25315Y12081D02*
Y12880D01*
X18656Y27402D02*
X19455D01*
X19055Y27002D02*
Y27801D01*
X22553Y27598D02*
X23352D01*
X22953Y27199D02*
Y27998D01*
X14994Y28032D02*
X15793D01*
X15394Y27632D02*
Y28431D01*
X40860Y9173D02*
X41659D01*
X41260Y8774D02*
Y9573D01*
X41018Y1929D02*
X41817D01*
X41417Y1530D02*
Y2329D01*
X37711Y9606D02*
X38510D01*
X38110Y9207D02*
Y10006D01*
X34955Y9882D02*
X35754D01*
X35354Y9482D02*
Y10281D01*
X40152Y43976D02*
X40951D01*
X40551Y43577D02*
Y44376D01*
X40270Y40984D02*
X41069D01*
X40669Y40585D02*
Y41384D01*
X3104Y46496D02*
X3903D01*
X3504Y46097D02*
Y46896D01*
X5624Y46772D02*
X6423D01*
X6024Y46372D02*
Y47171D01*
X9797Y46614D02*
X10596D01*
X10197Y46215D02*
Y47014D01*
X7868Y46732D02*
X8667D01*
X8268Y46333D02*
Y47132D01*
X10624Y7008D02*
X11423D01*
X11024Y6608D02*
Y7407D01*
X41057Y5276D02*
X41856D01*
X41457Y4876D02*
Y5675D01*
X40427Y51299D02*
X41226D01*
X40827Y50900D02*
Y51699D01*
X37002Y54291D02*
X37801D01*
X37402Y53892D02*
Y54691D01*
X18419Y61890D02*
X19218D01*
X18819Y61490D02*
Y62289D01*
X16530Y64134D02*
X17329D01*
X16929Y63734D02*
Y64533D01*
X20742Y46496D02*
X21541D01*
X21142Y46097D02*
Y46896D01*
X21097Y43819D02*
X21896D01*
X21496Y43419D02*
Y44218D01*
X6490Y25669D02*
X7289D01*
X6890Y25270D02*
Y26069D01*
X4994Y26732D02*
X5793D01*
X5394Y26333D02*
Y27132D01*
X35978Y45158D02*
X36777D01*
X36378Y44758D02*
Y45557D01*
X17002Y20906D02*
X17801D01*
X17402Y20506D02*
Y21305D01*
X20663Y20945D02*
X21463D01*
X21063Y20545D02*
Y21344D01*
X14561Y20472D02*
X15360D01*
X14961Y20073D02*
Y20872D01*
X12711Y21969D02*
X13510D01*
X13110Y21569D02*
Y22368D01*
X13695Y40433D02*
X14494D01*
X14095Y40034D02*
Y40833D01*
X30860Y39252D02*
X31659D01*
X31260Y38853D02*
Y39652D01*
X32908Y39291D02*
X33707D01*
X33307Y38892D02*
Y39691D01*
X35506Y39488D02*
X36305D01*
X35906Y39089D02*
Y39888D01*
X32238Y45197D02*
X33037D01*
X32638Y44797D02*
Y45596D01*
X34876Y41260D02*
X35676D01*
X35276Y40860D02*
Y41660D01*
X8892Y35984D02*
X9691D01*
X9291Y35585D02*
Y36384D01*
X13656Y41969D02*
X14455D01*
X14055Y41569D02*
Y42368D01*
X26333Y22323D02*
X27132D01*
X26732Y21923D02*
Y22722D01*
X26569Y30591D02*
X27368D01*
X26969Y30191D02*
Y30990D01*
X26845Y25866D02*
X27644D01*
X27244Y25467D02*
Y26266D01*
X19049Y29921D02*
X19848D01*
X19449Y29522D02*
Y30321D01*
X24915Y28071D02*
X25714D01*
X25315Y27671D02*
Y28470D01*
X21884Y29921D02*
X22683D01*
X22284Y29522D02*
Y30321D01*
X24522Y30079D02*
X25321D01*
X24921Y29679D02*
Y30478D01*
X20663Y28307D02*
X21463D01*
X21063Y27908D02*
Y28707D01*
X16372Y30512D02*
X17171D01*
X16772Y30112D02*
Y30911D01*
X17002Y28622D02*
X17801D01*
X17402Y28223D02*
Y29022D01*
X32120Y52047D02*
X32919D01*
X32520Y51648D02*
Y52447D01*
X29955Y52126D02*
X30754D01*
X30354Y51727D02*
Y52526D01*
X28144Y51535D02*
X28943D01*
X28543Y51136D02*
Y51935D01*
M02*
