G04*
G04 #@! TF.GenerationSoftware,Altium Limited,Altium Designer,22.0.2 (36)*
G04*
G04 Layer_Color=16711935*
%FSLAX25Y25*%
%MOIN*%
G70*
G04*
G04 #@! TF.SameCoordinates,14A72887-5544-470D-8401-3C00119275A7*
G04*
G04*
G04 #@! TF.FilePolarity,Negative*
G04*
G01*
G75*
%ADD40R,0.01981X0.01981*%
%ADD41R,0.01981X0.01981*%
%ADD47O,0.03162X0.02926*%
%ADD65R,0.06800X0.06800*%
%ADD66C,0.06800*%
%ADD85R,0.03200X0.02900*%
%ADD86R,0.04000X0.04300*%
%ADD87R,0.02800X0.05300*%
%ADD88R,0.02800X0.05300*%
%ADD89C,0.04400*%
%ADD90R,0.02099X0.02769*%
G36*
X42615Y10500D02*
X40600D01*
Y12500D01*
X40615D01*
Y64200D01*
X2715D01*
Y12500D01*
X2815D01*
Y10500D01*
X715D01*
Y66200D01*
X42615D01*
Y10500D01*
D02*
G37*
G36*
X36315D02*
X28575D01*
Y12500D01*
X36315D01*
Y10500D01*
D02*
G37*
D40*
X26200Y47019D02*
D03*
Y49381D02*
D03*
X38400Y41117D02*
D03*
Y43479D02*
D03*
X36518Y41156D02*
D03*
Y43518D02*
D03*
X28740Y19291D02*
D03*
Y21654D02*
D03*
X28701Y23504D02*
D03*
Y25866D02*
D03*
X30945Y63661D02*
D03*
X33307D02*
D03*
X24200Y47019D02*
D03*
Y49381D02*
D03*
X29819Y41413D02*
D03*
X32181D02*
D03*
X34085Y41117D02*
D03*
Y43479D02*
D03*
X29819Y43498D02*
D03*
X32181D02*
D03*
X30984Y19095D02*
D03*
Y21457D02*
D03*
X28032Y37520D02*
D03*
X30394D02*
D03*
X33150Y37598D02*
D03*
X35512D02*
D03*
X19219Y42121D02*
D03*
X21581D02*
D03*
X30748Y25866D02*
D03*
Y23504D02*
D03*
X21181Y37205D02*
D03*
Y34843D02*
D03*
X39370Y14843D02*
D03*
Y17205D02*
D03*
D41*
X9488Y21102D02*
D03*
Y23464D02*
D03*
X29724Y28228D02*
D03*
X32087D02*
D03*
X32047Y30276D02*
D03*
X29685D02*
D03*
X16417Y39724D02*
D03*
Y37362D02*
D03*
D47*
X39016Y26575D02*
D03*
Y22795D02*
D03*
D65*
X6715Y5000D02*
D03*
D66*
X36715D02*
D03*
X26715D02*
D03*
X16715D02*
D03*
D85*
X8071Y11142D02*
D03*
X4471D02*
D03*
D86*
X3949Y16890D02*
D03*
X8649D02*
D03*
D87*
X15315Y14016D02*
D03*
X19055D02*
D03*
X22795D02*
D03*
X15315Y24016D02*
D03*
X19055D02*
D03*
X22795D02*
D03*
D88*
X38340Y58400D02*
D03*
Y48400D02*
D03*
X34600Y58400D02*
D03*
Y48400D02*
D03*
X30860Y58400D02*
D03*
Y48400D02*
D03*
D89*
X35197Y27008D02*
D03*
D90*
X22815Y10276D02*
D03*
X25925D02*
D03*
X2343Y25000D02*
D03*
X5453D02*
D03*
X5374Y22087D02*
D03*
X2264D02*
D03*
M02*
