G04*
G04 #@! TF.GenerationSoftware,Altium Limited,Altium Designer,22.0.2 (36)*
G04*
G04 Layer_Color=255*
%FSLAX25Y25*%
%MOIN*%
G70*
G04*
G04 #@! TF.SameCoordinates,14A72887-5544-470D-8401-3C00119275A7*
G04*
G04*
G04 #@! TF.FilePolarity,Positive*
G04*
G01*
G75*
%ADD15R,0.01181X0.01181*%
%ADD16R,0.01181X0.01181*%
%ADD22O,0.02362X0.02126*%
%ADD75R,0.06000X0.06000*%
%ADD76C,0.06000*%
%ADD79R,0.02400X0.02100*%
%ADD80R,0.03200X0.03500*%
%ADD81R,0.02000X0.04500*%
%ADD82R,0.02000X0.04500*%
%ADD83C,0.03600*%
%ADD84R,0.01299X0.01969*%
D15*
X26200Y47019D02*
D03*
Y49381D02*
D03*
X38400Y41117D02*
D03*
Y43479D02*
D03*
X36518Y41156D02*
D03*
Y43518D02*
D03*
X28740Y19291D02*
D03*
Y21654D02*
D03*
X28701Y23504D02*
D03*
Y25866D02*
D03*
X30945Y63661D02*
D03*
X33307D02*
D03*
X24200Y47019D02*
D03*
Y49381D02*
D03*
X29819Y41413D02*
D03*
X32181D02*
D03*
X34085Y41117D02*
D03*
Y43479D02*
D03*
X29819Y43498D02*
D03*
X32181D02*
D03*
X30984Y19095D02*
D03*
Y21457D02*
D03*
X28032Y37520D02*
D03*
X30394D02*
D03*
X33150Y37598D02*
D03*
X35512D02*
D03*
X19219Y42121D02*
D03*
X21581D02*
D03*
X30748Y25866D02*
D03*
Y23504D02*
D03*
X21181Y37205D02*
D03*
Y34843D02*
D03*
X39370Y14843D02*
D03*
Y17205D02*
D03*
D16*
X9488Y21102D02*
D03*
Y23464D02*
D03*
X29724Y28228D02*
D03*
X32087D02*
D03*
X32047Y30276D02*
D03*
X29685D02*
D03*
X16417Y39724D02*
D03*
Y37362D02*
D03*
D22*
X39016Y26575D02*
D03*
Y22795D02*
D03*
D75*
X6715Y5000D02*
D03*
D76*
X36715D02*
D03*
X26715D02*
D03*
X16715D02*
D03*
D79*
X8071Y11142D02*
D03*
X4471D02*
D03*
D80*
X3949Y16890D02*
D03*
X8649D02*
D03*
D81*
X15315Y14016D02*
D03*
X19055D02*
D03*
X22795D02*
D03*
X15315Y24016D02*
D03*
X19055D02*
D03*
X22795D02*
D03*
D82*
X38340Y58400D02*
D03*
Y48400D02*
D03*
X34600Y58400D02*
D03*
Y48400D02*
D03*
X30860Y58400D02*
D03*
Y48400D02*
D03*
D83*
X35197Y27008D02*
D03*
D84*
X22815Y10276D02*
D03*
X25925D02*
D03*
X2343Y25000D02*
D03*
X5453D02*
D03*
X5374Y22087D02*
D03*
X2264D02*
D03*
M02*
