G04*
G04 #@! TF.GenerationSoftware,Altium Limited,Altium Designer,22.0.2 (36)*
G04*
G04 Layer_Color=8421504*
%FSLAX25Y25*%
%MOIN*%
G70*
G04*
G04 #@! TF.SameCoordinates,14A72887-5544-470D-8401-3C00119275A7*
G04*
G04*
G04 #@! TF.FilePolarity,Positive*
G04*
G01*
G75*
%ADD15R,0.01181X0.01181*%
%ADD16R,0.01181X0.01181*%
%ADD17C,0.00100*%
G04:AMPARAMS|DCode=18|XSize=19.67mil|YSize=23.61mil|CornerRadius=2.95mil|HoleSize=0mil|Usage=FLASHONLY|Rotation=90.000|XOffset=0mil|YOffset=0mil|HoleType=Round|Shape=RoundedRectangle|*
%AMROUNDEDRECTD18*
21,1,0.01967,0.01771,0,0,90.0*
21,1,0.01377,0.02361,0,0,90.0*
1,1,0.00590,0.00885,0.00688*
1,1,0.00590,0.00885,-0.00688*
1,1,0.00590,-0.00885,-0.00688*
1,1,0.00590,-0.00885,0.00688*
%
%ADD18ROUNDEDRECTD18*%
G04:AMPARAMS|DCode=19|XSize=19.67mil|YSize=23.61mil|CornerRadius=2.95mil|HoleSize=0mil|Usage=FLASHONLY|Rotation=0.000|XOffset=0mil|YOffset=0mil|HoleType=Round|Shape=RoundedRectangle|*
%AMROUNDEDRECTD19*
21,1,0.01967,0.01771,0,0,0.0*
21,1,0.01377,0.02361,0,0,0.0*
1,1,0.00590,0.00688,-0.00885*
1,1,0.00590,-0.00688,-0.00885*
1,1,0.00590,-0.00688,0.00885*
1,1,0.00590,0.00688,0.00885*
%
%ADD19ROUNDEDRECTD19*%
%ADD20R,0.03500X0.03200*%
%ADD21O,0.02126X0.02362*%
%ADD22O,0.02362X0.02126*%
%ADD23R,0.07874X0.02362*%
%ADD24R,0.03937X0.03937*%
%ADD25R,0.03071X0.01378*%
%ADD26R,0.02362X0.01575*%
%ADD27R,0.02000X0.02000*%
%ADD28R,0.01969X0.01299*%
%ADD29O,0.03150X0.01102*%
%ADD30O,0.01102X0.03150*%
%ADD31R,0.11417X0.11417*%
%ADD32R,0.02760X0.02949*%
%ADD33R,0.23622X0.01575*%
%ADD34R,0.24803X0.01575*%
%ADD35R,0.14173X0.01575*%
%ADD36R,0.01575X0.38583*%
%ADD37R,0.42600X0.01575*%
%ADD38R,0.01575X0.17520*%
%ADD39R,0.27559X0.01575*%
D15*
X9931Y42019D02*
D03*
Y44381D02*
D03*
X8110Y42008D02*
D03*
Y44370D02*
D03*
X4961Y13347D02*
D03*
Y15709D02*
D03*
X38071Y25984D02*
D03*
X35709D02*
D03*
X7008Y13347D02*
D03*
Y15709D02*
D03*
X23401Y44119D02*
D03*
Y46481D02*
D03*
X3780Y33661D02*
D03*
X6142D02*
D03*
X20236Y62677D02*
D03*
X22598D02*
D03*
X11806Y42036D02*
D03*
Y44398D02*
D03*
X35984Y37874D02*
D03*
X38346D02*
D03*
X24646Y52166D02*
D03*
Y54528D02*
D03*
X20236Y59646D02*
D03*
X22598D02*
D03*
X31024Y54173D02*
D03*
X33386D02*
D03*
X36181Y62402D02*
D03*
X38543D02*
D03*
X19169Y41768D02*
D03*
X21531D02*
D03*
X16654Y52481D02*
D03*
Y54843D02*
D03*
X18652Y52481D02*
D03*
Y54843D02*
D03*
X20276Y57559D02*
D03*
X22638D02*
D03*
X20650Y52481D02*
D03*
Y54843D02*
D03*
X26693Y54173D02*
D03*
X29055D02*
D03*
X22648Y52481D02*
D03*
Y54843D02*
D03*
X26325Y42220D02*
D03*
Y44582D02*
D03*
D16*
X34488Y23819D02*
D03*
X36850D02*
D03*
X6142Y38346D02*
D03*
X3780D02*
D03*
Y36004D02*
D03*
X6142D02*
D03*
X16496Y13425D02*
D03*
X18858D02*
D03*
X3386Y22756D02*
D03*
Y20394D02*
D03*
X40118Y23701D02*
D03*
Y26063D02*
D03*
X23622Y13386D02*
D03*
X21260D02*
D03*
X30079Y44114D02*
D03*
Y46476D02*
D03*
D17*
X6693Y29921D02*
D03*
Y27559D02*
D03*
X16654Y46614D02*
D03*
X19015D02*
D03*
D18*
X3661Y27126D02*
D03*
Y30590D02*
D03*
D19*
X32520Y41221D02*
D03*
X29056D02*
D03*
D20*
X34921Y19791D02*
D03*
Y15091D02*
D03*
D21*
X15189Y44003D02*
D03*
X18969D02*
D03*
D22*
X6102Y20315D02*
D03*
Y24095D02*
D03*
D23*
X6515Y65004D02*
D03*
Y53382D02*
D03*
D24*
X12515Y59193D02*
D03*
D25*
X33143Y62751D02*
D03*
Y60192D02*
D03*
Y57633D02*
D03*
X26529Y62751D02*
D03*
Y60192D02*
D03*
Y57633D02*
D03*
D26*
X5787Y44410D02*
D03*
Y41260D02*
D03*
D27*
X16929Y62346D02*
D03*
Y59150D02*
D03*
D28*
X39331Y17480D02*
D03*
Y14370D02*
D03*
D29*
X29976Y34107D02*
D03*
Y32138D02*
D03*
Y30170D02*
D03*
Y28201D02*
D03*
Y26233D02*
D03*
Y24264D02*
D03*
Y22296D02*
D03*
Y20327D02*
D03*
X10290Y34107D02*
D03*
Y32138D02*
D03*
Y30170D02*
D03*
Y28201D02*
D03*
Y26233D02*
D03*
Y24264D02*
D03*
Y22296D02*
D03*
Y20327D02*
D03*
D30*
X27023Y37060D02*
D03*
Y17374D02*
D03*
X25054Y37060D02*
D03*
Y17374D02*
D03*
X23086Y37060D02*
D03*
Y17374D02*
D03*
X21117Y37060D02*
D03*
Y17374D02*
D03*
X19149Y37060D02*
D03*
Y17374D02*
D03*
X17180Y37060D02*
D03*
Y17374D02*
D03*
X15212Y37060D02*
D03*
Y17374D02*
D03*
X13243Y37060D02*
D03*
Y17374D02*
D03*
D31*
X20133Y27217D02*
D03*
D32*
X39055Y29567D02*
D03*
Y34685D02*
D03*
X35511Y29567D02*
D03*
Y34685D02*
D03*
D33*
X29882Y50394D02*
D03*
D34*
X30472Y48779D02*
D03*
D35*
X7598D02*
D03*
D36*
X1063Y30276D02*
D03*
X42087Y29961D02*
D03*
D37*
X21575Y11457D02*
D03*
D38*
X42087Y57874D02*
D03*
D39*
X28032Y65847D02*
D03*
M02*
