M48
;Layer_Color=9474304
;FILE_FORMAT=2:5
INCH,LZ
;TYPE=PLATED
T1F00S00C0.00799
T2F00S00C0.00800
T3F00S00C0.04000
%
T01
X00024Y00024
X00024Y00056
X0002342Y0008742
X0001339Y0011417
X0001299Y0022992
X0001299Y0029941
X0001299Y0032648
X0001299Y0035866
X0001299Y0039085
X0001299Y0042303
X0001299Y0045522
X0003504Y0046496
X0006024Y0046772
X0008268Y0046732
X0010197Y0046614
X0010069Y004874
X0007106Y004874
X0004144Y004874
X0001299Y004874
X0002756Y0050827
X0005669Y0050906
X0008852Y0050852
X0011693Y0050906
X0014173Y0051102
X0014213Y0053347
X0014567Y0055551
X0016535Y0056221
X0018779Y0056496
X0018819Y006189
X002Y0064173
X0021486Y006563
X001844Y006563
X0016929Y0064134
X0015394Y006563
X0013858Y0063701
X00116Y00632
X0009Y0063
X00062Y00628
X0004Y00628
X00016Y006215
X00016Y0065
X00016Y00593
X00016Y005645
X00016Y00536
X00038Y00554
X00062Y00554
X00086Y00554
X00084Y00578
X00084Y00606
X0005039Y0059055
X00114Y0055
X0013032Y004874
X0019646Y004874
X0022087Y0048779
X0021575Y0050433
X0021142Y0046496
X0021496Y0043819
X0023401Y0042201
X0021142Y0040079
X0016292Y0041621
X0014055Y0041969
X0014095Y0040433
X00116Y00408
X0009449Y0040512
X0009291Y0035984
X0014291Y0033898
X0016732Y0033779
X0019094Y0033898
X0018268Y0032087
X0015354Y0032165
X0014606Y0030236
X0016772Y0030512
X0017402Y0028622
X0015394Y0028032
X0012992Y0027165
X0013115Y0025061
X001311Y0021969
X0014961Y0020472
X0017402Y0020906
X0021063Y0020945
X0025157Y0021417
X0026732Y0022323
X0027244Y0025866
X00276Y0028201
X0025315Y0028071
X0024921Y0030079
X0026969Y0030591
X00272Y0033
X0025433Y0032598
X0023622Y0031969
X00232Y00336
X0021142Y0033228
X0020945Y003122
X0022284Y0029921
X0019449Y0029921
X0019055Y0027402
X0021063Y0028307
X0022953Y0027598
X0032559Y0024134
X0029724Y0017284
X0028346Y0011654
X003111Y0011654
X0033874Y0011654
X0036638Y0011654
X0039402Y0011654
X0042008Y0011654
X0040787Y0013307
X0042008Y0015118
X0042008Y0018583
X0042008Y0022047
X0042008Y0025512
X0042008Y0028976
X0042008Y0032441
X0042008Y0035906
X0042008Y003937
X0040669Y0040984
X0040551Y0043976
X0042008Y0042835
X0042008Y0046299
X0040827Y0047677
X0042008Y0049764
X0040827Y0051299
X0042008Y0053228
X0042008Y0056693
X0042008Y0060157
X0042008Y0063622
X0039888Y0062189
X0039764Y006563
X0036718Y006563
X0033671Y006563
X0030625Y006563
X0027579Y006563
X0024532Y006563
X0024213Y0062598
X0023907Y0057441
X0026063Y0051417
X0028543Y0051535
X0030354Y0052126
X003252Y0052047
X0035906Y0052362
X0035394Y0054606
X0037402Y0054291
X0039803Y0054488
X0038425Y0052677
X0036378Y0045158
X0032638Y0045197
X0028182Y0044582
X003126Y0039252
X0033307Y0039291
X0035906Y0039488
X0038346Y0039331
X0040197Y0037598
X004126Y0009173
X003811Y0009606
X0035354Y0009882
X00314Y00068
X00316Y0003
X00222Y00026
X0011102Y0002283
X0011024Y0004606
X0011024Y0007008
X0025315Y001248
X0041457Y0005276
X0041417Y0001929
X000689Y0025669
X0005394Y0026732
X0006339Y0031339
T02
X0002992Y0013344
X0008937Y0013347
X0007795Y0019764
X0012559Y0020157
X0019134Y0019646
X002311Y0019724
X003252Y0026299
X0033307Y0031378
X003185Y003622
X0035276Y004126
X0028071Y0046535
X0028465Y0056732
X0003661Y0043819
X0008059Y0032138
X0039134Y0020787
X0039252Y0019213
T03
X0006715Y0005
X0016715Y0005
X0026715Y0005
X0036715Y0005
M30
