G04*
G04 #@! TF.GenerationSoftware,Altium Limited,Altium Designer,22.0.2 (36)*
G04*
G04 Layer_Color=0*
%FSLAX25Y25*%
%MOIN*%
G70*
G04*
G04 #@! TF.SameCoordinates,14A72887-5544-470D-8401-3C00119275A7*
G04*
G04*
G04 #@! TF.FilePolarity,Positive*
G04*
G01*
G75*
%ADD14C,0.00079*%
%ADD94C,0.00100*%
%ADD98C,0.00250*%
%ADD102C,0.00350*%
%ADD103C,0.00260*%
%ADD104C,0.00118*%
%ADD105C,0.00236*%
D14*
X25563Y51381D02*
X25525Y51306D01*
X25413Y51194D01*
X26200D01*
X25600Y48981D02*
X25563D01*
X25488Y48944D01*
X25450Y48906D01*
X25413Y48832D01*
Y48682D01*
X25450Y48607D01*
X25488Y48569D01*
X25563Y48532D01*
X25638D01*
X25713Y48569D01*
X25825Y48644D01*
X26200Y49019D01*
Y48494D01*
X37763Y45479D02*
X37725Y45404D01*
X37613Y45291D01*
X38400D01*
X37800Y43079D02*
X37763D01*
X37688Y43042D01*
X37650Y43004D01*
X37613Y42929D01*
Y42779D01*
X37650Y42704D01*
X37688Y42667D01*
X37763Y42629D01*
X37838D01*
X37913Y42667D01*
X38025Y42742D01*
X38400Y43117D01*
Y42592D01*
X9331Y42419D02*
X9293D01*
X9218Y42456D01*
X9181Y42494D01*
X9144Y42568D01*
Y42718D01*
X9181Y42793D01*
X9218Y42831D01*
X9293Y42868D01*
X9368D01*
X9443Y42831D01*
X9556Y42756D01*
X9931Y42381D01*
Y42906D01*
X9293Y40019D02*
X9256Y40094D01*
X9144Y40206D01*
X9931D01*
X34888Y24419D02*
Y24456D01*
X34925Y24531D01*
X34963Y24569D01*
X35038Y24606D01*
X35188D01*
X35263Y24569D01*
X35300Y24531D01*
X35338Y24456D01*
Y24381D01*
X35300Y24306D01*
X35225Y24194D01*
X34850Y23819D01*
X35375D01*
X32488Y24456D02*
X32563Y24494D01*
X32676Y24606D01*
Y23819D01*
X37118Y41556D02*
X37155D01*
X37230Y41593D01*
X37268Y41631D01*
X37305Y41706D01*
Y41855D01*
X37268Y41930D01*
X37230Y41968D01*
X37155Y42005D01*
X37080D01*
X37005Y41968D01*
X36893Y41893D01*
X36518Y41518D01*
Y42043D01*
X37155Y39156D02*
X37193Y39231D01*
X37305Y39344D01*
X36518D01*
X28103Y23653D02*
X28065Y23579D01*
X27953Y23466D01*
X28740D01*
X28140Y21254D02*
X28103D01*
X28028Y21217D01*
X27990Y21179D01*
X27953Y21104D01*
Y20954D01*
X27990Y20879D01*
X28028Y20842D01*
X28103Y20804D01*
X28178D01*
X28253Y20842D01*
X28365Y20917D01*
X28740Y21292D01*
Y20767D01*
X28101Y25466D02*
X28063D01*
X27988Y25429D01*
X27951Y25392D01*
X27914Y25317D01*
Y25167D01*
X27951Y25092D01*
X27988Y25054D01*
X28063Y25017D01*
X28139D01*
X28214Y25054D01*
X28326Y25129D01*
X28701Y25504D01*
Y24979D01*
X28063Y27866D02*
X28026Y27791D01*
X27914Y27678D01*
X28701D01*
X28945Y64299D02*
X28870Y64336D01*
X28758Y64449D01*
Y63661D01*
X31269Y64261D02*
Y64299D01*
X31232Y64374D01*
X31194Y64411D01*
X31119Y64449D01*
X30970D01*
X30895Y64411D01*
X30857Y64374D01*
X30820Y64299D01*
Y64224D01*
X30857Y64149D01*
X30932Y64036D01*
X31307Y63661D01*
X30782D01*
X24800Y47418D02*
X24837D01*
X24912Y47456D01*
X24950Y47493D01*
X24987Y47568D01*
Y47718D01*
X24950Y47793D01*
X24912Y47831D01*
X24837Y47868D01*
X24762D01*
X24687Y47831D01*
X24575Y47756D01*
X24200Y47381D01*
Y47906D01*
X24837Y45019D02*
X24875Y45094D01*
X24987Y45206D01*
X24200D01*
X31782Y42012D02*
Y42050D01*
X31744Y42125D01*
X31707Y42162D01*
X31632Y42200D01*
X31482D01*
X31407Y42162D01*
X31369Y42125D01*
X31332Y42050D01*
Y41975D01*
X31369Y41900D01*
X31444Y41787D01*
X31819Y41413D01*
X31294D01*
X34181Y42050D02*
X34106Y42087D01*
X33994Y42200D01*
Y41413D01*
X33448Y45479D02*
X33410Y45404D01*
X33298Y45291D01*
X34085D01*
X33485Y43079D02*
X33448D01*
X33373Y43042D01*
X33335Y43004D01*
X33298Y42929D01*
Y42779D01*
X33335Y42704D01*
X33373Y42667D01*
X33448Y42629D01*
X33523D01*
X33598Y42667D01*
X33710Y42742D01*
X34085Y43117D01*
Y42592D01*
X30143Y44097D02*
Y44135D01*
X30106Y44210D01*
X30068Y44247D01*
X29994Y44285D01*
X29844D01*
X29769Y44247D01*
X29731Y44210D01*
X29694Y44135D01*
Y44060D01*
X29731Y43985D01*
X29806Y43872D01*
X30181Y43498D01*
X29656D01*
X27819Y44135D02*
X27744Y44172D01*
X27632Y44285D01*
Y43498D01*
X8888Y23065D02*
X8851D01*
X8776Y23027D01*
X8738Y22990D01*
X8701Y22915D01*
Y22765D01*
X8738Y22690D01*
X8776Y22652D01*
X8851Y22615D01*
X8926D01*
X9001Y22652D01*
X9113Y22727D01*
X9488Y23102D01*
Y22578D01*
X8851Y25464D02*
X8813Y25389D01*
X8701Y25277D01*
X9488D01*
X8748Y46370D02*
X8785Y46295D01*
X8897Y46183D01*
X8110D01*
X8710Y43971D02*
X8748D01*
X8822Y43933D01*
X8860Y43896D01*
X8897Y43821D01*
Y43671D01*
X8860Y43596D01*
X8822Y43558D01*
X8748Y43521D01*
X8672D01*
X8598Y43558D01*
X8485Y43633D01*
X8110Y44008D01*
Y43483D01*
X5560Y15309D02*
X5598D01*
X5673Y15272D01*
X5710Y15234D01*
X5748Y15159D01*
Y15009D01*
X5710Y14934D01*
X5673Y14897D01*
X5598Y14859D01*
X5523D01*
X5448Y14897D01*
X5336Y14972D01*
X4961Y15347D01*
Y14822D01*
X5598Y17709D02*
X5635Y17634D01*
X5748Y17521D01*
X4961D01*
X30124Y27629D02*
Y27591D01*
X30161Y27516D01*
X30199Y27479D01*
X30274Y27441D01*
X30424D01*
X30499Y27479D01*
X30536Y27516D01*
X30574Y27591D01*
Y27666D01*
X30536Y27741D01*
X30461Y27854D01*
X30086Y28228D01*
X30611D01*
X27724Y27591D02*
X27799Y27554D01*
X27912Y27441D01*
Y28228D01*
X36108Y26584D02*
Y26621D01*
X36146Y26697D01*
X36183Y26734D01*
X36258Y26772D01*
X36408D01*
X36483Y26734D01*
X36521Y26697D01*
X36558Y26621D01*
Y26547D01*
X36521Y26472D01*
X36446Y26359D01*
X36071Y25984D01*
X36596D01*
X33709Y26621D02*
X33784Y26659D01*
X33896Y26772D01*
Y25984D01*
X7608Y15309D02*
X7645D01*
X7720Y15272D01*
X7758Y15234D01*
X7795Y15159D01*
Y15009D01*
X7758Y14934D01*
X7720Y14897D01*
X7645Y14859D01*
X7570D01*
X7495Y14897D01*
X7383Y14972D01*
X7008Y15347D01*
Y14822D01*
X7645Y17709D02*
X7683Y17634D01*
X7795Y17521D01*
X7008D01*
X30085Y29676D02*
Y29638D01*
X30122Y29563D01*
X30160Y29526D01*
X30235Y29488D01*
X30384D01*
X30459Y29526D01*
X30497Y29563D01*
X30534Y29638D01*
Y29713D01*
X30497Y29788D01*
X30422Y29901D01*
X30047Y30276D01*
X30572D01*
X27685Y29638D02*
X27760Y29601D01*
X27873Y29488D01*
Y30276D01*
X31584Y19494D02*
X31622D01*
X31697Y19532D01*
X31734Y19569D01*
X31771Y19644D01*
Y19794D01*
X31734Y19869D01*
X31697Y19906D01*
X31622Y19944D01*
X31547D01*
X31472Y19906D01*
X31359Y19832D01*
X30984Y19457D01*
Y19982D01*
X31622Y17095D02*
X31659Y17170D01*
X31771Y17282D01*
X30984D01*
X26032Y38157D02*
X25957Y38195D01*
X25844Y38307D01*
Y37520D01*
X28356Y38120D02*
Y38157D01*
X28319Y38232D01*
X28281Y38269D01*
X28206Y38307D01*
X28056D01*
X27981Y38269D01*
X27944Y38232D01*
X27906Y38157D01*
Y38082D01*
X27944Y38007D01*
X28019Y37895D01*
X28394Y37520D01*
X27869D01*
X1780Y38984D02*
X1855Y39021D01*
X1967Y39134D01*
Y38346D01*
X4179Y38946D02*
Y38984D01*
X4217Y39059D01*
X4254Y39096D01*
X4329Y39134D01*
X4479D01*
X4554Y39096D01*
X4592Y39059D01*
X4629Y38984D01*
Y38909D01*
X4592Y38834D01*
X4516Y38721D01*
X4142Y38346D01*
X4666D01*
X24038Y48481D02*
X24076Y48406D01*
X24188Y48294D01*
X23401D01*
X24001Y46082D02*
X24038D01*
X24113Y46044D01*
X24151Y46007D01*
X24188Y45932D01*
Y45782D01*
X24151Y45707D01*
X24113Y45669D01*
X24038Y45632D01*
X23963D01*
X23888Y45669D01*
X23776Y45744D01*
X23401Y46119D01*
Y45594D01*
X33549Y36999D02*
Y36961D01*
X33587Y36886D01*
X33624Y36849D01*
X33699Y36811D01*
X33849D01*
X33924Y36849D01*
X33961Y36886D01*
X33999Y36961D01*
Y37036D01*
X33961Y37111D01*
X33887Y37224D01*
X33512Y37598D01*
X34036D01*
X31149Y36961D02*
X31224Y36924D01*
X31336Y36811D01*
Y37598D01*
X23581Y42759D02*
X23506Y42796D01*
X23394Y42908D01*
Y42121D01*
X21181Y42721D02*
Y42759D01*
X21144Y42834D01*
X21106Y42871D01*
X21032Y42908D01*
X20882D01*
X20807Y42871D01*
X20769Y42834D01*
X20732Y42759D01*
Y42684D01*
X20769Y42609D01*
X20844Y42496D01*
X21219Y42121D01*
X20694D01*
X8142Y35367D02*
X8067Y35329D01*
X7954Y35217D01*
Y36004D01*
X5742Y35404D02*
Y35367D01*
X5705Y35292D01*
X5667Y35254D01*
X5592Y35217D01*
X5442D01*
X5367Y35254D01*
X5330Y35292D01*
X5292Y35367D01*
Y35442D01*
X5330Y35517D01*
X5405Y35629D01*
X5780Y36004D01*
X5255D01*
X5742Y33062D02*
Y33024D01*
X5705Y32949D01*
X5667Y32912D01*
X5592Y32874D01*
X5442D01*
X5367Y32912D01*
X5330Y32949D01*
X5292Y33024D01*
Y33099D01*
X5330Y33174D01*
X5405Y33286D01*
X5780Y33661D01*
X5255D01*
X8142Y33024D02*
X8067Y32987D01*
X7954Y32874D01*
Y33661D01*
X24599Y62040D02*
X24524Y62002D01*
X24412Y61890D01*
Y62677D01*
X22199Y62077D02*
Y62040D01*
X22162Y61965D01*
X22124Y61927D01*
X22049Y61890D01*
X21899D01*
X21824Y61927D01*
X21787Y61965D01*
X21749Y62040D01*
Y62115D01*
X21787Y62190D01*
X21862Y62302D01*
X22236Y62677D01*
X21712D01*
X18459Y12825D02*
Y12788D01*
X18421Y12713D01*
X18384Y12675D01*
X18309Y12638D01*
X18159D01*
X18084Y12675D01*
X18046Y12713D01*
X18009Y12788D01*
Y12863D01*
X18046Y12938D01*
X18121Y13050D01*
X18496Y13425D01*
X17971D01*
X20858Y12788D02*
X20783Y12750D01*
X20671Y12638D01*
Y13425D01*
X15780Y41724D02*
X15743Y41649D01*
X15630Y41537D01*
X16417D01*
X15818Y39325D02*
X15780D01*
X15705Y39287D01*
X15668Y39250D01*
X15630Y39175D01*
Y39025D01*
X15668Y38950D01*
X15705Y38912D01*
X15780Y38875D01*
X15855D01*
X15930Y38912D01*
X16042Y38987D01*
X16417Y39362D01*
Y38838D01*
X11206Y42436D02*
X11169D01*
X11094Y42473D01*
X11056Y42511D01*
X11019Y42585D01*
Y42735D01*
X11056Y42810D01*
X11094Y42848D01*
X11169Y42885D01*
X11244D01*
X11319Y42848D01*
X11431Y42773D01*
X11806Y42398D01*
Y42923D01*
X11169Y40036D02*
X11131Y40111D01*
X11019Y40223D01*
X11806D01*
X2786Y20793D02*
X2748D01*
X2674Y20831D01*
X2636Y20868D01*
X2599Y20943D01*
Y21093D01*
X2636Y21168D01*
X2674Y21206D01*
X2748Y21243D01*
X2823D01*
X2898Y21206D01*
X3011Y21131D01*
X3386Y20756D01*
Y21281D01*
X2748Y18394D02*
X2711Y18469D01*
X2599Y18581D01*
X3386D01*
X40755Y28063D02*
X40793Y27988D01*
X40905Y27876D01*
X40118D01*
X40718Y25663D02*
X40755D01*
X40830Y25626D01*
X40868Y25588D01*
X40905Y25513D01*
Y25363D01*
X40868Y25289D01*
X40830Y25251D01*
X40755Y25214D01*
X40680D01*
X40605Y25251D01*
X40493Y25326D01*
X40118Y25701D01*
Y25176D01*
X33984Y37237D02*
X33909Y37199D01*
X33797Y37087D01*
Y37874D01*
X36309Y37274D02*
Y37237D01*
X36271Y37162D01*
X36234Y37124D01*
X36159Y37087D01*
X36009D01*
X35934Y37124D01*
X35897Y37162D01*
X35859Y37237D01*
Y37312D01*
X35897Y37387D01*
X35972Y37499D01*
X36346Y37874D01*
X35822D01*
X25283Y56528D02*
X25320Y56453D01*
X25433Y56340D01*
X24646D01*
X25245Y54128D02*
X25283D01*
X25358Y54091D01*
X25395Y54053D01*
X25433Y53978D01*
Y53828D01*
X25395Y53753D01*
X25358Y53716D01*
X25283Y53678D01*
X25208D01*
X25133Y53716D01*
X25021Y53791D01*
X24646Y54166D01*
Y53641D01*
X6056Y25559D02*
X6018Y25634D01*
X5906Y25747D01*
X6693D01*
X6093Y27959D02*
X6056D01*
X5981Y27996D01*
X5943Y28034D01*
X5906Y28109D01*
Y28258D01*
X5943Y28333D01*
X5981Y28371D01*
X6056Y28408D01*
X6131D01*
X6206Y28371D01*
X6318Y28296D01*
X6693Y27921D01*
Y28446D01*
X24598Y59008D02*
X24523Y58971D01*
X24411Y58858D01*
Y59646D01*
X22199Y59046D02*
Y59008D01*
X22161Y58933D01*
X22124Y58896D01*
X22049Y58858D01*
X21899D01*
X21824Y58896D01*
X21787Y58933D01*
X21749Y59008D01*
Y59083D01*
X21787Y59158D01*
X21861Y59271D01*
X22236Y59646D01*
X21711D01*
X31423Y54773D02*
Y54811D01*
X31461Y54886D01*
X31498Y54923D01*
X31573Y54961D01*
X31723D01*
X31798Y54923D01*
X31836Y54886D01*
X31873Y54811D01*
Y54735D01*
X31836Y54661D01*
X31761Y54548D01*
X31386Y54173D01*
X31910D01*
X29024Y54811D02*
X29099Y54848D01*
X29211Y54961D01*
Y54173D01*
X40543Y61764D02*
X40468Y61727D01*
X40356Y61614D01*
Y62402D01*
X38144Y61802D02*
Y61764D01*
X38106Y61689D01*
X38069Y61652D01*
X37994Y61614D01*
X37844D01*
X37769Y61652D01*
X37731Y61689D01*
X37694Y61764D01*
Y61839D01*
X37731Y61914D01*
X37806Y62027D01*
X38181Y62402D01*
X37656D01*
X17169Y42405D02*
X17244Y42442D01*
X17356Y42555D01*
Y41768D01*
X19568Y42368D02*
Y42405D01*
X19606Y42480D01*
X19644Y42517D01*
X19718Y42555D01*
X19868D01*
X19943Y42517D01*
X19981Y42480D01*
X20018Y42405D01*
Y42330D01*
X19981Y42255D01*
X19906Y42143D01*
X19531Y41768D01*
X20056D01*
X16054Y52881D02*
X16016D01*
X15941Y52918D01*
X15904Y52956D01*
X15866Y53031D01*
Y53181D01*
X15904Y53256D01*
X15941Y53293D01*
X16016Y53331D01*
X16091D01*
X16166Y53293D01*
X16279Y53218D01*
X16654Y52843D01*
Y53368D01*
X16016Y50481D02*
X15979Y50555D01*
X15866Y50668D01*
X16654D01*
X18052Y52880D02*
X18014D01*
X17939Y52917D01*
X17902Y52955D01*
X17864Y53030D01*
Y53180D01*
X17902Y53255D01*
X17939Y53292D01*
X18014Y53330D01*
X18089D01*
X18164Y53292D01*
X18277Y53217D01*
X18652Y52842D01*
Y53367D01*
X18014Y50480D02*
X17977Y50555D01*
X17864Y50667D01*
X18652D01*
X24638Y56922D02*
X24563Y56884D01*
X24450Y56772D01*
Y57559D01*
X22238Y56959D02*
Y56922D01*
X22201Y56847D01*
X22163Y56809D01*
X22088Y56772D01*
X21938D01*
X21863Y56809D01*
X21826Y56847D01*
X21788Y56922D01*
Y56997D01*
X21826Y57072D01*
X21901Y57184D01*
X22276Y57559D01*
X21751D01*
X20050Y52880D02*
X20012D01*
X19937Y52917D01*
X19900Y52955D01*
X19862Y53030D01*
Y53180D01*
X19900Y53255D01*
X19937Y53292D01*
X20012Y53330D01*
X20087D01*
X20162Y53292D01*
X20275Y53217D01*
X20650Y52842D01*
Y53367D01*
X20012Y50480D02*
X19975Y50555D01*
X19862Y50667D01*
X20650D01*
X30111Y27866D02*
X30073Y27791D01*
X29961Y27678D01*
X30748D01*
X30148Y25466D02*
X30111D01*
X30036Y25429D01*
X29998Y25392D01*
X29961Y25317D01*
Y25167D01*
X29998Y25092D01*
X30036Y25054D01*
X30111Y25017D01*
X30186D01*
X30261Y25054D01*
X30373Y25129D01*
X30748Y25504D01*
Y24979D01*
X19259Y14023D02*
X19334Y14061D01*
X19446Y14173D01*
Y13386D01*
X21659Y13986D02*
Y14023D01*
X21697Y14098D01*
X21734Y14136D01*
X21810Y14173D01*
X21959D01*
X22034Y14136D01*
X22072Y14098D01*
X22109Y14023D01*
Y13948D01*
X22072Y13873D01*
X21997Y13761D01*
X21622Y13386D01*
X22147D01*
X30678Y46077D02*
X30716D01*
X30791Y46039D01*
X30828Y46002D01*
X30866Y45927D01*
Y45777D01*
X30828Y45702D01*
X30791Y45664D01*
X30716Y45627D01*
X30641D01*
X30566Y45664D01*
X30454Y45739D01*
X30079Y46114D01*
Y45590D01*
X30716Y48476D02*
X30753Y48401D01*
X30866Y48289D01*
X30079D01*
X20544Y39206D02*
X20506Y39130D01*
X20394Y39018D01*
X21181D01*
X20581Y36805D02*
X20544D01*
X20469Y36768D01*
X20431Y36730D01*
X20394Y36655D01*
Y36505D01*
X20431Y36430D01*
X20469Y36393D01*
X20544Y36355D01*
X20619D01*
X20694Y36393D01*
X20806Y36468D01*
X21181Y36843D01*
Y36318D01*
X24693Y54811D02*
X24768Y54848D01*
X24881Y54961D01*
Y54173D01*
X27092Y54773D02*
Y54811D01*
X27130Y54886D01*
X27167Y54923D01*
X27242Y54961D01*
X27392D01*
X27467Y54923D01*
X27505Y54886D01*
X27542Y54811D01*
Y54735D01*
X27505Y54661D01*
X27430Y54548D01*
X27055Y54173D01*
X27580D01*
X22048Y52880D02*
X22010D01*
X21935Y52917D01*
X21898Y52955D01*
X21860Y53030D01*
Y53180D01*
X21898Y53255D01*
X21935Y53292D01*
X22010Y53330D01*
X22085D01*
X22160Y53292D01*
X22273Y53217D01*
X22648Y52842D01*
Y53367D01*
X22010Y50480D02*
X21973Y50555D01*
X21860Y50667D01*
X22648D01*
X25726Y42619D02*
X25688D01*
X25613Y42657D01*
X25576Y42695D01*
X25538Y42769D01*
Y42919D01*
X25576Y42994D01*
X25613Y43032D01*
X25688Y43069D01*
X25763D01*
X25838Y43032D01*
X25951Y42957D01*
X26325Y42582D01*
Y43107D01*
X25688Y40220D02*
X25651Y40295D01*
X25538Y40407D01*
X26325D01*
X21016Y45978D02*
X20941Y45940D01*
X20829Y45828D01*
Y46615D01*
X18616Y46014D02*
Y45977D01*
X18579Y45902D01*
X18541Y45864D01*
X18466Y45827D01*
X18316D01*
X18241Y45864D01*
X18204Y45902D01*
X18167Y45977D01*
Y46052D01*
X18204Y46127D01*
X18279Y46239D01*
X18654Y46614D01*
X18129D01*
X40007Y12842D02*
X40045Y12917D01*
X40157Y13029D01*
X39370D01*
X39970Y15242D02*
X40007D01*
X40082Y15280D01*
X40120Y15317D01*
X40157Y15392D01*
Y15542D01*
X40120Y15617D01*
X40082Y15654D01*
X40007Y15692D01*
X39932D01*
X39857Y15654D01*
X39745Y15579D01*
X39370Y15205D01*
Y15729D01*
X34321Y19828D02*
X34284D01*
X34209Y19866D01*
X34172Y19903D01*
X34134Y19978D01*
Y20128D01*
X34172Y20203D01*
X34209Y20241D01*
X34284Y20278D01*
X34359D01*
X34434Y20241D01*
X34546Y20166D01*
X34921Y19791D01*
Y20316D01*
X34284Y15091D02*
X34247Y15166D01*
X34134Y15278D01*
X34921D01*
X3912Y17490D02*
Y17527D01*
X3874Y17602D01*
X3837Y17639D01*
X3762Y17677D01*
X3612D01*
X3537Y17639D01*
X3499Y17602D01*
X3462Y17527D01*
Y17452D01*
X3499Y17377D01*
X3574Y17265D01*
X3949Y16890D01*
X3424D01*
X8649Y17527D02*
X8574Y17564D01*
X8462Y17677D01*
Y16890D01*
X7478Y64404D02*
Y64367D01*
X7440Y64292D01*
X7402Y64254D01*
X7328Y64217D01*
X7178D01*
X7103Y64254D01*
X7065Y64292D01*
X7028Y64367D01*
Y64442D01*
X7065Y64517D01*
X7140Y64629D01*
X7515Y65004D01*
X6990D01*
X7440Y52599D02*
X7028D01*
X7253Y52899D01*
X7140D01*
X7065Y52936D01*
X7028Y52974D01*
X6990Y53086D01*
Y53161D01*
X7028Y53273D01*
X7103Y53348D01*
X7215Y53386D01*
X7328D01*
X7440Y53348D01*
X7478Y53311D01*
X7515Y53236D01*
X13515Y58556D02*
X13440Y58518D01*
X13328Y58406D01*
Y59193D01*
X5715Y5637D02*
X5790Y5675D01*
X5902Y5787D01*
Y5000D01*
X25790Y5787D02*
X26202D01*
X25977Y5487D01*
X26090D01*
X26165Y5450D01*
X26202Y5412D01*
X26240Y5300D01*
Y5225D01*
X26202Y5113D01*
X26127Y5037D01*
X26015Y5000D01*
X25902D01*
X25790Y5037D01*
X25752Y5075D01*
X25715Y5150D01*
X36090Y5787D02*
X35715Y5262D01*
X36277D01*
X36090Y5787D02*
Y5000D01*
X15753Y5600D02*
Y5637D01*
X15790Y5712D01*
X15827Y5750D01*
X15902Y5787D01*
X16052D01*
X16127Y5750D01*
X16165Y5712D01*
X16202Y5637D01*
Y5562D01*
X16165Y5487D01*
X16090Y5375D01*
X15715Y5000D01*
X16240D01*
X22173Y9638D02*
X22248Y9601D01*
X22360Y9488D01*
Y10276D01*
X25320Y9676D02*
Y9638D01*
X25358Y9563D01*
X25395Y9526D01*
X25470Y9488D01*
X25620D01*
X25695Y9526D01*
X25732Y9563D01*
X25770Y9638D01*
Y9713D01*
X25732Y9788D01*
X25657Y9901D01*
X25283Y10276D01*
X25807D01*
X6095Y25637D02*
X6020Y25675D01*
X5908Y25787D01*
Y25000D01*
X2948Y25600D02*
Y25637D01*
X2910Y25712D01*
X2873Y25750D01*
X2798Y25787D01*
X2648D01*
X2573Y25750D01*
X2535Y25712D01*
X2498Y25637D01*
Y25562D01*
X2535Y25487D01*
X2610Y25375D01*
X2985Y25000D01*
X2460D01*
X6016Y22724D02*
X5941Y22761D01*
X5829Y22874D01*
Y22087D01*
X2869Y22686D02*
Y22724D01*
X2831Y22799D01*
X2794Y22836D01*
X2719Y22874D01*
X2569D01*
X2494Y22836D01*
X2456Y22799D01*
X2419Y22724D01*
Y22649D01*
X2456Y22574D01*
X2531Y22461D01*
X2906Y22087D01*
X2382D01*
X39930Y14975D02*
X39968D01*
X40043Y14938D01*
X40080Y14900D01*
X40118Y14825D01*
Y14675D01*
X40080Y14600D01*
X40043Y14563D01*
X39968Y14525D01*
X39893D01*
X39818Y14563D01*
X39706Y14638D01*
X39331Y15012D01*
Y14488D01*
X39968Y18124D02*
X40005Y18048D01*
X40118Y17936D01*
X39331D01*
D94*
X35597Y27817D02*
X35502Y27865D01*
X35359Y28008D01*
Y27008D01*
D98*
X3883Y40379D02*
X3764D01*
X3526Y40498D01*
X3407Y40617D01*
X3288Y40855D01*
Y41331D01*
X3407Y41569D01*
X3526Y41688D01*
X3764Y41807D01*
X4002D01*
X4240Y41688D01*
X4597Y41450D01*
X5787Y40260D01*
Y41926D01*
X3764Y43410D02*
X3645Y43648D01*
X3288Y44005D01*
X5787D01*
X15025Y61469D02*
X14906D01*
X14668Y61588D01*
X14549Y61707D01*
X14430Y61945D01*
Y62421D01*
X14549Y62659D01*
X14668Y62778D01*
X14906Y62897D01*
X15144D01*
X15382Y62778D01*
X15739Y62540D01*
X16929Y61350D01*
Y63016D01*
X14906Y58149D02*
X14787Y58387D01*
X14430Y58744D01*
X16929D01*
X37146Y33804D02*
X37027D01*
X36789Y33923D01*
X36670Y34042D01*
X36551Y34280D01*
Y34756D01*
X36670Y34994D01*
X36789Y35113D01*
X37027Y35232D01*
X37265D01*
X37503Y35113D01*
X37860Y34875D01*
X39050Y33685D01*
Y35351D01*
X33012Y33923D02*
Y35232D01*
X33964Y34518D01*
Y34875D01*
X34083Y35113D01*
X34202Y35232D01*
X34559Y35351D01*
X34797D01*
X35154Y35232D01*
X35392Y34994D01*
X35511Y34637D01*
Y34280D01*
X35392Y33923D01*
X35273Y33804D01*
X35035Y33685D01*
X37027Y28563D02*
X36908Y28801D01*
X36551Y29158D01*
X39050D01*
X33012Y29753D02*
X34678Y28563D01*
Y30348D01*
X33012Y29753D02*
X35511D01*
D102*
X245Y23953D02*
X7Y24429D01*
X-708Y25144D01*
X4291D01*
X483Y27498D02*
X245D01*
X-231Y27736D01*
X-470Y27974D01*
X-708Y28451D01*
Y29403D01*
X-470Y29879D01*
X-231Y30117D01*
X245Y30355D01*
X721D01*
X1197Y30117D01*
X1911Y29641D01*
X4291Y27260D01*
Y30593D01*
X29431Y44400D02*
Y44638D01*
X29669Y45114D01*
X29907Y45352D01*
X30383Y45590D01*
X31335D01*
X31811Y45352D01*
X32050Y45114D01*
X32287Y44638D01*
Y44162D01*
X32050Y43686D01*
X31573Y42972D01*
X29193Y40591D01*
X32526D01*
X25882Y44638D02*
X26358Y44876D01*
X27072Y45590D01*
Y40591D01*
D103*
X35969Y27985D02*
X35778D01*
X35397Y27794D01*
X35207Y27604D01*
X35017Y27223D01*
Y26461D01*
X35207Y26080D01*
X35397Y25890D01*
X35778Y25699D01*
X36159D01*
X36540Y25890D01*
X37111Y26271D01*
X39016Y28175D01*
Y25509D01*
X35778Y24396D02*
X35588Y24015D01*
X35017Y23444D01*
X39016D01*
X16785Y40765D02*
X16404Y40575D01*
X15833Y40004D01*
Y44003D01*
X20375Y40956D02*
Y40765D01*
X20184Y40384D01*
X19994Y40194D01*
X19613Y40004D01*
X18851D01*
X18470Y40194D01*
X18280Y40384D01*
X18089Y40765D01*
Y41146D01*
X18280Y41527D01*
X18661Y42098D01*
X20565Y44003D01*
X17899D01*
X3055Y18905D02*
X2865D01*
X2484Y19096D01*
X2294Y19286D01*
X2103Y19667D01*
Y20429D01*
X2294Y20809D01*
X2484Y21000D01*
X2865Y21190D01*
X3246D01*
X3627Y21000D01*
X4198Y20619D01*
X6102Y18715D01*
Y21381D01*
X2865Y22495D02*
X2675Y22876D01*
X2103Y23447D01*
X6102D01*
X30097Y58783D02*
X29906D01*
X29525Y58973D01*
X29335Y59164D01*
X29144Y59544D01*
Y60306D01*
X29335Y60687D01*
X29525Y60878D01*
X29906Y61068D01*
X30287D01*
X30668Y60878D01*
X31239Y60497D01*
X33143Y58592D01*
Y61258D01*
X29144Y61532D02*
Y63627D01*
X30668Y62484D01*
Y63056D01*
X30858Y63437D01*
X31049Y63627D01*
X31620Y63817D01*
X32001D01*
X32572Y63627D01*
X32953Y63246D01*
X33143Y62675D01*
Y62103D01*
X32953Y61532D01*
X32763Y61342D01*
X32382Y61151D01*
X23102Y58319D02*
X22721Y58128D01*
X22530Y57557D01*
Y57176D01*
X22721Y56605D01*
X23292Y56224D01*
X24244Y56033D01*
X25196D01*
X25958Y56224D01*
X26339Y56605D01*
X26529Y57176D01*
Y57366D01*
X26339Y57938D01*
X25958Y58319D01*
X25387Y58509D01*
X25196D01*
X24625Y58319D01*
X24244Y57938D01*
X24054Y57366D01*
Y57176D01*
X24244Y56605D01*
X24625Y56224D01*
X25196Y56033D01*
X22530Y60878D02*
Y58973D01*
X24244Y58783D01*
X24054Y58973D01*
X23863Y59544D01*
Y60116D01*
X24054Y60687D01*
X24435Y61068D01*
X25006Y61258D01*
X25387D01*
X25958Y61068D01*
X26339Y60687D01*
X26529Y60116D01*
Y59544D01*
X26339Y58973D01*
X26149Y58783D01*
X25768Y58592D01*
X22530Y63056D02*
X25196Y61151D01*
Y64008D01*
X22530Y63056D02*
X26529D01*
X29906Y56033D02*
X29716Y56414D01*
X29144Y56985D01*
X33143D01*
X26739Y17864D02*
X26548Y18245D01*
X25977Y18816D01*
X29976D01*
X26739Y20797D02*
X26548Y21178D01*
X25977Y21749D01*
X29976D01*
X7244Y25928D02*
X7054D01*
X6673Y26119D01*
X6482Y26309D01*
X6292Y26690D01*
Y27452D01*
X6482Y27833D01*
X6673Y28023D01*
X7054Y28214D01*
X7435D01*
X7815Y28023D01*
X8387Y27642D01*
X10291Y25738D01*
Y28404D01*
X6863Y31584D02*
X6482Y31394D01*
X6292Y30823D01*
Y30442D01*
X6482Y29870D01*
X7054Y29490D01*
X8006Y29299D01*
X8958D01*
X9720Y29490D01*
X10101Y29870D01*
X10291Y30442D01*
Y30632D01*
X10101Y31203D01*
X9720Y31584D01*
X9148Y31775D01*
X8958D01*
X8387Y31584D01*
X8006Y31203D01*
X7815Y30632D01*
Y30442D01*
X8006Y29870D01*
X8387Y29490D01*
X8958Y29299D01*
X23024Y15126D02*
X23214Y14555D01*
X23595Y14364D01*
X23976D01*
X24357Y14555D01*
X24547Y14936D01*
X24738Y15698D01*
X24928Y16269D01*
X25309Y16650D01*
X25690Y16840D01*
X26261D01*
X26642Y16650D01*
X26833Y16459D01*
X27023Y15888D01*
Y15126D01*
X26833Y14555D01*
X26642Y14364D01*
X26261Y14174D01*
X25690D01*
X25309Y14364D01*
X24928Y14745D01*
X24738Y15317D01*
X24547Y16078D01*
X24357Y16459D01*
X23976Y16650D01*
X23595D01*
X23214Y16459D01*
X23024Y15888D01*
Y15126D01*
X6292Y14308D02*
Y16403D01*
X7815Y15260D01*
Y15831D01*
X8006Y16212D01*
X8196Y16403D01*
X8767Y16593D01*
X9148D01*
X9720Y16403D01*
X10101Y16022D01*
X10291Y15450D01*
Y14879D01*
X10101Y14308D01*
X9910Y14117D01*
X9529Y13927D01*
X7244Y17679D02*
X7054D01*
X6673Y17869D01*
X6482Y18059D01*
X6292Y18440D01*
Y19202D01*
X6482Y19583D01*
X6673Y19773D01*
X7054Y19964D01*
X7435D01*
X7815Y19773D01*
X8387Y19392D01*
X10291Y17488D01*
Y20154D01*
X15150Y16078D02*
X17816Y14174D01*
Y17030D01*
X15150Y16078D02*
X19149D01*
X12165Y30849D02*
X11975D01*
X11594Y31040D01*
X11403Y31230D01*
X11213Y31611D01*
Y32373D01*
X11403Y32754D01*
X11594Y32944D01*
X11975Y33135D01*
X12355D01*
X12736Y32944D01*
X13308Y32563D01*
X15212Y30659D01*
Y33325D01*
X11213Y34601D02*
Y36696D01*
X12736Y35553D01*
Y36125D01*
X12927Y36505D01*
X13117Y36696D01*
X13689Y36886D01*
X14069D01*
X14641Y36696D01*
X15022Y36315D01*
X15212Y35744D01*
Y35172D01*
X15022Y34601D01*
X14831Y34411D01*
X14450Y34220D01*
X10196Y30849D02*
X10006D01*
X9625Y31040D01*
X9434Y31230D01*
X9244Y31611D01*
Y32373D01*
X9434Y32754D01*
X9625Y32944D01*
X10006Y33135D01*
X10386D01*
X10767Y32944D01*
X11339Y32563D01*
X13243Y30659D01*
Y33325D01*
X9244Y36125D02*
X11910Y34220D01*
Y37077D01*
X9244Y36125D02*
X13243D01*
X26739Y27706D02*
X26548Y28087D01*
X25977Y28658D01*
X29976D01*
X26548Y32924D02*
X26167Y32734D01*
X25977Y32162D01*
Y31781D01*
X26167Y31210D01*
X26739Y30829D01*
X27691Y30639D01*
X28643D01*
X29405Y30829D01*
X29786Y31210D01*
X29976Y31781D01*
Y31972D01*
X29786Y32543D01*
X29405Y32924D01*
X28833Y33114D01*
X28643D01*
X28072Y32924D01*
X27691Y32543D01*
X27500Y31972D01*
Y31781D01*
X27691Y31210D01*
X28072Y30829D01*
X28643Y30639D01*
X7244Y23959D02*
X7054D01*
X6673Y24150D01*
X6482Y24340D01*
X6292Y24721D01*
Y25483D01*
X6482Y25864D01*
X6673Y26054D01*
X7054Y26245D01*
X7435D01*
X7815Y26054D01*
X8387Y25673D01*
X10291Y23769D01*
Y26435D01*
X6292Y29996D02*
X10291Y28092D01*
X6292Y27330D02*
Y29996D01*
X16134Y24398D02*
Y26493D01*
X17657Y25350D01*
Y25921D01*
X17848Y26302D01*
X18038Y26493D01*
X18609Y26683D01*
X18990D01*
X19562Y26493D01*
X19943Y26112D01*
X20133Y25541D01*
Y24969D01*
X19943Y24398D01*
X19752Y24207D01*
X19371Y24017D01*
X16134Y27959D02*
Y30054D01*
X17657Y28911D01*
Y29482D01*
X17848Y29863D01*
X18038Y30054D01*
X18609Y30244D01*
X18990D01*
X19562Y30054D01*
X19943Y29673D01*
X20133Y29102D01*
Y28530D01*
X19943Y27959D01*
X19752Y27769D01*
X19371Y27578D01*
X7244Y21991D02*
X7054D01*
X6673Y22182D01*
X6482Y22372D01*
X6292Y22753D01*
Y23515D01*
X6482Y23896D01*
X6673Y24086D01*
X7054Y24277D01*
X7435D01*
X7815Y24086D01*
X8387Y23705D01*
X10291Y21801D01*
Y24467D01*
X6292Y26314D02*
X6482Y25743D01*
X6863Y25553D01*
X7244D01*
X7625Y25743D01*
X7815Y26124D01*
X8006Y26886D01*
X8196Y27457D01*
X8577Y27838D01*
X8958Y28028D01*
X9529D01*
X9910Y27838D01*
X10101Y27647D01*
X10291Y27076D01*
Y26314D01*
X10101Y25743D01*
X9910Y25553D01*
X9529Y25362D01*
X8958D01*
X8577Y25553D01*
X8196Y25933D01*
X8006Y26505D01*
X7815Y27266D01*
X7625Y27647D01*
X7244Y27838D01*
X6863D01*
X6482Y27647D01*
X6292Y27076D01*
Y26314D01*
Y18245D02*
Y20340D01*
X7815Y19197D01*
Y19768D01*
X8006Y20149D01*
X8196Y20340D01*
X8767Y20530D01*
X9148D01*
X9720Y20340D01*
X10101Y19959D01*
X10291Y19387D01*
Y18816D01*
X10101Y18245D01*
X9910Y18054D01*
X9529Y17864D01*
X6292Y22568D02*
X6482Y21996D01*
X7054Y21616D01*
X8006Y21425D01*
X8577D01*
X9529Y21616D01*
X10101Y21996D01*
X10291Y22568D01*
Y22949D01*
X10101Y23520D01*
X9529Y23901D01*
X8577Y24091D01*
X8006D01*
X7054Y23901D01*
X6482Y23520D01*
X6292Y22949D01*
Y22568D01*
X10006Y14174D02*
X9815Y14555D01*
X9244Y15126D01*
X13243D01*
X12165Y14364D02*
X11975D01*
X11594Y14555D01*
X11403Y14745D01*
X11213Y15126D01*
Y15888D01*
X11403Y16269D01*
X11594Y16459D01*
X11975Y16650D01*
X12355D01*
X12736Y16459D01*
X13308Y16078D01*
X15212Y14174D01*
Y16840D01*
X26739Y23769D02*
X26548Y24150D01*
X25977Y24721D01*
X29976D01*
X25977Y28606D02*
X28643Y26702D01*
Y29558D01*
X25977Y28606D02*
X29976D01*
X26739Y25738D02*
X26548Y26119D01*
X25977Y26690D01*
X29976D01*
X25977Y30956D02*
Y29052D01*
X27691Y28861D01*
X27500Y29052D01*
X27310Y29623D01*
Y30194D01*
X27500Y30766D01*
X27881Y31146D01*
X28453Y31337D01*
X28833D01*
X29405Y31146D01*
X29786Y30766D01*
X29976Y30194D01*
Y29623D01*
X29786Y29052D01*
X29595Y28861D01*
X29214Y28671D01*
X16102Y30849D02*
X15912D01*
X15531Y31040D01*
X15340Y31230D01*
X15150Y31611D01*
Y32373D01*
X15340Y32754D01*
X15531Y32944D01*
X15912Y33135D01*
X16293D01*
X16673Y32944D01*
X17245Y32563D01*
X19149Y30659D01*
Y33325D01*
X15912Y34220D02*
X15721Y34601D01*
X15150Y35172D01*
X19149D01*
X26739Y19832D02*
X26548Y20213D01*
X25977Y20784D01*
X29976D01*
X26929Y22955D02*
X26739D01*
X26358Y23146D01*
X26167Y23336D01*
X25977Y23717D01*
Y24479D01*
X26167Y24859D01*
X26358Y25050D01*
X26739Y25240D01*
X27119D01*
X27500Y25050D01*
X28072Y24669D01*
X29976Y22765D01*
Y25431D01*
X14133Y30849D02*
X13943D01*
X13562Y31040D01*
X13371Y31230D01*
X13181Y31611D01*
Y32373D01*
X13371Y32754D01*
X13562Y32944D01*
X13943Y33135D01*
X14323D01*
X14704Y32944D01*
X15276Y32563D01*
X17180Y30659D01*
Y33325D01*
X14133Y34411D02*
X13943D01*
X13562Y34601D01*
X13371Y34791D01*
X13181Y35172D01*
Y35934D01*
X13371Y36315D01*
X13562Y36505D01*
X13943Y36696D01*
X14323D01*
X14704Y36505D01*
X15276Y36125D01*
X17180Y34220D01*
Y36886D01*
X17118Y16459D02*
Y14555D01*
X18832Y14364D01*
X18641Y14555D01*
X18451Y15126D01*
Y15698D01*
X18641Y16269D01*
X19022Y16650D01*
X19593Y16840D01*
X19974D01*
X20546Y16650D01*
X20927Y16269D01*
X21117Y15698D01*
Y15126D01*
X20927Y14555D01*
X20736Y14364D01*
X20355Y14174D01*
X21817Y30659D02*
X21626Y31040D01*
X21055Y31611D01*
X25054D01*
X21055Y34544D02*
X21245Y33973D01*
X21626Y33782D01*
X22007D01*
X22388Y33973D01*
X22578Y34353D01*
X22769Y35115D01*
X22959Y35686D01*
X23340Y36067D01*
X23721Y36258D01*
X24292D01*
X24673Y36067D01*
X24864Y35877D01*
X25054Y35306D01*
Y34544D01*
X24864Y33973D01*
X24673Y33782D01*
X24292Y33592D01*
X23721D01*
X23340Y33782D01*
X22959Y34163D01*
X22769Y34734D01*
X22578Y35496D01*
X22388Y35877D01*
X22007Y36067D01*
X21626D01*
X21245Y35877D01*
X21055Y35306D01*
Y34544D01*
X23786Y30659D02*
X23595Y31040D01*
X23024Y31611D01*
X27023D01*
X23024Y36258D02*
X27023Y34353D01*
X23024Y33592D02*
Y36258D01*
X7244Y20022D02*
X7054D01*
X6673Y20213D01*
X6482Y20403D01*
X6292Y20784D01*
Y21546D01*
X6482Y21927D01*
X6673Y22117D01*
X7054Y22308D01*
X7435D01*
X7815Y22117D01*
X8387Y21736D01*
X10291Y19832D01*
Y22498D01*
X7625Y25869D02*
X8196Y25678D01*
X8577Y25297D01*
X8767Y24726D01*
Y24536D01*
X8577Y23964D01*
X8196Y23584D01*
X7625Y23393D01*
X7435D01*
X6863Y23584D01*
X6482Y23964D01*
X6292Y24536D01*
Y24726D01*
X6482Y25297D01*
X6863Y25678D01*
X7625Y25869D01*
X8577D01*
X9529Y25678D01*
X10101Y25297D01*
X10291Y24726D01*
Y24345D01*
X10101Y23774D01*
X9720Y23584D01*
X6292Y16276D02*
Y18371D01*
X7815Y17228D01*
Y17799D01*
X8006Y18180D01*
X8196Y18371D01*
X8767Y18561D01*
X9148D01*
X9720Y18371D01*
X10101Y17990D01*
X10291Y17418D01*
Y16847D01*
X10101Y16276D01*
X9910Y16085D01*
X9529Y15895D01*
X7054Y19456D02*
X6863Y19837D01*
X6292Y20408D01*
X10291D01*
X18070Y30849D02*
X17880D01*
X17499Y31040D01*
X17308Y31230D01*
X17118Y31611D01*
Y32373D01*
X17308Y32754D01*
X17499Y32944D01*
X17880Y33135D01*
X18260D01*
X18641Y32944D01*
X19213Y32563D01*
X21117Y30659D01*
Y33325D01*
X17118Y35363D02*
X17308Y34791D01*
X17880Y34411D01*
X18832Y34220D01*
X19403D01*
X20355Y34411D01*
X20927Y34791D01*
X21117Y35363D01*
Y35744D01*
X20927Y36315D01*
X20355Y36696D01*
X19403Y36886D01*
X18832D01*
X17880Y36696D01*
X17308Y36315D01*
X17118Y35744D01*
Y35363D01*
X19658Y16459D02*
X19277Y16269D01*
X19087Y15698D01*
Y15317D01*
X19277Y14745D01*
X19849Y14364D01*
X20801Y14174D01*
X21753D01*
X22515Y14364D01*
X22896Y14745D01*
X23086Y15317D01*
Y15507D01*
X22896Y16078D01*
X22515Y16459D01*
X21943Y16650D01*
X21753D01*
X21182Y16459D01*
X20801Y16078D01*
X20610Y15507D01*
Y15317D01*
X20801Y14745D01*
X21182Y14364D01*
X21753Y14174D01*
X26739Y15895D02*
X26548Y16276D01*
X25977Y16847D01*
X29976D01*
X25977Y19970D02*
X26167Y19399D01*
X26739Y19018D01*
X27691Y18828D01*
X28262D01*
X29214Y19018D01*
X29786Y19399D01*
X29976Y19970D01*
Y20351D01*
X29786Y20922D01*
X29214Y21303D01*
X28262Y21494D01*
X27691D01*
X26739Y21303D01*
X26167Y20922D01*
X25977Y20351D01*
Y19970D01*
X27310Y19603D02*
X27881Y19412D01*
X28262Y19031D01*
X28453Y18460D01*
Y18270D01*
X28262Y17698D01*
X27881Y17317D01*
X27310Y17127D01*
X27119D01*
X26548Y17317D01*
X26167Y17698D01*
X25977Y18270D01*
Y18460D01*
X26167Y19031D01*
X26548Y19412D01*
X27310Y19603D01*
X28262D01*
X29214Y19412D01*
X29786Y19031D01*
X29976Y18460D01*
Y18079D01*
X29786Y17508D01*
X29405Y17317D01*
X7244Y27896D02*
X7054D01*
X6673Y28087D01*
X6482Y28277D01*
X6292Y28658D01*
Y29420D01*
X6482Y29801D01*
X6673Y29991D01*
X7054Y30182D01*
X7435D01*
X7815Y29991D01*
X8387Y29610D01*
X10291Y27706D01*
Y30372D01*
X6292Y33552D02*
Y31648D01*
X8006Y31458D01*
X7815Y31648D01*
X7625Y32219D01*
Y32791D01*
X7815Y33362D01*
X8196Y33743D01*
X8767Y33933D01*
X9148D01*
X9720Y33743D01*
X10101Y33362D01*
X10291Y32791D01*
Y32219D01*
X10101Y31648D01*
X9910Y31458D01*
X9529Y31267D01*
X19849Y30659D02*
X19658Y31040D01*
X19087Y31611D01*
X23086D01*
X20420Y36067D02*
X20991Y35877D01*
X21372Y35496D01*
X21563Y34925D01*
Y34734D01*
X21372Y34163D01*
X20991Y33782D01*
X20420Y33592D01*
X20230D01*
X19658Y33782D01*
X19277Y34163D01*
X19087Y34734D01*
Y34925D01*
X19277Y35496D01*
X19658Y35877D01*
X20420Y36067D01*
X21372D01*
X22324Y35877D01*
X22896Y35496D01*
X23086Y34925D01*
Y34544D01*
X22896Y33973D01*
X22515Y33782D01*
X26739Y21801D02*
X26548Y22182D01*
X25977Y22753D01*
X29976D01*
X25977Y25115D02*
Y27209D01*
X27500Y26067D01*
Y26638D01*
X27691Y27019D01*
X27881Y27209D01*
X28453Y27400D01*
X28833D01*
X29405Y27209D01*
X29786Y26829D01*
X29976Y26257D01*
Y25686D01*
X29786Y25115D01*
X29595Y24924D01*
X29214Y24734D01*
X13181Y14555D02*
Y16650D01*
X14704Y15507D01*
Y16078D01*
X14895Y16459D01*
X15085Y16650D01*
X15656Y16840D01*
X16037D01*
X16609Y16650D01*
X16990Y16269D01*
X17180Y15698D01*
Y15126D01*
X16990Y14555D01*
X16799Y14364D01*
X16418Y14174D01*
X21055Y16840D02*
X25054Y14936D01*
X21055Y14174D02*
Y16840D01*
D104*
X5671Y11217D02*
X5746D01*
X5896Y11292D01*
X5971Y11367D01*
X6045Y11517D01*
Y11817D01*
X5971Y11966D01*
X5896Y12042D01*
X5746Y12116D01*
X5596D01*
X5446Y12042D01*
X5221Y11892D01*
X4471Y11142D01*
Y12191D01*
X9346Y11142D02*
X9421Y11292D01*
X9646Y11517D01*
X8071D01*
D105*
X18786Y17384D02*
X19067Y17243D01*
X19208Y16822D01*
Y16541D01*
X19067Y16119D01*
X18645Y15837D01*
X17942Y15697D01*
X17239D01*
X16677Y15837D01*
X16396Y16119D01*
X16255Y16541D01*
Y16681D01*
X16396Y17103D01*
X16677Y17384D01*
X17099Y17525D01*
X17239D01*
X17661Y17384D01*
X17942Y17103D01*
X18083Y16681D01*
Y16541D01*
X17942Y16119D01*
X17661Y15837D01*
X17239Y15697D01*
X18745Y25497D02*
X18886Y25778D01*
X19308Y26200D01*
X16355D01*
X27908Y25778D02*
Y27325D01*
X26783Y26481D01*
Y26903D01*
X26642Y27184D01*
X26502Y27325D01*
X26080Y27465D01*
X25799D01*
X25377Y27325D01*
X25096Y27043D01*
X24955Y26622D01*
Y26200D01*
X25096Y25778D01*
X25236Y25638D01*
X25518Y25497D01*
X23708Y17284D02*
Y15878D01*
X22442Y15737D01*
X22583Y15878D01*
X22724Y16300D01*
Y16722D01*
X22583Y17143D01*
X22302Y17425D01*
X21880Y17565D01*
X21599D01*
X21177Y17425D01*
X20896Y17143D01*
X20755Y16722D01*
Y16300D01*
X20896Y15878D01*
X21036Y15737D01*
X21318Y15597D01*
X27108Y17103D02*
X25139Y15697D01*
Y17806D01*
X27108Y17103D02*
X24155D01*
X23005Y25738D02*
X23145D01*
X23426Y25878D01*
X23567Y26019D01*
X23708Y26300D01*
Y26862D01*
X23567Y27143D01*
X23426Y27284D01*
X23145Y27425D01*
X22864D01*
X22583Y27284D01*
X22161Y27003D01*
X20755Y25597D01*
Y27565D01*
X37548Y59600D02*
Y58053D01*
X38672Y58897D01*
Y58475D01*
X38813Y58194D01*
X38954Y58053D01*
X39375Y57913D01*
X39656D01*
X40078Y58053D01*
X40359Y58335D01*
X40500Y58757D01*
Y59178D01*
X40359Y59600D01*
X40219Y59741D01*
X39938Y59881D01*
X34051Y59841D02*
X33910D01*
X33629Y59700D01*
X33488Y59559D01*
X33348Y59278D01*
Y58716D01*
X33488Y58435D01*
X33629Y58294D01*
X33910Y58153D01*
X34191D01*
X34472Y58294D01*
X34894Y58575D01*
X36300Y59981D01*
Y58013D01*
X33348Y48294D02*
Y49700D01*
X34613Y49841D01*
X34472Y49700D01*
X34332Y49278D01*
Y48856D01*
X34472Y48435D01*
X34754Y48153D01*
X35175Y48013D01*
X35456D01*
X35878Y48153D01*
X36159Y48435D01*
X36300Y48856D01*
Y49278D01*
X36159Y49700D01*
X36019Y49841D01*
X35738Y49981D01*
X29269Y48394D02*
X28988Y48535D01*
X28848Y48957D01*
Y49238D01*
X28988Y49659D01*
X29410Y49941D01*
X30113Y50081D01*
X30816D01*
X31378Y49941D01*
X31659Y49659D01*
X31800Y49238D01*
Y49097D01*
X31659Y48675D01*
X31378Y48394D01*
X30957Y48254D01*
X30816D01*
X30394Y48394D01*
X30113Y48675D01*
X29972Y49097D01*
Y49238D01*
X30113Y49659D01*
X30394Y49941D01*
X30816Y50081D01*
X29510Y59881D02*
X29369Y59600D01*
X28948Y59178D01*
X31900D01*
X36748Y48675D02*
X38716Y50081D01*
Y47972D01*
X36748Y48675D02*
X39700D01*
M02*
