G04*
G04 #@! TF.GenerationSoftware,Altium Limited,Altium Designer,22.0.2 (36)*
G04*
G04 Layer_Physical_Order=1*
G04 Layer_Color=255*
%FSLAX25Y25*%
%MOIN*%
G70*
G04*
G04 #@! TF.SameCoordinates,14A72887-5544-470D-8401-3C00119275A7*
G04*
G04*
G04 #@! TF.FilePolarity,Positive*
G04*
G01*
G75*
%ADD15R,0.01181X0.01181*%
%ADD16R,0.01181X0.01181*%
%ADD17C,0.00100*%
G04:AMPARAMS|DCode=18|XSize=19.67mil|YSize=23.61mil|CornerRadius=2.95mil|HoleSize=0mil|Usage=FLASHONLY|Rotation=90.000|XOffset=0mil|YOffset=0mil|HoleType=Round|Shape=RoundedRectangle|*
%AMROUNDEDRECTD18*
21,1,0.01967,0.01771,0,0,90.0*
21,1,0.01377,0.02361,0,0,90.0*
1,1,0.00590,0.00885,0.00688*
1,1,0.00590,0.00885,-0.00688*
1,1,0.00590,-0.00885,-0.00688*
1,1,0.00590,-0.00885,0.00688*
%
%ADD18ROUNDEDRECTD18*%
G04:AMPARAMS|DCode=19|XSize=19.67mil|YSize=23.61mil|CornerRadius=2.95mil|HoleSize=0mil|Usage=FLASHONLY|Rotation=0.000|XOffset=0mil|YOffset=0mil|HoleType=Round|Shape=RoundedRectangle|*
%AMROUNDEDRECTD19*
21,1,0.01967,0.01771,0,0,0.0*
21,1,0.01377,0.02361,0,0,0.0*
1,1,0.00590,0.00688,-0.00885*
1,1,0.00590,-0.00688,-0.00885*
1,1,0.00590,-0.00688,0.00885*
1,1,0.00590,0.00688,0.00885*
%
%ADD19ROUNDEDRECTD19*%
%ADD20R,0.03500X0.03200*%
%ADD21O,0.02126X0.02362*%
%ADD22O,0.02362X0.02126*%
%ADD23R,0.07874X0.02362*%
%ADD24R,0.03937X0.03937*%
%ADD25R,0.03071X0.01378*%
%ADD26R,0.02362X0.01575*%
%ADD27R,0.02000X0.02000*%
%ADD28R,0.01969X0.01299*%
%ADD29O,0.03150X0.01102*%
%ADD30O,0.01102X0.03150*%
%ADD31R,0.11417X0.11417*%
%ADD32R,0.02760X0.02949*%
%ADD33R,0.23622X0.01575*%
%ADD34R,0.24803X0.01575*%
%ADD35R,0.14173X0.01575*%
%ADD36R,0.01575X0.38583*%
%ADD37R,0.42600X0.01575*%
%ADD38R,0.01575X0.17520*%
%ADD39R,0.27559X0.01575*%
%ADD67C,0.01000*%
%ADD68C,0.01200*%
%ADD69C,0.00787*%
%ADD70C,0.01378*%
%ADD71C,0.00500*%
%ADD72C,0.01320*%
%ADD73C,0.01500*%
%ADD74R,0.05165X0.00333*%
%ADD75R,0.06000X0.06000*%
%ADD76C,0.06000*%
%ADD77C,0.01400*%
G36*
X42504Y803D02*
X803D01*
Y66126D01*
X42504D01*
Y803D01*
D02*
G37*
%LPC*%
G36*
X35269Y64031D02*
X31017D01*
Y61472D01*
X35000D01*
Y61221D01*
X39014D01*
X39385Y60973D01*
X39888Y60873D01*
X40392Y60973D01*
X40819Y61258D01*
X41104Y61685D01*
X41204Y62189D01*
X41104Y62692D01*
X40819Y63119D01*
X40392Y63404D01*
X40179Y63447D01*
X39724Y63583D01*
X39724Y63583D01*
X39724Y63583D01*
X36540D01*
X36278Y63757D01*
X35853Y63842D01*
X35853Y63842D01*
X35269D01*
Y64031D01*
D02*
G37*
G36*
X24403Y64031D02*
X24403Y64031D01*
X23965Y63882D01*
X23779Y63858D01*
Y63858D01*
X21417D01*
Y61496D01*
X23313D01*
X23403Y61016D01*
X23395Y60991D01*
X22738Y60827D01*
X19055D01*
Y60827D01*
X18555Y60710D01*
X18520Y60741D01*
Y60741D01*
X15339D01*
X15074Y61131D01*
Y61752D01*
X9956D01*
Y56634D01*
X15074D01*
Y57169D01*
X15339Y57560D01*
X18520D01*
Y58264D01*
X19858Y58465D01*
X21457D01*
Y56524D01*
X21457Y56378D01*
X21105Y56024D01*
X19468D01*
Y53662D01*
X15473D01*
Y51300D01*
X15542D01*
Y47489D01*
X15424Y47205D01*
Y46270D01*
X15246Y45918D01*
X14989Y45767D01*
X14544Y45678D01*
X13997Y45313D01*
X13631Y44766D01*
X13503Y44121D01*
Y43885D01*
X13631Y43240D01*
X13997Y42693D01*
X14544Y42327D01*
X14643Y42307D01*
X14998Y41727D01*
X14976Y41621D01*
X15077Y41118D01*
X15362Y40691D01*
X15789Y40405D01*
X15972Y40369D01*
X16068Y40273D01*
Y39556D01*
X15706Y39253D01*
X15540Y39233D01*
X15472Y39261D01*
X13454D01*
X13316Y39399D01*
Y42244D01*
X13316Y42244D01*
X13316Y42244D01*
X13222Y42472D01*
X13129Y42696D01*
X13129Y42696D01*
X13129Y42696D01*
X12987Y42838D01*
Y43217D01*
X12370D01*
X12323Y43236D01*
X12323Y43236D01*
X12322Y43236D01*
X11522Y43235D01*
X11168Y43589D01*
Y44401D01*
X10981Y44853D01*
X10529Y45040D01*
X9333D01*
X9291Y45068D01*
Y45551D01*
X7620D01*
X7559Y45576D01*
Y45788D01*
X7045D01*
X6956Y45824D01*
X6905Y45803D01*
X6851Y45816D01*
X6806Y45788D01*
X4016D01*
Y45426D01*
X3661Y45135D01*
X3158Y45035D01*
X2731Y44749D01*
X2446Y44322D01*
X2346Y43819D01*
X2446Y43315D01*
X2550Y43160D01*
Y38939D01*
X2550Y38939D01*
X2577Y38799D01*
Y38437D01*
X2577Y38437D01*
X2599Y38329D01*
Y37165D01*
X4961D01*
Y36671D01*
X4924Y36582D01*
X4961Y36494D01*
Y36477D01*
X4959Y36467D01*
X4961Y36465D01*
Y32480D01*
X5592D01*
X5668Y32445D01*
X5778Y32439D01*
X5857Y32427D01*
X5940Y32406D01*
X6028Y32376D01*
X6121Y32334D01*
X6220Y32280D01*
X6323Y32212D01*
X6432Y32131D01*
X6545Y32035D01*
X6674Y31912D01*
X6684Y31909D01*
X6688Y31899D01*
X6745Y31879D01*
X6807Y31818D01*
X6843Y31634D01*
X7128Y31208D01*
X7555Y30922D01*
X8059Y30822D01*
X8562Y30922D01*
X8718Y31026D01*
X9005D01*
X9266Y30974D01*
X11314D01*
X11372Y30986D01*
X11758Y30668D01*
Y29777D01*
X11314Y29365D01*
X9266D01*
X8821Y29276D01*
X8443Y29024D01*
X8232Y28709D01*
X7887Y28634D01*
X7677Y28626D01*
X7283Y28789D01*
X6103D01*
X5650Y28602D01*
X5650Y28602D01*
X5255Y28523D01*
X4803Y28710D01*
X4584D01*
X4547Y28717D01*
X2776D01*
X2739Y28710D01*
X2520D01*
X2068Y28523D01*
X2028Y28484D01*
X1841Y28032D01*
Y25827D01*
X2028Y25375D01*
X3918Y23485D01*
X4057Y23427D01*
X4094Y23339D01*
Y22127D01*
X4032Y21978D01*
X2677D01*
X2225Y21791D01*
X2038Y21339D01*
Y18661D01*
X2225Y18209D01*
X2501Y17934D01*
X2953Y17747D01*
X3873D01*
X4151Y17346D01*
X3961Y16890D01*
X3780D01*
Y14971D01*
X3723Y14889D01*
X3280Y14603D01*
X2992Y14660D01*
X2489Y14560D01*
X2062Y14275D01*
X1777Y13848D01*
X1676Y13344D01*
X1777Y12841D01*
X2062Y12414D01*
X2489Y12128D01*
X2992Y12028D01*
X3310Y12092D01*
X3780Y12166D01*
X3780Y12166D01*
X3780Y12166D01*
X8189D01*
X8189Y12166D01*
X8656Y12087D01*
X8937Y12031D01*
X9441Y12131D01*
X9867Y12416D01*
X10153Y12843D01*
X10253Y13347D01*
X10153Y13850D01*
X10473Y14261D01*
X14919D01*
X15247Y14326D01*
X15525Y14512D01*
X15818Y14805D01*
X16004Y15083D01*
X16025Y15192D01*
X16204Y15297D01*
X16506Y15375D01*
X16593Y15370D01*
X16735Y15275D01*
X17180Y15186D01*
X17323Y15215D01*
X17638Y14945D01*
X17718Y14758D01*
X17677Y14606D01*
X17677D01*
Y14092D01*
X17640Y14004D01*
X17659Y13960D01*
X17647Y13914D01*
X17677Y13862D01*
Y12244D01*
X19595D01*
X20079Y12205D01*
X20079D01*
X20079Y12205D01*
X22441D01*
Y14567D01*
X22441D01*
X22395Y14938D01*
X22811Y15241D01*
X23086Y15186D01*
X23501Y15269D01*
X23531Y15275D01*
X24025Y15003D01*
X24027Y14993D01*
X24192Y14746D01*
X24242Y14620D01*
X24420Y14436D01*
X24547Y14295D01*
X24629Y14191D01*
X24642Y14172D01*
X24643Y14170D01*
X24649Y14157D01*
X24653Y14154D01*
X24660Y14141D01*
X24691Y14118D01*
X24722Y13965D01*
X25018Y13522D01*
X25461Y13225D01*
X25984Y13121D01*
X31621D01*
X31672Y13099D01*
X32196Y13090D01*
X32581Y13064D01*
Y12900D01*
X33095D01*
X33183Y12864D01*
X33272Y12900D01*
X33337D01*
X33387Y12897D01*
X33391Y12900D01*
X37262D01*
Y16225D01*
X37756Y16240D01*
X37756Y16240D01*
X38217Y16147D01*
X38346Y16093D01*
X40354D01*
X40709Y16240D01*
X40906D01*
Y16380D01*
X40924Y16398D01*
X41112Y16850D01*
Y21535D01*
X40924Y21987D01*
X40609Y22302D01*
X40157Y22490D01*
X37696D01*
X37414Y22990D01*
X37510Y23221D01*
Y23297D01*
X37469Y23283D01*
X37439Y23263D01*
X37429Y23240D01*
Y24397D01*
X37439Y24390D01*
X37469Y24383D01*
X37510Y24378D01*
Y24417D01*
X37768Y24803D01*
X39252D01*
X39252Y24803D01*
X39607Y24849D01*
X39668Y24882D01*
X41299D01*
Y27244D01*
X41299D01*
X41026Y27502D01*
Y31632D01*
X35177D01*
X35102Y31668D01*
X34991Y31673D01*
X34912Y31685D01*
X34829Y31706D01*
X34741Y31736D01*
X34666Y31770D01*
X34384Y32163D01*
X34603Y32620D01*
X37482D01*
Y36750D01*
X37165D01*
Y39055D01*
X34803D01*
Y36750D01*
X33541D01*
Y36750D01*
X33258Y36735D01*
X33044Y36757D01*
X32781Y37151D01*
X32354Y37436D01*
X31850Y37536D01*
X31347Y37436D01*
X30920Y37151D01*
X30635Y36724D01*
X30598Y36541D01*
X30080Y36022D01*
X29839Y35662D01*
X29781Y35371D01*
X29737Y35271D01*
X28952D01*
X28507Y35182D01*
X28363Y35086D01*
X28002Y35447D01*
X28098Y35591D01*
X28187Y36036D01*
Y36729D01*
X28205Y36767D01*
X28213Y36930D01*
X28233Y37064D01*
X28267Y37200D01*
X28317Y37341D01*
X28383Y37488D01*
X28466Y37640D01*
X28568Y37797D01*
X28690Y37959D01*
X28831Y38125D01*
X29004Y38307D01*
X29025Y38361D01*
X29267Y38603D01*
X29310Y38616D01*
X29325Y38646D01*
X29356Y38659D01*
X30308Y39618D01*
X30325Y39658D01*
X30383Y39697D01*
X30427Y39763D01*
X31001Y40337D01*
X31284Y40761D01*
X31383Y41260D01*
Y44114D01*
X31284Y44614D01*
X31260Y44650D01*
Y45941D01*
X31284Y45977D01*
X31383Y46476D01*
X31284Y46975D01*
X31260Y47012D01*
Y47657D01*
X30644D01*
X30519Y47741D01*
X30020Y47840D01*
X28127D01*
X28071Y47851D01*
X27567Y47751D01*
X27140Y47466D01*
X26855Y47039D01*
X26755Y46535D01*
X26809Y46263D01*
X26479Y45763D01*
X25144D01*
Y43146D01*
X24644Y42975D01*
X24588Y43048D01*
X24607Y43417D01*
X24594Y43481D01*
X24619Y43540D01*
X24582Y43629D01*
Y47662D01*
X22911D01*
X22822Y47699D01*
X22762Y47674D01*
X22699Y47687D01*
X22220Y47662D01*
X21720Y47662D01*
X21645Y47712D01*
X21142Y47812D01*
X20638Y47712D01*
X20590Y47679D01*
X20058Y47657D01*
X19606Y47844D01*
X18425D01*
X18266Y47778D01*
X17766Y48103D01*
Y51300D01*
X23829D01*
Y53182D01*
X24329Y53310D01*
X24575Y53146D01*
X25000Y53061D01*
X25000Y53061D01*
X25512D01*
Y52992D01*
X34567D01*
Y55354D01*
X34498D01*
Y56354D01*
X35269D01*
Y58913D01*
X31376D01*
X30983Y59173D01*
X30435Y59173D01*
X30435Y59173D01*
X30127Y59173D01*
X28655D01*
Y64031D01*
X24403D01*
Y64031D01*
D02*
G37*
G36*
X35276Y42576D02*
X34772Y42476D01*
X34345Y42190D01*
X34060Y41763D01*
X33960Y41260D01*
X34060Y40756D01*
X34345Y40329D01*
X34772Y40044D01*
X35276Y39944D01*
X35779Y40044D01*
X36206Y40329D01*
X36491Y40756D01*
X36591Y41260D01*
X36491Y41763D01*
X36206Y42190D01*
X35779Y42476D01*
X35276Y42576D01*
D02*
G37*
G36*
X36715Y8621D02*
X35778Y8498D01*
X34904Y8136D01*
X34154Y7561D01*
X33579Y6811D01*
X33217Y5937D01*
X33094Y5000D01*
X33217Y4063D01*
X33579Y3189D01*
X34154Y2439D01*
X34904Y1864D01*
X35778Y1502D01*
X36715Y1378D01*
X37652Y1502D01*
X38526Y1864D01*
X39276Y2439D01*
X39851Y3189D01*
X40213Y4063D01*
X40336Y5000D01*
X40213Y5937D01*
X39851Y6811D01*
X39276Y7561D01*
X38526Y8136D01*
X37652Y8498D01*
X36715Y8621D01*
D02*
G37*
G36*
X26715D02*
X25778Y8498D01*
X24904Y8136D01*
X24154Y7561D01*
X23579Y6811D01*
X23217Y5937D01*
X23094Y5000D01*
X23217Y4063D01*
X23579Y3189D01*
X24154Y2439D01*
X24904Y1864D01*
X25778Y1502D01*
X26715Y1378D01*
X27652Y1502D01*
X28526Y1864D01*
X29276Y2439D01*
X29851Y3189D01*
X30213Y4063D01*
X30336Y5000D01*
X30213Y5937D01*
X29851Y6811D01*
X29276Y7561D01*
X28526Y8136D01*
X27652Y8498D01*
X26715Y8621D01*
D02*
G37*
G36*
X16715D02*
X15778Y8498D01*
X14904Y8136D01*
X14154Y7561D01*
X13579Y6811D01*
X13217Y5937D01*
X13093Y5000D01*
X13217Y4063D01*
X13579Y3189D01*
X14154Y2439D01*
X14904Y1864D01*
X15778Y1502D01*
X16715Y1378D01*
X17652Y1502D01*
X18526Y1864D01*
X19276Y2439D01*
X19851Y3189D01*
X20213Y4063D01*
X20336Y5000D01*
X20213Y5937D01*
X19851Y6811D01*
X19276Y7561D01*
X18526Y8136D01*
X17652Y8498D01*
X16715Y8621D01*
D02*
G37*
%LPD*%
G36*
X23182Y63106D02*
X23197Y63063D01*
X23222Y63024D01*
X23257Y62990D01*
X23302Y62961D01*
X23357Y62936D01*
X23388Y62926D01*
X23411Y62932D01*
X23471Y62951D01*
X23529Y62974D01*
X23585Y63003D01*
X23639Y63036D01*
X23692Y63074D01*
X23742Y63117D01*
X23685Y62138D01*
X23640Y62187D01*
X23592Y62230D01*
X23542Y62269D01*
X23490Y62303D01*
X23435Y62332D01*
X23378Y62356D01*
X23370Y62358D01*
X23357Y62356D01*
X23302Y62335D01*
X23257Y62310D01*
X23222Y62279D01*
X23197Y62242D01*
X23182Y62200D01*
X23177Y62153D01*
Y62401D01*
X23125Y62405D01*
X23155Y62904D01*
X23177Y62904D01*
Y63154D01*
X23182Y63106D01*
D02*
G37*
G36*
X25006Y62850D02*
X25009Y62850D01*
X25062Y62838D01*
X25120Y62829D01*
X25254Y62818D01*
X25234Y62318D01*
X25166Y62320D01*
X25045Y62313D01*
X25006Y62308D01*
Y62077D01*
X25001Y62125D01*
X24986Y62168D01*
X24961Y62207D01*
X24926Y62241D01*
X24881Y62270D01*
X24879Y62271D01*
X24866Y62265D01*
X24835Y62246D01*
X24808Y62223D01*
X24786Y62198D01*
X24789Y62307D01*
X24761Y62315D01*
X24686Y62331D01*
X24601Y62342D01*
X24506Y62348D01*
Y62849D01*
X24601Y62847D01*
X24686Y62851D01*
X24761Y62861D01*
X24802Y62870D01*
X24805Y62972D01*
X24825Y62945D01*
X24851Y62921D01*
X24882Y62899D01*
X24885Y62898D01*
X24926Y62922D01*
X24961Y62953D01*
X24986Y62989D01*
X25001Y63031D01*
X25006Y63078D01*
Y62850D01*
D02*
G37*
G36*
Y57355D02*
X25014Y57309D01*
X25006Y57309D01*
Y57059D01*
X25001Y57107D01*
X24986Y57149D01*
X24961Y57187D01*
X24926Y57219D01*
X24881Y57247D01*
X24826Y57269D01*
X24796Y57277D01*
X24763Y57266D01*
X24708Y57242D01*
X24656Y57213D01*
X24608Y57178D01*
X24563Y57138D01*
X24521Y57093D01*
X24482Y57042D01*
X24317Y58008D01*
X24373Y57970D01*
X24429Y57937D01*
X24487Y57907D01*
X24546Y57881D01*
X24606Y57859D01*
X24667Y57841D01*
X24729Y57827D01*
X24732Y57827D01*
X24761Y57832D01*
X24826Y57849D01*
X24881Y57872D01*
X24926Y57899D01*
X24961Y57932D01*
X24986Y57969D01*
X25001Y58012D01*
X25006Y58059D01*
Y57355D01*
D02*
G37*
G36*
X23221Y58012D02*
X23236Y57969D01*
X23261Y57932D01*
X23296Y57899D01*
X23302Y57896D01*
X23327Y57907D01*
X23384Y57937D01*
X23441Y57970D01*
X23497Y58008D01*
X23467Y57831D01*
X23536Y57819D01*
X23621Y57812D01*
X23716Y57809D01*
Y57309D01*
X23621Y57307D01*
X23536Y57299D01*
X23461Y57287D01*
X23396Y57269D01*
X23368Y57258D01*
X23332Y57042D01*
X23293Y57093D01*
X23251Y57138D01*
X23245Y57144D01*
X23237Y57151D01*
X23236Y57149D01*
X23221Y57107D01*
X23216Y57059D01*
Y57169D01*
X23206Y57178D01*
X23158Y57213D01*
X23106Y57242D01*
X23051Y57266D01*
X22993Y57285D01*
X22932Y57298D01*
X22867Y57306D01*
X22799Y57309D01*
X22892Y57809D01*
X22957Y57811D01*
X23021Y57817D01*
X23085Y57827D01*
X23147Y57841D01*
X23208Y57859D01*
X23216Y57862D01*
Y58059D01*
X23221Y58012D01*
D02*
G37*
G36*
X28056Y57780D02*
X28067Y57710D01*
X28085Y57639D01*
X28109Y57568D01*
X28141Y57497D01*
X28180Y57427D01*
X28226Y57356D01*
X28279Y57285D01*
X28339Y57215D01*
X28407Y57144D01*
X28241Y56603D01*
X28170Y56670D01*
X28099Y56730D01*
X28029Y56783D01*
X27958Y56829D01*
X27887Y56868D01*
X27816Y56900D01*
X27746Y56924D01*
X27675Y56942D01*
X27604Y56953D01*
X27534Y56956D01*
X27663Y57180D01*
X27638Y57205D01*
X27733Y57300D01*
X28053Y57851D01*
X28056Y57780D01*
D02*
G37*
G36*
X19606Y46024D02*
X18425D01*
Y47205D01*
X19606D01*
Y46024D01*
D02*
G37*
G36*
X17244D02*
X16063D01*
Y47205D01*
X17244D01*
Y46024D01*
D02*
G37*
G36*
X22822Y45902D02*
X22813Y45917D01*
X22783Y45931D01*
X22733Y45943D01*
X22662Y45953D01*
X22463Y45968D01*
X21823Y45981D01*
Y46981D01*
X22013Y46982D01*
X22783Y47031D01*
X22813Y47045D01*
X22822Y47060D01*
Y45902D01*
D02*
G37*
G36*
X6966Y45125D02*
X6996Y45072D01*
X7046Y45024D01*
X7116Y44983D01*
X7206Y44949D01*
X7316Y44920D01*
X7365Y44912D01*
X7492Y44920D01*
X7522Y44934D01*
X7532Y44949D01*
Y44889D01*
X7596Y44883D01*
X7956Y44870D01*
Y43870D01*
X7766Y43868D01*
X7532Y43849D01*
Y43791D01*
X7522Y43806D01*
X7492Y43820D01*
X7442Y43832D01*
X7395Y43838D01*
X7316Y43832D01*
X7206Y43811D01*
X7116Y43785D01*
X7046Y43754D01*
X6996Y43719D01*
X6966Y43679D01*
X6956Y43634D01*
Y43862D01*
X6532Y43870D01*
Y44870D01*
X6722Y44871D01*
X6956Y44886D01*
Y45185D01*
X6966Y45125D01*
D02*
G37*
G36*
X23965Y43530D02*
X23951Y43501D01*
X23939Y43450D01*
X23929Y43380D01*
X23914Y43181D01*
X23901Y42540D01*
X22901D01*
X22900Y42731D01*
X22851Y43501D01*
X22837Y43530D01*
X22822Y43540D01*
X23979D01*
X23965Y43530D01*
D02*
G37*
G36*
X16204Y43573D02*
X16215Y43553D01*
X16236Y43525D01*
X16266Y43488D01*
X16413Y43327D01*
X16646Y43090D01*
X15939Y42382D01*
X15415Y42854D01*
X16202Y43585D01*
X16204Y43573D01*
D02*
G37*
G36*
X12677Y42244D02*
Y39134D01*
X13189Y38622D01*
X15472D01*
X15748Y38346D01*
Y35787D01*
X15472Y35512D01*
X13049D01*
X10419Y38142D01*
X10419Y38142D01*
X8073Y40488D01*
X7795Y40674D01*
X7593Y40714D01*
X7559Y40748D01*
Y41349D01*
X8708D01*
X9034Y41484D01*
X9333Y41360D01*
X10529D01*
X10981Y41547D01*
X11168Y41999D01*
Y42595D01*
X12323Y42597D01*
X12677Y42244D01*
D02*
G37*
G36*
X6086Y40481D02*
X6075Y40472D01*
X6067Y40456D01*
X6059Y40435D01*
X6052Y40407D01*
X6047Y40373D01*
X6043Y40333D01*
X6038Y40234D01*
X6037Y40175D01*
X5537D01*
X5537Y40234D01*
X5528Y40373D01*
X5523Y40407D01*
X5516Y40435D01*
X5508Y40456D01*
X5499Y40472D01*
X5489Y40481D01*
X5478Y40484D01*
X6097D01*
X6086Y40481D01*
D02*
G37*
G36*
X29855Y40069D02*
X28902Y39109D01*
X28299Y39166D01*
X28541Y38748D01*
X28356Y38553D01*
X28190Y38358D01*
X28044Y38163D01*
X27917Y37968D01*
X27810Y37773D01*
X27723Y37578D01*
X27654Y37384D01*
X27606Y37189D01*
X27576Y36994D01*
X27567Y36799D01*
X26751Y38555D01*
X27284Y39262D01*
X27121Y39277D01*
X27303Y39469D01*
X27466Y39661D01*
X27610Y39853D01*
X27734Y40046D01*
X27840Y40239D01*
X27926Y40432D01*
X27993Y40626D01*
X28041Y40820D01*
X28070Y41014D01*
X28079Y41209D01*
X29855Y40069D01*
D02*
G37*
G36*
X23611Y38225D02*
X22561D01*
X22566Y38246D01*
X22570Y38287D01*
X22577Y38423D01*
X22586Y39285D01*
X23586D01*
X23611Y38225D01*
D02*
G37*
G36*
X17705D02*
X16655D01*
X16660Y38246D01*
X16664Y38287D01*
X16671Y38423D01*
X16680Y39285D01*
X17680D01*
X17705Y38225D01*
D02*
G37*
G36*
X36437Y37290D02*
X36394Y37275D01*
X36357Y37251D01*
X36324Y37216D01*
X36297Y37170D01*
X36274Y37115D01*
X36257Y37051D01*
X36244Y36975D01*
X36237Y36891D01*
X36234Y36795D01*
X35734D01*
X35732Y36891D01*
X35724Y36975D01*
X35712Y37051D01*
X35694Y37115D01*
X35672Y37170D01*
X35644Y37216D01*
X35612Y37251D01*
X35574Y37275D01*
X35532Y37290D01*
X35484Y37295D01*
X36484D01*
X36437Y37290D01*
D02*
G37*
G36*
X6713Y37758D02*
X6706Y37728D01*
X6700Y37678D01*
X6691Y37518D01*
X6689Y37379D01*
X6720Y36582D01*
X5563D01*
X5585Y36592D01*
X5606Y36622D01*
X5623Y36672D01*
X5639Y36742D01*
X5652Y36832D01*
X5670Y37072D01*
X5671Y37098D01*
X5639Y37608D01*
X5623Y37678D01*
X5606Y37728D01*
X5585Y37758D01*
X5563Y37768D01*
X6720D01*
X6713Y37758D01*
D02*
G37*
G36*
X36237Y36553D02*
X36244Y36467D01*
X36257Y36393D01*
X36274Y36327D01*
X36297Y36272D01*
X36324Y36228D01*
X36357Y36193D01*
X36394Y36167D01*
X36437Y36152D01*
X36484Y36147D01*
X35484D01*
X35532Y36152D01*
X35574Y36167D01*
X35612Y36193D01*
X35644Y36228D01*
X35672Y36272D01*
X35694Y36327D01*
X35712Y36393D01*
X35724Y36467D01*
X35732Y36553D01*
X35734Y36647D01*
X36234D01*
X36237Y36553D01*
D02*
G37*
G36*
X16735Y34961D02*
X17180Y34872D01*
X17625Y34961D01*
X18003Y35213D01*
X18326D01*
X18704Y34961D01*
X19149Y34872D01*
X19594Y34961D01*
X19972Y35213D01*
X20294D01*
X20672Y34961D01*
X21117Y34872D01*
X21562Y34961D01*
X21940Y35213D01*
X22263D01*
X22641Y34961D01*
X23086Y34872D01*
X23531Y34961D01*
X23909Y35213D01*
X24231D01*
X24609Y34961D01*
X25054Y34872D01*
X25499Y34961D01*
X25877Y35213D01*
X26200D01*
X26578Y34961D01*
X27023Y34872D01*
X27468Y34961D01*
X27613Y35057D01*
X27973Y34696D01*
X27877Y34552D01*
X27788Y34107D01*
X27877Y33662D01*
X28129Y33284D01*
Y32961D01*
X27877Y32583D01*
X27788Y32138D01*
X27877Y31693D01*
X28000Y31508D01*
X28089Y31154D01*
X28000Y30800D01*
X27877Y30615D01*
X27788Y30170D01*
X27825Y29982D01*
X27763Y29852D01*
X27488Y29507D01*
X27453Y29488D01*
X27096Y29417D01*
X26670Y29131D01*
X26384Y28705D01*
X26284Y28201D01*
X26384Y27697D01*
X26522Y27491D01*
X26653Y27246D01*
X26396Y26852D01*
X26314Y26797D01*
X26028Y26370D01*
X25928Y25866D01*
X26028Y25363D01*
X26314Y24936D01*
X26741Y24651D01*
X27244Y24550D01*
X27339Y24569D01*
X27788Y24264D01*
X27877Y23819D01*
X28000Y23634D01*
X28089Y23280D01*
X28000Y22926D01*
X27877Y22741D01*
X27788Y22296D01*
X27877Y21851D01*
X28129Y21473D01*
Y21150D01*
X27877Y20772D01*
X27788Y20327D01*
X27877Y19882D01*
X27973Y19737D01*
X27613Y19377D01*
X27468Y19473D01*
X27023Y19562D01*
X26578Y19473D01*
X26392Y19350D01*
X26039Y19261D01*
X25685Y19350D01*
X25499Y19473D01*
X25054Y19562D01*
X24897Y19531D01*
X24791Y19575D01*
X24402Y19879D01*
X24391Y19901D01*
X24326Y20228D01*
X24041Y20655D01*
X23614Y20940D01*
X23110Y21040D01*
X22607Y20940D01*
X22180Y20655D01*
X21895Y20228D01*
X21828Y19892D01*
X21791Y19834D01*
X21445Y19573D01*
X21325Y19521D01*
X21117Y19562D01*
X20936Y19526D01*
X20854Y19546D01*
X20439Y19832D01*
X20401Y19891D01*
X20349Y20149D01*
X20064Y20576D01*
X19637Y20861D01*
X19134Y20962D01*
X18630Y20861D01*
X18203Y20576D01*
X17918Y20149D01*
X17868Y19896D01*
X17846Y19859D01*
X17408Y19550D01*
X17331Y19532D01*
X17180Y19562D01*
X16735Y19473D01*
X16357Y19221D01*
X16035D01*
X15657Y19473D01*
X15212Y19562D01*
X14767Y19473D01*
X14389Y19221D01*
X14066D01*
X13775Y19654D01*
X13875Y20157D01*
X13775Y20661D01*
X13489Y21088D01*
X13063Y21373D01*
X12718Y21442D01*
X12580Y21613D01*
X12445Y21840D01*
X12410Y21953D01*
X12478Y22296D01*
X12389Y22741D01*
X12300Y22874D01*
X12304Y23044D01*
X12317Y23106D01*
X12507Y23427D01*
X12734Y23472D01*
X12907Y23587D01*
X13038Y23639D01*
X13080Y23679D01*
X13108Y23703D01*
X13130Y23720D01*
X13141Y23727D01*
X13147Y23725D01*
X13230Y23768D01*
X13619Y23846D01*
X14045Y24131D01*
X14331Y24558D01*
X14431Y25061D01*
X14331Y25565D01*
X14173Y25801D01*
X13923Y26235D01*
X14208Y26662D01*
X14308Y27165D01*
X14208Y27669D01*
X13923Y28096D01*
X13496Y28381D01*
X13449Y28900D01*
X13472Y29016D01*
Y34734D01*
X13586Y34873D01*
X15209D01*
X15212Y34872D01*
X15215Y34873D01*
X15472D01*
X15924Y35060D01*
X16357Y35213D01*
X16735Y34961D01*
D02*
G37*
G36*
X6727Y36546D02*
X6748Y36498D01*
X6784Y36440D01*
X6833Y36370D01*
X6975Y36198D01*
X7173Y35982D01*
X7427Y35721D01*
X7015Y34718D01*
X6874Y34853D01*
X6733Y34973D01*
X6591Y35079D01*
X6450Y35171D01*
X6308Y35249D01*
X6167Y35312D01*
X6025Y35362D01*
X5884Y35397D01*
X5743Y35418D01*
X5601Y35425D01*
X6720Y36582D01*
X6727Y36546D01*
D02*
G37*
G36*
X31367Y35098D02*
X31397Y34590D01*
X31408Y34525D01*
X31421Y34473D01*
X31435Y34432D01*
X31452Y34404D01*
X30281Y34651D01*
X30297Y34657D01*
X30311Y34674D01*
X30324Y34703D01*
X30335Y34744D01*
X30345Y34797D01*
X30352Y34861D01*
X30363Y35025D01*
X30366Y35236D01*
X31366D01*
X31367Y35098D01*
D02*
G37*
G36*
X34143Y34071D02*
X34139Y34113D01*
X34125Y34150D01*
X34101Y34183D01*
X34068Y34212D01*
X34026Y34236D01*
X33975Y34255D01*
X33914Y34271D01*
X33843Y34282D01*
X33764Y34288D01*
X33674Y34291D01*
Y34791D01*
X33764Y34793D01*
X33843Y34799D01*
X33914Y34810D01*
X33975Y34826D01*
X34026Y34845D01*
X34068Y34869D01*
X34101Y34898D01*
X34125Y34931D01*
X34139Y34968D01*
X34143Y35010D01*
Y34071D01*
D02*
G37*
G36*
X6731Y34219D02*
X6763Y34177D01*
X6816Y34116D01*
X7579Y33325D01*
X7781Y33123D01*
X7114Y32376D01*
X6972Y32510D01*
X6831Y32630D01*
X6690Y32736D01*
X6548Y32828D01*
X6407Y32906D01*
X6265Y32970D01*
X6124Y33019D01*
X5983Y33055D01*
X5841Y33076D01*
X5700Y33083D01*
X6720Y34240D01*
X6731Y34219D01*
D02*
G37*
G36*
X31415Y30520D02*
X31444Y30499D01*
X31480Y30480D01*
X31522Y30464D01*
X31571Y30451D01*
X31627Y30440D01*
X31689Y30431D01*
X31834Y30421D01*
X31917Y30420D01*
Y29920D01*
X31834Y29919D01*
X31689Y29909D01*
X31627Y29900D01*
X31571Y29889D01*
X31522Y29876D01*
X31480Y29860D01*
X31444Y29841D01*
X31415Y29820D01*
X31393Y29797D01*
Y30543D01*
X31415Y30520D01*
D02*
G37*
G36*
X33801Y31598D02*
X33942Y31479D01*
X34082Y31374D01*
X34223Y31282D01*
X34364Y31205D01*
X34505Y31142D01*
X34646Y31093D01*
X34787Y31058D01*
X34928Y31036D01*
X35070Y31029D01*
X34143Y29127D01*
X34133Y29272D01*
X34101Y29424D01*
X34048Y29583D01*
X33974Y29750D01*
X33878Y29923D01*
X33762Y30103D01*
X33624Y30290D01*
X33284Y30687D01*
X33083Y30895D01*
X33661Y31732D01*
X33801Y31598D01*
D02*
G37*
G36*
X12381Y28429D02*
X11785Y27929D01*
X11570Y28678D01*
X11621Y28662D01*
X11672Y28653D01*
X11724Y28651D01*
X11777Y28658D01*
X11830Y28673D01*
X11884Y28695D01*
X11939Y28726D01*
X11995Y28764D01*
X12052Y28810D01*
X12110Y28864D01*
X12381Y28429D01*
D02*
G37*
G36*
X39508Y28100D02*
X39465Y28084D01*
X39428Y28060D01*
X39395Y28025D01*
X39368Y27979D01*
X39345Y27924D01*
X39328Y27860D01*
X39316Y27784D01*
X39308Y27700D01*
X39305Y27604D01*
X38805D01*
X38803Y27700D01*
X38796Y27784D01*
X38783Y27860D01*
X38765Y27924D01*
X38743Y27979D01*
X38715Y28025D01*
X38683Y28060D01*
X38645Y28084D01*
X38603Y28100D01*
X38555Y28104D01*
X39555D01*
X39508Y28100D01*
D02*
G37*
G36*
X7283Y27520D02*
X7677D01*
Y23898D01*
X6850Y23071D01*
X5236D01*
X4567Y23740D01*
Y23937D01*
X4370D01*
X2480Y25827D01*
Y28032D01*
X2520Y28071D01*
X4803D01*
X5354Y27520D01*
X6103D01*
Y28150D01*
X7283D01*
Y27520D01*
D02*
G37*
G36*
X32060Y25772D02*
X32008Y25814D01*
X31954Y25852D01*
X31899Y25885D01*
X31843Y25914D01*
X31784Y25939D01*
X31725Y25959D01*
X31704Y25964D01*
X31674Y25957D01*
X31601Y25936D01*
X31531Y25911D01*
X31463Y25881D01*
X31397Y25846D01*
X31333Y25806D01*
X31272Y25762D01*
Y26704D01*
X31328Y26664D01*
X31387Y26628D01*
X31450Y26597D01*
X31515Y26570D01*
X31584Y26547D01*
X31656Y26528D01*
X31657Y26528D01*
X31681Y26535D01*
X31738Y26558D01*
X31792Y26586D01*
X31844Y26619D01*
X31893Y26657D01*
X31939Y26700D01*
X31983Y26749D01*
X32060Y25772D01*
D02*
G37*
G36*
X39610Y26928D02*
X39681Y26868D01*
X39752Y26815D01*
X39822Y26769D01*
X39893Y26730D01*
X39964Y26698D01*
X40035Y26673D01*
X40105Y26656D01*
X40176Y26645D01*
X40247Y26641D01*
X39540Y25934D01*
Y25484D01*
X39535Y25532D01*
X39520Y25574D01*
X39495Y25612D01*
X39460Y25644D01*
X39415Y25672D01*
X39360Y25694D01*
X39295Y25712D01*
X39220Y25724D01*
X39135Y25732D01*
X39094Y25733D01*
X39054Y25732D01*
X38969Y25724D01*
X38894Y25712D01*
X38829Y25694D01*
X38774Y25672D01*
X38729Y25644D01*
X38694Y25612D01*
X38669Y25574D01*
X38654Y25532D01*
X38649Y25484D01*
Y26484D01*
X38654Y26437D01*
X38669Y26394D01*
X38694Y26357D01*
X38729Y26324D01*
X38774Y26297D01*
X38829Y26274D01*
X38894Y26257D01*
X38969Y26244D01*
X39054Y26237D01*
X39094Y26236D01*
X39135Y26237D01*
X39220Y26244D01*
X39295Y26257D01*
X39360Y26274D01*
X39415Y26297D01*
X39438Y26311D01*
X39412Y26359D01*
X39366Y26429D01*
X39313Y26500D01*
X39253Y26571D01*
X39186Y26641D01*
X39540Y26995D01*
X39610Y26928D01*
D02*
G37*
G36*
X35130Y25736D02*
X35126Y25779D01*
X35111Y25817D01*
X35088Y25851D01*
X35054Y25880D01*
X35012Y25905D01*
X34959Y25925D01*
X34897Y25941D01*
X34826Y25952D01*
X34745Y25959D01*
X34655Y25961D01*
Y26461D01*
X34745Y26462D01*
X34959Y26478D01*
X35012Y26487D01*
X35054Y26498D01*
X35088Y26511D01*
X35111Y26526D01*
X35126Y26544D01*
X35130Y26563D01*
Y25736D01*
D02*
G37*
G36*
X13090Y24362D02*
X13045Y24361D01*
X12999Y24354D01*
X12951Y24342D01*
X12903Y24324D01*
X12855Y24300D01*
X12805Y24272D01*
X12754Y24237D01*
X12702Y24197D01*
X12650Y24152D01*
X12596Y24101D01*
X12294Y24381D01*
Y24014D01*
X12211Y24012D01*
X12131Y24005D01*
X12054Y23994D01*
X11979Y23979D01*
X11907Y23959D01*
X11837Y23934D01*
X11770Y23906D01*
X11706Y23873D01*
X11645Y23835D01*
X11586Y23793D01*
Y24735D01*
X11645Y24693D01*
X11706Y24655D01*
X11770Y24622D01*
X11837Y24593D01*
X11907Y24569D01*
X11979Y24549D01*
X12054Y24534D01*
X12131Y24523D01*
X12211Y24516D01*
X12294Y24514D01*
Y24511D01*
X12318Y24540D01*
X12353Y24588D01*
X12382Y24636D01*
X12405Y24683D01*
X12422Y24730D01*
X12433Y24777D01*
X12439Y24822D01*
X12438Y24867D01*
X12431Y24912D01*
X13090Y24362D01*
D02*
G37*
G36*
X7913Y20866D02*
X11654D01*
X12170Y20349D01*
Y19572D01*
X10984Y18386D01*
X2953D01*
X2677Y18661D01*
Y21339D01*
X7441D01*
X7913Y20866D01*
D02*
G37*
G36*
X12699Y16874D02*
X12694Y16921D01*
X12679Y16964D01*
X12654Y17002D01*
X12619Y17034D01*
X12574Y17062D01*
X12519Y17084D01*
X12454Y17101D01*
X12379Y17114D01*
X12294Y17121D01*
X12199Y17124D01*
Y17624D01*
X12294Y17627D01*
X12379Y17634D01*
X12454Y17647D01*
X12519Y17664D01*
X12574Y17686D01*
X12619Y17714D01*
X12654Y17747D01*
X12679Y17784D01*
X12694Y17827D01*
X12699Y17874D01*
Y16874D01*
D02*
G37*
G36*
X40472Y21535D02*
Y16850D01*
X40354Y16732D01*
X38346D01*
X37126Y17953D01*
X32992D01*
X32520Y18425D01*
Y21772D01*
X32598Y21850D01*
X40157D01*
X40472Y21535D01*
D02*
G37*
G36*
X27577Y18279D02*
X27607Y18194D01*
X27657Y18119D01*
X27727Y18054D01*
X27817Y17999D01*
X27927Y17954D01*
X28057Y17919D01*
X28207Y17894D01*
X28377Y17879D01*
X28567Y17874D01*
Y16874D01*
X28377Y16869D01*
X28207Y16854D01*
X28057Y16829D01*
X27927Y16794D01*
X27817Y16749D01*
X27727Y16694D01*
X27657Y16629D01*
X27607Y16554D01*
X27577Y16469D01*
X27567Y16374D01*
Y18374D01*
X27577Y18279D01*
D02*
G37*
G36*
X5331Y16692D02*
X5348Y16532D01*
X5362Y16467D01*
X5381Y16412D01*
X5404Y16367D01*
X5432Y16332D01*
X5463Y16307D01*
X5499Y16292D01*
X5539Y16287D01*
X4579D01*
X4626Y16292D01*
X4669Y16307D01*
X4706Y16332D01*
X4739Y16367D01*
X4766Y16412D01*
X4789Y16467D01*
X4806Y16532D01*
X4819Y16607D01*
X4826Y16692D01*
X4829Y16787D01*
X5329D01*
X5331Y16692D01*
D02*
G37*
G36*
X15580Y15940D02*
X15555Y15896D01*
X15533Y15849D01*
X15514Y15798D01*
X15498Y15743D01*
X15485Y15684D01*
X15475Y15621D01*
X15463Y15485D01*
X15462Y15411D01*
X14962D01*
X14961Y15485D01*
X14949Y15621D01*
X14939Y15684D01*
X14926Y15743D01*
X14910Y15798D01*
X14891Y15849D01*
X14869Y15896D01*
X14844Y15940D01*
X14817Y15980D01*
X15607D01*
X15580Y15940D01*
D02*
G37*
G36*
X7591Y16262D02*
X7606Y16240D01*
X7631Y16220D01*
X7666Y16203D01*
X7711Y16188D01*
X7766Y16177D01*
X7831Y16167D01*
X7906Y16161D01*
X8086Y16156D01*
Y15655D01*
X7991Y15653D01*
X7906Y15645D01*
X7831Y15633D01*
X7766Y15616D01*
X7711Y15593D01*
X7666Y15565D01*
X7631Y15533D01*
X7606Y15495D01*
X7591Y15453D01*
X7586Y15405D01*
Y16287D01*
X7591Y16262D01*
D02*
G37*
G36*
X21637Y16188D02*
X21633Y16148D01*
X21626Y16011D01*
X21617Y15149D01*
X20617D01*
X20592Y16209D01*
X21642D01*
X21637Y16188D01*
D02*
G37*
G36*
X19669D02*
X19665Y16148D01*
X19658Y16011D01*
X19649Y15149D01*
X18649D01*
X18624Y16209D01*
X19674D01*
X19669Y16188D01*
D02*
G37*
G36*
X25508Y15673D02*
X25902Y15328D01*
X25959Y15289D01*
X26010Y15260D01*
X26053Y15240D01*
X26090Y15231D01*
X25242Y14383D01*
X25232Y14419D01*
X25213Y14463D01*
X25183Y14513D01*
X25144Y14571D01*
X25036Y14707D01*
X24888Y14872D01*
X24701Y15065D01*
X25408Y15772D01*
X25508Y15673D01*
D02*
G37*
G36*
X19437Y14004D02*
X18280D01*
X18350Y14014D01*
X18413Y14044D01*
X18468Y14094D01*
X18516Y14164D01*
X18557Y14254D01*
X18590Y14364D01*
X18616Y14494D01*
X18634Y14644D01*
X18645Y14814D01*
X18649Y15004D01*
X19649D01*
X19437Y14004D01*
D02*
G37*
G36*
X4382Y12847D02*
X4377Y12894D01*
X4362Y12937D01*
X4337Y12974D01*
X4302Y13007D01*
X4257Y13034D01*
X4202Y13057D01*
X4137Y13074D01*
X4062Y13087D01*
X3990Y13093D01*
X3935Y13087D01*
X3873Y13075D01*
X3813Y13058D01*
X3754Y13036D01*
X3698Y13010D01*
X3644Y12979D01*
X3592Y12943D01*
X3542Y12902D01*
X3494Y12856D01*
X3490Y13836D01*
X3539Y13790D01*
X3589Y13750D01*
X3641Y13714D01*
X3696Y13683D01*
X3752Y13656D01*
X3811Y13635D01*
X3871Y13618D01*
X3934Y13606D01*
X3988Y13600D01*
X4062Y13607D01*
X4137Y13619D01*
X4202Y13637D01*
X4257Y13659D01*
X4302Y13687D01*
X4337Y13719D01*
X4362Y13757D01*
X4377Y13799D01*
X4382Y13847D01*
Y12847D01*
D02*
G37*
G36*
X33183Y13503D02*
X33168Y13548D01*
X33123Y13588D01*
X33048Y13623D01*
X32943Y13654D01*
X32808Y13679D01*
X32643Y13701D01*
X32223Y13729D01*
X31683Y13738D01*
Y15238D01*
X31968Y15246D01*
X32223Y15268D01*
X32448Y15306D01*
X32643Y15358D01*
X32808Y15426D01*
X32943Y15508D01*
X33048Y15606D01*
X33123Y15718D01*
X33168Y15846D01*
X33183Y15988D01*
Y13503D01*
D02*
G37*
G36*
X7591Y13799D02*
X7606Y13757D01*
X7631Y13719D01*
X7666Y13687D01*
X7711Y13659D01*
X7766Y13637D01*
X7831Y13619D01*
X7906Y13607D01*
X7958Y13602D01*
X7994Y13606D01*
X8057Y13618D01*
X8118Y13635D01*
X8176Y13656D01*
X8232Y13683D01*
X8287Y13714D01*
X8339Y13750D01*
X8389Y13791D01*
X8437Y13837D01*
X8437Y12856D01*
X8389Y12902D01*
X8339Y12943D01*
X8287Y12979D01*
X8232Y13010D01*
X8176Y13036D01*
X8117Y13058D01*
X8057Y13075D01*
X7994Y13087D01*
X7958Y13091D01*
X7906Y13087D01*
X7831Y13074D01*
X7766Y13057D01*
X7711Y13034D01*
X7666Y13007D01*
X7631Y12974D01*
X7606Y12937D01*
X7591Y12894D01*
X7586Y12847D01*
Y13847D01*
X7591Y13799D01*
D02*
G37*
D15*
X9931Y42019D02*
D03*
Y44381D02*
D03*
X8110Y42008D02*
D03*
Y44370D02*
D03*
X4961Y13347D02*
D03*
Y15709D02*
D03*
X38071Y25984D02*
D03*
X35709D02*
D03*
X7008Y13347D02*
D03*
Y15709D02*
D03*
X23401Y44119D02*
D03*
Y46481D02*
D03*
X3780Y33661D02*
D03*
X6142D02*
D03*
X20236Y62677D02*
D03*
X22598D02*
D03*
X11806Y42036D02*
D03*
Y44398D02*
D03*
X35984Y37874D02*
D03*
X38346D02*
D03*
X24646Y52166D02*
D03*
Y54528D02*
D03*
X20236Y59646D02*
D03*
X22598D02*
D03*
X31024Y54173D02*
D03*
X33386D02*
D03*
X36181Y62402D02*
D03*
X38543D02*
D03*
X19169Y41768D02*
D03*
X21531D02*
D03*
X16654Y52481D02*
D03*
Y54843D02*
D03*
X18652Y52481D02*
D03*
Y54843D02*
D03*
X20276Y57559D02*
D03*
X22638D02*
D03*
X20650Y52481D02*
D03*
Y54843D02*
D03*
X26693Y54173D02*
D03*
X29055D02*
D03*
X22648Y52481D02*
D03*
Y54843D02*
D03*
X26325Y42220D02*
D03*
Y44582D02*
D03*
D16*
X34488Y23819D02*
D03*
X36850D02*
D03*
X6142Y38346D02*
D03*
X3780D02*
D03*
Y36004D02*
D03*
X6142D02*
D03*
X16496Y13425D02*
D03*
X18858D02*
D03*
X3386Y22756D02*
D03*
Y20394D02*
D03*
X40118Y23701D02*
D03*
Y26063D02*
D03*
X23622Y13386D02*
D03*
X21260D02*
D03*
X30079Y44114D02*
D03*
Y46476D02*
D03*
D17*
X6693Y29921D02*
D03*
Y27559D02*
D03*
X16654Y46614D02*
D03*
X19015D02*
D03*
D18*
X3661Y27126D02*
D03*
Y30590D02*
D03*
D19*
X32520Y41221D02*
D03*
X29056D02*
D03*
D20*
X34921Y19791D02*
D03*
Y15091D02*
D03*
D21*
X15189Y44003D02*
D03*
X18969D02*
D03*
D22*
X6102Y20315D02*
D03*
Y24095D02*
D03*
D23*
X6515Y65004D02*
D03*
Y53382D02*
D03*
D24*
X12515Y59193D02*
D03*
D25*
X33143Y62751D02*
D03*
Y60192D02*
D03*
Y57633D02*
D03*
X26529Y62751D02*
D03*
Y60192D02*
D03*
Y57633D02*
D03*
D26*
X5787Y44410D02*
D03*
Y41260D02*
D03*
D27*
X16929Y62346D02*
D03*
Y59150D02*
D03*
D28*
X39331Y17480D02*
D03*
Y14370D02*
D03*
D29*
X29976Y34107D02*
D03*
Y32138D02*
D03*
Y30170D02*
D03*
Y28201D02*
D03*
Y26233D02*
D03*
Y24264D02*
D03*
Y22296D02*
D03*
Y20327D02*
D03*
X10290Y34107D02*
D03*
Y32138D02*
D03*
Y30170D02*
D03*
Y28201D02*
D03*
Y26233D02*
D03*
Y24264D02*
D03*
Y22296D02*
D03*
Y20327D02*
D03*
D30*
X27023Y37060D02*
D03*
Y17374D02*
D03*
X25054Y37060D02*
D03*
Y17374D02*
D03*
X23086Y37060D02*
D03*
Y17374D02*
D03*
X21117Y37060D02*
D03*
Y17374D02*
D03*
X19149Y37060D02*
D03*
Y17374D02*
D03*
X17180Y37060D02*
D03*
Y17374D02*
D03*
X15212Y37060D02*
D03*
Y17374D02*
D03*
X13243Y37060D02*
D03*
Y17374D02*
D03*
D31*
X20133Y27217D02*
D03*
D32*
X39055Y29567D02*
D03*
Y34685D02*
D03*
X35511Y29567D02*
D03*
Y34685D02*
D03*
D33*
X29882Y50394D02*
D03*
D34*
X30472Y48779D02*
D03*
D35*
X7598D02*
D03*
D36*
X1063Y30276D02*
D03*
X42087Y29961D02*
D03*
D37*
X21575Y11457D02*
D03*
D38*
X42087Y57874D02*
D03*
D39*
X28032Y65847D02*
D03*
D67*
X25669Y39961D02*
G03*
X26325Y41545I-1584J1584D01*
G01*
X25669Y39961D02*
G03*
X25054Y38475I1485J-1485D01*
G01*
X8201Y41760D02*
X9449Y40512D01*
X8201Y41760D02*
Y41917D01*
X8110Y42008D02*
X8201Y41917D01*
X8110Y42008D02*
X11778D01*
X9920D02*
X9931Y42019D01*
X9840Y41928D02*
X9931Y42019D01*
X1129Y30170D02*
X10290D01*
X37362Y23858D02*
X41957D01*
X26325Y41545D02*
Y42220D01*
X25054Y37060D02*
Y38475D01*
X21136Y37080D02*
Y38176D01*
X21142Y38181D02*
Y39449D01*
X21136Y38176D02*
X21142Y38181D01*
X21117Y37060D02*
X21136Y37080D01*
X19169Y41453D02*
Y44472D01*
Y37060D02*
Y41453D01*
X18652Y52481D02*
X22648D01*
X6142Y36299D02*
X8334Y34107D01*
X6181Y36339D02*
Y38346D01*
X28994Y54173D02*
X30963D01*
X18969Y44672D02*
X19169Y44472D01*
X23401Y42201D02*
Y44119D01*
X26601Y44582D02*
X28182D01*
X23086Y37060D02*
Y40286D01*
X23401Y40601D01*
Y42201D01*
X19149Y37060D02*
X19169D01*
X12515Y59193D02*
X16886D01*
X16929Y59150D01*
X17269Y59201D01*
X20236Y59646D01*
X16654Y47165D02*
Y51968D01*
X16654Y51969D02*
X16654Y51968D01*
X18969Y44672D02*
X19015Y44719D01*
Y46614D01*
X16654Y52481D02*
X18652D01*
X25054Y15418D02*
Y17374D01*
Y15418D02*
X25984Y14488D01*
X21117Y14159D02*
Y17374D01*
X19149Y13716D02*
Y17374D01*
X18858Y13425D02*
X19149Y13716D01*
Y17374D02*
Y19631D01*
X19134Y19646D02*
X19149Y19631D01*
X23622Y11744D02*
Y13386D01*
X23335Y11457D02*
X23622Y11744D01*
X16496D02*
Y13425D01*
Y11744D02*
X16784Y11457D01*
X23086Y17374D02*
Y19700D01*
X23110Y19724D01*
X6142Y36299D02*
X6181Y36339D01*
X8334Y34107D02*
X10290D01*
X6142Y33661D02*
X6232Y33571D01*
X6626D01*
X8059Y32138D01*
X10290D01*
X3661Y38939D02*
Y43819D01*
Y38939D02*
X3689Y38911D01*
Y38437D02*
Y38911D01*
Y38437D02*
X3780Y38346D01*
Y30709D02*
Y33661D01*
X3661Y30590D02*
X3780Y30709D01*
X10090Y48779D02*
X10600Y48270D01*
X27600Y28201D02*
X29976D01*
X35511Y29567D02*
Y29662D01*
X34631Y30542D02*
X35511Y29662D01*
X34144Y30542D02*
X34631D01*
X33307Y31378D02*
X34144Y30542D01*
X29976Y34107D02*
X30819D01*
X30866Y34154D01*
Y35236D01*
X31850Y36220D01*
X27023Y17374D02*
X29526D01*
X29616Y17284D01*
X29724D01*
X17180Y37060D02*
Y40733D01*
X16292Y41621D02*
X17180Y40733D01*
X42087Y24146D02*
Y25512D01*
X41799Y23858D02*
X42087Y24146D01*
X38543Y62402D02*
X39654D01*
X39867Y62189D01*
X39888D01*
X21142Y46496D02*
X21157Y46481D01*
X23401D01*
X21496Y43819D02*
X21531Y43784D01*
Y41768D02*
Y43784D01*
X3780Y33661D02*
Y36004D01*
X10600Y44381D02*
Y48270D01*
X16496Y11457D02*
X23335D01*
X10600Y44381D02*
X11806D01*
X22598Y59646D02*
X24387Y60093D01*
X25494Y60155D01*
X26529Y60192D01*
X20650Y54843D02*
X22648D01*
X24331D02*
X24646Y54528D01*
X22648Y54843D02*
X24331D01*
X24646Y54528D02*
X25000Y54173D01*
X26693D01*
X33386D02*
Y57604D01*
X33357Y57633D02*
X33386Y57604D01*
X33143Y57633D02*
X33357D01*
X33143Y62751D02*
X33165Y62730D01*
X35853D01*
X36181Y62402D01*
X15404Y43624D02*
X16292Y42736D01*
Y41621D02*
Y42736D01*
X15404Y43624D02*
Y43991D01*
X6378Y44410D02*
X6418Y44370D01*
X8110D01*
X11778Y42008D02*
X11806Y42036D01*
D68*
X8243Y20157D02*
X12559D01*
X32505Y24134D02*
X32613D01*
X7849Y19764D02*
X8243Y20157D01*
X7795Y19764D02*
X7849D01*
X29976Y24264D02*
X32375D01*
X32613Y24134D02*
X32889Y23858D01*
X33937D01*
X32375Y24264D02*
X32505Y24134D01*
D69*
X10197Y46448D02*
Y46614D01*
X9931Y46182D02*
X10197Y46448D01*
X9931Y44381D02*
Y46182D01*
X23622Y31969D02*
X24884D01*
X25448Y32532D01*
Y32534D01*
X31170Y38256D01*
Y39162D01*
X31260Y39252D01*
D70*
X27042Y38224D02*
X30079Y41260D01*
X30020Y46535D02*
X30079Y46476D01*
X28071Y46535D02*
X30020D01*
X30079Y41260D02*
Y44114D01*
D71*
X22638Y57559D02*
X26180D01*
X20133Y27217D02*
X21056Y28140D01*
X21560Y33600D02*
X23200D01*
X21056Y28140D02*
Y33143D01*
X21142Y33228D01*
X21188D01*
X21560Y33600D01*
X10290Y26233D02*
X12336D01*
X12820Y26716D02*
Y26993D01*
X12336Y26233D02*
X12820Y26716D01*
Y26993D02*
X12992Y27165D01*
X26180Y57559D02*
X26529Y57909D01*
X27376D01*
X24213Y62611D02*
X25244Y62568D01*
X26529Y62515D01*
X35367Y34541D02*
X35984Y35158D01*
X7008Y15905D02*
X9685D01*
X12615Y29016D02*
Y34734D01*
X11800Y28201D02*
X12615Y29016D01*
X10290Y28201D02*
X11800D01*
X22939Y62663D02*
X24213Y62611D01*
X22598Y62677D02*
X22939Y62663D01*
X10472Y15118D02*
X14919D01*
X15212Y15411D01*
Y17374D01*
X9685Y15905D02*
X10472Y15118D01*
X5372Y17374D02*
X13243D01*
X5079Y17081D02*
X5372Y17374D01*
X5079Y15827D02*
Y17081D01*
X4961Y15709D02*
X5079Y15827D01*
X7008Y13347D02*
X8622D01*
X8622Y13347D01*
X8937D01*
X2992Y13344D02*
X2995Y13347D01*
X4961D01*
X13115Y24973D02*
Y25061D01*
X12406Y24264D02*
X13115Y24973D01*
X10290Y24264D02*
X12406D01*
X27376Y57909D02*
X27815Y57470D01*
Y57382D02*
Y57470D01*
Y57382D02*
X28465Y56732D01*
X29976Y30170D02*
X31917D01*
X32835Y29252D01*
X38071Y25984D02*
X40040D01*
X40118Y26063D01*
X39055Y27125D02*
X40118Y26063D01*
X39055Y27125D02*
Y29567D01*
X35482Y26211D02*
X35709Y25984D01*
X32835Y28032D02*
X34655Y26211D01*
X32835Y28032D02*
Y29252D01*
X34655Y26211D02*
X35482D01*
X29976Y26233D02*
X29987Y26244D01*
X32465D01*
X32520Y26299D01*
X35984Y35158D02*
Y37874D01*
X31556Y32422D02*
X33674Y34541D01*
X31447Y32422D02*
X31556D01*
X29976Y32138D02*
X31163D01*
X31447Y32422D01*
X33674Y34541D02*
X35367D01*
X5787Y40175D02*
X6080Y39882D01*
X5787Y40175D02*
Y41260D01*
X6080Y39882D02*
X7467D01*
X9813Y37536D02*
Y37536D01*
X7467Y39882D02*
X9813Y37536D01*
Y37536D02*
X12615Y34734D01*
D72*
X24646Y50285D02*
Y51969D01*
D73*
X25984Y14488D02*
X34319D01*
X34921Y15091D01*
Y19791D02*
X35268Y20138D01*
X38484D01*
X39134Y20787D01*
X38484Y19980D02*
Y20138D01*
Y19980D02*
X39252Y19213D01*
D74*
X10095Y41408D02*
D03*
D75*
X6715Y5000D02*
D03*
D76*
X36715D02*
D03*
X26715D02*
D03*
X16715D02*
D03*
D77*
X25157Y21417D02*
D03*
X6339Y31339D02*
D03*
X14291Y33898D02*
D03*
X14606Y30236D02*
D03*
X20945Y31220D02*
D03*
X21142Y33228D02*
D03*
X12992Y27165D02*
D03*
X21142Y40079D02*
D03*
X11400Y55000D02*
D03*
X11102Y2283D02*
D03*
X11600Y40800D02*
D03*
X11024Y4606D02*
D03*
X11600Y63200D02*
D03*
X1600Y62150D02*
D03*
Y65000D02*
D03*
X15354Y32165D02*
D03*
X1600Y53600D02*
D03*
Y56450D02*
D03*
Y59300D02*
D03*
X22200Y2600D02*
D03*
X23200Y33600D02*
D03*
X23401Y42201D02*
D03*
X2400Y2400D02*
D03*
Y5600D02*
D03*
X27200Y33000D02*
D03*
X27600Y28201D02*
D03*
X28182Y44582D02*
D03*
X31400Y6800D02*
D03*
X31600Y3000D02*
D03*
X3800Y55400D02*
D03*
X4000Y62800D02*
D03*
X6200Y55400D02*
D03*
Y62800D02*
D03*
X8400Y57800D02*
D03*
Y60600D02*
D03*
X8600Y55400D02*
D03*
X9000Y63000D02*
D03*
X24213Y62598D02*
D03*
X23907Y57441D02*
D03*
X2342Y8742D02*
D03*
X8937Y13347D02*
D03*
X2992Y13344D02*
D03*
X13115Y25061D02*
D03*
X19134Y19646D02*
D03*
X23110Y19724D02*
D03*
X7795Y19764D02*
D03*
X12559Y20157D02*
D03*
X8059Y32138D02*
D03*
X3661Y43819D02*
D03*
X9449Y40512D02*
D03*
X28465Y56732D02*
D03*
X28071Y46535D02*
D03*
X32559Y24134D02*
D03*
X32520Y26299D02*
D03*
X33307Y31378D02*
D03*
X31850Y36220D02*
D03*
X39134Y20787D02*
D03*
X39252Y19213D02*
D03*
X29724Y17284D02*
D03*
X18268Y32087D02*
D03*
X23622Y31969D02*
D03*
X16732Y33779D02*
D03*
X19094Y33898D02*
D03*
X16292Y41621D02*
D03*
X13858Y63701D02*
D03*
X15394Y65630D02*
D03*
X18440D02*
D03*
X21486D02*
D03*
X24532D02*
D03*
X27579D02*
D03*
X30625D02*
D03*
X33671D02*
D03*
X36718D02*
D03*
X39764D02*
D03*
X42008Y32441D02*
D03*
X39402Y11654D02*
D03*
X36638D02*
D03*
X33874D02*
D03*
X31110D02*
D03*
X1339Y11417D02*
D03*
X1299Y22992D02*
D03*
Y29941D02*
D03*
X42008Y53228D02*
D03*
Y25512D02*
D03*
Y15118D02*
D03*
X42008Y11654D02*
D03*
X42008Y28976D02*
D03*
Y49764D02*
D03*
Y35906D02*
D03*
Y22047D02*
D03*
Y18583D02*
D03*
Y39370D02*
D03*
Y63622D02*
D03*
Y56693D02*
D03*
Y60157D02*
D03*
Y46299D02*
D03*
Y42835D02*
D03*
X28346Y11654D02*
D03*
X7106Y48740D02*
D03*
X10069D02*
D03*
X13032D02*
D03*
X4144D02*
D03*
X1299Y48740D02*
D03*
Y45522D02*
D03*
Y42303D02*
D03*
Y39085D02*
D03*
Y35866D02*
D03*
Y32648D02*
D03*
X21575Y50433D02*
D03*
X19646Y48740D02*
D03*
X22087Y48779D02*
D03*
X26063Y51417D02*
D03*
X38425Y52677D02*
D03*
X35906Y52362D02*
D03*
X25433Y32598D02*
D03*
X38346Y39331D02*
D03*
X40197Y37598D02*
D03*
X39803Y54488D02*
D03*
X20000Y64173D02*
D03*
X2756Y50827D02*
D03*
X5669Y50906D02*
D03*
X8852Y50852D02*
D03*
X11693Y50906D02*
D03*
X5039Y59055D02*
D03*
X16535Y56221D02*
D03*
X18779Y56496D02*
D03*
X14567Y55551D02*
D03*
X14213Y53347D02*
D03*
X14173Y51102D02*
D03*
X35394Y54606D02*
D03*
X39888Y62189D02*
D03*
X40827Y47677D02*
D03*
X40787Y13307D02*
D03*
X25315Y12480D02*
D03*
X19055Y27402D02*
D03*
X22953Y27598D02*
D03*
X15394Y28032D02*
D03*
X41260Y9173D02*
D03*
X41417Y1929D02*
D03*
X38110Y9606D02*
D03*
X35354Y9882D02*
D03*
X40551Y43976D02*
D03*
X40669Y40984D02*
D03*
X3504Y46496D02*
D03*
X6024Y46772D02*
D03*
X10197Y46614D02*
D03*
X8268Y46732D02*
D03*
X11024Y7008D02*
D03*
X41457Y5276D02*
D03*
X40827Y51299D02*
D03*
X37402Y54291D02*
D03*
X18819Y61890D02*
D03*
X16929Y64134D02*
D03*
X21142Y46496D02*
D03*
X21496Y43819D02*
D03*
X6890Y25669D02*
D03*
X5394Y26732D02*
D03*
X36378Y45158D02*
D03*
X17402Y20906D02*
D03*
X21063Y20945D02*
D03*
X14961Y20472D02*
D03*
X13110Y21969D02*
D03*
X14095Y40433D02*
D03*
X31260Y39252D02*
D03*
X33307Y39291D02*
D03*
X35906Y39488D02*
D03*
X32638Y45197D02*
D03*
X35276Y41260D02*
D03*
X9291Y35984D02*
D03*
X14055Y41969D02*
D03*
X26732Y22323D02*
D03*
X26969Y30591D02*
D03*
X27244Y25866D02*
D03*
X19449Y29921D02*
D03*
X25315Y28071D02*
D03*
X22284Y29921D02*
D03*
X24921Y30079D02*
D03*
X21063Y28307D02*
D03*
X16772Y30512D02*
D03*
X17402Y28622D02*
D03*
X32520Y52047D02*
D03*
X30354Y52126D02*
D03*
X28543Y51535D02*
D03*
M02*
