G04*
G04 #@! TF.GenerationSoftware,Altium Limited,Altium Designer,22.0.2 (36)*
G04*
G04 Layer_Physical_Order=4*
G04 Layer_Color=16711680*
%FSLAX25Y25*%
%MOIN*%
G70*
G04*
G04 #@! TF.SameCoordinates,14A72887-5544-470D-8401-3C00119275A7*
G04*
G04*
G04 #@! TF.FilePolarity,Positive*
G04*
G01*
G75*
%ADD12C,0.00600*%
%ADD15R,0.01181X0.01181*%
%ADD16R,0.01181X0.01181*%
%ADD22O,0.02362X0.02126*%
%ADD67C,0.01000*%
%ADD68C,0.01200*%
%ADD71C,0.00500*%
%ADD73C,0.01500*%
%ADD75R,0.06000X0.06000*%
%ADD76C,0.06000*%
%ADD77C,0.01400*%
%ADD79R,0.02400X0.02100*%
%ADD80R,0.03200X0.03500*%
%ADD81R,0.02000X0.04500*%
%ADD82R,0.02000X0.04500*%
%ADD83C,0.03600*%
%ADD84R,0.01299X0.01969*%
G36*
X42504Y803D02*
X21469D01*
X21262Y1303D01*
X21358Y1398D01*
X21545Y1850D01*
Y2493D01*
X21524Y2542D01*
X21532Y2583D01*
X21529Y2600D01*
X21532Y2617D01*
X21524Y2658D01*
X21545Y2707D01*
Y6468D01*
X23778Y8700D01*
X24055D01*
Y8978D01*
X24350Y9272D01*
X24537Y9724D01*
Y16142D01*
X24386Y16506D01*
Y16856D01*
X23883D01*
X23779Y16899D01*
X18032D01*
X17928Y16856D01*
X17465D01*
Y16766D01*
X16906D01*
Y16856D01*
X16607D01*
X14389Y19074D01*
X14075Y19204D01*
X13864Y19520D01*
X13796Y19761D01*
X13875Y20157D01*
X13775Y20661D01*
X13765Y20675D01*
X14032Y21175D01*
X16906D01*
Y26856D01*
X14562D01*
X14308Y27165D01*
X14208Y27669D01*
X13923Y28096D01*
X13496Y28381D01*
X12992Y28481D01*
X12905Y28464D01*
X11723Y29646D01*
Y33189D01*
X11658Y33517D01*
X11472Y33795D01*
X10291Y34976D01*
X10013Y35162D01*
X9685Y35227D01*
X8662D01*
X8495Y35394D01*
Y38996D01*
X8906Y39270D01*
X8995Y39286D01*
X9449Y39196D01*
X9952Y39296D01*
X10379Y39581D01*
X10999Y39649D01*
X11096Y39584D01*
X11600Y39484D01*
X12104Y39584D01*
X12530Y39870D01*
X12816Y40296D01*
X12916Y40800D01*
X12816Y41304D01*
X12530Y41730D01*
X12104Y42016D01*
X11600Y42116D01*
X11096Y42016D01*
X10670Y41730D01*
X10050Y41662D01*
X9952Y41728D01*
X9750Y41768D01*
X9585Y42310D01*
X9961Y42686D01*
X12323D01*
X12651Y42752D01*
X12929Y42937D01*
X26315Y56323D01*
X26500Y56601D01*
X26566Y56929D01*
Y61102D01*
X26500Y61430D01*
X26315Y61708D01*
X25511Y62512D01*
X25528Y62598D01*
X25428Y63102D01*
X25143Y63529D01*
X24716Y63814D01*
X24213Y63914D01*
X23709Y63814D01*
X23282Y63529D01*
X22997Y63102D01*
X22897Y62598D01*
X22997Y62095D01*
X23282Y61668D01*
X23709Y61383D01*
X24213Y61283D01*
X24299Y61300D01*
X24852Y60747D01*
Y58963D01*
X24477Y58703D01*
X24352Y58668D01*
X23907Y58757D01*
X23403Y58657D01*
X22976Y58371D01*
X22691Y57945D01*
X22591Y57441D01*
X22691Y56937D01*
X22818Y56747D01*
X11495Y45424D01*
X9016D01*
X8688Y45359D01*
X8410Y45173D01*
X6061Y42824D01*
X5875Y42546D01*
X5810Y42218D01*
Y34396D01*
X5875Y34068D01*
X6061Y33790D01*
X6990Y32861D01*
X6843Y32642D01*
X6743Y32138D01*
X6843Y31634D01*
X7128Y31208D01*
X7555Y30922D01*
X8059Y30822D01*
X8446Y30899D01*
X8946Y30623D01*
Y28373D01*
X9011Y28045D01*
X9197Y27767D01*
X11816Y25148D01*
X11799Y25061D01*
X11837Y24872D01*
X11468Y24372D01*
X10752D01*
X10682Y24403D01*
X10669Y24404D01*
Y24645D01*
X10155D01*
X10067Y24682D01*
X10031Y24667D01*
X9995Y24678D01*
X9936Y24645D01*
X8307D01*
X8238Y25117D01*
Y28032D01*
X8050Y28484D01*
X7598Y28671D01*
X4134D01*
X4134Y28671D01*
X3682Y28484D01*
Y28484D01*
X3052Y27854D01*
X2865Y27402D01*
Y26575D01*
X2943Y26385D01*
Y23615D01*
X2865Y23425D01*
Y20816D01*
X1885Y19836D01*
X1884Y19833D01*
X1880Y19831D01*
X1790Y19608D01*
X1698Y19384D01*
X1699Y19381D01*
X1698Y19377D01*
X1743Y15190D01*
X1759Y15153D01*
Y14549D01*
X1759D01*
X1911Y14049D01*
X1777Y13848D01*
X1676Y13344D01*
X1777Y12841D01*
X2062Y12414D01*
X2489Y12128D01*
X2680Y12090D01*
Y9501D01*
X5780D01*
X6261Y9501D01*
Y9501D01*
X6280D01*
Y9501D01*
X9083D01*
X9110Y9482D01*
X9187Y9494D01*
X9259Y9465D01*
X9347Y9501D01*
X9861D01*
Y9501D01*
X10338Y9444D01*
X12366Y7416D01*
X12382Y7370D01*
X12526Y7209D01*
X12635Y7058D01*
X12734Y6886D01*
X12823Y6693D01*
X12899Y6477D01*
X12964Y6237D01*
X12983Y6137D01*
Y2047D01*
X13170Y1595D01*
X13463Y1303D01*
X13255Y803D01*
X803D01*
Y66126D01*
X42504D01*
Y803D01*
D02*
G37*
G36*
X10073Y23990D02*
X10091Y23943D01*
X10121Y23901D01*
X10163Y23865D01*
X10217Y23834D01*
X10283Y23809D01*
X10361Y23789D01*
X10451Y23776D01*
X10553Y23767D01*
X10667Y23764D01*
Y23164D01*
X10553Y23162D01*
X10451Y23153D01*
X10361Y23139D01*
X10283Y23120D01*
X10217Y23095D01*
X10163Y23064D01*
X10121Y23028D01*
X10091Y22986D01*
X10073Y22939D01*
X10067Y22886D01*
Y24043D01*
X10073Y23990D01*
D02*
G37*
G36*
X14327Y22864D02*
X14321Y22921D01*
X14303Y22972D01*
X14273Y23017D01*
X14231Y23056D01*
X14177Y23089D01*
X14111Y23116D01*
X14033Y23137D01*
X13943Y23152D01*
X13841Y23161D01*
X13727Y23164D01*
Y23764D01*
X13841Y23767D01*
X13943Y23776D01*
X14033Y23791D01*
X14111Y23812D01*
X14177Y23839D01*
X14231Y23872D01*
X14273Y23911D01*
X14303Y23956D01*
X14321Y24007D01*
X14327Y24064D01*
Y22864D01*
D02*
G37*
G36*
X10014Y20518D02*
X9966Y20500D01*
X9925Y20470D01*
X9888Y20428D01*
X9858Y20374D01*
X9833Y20308D01*
X9813Y20230D01*
X9799Y20140D01*
X9791Y20038D01*
X9788Y19924D01*
X9188D01*
X9185Y20038D01*
X9177Y20140D01*
X9163Y20230D01*
X9144Y20308D01*
X9119Y20374D01*
X9088Y20428D01*
X9052Y20470D01*
X9010Y20500D01*
X8963Y20518D01*
X8910Y20524D01*
X10067D01*
X10014Y20518D01*
D02*
G37*
G36*
X9791Y19114D02*
X9800Y19012D01*
X9815Y18922D01*
X9836Y18844D01*
X9863Y18778D01*
X9896Y18724D01*
X9935Y18682D01*
X9980Y18652D01*
X10031Y18634D01*
X10088Y18628D01*
X8888D01*
X8945Y18634D01*
X8996Y18652D01*
X9041Y18682D01*
X9080Y18724D01*
X9113Y18778D01*
X9140Y18844D01*
X9161Y18922D01*
X9176Y19012D01*
X9185Y19114D01*
X9188Y19228D01*
X9788D01*
X9791Y19114D01*
D02*
G37*
G36*
X16339Y16220D02*
Y11929D01*
X16181Y11772D01*
X12953D01*
X9606Y15118D01*
X6654D01*
X6618Y18267D01*
X6970Y18622D01*
X7181D01*
X7292Y18548D01*
X7795Y18448D01*
X8299Y18548D01*
X8410Y18622D01*
X13937D01*
X16339Y16220D01*
D02*
G37*
G36*
X7598Y24606D02*
Y21457D01*
X5551Y19410D01*
Y16364D01*
X4384Y15197D01*
X2382D01*
X2337Y19384D01*
X3464Y20512D01*
X3504D01*
Y23425D01*
X3583D01*
Y26575D01*
X3504D01*
Y27402D01*
X4134Y28032D01*
X7598D01*
Y24606D01*
D02*
G37*
G36*
X9272Y12125D02*
X9311Y12076D01*
X9377Y12033D01*
X9469Y11995D01*
X9588Y11964D01*
X9732Y11938D01*
X9903Y11918D01*
X10323Y11895D01*
X10573Y11892D01*
Y10392D01*
X10323Y10389D01*
X9732Y10346D01*
X9588Y10320D01*
X9469Y10288D01*
X9377Y10251D01*
X9311Y10207D01*
X9272Y10159D01*
X9259Y10104D01*
Y12180D01*
X9272Y12125D01*
D02*
G37*
G36*
X23898Y16142D02*
Y9724D01*
X20906Y6732D01*
Y2707D01*
X20884Y2600D01*
X20906Y2493D01*
Y1850D01*
X20630Y1575D01*
X14095D01*
X13622Y2047D01*
Y6197D01*
X13587Y6380D01*
X13510Y6667D01*
X13416Y6933D01*
X13303Y7180D01*
X13173Y7405D01*
X13024Y7611D01*
X12858Y7796D01*
X13919Y8857D01*
X14104Y8691D01*
X14310Y8542D01*
X14536Y8412D01*
X14656Y8357D01*
X17835Y11535D01*
Y16063D01*
X18032Y16260D01*
X23779D01*
X23898Y16142D01*
D02*
G37*
%LPC*%
G36*
X33327Y64899D02*
X30925D01*
X30789Y64842D01*
X29764D01*
Y63656D01*
X29748Y63576D01*
X29748Y63576D01*
Y61241D01*
X29269D01*
Y58302D01*
X28769Y57987D01*
X28465Y58048D01*
X27961Y57948D01*
X27534Y57663D01*
X27249Y57236D01*
X27149Y56732D01*
X27249Y56229D01*
X27534Y55802D01*
X27772Y55643D01*
X27853Y55544D01*
X27854Y55544D01*
X27854Y55544D01*
X27858Y55539D01*
X27877Y55528D01*
X27938Y55489D01*
X27957Y55475D01*
X28266Y55200D01*
X28335Y55132D01*
X28411Y55101D01*
X29276Y54237D01*
X29554Y54051D01*
X29882Y53986D01*
X32007D01*
X33743Y52250D01*
Y51240D01*
X33009D01*
Y45559D01*
X36191D01*
Y51240D01*
X35457D01*
Y52605D01*
X35392Y52933D01*
X35206Y53211D01*
X32968Y55449D01*
X32690Y55634D01*
X32451Y55682D01*
Y61241D01*
X31972D01*
Y62424D01*
X33327D01*
X33463Y62480D01*
X34488D01*
Y62550D01*
X37933D01*
X38642Y61841D01*
X38662Y61741D01*
X38635Y61629D01*
X38368Y61241D01*
X36750D01*
Y55559D01*
X39930D01*
Y60881D01*
X40392Y60973D01*
X40819Y61258D01*
X41104Y61685D01*
X41204Y62189D01*
X41104Y62692D01*
X40819Y63119D01*
X40392Y63404D01*
X40182Y63446D01*
X39180Y64448D01*
X38820Y64689D01*
X38394Y64773D01*
X38394Y64773D01*
X34488D01*
Y64842D01*
X33463D01*
X33327Y64899D01*
D02*
G37*
G36*
X39930Y51240D02*
X36750D01*
Y45559D01*
X37288D01*
Y44699D01*
X35337D01*
Y44699D01*
X35266Y44660D01*
X33362D01*
Y44679D01*
X32337D01*
X32201Y44735D01*
X30237D01*
X29929Y45109D01*
X30116Y45559D01*
X32451D01*
Y51240D01*
X29269D01*
Y50010D01*
X28769Y49803D01*
X28405Y50167D01*
X28045Y50408D01*
X27751Y50467D01*
X27626Y50520D01*
X27381Y50523D01*
Y50562D01*
X26950Y50575D01*
X26861Y50564D01*
X26779Y50599D01*
X26690Y50562D01*
X25710D01*
X25622Y50599D01*
X25561Y50574D01*
X25498Y50587D01*
X25464Y50564D01*
X25430Y50562D01*
X24939D01*
X24902Y50587D01*
X24838Y50574D01*
X24779Y50599D01*
X24690Y50562D01*
X23019D01*
Y49537D01*
X22963Y49401D01*
Y47541D01*
X23053Y47541D01*
X23593Y47577D01*
X23615Y47587D01*
X23621Y47598D01*
Y46441D01*
X23615Y46460D01*
X23593Y46477D01*
X23558Y46492D01*
X23509Y46505D01*
X23446Y46516D01*
X23369Y46525D01*
X23172Y46537D01*
X22920Y46541D01*
Y47222D01*
X22480Y46957D01*
X22357Y47000D01*
X22072Y47427D01*
X21645Y47712D01*
X21142Y47812D01*
X20638Y47712D01*
X20211Y47427D01*
X19926Y47000D01*
X19826Y46496D01*
X19926Y45992D01*
X20211Y45566D01*
X20638Y45280D01*
X20821Y45244D01*
X21418Y44647D01*
X21418Y44647D01*
X21779Y44406D01*
X22205Y44321D01*
X22705D01*
X23066Y43960D01*
X22902Y43418D01*
X22897Y43417D01*
X22782Y43340D01*
X22159Y43339D01*
X22096Y43313D01*
X21582D01*
X21529Y43302D01*
X20400D01*
Y41135D01*
X20211Y41009D01*
X19926Y40582D01*
X19826Y40079D01*
X19926Y39575D01*
X20038Y39408D01*
X20069Y39251D01*
Y38386D01*
X20000D01*
Y36024D01*
X22362D01*
Y38386D01*
X22293D01*
Y39409D01*
X22293Y39409D01*
X22282Y39463D01*
X22357Y39575D01*
X22458Y40079D01*
X22386Y40440D01*
X22468Y40583D01*
X22762Y40940D01*
X23252Y40915D01*
X23401Y40885D01*
X23905Y40985D01*
X24331Y41271D01*
X24617Y41697D01*
X24618Y41702D01*
X25160Y41866D01*
X26920Y40107D01*
Y39649D01*
X26892Y39584D01*
X26885Y38725D01*
X26884Y38701D01*
X26851D01*
Y38259D01*
X26826Y38222D01*
X26839Y38158D01*
X26827Y38130D01*
X26769Y38043D01*
X26665Y37520D01*
Y35905D01*
X26769Y35382D01*
X27065Y34939D01*
X29230Y32774D01*
X29674Y32477D01*
X30197Y32373D01*
X31715D01*
X31962Y31933D01*
X31744Y31568D01*
X31715Y31554D01*
X31641Y31525D01*
X31576Y31507D01*
X31519Y31497D01*
X31432Y31492D01*
X31358Y31457D01*
X30866D01*
Y30943D01*
X30829Y30854D01*
X30837Y30836D01*
X30830Y30817D01*
X30866Y30744D01*
Y29815D01*
X30864Y29812D01*
X30733Y29631D01*
X30412Y29409D01*
X29234D01*
X29146Y29446D01*
X29057Y29409D01*
X28992D01*
X28942Y29413D01*
X28543Y29409D01*
X28051Y29427D01*
X27600Y29517D01*
X27096Y29417D01*
X26670Y29131D01*
X26384Y28705D01*
X26284Y28201D01*
X26384Y27697D01*
X26522Y27491D01*
X26653Y27246D01*
X26396Y26852D01*
X26314Y26797D01*
X26028Y26370D01*
X25928Y25866D01*
X26016Y25424D01*
X25975Y25287D01*
X25720Y24924D01*
X24470D01*
X24400Y24955D01*
X24386Y24955D01*
Y26856D01*
X21205D01*
Y21175D01*
X22059D01*
X22210Y20675D01*
X22180Y20655D01*
X21895Y20228D01*
X21794Y19724D01*
X21895Y19221D01*
X22180Y18794D01*
X22607Y18509D01*
X23110Y18409D01*
X23614Y18509D01*
X24041Y18794D01*
X24326Y19221D01*
X24426Y19724D01*
X24326Y20228D01*
X24041Y20655D01*
X24010Y20675D01*
X24162Y21175D01*
X24386D01*
Y23076D01*
X24400Y23077D01*
X24470Y23108D01*
X27021D01*
X27483Y22925D01*
X27520Y22837D01*
Y22323D01*
X27520Y22323D01*
X27520Y22322D01*
X27522Y22232D01*
X27524Y22228D01*
X27528Y22148D01*
X27559Y22094D01*
Y21809D01*
X27503Y21674D01*
Y19272D01*
X27690Y18820D01*
X28142Y18632D01*
X28520D01*
X28647Y18438D01*
X28740Y18132D01*
X28509Y17787D01*
X28409Y17284D01*
X28509Y16780D01*
X28794Y16353D01*
X29221Y16068D01*
X29724Y15968D01*
X30228Y16068D01*
X30655Y16353D01*
X30940Y16780D01*
X30950Y16828D01*
X30950Y16829D01*
X31217Y17007D01*
X31928Y17718D01*
X32059Y17914D01*
X32165D01*
Y18073D01*
X32169Y18079D01*
X32254Y18504D01*
X32169Y18930D01*
X32165Y18935D01*
Y20276D01*
X29977D01*
Y21674D01*
X29921Y21809D01*
Y22137D01*
X29937Y22165D01*
X29926Y22199D01*
X29940Y22232D01*
X29921Y22277D01*
Y22835D01*
X29921Y22835D01*
X29921Y22836D01*
X29919Y22925D01*
X29917Y22928D01*
X29914Y22998D01*
X29882Y23056D01*
Y23348D01*
X29938Y23484D01*
Y24685D01*
X30843D01*
X31253Y24185D01*
X31243Y24134D01*
X31343Y23630D01*
X31629Y23203D01*
X32056Y22918D01*
X32559Y22818D01*
X33063Y22918D01*
X33490Y23203D01*
X33775Y23630D01*
X33875Y24134D01*
X33810Y24458D01*
X34240Y24772D01*
X34264Y24756D01*
X35197Y24570D01*
X36130Y24756D01*
X36508Y25009D01*
X37008Y24742D01*
Y24193D01*
X36585Y24007D01*
X36556Y23995D01*
X36369Y23543D01*
Y17874D01*
X36556Y17422D01*
X37816Y16162D01*
X38268Y15975D01*
X40197D01*
X40314Y16024D01*
X40551D01*
Y16122D01*
X40649Y16162D01*
X40885Y16398D01*
X41072Y16850D01*
Y23189D01*
X40885Y23641D01*
X40881Y23645D01*
X40538Y24002D01*
X40700Y24165D01*
X40700Y24547D01*
Y25926D01*
X40700D01*
X40782Y26383D01*
X40820Y26575D01*
X40691Y27220D01*
X40367Y27706D01*
Y28362D01*
X40263Y28885D01*
X39966Y29329D01*
X34589Y34707D01*
X34145Y35003D01*
X33622Y35107D01*
X33260D01*
X32993Y35607D01*
X33066Y35717D01*
X33166Y36220D01*
X33637Y36417D01*
X34331D01*
Y38780D01*
X32778D01*
X32774Y38783D01*
X32722Y38780D01*
X32660D01*
X32571Y38816D01*
X32483Y38780D01*
X32042D01*
X31969Y38780D01*
X31969Y38780D01*
X31575Y38701D01*
X31096Y38725D01*
X31032Y38713D01*
X30972Y38737D01*
X30884Y38701D01*
X29188D01*
X29171Y39592D01*
X29144Y39654D01*
Y39913D01*
X29318Y40027D01*
X29269Y40794D01*
X29255Y40824D01*
X29241Y40834D01*
X30397D01*
X30383Y40824D01*
X30369Y40794D01*
X30358Y40744D01*
X30347Y40674D01*
X30332Y40474D01*
X30326Y40175D01*
X31739D01*
X32066Y39957D01*
X32394Y39892D01*
X32506Y39845D01*
X32524Y39852D01*
X32541Y39846D01*
X33030Y39872D01*
X33694D01*
X33759Y39845D01*
X33825Y39872D01*
X34874D01*
X34940Y39845D01*
X34969Y39857D01*
X34999Y39848D01*
X35217Y39868D01*
X35629Y39846D01*
X35647Y39852D01*
X35664Y39845D01*
X35729Y39872D01*
X36756D01*
X36821Y39845D01*
X36838Y39852D01*
X36856Y39846D01*
X37345Y39872D01*
X37774D01*
X38037Y39848D01*
X38067Y39857D01*
X38097Y39845D01*
X38190Y39884D01*
X38450Y39936D01*
X39581D01*
Y40961D01*
X39637Y41097D01*
Y43499D01*
X39581Y43634D01*
Y44660D01*
X39512D01*
Y45559D01*
X39930D01*
Y51240D01*
D02*
G37*
G36*
X3661Y45135D02*
X3158Y45035D01*
X2731Y44749D01*
X2446Y44322D01*
X2346Y43819D01*
X2446Y43315D01*
X2731Y42889D01*
X3158Y42603D01*
X3661Y42503D01*
X4165Y42603D01*
X4592Y42889D01*
X4877Y43315D01*
X4977Y43819D01*
X4877Y44322D01*
X4592Y44749D01*
X4165Y45035D01*
X3661Y45135D01*
D02*
G37*
G36*
X16292Y42937D02*
X15789Y42837D01*
X15362Y42552D01*
X15077Y42125D01*
X14976Y41621D01*
X15077Y41118D01*
X15203Y40928D01*
Y39724D01*
X15236Y39559D01*
Y38543D01*
X16252D01*
X16417Y38510D01*
X16582Y38543D01*
X17598D01*
Y39559D01*
X17631Y39724D01*
Y41442D01*
X17631Y41442D01*
X17602Y41590D01*
X17608Y41621D01*
X17508Y42125D01*
X17223Y42552D01*
X16796Y42837D01*
X16292Y42937D01*
D02*
G37*
G36*
X19134Y20962D02*
X18630Y20861D01*
X18203Y20576D01*
X17918Y20149D01*
X17818Y19646D01*
X17918Y19142D01*
X18203Y18715D01*
X18630Y18430D01*
X19134Y18330D01*
X19637Y18430D01*
X20064Y18715D01*
X20349Y19142D01*
X20450Y19646D01*
X20349Y20149D01*
X20064Y20576D01*
X19637Y20861D01*
X19134Y20962D01*
D02*
G37*
G36*
X36715Y8621D02*
X35778Y8498D01*
X34904Y8136D01*
X34154Y7561D01*
X33579Y6811D01*
X33217Y5937D01*
X33094Y5000D01*
X33217Y4063D01*
X33579Y3189D01*
X34154Y2439D01*
X34904Y1864D01*
X35778Y1502D01*
X36715Y1378D01*
X37652Y1502D01*
X38526Y1864D01*
X39276Y2439D01*
X39851Y3189D01*
X40213Y4063D01*
X40336Y5000D01*
X40213Y5937D01*
X39851Y6811D01*
X39276Y7561D01*
X38526Y8136D01*
X37652Y8498D01*
X36715Y8621D01*
D02*
G37*
G36*
X26715D02*
X25778Y8498D01*
X24904Y8136D01*
X24154Y7561D01*
X23579Y6811D01*
X23217Y5937D01*
X23094Y5000D01*
X23217Y4063D01*
X23579Y3189D01*
X24154Y2439D01*
X24904Y1864D01*
X25778Y1502D01*
X26715Y1378D01*
X27652Y1502D01*
X28526Y1864D01*
X29276Y2439D01*
X29851Y3189D01*
X30213Y4063D01*
X30336Y5000D01*
X30213Y5937D01*
X29851Y6811D01*
X29276Y7561D01*
X28526Y8136D01*
X27652Y8498D01*
X26715Y8621D01*
D02*
G37*
%LPD*%
G36*
X29052Y56342D02*
X29036Y56292D01*
X29028Y56241D01*
X29028Y56190D01*
X29036Y56140D01*
X29052Y56089D01*
X29075Y56038D01*
X29107Y55987D01*
X29146Y55936D01*
X29193Y55884D01*
X28784Y55587D01*
X28703Y55667D01*
X28361Y55971D01*
X28304Y56013D01*
X28203Y56079D01*
X28159Y56103D01*
X29076Y56392D01*
X29052Y56342D01*
D02*
G37*
G36*
X34852Y51043D02*
X34860Y50958D01*
X34872Y50883D01*
X34890Y50818D01*
X34912Y50763D01*
X34940Y50718D01*
X34973Y50683D01*
X35010Y50658D01*
X35052Y50643D01*
X35100Y50638D01*
X34100D01*
X34148Y50643D01*
X34190Y50658D01*
X34227Y50683D01*
X34260Y50718D01*
X34288Y50763D01*
X34310Y50818D01*
X34328Y50883D01*
X34340Y50958D01*
X34348Y51043D01*
X34350Y51138D01*
X34850D01*
X34852Y51043D01*
D02*
G37*
G36*
X25622Y49884D02*
X25778Y49881D01*
Y48881D01*
X25622Y48880D01*
Y48803D01*
X25611Y48817D01*
X25581Y48831D01*
X25532Y48842D01*
X25462Y48853D01*
X25326Y48863D01*
X24818Y48831D01*
X24789Y48817D01*
X24779Y48803D01*
Y48878D01*
X24622Y48881D01*
Y49881D01*
X24779Y49882D01*
Y49959D01*
X24789Y49945D01*
X24818Y49931D01*
X24869Y49920D01*
X24938Y49909D01*
X25074Y49899D01*
X25581Y49931D01*
X25611Y49945D01*
X25622Y49959D01*
Y49884D01*
D02*
G37*
G36*
X26787Y49945D02*
X26812Y49931D01*
X26854Y49920D01*
X26913Y49909D01*
X26989Y49901D01*
X27316Y49884D01*
X27619Y49881D01*
Y48881D01*
X27459Y48880D01*
X26854Y48842D01*
X26812Y48831D01*
X26787Y48817D01*
X26779Y48803D01*
Y49959D01*
X26787Y49945D01*
D02*
G37*
G36*
X29872Y47400D02*
X29862Y47495D01*
X29832Y47580D01*
X29782Y47655D01*
X29712Y47720D01*
X29622Y47775D01*
X29512Y47820D01*
X29382Y47855D01*
X29232Y47880D01*
X29062Y47895D01*
X28872Y47900D01*
Y48900D01*
X29062Y48905D01*
X29232Y48920D01*
X29382Y48945D01*
X29512Y48980D01*
X29622Y49025D01*
X29712Y49080D01*
X29782Y49145D01*
X29832Y49220D01*
X29862Y49305D01*
X29872Y49400D01*
Y47400D01*
D02*
G37*
G36*
X26787Y47583D02*
X26811Y47569D01*
X26851Y47558D01*
X26908Y47547D01*
X26981Y47539D01*
X27175Y47526D01*
X27587Y47519D01*
Y46519D01*
X27434Y46518D01*
X26851Y46481D01*
X26811Y46469D01*
X26787Y46455D01*
X26779Y46441D01*
Y47598D01*
X26787Y47583D01*
D02*
G37*
G36*
X23159Y41701D02*
X22970Y41699D01*
X22410Y41661D01*
X22320Y41644D01*
X22250Y41623D01*
X22199Y41600D01*
X22170Y41573D01*
X22160Y41543D01*
Y42700D01*
X23159Y42701D01*
Y41701D01*
D02*
G37*
G36*
X35940Y40578D02*
X35664Y40552D01*
Y40484D01*
X35205Y40509D01*
X34940Y40484D01*
Y40523D01*
X34664Y40538D01*
Y41695D01*
X34674Y41655D01*
X34703Y41619D01*
X34754Y41588D01*
X34824Y41560D01*
X34914Y41537D01*
X35023Y41518D01*
X35153Y41503D01*
X35260Y41498D01*
X35580Y41524D01*
X35690Y41547D01*
X35780Y41574D01*
X35850Y41607D01*
X35900Y41644D01*
X35930Y41687D01*
X35940Y41734D01*
Y40578D01*
D02*
G37*
G36*
X37107Y41687D02*
X37137Y41644D01*
X37187Y41607D01*
X37257Y41574D01*
X37347Y41547D01*
X37457Y41524D01*
X37480Y41521D01*
X37571Y41537D01*
X37661Y41560D01*
X37732Y41588D01*
X37782Y41619D01*
X37811Y41655D01*
X37821Y41695D01*
Y41492D01*
X37907Y41487D01*
X38097Y41484D01*
Y40484D01*
X37630Y40528D01*
X36821Y40484D01*
Y41484D01*
X37012Y41486D01*
X37097Y41492D01*
Y41734D01*
X37107Y41687D01*
D02*
G37*
G36*
X32770Y41889D02*
X32800Y41804D01*
X32849Y41729D01*
X32919Y41664D01*
X33009Y41609D01*
X33119Y41564D01*
X33235Y41533D01*
X33257Y41537D01*
X33347Y41560D01*
X33417Y41588D01*
X33467Y41619D01*
X33496Y41655D01*
X33507Y41695D01*
Y41495D01*
X33569Y41489D01*
X33759Y41484D01*
Y40484D01*
X33507Y40573D01*
Y40538D01*
X32506Y40484D01*
Y41484D01*
X32697Y41486D01*
X32759Y41491D01*
Y41984D01*
X32770Y41889D01*
D02*
G37*
G36*
X28551Y38622D02*
X28582Y38138D01*
X28595Y38108D01*
X28610Y38098D01*
X28561D01*
X28562Y38050D01*
X27501D01*
X27507Y38070D01*
X27510Y38098D01*
X27453D01*
X27468Y38108D01*
X27481Y38138D01*
X27493Y38188D01*
X27503Y38258D01*
X27519Y38458D01*
X27524Y38716D01*
X27532Y39579D01*
X28532D01*
X28551Y38622D01*
D02*
G37*
G36*
X32571Y37429D02*
X33071Y37020D01*
X32934Y37012D01*
X32811Y36988D01*
X32703Y36948D01*
X32610Y36892D01*
X32531Y36820D01*
X32466Y36732D01*
X32415Y36628D01*
X32379Y36508D01*
X32358Y36372D01*
X32350Y36220D01*
X31350D01*
X31341Y36372D01*
X31312Y36508D01*
X31264Y36628D01*
X31197Y36732D01*
X31111Y36820D01*
X31006Y36892D01*
X30882Y36948D01*
X30738Y36988D01*
X30575Y37012D01*
X30394Y37020D01*
X30972Y37417D01*
Y38098D01*
X30982Y38083D01*
X31012Y38070D01*
X31062Y38058D01*
X31132Y38048D01*
X31332Y38032D01*
X31791Y38023D01*
X32321Y38059D01*
X32411Y38076D01*
X32481Y38097D01*
X32531Y38120D01*
X32561Y38147D01*
X32571Y38177D01*
Y37429D01*
D02*
G37*
G36*
X33661Y31024D02*
X33464Y30825D01*
X32791Y30050D01*
X32719Y29939D01*
X32667Y29844D01*
X32636Y29763D01*
X32626Y29697D01*
X32618Y29687D01*
X32612Y29657D01*
X32606Y29607D01*
X32597Y29463D01*
X32637Y28847D01*
X32650Y28817D01*
X32665Y28807D01*
X32588D01*
X32587Y28697D01*
X31587D01*
X31586Y28807D01*
X31508D01*
X31523Y28817D01*
X31536Y28847D01*
X31548Y28897D01*
X31558Y28967D01*
X31570Y29122D01*
X31544Y29537D01*
X31529Y29607D01*
X31511Y29657D01*
X31491Y29687D01*
X31469Y29697D01*
X31584D01*
X31587Y29807D01*
X32516D01*
X31469Y30854D01*
X31591Y30861D01*
X31716Y30882D01*
X31842Y30918D01*
X31971Y30967D01*
X32101Y31031D01*
X32234Y31109D01*
X32368Y31201D01*
X32504Y31307D01*
X32643Y31427D01*
X32783Y31561D01*
X33661Y31024D01*
D02*
G37*
G36*
X29146Y27650D02*
X29136Y27660D01*
X29106Y27668D01*
X29056Y27676D01*
X28986Y27683D01*
X28656Y27696D01*
X28146Y27701D01*
Y28701D01*
X28336Y28702D01*
X29056Y28753D01*
X29106Y28769D01*
X29136Y28787D01*
X29146Y28807D01*
Y27650D01*
D02*
G37*
G36*
X33475Y26722D02*
X33498Y26721D01*
X33635Y26221D01*
X33631Y26221D01*
X33695Y26015D01*
X33665Y26054D01*
X33627Y26090D01*
X33582Y26120D01*
X33531Y26147D01*
X33473Y26170D01*
X33413Y26187D01*
X33385Y26177D01*
X33332Y26153D01*
X33283Y26123D01*
X33238Y26087D01*
X33196Y26046D01*
X33159Y25999D01*
X33125Y25947D01*
X32963Y26585D01*
X32920Y26721D01*
X32928Y26722D01*
X32884Y26897D01*
X32942Y26864D01*
X33060Y26807D01*
X33121Y26785D01*
X33182Y26765D01*
X33214Y26757D01*
X33228Y26761D01*
X33281Y26783D01*
X33323Y26811D01*
X33356Y26843D01*
X33380Y26880D01*
X33393Y26923D01*
X33397Y26970D01*
X33475Y26722D01*
D02*
G37*
G36*
X32020Y25809D02*
X31972Y25855D01*
X31922Y25896D01*
X31869Y25932D01*
X31815Y25963D01*
X31759Y25989D01*
X31700Y26011D01*
X31640Y26028D01*
X31577Y26040D01*
X31513Y26047D01*
X31446Y26049D01*
Y26549D01*
X31513Y26552D01*
X31577Y26559D01*
X31640Y26571D01*
X31700Y26588D01*
X31759Y26609D01*
X31815Y26636D01*
X31869Y26667D01*
X31922Y26703D01*
X31972Y26744D01*
X32020Y26789D01*
Y25809D01*
D02*
G37*
G36*
X28122Y25287D02*
X28113Y25302D01*
X28087Y25316D01*
X28043Y25328D01*
X27982Y25338D01*
X27903Y25346D01*
X27560Y25363D01*
X27244Y25366D01*
Y26366D01*
X27411Y26367D01*
X28043Y26405D01*
X28087Y26416D01*
X28113Y26430D01*
X28122Y26444D01*
Y25287D01*
D02*
G37*
G36*
Y24082D02*
Y23416D01*
X28116Y23473D01*
X28098Y23524D01*
X28068Y23569D01*
X28026Y23608D01*
X27972Y23641D01*
X27906Y23668D01*
X27828Y23689D01*
X27738Y23704D01*
X27636Y23713D01*
X27522Y23716D01*
Y24316D01*
X28122Y24082D01*
D02*
G37*
G36*
X23789Y24559D02*
X23807Y24508D01*
X23837Y24463D01*
X23879Y24424D01*
X23933Y24391D01*
X23999Y24364D01*
X24077Y24343D01*
X24167Y24328D01*
X24269Y24319D01*
X24383Y24316D01*
Y23716D01*
X24269Y23713D01*
X24167Y23704D01*
X24077Y23689D01*
X23999Y23668D01*
X23933Y23641D01*
X23879Y23608D01*
X23837Y23569D01*
X23807Y23524D01*
X23789Y23473D01*
X23783Y23416D01*
Y24616D01*
X23789Y24559D01*
D02*
G37*
G36*
X29226Y22919D02*
X29179Y22901D01*
X29137Y22871D01*
X29101Y22829D01*
X29070Y22775D01*
X29045Y22709D01*
X29026Y22631D01*
X29018Y22583D01*
X29028Y22526D01*
X29049Y22448D01*
X29076Y22382D01*
X29109Y22328D01*
X29148Y22286D01*
X29193Y22256D01*
X29244Y22238D01*
X29301Y22232D01*
X28162D01*
X28207Y22238D01*
X28248Y22256D01*
X28284Y22286D01*
X28315Y22328D01*
X28341Y22382D01*
X28363Y22448D01*
X28379Y22526D01*
X28385Y22570D01*
X28376Y22631D01*
X28356Y22709D01*
X28331Y22775D01*
X28300Y22829D01*
X28264Y22871D01*
X28223Y22901D01*
X28175Y22919D01*
X28122Y22925D01*
X29279D01*
X29226Y22919D01*
D02*
G37*
G36*
X40433Y23189D02*
Y16850D01*
X40197Y16614D01*
X38268D01*
X37008Y17874D01*
Y23543D01*
X40079D01*
X40433Y23189D01*
D02*
G37*
%LPC*%
G36*
X32587Y29736D02*
X32587Y29697D01*
X32626D01*
X32587Y29736D01*
D02*
G37*
%LPD*%
D12*
X28701Y21693D02*
Y23504D01*
Y21693D02*
X28740Y21654D01*
X9488Y17729D02*
Y21102D01*
X8649Y16890D02*
X9488Y17729D01*
Y23464D02*
X14764D01*
X15315Y24016D01*
X22795D02*
X28189D01*
X28701Y23504D01*
D15*
X26200Y47019D02*
D03*
Y49381D02*
D03*
X38400Y41117D02*
D03*
Y43479D02*
D03*
X36518Y41156D02*
D03*
Y43518D02*
D03*
X28740Y19291D02*
D03*
Y21654D02*
D03*
X28701Y23504D02*
D03*
Y25866D02*
D03*
X30945Y63661D02*
D03*
X33307D02*
D03*
X24200Y47019D02*
D03*
Y49381D02*
D03*
X29819Y41413D02*
D03*
X32181D02*
D03*
X34085Y41117D02*
D03*
Y43479D02*
D03*
X29819Y43498D02*
D03*
X32181D02*
D03*
X30984Y19095D02*
D03*
Y21457D02*
D03*
X28032Y37520D02*
D03*
X30394D02*
D03*
X33150Y37598D02*
D03*
X35512D02*
D03*
X19219Y42121D02*
D03*
X21581D02*
D03*
X30748Y25866D02*
D03*
Y23504D02*
D03*
X21181Y37205D02*
D03*
Y34843D02*
D03*
X39370Y14843D02*
D03*
Y17205D02*
D03*
D16*
X9488Y21102D02*
D03*
Y23464D02*
D03*
X29724Y28228D02*
D03*
X32087D02*
D03*
X32047Y30276D02*
D03*
X29685D02*
D03*
X16417Y39724D02*
D03*
Y37362D02*
D03*
D22*
X39016Y26575D02*
D03*
Y22795D02*
D03*
D67*
X27638Y17992D02*
X28650Y19004D01*
Y19201D01*
X28740Y19291D01*
X32491Y40984D02*
X38132D01*
X21142Y39449D02*
X21181Y39409D01*
Y37205D02*
Y39409D01*
X32181Y43499D02*
X34085D01*
X36518D01*
X38400D01*
X30394Y37520D02*
X33071D01*
X26200Y49381D02*
X27619D01*
X28600Y48400D01*
X30860D01*
X21582Y42201D02*
X23401D01*
X21581Y42200D02*
X21582Y42201D01*
X26200Y47019D02*
X27587D01*
X28071Y46535D01*
X27600Y28201D02*
X29188D01*
X32087Y28228D02*
Y30236D01*
X32047Y30276D02*
X32087Y30236D01*
X32295Y30366D02*
X33307Y31378D01*
X32138Y30366D02*
X32295D01*
X32047Y30276D02*
X32138Y30366D01*
X28032Y37520D02*
Y40567D01*
X31850Y36220D02*
Y37520D01*
X33071D02*
X33150Y37598D01*
X30431Y17793D02*
X31142Y18504D01*
X29833Y17284D02*
X30342Y17793D01*
X29724Y17284D02*
X29833D01*
X30342Y17793D02*
X30431D01*
X16417Y34203D02*
Y37362D01*
Y34203D02*
X16732Y33888D01*
Y33779D02*
Y33888D01*
X24200Y49381D02*
X26200D01*
X24178Y47041D02*
X24200Y47019D01*
X22920Y47041D02*
X24178D01*
X22163Y47798D02*
X22920Y47041D01*
X22163Y47798D02*
Y48703D01*
X22087Y48779D02*
X22163Y48703D01*
X39867Y62189D02*
X39888D01*
X38394Y63661D02*
X39867Y62189D01*
X33307Y63661D02*
X38394D01*
X30860Y58400D02*
Y63576D01*
X30945Y63661D01*
X38340Y48400D02*
X38400Y48340D01*
Y43499D02*
Y48340D01*
X29819Y39669D02*
Y41413D01*
Y39669D02*
X30079Y39409D01*
X28182Y44582D02*
X28197Y44567D01*
X28829D01*
X29819Y43576D01*
X28701Y25866D02*
X28701Y25866D01*
X27244Y25866D02*
X28701D01*
X27244Y25866D02*
X27244Y25866D01*
X22205Y45433D02*
X23166D01*
X21142Y46496D02*
X22205Y45433D01*
X23166D02*
X28032Y40567D01*
D68*
X16417Y39724D02*
Y41442D01*
X16292Y41567D02*
X16417Y41442D01*
X16292Y41567D02*
Y41621D01*
D71*
X9685Y34370D02*
X10866Y33189D01*
Y29291D02*
Y33189D01*
Y29291D02*
X12992Y27165D01*
X9803Y28373D02*
X13115Y25061D01*
X9803Y28373D02*
Y32795D01*
X9173Y33425D02*
X9803Y32795D01*
X8307Y34370D02*
X9685D01*
X7638Y33425D02*
X9173D01*
X6667Y34396D02*
X7638Y33425D01*
X6667Y34396D02*
Y42218D01*
X7638Y35039D02*
X8307Y34370D01*
X23790Y57324D02*
X23907Y57441D01*
X23790Y56507D02*
Y57324D01*
X11850Y44567D02*
X23790Y56507D01*
X9016Y44567D02*
X11850D01*
X6667Y42218D02*
X9016Y44567D01*
X7638Y35039D02*
Y41575D01*
X9606Y43543D01*
X12323D01*
X25709Y56929D01*
Y61102D01*
X24213Y62598D02*
X25709Y61102D01*
X34646Y26457D02*
X35197Y27008D01*
X34660Y26471D02*
X35197Y27008D01*
X32520Y26299D02*
X32692Y26471D01*
X34660D01*
X31381Y26299D02*
X32520D01*
X31289Y26206D02*
X31381Y26299D01*
X31089Y26206D02*
X31289D01*
X30748Y25866D02*
X31089Y26206D01*
X34600Y48400D02*
Y52605D01*
X32362Y54843D02*
X34600Y52605D01*
X29882Y54843D02*
X32362D01*
X28637Y56088D02*
X29882Y54843D01*
X28637Y56088D02*
Y56560D01*
X28465Y56732D02*
X28637Y56560D01*
D73*
X8071Y11142D02*
X10573D01*
X16715Y5000D01*
X28032Y35905D02*
X30197Y33740D01*
X28032Y35905D02*
Y37520D01*
X3949Y16890D02*
X4799Y16040D01*
Y14807D02*
Y16040D01*
Y14807D02*
X5472Y14134D01*
Y12284D02*
Y14134D01*
X4921Y11732D02*
X5472Y12284D01*
X4921Y11442D02*
Y11732D01*
X4621Y11142D02*
X4921Y11442D01*
X4471Y11142D02*
X4621D01*
X39000Y26591D02*
Y28362D01*
X30197Y33740D02*
X33622D01*
X39000Y26591D02*
X39016Y26575D01*
X33622Y33740D02*
X39000Y28362D01*
D75*
X6715Y5000D02*
D03*
D76*
X36715D02*
D03*
X26715D02*
D03*
X16715D02*
D03*
D77*
X25157Y21417D02*
D03*
X6339Y31339D02*
D03*
X14291Y33898D02*
D03*
X14606Y30236D02*
D03*
X20945Y31220D02*
D03*
X21142Y33228D02*
D03*
X12992Y27165D02*
D03*
X21142Y40079D02*
D03*
X11400Y55000D02*
D03*
X11102Y2283D02*
D03*
X11600Y40800D02*
D03*
X11024Y4606D02*
D03*
X11600Y63200D02*
D03*
X1600Y62150D02*
D03*
Y65000D02*
D03*
X15354Y32165D02*
D03*
X1600Y53600D02*
D03*
Y56450D02*
D03*
Y59300D02*
D03*
X22200Y2600D02*
D03*
X23200Y33600D02*
D03*
X23401Y42201D02*
D03*
X2400Y2400D02*
D03*
Y5600D02*
D03*
X27200Y33000D02*
D03*
X27600Y28201D02*
D03*
X28182Y44582D02*
D03*
X31400Y6800D02*
D03*
X31600Y3000D02*
D03*
X3800Y55400D02*
D03*
X4000Y62800D02*
D03*
X6200Y55400D02*
D03*
Y62800D02*
D03*
X8400Y57800D02*
D03*
Y60600D02*
D03*
X8600Y55400D02*
D03*
X9000Y63000D02*
D03*
X24213Y62598D02*
D03*
X23907Y57441D02*
D03*
X2342Y8742D02*
D03*
X8937Y13347D02*
D03*
X2992Y13344D02*
D03*
X13115Y25061D02*
D03*
X19134Y19646D02*
D03*
X23110Y19724D02*
D03*
X7795Y19764D02*
D03*
X12559Y20157D02*
D03*
X8059Y32138D02*
D03*
X3661Y43819D02*
D03*
X9449Y40512D02*
D03*
X28465Y56732D02*
D03*
X28071Y46535D02*
D03*
X32559Y24134D02*
D03*
X32520Y26299D02*
D03*
X33307Y31378D02*
D03*
X31850Y36220D02*
D03*
X39134Y20787D02*
D03*
X39252Y19213D02*
D03*
X29724Y17284D02*
D03*
X18268Y32087D02*
D03*
X23622Y31969D02*
D03*
X16732Y33779D02*
D03*
X19094Y33898D02*
D03*
X16292Y41621D02*
D03*
X13858Y63701D02*
D03*
X15394Y65630D02*
D03*
X18440D02*
D03*
X21486D02*
D03*
X24532D02*
D03*
X27579D02*
D03*
X30625D02*
D03*
X33671D02*
D03*
X36718D02*
D03*
X39764D02*
D03*
X42008Y32441D02*
D03*
X39402Y11654D02*
D03*
X36638D02*
D03*
X33874D02*
D03*
X31110D02*
D03*
X1339Y11417D02*
D03*
X1299Y22992D02*
D03*
Y29941D02*
D03*
X42008Y53228D02*
D03*
Y25512D02*
D03*
Y15118D02*
D03*
X42008Y11654D02*
D03*
X42008Y28976D02*
D03*
Y49764D02*
D03*
Y35906D02*
D03*
Y22047D02*
D03*
Y18583D02*
D03*
Y39370D02*
D03*
Y63622D02*
D03*
Y56693D02*
D03*
Y60157D02*
D03*
Y46299D02*
D03*
Y42835D02*
D03*
X28346Y11654D02*
D03*
X7106Y48740D02*
D03*
X10069D02*
D03*
X13032D02*
D03*
X4144D02*
D03*
X1299Y48740D02*
D03*
Y45522D02*
D03*
Y42303D02*
D03*
Y39085D02*
D03*
Y35866D02*
D03*
Y32648D02*
D03*
X21575Y50433D02*
D03*
X19646Y48740D02*
D03*
X22087Y48779D02*
D03*
X26063Y51417D02*
D03*
X38425Y52677D02*
D03*
X35906Y52362D02*
D03*
X25433Y32598D02*
D03*
X38346Y39331D02*
D03*
X40197Y37598D02*
D03*
X39803Y54488D02*
D03*
X20000Y64173D02*
D03*
X2756Y50827D02*
D03*
X5669Y50906D02*
D03*
X8852Y50852D02*
D03*
X11693Y50906D02*
D03*
X5039Y59055D02*
D03*
X16535Y56221D02*
D03*
X18779Y56496D02*
D03*
X14567Y55551D02*
D03*
X14213Y53347D02*
D03*
X14173Y51102D02*
D03*
X35394Y54606D02*
D03*
X39888Y62189D02*
D03*
X40827Y47677D02*
D03*
X40787Y13307D02*
D03*
X25315Y12480D02*
D03*
X19055Y27402D02*
D03*
X22953Y27598D02*
D03*
X15394Y28032D02*
D03*
X41260Y9173D02*
D03*
X41417Y1929D02*
D03*
X38110Y9606D02*
D03*
X35354Y9882D02*
D03*
X40551Y43976D02*
D03*
X40669Y40984D02*
D03*
X3504Y46496D02*
D03*
X6024Y46772D02*
D03*
X10197Y46614D02*
D03*
X8268Y46732D02*
D03*
X11024Y7008D02*
D03*
X41457Y5276D02*
D03*
X40827Y51299D02*
D03*
X37402Y54291D02*
D03*
X18819Y61890D02*
D03*
X16929Y64134D02*
D03*
X21142Y46496D02*
D03*
X21496Y43819D02*
D03*
X6890Y25669D02*
D03*
X5394Y26732D02*
D03*
X36378Y45158D02*
D03*
X17402Y20906D02*
D03*
X21063Y20945D02*
D03*
X14961Y20472D02*
D03*
X13110Y21969D02*
D03*
X14095Y40433D02*
D03*
X31260Y39252D02*
D03*
X33307Y39291D02*
D03*
X35906Y39488D02*
D03*
X32638Y45197D02*
D03*
X35276Y41260D02*
D03*
X9291Y35984D02*
D03*
X14055Y41969D02*
D03*
X26732Y22323D02*
D03*
X26969Y30591D02*
D03*
X27244Y25866D02*
D03*
X19449Y29921D02*
D03*
X25315Y28071D02*
D03*
X22284Y29921D02*
D03*
X24921Y30079D02*
D03*
X21063Y28307D02*
D03*
X16772Y30512D02*
D03*
X17402Y28622D02*
D03*
X32520Y52047D02*
D03*
X30354Y52126D02*
D03*
X28543Y51535D02*
D03*
D79*
X8071Y11142D02*
D03*
X4471D02*
D03*
D80*
X3949Y16890D02*
D03*
X8649D02*
D03*
D81*
X15315Y14016D02*
D03*
X19055D02*
D03*
X22795D02*
D03*
X15315Y24016D02*
D03*
X19055D02*
D03*
X22795D02*
D03*
D82*
X38340Y58400D02*
D03*
Y48400D02*
D03*
X34600Y58400D02*
D03*
Y48400D02*
D03*
X30860Y58400D02*
D03*
Y48400D02*
D03*
D83*
X35197Y27008D02*
D03*
D84*
X22815Y10276D02*
D03*
X25925D02*
D03*
X2343Y25000D02*
D03*
X5453D02*
D03*
X5374Y22087D02*
D03*
X2264D02*
D03*
M02*
