G04*
G04 #@! TF.GenerationSoftware,Altium Limited,Altium Designer,22.0.2 (36)*
G04*
G04 Layer_Color=32768*
%FSLAX25Y25*%
%MOIN*%
G70*
G04*
G04 #@! TF.SameCoordinates,14A72887-5544-470D-8401-3C00119275A7*
G04*
G04*
G04 #@! TF.FilePolarity,Positive*
G04*
G01*
G75*
%ADD11C,0.00236*%
%ADD67C,0.01000*%
%ADD71C,0.00500*%
%ADD92C,0.00591*%
%ADD98C,0.00250*%
%ADD107C,0.00201*%
%ADD109C,0.00598*%
D11*
X31771Y20670D02*
Y22245D01*
X30197D02*
X31771D01*
X30197Y20670D02*
Y22245D01*
X31771Y18308D02*
Y19882D01*
X30197Y18308D02*
X31771D01*
X30197D02*
Y19882D01*
X29607Y36732D02*
X31181D01*
Y38307D01*
X29607D02*
X31181D01*
X27244Y36732D02*
X28819D01*
X27244D02*
Y38307D01*
X28819D01*
X5355Y39134D02*
X6930D01*
Y37560D02*
Y39134D01*
X5355Y37560D02*
X6930D01*
X2993Y39134D02*
X4567D01*
X2993Y37560D02*
Y39134D01*
Y37560D02*
X4567D01*
X24188Y43331D02*
Y44906D01*
X22613Y43331D02*
X24188D01*
X22613D02*
Y44906D01*
X24188Y45694D02*
Y47268D01*
X22613D02*
X24188D01*
X22613Y45694D02*
Y47268D01*
X34724Y36810D02*
X36299D01*
Y38385D01*
X34724D02*
X36299D01*
X32362Y36810D02*
X33937D01*
X32362D02*
Y38385D01*
X33937D01*
X18432Y42909D02*
X20006D01*
X18432Y41334D02*
Y42909D01*
Y41334D02*
X20006D01*
X20794Y42909D02*
X22369D01*
Y41334D02*
Y42909D01*
X20794Y41334D02*
X22369D01*
X2992Y35217D02*
X4567D01*
X2992D02*
Y36792D01*
X4567D01*
X5354Y35217D02*
X6929D01*
Y36792D01*
X5354D02*
X6929D01*
X2993Y32874D02*
X4567D01*
X2993D02*
Y34449D01*
X4567D01*
X5355Y32874D02*
X6930D01*
Y34449D01*
X5355D02*
X6930D01*
X19449Y61890D02*
X21024D01*
X19449D02*
Y63464D01*
X21024D01*
X21811Y61890D02*
X23386D01*
Y63464D01*
X21811D02*
X23386D01*
X15708Y12638D02*
X17283D01*
X15708D02*
Y14213D01*
X17283D01*
X18071Y12638D02*
X19645D01*
Y14213D01*
X18071D02*
X19645D01*
X15629Y36574D02*
Y38149D01*
Y36574D02*
X17204D01*
Y38149D01*
X15629Y38937D02*
Y40511D01*
X17204D01*
Y38937D02*
Y40511D01*
X11019Y43611D02*
Y45186D01*
X12594D01*
Y43611D02*
Y45186D01*
X11019Y41249D02*
Y42824D01*
Y41249D02*
X12594D01*
Y42824D01*
X2598Y21969D02*
Y23543D01*
X4173D01*
Y21969D02*
Y23543D01*
X2598Y19606D02*
Y21181D01*
Y19606D02*
X4173D01*
Y21181D01*
X40905Y22914D02*
Y24489D01*
X39330Y22914D02*
X40905D01*
X39330D02*
Y24489D01*
X40905Y25276D02*
Y26851D01*
X39330D02*
X40905D01*
X39330Y25276D02*
Y26851D01*
X37558Y38661D02*
X39133D01*
Y37086D02*
Y38661D01*
X37558Y37086D02*
X39133D01*
X35196Y38661D02*
X36771D01*
X35196Y37086D02*
Y38661D01*
Y37086D02*
X36771D01*
X25433Y51378D02*
Y52953D01*
X23858Y51378D02*
X25433D01*
X23858D02*
Y52953D01*
X25433Y53740D02*
Y55315D01*
X23858D02*
X25433D01*
X23858Y53740D02*
Y55315D01*
X5906Y29133D02*
Y30708D01*
X7480D01*
Y29133D02*
Y30708D01*
X5906Y26771D02*
Y28346D01*
Y26771D02*
X7480D01*
Y28346D01*
X19448Y58859D02*
X21023D01*
X19448D02*
Y60434D01*
X21023D01*
X21811Y58859D02*
X23385D01*
Y60434D01*
X21811D02*
X23385D01*
X32599Y54960D02*
X34173D01*
Y53386D02*
Y54960D01*
X32599Y53386D02*
X34173D01*
X30236Y54960D02*
X31811D01*
X30236Y53386D02*
Y54960D01*
Y53386D02*
X31811D01*
X35393Y61614D02*
X36968D01*
X35393D02*
Y63189D01*
X36968D01*
X37755Y61614D02*
X39331D01*
X39330Y63189D02*
X39331Y61614D01*
X37756Y63189D02*
X39330D01*
X20743Y42555D02*
X22318D01*
Y40981D02*
Y42555D01*
X20743Y40981D02*
X22318D01*
X18381Y42555D02*
X19956D01*
X18381Y40981D02*
Y42555D01*
Y40981D02*
X19956D01*
X15867Y54056D02*
Y55630D01*
X17442D01*
Y54056D02*
Y55630D01*
X15867Y51693D02*
Y53268D01*
Y51693D02*
X17442D01*
Y53268D01*
X17865Y54054D02*
Y55629D01*
X19440D01*
Y54054D02*
Y55629D01*
X17865Y51692D02*
Y53268D01*
Y51692D02*
X19440D01*
Y53268D01*
X19488Y56771D02*
X21063D01*
X19488D02*
Y58346D01*
X21063D01*
X21850Y56771D02*
X23425D01*
Y58346D01*
X21850D02*
X23425D01*
X19863Y54054D02*
Y55629D01*
X21437D01*
Y54054D02*
Y55629D01*
X19863Y51692D02*
Y53268D01*
Y51692D02*
X21437D01*
Y53268D01*
X29961Y22716D02*
Y24291D01*
Y22716D02*
X31536D01*
Y24291D01*
X29961Y25078D02*
Y26653D01*
X31536D01*
Y25078D02*
Y26653D01*
X22834Y14173D02*
X24409D01*
Y12598D02*
Y14173D01*
X22834Y12598D02*
X24409D01*
X20472Y14173D02*
X22047D01*
X20472Y12598D02*
Y14173D01*
Y12598D02*
X22047D01*
X30866Y43327D02*
Y44902D01*
X29291Y43327D02*
X30866D01*
X29291D02*
Y44902D01*
X30866Y45689D02*
Y47264D01*
X29291D02*
X30866D01*
X29291Y45689D02*
Y47264D01*
X20394Y34056D02*
Y35631D01*
Y34056D02*
X21969D01*
Y35631D01*
X20394Y36417D02*
Y37993D01*
X21969D01*
Y36417D02*
Y37993D01*
X28268Y54961D02*
X29843D01*
Y53386D02*
Y54961D01*
X28268Y53386D02*
X29843D01*
X25906Y54961D02*
X27481D01*
X25906Y53386D02*
Y54961D01*
Y53386D02*
X27481D01*
X21860Y54054D02*
Y55629D01*
X23435D01*
Y54054D02*
Y55629D01*
X21860Y51692D02*
Y53268D01*
Y51692D02*
X23435D01*
Y53268D01*
X25537Y43793D02*
Y45369D01*
X27112D01*
Y43793D02*
Y45369D01*
X25537Y41431D02*
Y43007D01*
Y41431D02*
X27112D01*
Y43007D01*
X15867Y45827D02*
X17442Y45826D01*
X15867Y45827D02*
Y47401D01*
X17442Y47402D01*
X18228Y45827D02*
X19804D01*
X19803Y47402D02*
X19804Y45827D01*
X18229Y47402D02*
X19803D01*
X38582Y14055D02*
Y15630D01*
Y14055D02*
X40157D01*
Y15630D01*
X38582Y16417D02*
Y17992D01*
X40157D01*
Y16417D02*
Y17992D01*
D67*
X11881Y61815D02*
Y64161D01*
X11798Y64244D02*
X11881Y64161D01*
X11015Y64244D02*
X11798D01*
X11964Y54232D02*
Y56457D01*
X11798Y54067D02*
X11964Y54232D01*
X11180Y54067D02*
X11798D01*
X1377Y64039D02*
X1417Y63996D01*
X1003Y64039D02*
X1377D01*
X633Y63669D02*
X1003Y64039D01*
X633Y54193D02*
Y63669D01*
Y54193D02*
X842Y53984D01*
X1539D01*
D71*
X15181Y60728D02*
X18681D01*
X15181Y57397D02*
Y64098D01*
Y57397D02*
X18681D01*
Y64098D01*
X15181D02*
X18681D01*
D92*
X8932Y17693D02*
G03*
X8932Y17693I-882J0D01*
G01*
X27081Y55979D02*
X32592D01*
X27081Y64404D02*
X32592D01*
X38544Y15437D02*
X40118D01*
X38544Y16414D02*
X40118D01*
X10291Y35484D02*
Y37059D01*
X11865D01*
X28401D02*
X29976D01*
Y35484D02*
Y37059D01*
Y17374D02*
Y18949D01*
X28401Y17374D02*
X29976D01*
X10291D02*
Y18949D01*
Y17374D02*
X11865D01*
D98*
X23034Y14495D02*
X23153Y14733D01*
X23391Y14971D01*
X23629Y15090D01*
X24105D01*
X24343Y14971D01*
X24581Y14733D01*
X24700Y14495D01*
X24819Y14138D01*
Y13543D01*
X24700Y13186D01*
X24581Y12948D01*
X24343Y12710D01*
X24105Y12591D01*
X23629D01*
X23391Y12710D01*
X23153Y12948D01*
X23034Y13186D01*
X22094Y15090D02*
X20784D01*
X21498Y14138D01*
X21141D01*
X20903Y14019D01*
X20784Y13900D01*
X20665Y13543D01*
Y13305D01*
X20784Y12948D01*
X21023Y12710D01*
X21380Y12591D01*
X21737D01*
X22094Y12710D01*
X22213Y12829D01*
X22332Y13067D01*
X24740Y40653D02*
Y38154D01*
Y40653D02*
X23668D01*
X23311Y40534D01*
X23192Y40415D01*
X23073Y40177D01*
Y39939D01*
X23192Y39701D01*
X23311Y39582D01*
X23668Y39463D01*
X24740D02*
X23668D01*
X23311Y39344D01*
X23192Y39225D01*
X23073Y38987D01*
Y38630D01*
X23192Y38392D01*
X23311Y38273D01*
X23668Y38154D01*
X24740D01*
X21324Y40653D02*
X22514Y38987D01*
X20729D01*
X21324Y40653D02*
Y38154D01*
X7524Y36732D02*
Y34233D01*
Y36732D02*
X8595D01*
X8952Y36613D01*
X9071Y36494D01*
X9190Y36256D01*
Y36018D01*
X9071Y35780D01*
X8952Y35661D01*
X8595Y35542D01*
X7524D02*
X8595D01*
X8952Y35423D01*
X9071Y35304D01*
X9190Y35066D01*
Y34709D01*
X9071Y34470D01*
X8952Y34352D01*
X8595Y34233D01*
X7524D01*
X11178Y36732D02*
X9987D01*
X9868Y35661D01*
X9987Y35780D01*
X10345Y35899D01*
X10701D01*
X11059Y35780D01*
X11297Y35542D01*
X11416Y35185D01*
Y34947D01*
X11297Y34589D01*
X11059Y34352D01*
X10701Y34233D01*
X10345D01*
X9987Y34352D01*
X9868Y34470D01*
X9749Y34709D01*
X28512Y47705D02*
X31011D01*
X28512D02*
Y48776D01*
X28631Y49133D01*
X28750Y49252D01*
X28988Y49371D01*
X29226D01*
X29464Y49252D01*
X29583Y49133D01*
X29702Y48776D01*
Y47705D02*
Y48776D01*
X29821Y49133D01*
X29940Y49252D01*
X30178Y49371D01*
X30535D01*
X30773Y49252D01*
X30892Y49133D01*
X31011Y48776D01*
Y47705D01*
X28869Y51359D02*
X28631Y51240D01*
X28512Y50883D01*
Y50645D01*
X28631Y50288D01*
X28988Y50050D01*
X29583Y49931D01*
X30178D01*
X30654Y50050D01*
X30892Y50288D01*
X31011Y50645D01*
Y50764D01*
X30892Y51121D01*
X30654Y51359D01*
X30297Y51478D01*
X30178D01*
X29821Y51359D01*
X29583Y51121D01*
X29464Y50764D01*
Y50645D01*
X29583Y50288D01*
X29821Y50050D01*
X30178Y49931D01*
X30993Y39820D02*
X30874Y39582D01*
X30636Y39344D01*
X30398Y39225D01*
X29922D01*
X29684Y39344D01*
X29446Y39582D01*
X29327Y39820D01*
X29208Y40177D01*
Y40772D01*
X29327Y41129D01*
X29446Y41367D01*
X29684Y41605D01*
X29922Y41724D01*
X30398D01*
X30636Y41605D01*
X30874Y41367D01*
X30993Y41129D01*
X31695Y39701D02*
X31933Y39582D01*
X32290Y39225D01*
Y41724D01*
X34242Y39225D02*
X33885Y39344D01*
X33647Y39701D01*
X33528Y40296D01*
Y40653D01*
X33647Y41248D01*
X33885Y41605D01*
X34242Y41724D01*
X34480D01*
X34837Y41605D01*
X35075Y41248D01*
X35194Y40653D01*
Y40296D01*
X35075Y39701D01*
X34837Y39344D01*
X34480Y39225D01*
X34242D01*
X16560Y43534D02*
X16679Y43772D01*
X16917Y44010D01*
X17155Y44129D01*
X17631D01*
X17869Y44010D01*
X18107Y43772D01*
X18226Y43534D01*
X18345Y43176D01*
Y42581D01*
X18226Y42224D01*
X18107Y41986D01*
X17869Y41748D01*
X17631Y41629D01*
X17155D01*
X16917Y41748D01*
X16679Y41986D01*
X16560Y42224D01*
X15857Y43653D02*
X15619Y43772D01*
X15262Y44129D01*
Y41629D01*
X14025Y43653D02*
X13787Y43772D01*
X13429Y44129D01*
Y41629D01*
X1655Y40908D02*
X1536Y41146D01*
X1298Y41384D01*
X1060Y41503D01*
X584D01*
X346Y41384D01*
X108Y41146D01*
X-11Y40908D01*
X-130Y40551D01*
Y39956D01*
X-11Y39599D01*
X108Y39361D01*
X346Y39123D01*
X584Y39004D01*
X1060D01*
X1298Y39123D01*
X1536Y39361D01*
X1655Y39599D01*
X2357Y41027D02*
X2595Y41146D01*
X2952Y41503D01*
Y39004D01*
X4309Y40908D02*
Y41027D01*
X4428Y41265D01*
X4547Y41384D01*
X4785Y41503D01*
X5261D01*
X5499Y41384D01*
X5618Y41265D01*
X5737Y41027D01*
Y40789D01*
X5618Y40551D01*
X5380Y40194D01*
X4190Y39004D01*
X5856D01*
X-5026Y33794D02*
X-5145Y34032D01*
X-5383Y34270D01*
X-5621Y34389D01*
X-6097D01*
X-6335Y34270D01*
X-6573Y34032D01*
X-6692Y33794D01*
X-6811Y33437D01*
Y32842D01*
X-6692Y32485D01*
X-6573Y32247D01*
X-6335Y32009D01*
X-6097Y31890D01*
X-5621D01*
X-5383Y32009D01*
X-5145Y32247D01*
X-5026Y32485D01*
X-4324Y33913D02*
X-4085Y34032D01*
X-3728Y34389D01*
Y31890D01*
X-1300Y34389D02*
X-2490Y32723D01*
X-705D01*
X-1300Y34389D02*
Y31890D01*
X25160Y67502D02*
X25041Y67741D01*
X24803Y67979D01*
X24565Y68098D01*
X24089D01*
X23851Y67979D01*
X23613Y67741D01*
X23494Y67502D01*
X23374Y67146D01*
Y66550D01*
X23494Y66193D01*
X23613Y65955D01*
X23851Y65717D01*
X24089Y65598D01*
X24565D01*
X24803Y65717D01*
X25041Y65955D01*
X25160Y66193D01*
X25981Y67502D02*
Y67622D01*
X26100Y67860D01*
X26219Y67979D01*
X26457Y68098D01*
X26933D01*
X27171Y67979D01*
X27290Y67860D01*
X27409Y67622D01*
Y67383D01*
X27290Y67146D01*
X27052Y66788D01*
X25862Y65598D01*
X27528D01*
X28683Y68098D02*
X28326Y67979D01*
X28207Y67741D01*
Y67502D01*
X28326Y67264D01*
X28564Y67146D01*
X29040Y67026D01*
X29397Y66907D01*
X29635Y66669D01*
X29754Y66431D01*
Y66074D01*
X29635Y65836D01*
X29516Y65717D01*
X29159Y65598D01*
X28683D01*
X28326Y65717D01*
X28207Y65836D01*
X28088Y66074D01*
Y66431D01*
X28207Y66669D01*
X28445Y66907D01*
X28802Y67026D01*
X29278Y67146D01*
X29516Y67264D01*
X29635Y67502D01*
Y67741D01*
X29516Y67979D01*
X29159Y68098D01*
X28683D01*
X17415Y19187D02*
X17534Y18949D01*
X17772Y18711D01*
X18010Y18592D01*
X18486D01*
X18724Y18711D01*
X18962Y18949D01*
X19081Y19187D01*
X19200Y19544D01*
Y20139D01*
X19081Y20496D01*
X18962Y20734D01*
X18724Y20972D01*
X18486Y21091D01*
X18010D01*
X17772Y20972D01*
X17534Y20734D01*
X17415Y20496D01*
X16475Y18592D02*
X15165D01*
X15879Y19544D01*
X15522D01*
X15284Y19663D01*
X15165Y19782D01*
X15046Y20139D01*
Y20377D01*
X15165Y20734D01*
X15403Y20972D01*
X15760Y21091D01*
X16117D01*
X16475Y20972D01*
X16594Y20853D01*
X16713Y20615D01*
X13059Y18592D02*
X14249D01*
X14368Y19663D01*
X14249Y19544D01*
X13892Y19425D01*
X13535D01*
X13178Y19544D01*
X12940Y19782D01*
X12821Y20139D01*
Y20377D01*
X12940Y20734D01*
X13178Y20972D01*
X13535Y21091D01*
X13892D01*
X14249Y20972D01*
X14368Y20853D01*
X14487Y20615D01*
X22119Y34786D02*
X21881Y34905D01*
X21643Y35143D01*
X21524Y35381D01*
Y35857D01*
X21643Y36095D01*
X21881Y36333D01*
X22119Y36452D01*
X22476Y36571D01*
X23071D01*
X23428Y36452D01*
X23666Y36333D01*
X23904Y36095D01*
X24023Y35857D01*
Y35381D01*
X23904Y35143D01*
X23666Y34905D01*
X23428Y34786D01*
X21524Y33846D02*
Y32537D01*
X22476Y33251D01*
Y32893D01*
X22595Y32656D01*
X22714Y32537D01*
X23071Y32417D01*
X23309D01*
X23666Y32537D01*
X23904Y32774D01*
X24023Y33132D01*
Y33489D01*
X23904Y33846D01*
X23785Y33965D01*
X23547Y34084D01*
X21881Y30430D02*
X21643Y30549D01*
X21524Y30906D01*
Y31144D01*
X21643Y31501D01*
X22000Y31739D01*
X22595Y31858D01*
X23190D01*
X23666Y31739D01*
X23904Y31501D01*
X24023Y31144D01*
Y31025D01*
X23904Y30668D01*
X23666Y30430D01*
X23309Y30311D01*
X23190D01*
X22833Y30430D01*
X22595Y30668D01*
X22476Y31025D01*
Y31144D01*
X22595Y31501D01*
X22833Y31739D01*
X23190Y31858D01*
X16265Y41275D02*
X16146Y41513D01*
X15908Y41751D01*
X15670Y41870D01*
X15194D01*
X14956Y41751D01*
X14718Y41513D01*
X14599Y41275D01*
X14480Y40918D01*
Y40323D01*
X14599Y39966D01*
X14718Y39728D01*
X14956Y39490D01*
X15194Y39371D01*
X15670D01*
X15908Y39490D01*
X16146Y39728D01*
X16265Y39966D01*
X18396Y41513D02*
X18277Y41751D01*
X17920Y41870D01*
X17682D01*
X17325Y41751D01*
X17087Y41394D01*
X16968Y40799D01*
Y40204D01*
X17087Y39728D01*
X17325Y39490D01*
X17682Y39371D01*
X17801D01*
X18158Y39490D01*
X18396Y39728D01*
X18515Y40085D01*
Y40204D01*
X18396Y40561D01*
X18158Y40799D01*
X17801Y40918D01*
X17682D01*
X17325Y40799D01*
X17087Y40561D01*
X16968Y40204D01*
X-1496Y18828D02*
X-1734Y18709D01*
X-1972Y18471D01*
X-2091Y18233D01*
Y17757D01*
X-1972Y17519D01*
X-1734Y17281D01*
X-1496Y17162D01*
X-1139Y17043D01*
X-543D01*
X-186Y17162D01*
X52Y17281D01*
X290Y17519D01*
X409Y17757D01*
Y18233D01*
X290Y18471D01*
X52Y18709D01*
X-186Y18828D01*
X-2091Y21197D02*
X409Y20007D01*
X-2091Y19530D02*
Y21197D01*
X39135Y38300D02*
X38897Y38181D01*
X38659Y37943D01*
X38540Y37705D01*
Y37229D01*
X38659Y36991D01*
X38897Y36753D01*
X39135Y36634D01*
X39492Y36515D01*
X40087D01*
X40444Y36634D01*
X40682Y36753D01*
X40920Y36991D01*
X41039Y37229D01*
Y37705D01*
X40920Y37943D01*
X40682Y38181D01*
X40444Y38300D01*
X39016Y39003D02*
X38897Y39241D01*
X38540Y39598D01*
X41039D01*
X39373Y42383D02*
X39730Y42264D01*
X39968Y42026D01*
X40087Y41669D01*
Y41550D01*
X39968Y41193D01*
X39730Y40955D01*
X39373Y40835D01*
X39254D01*
X38897Y40955D01*
X38659Y41193D01*
X38540Y41550D01*
Y41669D01*
X38659Y42026D01*
X38897Y42264D01*
X39373Y42383D01*
X39968D01*
X40563Y42264D01*
X40920Y42026D01*
X41039Y41669D01*
Y41431D01*
X40920Y41074D01*
X40682Y40955D01*
X23414Y53821D02*
X23176Y53702D01*
X22938Y53464D01*
X22819Y53226D01*
Y52750D01*
X22938Y52512D01*
X23176Y52274D01*
X23414Y52155D01*
X23771Y52036D01*
X24366D01*
X24724Y52155D01*
X24962Y52274D01*
X25200Y52512D01*
X25319Y52750D01*
Y53226D01*
X25200Y53464D01*
X24962Y53702D01*
X24724Y53821D01*
X22819Y55713D02*
X24486Y54523D01*
Y56309D01*
X22819Y55713D02*
X25319D01*
X23295Y56749D02*
X23176Y56987D01*
X22819Y57344D01*
X25319D01*
X1836Y25840D02*
X1598Y25721D01*
X1360Y25483D01*
X1241Y25245D01*
Y24769D01*
X1360Y24531D01*
X1598Y24293D01*
X1836Y24174D01*
X2193Y24055D01*
X2788D01*
X3145Y24174D01*
X3383Y24293D01*
X3621Y24531D01*
X3740Y24769D01*
Y25245D01*
X3621Y25483D01*
X3383Y25721D01*
X3145Y25840D01*
X1836Y26662D02*
X1717D01*
X1479Y26781D01*
X1360Y26899D01*
X1241Y27138D01*
Y27614D01*
X1360Y27852D01*
X1479Y27971D01*
X1717Y28090D01*
X1955D01*
X2193Y27971D01*
X2550Y27733D01*
X3740Y26542D01*
Y28209D01*
X18101Y64523D02*
X17982Y64761D01*
X17744Y64999D01*
X17505Y65118D01*
X17029D01*
X16791Y64999D01*
X16553Y64761D01*
X16434Y64523D01*
X16315Y64166D01*
Y63571D01*
X16434Y63214D01*
X16553Y62976D01*
X16791Y62738D01*
X17029Y62619D01*
X17505D01*
X17744Y62738D01*
X17982Y62976D01*
X18101Y63214D01*
X18922Y64523D02*
Y64642D01*
X19041Y64880D01*
X19160Y64999D01*
X19398Y65118D01*
X19874D01*
X20112Y64999D01*
X20231Y64880D01*
X20350Y64642D01*
Y64404D01*
X20231Y64166D01*
X19993Y63809D01*
X18803Y62619D01*
X20469D01*
X21267Y65118D02*
X22576D01*
X21862Y64166D01*
X22219D01*
X22457Y64047D01*
X22576Y63928D01*
X22695Y63571D01*
Y63333D01*
X22576Y62976D01*
X22338Y62738D01*
X21981Y62619D01*
X21624D01*
X21267Y62738D01*
X21148Y62857D01*
X21029Y63095D01*
X33633Y50195D02*
X33871Y50314D01*
X34109Y50552D01*
X34228Y50790D01*
Y51266D01*
X34109Y51504D01*
X33871Y51742D01*
X33633Y51861D01*
X33276Y51980D01*
X32681D01*
X32324Y51861D01*
X32086Y51742D01*
X31848Y51504D01*
X31729Y51266D01*
Y50790D01*
X31848Y50552D01*
X32086Y50314D01*
X32324Y50195D01*
X34228Y48302D02*
X32562Y49493D01*
Y47707D01*
X34228Y48302D02*
X31729D01*
X34228Y47029D02*
Y45720D01*
X33276Y46434D01*
Y46077D01*
X33157Y45839D01*
X33038Y45720D01*
X32681Y45601D01*
X32443D01*
X32086Y45720D01*
X31848Y45958D01*
X31729Y46315D01*
Y46672D01*
X31848Y47029D01*
X31967Y47148D01*
X32205Y47267D01*
X13607Y36011D02*
X13488Y36249D01*
X13250Y36487D01*
X13012Y36606D01*
X12536D01*
X12298Y36487D01*
X12060Y36249D01*
X11941Y36011D01*
X11822Y35654D01*
Y35059D01*
X11941Y34702D01*
X12060Y34464D01*
X12298Y34226D01*
X12536Y34107D01*
X13012D01*
X13250Y34226D01*
X13488Y34464D01*
X13607Y34702D01*
X14429Y36011D02*
Y36130D01*
X14548Y36368D01*
X14667Y36487D01*
X14905Y36606D01*
X15381D01*
X15619Y36487D01*
X15738Y36368D01*
X15857Y36130D01*
Y35892D01*
X15738Y35654D01*
X15500Y35297D01*
X14310Y34107D01*
X15976D01*
X17726Y36606D02*
X16535Y34940D01*
X18321D01*
X17726Y36606D02*
Y34107D01*
X10944Y46357D02*
X11182Y46476D01*
X11420Y46714D01*
X11539Y46952D01*
Y47428D01*
X11420Y47666D01*
X11182Y47905D01*
X10944Y48024D01*
X10587Y48142D01*
X9992D01*
X9635Y48024D01*
X9397Y47905D01*
X9159Y47666D01*
X9040Y47428D01*
Y46952D01*
X9159Y46714D01*
X9397Y46476D01*
X9635Y46357D01*
X10944Y45536D02*
X11063D01*
X11301Y45417D01*
X11420Y45298D01*
X11539Y45060D01*
Y44584D01*
X11420Y44346D01*
X11301Y44227D01*
X11063Y44108D01*
X10825D01*
X10587Y44227D01*
X10230Y44465D01*
X9040Y45655D01*
Y43989D01*
X11539Y42001D02*
Y43191D01*
X10468Y43310D01*
X10587Y43191D01*
X10706Y42834D01*
Y42477D01*
X10587Y42120D01*
X10349Y41882D01*
X9992Y41763D01*
X9754D01*
X9397Y41882D01*
X9159Y42120D01*
X9040Y42477D01*
Y42834D01*
X9159Y43191D01*
X9278Y43310D01*
X9516Y43429D01*
X14721Y48516D02*
X14840Y48278D01*
X15078Y48040D01*
X15316Y47921D01*
X15792D01*
X16030Y48040D01*
X16269Y48278D01*
X16387Y48516D01*
X16507Y48873D01*
Y49468D01*
X16387Y49825D01*
X16269Y50064D01*
X16030Y50301D01*
X15792Y50420D01*
X15316D01*
X15078Y50301D01*
X14840Y50064D01*
X14721Y49825D01*
X12829Y47921D02*
X14019Y49587D01*
X12234D01*
X12829Y47921D02*
Y50420D01*
X11079Y47921D02*
X11436Y48040D01*
X11674Y48397D01*
X11793Y48992D01*
Y49349D01*
X11674Y49944D01*
X11436Y50301D01*
X11079Y50420D01*
X10841D01*
X10484Y50301D01*
X10246Y49944D01*
X10127Y49349D01*
Y48992D01*
X10246Y48397D01*
X10484Y48040D01*
X10841Y47921D01*
X11079D01*
X18281Y55325D02*
X18162Y55563D01*
X17924Y55801D01*
X17686Y55920D01*
X17210D01*
X16972Y55801D01*
X16734Y55563D01*
X16615Y55325D01*
X16496Y54968D01*
Y54373D01*
X16615Y54016D01*
X16734Y53778D01*
X16972Y53540D01*
X17210Y53421D01*
X17686D01*
X17924Y53540D01*
X18162Y53778D01*
X18281Y54016D01*
X19102Y55325D02*
Y55444D01*
X19221Y55682D01*
X19340Y55801D01*
X19578Y55920D01*
X20054D01*
X20292Y55801D01*
X20412Y55682D01*
X20530Y55444D01*
Y55206D01*
X20412Y54968D01*
X20174Y54611D01*
X18983Y53421D01*
X20650D01*
X22637Y55563D02*
X22518Y55801D01*
X22161Y55920D01*
X21923D01*
X21566Y55801D01*
X21328Y55444D01*
X21209Y54849D01*
Y54254D01*
X21328Y53778D01*
X21566Y53540D01*
X21923Y53421D01*
X22042D01*
X22399Y53540D01*
X22637Y53778D01*
X22756Y54135D01*
Y54254D01*
X22637Y54611D01*
X22399Y54849D01*
X22042Y54968D01*
X21923D01*
X21566Y54849D01*
X21328Y54611D01*
X21209Y54254D01*
X28033Y62184D02*
X27914Y62422D01*
X27676Y62660D01*
X27438Y62779D01*
X26962D01*
X26724Y62660D01*
X26486Y62422D01*
X26367Y62184D01*
X26248Y61827D01*
Y61232D01*
X26367Y60875D01*
X26486Y60637D01*
X26724Y60399D01*
X26962Y60280D01*
X27438D01*
X27676Y60399D01*
X27914Y60637D01*
X28033Y60875D01*
X29925Y62779D02*
X28735Y61113D01*
X30520D01*
X29925Y62779D02*
Y60280D01*
X31080Y62184D02*
Y62303D01*
X31199Y62541D01*
X31318Y62660D01*
X31556Y62779D01*
X32032D01*
X32270Y62660D01*
X32389Y62541D01*
X32508Y62303D01*
Y62065D01*
X32389Y61827D01*
X32151Y61470D01*
X30961Y60280D01*
X32627D01*
X25878Y26028D02*
Y28527D01*
Y26028D02*
X26949D01*
X27306Y26147D01*
X27425Y26265D01*
X27544Y26504D01*
Y26742D01*
X27425Y26980D01*
X27306Y27099D01*
X26949Y27218D01*
X25878D01*
X26711D02*
X27544Y28527D01*
X28104Y26504D02*
X28342Y26384D01*
X28699Y26028D01*
Y28527D01*
X29937Y26504D02*
X30175Y26384D01*
X30532Y26028D01*
Y28527D01*
X27007Y8016D02*
Y10516D01*
Y8016D02*
X25936D01*
X25579Y8135D01*
X25460Y8254D01*
X25341Y8492D01*
Y8731D01*
X25460Y8969D01*
X25579Y9088D01*
X25936Y9207D01*
X27007D01*
X26174D02*
X25341Y10516D01*
X23591Y8016D02*
X24781Y9683D01*
X22996D01*
X23591Y8016D02*
Y10516D01*
X25240Y44094D02*
Y41594D01*
Y44094D02*
X26311D01*
X26668Y43975D01*
X26787Y43856D01*
X26906Y43618D01*
Y43380D01*
X26787Y43142D01*
X26668Y43023D01*
X26311Y42904D01*
X25240D01*
X26073D02*
X26906Y41594D01*
X27584Y43499D02*
Y43618D01*
X27703Y43856D01*
X27823Y43975D01*
X28061Y44094D01*
X28537D01*
X28775Y43975D01*
X28894Y43856D01*
X29013Y43618D01*
Y43380D01*
X28894Y43142D01*
X28656Y42785D01*
X27465Y41594D01*
X29132D01*
X30405Y44094D02*
X30048Y43975D01*
X29810Y43618D01*
X29691Y43023D01*
Y42665D01*
X29810Y42070D01*
X30048Y41713D01*
X30405Y41594D01*
X30643D01*
X31000Y41713D01*
X31238Y42070D01*
X31357Y42665D01*
Y43023D01*
X31238Y43618D01*
X31000Y43975D01*
X30643Y44094D01*
X30405D01*
X19257Y34157D02*
X21756D01*
X19257D02*
Y33086D01*
X19376Y32729D01*
X19495Y32610D01*
X19733Y32491D01*
X19971D01*
X20209Y32610D01*
X20328Y32729D01*
X20447Y33086D01*
Y34157D01*
Y33324D02*
X21756Y32491D01*
X19852Y31813D02*
X19733D01*
X19495Y31694D01*
X19376Y31575D01*
X19257Y31337D01*
Y30861D01*
X19376Y30623D01*
X19495Y30503D01*
X19733Y30384D01*
X19971D01*
X20209Y30503D01*
X20566Y30742D01*
X21756Y31932D01*
Y30266D01*
X19733Y29706D02*
X19614Y29468D01*
X19257Y29111D01*
X21756D01*
X23145Y51468D02*
X20646D01*
Y50040D01*
X22312Y48219D02*
X21955Y48338D01*
X21717Y48576D01*
X21598Y48933D01*
Y49052D01*
X21717Y49409D01*
X21955Y49647D01*
X22312Y49766D01*
X22431D01*
X22788Y49647D01*
X23027Y49409D01*
X23145Y49052D01*
Y48933D01*
X23027Y48576D01*
X22788Y48338D01*
X22312Y48219D01*
X21717D01*
X21122Y48338D01*
X20765Y48576D01*
X20646Y48933D01*
Y49171D01*
X20765Y49528D01*
X21003Y49647D01*
X18081Y52271D02*
Y49771D01*
X19509D01*
X20378Y52271D02*
X20021Y52152D01*
X19902Y51914D01*
Y51676D01*
X20021Y51438D01*
X20259Y51319D01*
X20735Y51200D01*
X21092Y51081D01*
X21330Y50843D01*
X21449Y50605D01*
Y50248D01*
X21330Y50010D01*
X21211Y49891D01*
X20854Y49771D01*
X20378D01*
X20021Y49891D01*
X19902Y50010D01*
X19783Y50248D01*
Y50605D01*
X19902Y50843D01*
X20140Y51081D01*
X20497Y51200D01*
X20973Y51319D01*
X21211Y51438D01*
X21330Y51676D01*
Y51914D01*
X21211Y52152D01*
X20854Y52271D01*
X20378D01*
X27601Y46204D02*
X30100D01*
Y47632D01*
X27958Y49334D02*
X27720Y49215D01*
X27601Y48858D01*
Y48620D01*
X27720Y48263D01*
X28077Y48025D01*
X28672Y47906D01*
X29267D01*
X29743Y48025D01*
X29981Y48263D01*
X30100Y48620D01*
Y48739D01*
X29981Y49096D01*
X29743Y49334D01*
X29386Y49453D01*
X29267D01*
X28910Y49334D01*
X28672Y49096D01*
X28553Y48739D01*
Y48620D01*
X28672Y48263D01*
X28910Y48025D01*
X29267Y47906D01*
X15421Y41158D02*
Y43658D01*
X13993D01*
X13481Y41158D02*
X12172D01*
X12886Y42110D01*
X12529D01*
X12291Y42230D01*
X12172Y42349D01*
X12053Y42706D01*
Y42944D01*
X12172Y43301D01*
X12410Y43539D01*
X12767Y43658D01*
X13124D01*
X13481Y43539D01*
X13600Y43420D01*
X13719Y43182D01*
X37195Y19163D02*
X37433Y19044D01*
X37672Y18806D01*
X37791Y18568D01*
Y18092D01*
X37672Y17854D01*
X37433Y17616D01*
X37195Y17497D01*
X36838Y17378D01*
X36243D01*
X35886Y17497D01*
X35648Y17616D01*
X35410Y17854D01*
X35291Y18092D01*
Y18568D01*
X35410Y18806D01*
X35648Y19044D01*
X35886Y19163D01*
X37315Y19865D02*
X37433Y20103D01*
X37791Y20460D01*
X35291D01*
X37791Y22293D02*
X37672Y21936D01*
X37433Y21817D01*
X37195D01*
X36957Y21936D01*
X36838Y22174D01*
X36719Y22650D01*
X36600Y23007D01*
X36362Y23245D01*
X36124Y23364D01*
X35767D01*
X35529Y23245D01*
X35410Y23126D01*
X35291Y22769D01*
Y22293D01*
X35410Y21936D01*
X35529Y21817D01*
X35767Y21698D01*
X36124D01*
X36362Y21817D01*
X36600Y22055D01*
X36719Y22412D01*
X36838Y22888D01*
X36957Y23126D01*
X37195Y23245D01*
X37433D01*
X37672Y23126D01*
X37791Y22769D01*
Y22293D01*
Y24162D02*
Y25471D01*
X36838Y24757D01*
Y25114D01*
X36719Y25352D01*
X36600Y25471D01*
X36243Y25590D01*
X36005D01*
X35648Y25471D01*
X35410Y25233D01*
X35291Y24876D01*
Y24519D01*
X35410Y24162D01*
X35529Y24043D01*
X35767Y23924D01*
X-1200Y25668D02*
X-1438Y25549D01*
X-1676Y25311D01*
X-1795Y25073D01*
Y24596D01*
X-1676Y24358D01*
X-1438Y24120D01*
X-1200Y24001D01*
X-843Y23882D01*
X-248D01*
X109Y24001D01*
X347Y24120D01*
X585Y24358D01*
X704Y24596D01*
Y25073D01*
X585Y25311D01*
X347Y25549D01*
X109Y25668D01*
X-1319Y26370D02*
X-1438Y26608D01*
X-1795Y26965D01*
X704D01*
X36580Y39011D02*
X36461Y39249D01*
X36223Y39487D01*
X35985Y39606D01*
X35509D01*
X35271Y39487D01*
X35033Y39249D01*
X34914Y39011D01*
X34795Y38654D01*
Y38059D01*
X34914Y37702D01*
X35033Y37464D01*
X35271Y37225D01*
X35509Y37106D01*
X35985D01*
X36223Y37225D01*
X36461Y37464D01*
X36580Y37702D01*
X38711Y39606D02*
X37521D01*
X37402Y38535D01*
X37521Y38654D01*
X37878Y38773D01*
X38235D01*
X38592Y38654D01*
X38830Y38416D01*
X38949Y38059D01*
Y37821D01*
X38830Y37464D01*
X38592Y37225D01*
X38235Y37106D01*
X37878D01*
X37521Y37225D01*
X37402Y37345D01*
X37282Y37583D01*
X36307Y24222D02*
Y26721D01*
Y24222D02*
X37378D01*
X37735Y24341D01*
X37854Y24460D01*
X37973Y24698D01*
Y24936D01*
X37854Y25174D01*
X37735Y25293D01*
X37378Y25412D01*
X36307D02*
X37378D01*
X37735Y25531D01*
X37854Y25650D01*
X37973Y25888D01*
Y26245D01*
X37854Y26483D01*
X37735Y26602D01*
X37378Y26721D01*
X36307D01*
X40199Y24222D02*
X39009Y26721D01*
X38533Y24222D02*
X40199D01*
X10176Y48428D02*
X7677D01*
Y46999D01*
X9581Y46607D02*
X9700D01*
X9938Y46488D01*
X10057Y46369D01*
X10176Y46131D01*
Y45654D01*
X10057Y45416D01*
X9938Y45297D01*
X9700Y45178D01*
X9462D01*
X9224Y45297D01*
X8867Y45535D01*
X7677Y46726D01*
Y45059D01*
X11515Y24453D02*
X9015D01*
X11515D02*
Y23381D01*
X11396Y23024D01*
X11277Y22905D01*
X11039Y22786D01*
X10801D01*
X10563Y22905D01*
X10444Y23024D01*
X10325Y23381D01*
Y24453D02*
Y23381D01*
X10206Y23024D01*
X10087Y22905D01*
X9849Y22786D01*
X9492D01*
X9253Y22905D01*
X9134Y23024D01*
X9015Y23381D01*
Y24453D01*
X11039Y22227D02*
X11158Y21989D01*
X11515Y21632D01*
X9015D01*
X14215Y62429D02*
Y64334D01*
X14334Y64691D01*
X14453Y64810D01*
X14691Y64929D01*
X14929D01*
X15167Y64810D01*
X15286Y64691D01*
X15405Y64334D01*
Y64096D01*
X13572Y62906D02*
X13334Y62787D01*
X12977Y62429D01*
Y64929D01*
X27927Y59290D02*
X29712D01*
X30069Y59409D01*
X30307Y59647D01*
X30426Y60004D01*
Y60242D01*
X30307Y60599D01*
X30069Y60838D01*
X29712Y60957D01*
X27927D01*
X28522Y61766D02*
X28403D01*
X28165Y61885D01*
X28046Y62004D01*
X27927Y62242D01*
Y62718D01*
X28046Y62956D01*
X28165Y63075D01*
X28403Y63194D01*
X28641D01*
X28879Y63075D01*
X29236Y62837D01*
X30426Y61647D01*
Y63313D01*
X22350Y65338D02*
X19850D01*
X22350D02*
Y64505D01*
X22231Y64148D01*
X21993Y63910D01*
X21755Y63791D01*
X21397Y63672D01*
X20802D01*
X20445Y63791D01*
X20207Y63910D01*
X19969Y64148D01*
X19850Y64505D01*
Y65338D01*
X21755Y62993D02*
X21873D01*
X22111Y62874D01*
X22231Y62755D01*
X22350Y62517D01*
Y62041D01*
X22231Y61803D01*
X22111Y61684D01*
X21873Y61565D01*
X21635D01*
X21397Y61684D01*
X21040Y61922D01*
X19850Y63112D01*
Y61446D01*
X8885Y14827D02*
X10671D01*
X11028Y14946D01*
X11266Y15184D01*
X11385Y15541D01*
Y15779D01*
X11266Y16136D01*
X11028Y16374D01*
X10671Y16493D01*
X8885D01*
X9362Y17184D02*
X9243Y17422D01*
X8885Y17779D01*
X11385D01*
X33638Y31150D02*
X36138Y32816D01*
X33638D02*
X36138Y31150D01*
X34114Y33376D02*
X33995Y33614D01*
X33638Y33971D01*
X36138D01*
D107*
X40854Y27638D02*
Y30000D01*
X38098Y27638D02*
X40854D01*
D109*
X2909Y28610D02*
Y29110D01*
X4409Y28610D02*
Y29110D01*
X30539Y40470D02*
X31039D01*
X30539Y41969D02*
X31039D01*
X37835Y24488D02*
X38228Y24882D01*
X38622Y24488D01*
X39016Y24882D01*
X39409Y24488D01*
X39803Y24882D01*
X40197Y24488D01*
X16882Y42818D02*
X17276Y43215D01*
X16882Y43609D02*
X17276Y43215D01*
X16882Y43609D02*
X17272Y44003D01*
X16882Y44396D02*
X17272Y44003D01*
X16882Y44396D02*
X17272Y44786D01*
X16878Y45184D02*
X17272Y44786D01*
X6889Y22008D02*
X7283Y22402D01*
X6495D02*
X6889Y22008D01*
X6102D02*
X6495Y22402D01*
X5708D02*
X6102Y22008D01*
X5314D02*
X5708Y22402D01*
X4921D02*
X5314Y22008D01*
M02*
