G04*
G04 #@! TF.GenerationSoftware,Altium Limited,Altium Designer,22.0.2 (36)*
G04*
G04 Layer_Color=32896*
%FSLAX25Y25*%
%MOIN*%
G70*
G04*
G04 #@! TF.SameCoordinates,14A72887-5544-470D-8401-3C00119275A7*
G04*
G04*
G04 #@! TF.FilePolarity,Positive*
G04*
G01*
G75*
%ADD13C,0.00394*%
D13*
X40567Y17275D02*
X41035Y17743D01*
X41738Y17978D01*
X42675D01*
X43378Y17743D01*
X43847Y17275D01*
Y16806D01*
X43613Y16338D01*
X43378Y16104D01*
X42910Y15869D01*
X41504Y15401D01*
X41035Y15166D01*
X40801Y14932D01*
X40567Y14464D01*
Y13761D01*
X41035Y13292D01*
X41738Y13058D01*
X42675D01*
X43378Y13292D01*
X43847Y13761D01*
X39466Y17978D02*
Y13058D01*
Y17978D02*
X37357D01*
X36654Y17743D01*
X36420Y17509D01*
X36186Y17041D01*
Y16572D01*
X36420Y16104D01*
X36654Y15869D01*
X37357Y15635D01*
X39466D01*
X37826D02*
X36186Y13058D01*
X32742Y17978D02*
X35085Y14698D01*
X31570D01*
X32742Y17978D02*
Y13058D01*
X29298Y17978D02*
X30001Y17743D01*
X30469Y17041D01*
X30704Y15869D01*
Y15166D01*
X30469Y13995D01*
X30001Y13292D01*
X29298Y13058D01*
X28829D01*
X28126Y13292D01*
X27658Y13995D01*
X27424Y15166D01*
Y15869D01*
X27658Y17041D01*
X28126Y17743D01*
X28829Y17978D01*
X29298D01*
M02*
