G04*
G04 #@! TF.GenerationSoftware,Altium Limited,Altium Designer,22.0.2 (36)*
G04*
G04 Layer_Color=2752767*
%FSLAX25Y25*%
%MOIN*%
G70*
G04*
G04 #@! TF.SameCoordinates,14A72887-5544-470D-8401-3C00119275A7*
G04*
G04*
G04 #@! TF.FilePolarity,Positive*
G04*
G01*
G75*
%ADD12C,0.00600*%
%ADD110C,0.00200*%
%ADD111C,0.00267*%
%ADD112C,0.00960*%
%ADD113C,0.00667*%
D12*
X172334Y34047D02*
X172810Y34285D01*
X173524Y34999D01*
Y30000D01*
X178856Y34285D02*
X178618Y34761D01*
X177904Y34999D01*
X177428D01*
X176714Y34761D01*
X176237Y34047D01*
X175999Y32857D01*
Y31666D01*
X176237Y30714D01*
X176714Y30238D01*
X177428Y30000D01*
X177666D01*
X178380Y30238D01*
X178856Y30714D01*
X179094Y31428D01*
Y31666D01*
X178856Y32380D01*
X178380Y32857D01*
X177666Y33095D01*
X177428D01*
X176714Y32857D01*
X176237Y32380D01*
X175999Y31666D01*
X183522Y34999D02*
X181141Y30000D01*
X180189Y34999D02*
X183522D01*
X222967D02*
X220586Y30000D01*
X219634Y34999D02*
X222967D01*
X224323Y30476D02*
X224085Y30238D01*
X224323Y30000D01*
X224561Y30238D01*
X224323Y30476D01*
X228751Y33333D02*
X228513Y32618D01*
X228037Y32142D01*
X227323Y31904D01*
X227085D01*
X226371Y32142D01*
X225894Y32618D01*
X225656Y33333D01*
Y33571D01*
X225894Y34285D01*
X226371Y34761D01*
X227085Y34999D01*
X227323D01*
X228037Y34761D01*
X228513Y34285D01*
X228751Y33333D01*
Y32142D01*
X228513Y30952D01*
X228037Y30238D01*
X227323Y30000D01*
X226847D01*
X226132Y30238D01*
X225894Y30714D01*
X233202Y33333D02*
X232964Y32618D01*
X232488Y32142D01*
X231774Y31904D01*
X231536D01*
X230822Y32142D01*
X230346Y32618D01*
X230108Y33333D01*
Y33571D01*
X230346Y34285D01*
X230822Y34761D01*
X231536Y34999D01*
X231774D01*
X232488Y34761D01*
X232964Y34285D01*
X233202Y33333D01*
Y32142D01*
X232964Y30952D01*
X232488Y30238D01*
X231774Y30000D01*
X231298D01*
X230584Y30238D01*
X230346Y30714D01*
X234559Y33333D02*
Y30000D01*
Y32380D02*
X235273Y33095D01*
X235750Y33333D01*
X236464D01*
X236940Y33095D01*
X237178Y32380D01*
Y30000D01*
Y32380D02*
X237892Y33095D01*
X238368Y33333D01*
X239082D01*
X239558Y33095D01*
X239796Y32380D01*
Y30000D01*
X241843Y34999D02*
X242081Y34761D01*
X242319Y34999D01*
X242081Y35237D01*
X241843Y34999D01*
X242081Y33333D02*
Y30000D01*
X243200Y34999D02*
Y30000D01*
X249842Y35951D02*
X249366Y35475D01*
X248889Y34761D01*
X248413Y33809D01*
X248175Y32618D01*
Y31666D01*
X248413Y30476D01*
X248889Y29524D01*
X249366Y28810D01*
X249842Y28334D01*
X249366Y35475D02*
X248889Y34523D01*
X248652Y33809D01*
X248413Y32618D01*
Y31666D01*
X248652Y30476D01*
X248889Y29762D01*
X249366Y28810D01*
X252222Y34999D02*
X251508Y34761D01*
X251032Y34047D01*
X250794Y32857D01*
Y32142D01*
X251032Y30952D01*
X251508Y30238D01*
X252222Y30000D01*
X252698D01*
X253412Y30238D01*
X253888Y30952D01*
X254127Y32142D01*
Y32857D01*
X253888Y34047D01*
X253412Y34761D01*
X252698Y34999D01*
X252222D01*
X255483Y30476D02*
X255245Y30238D01*
X255483Y30000D01*
X255721Y30238D01*
X255483Y30476D01*
X257054Y33809D02*
Y34047D01*
X257293Y34523D01*
X257530Y34761D01*
X258007Y34999D01*
X258959D01*
X259435Y34761D01*
X259673Y34523D01*
X259911Y34047D01*
Y33571D01*
X259673Y33095D01*
X259197Y32380D01*
X256816Y30000D01*
X260149D01*
X262696Y34999D02*
X261982Y34761D01*
X261506Y34047D01*
X261268Y32857D01*
Y32142D01*
X261506Y30952D01*
X261982Y30238D01*
X262696Y30000D01*
X263172D01*
X263886Y30238D01*
X264362Y30952D01*
X264600Y32142D01*
Y32857D01*
X264362Y34047D01*
X263886Y34761D01*
X263172Y34999D01*
X262696D01*
X265957Y33809D02*
Y34047D01*
X266195Y34523D01*
X266433Y34761D01*
X266910Y34999D01*
X267862D01*
X268338Y34761D01*
X268576Y34523D01*
X268814Y34047D01*
Y33571D01*
X268576Y33095D01*
X268100Y32380D01*
X265719Y30000D01*
X269052D01*
X273265Y33333D02*
X273027Y32618D01*
X272551Y32142D01*
X271837Y31904D01*
X271599D01*
X270885Y32142D01*
X270409Y32618D01*
X270171Y33333D01*
Y33571D01*
X270409Y34285D01*
X270885Y34761D01*
X271599Y34999D01*
X271837D01*
X272551Y34761D01*
X273027Y34285D01*
X273265Y33333D01*
Y32142D01*
X273027Y30952D01*
X272551Y30238D01*
X271837Y30000D01*
X271361D01*
X270647Y30238D01*
X270409Y30714D01*
X277479Y34999D02*
X275098D01*
X274860Y32857D01*
X275098Y33095D01*
X275812Y33333D01*
X276526D01*
X277241Y33095D01*
X277717Y32618D01*
X277955Y31904D01*
Y31428D01*
X277717Y30714D01*
X277241Y30238D01*
X276526Y30000D01*
X275812D01*
X275098Y30238D01*
X274860Y30476D01*
X274622Y30952D01*
X279074Y33333D02*
Y30000D01*
Y32380D02*
X279788Y33095D01*
X280264Y33333D01*
X280978D01*
X281454Y33095D01*
X281692Y32380D01*
Y30000D01*
Y32380D02*
X282406Y33095D01*
X282882Y33333D01*
X283596D01*
X284072Y33095D01*
X284311Y32380D01*
Y30000D01*
X285882Y33333D02*
Y30000D01*
Y32380D02*
X286596Y33095D01*
X287072Y33333D01*
X287786D01*
X288262Y33095D01*
X288500Y32380D01*
Y30000D01*
Y32380D02*
X289214Y33095D01*
X289690Y33333D01*
X290404D01*
X290880Y33095D01*
X291119Y32380D01*
Y30000D01*
X292690Y35951D02*
X293166Y35475D01*
X293642Y34761D01*
X294118Y33809D01*
X294356Y32618D01*
Y31666D01*
X294118Y30476D01*
X293642Y29524D01*
X293166Y28810D01*
X292690Y28334D01*
X293166Y35475D02*
X293642Y34523D01*
X293880Y33809D01*
X294118Y32618D01*
Y31666D01*
X293880Y30476D01*
X293642Y29762D01*
X293166Y28810D01*
X302327Y32380D02*
X304469D01*
X305183Y32618D01*
X305421Y32857D01*
X305659Y33333D01*
Y34047D01*
X305421Y34523D01*
X305183Y34761D01*
X304469Y34999D01*
X302327D01*
Y30000D01*
X308444Y34999D02*
Y30000D01*
X306778Y34999D02*
X310111D01*
X310706D02*
Y30000D01*
X314038Y34999D02*
Y30000D01*
X310706Y32618D02*
X314038D01*
X334116Y34999D02*
Y30000D01*
Y34999D02*
X336258D01*
X336972Y34761D01*
X337211Y34523D01*
X337449Y34047D01*
Y33571D01*
X337211Y33095D01*
X336972Y32857D01*
X336258Y32618D01*
X334116D01*
X335782D02*
X337449Y30000D01*
X339758Y33333D02*
X339282Y33095D01*
X338806Y32618D01*
X338567Y31904D01*
Y31428D01*
X338806Y30714D01*
X339282Y30238D01*
X339758Y30000D01*
X340472D01*
X340948Y30238D01*
X341424Y30714D01*
X341662Y31428D01*
Y31904D01*
X341424Y32618D01*
X340948Y33095D01*
X340472Y33333D01*
X339758D01*
X342757D02*
Y30952D01*
X342995Y30238D01*
X343471Y30000D01*
X344185D01*
X344661Y30238D01*
X345375Y30952D01*
Y33333D02*
Y30000D01*
X346685Y33333D02*
Y30000D01*
Y32380D02*
X347399Y33095D01*
X347875Y33333D01*
X348589D01*
X349065Y33095D01*
X349303Y32380D01*
Y30000D01*
X353469Y34999D02*
Y30000D01*
Y32618D02*
X352993Y33095D01*
X352517Y33333D01*
X351803D01*
X351327Y33095D01*
X350851Y32618D01*
X350612Y31904D01*
Y31428D01*
X350851Y30714D01*
X351327Y30238D01*
X351803Y30000D01*
X352517D01*
X352993Y30238D01*
X353469Y30714D01*
X172334Y24047D02*
X172810Y24285D01*
X173524Y24999D01*
Y20000D01*
X178856Y24285D02*
X178618Y24761D01*
X177904Y24999D01*
X177428D01*
X176714Y24761D01*
X176237Y24047D01*
X175999Y22857D01*
Y21666D01*
X176237Y20714D01*
X176714Y20238D01*
X177428Y20000D01*
X177666D01*
X178380Y20238D01*
X178856Y20714D01*
X179094Y21428D01*
Y21666D01*
X178856Y22380D01*
X178380Y22857D01*
X177666Y23095D01*
X177428D01*
X176714Y22857D01*
X176237Y22380D01*
X175999Y21666D01*
X220824Y24999D02*
X220110Y24761D01*
X219872Y24285D01*
Y23809D01*
X220110Y23333D01*
X220586Y23095D01*
X221538Y22857D01*
X222252Y22618D01*
X222728Y22142D01*
X222967Y21666D01*
Y20952D01*
X222728Y20476D01*
X222490Y20238D01*
X221776Y20000D01*
X220824D01*
X220110Y20238D01*
X219872Y20476D01*
X219634Y20952D01*
Y21666D01*
X219872Y22142D01*
X220348Y22618D01*
X221062Y22857D01*
X222014Y23095D01*
X222490Y23333D01*
X222728Y23809D01*
Y24285D01*
X222490Y24761D01*
X221776Y24999D01*
X220824D01*
X224085Y23333D02*
Y20000D01*
Y22380D02*
X224799Y23095D01*
X225275Y23333D01*
X225990D01*
X226466Y23095D01*
X226704Y22380D01*
Y20000D01*
Y22380D02*
X227418Y23095D01*
X227894Y23333D01*
X228608D01*
X229084Y23095D01*
X229322Y22380D01*
Y20000D01*
X231369Y24999D02*
X231608Y24761D01*
X231845Y24999D01*
X231608Y25237D01*
X231369Y24999D01*
X231608Y23333D02*
Y20000D01*
X232726Y24999D02*
Y20000D01*
X239368Y25951D02*
X238892Y25475D01*
X238416Y24761D01*
X237940Y23809D01*
X237701Y22618D01*
Y21666D01*
X237940Y20476D01*
X238416Y19524D01*
X238892Y18810D01*
X239368Y18334D01*
X238892Y25475D02*
X238416Y24523D01*
X238177Y23809D01*
X237940Y22618D01*
Y21666D01*
X238177Y20476D01*
X238416Y19762D01*
X238892Y18810D01*
X241748Y24999D02*
X241034Y24761D01*
X240558Y24047D01*
X240320Y22857D01*
Y22142D01*
X240558Y20952D01*
X241034Y20238D01*
X241748Y20000D01*
X242224D01*
X242938Y20238D01*
X243414Y20952D01*
X243653Y22142D01*
Y22857D01*
X243414Y24047D01*
X242938Y24761D01*
X242224Y24999D01*
X241748D01*
X245009Y20476D02*
X244771Y20238D01*
X245009Y20000D01*
X245247Y20238D01*
X245009Y20476D01*
X246581Y23809D02*
Y24047D01*
X246818Y24523D01*
X247057Y24761D01*
X247533Y24999D01*
X248485D01*
X248961Y24761D01*
X249199Y24523D01*
X249437Y24047D01*
Y23571D01*
X249199Y23095D01*
X248723Y22380D01*
X246342Y20000D01*
X249675D01*
X252222Y24999D02*
X251508Y24761D01*
X251032Y24047D01*
X250794Y22857D01*
Y22142D01*
X251032Y20952D01*
X251508Y20238D01*
X252222Y20000D01*
X252698D01*
X253412Y20238D01*
X253888Y20952D01*
X254127Y22142D01*
Y22857D01*
X253888Y24047D01*
X253412Y24761D01*
X252698Y24999D01*
X252222D01*
X255721D02*
X258340D01*
X256912Y23095D01*
X257626D01*
X258102Y22857D01*
X258340Y22618D01*
X258578Y21904D01*
Y21428D01*
X258340Y20714D01*
X257864Y20238D01*
X257150Y20000D01*
X256435D01*
X255721Y20238D01*
X255483Y20476D01*
X255245Y20952D01*
X259935Y23809D02*
Y24047D01*
X260173Y24523D01*
X260411Y24761D01*
X260887Y24999D01*
X261839D01*
X262315Y24761D01*
X262553Y24523D01*
X262791Y24047D01*
Y23571D01*
X262553Y23095D01*
X262077Y22380D01*
X259697Y20000D01*
X263029D01*
X264148Y23333D02*
Y20000D01*
Y22380D02*
X264862Y23095D01*
X265338Y23333D01*
X266053D01*
X266529Y23095D01*
X266767Y22380D01*
Y20000D01*
Y22380D02*
X267481Y23095D01*
X267957Y23333D01*
X268671D01*
X269147Y23095D01*
X269385Y22380D01*
Y20000D01*
X270956Y23333D02*
Y20000D01*
Y22380D02*
X271670Y23095D01*
X272146Y23333D01*
X272861D01*
X273337Y23095D01*
X273575Y22380D01*
Y20000D01*
Y22380D02*
X274289Y23095D01*
X274765Y23333D01*
X275479D01*
X275955Y23095D01*
X276193Y22380D01*
Y20000D01*
X277764Y25951D02*
X278240Y25475D01*
X278716Y24761D01*
X279193Y23809D01*
X279431Y22618D01*
Y21666D01*
X279193Y20476D01*
X278716Y19524D01*
X278240Y18810D01*
X277764Y18334D01*
X278240Y25475D02*
X278716Y24523D01*
X278955Y23809D01*
X279193Y22618D01*
Y21666D01*
X278955Y20476D01*
X278716Y19762D01*
X278240Y18810D01*
X302327Y22380D02*
X304469D01*
X305183Y22618D01*
X305421Y22857D01*
X305659Y23333D01*
Y24047D01*
X305421Y24523D01*
X305183Y24761D01*
X304469Y24999D01*
X302327D01*
Y20000D01*
X308444Y24999D02*
Y20000D01*
X306778Y24999D02*
X310111D01*
X310706D02*
Y20000D01*
X314038Y24999D02*
Y20000D01*
X310706Y22618D02*
X314038D01*
X334116Y24999D02*
Y20000D01*
Y24999D02*
X336258D01*
X336972Y24761D01*
X337211Y24523D01*
X337449Y24047D01*
Y23571D01*
X337211Y23095D01*
X336972Y22857D01*
X336258Y22618D01*
X334116D01*
X335782D02*
X337449Y20000D01*
X339758Y23333D02*
X339282Y23095D01*
X338806Y22618D01*
X338567Y21904D01*
Y21428D01*
X338806Y20714D01*
X339282Y20238D01*
X339758Y20000D01*
X340472D01*
X340948Y20238D01*
X341424Y20714D01*
X341662Y21428D01*
Y21904D01*
X341424Y22618D01*
X340948Y23095D01*
X340472Y23333D01*
X339758D01*
X342757D02*
Y20952D01*
X342995Y20238D01*
X343471Y20000D01*
X344185D01*
X344661Y20238D01*
X345375Y20952D01*
Y23333D02*
Y20000D01*
X346685Y23333D02*
Y20000D01*
Y22380D02*
X347399Y23095D01*
X347875Y23333D01*
X348589D01*
X349065Y23095D01*
X349303Y22380D01*
Y20000D01*
X353469Y24999D02*
Y20000D01*
Y22618D02*
X352993Y23095D01*
X352517Y23333D01*
X351803D01*
X351327Y23095D01*
X350851Y22618D01*
X350612Y21904D01*
Y21428D01*
X350851Y20714D01*
X351327Y20238D01*
X351803Y20000D01*
X352517D01*
X352993Y20238D01*
X353469Y20714D01*
X174714Y14999D02*
X172334Y11666D01*
X175904D01*
X174714Y14999D02*
Y10000D01*
X222014Y14999D02*
X219634Y11666D01*
X223204D01*
X222014Y14999D02*
Y10000D01*
X225514Y14999D02*
X224799Y14761D01*
X224323Y14047D01*
X224085Y12856D01*
Y12142D01*
X224323Y10952D01*
X224799Y10238D01*
X225514Y10000D01*
X225990D01*
X226704Y10238D01*
X227180Y10952D01*
X227418Y12142D01*
Y12856D01*
X227180Y14047D01*
X226704Y14761D01*
X225990Y14999D01*
X225514D01*
X228537Y13333D02*
Y10000D01*
Y12380D02*
X229251Y13095D01*
X229727Y13333D01*
X230441D01*
X230917Y13095D01*
X231155Y12380D01*
Y10000D01*
Y12380D02*
X231869Y13095D01*
X232345Y13333D01*
X233060D01*
X233536Y13095D01*
X233774Y12380D01*
Y10000D01*
X235821Y14999D02*
X236059Y14761D01*
X236297Y14999D01*
X236059Y15237D01*
X235821Y14999D01*
X236059Y13333D02*
Y10000D01*
X237178Y14999D02*
Y10000D01*
X243819Y15951D02*
X243343Y15475D01*
X242867Y14761D01*
X242391Y13809D01*
X242153Y12618D01*
Y11666D01*
X242391Y10476D01*
X242867Y9524D01*
X243343Y8810D01*
X243819Y8334D01*
X243343Y15475D02*
X242867Y14523D01*
X242629Y13809D01*
X242391Y12618D01*
Y11666D01*
X242629Y10476D01*
X242867Y9762D01*
X243343Y8810D01*
X244771Y14047D02*
X245247Y14285D01*
X245962Y14999D01*
Y10000D01*
X248675Y10476D02*
X248437Y10238D01*
X248675Y10000D01*
X248913Y10238D01*
X248675Y10476D01*
X251437Y14999D02*
X250722Y14761D01*
X250246Y14047D01*
X250008Y12856D01*
Y12142D01*
X250246Y10952D01*
X250722Y10238D01*
X251437Y10000D01*
X251913D01*
X252627Y10238D01*
X253103Y10952D01*
X253341Y12142D01*
Y12856D01*
X253103Y14047D01*
X252627Y14761D01*
X251913Y14999D01*
X251437D01*
X254460Y14047D02*
X254936Y14285D01*
X255650Y14999D01*
Y10000D01*
X260982Y14285D02*
X260744Y14761D01*
X260030Y14999D01*
X259554D01*
X258840Y14761D01*
X258364Y14047D01*
X258126Y12856D01*
Y11666D01*
X258364Y10714D01*
X258840Y10238D01*
X259554Y10000D01*
X259792D01*
X260506Y10238D01*
X260982Y10714D01*
X261220Y11428D01*
Y11666D01*
X260982Y12380D01*
X260506Y12856D01*
X259792Y13095D01*
X259554D01*
X258840Y12856D01*
X258364Y12380D01*
X258126Y11666D01*
X262315Y13333D02*
Y10000D01*
Y12380D02*
X263029Y13095D01*
X263505Y13333D01*
X264219D01*
X264696Y13095D01*
X264934Y12380D01*
Y10000D01*
Y12380D02*
X265648Y13095D01*
X266124Y13333D01*
X266838D01*
X267314Y13095D01*
X267552Y12380D01*
Y10000D01*
X269123Y13333D02*
Y10000D01*
Y12380D02*
X269837Y13095D01*
X270314Y13333D01*
X271028D01*
X271504Y13095D01*
X271742Y12380D01*
Y10000D01*
Y12380D02*
X272456Y13095D01*
X272932Y13333D01*
X273646D01*
X274122Y13095D01*
X274360Y12380D01*
Y10000D01*
X275931Y15951D02*
X276407Y15475D01*
X276884Y14761D01*
X277360Y13809D01*
X277598Y12618D01*
Y11666D01*
X277360Y10476D01*
X276884Y9524D01*
X276407Y8810D01*
X275931Y8334D01*
X276407Y15475D02*
X276884Y14523D01*
X277122Y13809D01*
X277360Y12618D01*
Y11666D01*
X277122Y10476D01*
X276884Y9762D01*
X276407Y8810D01*
X302327Y12380D02*
X304469D01*
X305183Y12618D01*
X305421Y12856D01*
X305659Y13333D01*
Y14047D01*
X305421Y14523D01*
X305183Y14761D01*
X304469Y14999D01*
X302327D01*
Y10000D01*
X308444Y14999D02*
Y10000D01*
X306778Y14999D02*
X310111D01*
X310706D02*
Y10000D01*
X314038Y14999D02*
Y10000D01*
X310706Y12618D02*
X314038D01*
X334116Y14999D02*
Y10000D01*
Y14999D02*
X336258D01*
X336972Y14761D01*
X337211Y14523D01*
X337449Y14047D01*
Y13571D01*
X337211Y13095D01*
X336972Y12856D01*
X336258Y12618D01*
X334116D01*
X335782D02*
X337449Y10000D01*
X339758Y13333D02*
X339282Y13095D01*
X338806Y12618D01*
X338567Y11904D01*
Y11428D01*
X338806Y10714D01*
X339282Y10238D01*
X339758Y10000D01*
X340472D01*
X340948Y10238D01*
X341424Y10714D01*
X341662Y11428D01*
Y11904D01*
X341424Y12618D01*
X340948Y13095D01*
X340472Y13333D01*
X339758D01*
X342757D02*
Y10952D01*
X342995Y10238D01*
X343471Y10000D01*
X344185D01*
X344661Y10238D01*
X345375Y10952D01*
Y13333D02*
Y10000D01*
X346685Y13333D02*
Y10000D01*
Y12380D02*
X347399Y13095D01*
X347875Y13333D01*
X348589D01*
X349065Y13095D01*
X349303Y12380D01*
Y10000D01*
X353469Y14999D02*
Y10000D01*
Y12618D02*
X352993Y13095D01*
X352517Y13333D01*
X351803D01*
X351327Y13095D01*
X350851Y12618D01*
X350612Y11904D01*
Y11428D01*
X350851Y10714D01*
X351327Y10238D01*
X351803Y10000D01*
X352517D01*
X352993Y10238D01*
X353469Y10714D01*
X172334Y4047D02*
X172810Y4285D01*
X173524Y4999D01*
Y0D01*
X177190Y4999D02*
X176476Y4761D01*
X176237Y4285D01*
Y3809D01*
X176476Y3333D01*
X176952Y3095D01*
X177904Y2857D01*
X178618Y2619D01*
X179094Y2142D01*
X179332Y1666D01*
Y952D01*
X179094Y476D01*
X178856Y238D01*
X178142Y0D01*
X177190D01*
X176476Y238D01*
X176237Y476D01*
X175999Y952D01*
Y1666D01*
X176237Y2142D01*
X176714Y2619D01*
X177428Y2857D01*
X178380Y3095D01*
X178856Y3333D01*
X179094Y3809D01*
Y4285D01*
X178856Y4761D01*
X178142Y4999D01*
X177190D01*
X183783D02*
X181403Y0D01*
X180451Y4999D02*
X183783D01*
X193610D02*
Y0D01*
X191944Y4999D02*
X195276D01*
X197061Y3333D02*
X196585Y3095D01*
X196109Y2619D01*
X195871Y1904D01*
Y1428D01*
X196109Y714D01*
X196585Y238D01*
X197061Y0D01*
X197775D01*
X198252Y238D01*
X198728Y714D01*
X198966Y1428D01*
Y1904D01*
X198728Y2619D01*
X198252Y3095D01*
X197775Y3333D01*
X197061D01*
X200775Y4999D02*
Y952D01*
X201013Y238D01*
X201489Y0D01*
X201965D01*
X200061Y3333D02*
X201727D01*
X205536D02*
Y0D01*
Y2619D02*
X205060Y3095D01*
X204584Y3333D01*
X203870D01*
X203393Y3095D01*
X202917Y2619D01*
X202679Y1904D01*
Y1428D01*
X202917Y714D01*
X203393Y238D01*
X203870Y0D01*
X204584D01*
X205060Y238D01*
X205536Y714D01*
X206869Y4999D02*
Y0D01*
D110*
X5915Y4200D02*
Y5800D01*
X7515D01*
Y4200D01*
X5915D01*
X35915D02*
Y5800D01*
X37515D01*
Y4200D01*
X35915D01*
X25915D02*
Y5800D01*
X27515D01*
Y4200D01*
X25915D01*
X15915D02*
Y5800D01*
X17515D01*
Y4200D01*
X15915D01*
X8937Y12547D02*
X8137Y14146D01*
X9737D01*
X8937Y12547D01*
X2992Y12544D02*
X2192Y14144D01*
X3792D01*
X2992Y12544D01*
X19134Y18846D02*
X18334Y20446D01*
X19934D01*
X19134Y18846D01*
X23110Y18924D02*
X22310Y20524D01*
X23910D01*
X23110Y18924D01*
X7795Y18964D02*
X6995Y20564D01*
X8595D01*
X7795Y18964D01*
X12559Y19357D02*
X11759Y20957D01*
X13359D01*
X12559Y19357D01*
X8059Y31338D02*
X7259Y32938D01*
X8859D01*
X8059Y31338D01*
X3661Y43019D02*
X2861Y44619D01*
X4461D01*
X3661Y43019D01*
X28465Y55932D02*
X27665Y57532D01*
X29265D01*
X28465Y55932D01*
X28071Y45735D02*
X27271Y47335D01*
X28871D01*
X28071Y45735D01*
X32520Y25499D02*
X31720Y27099D01*
X33320D01*
X32520Y25499D01*
X33307Y30578D02*
X32507Y32178D01*
X34107D01*
X33307Y30578D01*
X31850Y35421D02*
X31050Y37020D01*
X32650D01*
X31850Y35421D01*
X39134Y19987D02*
X38334Y21587D01*
X39934D01*
X39134Y19987D01*
X39252Y18413D02*
X38452Y20013D01*
X40052D01*
X39252Y18413D01*
X35276Y40460D02*
X34476Y42060D01*
X36076D01*
X35276Y40460D01*
X137488Y20500D02*
X135488Y24500D01*
X139488D01*
X137488Y20500D01*
X135488Y10500D02*
Y14500D01*
X139488D01*
Y10500D01*
X135488D01*
D111*
X25958Y21417D02*
G03*
X25958Y21417I-800J0D01*
G01*
X7139Y31339D02*
G03*
X7139Y31339I-800J0D01*
G01*
X15091Y33898D02*
G03*
X15091Y33898I-800J0D01*
G01*
X15406Y30236D02*
G03*
X15406Y30236I-800J0D01*
G01*
X21745Y31220D02*
G03*
X21745Y31220I-800J0D01*
G01*
X21942Y33228D02*
G03*
X21942Y33228I-800J0D01*
G01*
X13792Y27165D02*
G03*
X13792Y27165I-800J0D01*
G01*
X21942Y40079D02*
G03*
X21942Y40079I-800J0D01*
G01*
X12200Y55000D02*
G03*
X12200Y55000I-800J0D01*
G01*
X11902Y2283D02*
G03*
X11902Y2283I-800J0D01*
G01*
X12400Y40800D02*
G03*
X12400Y40800I-800J0D01*
G01*
X11824Y4606D02*
G03*
X11824Y4606I-800J0D01*
G01*
X12400Y63200D02*
G03*
X12400Y63200I-800J0D01*
G01*
X2400Y62150D02*
G03*
X2400Y62150I-800J0D01*
G01*
Y65000D02*
G03*
X2400Y65000I-800J0D01*
G01*
X16154Y32165D02*
G03*
X16154Y32165I-800J0D01*
G01*
X2400Y53600D02*
G03*
X2400Y53600I-800J0D01*
G01*
Y56450D02*
G03*
X2400Y56450I-800J0D01*
G01*
Y59300D02*
G03*
X2400Y59300I-800J0D01*
G01*
X23000Y2600D02*
G03*
X23000Y2600I-800J0D01*
G01*
X24000Y33600D02*
G03*
X24000Y33600I-800J0D01*
G01*
X24201Y42201D02*
G03*
X24201Y42201I-800J0D01*
G01*
X3200Y2400D02*
G03*
X3200Y2400I-800J0D01*
G01*
Y5600D02*
G03*
X3200Y5600I-800J0D01*
G01*
X28000Y33000D02*
G03*
X28000Y33000I-800J0D01*
G01*
X28400Y28201D02*
G03*
X28400Y28201I-800J0D01*
G01*
X28982Y44582D02*
G03*
X28982Y44582I-800J0D01*
G01*
X32200Y6800D02*
G03*
X32200Y6800I-800J0D01*
G01*
X32400Y3000D02*
G03*
X32400Y3000I-800J0D01*
G01*
X4600Y55400D02*
G03*
X4600Y55400I-800J0D01*
G01*
X4800Y62800D02*
G03*
X4800Y62800I-800J0D01*
G01*
X7000Y55400D02*
G03*
X7000Y55400I-800J0D01*
G01*
Y62800D02*
G03*
X7000Y62800I-800J0D01*
G01*
X9200Y57800D02*
G03*
X9200Y57800I-800J0D01*
G01*
Y60600D02*
G03*
X9200Y60600I-800J0D01*
G01*
X9400Y55400D02*
G03*
X9400Y55400I-800J0D01*
G01*
X9800Y63000D02*
G03*
X9800Y63000I-800J0D01*
G01*
X25013Y62598D02*
G03*
X25013Y62598I-800J0D01*
G01*
X24707Y57441D02*
G03*
X24707Y57441I-800J0D01*
G01*
X3142Y8742D02*
G03*
X3142Y8742I-800J0D01*
G01*
X13915Y25061D02*
G03*
X13915Y25061I-800J0D01*
G01*
X10249Y40512D02*
G03*
X10249Y40512I-800J0D01*
G01*
X33359Y24134D02*
G03*
X33359Y24134I-800J0D01*
G01*
X30524Y17284D02*
G03*
X30524Y17284I-800J0D01*
G01*
X19068Y32087D02*
G03*
X19068Y32087I-800J0D01*
G01*
X24422Y31969D02*
G03*
X24422Y31969I-800J0D01*
G01*
X17532Y33779D02*
G03*
X17532Y33779I-800J0D01*
G01*
X19895Y33898D02*
G03*
X19895Y33898I-800J0D01*
G01*
X17092Y41621D02*
G03*
X17092Y41621I-800J0D01*
G01*
X14658Y63701D02*
G03*
X14658Y63701I-800J0D01*
G01*
X16194Y65630D02*
G03*
X16194Y65630I-800J0D01*
G01*
X19240D02*
G03*
X19240Y65630I-800J0D01*
G01*
X22286D02*
G03*
X22286Y65630I-800J0D01*
G01*
X25332D02*
G03*
X25332Y65630I-800J0D01*
G01*
X28379D02*
G03*
X28379Y65630I-800J0D01*
G01*
X31425D02*
G03*
X31425Y65630I-800J0D01*
G01*
X34471D02*
G03*
X34471Y65630I-800J0D01*
G01*
X37517D02*
G03*
X37517Y65630I-800J0D01*
G01*
X40564D02*
G03*
X40564Y65630I-800J0D01*
G01*
X42808Y32441D02*
G03*
X42808Y32441I-800J0D01*
G01*
X40202Y11654D02*
G03*
X40202Y11654I-800J0D01*
G01*
X37438D02*
G03*
X37438Y11654I-800J0D01*
G01*
X34674D02*
G03*
X34674Y11654I-800J0D01*
G01*
X31910D02*
G03*
X31910Y11654I-800J0D01*
G01*
X2139Y11417D02*
G03*
X2139Y11417I-800J0D01*
G01*
X2099Y22992D02*
G03*
X2099Y22992I-800J0D01*
G01*
Y29941D02*
G03*
X2099Y29941I-800J0D01*
G01*
X42808Y53228D02*
G03*
X42808Y53228I-800J0D01*
G01*
Y25512D02*
G03*
X42808Y25512I-800J0D01*
G01*
Y15118D02*
G03*
X42808Y15118I-800J0D01*
G01*
X42808Y11654D02*
G03*
X42808Y11654I-800J0D01*
G01*
X42808Y28976D02*
G03*
X42808Y28976I-800J0D01*
G01*
Y49764D02*
G03*
X42808Y49764I-800J0D01*
G01*
Y35906D02*
G03*
X42808Y35906I-800J0D01*
G01*
Y22047D02*
G03*
X42808Y22047I-800J0D01*
G01*
Y18583D02*
G03*
X42808Y18583I-800J0D01*
G01*
Y39370D02*
G03*
X42808Y39370I-800J0D01*
G01*
Y63622D02*
G03*
X42808Y63622I-800J0D01*
G01*
Y56693D02*
G03*
X42808Y56693I-800J0D01*
G01*
Y60157D02*
G03*
X42808Y60157I-800J0D01*
G01*
Y46299D02*
G03*
X42808Y46299I-800J0D01*
G01*
Y42835D02*
G03*
X42808Y42835I-800J0D01*
G01*
X29147Y11654D02*
G03*
X29147Y11654I-800J0D01*
G01*
X7906Y48740D02*
G03*
X7906Y48740I-800J0D01*
G01*
X10869D02*
G03*
X10869Y48740I-800J0D01*
G01*
X13832D02*
G03*
X13832Y48740I-800J0D01*
G01*
X4944D02*
G03*
X4944Y48740I-800J0D01*
G01*
X2099Y48740D02*
G03*
X2099Y48740I-800J0D01*
G01*
Y45522D02*
G03*
X2099Y45522I-800J0D01*
G01*
Y42303D02*
G03*
X2099Y42303I-800J0D01*
G01*
Y39085D02*
G03*
X2099Y39085I-800J0D01*
G01*
Y35866D02*
G03*
X2099Y35866I-800J0D01*
G01*
Y32648D02*
G03*
X2099Y32648I-800J0D01*
G01*
X22375Y50433D02*
G03*
X22375Y50433I-800J0D01*
G01*
X20446Y48740D02*
G03*
X20446Y48740I-800J0D01*
G01*
X22887Y48779D02*
G03*
X22887Y48779I-800J0D01*
G01*
X26863Y51417D02*
G03*
X26863Y51417I-800J0D01*
G01*
X39225Y52677D02*
G03*
X39225Y52677I-800J0D01*
G01*
X36705Y52362D02*
G03*
X36705Y52362I-800J0D01*
G01*
X26233Y32598D02*
G03*
X26233Y32598I-800J0D01*
G01*
X39147Y39331D02*
G03*
X39147Y39331I-800J0D01*
G01*
X40997Y37598D02*
G03*
X40997Y37598I-800J0D01*
G01*
X40603Y54488D02*
G03*
X40603Y54488I-800J0D01*
G01*
X20800Y64173D02*
G03*
X20800Y64173I-800J0D01*
G01*
X3556Y50827D02*
G03*
X3556Y50827I-800J0D01*
G01*
X6469Y50906D02*
G03*
X6469Y50906I-800J0D01*
G01*
X9652Y50852D02*
G03*
X9652Y50852I-800J0D01*
G01*
X12493Y50906D02*
G03*
X12493Y50906I-800J0D01*
G01*
X5839Y59055D02*
G03*
X5839Y59055I-800J0D01*
G01*
X17335Y56221D02*
G03*
X17335Y56221I-800J0D01*
G01*
X19579Y56496D02*
G03*
X19579Y56496I-800J0D01*
G01*
X15367Y55551D02*
G03*
X15367Y55551I-800J0D01*
G01*
X15013Y53347D02*
G03*
X15013Y53347I-800J0D01*
G01*
X14973Y51102D02*
G03*
X14973Y51102I-800J0D01*
G01*
X36194Y54606D02*
G03*
X36194Y54606I-800J0D01*
G01*
X40688Y62189D02*
G03*
X40688Y62189I-800J0D01*
G01*
X41627Y47677D02*
G03*
X41627Y47677I-800J0D01*
G01*
X41587Y13307D02*
G03*
X41587Y13307I-800J0D01*
G01*
X26115Y12480D02*
G03*
X26115Y12480I-800J0D01*
G01*
X19855Y27402D02*
G03*
X19855Y27402I-800J0D01*
G01*
X23753Y27598D02*
G03*
X23753Y27598I-800J0D01*
G01*
X16194Y28032D02*
G03*
X16194Y28032I-800J0D01*
G01*
X42060Y9173D02*
G03*
X42060Y9173I-800J0D01*
G01*
X42217Y1929D02*
G03*
X42217Y1929I-800J0D01*
G01*
X38910Y9606D02*
G03*
X38910Y9606I-800J0D01*
G01*
X36154Y9882D02*
G03*
X36154Y9882I-800J0D01*
G01*
X41351Y43976D02*
G03*
X41351Y43976I-800J0D01*
G01*
X41469Y40984D02*
G03*
X41469Y40984I-800J0D01*
G01*
X4304Y46496D02*
G03*
X4304Y46496I-800J0D01*
G01*
X6824Y46772D02*
G03*
X6824Y46772I-800J0D01*
G01*
X10997Y46614D02*
G03*
X10997Y46614I-800J0D01*
G01*
X9068Y46732D02*
G03*
X9068Y46732I-800J0D01*
G01*
X11824Y7008D02*
G03*
X11824Y7008I-800J0D01*
G01*
X42257Y5276D02*
G03*
X42257Y5276I-800J0D01*
G01*
X41627Y51299D02*
G03*
X41627Y51299I-800J0D01*
G01*
X38202Y54291D02*
G03*
X38202Y54291I-800J0D01*
G01*
X19619Y61890D02*
G03*
X19619Y61890I-800J0D01*
G01*
X17729Y64134D02*
G03*
X17729Y64134I-800J0D01*
G01*
X21942Y46496D02*
G03*
X21942Y46496I-800J0D01*
G01*
X22296Y43819D02*
G03*
X22296Y43819I-800J0D01*
G01*
X7690Y25669D02*
G03*
X7690Y25669I-800J0D01*
G01*
X6194Y26732D02*
G03*
X6194Y26732I-800J0D01*
G01*
X37178Y45158D02*
G03*
X37178Y45158I-800J0D01*
G01*
X18202Y20906D02*
G03*
X18202Y20906I-800J0D01*
G01*
X21863Y20945D02*
G03*
X21863Y20945I-800J0D01*
G01*
X15761Y20472D02*
G03*
X15761Y20472I-800J0D01*
G01*
X13910Y21969D02*
G03*
X13910Y21969I-800J0D01*
G01*
X14895Y40433D02*
G03*
X14895Y40433I-800J0D01*
G01*
X32060Y39252D02*
G03*
X32060Y39252I-800J0D01*
G01*
X34107Y39291D02*
G03*
X34107Y39291I-800J0D01*
G01*
X36705Y39488D02*
G03*
X36705Y39488I-800J0D01*
G01*
X33438Y45197D02*
G03*
X33438Y45197I-800J0D01*
G01*
X10091Y35984D02*
G03*
X10091Y35984I-800J0D01*
G01*
X14855Y41969D02*
G03*
X14855Y41969I-800J0D01*
G01*
X27532Y22323D02*
G03*
X27532Y22323I-800J0D01*
G01*
X27768Y30591D02*
G03*
X27768Y30591I-800J0D01*
G01*
X28044Y25866D02*
G03*
X28044Y25866I-800J0D01*
G01*
X20249Y29921D02*
G03*
X20249Y29921I-800J0D01*
G01*
X26115Y28071D02*
G03*
X26115Y28071I-800J0D01*
G01*
X23084Y29921D02*
G03*
X23084Y29921I-800J0D01*
G01*
X25721Y30079D02*
G03*
X25721Y30079I-800J0D01*
G01*
X21863Y28307D02*
G03*
X21863Y28307I-800J0D01*
G01*
X17572Y30512D02*
G03*
X17572Y30512I-800J0D01*
G01*
X18202Y28622D02*
G03*
X18202Y28622I-800J0D01*
G01*
X33320Y52047D02*
G03*
X33320Y52047I-800J0D01*
G01*
X31154Y52126D02*
G03*
X31154Y52126I-800J0D01*
G01*
X29343Y51535D02*
G03*
X29343Y51535I-800J0D01*
G01*
D112*
X139487Y47142D02*
X138916Y47713D01*
X138059Y47999D01*
X136916D01*
X136059Y47713D01*
X135488Y47142D01*
Y46570D01*
X135774Y45999D01*
X136059Y45713D01*
X136631Y45428D01*
X138345Y44857D01*
X138916Y44571D01*
X139202Y44285D01*
X139487Y43714D01*
Y42857D01*
X138916Y42286D01*
X138059Y42000D01*
X136916D01*
X136059Y42286D01*
X135488Y42857D01*
X141115Y45999D02*
X142829Y42000D01*
X144543Y45999D02*
X142829Y42000D01*
X142258Y40857D01*
X141687Y40286D01*
X141115Y40000D01*
X140830D01*
X145543Y45999D02*
Y42000D01*
Y44857D02*
X146400Y45713D01*
X146971Y45999D01*
X147828D01*
X148400Y45713D01*
X148685Y44857D01*
Y42000D01*
Y44857D02*
X149542Y45713D01*
X150113Y45999D01*
X150970D01*
X151542Y45713D01*
X151827Y44857D01*
Y42000D01*
X153713Y47999D02*
Y42000D01*
Y45142D02*
X154284Y45713D01*
X154855Y45999D01*
X155712D01*
X156284Y45713D01*
X156855Y45142D01*
X157141Y44285D01*
Y43714D01*
X156855Y42857D01*
X156284Y42286D01*
X155712Y42000D01*
X154855D01*
X154284Y42286D01*
X153713Y42857D01*
X159854Y45999D02*
X159283Y45713D01*
X158712Y45142D01*
X158426Y44285D01*
Y43714D01*
X158712Y42857D01*
X159283Y42286D01*
X159854Y42000D01*
X160711D01*
X161283Y42286D01*
X161854Y42857D01*
X162139Y43714D01*
Y44285D01*
X161854Y45142D01*
X161283Y45713D01*
X160711Y45999D01*
X159854D01*
X163453Y47999D02*
Y42000D01*
X172334Y47999D02*
Y42000D01*
X176333Y47999D02*
Y42000D01*
X172334Y45142D02*
X176333D01*
X178561Y47999D02*
X178846Y47713D01*
X179132Y47999D01*
X178846Y48284D01*
X178561Y47999D01*
X178846Y45999D02*
Y42000D01*
X181046Y47999D02*
Y43143D01*
X181332Y42286D01*
X181903Y42000D01*
X182474D01*
X180189Y45999D02*
X182189D01*
X192329Y46570D02*
X192044Y47142D01*
X191472Y47713D01*
X190901Y47999D01*
X189758D01*
X189187Y47713D01*
X188616Y47142D01*
X188330Y46570D01*
X188044Y45713D01*
Y44285D01*
X188330Y43428D01*
X188616Y42857D01*
X189187Y42286D01*
X189758Y42000D01*
X190901D01*
X191472Y42286D01*
X192044Y42857D01*
X192329Y43428D01*
X195443Y45999D02*
X194872Y45713D01*
X194300Y45142D01*
X194015Y44285D01*
Y43714D01*
X194300Y42857D01*
X194872Y42286D01*
X195443Y42000D01*
X196300D01*
X196871Y42286D01*
X197442Y42857D01*
X197728Y43714D01*
Y44285D01*
X197442Y45142D01*
X196871Y45713D01*
X196300Y45999D01*
X195443D01*
X199042D02*
Y43143D01*
X199328Y42286D01*
X199899Y42000D01*
X200756D01*
X201327Y42286D01*
X202184Y43143D01*
Y45999D02*
Y42000D01*
X203755Y45999D02*
Y42000D01*
Y44857D02*
X204612Y45713D01*
X205184Y45999D01*
X206041D01*
X206612Y45713D01*
X206897Y44857D01*
Y42000D01*
X209326Y47999D02*
Y43143D01*
X209611Y42286D01*
X210183Y42000D01*
X210754D01*
X208469Y45999D02*
X210468D01*
X219634Y47999D02*
Y42000D01*
Y47999D02*
X223347D01*
X219634Y45142D02*
X221919D01*
X224604Y47999D02*
X224890Y47713D01*
X225175Y47999D01*
X224890Y48284D01*
X224604Y47999D01*
X224890Y45999D02*
Y42000D01*
X226233Y45999D02*
Y42000D01*
Y44857D02*
X227089Y45713D01*
X227661Y45999D01*
X228518D01*
X229089Y45713D01*
X229375Y44857D01*
Y42000D01*
X231517Y47999D02*
X231803Y47713D01*
X232088Y47999D01*
X231803Y48284D01*
X231517Y47999D01*
X231803Y45999D02*
Y42000D01*
X236287Y45142D02*
X236002Y45713D01*
X235145Y45999D01*
X234288D01*
X233431Y45713D01*
X233145Y45142D01*
X233431Y44571D01*
X234002Y44285D01*
X235431Y44000D01*
X236002Y43714D01*
X236287Y43143D01*
Y42857D01*
X236002Y42286D01*
X235145Y42000D01*
X234288D01*
X233431Y42286D01*
X233145Y42857D01*
X237544Y47999D02*
Y42000D01*
Y44857D02*
X238401Y45713D01*
X238973Y45999D01*
X239829D01*
X240401Y45713D01*
X240686Y44857D01*
Y42000D01*
X242258Y44285D02*
X245685D01*
Y44857D01*
X245400Y45428D01*
X245114Y45713D01*
X244543Y45999D01*
X243686D01*
X243115Y45713D01*
X242543Y45142D01*
X242258Y44285D01*
Y43714D01*
X242543Y42857D01*
X243115Y42286D01*
X243686Y42000D01*
X244543D01*
X245114Y42286D01*
X245685Y42857D01*
X250399Y47999D02*
Y42000D01*
Y45142D02*
X249827Y45713D01*
X249256Y45999D01*
X248399D01*
X247828Y45713D01*
X247256Y45142D01*
X246971Y44285D01*
Y43714D01*
X247256Y42857D01*
X247828Y42286D01*
X248399Y42000D01*
X249256D01*
X249827Y42286D01*
X250399Y42857D01*
X256712Y47999D02*
Y42000D01*
X260711Y47999D02*
Y42000D01*
X256712Y45142D02*
X260711D01*
X263796Y45999D02*
X263225Y45713D01*
X262653Y45142D01*
X262368Y44285D01*
Y43714D01*
X262653Y42857D01*
X263225Y42286D01*
X263796Y42000D01*
X264653D01*
X265224Y42286D01*
X265795Y42857D01*
X266081Y43714D01*
Y44285D01*
X265795Y45142D01*
X265224Y45713D01*
X264653Y45999D01*
X263796D01*
X267395Y47999D02*
Y42000D01*
X268652Y44285D02*
X272080D01*
Y44857D01*
X271794Y45428D01*
X271509Y45713D01*
X270937Y45999D01*
X270080D01*
X269509Y45713D01*
X268938Y45142D01*
X268652Y44285D01*
Y43714D01*
X268938Y42857D01*
X269509Y42286D01*
X270080Y42000D01*
X270937D01*
X271509Y42286D01*
X272080Y42857D01*
X282078Y47142D02*
X281506Y47713D01*
X280649Y47999D01*
X279507D01*
X278650Y47713D01*
X278079Y47142D01*
Y46570D01*
X278364Y45999D01*
X278650Y45713D01*
X279221Y45428D01*
X280935Y44857D01*
X281506Y44571D01*
X281792Y44285D01*
X282078Y43714D01*
Y42857D01*
X281506Y42286D01*
X280649Y42000D01*
X279507D01*
X278650Y42286D01*
X278079Y42857D01*
X283992Y47999D02*
X284277Y47713D01*
X284563Y47999D01*
X284277Y48284D01*
X283992Y47999D01*
X284277Y45999D02*
Y42000D01*
X288762Y45999D02*
X285620Y42000D01*
Y45999D02*
X288762D01*
X285620Y42000D02*
X288762D01*
X290019Y44285D02*
X293447D01*
Y44857D01*
X293161Y45428D01*
X292875Y45713D01*
X292304Y45999D01*
X291447D01*
X290876Y45713D01*
X290304Y45142D01*
X290019Y44285D01*
Y43714D01*
X290304Y42857D01*
X290876Y42286D01*
X291447Y42000D01*
X292304D01*
X292875Y42286D01*
X293447Y42857D01*
X302327Y44857D02*
X304897D01*
X305754Y45142D01*
X306040Y45428D01*
X306326Y45999D01*
Y46856D01*
X306040Y47427D01*
X305754Y47713D01*
X304897Y47999D01*
X302327D01*
Y42000D01*
X307668Y47999D02*
Y42000D01*
X312353Y45999D02*
Y42000D01*
Y45142D02*
X311782Y45713D01*
X311210Y45999D01*
X310353D01*
X309782Y45713D01*
X309211Y45142D01*
X308925Y44285D01*
Y43714D01*
X309211Y42857D01*
X309782Y42286D01*
X310353Y42000D01*
X311210D01*
X311782Y42286D01*
X312353Y42857D01*
X314810Y47999D02*
Y43143D01*
X315095Y42286D01*
X315667Y42000D01*
X316238D01*
X313953Y45999D02*
X315952D01*
X317095Y44285D02*
X320523D01*
Y44857D01*
X320237Y45428D01*
X319951Y45713D01*
X319380Y45999D01*
X318523D01*
X317952Y45713D01*
X317380Y45142D01*
X317095Y44285D01*
Y43714D01*
X317380Y42857D01*
X317952Y42286D01*
X318523Y42000D01*
X319380D01*
X319951Y42286D01*
X320523Y42857D01*
X325236Y47999D02*
Y42000D01*
Y45142D02*
X324665Y45713D01*
X324093Y45999D01*
X323236D01*
X322665Y45713D01*
X322094Y45142D01*
X321808Y44285D01*
Y43714D01*
X322094Y42857D01*
X322665Y42286D01*
X323236Y42000D01*
X324093D01*
X324665Y42286D01*
X325236Y42857D01*
X334116Y47999D02*
Y42000D01*
X338115Y47999D02*
Y42000D01*
X334116Y45142D02*
X338115D01*
X341200Y45999D02*
X340629Y45713D01*
X340058Y45142D01*
X339772Y44285D01*
Y43714D01*
X340058Y42857D01*
X340629Y42286D01*
X341200Y42000D01*
X342057D01*
X342629Y42286D01*
X343200Y42857D01*
X343485Y43714D01*
Y44285D01*
X343200Y45142D01*
X342629Y45713D01*
X342057Y45999D01*
X341200D01*
X344799Y47999D02*
Y42000D01*
X346056Y44285D02*
X349484D01*
Y44857D01*
X349199Y45428D01*
X348913Y45713D01*
X348341Y45999D01*
X347485D01*
X346913Y45713D01*
X346342Y45142D01*
X346056Y44285D01*
Y43714D01*
X346342Y42857D01*
X346913Y42286D01*
X347485Y42000D01*
X348341D01*
X348913Y42286D01*
X349484Y42857D01*
X357482Y47999D02*
Y42000D01*
X355483Y47999D02*
X359482D01*
X360482Y45999D02*
X362196Y42000D01*
X363910Y45999D02*
X362196Y42000D01*
X361624Y40857D01*
X361053Y40286D01*
X360482Y40000D01*
X360196D01*
X364909Y45999D02*
Y40000D01*
Y45142D02*
X365481Y45713D01*
X366052Y45999D01*
X366909D01*
X367480Y45713D01*
X368052Y45142D01*
X368337Y44285D01*
Y43714D01*
X368052Y42857D01*
X367480Y42286D01*
X366909Y42000D01*
X366052D01*
X365481Y42286D01*
X364909Y42857D01*
X369623Y44285D02*
X373050D01*
Y44857D01*
X372765Y45428D01*
X372479Y45713D01*
X371908Y45999D01*
X371051D01*
X370480Y45713D01*
X369908Y45142D01*
X369623Y44285D01*
Y43714D01*
X369908Y42857D01*
X370480Y42286D01*
X371051Y42000D01*
X371908D01*
X372479Y42286D01*
X373050Y42857D01*
X128528Y51000D02*
X381930D01*
X128528Y37500D02*
X381930D01*
X128528Y51000D02*
Y-2500D01*
X381930Y51000D02*
Y-2500D01*
X168853Y51000D02*
Y-2500D01*
X216154Y51000D02*
Y-2500D01*
X298847Y51000D02*
Y-2500D01*
X330636Y51000D02*
Y-2500D01*
X128528Y7500D02*
X381930D01*
X128528Y-2500D02*
X381930D01*
D113*
X139488Y32500D02*
G03*
X139488Y32500I-2000J0D01*
G01*
M02*
