G04*
G04 #@! TF.GenerationSoftware,Altium Limited,Altium Designer,22.0.2 (36)*
G04*
G04 Layer_Color=16711935*
%FSLAX25Y25*%
%MOIN*%
G70*
G04*
G04 #@! TF.SameCoordinates,14A72887-5544-470D-8401-3C00119275A7*
G04*
G04*
G04 #@! TF.FilePolarity,Positive*
G04*
G01*
G75*
%ADD12C,0.00600*%
%ADD13C,0.00394*%
%ADD14C,0.00079*%
%ADD94C,0.00100*%
%ADD105C,0.00236*%
D12*
X2271Y13142D02*
X10271D01*
X2271Y9142D02*
Y13142D01*
Y9142D02*
X10271D01*
Y13142D01*
X11199Y14190D02*
Y19590D01*
X1399Y14190D02*
X11199D01*
X1399D02*
Y19590D01*
X11199D01*
D13*
X39084Y38028D02*
Y33108D01*
Y38028D02*
X35804Y33108D01*
Y38028D02*
Y33108D01*
X30931Y36856D02*
X31165Y37325D01*
X31633Y37793D01*
X32102Y38028D01*
X33039D01*
X33508Y37793D01*
X33976Y37325D01*
X34211Y36856D01*
X34445Y36154D01*
Y34982D01*
X34211Y34279D01*
X33976Y33811D01*
X33508Y33342D01*
X33039Y33108D01*
X32102D01*
X31633Y33342D01*
X31165Y33811D01*
X30931Y34279D01*
D14*
X26237Y46899D02*
X25450D01*
X26237D02*
Y47236D01*
X26200Y47349D01*
X26162Y47386D01*
X26087Y47424D01*
X26012D01*
X25937Y47386D01*
X25900Y47349D01*
X25862Y47236D01*
Y46899D02*
Y47236D01*
X25825Y47349D01*
X25787Y47386D01*
X25712Y47424D01*
X25600D01*
X25525Y47386D01*
X25488Y47349D01*
X25450Y47236D01*
Y46899D01*
X26237Y47787D02*
X26200Y47675D01*
X26125Y47638D01*
X26050D01*
X25975Y47675D01*
X25937Y47750D01*
X25900Y47900D01*
X25862Y48012D01*
X25787Y48087D01*
X25712Y48125D01*
X25600D01*
X25525Y48087D01*
X25488Y48050D01*
X25450Y47937D01*
Y47787D01*
X25488Y47675D01*
X25525Y47638D01*
X25600Y47600D01*
X25712D01*
X25787Y47638D01*
X25862Y47712D01*
X25900Y47825D01*
X25937Y47975D01*
X25975Y48050D01*
X26050Y48087D01*
X26125D01*
X26200Y48050D01*
X26237Y47937D01*
Y47787D01*
X38637Y40797D02*
X37850D01*
Y41247D01*
X38487Y41333D02*
X38525Y41408D01*
X38637Y41520D01*
X37850D01*
X38637Y42097D02*
X38600Y41985D01*
X38525Y41947D01*
X38450D01*
X38375Y41985D01*
X38337Y42060D01*
X38300Y42210D01*
X38262Y42322D01*
X38187Y42397D01*
X38112Y42435D01*
X38000D01*
X37925Y42397D01*
X37887Y42360D01*
X37850Y42247D01*
Y42097D01*
X37887Y41985D01*
X37925Y41947D01*
X38000Y41910D01*
X38112D01*
X38187Y41947D01*
X38262Y42022D01*
X38300Y42135D01*
X38337Y42285D01*
X38375Y42360D01*
X38450Y42397D01*
X38525D01*
X38600Y42360D01*
X38637Y42247D01*
Y42097D01*
X36755Y40836D02*
X35968D01*
X36755D02*
Y41173D01*
X36718Y41286D01*
X36680Y41323D01*
X36605Y41361D01*
X36530D01*
X36455Y41323D01*
X36418Y41286D01*
X36380Y41173D01*
Y40836D01*
Y41098D02*
X35968Y41361D01*
X36755Y41612D02*
Y42024D01*
X36455Y41799D01*
Y41912D01*
X36418Y41987D01*
X36380Y42024D01*
X36268Y42062D01*
X36193D01*
X36081Y42024D01*
X36006Y41949D01*
X35968Y41837D01*
Y41725D01*
X36006Y41612D01*
X36043Y41574D01*
X36118Y41537D01*
X36755Y42763D02*
X35968Y42388D01*
X36755Y42238D02*
Y42763D01*
X28777Y18771D02*
X27990D01*
X28777D02*
Y19109D01*
X28740Y19221D01*
X28702Y19259D01*
X28627Y19296D01*
X28552D01*
X28477Y19259D01*
X28440Y19221D01*
X28403Y19109D01*
Y18771D01*
Y19034D02*
X27990Y19296D01*
X28590Y19510D02*
X28627D01*
X28702Y19547D01*
X28740Y19585D01*
X28777Y19660D01*
Y19810D01*
X28740Y19885D01*
X28702Y19922D01*
X28627Y19960D01*
X28552D01*
X28477Y19922D01*
X28365Y19847D01*
X27990Y19473D01*
Y19997D01*
X28777Y20623D02*
Y20248D01*
X28440Y20211D01*
X28477Y20248D01*
X28515Y20361D01*
Y20473D01*
X28477Y20586D01*
X28403Y20661D01*
X28290Y20698D01*
X28215D01*
X28103Y20661D01*
X28028Y20586D01*
X27990Y20473D01*
Y20361D01*
X28028Y20248D01*
X28065Y20211D01*
X28140Y20174D01*
X28738Y22984D02*
X27951D01*
X28738D02*
Y23321D01*
X28701Y23434D01*
X28663Y23471D01*
X28588Y23509D01*
X28513D01*
X28438Y23471D01*
X28401Y23434D01*
X28363Y23321D01*
Y22984D01*
Y23246D02*
X27951Y23509D01*
X28551Y23722D02*
X28588D01*
X28663Y23760D01*
X28701Y23797D01*
X28738Y23872D01*
Y24022D01*
X28701Y24097D01*
X28663Y24135D01*
X28588Y24172D01*
X28513D01*
X28438Y24135D01*
X28326Y24060D01*
X27951Y23685D01*
Y24210D01*
X28738Y24761D02*
X28213Y24386D01*
Y24948D01*
X28738Y24761D02*
X27951D01*
X30625Y65199D02*
Y64411D01*
X30175D01*
X30089Y65049D02*
X30014Y65086D01*
X29901Y65199D01*
Y64411D01*
X28987Y65199D02*
X29362Y64411D01*
X29512Y65199D02*
X28987D01*
X24050Y47061D02*
X24125Y47024D01*
X24200Y46949D01*
X24237Y46874D01*
Y46724D01*
X24200Y46649D01*
X24125Y46574D01*
X24050Y46536D01*
X23937Y46499D01*
X23750D01*
X23637Y46536D01*
X23562Y46574D01*
X23487Y46649D01*
X23450Y46724D01*
Y46874D01*
X23487Y46949D01*
X23562Y47024D01*
X23637Y47061D01*
X24237Y47807D02*
X23450Y47432D01*
X24237Y47282D02*
Y47807D01*
X24125Y48433D02*
X24200Y48396D01*
X24237Y48283D01*
Y48208D01*
X24200Y48096D01*
X24087Y48021D01*
X23900Y47984D01*
X23712D01*
X23562Y48021D01*
X23487Y48096D01*
X23450Y48208D01*
Y48246D01*
X23487Y48358D01*
X23562Y48433D01*
X23675Y48471D01*
X23712D01*
X23825Y48433D01*
X23900Y48358D01*
X23937Y48246D01*
Y48208D01*
X23900Y48096D01*
X23825Y48021D01*
X23712Y47984D01*
X32139Y41262D02*
X32176Y41337D01*
X32251Y41412D01*
X32326Y41450D01*
X32476D01*
X32551Y41412D01*
X32626Y41337D01*
X32664Y41262D01*
X32701Y41150D01*
Y40962D01*
X32664Y40850D01*
X32626Y40775D01*
X32551Y40700D01*
X32476Y40663D01*
X32326D01*
X32251Y40700D01*
X32176Y40775D01*
X32139Y40850D01*
X31730Y41450D02*
X31842Y41412D01*
X31880Y41337D01*
Y41262D01*
X31842Y41187D01*
X31768Y41150D01*
X31618Y41113D01*
X31505Y41075D01*
X31430Y41000D01*
X31393Y40925D01*
Y40813D01*
X31430Y40738D01*
X31468Y40700D01*
X31580Y40663D01*
X31730D01*
X31842Y40700D01*
X31880Y40738D01*
X31918Y40813D01*
Y40925D01*
X31880Y41000D01*
X31805Y41075D01*
X31693Y41113D01*
X31543Y41150D01*
X31468Y41187D01*
X31430Y41262D01*
Y41337D01*
X31468Y41412D01*
X31580Y41450D01*
X31730D01*
X30992D02*
X31104Y41412D01*
X31179Y41300D01*
X31216Y41113D01*
Y41000D01*
X31179Y40813D01*
X31104Y40700D01*
X30992Y40663D01*
X30917D01*
X30804Y40700D01*
X30729Y40813D01*
X30692Y41000D01*
Y41113D01*
X30729Y41300D01*
X30804Y41412D01*
X30917Y41450D01*
X30992D01*
X33935Y41159D02*
X34010Y41122D01*
X34085Y41047D01*
X34122Y40971D01*
Y40822D01*
X34085Y40747D01*
X34010Y40672D01*
X33935Y40634D01*
X33822Y40597D01*
X33635D01*
X33522Y40634D01*
X33448Y40672D01*
X33373Y40747D01*
X33335Y40822D01*
Y40971D01*
X33373Y41047D01*
X33448Y41122D01*
X33522Y41159D01*
X34122Y41905D02*
X33335Y41530D01*
X34122Y41380D02*
Y41905D01*
Y42269D02*
X34085Y42156D01*
X34010Y42119D01*
X33935D01*
X33860Y42156D01*
X33822Y42231D01*
X33785Y42381D01*
X33747Y42494D01*
X33672Y42568D01*
X33597Y42606D01*
X33485D01*
X33410Y42568D01*
X33373Y42531D01*
X33335Y42419D01*
Y42269D01*
X33373Y42156D01*
X33410Y42119D01*
X33485Y42081D01*
X33597D01*
X33672Y42119D01*
X33747Y42194D01*
X33785Y42306D01*
X33822Y42456D01*
X33860Y42531D01*
X33935Y42568D01*
X34010D01*
X34085Y42531D01*
X34122Y42419D01*
Y42269D01*
X32139Y43347D02*
X32176Y43422D01*
X32251Y43497D01*
X32326Y43535D01*
X32476D01*
X32551Y43497D01*
X32626Y43422D01*
X32664Y43347D01*
X32701Y43235D01*
Y43047D01*
X32664Y42935D01*
X32626Y42860D01*
X32551Y42785D01*
X32476Y42748D01*
X32326D01*
X32251Y42785D01*
X32176Y42860D01*
X32139Y42935D01*
X31393Y43535D02*
X31768Y42748D01*
X31918Y43535D02*
X31393D01*
X30729Y43273D02*
X30767Y43160D01*
X30842Y43085D01*
X30954Y43047D01*
X30992D01*
X31104Y43085D01*
X31179Y43160D01*
X31216Y43273D01*
Y43310D01*
X31179Y43422D01*
X31104Y43497D01*
X30992Y43535D01*
X30954D01*
X30842Y43497D01*
X30767Y43422D01*
X30729Y43273D01*
Y43085D01*
X30767Y42898D01*
X30842Y42785D01*
X30954Y42748D01*
X31029D01*
X31141Y42785D01*
X31179Y42860D01*
X9638Y23422D02*
X9563Y23460D01*
X9488Y23535D01*
X9451Y23609D01*
Y23759D01*
X9488Y23834D01*
X9563Y23909D01*
X9638Y23947D01*
X9751Y23984D01*
X9938D01*
X10051Y23947D01*
X10126Y23909D01*
X10201Y23834D01*
X10238Y23759D01*
Y23609D01*
X10201Y23535D01*
X10126Y23460D01*
X10051Y23422D01*
X9638Y23163D02*
X9601D01*
X9526Y23126D01*
X9488Y23088D01*
X9451Y23013D01*
Y22863D01*
X9488Y22788D01*
X9526Y22751D01*
X9601Y22714D01*
X9676D01*
X9751Y22751D01*
X9863Y22826D01*
X10238Y23201D01*
Y22676D01*
X9638Y22462D02*
X9601D01*
X9526Y22425D01*
X9488Y22387D01*
X9451Y22312D01*
Y22163D01*
X9488Y22087D01*
X9526Y22050D01*
X9601Y22013D01*
X9676D01*
X9751Y22050D01*
X9863Y22125D01*
X10238Y22500D01*
Y21975D01*
X4570Y11105D02*
Y11892D01*
Y11105D02*
X4907D01*
X5020Y11142D01*
X5057Y11180D01*
X5095Y11254D01*
Y11329D01*
X5057Y11404D01*
X5020Y11442D01*
X4907Y11479D01*
X4570D01*
X4832D02*
X5095Y11892D01*
X5458Y11105D02*
X5346Y11142D01*
X5308Y11217D01*
Y11292D01*
X5346Y11367D01*
X5421Y11404D01*
X5571Y11442D01*
X5683Y11479D01*
X5758Y11554D01*
X5796Y11629D01*
Y11742D01*
X5758Y11817D01*
X5721Y11854D01*
X5608Y11892D01*
X5458D01*
X5346Y11854D01*
X5308Y11817D01*
X5271Y11742D01*
Y11629D01*
X5308Y11554D01*
X5383Y11479D01*
X5496Y11442D01*
X5646Y11404D01*
X5721Y11367D01*
X5758Y11292D01*
Y11217D01*
X5721Y11142D01*
X5608Y11105D01*
X5458D01*
X6422D02*
X6047D01*
X6009Y11442D01*
X6047Y11404D01*
X6159Y11367D01*
X6272D01*
X6384Y11404D01*
X6459Y11479D01*
X6497Y11592D01*
Y11667D01*
X6459Y11779D01*
X6384Y11854D01*
X6272Y11892D01*
X6159D01*
X6047Y11854D01*
X6009Y11817D01*
X5972Y11742D01*
X8000Y16927D02*
Y16140D01*
X7550D01*
X7427Y16740D02*
Y16777D01*
X7389Y16852D01*
X7352Y16890D01*
X7277Y16927D01*
X7127D01*
X7052Y16890D01*
X7014Y16852D01*
X6977Y16777D01*
Y16702D01*
X7014Y16627D01*
X7089Y16515D01*
X7464Y16140D01*
X6939D01*
X6688Y16927D02*
X6276D01*
X6501Y16627D01*
X6388D01*
X6313Y16590D01*
X6276Y16552D01*
X6238Y16440D01*
Y16365D01*
X6276Y16252D01*
X6351Y16177D01*
X6463Y16140D01*
X6576D01*
X6688Y16177D01*
X6726Y16215D01*
X6763Y16290D01*
X19293Y17817D02*
X18730D01*
X18618Y17854D01*
X18543Y17929D01*
X18505Y18042D01*
Y18117D01*
X18543Y18229D01*
X18618Y18304D01*
X18730Y18342D01*
X19293D01*
Y18934D02*
X18768Y18559D01*
Y19121D01*
X19293Y18934D02*
X18505D01*
X34200Y53437D02*
Y52875D01*
X34163Y52763D01*
X34087Y52688D01*
X33975Y52650D01*
X33900D01*
X33788Y52688D01*
X33713Y52763D01*
X33675Y52875D01*
Y53437D01*
X32970Y53175D02*
X33008Y53062D01*
X33083Y52987D01*
X33195Y52950D01*
X33233D01*
X33345Y52987D01*
X33420Y53062D01*
X33458Y53175D01*
Y53212D01*
X33420Y53325D01*
X33345Y53400D01*
X33233Y53437D01*
X33195D01*
X33083Y53400D01*
X33008Y53325D01*
X32970Y53175D01*
Y52987D01*
X33008Y52800D01*
X33083Y52688D01*
X33195Y52650D01*
X33270D01*
X33383Y52688D01*
X33420Y52763D01*
X22831Y10426D02*
X22794Y10351D01*
X22719Y10276D01*
X22644Y10238D01*
X22494D01*
X22419Y10276D01*
X22344Y10351D01*
X22307Y10426D01*
X22269Y10538D01*
Y10726D01*
X22307Y10838D01*
X22344Y10913D01*
X22419Y10988D01*
X22494Y11026D01*
X22644D01*
X22719Y10988D01*
X22794Y10913D01*
X22831Y10838D01*
X23053Y10388D02*
X23128Y10351D01*
X23240Y10238D01*
Y11026D01*
X23817Y10238D02*
X23705Y10276D01*
X23667Y10351D01*
Y10426D01*
X23705Y10501D01*
X23780Y10538D01*
X23930Y10576D01*
X24042Y10613D01*
X24117Y10688D01*
X24155Y10763D01*
Y10876D01*
X24117Y10951D01*
X24080Y10988D01*
X23967Y11026D01*
X23817D01*
X23705Y10988D01*
X23667Y10951D01*
X23630Y10876D01*
Y10763D01*
X23667Y10688D01*
X23742Y10613D01*
X23855Y10576D01*
X24005Y10538D01*
X24080Y10501D01*
X24117Y10426D01*
Y10351D01*
X24080Y10276D01*
X23967Y10238D01*
X23817D01*
X24518D02*
X24406Y10276D01*
X24368Y10351D01*
Y10426D01*
X24406Y10501D01*
X24481Y10538D01*
X24631Y10576D01*
X24743Y10613D01*
X24818Y10688D01*
X24856Y10763D01*
Y10876D01*
X24818Y10951D01*
X24781Y10988D01*
X24668Y11026D01*
X24518D01*
X24406Y10988D01*
X24368Y10951D01*
X24331Y10876D01*
Y10763D01*
X24368Y10688D01*
X24443Y10613D01*
X24556Y10576D01*
X24706Y10538D01*
X24781Y10501D01*
X24818Y10426D01*
Y10351D01*
X24781Y10276D01*
X24668Y10238D01*
X24518D01*
X2559Y25150D02*
X2521Y25075D01*
X2447Y25000D01*
X2372Y24963D01*
X2222D01*
X2147Y25000D01*
X2072Y25075D01*
X2034Y25150D01*
X1997Y25263D01*
Y25450D01*
X2034Y25563D01*
X2072Y25638D01*
X2147Y25712D01*
X2222Y25750D01*
X2372D01*
X2447Y25712D01*
X2521Y25638D01*
X2559Y25563D01*
X2818Y25150D02*
Y25113D01*
X2855Y25038D01*
X2893Y25000D01*
X2968Y24963D01*
X3118D01*
X3193Y25000D01*
X3230Y25038D01*
X3268Y25113D01*
Y25188D01*
X3230Y25263D01*
X3155Y25375D01*
X2780Y25750D01*
X3305D01*
X3968Y25225D02*
X3931Y25338D01*
X3856Y25413D01*
X3743Y25450D01*
X3706D01*
X3594Y25413D01*
X3519Y25338D01*
X3481Y25225D01*
Y25188D01*
X3519Y25075D01*
X3594Y25000D01*
X3706Y24963D01*
X3743D01*
X3856Y25000D01*
X3931Y25075D01*
X3968Y25225D01*
Y25413D01*
X3931Y25600D01*
X3856Y25712D01*
X3743Y25750D01*
X3669D01*
X3556Y25712D01*
X3519Y25638D01*
X4958Y21936D02*
X4995Y22011D01*
X5070Y22086D01*
X5145Y22124D01*
X5295D01*
X5370Y22086D01*
X5445Y22011D01*
X5482Y21936D01*
X5520Y21824D01*
Y21636D01*
X5482Y21524D01*
X5445Y21449D01*
X5370Y21374D01*
X5295Y21337D01*
X5145D01*
X5070Y21374D01*
X4995Y21449D01*
X4958Y21524D01*
X4661Y22124D02*
X4249D01*
X4474Y21824D01*
X4361D01*
X4287Y21787D01*
X4249Y21749D01*
X4212Y21636D01*
Y21562D01*
X4249Y21449D01*
X4324Y21374D01*
X4436Y21337D01*
X4549D01*
X4661Y21374D01*
X4699Y21412D01*
X4736Y21487D01*
X3810Y22124D02*
X3923Y22086D01*
X3998Y21974D01*
X4035Y21787D01*
Y21674D01*
X3998Y21487D01*
X3923Y21374D01*
X3810Y21337D01*
X3735D01*
X3623Y21374D01*
X3548Y21487D01*
X3511Y21674D01*
Y21787D01*
X3548Y21974D01*
X3623Y22086D01*
X3735Y22124D01*
X3810D01*
X34645Y25955D02*
Y25168D01*
X34907Y25955D02*
X34382D01*
X34288Y25543D02*
X33951D01*
X33839Y25580D01*
X33801Y25618D01*
X33764Y25692D01*
Y25805D01*
X33801Y25880D01*
X33839Y25918D01*
X33951Y25955D01*
X34288D01*
Y25168D01*
X33138Y25955D02*
X33513D01*
X33550Y25618D01*
X33513Y25655D01*
X33400Y25692D01*
X33288D01*
X33175Y25655D01*
X33100Y25580D01*
X33063Y25468D01*
Y25393D01*
X33100Y25280D01*
X33175Y25205D01*
X33288Y25168D01*
X33400D01*
X33513Y25205D01*
X33550Y25243D01*
X33588Y25318D01*
X29307Y27481D02*
Y28268D01*
Y27481D02*
X29645D01*
X29757Y27518D01*
X29794Y27556D01*
X29832Y27630D01*
Y27705D01*
X29794Y27780D01*
X29757Y27818D01*
X29645Y27855D01*
X29307D01*
X29570D02*
X29832Y28268D01*
X30196Y27481D02*
X30083Y27518D01*
X30046Y27593D01*
Y27668D01*
X30083Y27743D01*
X30158Y27780D01*
X30308Y27818D01*
X30420Y27855D01*
X30495Y27930D01*
X30533Y28005D01*
Y28118D01*
X30495Y28193D01*
X30458Y28230D01*
X30345Y28268D01*
X30196D01*
X30083Y28230D01*
X30046Y28193D01*
X30008Y28118D01*
Y28005D01*
X30046Y27930D01*
X30121Y27855D01*
X30233Y27818D01*
X30383Y27780D01*
X30458Y27743D01*
X30495Y27668D01*
Y27593D01*
X30458Y27518D01*
X30345Y27481D01*
X30196D01*
X30784D02*
X31196D01*
X30972Y27780D01*
X31084D01*
X31159Y27818D01*
X31196Y27855D01*
X31234Y27968D01*
Y28043D01*
X31196Y28155D01*
X31122Y28230D01*
X31009Y28268D01*
X30896D01*
X30784Y28230D01*
X30747Y28193D01*
X30709Y28118D01*
X30845Y30068D02*
X30882Y30143D01*
X30957Y30217D01*
X31032Y30255D01*
X31182D01*
X31257Y30217D01*
X31332Y30143D01*
X31370Y30068D01*
X31407Y29955D01*
Y29768D01*
X31370Y29655D01*
X31332Y29580D01*
X31257Y29505D01*
X31182Y29468D01*
X31032D01*
X30957Y29505D01*
X30882Y29580D01*
X30845Y29655D01*
X30624Y30105D02*
X30549Y30143D01*
X30436Y30255D01*
Y29468D01*
X29559Y29992D02*
X29596Y29880D01*
X29671Y29805D01*
X29784Y29768D01*
X29821D01*
X29934Y29805D01*
X30009Y29880D01*
X30046Y29992D01*
Y30030D01*
X30009Y30143D01*
X29934Y30217D01*
X29821Y30255D01*
X29784D01*
X29671Y30217D01*
X29596Y30143D01*
X29559Y29992D01*
Y29805D01*
X29596Y29618D01*
X29671Y29505D01*
X29784Y29468D01*
X29859D01*
X29971Y29505D01*
X30009Y29580D01*
X29345Y30105D02*
X29270Y30143D01*
X29158Y30255D01*
Y29468D01*
X26807Y17330D02*
X26882Y17292D01*
X26957Y17218D01*
X26994Y17143D01*
Y16993D01*
X26957Y16918D01*
X26882Y16843D01*
X26807Y16805D01*
X26694Y16768D01*
X26507D01*
X26395Y16805D01*
X26320Y16843D01*
X26245Y16918D01*
X26207Y16993D01*
Y17143D01*
X26245Y17218D01*
X26320Y17292D01*
X26395Y17330D01*
X26994Y17626D02*
Y18038D01*
X26694Y17814D01*
Y17926D01*
X26657Y18001D01*
X26619Y18038D01*
X26507Y18076D01*
X26432D01*
X26320Y18038D01*
X26245Y17964D01*
X26207Y17851D01*
Y17739D01*
X26245Y17626D01*
X26282Y17589D01*
X26357Y17551D01*
X26607Y39155D02*
Y38368D01*
Y39155D02*
X26270D01*
X26157Y39118D01*
X26120Y39080D01*
X26082Y39005D01*
Y38930D01*
X26120Y38855D01*
X26157Y38818D01*
X26270Y38780D01*
X26607D02*
X26270D01*
X26157Y38743D01*
X26120Y38705D01*
X26082Y38630D01*
Y38518D01*
X26120Y38443D01*
X26157Y38405D01*
X26270Y38368D01*
X26607D01*
X25531Y39155D02*
X25906Y38630D01*
X25344D01*
X25531Y39155D02*
Y38368D01*
X32369Y39068D02*
X32332Y38993D01*
X32257Y38918D01*
X32182Y38881D01*
X32032D01*
X31957Y38918D01*
X31882Y38993D01*
X31845Y39068D01*
X31807Y39180D01*
Y39368D01*
X31845Y39480D01*
X31882Y39555D01*
X31957Y39630D01*
X32032Y39668D01*
X32182D01*
X32257Y39630D01*
X32332Y39555D01*
X32369Y39480D01*
X32591Y39030D02*
X32666Y38993D01*
X32778Y38881D01*
Y39668D01*
X33393Y38881D02*
X33280Y38918D01*
X33205Y39030D01*
X33168Y39218D01*
Y39330D01*
X33205Y39518D01*
X33280Y39630D01*
X33393Y39668D01*
X33468D01*
X33580Y39630D01*
X33655Y39518D01*
X33693Y39330D01*
Y39218D01*
X33655Y39030D01*
X33580Y38918D01*
X33468Y38881D01*
X33393D01*
X18645Y42968D02*
X18682Y43042D01*
X18757Y43117D01*
X18832Y43155D01*
X18982D01*
X19057Y43117D01*
X19132Y43042D01*
X19170Y42968D01*
X19207Y42855D01*
Y42668D01*
X19170Y42555D01*
X19132Y42480D01*
X19057Y42405D01*
X18982Y42368D01*
X18832D01*
X18757Y42405D01*
X18682Y42480D01*
X18645Y42555D01*
X18424Y43005D02*
X18349Y43042D01*
X18236Y43155D01*
Y42368D01*
X17846Y43005D02*
X17771Y43042D01*
X17659Y43155D01*
Y42368D01*
X19207Y36405D02*
X19132Y36443D01*
X19057Y36518D01*
X19020Y36593D01*
Y36743D01*
X19057Y36818D01*
X19132Y36893D01*
X19207Y36930D01*
X19320Y36968D01*
X19507D01*
X19620Y36930D01*
X19695Y36893D01*
X19770Y36818D01*
X19807Y36743D01*
Y36593D01*
X19770Y36518D01*
X19695Y36443D01*
X19620Y36405D01*
X19020Y36109D02*
Y35697D01*
X19320Y35922D01*
Y35809D01*
X19357Y35734D01*
X19395Y35697D01*
X19507Y35659D01*
X19582D01*
X19695Y35697D01*
X19770Y35772D01*
X19807Y35884D01*
Y35997D01*
X19770Y36109D01*
X19732Y36147D01*
X19657Y36184D01*
X19132Y35033D02*
X19057Y35071D01*
X19020Y35183D01*
Y35258D01*
X19057Y35371D01*
X19170Y35446D01*
X19357Y35483D01*
X19545D01*
X19695Y35446D01*
X19770Y35371D01*
X19807Y35258D01*
Y35221D01*
X19770Y35108D01*
X19695Y35033D01*
X19582Y34996D01*
X19545D01*
X19432Y35033D01*
X19357Y35108D01*
X19320Y35221D01*
Y35258D01*
X19357Y35371D01*
X19432Y35446D01*
X19545Y35483D01*
X28320Y26368D02*
X29107D01*
X28320D02*
Y26030D01*
X28357Y25918D01*
X28395Y25880D01*
X28470Y25843D01*
X28545D01*
X28620Y25880D01*
X28657Y25918D01*
X28695Y26030D01*
Y26368D01*
Y26105D02*
X29107Y25843D01*
X28470Y25667D02*
X28432Y25592D01*
X28320Y25479D01*
X29107D01*
X28470Y25089D02*
X28432Y25014D01*
X28320Y24902D01*
X29107D01*
X20989Y33301D02*
X20202D01*
X20989D02*
Y33638D01*
X20951Y33751D01*
X20914Y33788D01*
X20839Y33826D01*
X20764D01*
X20689Y33788D01*
X20651Y33751D01*
X20614Y33638D01*
Y33301D01*
Y33563D02*
X20202Y33826D01*
X20801Y34039D02*
X20839D01*
X20914Y34077D01*
X20951Y34114D01*
X20989Y34189D01*
Y34339D01*
X20951Y34414D01*
X20914Y34452D01*
X20839Y34489D01*
X20764D01*
X20689Y34452D01*
X20576Y34377D01*
X20202Y34002D01*
Y34527D01*
X20839Y34703D02*
X20876Y34778D01*
X20989Y34890D01*
X20202D01*
X37907Y20005D02*
X37832Y20043D01*
X37757Y20118D01*
X37720Y20193D01*
Y20343D01*
X37757Y20418D01*
X37832Y20493D01*
X37907Y20530D01*
X38020Y20568D01*
X38207D01*
X38320Y20530D01*
X38395Y20493D01*
X38470Y20418D01*
X38507Y20343D01*
Y20193D01*
X38470Y20118D01*
X38395Y20043D01*
X38320Y20005D01*
X37870Y19784D02*
X37832Y19709D01*
X37720Y19597D01*
X38507D01*
X37720Y19019D02*
X37757Y19132D01*
X37832Y19170D01*
X37907D01*
X37982Y19132D01*
X38020Y19057D01*
X38057Y18907D01*
X38095Y18795D01*
X38170Y18720D01*
X38245Y18682D01*
X38357D01*
X38432Y18720D01*
X38470Y18757D01*
X38507Y18870D01*
Y19019D01*
X38470Y19132D01*
X38432Y19170D01*
X38357Y19207D01*
X38245D01*
X38170Y19170D01*
X38095Y19094D01*
X38057Y18982D01*
X38020Y18832D01*
X37982Y18757D01*
X37907Y18720D01*
X37832D01*
X37757Y18757D01*
X37720Y18870D01*
Y19019D01*
Y18431D02*
Y18019D01*
X38020Y18244D01*
Y18131D01*
X38057Y18056D01*
X38095Y18019D01*
X38207Y17981D01*
X38282D01*
X38395Y18019D01*
X38470Y18094D01*
X38507Y18206D01*
Y18318D01*
X38470Y18431D01*
X38432Y18468D01*
X38357Y18506D01*
X39607Y53680D02*
Y54468D01*
Y53680D02*
X39944D01*
X40057Y53718D01*
X40094Y53755D01*
X40132Y53830D01*
Y53905D01*
X40094Y53980D01*
X40057Y54018D01*
X39944Y54055D01*
X39607D02*
X39944D01*
X40057Y54093D01*
X40094Y54130D01*
X40132Y54205D01*
Y54318D01*
X40094Y54393D01*
X40057Y54430D01*
X39944Y54468D01*
X39607D01*
X40833Y53680D02*
X40458Y54468D01*
X40308Y53680D02*
X40833D01*
D94*
X38397Y27008D02*
G03*
X38397Y27008I-3200J0D01*
G01*
X25401Y50200D02*
X26999D01*
X25401Y46200D02*
Y50200D01*
Y46200D02*
X26999D01*
Y50200D01*
X37601Y44298D02*
X39199D01*
X37601Y40298D02*
Y44298D01*
Y40298D02*
X39199D01*
Y44298D01*
X35719Y40337D02*
X37317D01*
Y44337D01*
X35719D02*
X37317D01*
X35719Y40337D02*
Y44337D01*
X27941Y22472D02*
X29539D01*
X27941Y18473D02*
Y22472D01*
Y18473D02*
X29539D01*
Y22472D01*
X27902Y26685D02*
X29500D01*
X27902Y22685D02*
Y26685D01*
Y22685D02*
X29500D01*
Y26685D01*
X30126Y62862D02*
Y64460D01*
Y62862D02*
X34126D01*
Y64460D01*
X30126D02*
X34126D01*
X23401Y46200D02*
X24999D01*
Y50200D01*
X23401D02*
X24999D01*
X23401Y46200D02*
Y50200D01*
X33000Y40614D02*
Y42212D01*
X29000D02*
X33000D01*
X29000Y40614D02*
Y42212D01*
Y40614D02*
X33000D01*
X33286Y44298D02*
X34884D01*
X33286Y40298D02*
Y44298D01*
Y40298D02*
X34884D01*
Y44298D01*
X29000Y42699D02*
Y44297D01*
Y42699D02*
X33000D01*
Y44297D01*
X29000D02*
X33000D01*
X8689Y24283D02*
X10287D01*
X8689Y20283D02*
Y24283D01*
Y20283D02*
X10287D01*
Y24283D01*
X28905Y27429D02*
Y29027D01*
Y27429D02*
X32906D01*
Y29027D01*
X28905D02*
X32906D01*
X28866Y29477D02*
Y31076D01*
Y29477D02*
X32866D01*
Y31076D01*
X28866D02*
X32866D01*
X30185Y18276D02*
X31783D01*
Y22276D01*
X30185D02*
X31783D01*
X30185Y18276D02*
Y22276D01*
X27213Y36721D02*
Y38319D01*
Y36721D02*
X31213D01*
Y38319D01*
X27213D02*
X31213D01*
X32331Y38397D02*
X36331D01*
Y36799D02*
Y38397D01*
X32331Y36799D02*
X36331D01*
X32331D02*
Y38397D01*
X22400Y41322D02*
Y42921D01*
X18400D02*
X22400D01*
X18400Y41322D02*
Y42921D01*
Y41322D02*
X22400D01*
X17216Y36543D02*
Y40543D01*
X15618Y36543D02*
X17216D01*
X15618D02*
Y40543D01*
X17216D01*
X31547Y22685D02*
Y26685D01*
X29948Y22685D02*
X31547D01*
X29948D02*
Y26685D01*
X31547D01*
X20383Y38023D02*
X21981D01*
X20383Y34023D02*
Y38023D01*
Y34023D02*
X21981D01*
Y38023D01*
X38570Y14024D02*
Y18024D01*
X40168D01*
Y14024D02*
Y18024D01*
X38570Y14024D02*
X40168D01*
X38031Y22717D02*
Y26654D01*
Y22717D02*
X40000D01*
Y26654D01*
X38031D02*
X40000D01*
X13346Y15866D02*
Y22166D01*
X24764D01*
Y15866D02*
Y22166D01*
X13346Y15866D02*
X24764D01*
X14331D02*
X15551D01*
X14331Y13504D02*
Y15866D01*
Y13504D02*
X23779D01*
Y15866D01*
X14331Y22166D02*
Y24528D01*
X23779D01*
Y22166D02*
Y24528D01*
X39324Y56550D02*
Y58912D01*
X29876D02*
X39324D01*
X29876Y56550D02*
Y58912D01*
X39324Y47888D02*
Y50250D01*
X29876Y47888D02*
X39324D01*
X29876D02*
Y50250D01*
X31096D01*
X28891D02*
X40309D01*
Y56550D01*
X28891D02*
X40309D01*
X28891Y50250D02*
Y56550D01*
X22370Y9276D02*
Y11276D01*
Y9276D02*
X26370D01*
Y11276D01*
X22370D02*
X26370D01*
X5898Y24000D02*
Y26000D01*
X1898D02*
X5898D01*
X1898Y24000D02*
Y26000D01*
Y24000D02*
X5898D01*
X5819Y21087D02*
Y23087D01*
X1819D02*
X5819D01*
X1819Y21087D02*
Y23087D01*
Y21087D02*
X5819D01*
D105*
X27992Y26024D02*
X25039D01*
X27992D02*
X25039Y27149D01*
X27992Y28273D02*
X25039Y27149D01*
X27992Y28273D02*
X25039D01*
X27992Y30101D02*
X25039D01*
X27992Y29117D02*
Y31085D01*
X27289Y31577D02*
X27429D01*
X27711Y31718D01*
X27851Y31858D01*
X27992Y32139D01*
Y32702D01*
X27851Y32983D01*
X27711Y33123D01*
X27429Y33264D01*
X27148D01*
X26867Y33123D01*
X26445Y32842D01*
X25039Y31436D01*
Y33405D01*
X27992Y35471D02*
X26023Y34065D01*
Y36174D01*
X27992Y35471D02*
X25039D01*
X27007Y38522D02*
X26586Y38381D01*
X26305Y38100D01*
X26164Y37679D01*
Y37538D01*
X26305Y37116D01*
X26586Y36835D01*
X27007Y36694D01*
X27148D01*
X27570Y36835D01*
X27851Y37116D01*
X27992Y37538D01*
Y37679D01*
X27851Y38100D01*
X27570Y38381D01*
X27007Y38522D01*
X26305D01*
X25602Y38381D01*
X25180Y38100D01*
X25039Y37679D01*
Y37397D01*
X25180Y36976D01*
X25461Y36835D01*
X27289Y39464D02*
X27429D01*
X27711Y39605D01*
X27851Y39745D01*
X27992Y40026D01*
Y40589D01*
X27851Y40870D01*
X27711Y41010D01*
X27429Y41151D01*
X27148D01*
X26867Y41010D01*
X26445Y40729D01*
X25039Y39323D01*
Y41292D01*
X37632Y60408D02*
X40584D01*
X37632D02*
X40584Y59283D01*
X37632Y58159D02*
X40584Y59283D01*
X37632Y58159D02*
X40584D01*
X38053Y55347D02*
X37772Y55628D01*
X37632Y56050D01*
Y56612D01*
X37772Y57034D01*
X38053Y57315D01*
X38335D01*
X38616Y57174D01*
X38756Y57034D01*
X38897Y56753D01*
X39178Y55909D01*
X39319Y55628D01*
X39459Y55487D01*
X39740Y55347D01*
X40162D01*
X40443Y55628D01*
X40584Y56050D01*
Y56612D01*
X40443Y57034D01*
X40162Y57315D01*
X38335Y54545D02*
X38194D01*
X37913Y54405D01*
X37772Y54264D01*
X37632Y53983D01*
Y53421D01*
X37772Y53140D01*
X37913Y52999D01*
X38194Y52858D01*
X38475D01*
X38756Y52999D01*
X39178Y53280D01*
X40584Y54686D01*
Y52718D01*
X38053Y50370D02*
X37772Y50511D01*
X37632Y50932D01*
Y51214D01*
X37772Y51635D01*
X38194Y51916D01*
X38897Y52057D01*
X39600D01*
X40162Y51916D01*
X40443Y51635D01*
X40584Y51214D01*
Y51073D01*
X40443Y50651D01*
X40162Y50370D01*
X39740Y50229D01*
X39600D01*
X39178Y50370D01*
X38897Y50651D01*
X38756Y51073D01*
Y51214D01*
X38897Y51635D01*
X39178Y51916D01*
X39600Y52057D01*
X37632Y49301D02*
Y47755D01*
X38756Y48599D01*
Y48177D01*
X38897Y47896D01*
X39037Y47755D01*
X39459Y47614D01*
X39740D01*
X40162Y47755D01*
X40443Y48036D01*
X40584Y48458D01*
Y48880D01*
X40443Y49301D01*
X40303Y49442D01*
X40022Y49583D01*
X37632Y46110D02*
X37772Y46532D01*
X38194Y46813D01*
X38897Y46954D01*
X39319D01*
X40022Y46813D01*
X40443Y46532D01*
X40584Y46110D01*
Y45829D01*
X40443Y45407D01*
X40022Y45126D01*
X39319Y44985D01*
X38897D01*
X38194Y45126D01*
X37772Y45407D01*
X37632Y45829D01*
Y46110D01*
M02*
