G04 ================== begin FILE IDENTIFICATION RECORD ==================*
G04 Layout Name:  ELRS-TX-MODULE-V13-20260610.brd*
G04 Film Name:    BOTTOM*
G04 File Format:  Gerber RS274X*
G04 File Origin:  Cadence Allegro 16.6-2015-S108*
G04 Origin Date:  Thu Jun 11 13:53:02 2026*
G04 *
G04 Layer:  VIA CLASS/BOTTOM*
G04 Layer:  PIN/BOTTOM*
G04 Layer:  ETCH/BOTTOM*
G04 Layer:  BOARD GEOMETRY/OUTLINE*
G04 *
G04 Offset:    (0.00 0.00)*
G04 Mirror:    No*
G04 Mode:      Positive*
G04 Rotation:  0*
G04 FullContactRelief:  No*
G04 UndefLineWidth:     6.50*
G04 ================== end FILE IDENTIFICATION RECORD ====================*
%FSLAX25Y25*MOIN*%
%IR0*IPPOS*OFA0.00000B0.00000*MIA0B0*SFA1.00000B1.00000*%
%ADD10C,.014*%
%ADD14C,.063*%
%ADD12C,.065*%
%ADD15C,.093*%
%ADD11R,.063X.063*%
%ADD13R,.065X.065*%
%ADD18C,.05906*%
%ADD19C,.02559*%
%ADD17R,.05906X.05906*%
%ADD20O,.06693X.03543*%
%ADD16O,.07874X.03543*%
%ADD21C,.005*%
%ADD22C,.0065*%
%ADD23C,.006*%
%ADD24C,.02404*%
%ADD25C,.07304*%
%ADD29C,.03562*%
%ADD28C,.0691*%
%ADD27C,.07504*%
%ADD30C,.08704*%
%ADD26C,.2012*%
G75*
%LPD*%
G75*
G36*
G01X-6960Y157358D02*
Y-150051D01*
G02X-7161Y-150252I-201J0D01*
G01X-161842D01*
G02X-162043Y-150051I0J201D01*
G01Y-92408D01*
X-162040D01*
Y157358D01*
G02X-161839Y157559I201J0D01*
G01X-7161D01*
G02X-6960Y157358I0J-201D01*
G37*
%LPC*%
G75*
G36*
G01X-48825Y-82724D02*
G03Y-83276I292J-276D01*
G02X-50575I-875J-824D01*
G03Y-82724I-292J276D01*
G02X-48825I875J824D01*
G37*
G36*
G01X-145393Y-137093D02*
G02X-145452Y-136951I142J142D01*
G01Y-130049D01*
G02X-145393Y-129907I201J0D01*
G02X-145251Y-129848I142J-142D01*
G01X-138349D01*
G02X-138207Y-129907I0J-201D01*
G02X-138148Y-130049I-142J-142D01*
G01Y-136951D01*
G02X-138207Y-137093I-201J0D01*
G02X-138349Y-137152I-142J142D01*
G01X-145251D01*
G02X-145393Y-137093I0J201D01*
G37*
G36*
G01X-112615Y-102087D02*
G02X-113985I-685J987D01*
G03X-114215I-115J-166D01*
G02X-115856Y-100372I-684J988D01*
G03Y-100128I-160J122D01*
G02X-114215Y-98413I957J727D01*
G03X-113985I115J166D01*
G02X-112615I685J-987D01*
G03X-112385I115J166D01*
G02X-110744Y-100128I684J-988D01*
G03Y-100372I160J-122D01*
G02X-112385Y-102087I-957J-727D01*
G03X-112615I-115J-166D01*
G37*
G36*
G01X-115836Y67056D02*
X-115962D01*
G03X-116096Y67004I1J-201D01*
G02X-117862Y68619I-805J893D01*
G03X-117821Y68740I-160J122D01*
G01Y68858D01*
G03X-117862Y68979I-201J-1D01*
G02X-117856Y70428I962J721D01*
G03Y70672I-160J122D01*
G02X-116097Y72295I956J728D01*
G03X-115963Y72243I135J149D01*
G01X-115837D01*
G03X-115703Y72295I-1J201D01*
G02X-113944Y70672I803J-895D01*
G03Y70428I160J-122D01*
G02X-113938Y68980I-956J-728D01*
G03X-113978Y68859I161J-120D01*
G01Y68741D01*
G03X-113938Y68620I201J-1D01*
G02X-115702Y67005I-963J-719D01*
G03X-115836Y67056I-134J-150D01*
G37*
G36*
G01X-97457Y13622D02*
G02Y11678I707J-972D01*
G03X-97693I-118J-163D01*
G02Y13622I-707J972D01*
G03X-97457I118J163D01*
G37*
G36*
G01X-106372Y-5780D02*
G03X-106698Y-6182I76J-395D01*
G02X-108128Y-5024I-1202J-22D01*
G03X-107802Y-4622I-76J395D01*
G02X-106372Y-5780I1202J22D01*
G37*
G36*
G01X-100556Y-9516D02*
G02X-100500Y-11427I756J-934D01*
G03X-100744Y-11434I-117J-163D01*
G02X-100800Y-9523I-756J934D01*
G03X-100556Y-9516I117J163D01*
G37*
G36*
G01X-67171Y-12772D02*
G03X-67429I-129J-154D01*
G02Y-10928I-771J922D01*
G03X-67171I129J154D01*
G02Y-12772I771J-922D01*
G37*
G36*
G01X-101414Y-18785D02*
G03X-101686I-136J-147D01*
G02Y-17015I-814J885D01*
G03X-101414I136J147D01*
G02Y-18785I814J-885D01*
G37*
G36*
G01X-92328Y-19332D02*
X-92568Y-19572D01*
X-92598Y-19639D01*
X-92600Y-19676D01*
G02X-95001Y-19641I-1200J76D01*
G01X-95003Y-19604D01*
X-95031Y-19536D01*
X-95264Y-19289D01*
X-95330Y-19257D01*
X-95366Y-19254D01*
G02X-94056Y-18097I109J1197D01*
G03X-94001Y-18242I201J-7D01*
G01X-93913Y-18335D01*
G03X-93771Y-18398I146J138D01*
G02X-93714Y-18401I-35J-1202D01*
G01X-93561Y-18248D01*
G03X-93502Y-18105I-142J142D01*
G02X-92224Y-19300I1202J5D01*
G01X-92261Y-19302D01*
X-92328Y-19332D01*
G37*
G36*
G01X-89548Y-34500D02*
Y-41600D01*
G02X-89750Y-41802I-201J0D01*
G01X-96850D01*
G02X-97052Y-41600I-1J201D01*
G01Y-34500D01*
G02X-96850Y-34298I201J1D01*
G01X-94252D01*
G03X-94052Y-34098I0J200D01*
G01Y-32372D01*
G02X-93993Y-32230I201J0D01*
G01X-83569Y-21806D01*
G02X-83427Y-21748I141J-143D01*
G01X-74329D01*
G03X-74182Y-21683I-1J201D01*
G02Y-23315I883J-816D01*
G03X-74329Y-23250I-148J-136D01*
G01X-82804D01*
G03X-82947Y-23309I-1J-201D01*
G01X-92490Y-32852D01*
G03X-92548Y-32995I143J-141D01*
G01Y-34098D01*
G03X-92348Y-34298I201J0D01*
G01X-89750D01*
G02X-89548Y-34500I0J-201D01*
G37*
G36*
G01X-13957Y-39757D02*
G03Y-40043I141J-143D01*
G02X-15643I-843J-857D01*
G03Y-39757I-141J143D01*
G02X-13957I843J857D01*
G37*
G36*
G01X-139808Y-74462D02*
G03X-140038Y-74562I-52J-194D01*
G02X-140792Y-72838I-1062J562D01*
G03X-140562Y-72738I52J194D01*
G02X-139808Y-74462I1062J-562D01*
G37*
G36*
G01X-109357Y-77716D02*
G02X-110600Y-77742I-643J1016D01*
G03X-110800I-100J-174D01*
G02Y-75658I-600J1042D01*
G03X-110600I100J174D01*
G02X-110076Y-75500I600J-1042D01*
G01X-110039Y-75498D01*
X-109972Y-75468D01*
X-109732Y-75228D01*
X-109702Y-75161D01*
X-109700Y-75124D01*
G02X-109487Y-74515I1199J-78D01*
G03Y-74285I-166J115D01*
G02X-107513I987J685D01*
G03Y-74515I166J-115D01*
G02X-107484Y-75843I-987J-686D01*
G03Y-76057I170J-107D01*
G02X-109143Y-77716I-1016J-643D01*
G03X-109357I-107J-170D01*
G37*
G36*
G01X-56403Y-144928D02*
G02X-58304Y-144809I-996J-672D01*
G03X-58289Y-144564I-152J132D01*
G02X-56388Y-144683I996J672D01*
G03X-56403Y-144928I152J-132D01*
G37*
G36*
G01X-138149Y-101752D02*
X-145251D01*
G02X-145452Y-101551I0J201D01*
G01Y-94449D01*
G02X-145251Y-94248I201J0D01*
G01X-138149D01*
G02X-137948Y-94449I0J-201D01*
G01Y-101551D01*
G02X-138149Y-101752I-201J0D01*
G37*
G36*
G01X-45552Y-46472D02*
G02X-45493Y-46330I201J0D01*
G01X-43529Y-44367D01*
X-43499Y-44291D01*
X-43501Y-44248D01*
G02X-42348Y-45401I1201J48D01*
G01X-42391Y-45399D01*
X-42467Y-45429D01*
X-43989Y-46951D01*
G03X-44033Y-47018I143J-142D01*
G01X-44048Y-47055D01*
Y-48270D01*
G03X-43984Y-48417I201J0D01*
G02X-45616I-816J-883D01*
G03X-45552Y-48270I-137J147D01*
G01Y-46472D01*
G37*
G36*
G01X-33899Y-90434D02*
G02Y-92146I844J-856D01*
G03X-34181I-141J-143D01*
G02Y-90434I-844J856D01*
G03X-33899I141J143D01*
G37*
G54D24*
X-50350Y-114000D03*
X-29215Y-88600D03*
X-21100Y-79700D03*
X-25200Y-66800D03*
X-46700Y-76900D03*
X-20007Y-53607D03*
X-53460Y-56460D03*
X-68000Y-70200D03*
X-131200Y-61500D03*
X-123000Y-65300D03*
X-127400Y-61600D03*
X-119500Y-74500D03*
X-117100Y-57200D03*
X-109400Y-3000D03*
X-98200Y-48800D03*
X-106600Y-1300D03*
X-99200Y7899D03*
X-96000Y3638D03*
X-107431Y39431D03*
X-87501Y-52599D03*
X-89500Y-13400D03*
X-82900Y16500D03*
X-93300Y95100D03*
X-80950Y-66850D03*
X-81919Y-55519D03*
X-73299Y-3599D03*
X-78200Y-11500D03*
X-76500Y-4700D03*
X-72119Y19119D03*
X-73114Y11700D03*
X-75681Y43419D03*
X-75600Y47500D03*
X-78700Y95100D03*
X-62819Y-56519D03*
X-51000Y-131000D03*
X-37949Y-132349D03*
X-47881Y-87581D03*
X-20900Y-86700D03*
X-37949Y-113451D03*
X-50350Y-122000D03*
G54D25*
X-71800Y-133500D03*
X-81800D03*
X-101800D03*
X-121800D03*
X-111800D03*
X-91800D03*
G54D29*
X-30853Y-111522D03*
Y-134278D03*
G54D28*
X-35264Y-25500D03*
G54D27*
X-83300Y-38050D03*
X-73300D03*
X-63300D03*
X-141700Y-118000D03*
G54D30*
X-85898Y142702D03*
G54D26*
X-147450Y3266D03*
Y129250D03*
X-21466Y3266D03*
Y129250D03*
%LPD*%
G75*
G54D10*
X-160700Y-144800D03*
Y-133500D03*
Y-139100D03*
Y-122200D03*
Y-127900D03*
Y-105300D03*
Y-111000D03*
Y-116600D03*
Y-94100D03*
Y-99700D03*
X-160600Y-86400D03*
Y-79100D03*
Y-71700D03*
Y-64300D03*
Y-56900D03*
Y-49500D03*
Y-42200D03*
Y-34800D03*
Y-27400D03*
Y-20000D03*
Y-12600D03*
Y-5200D03*
Y2100D03*
Y9500D03*
Y16900D03*
Y24300D03*
Y31700D03*
Y39100D03*
Y46400D03*
Y53800D03*
Y61200D03*
Y68600D03*
Y76000D03*
Y83300D03*
Y90700D03*
Y98100D03*
Y105500D03*
Y112900D03*
Y120300D03*
Y127600D03*
Y135000D03*
X-161000Y150800D03*
X-160600Y142400D03*
X-161000Y156400D03*
X-155900Y-146100D03*
X-159400Y-148800D03*
X-152500Y-148900D03*
X-151000Y-145200D03*
X-147500Y-134400D03*
X-155100Y-142100D03*
Y-136400D03*
X-147500Y-128800D03*
Y-123200D03*
X-155100Y-130800D03*
Y-125200D03*
Y-119500D03*
X-147500Y-117500D03*
Y-111900D03*
Y-106300D03*
X-155100Y-113900D03*
Y-108300D03*
X-147500Y-100600D03*
Y-95000D03*
X-155100Y-102600D03*
Y-97000D03*
Y-91400D03*
X-152500Y-87800D03*
X-149400Y-84800D03*
X-153600Y-82100D03*
X-157800Y-88200D03*
X-150100Y-67300D03*
Y-72900D03*
Y-78600D03*
X-153600Y-74800D03*
Y-67400D03*
X-150100Y-56000D03*
Y-61700D03*
X-153600Y-60000D03*
X-150100Y-44800D03*
Y-50400D03*
X-153600Y-52600D03*
Y-45200D03*
X-150100Y-39100D03*
X-153600Y-37800D03*
Y-30500D03*
Y-23100D03*
Y-15700D03*
Y-8300D03*
X-150500Y14900D03*
X-153600Y17700D03*
X-150100Y21400D03*
Y17700D03*
X-153600Y13800D03*
Y21200D03*
Y25100D03*
Y32400D03*
X-150100Y36200D03*
Y28800D03*
Y25100D03*
Y32500D03*
X-153600Y28600D03*
Y36000D03*
Y39800D03*
Y47200D03*
X-150100Y43600D03*
Y39900D03*
Y47300D03*
X-153600Y43400D03*
Y54600D03*
Y62000D03*
X-150100Y58400D03*
Y51000D03*
Y54700D03*
Y62000D03*
X-153600Y50700D03*
Y58100D03*
Y69300D03*
X-150100Y73100D03*
Y65700D03*
Y69400D03*
X-153600Y65500D03*
Y72900D03*
Y76700D03*
Y84100D03*
X-150100Y87900D03*
Y80500D03*
Y76800D03*
Y84200D03*
X-153600Y80300D03*
Y87600D03*
Y91500D03*
Y98900D03*
X-150100Y95300D03*
Y91600D03*
Y99000D03*
X-153600Y95000D03*
Y106300D03*
X-150100Y110000D03*
Y102600D03*
Y106300D03*
X-153600Y102400D03*
Y109800D03*
Y117200D03*
X-155500Y138200D03*
X-152800Y147000D03*
X-158500D03*
X-155400Y150800D03*
X-149800D03*
X-156100Y142600D03*
X-148800D03*
X-149800Y156400D03*
X-155400D03*
X-135600Y-148900D03*
X-141200D03*
X-146800D03*
X-141000Y-139100D03*
X-136300Y-133600D03*
X-135600Y-138200D03*
X-138100Y-141200D03*
X-143700D03*
X-147300Y-137800D03*
X-144300Y-125600D03*
X-136300Y-125000D03*
X-135600Y-120200D03*
X-138700Y-127700D03*
X-138600Y-122800D03*
X-136500Y-130000D03*
X-135500Y-113200D03*
X-136900Y-110400D03*
X-136400Y-107400D03*
X-138700Y-112900D03*
X-144800Y-113000D03*
X-146800Y-114800D03*
Y-109000D03*
X-136900Y-115800D03*
X-145800Y-103900D03*
X-137300Y-104000D03*
X-138500Y-91600D03*
X-140600Y-88300D03*
X-144200Y-91600D03*
X-146700Y-82700D03*
X-134800Y-82500D03*
X-137600Y-84800D03*
X-137300Y-80100D03*
X-144900Y-80000D03*
X-135600Y-88200D03*
X-137900Y-68400D03*
X-139600Y-69200D03*
X-144900Y-77200D03*
X-145800Y-70600D03*
X-146200Y-67400D03*
Y-74800D03*
X-141100Y-74000D03*
X-139500Y-73300D03*
X-139400Y-66200D03*
X-139200Y-61500D03*
X-137600Y-64100D03*
X-137400Y-58500D03*
X-145600Y-63800D03*
X-136100Y-55000D03*
X-143300Y-55900D03*
X-145000Y-57600D03*
X-141500Y-54200D03*
X-146200Y-60000D03*
X-142100Y-51800D03*
X-141300Y-48100D03*
X-140800Y-46100D03*
Y-44200D03*
X-138700Y-45000D03*
X-142500Y-49500D03*
X-141700Y-42100D03*
X-146200Y-45200D03*
Y-52600D03*
X-139600Y-29900D03*
X-141500Y-39300D03*
X-140000Y-36800D03*
Y-34200D03*
X-146200Y-30500D03*
Y-37800D03*
X-139700Y-23300D03*
X-139300Y-16600D03*
X-140000Y-26900D03*
Y-19500D03*
X-146200Y-15700D03*
Y-23100D03*
X-135600Y-9900D03*
X-135500Y-3600D03*
X-137200Y-14500D03*
X-135500Y-12600D03*
X-135700Y-7700D03*
X-138500Y-11500D03*
Y-4200D03*
X-146200Y-8300D03*
X-135600Y3300D03*
X-135700Y10900D03*
Y7100D03*
Y-300D03*
X-138500Y10600D03*
X-142500Y14300D03*
X-146300Y18000D03*
X-142400Y21400D03*
X-142500Y18100D03*
X-135700Y18300D03*
X-138500Y14100D03*
Y21400D03*
X-135700Y21800D03*
Y14400D03*
X-138500Y18000D03*
X-146400Y21500D03*
Y14100D03*
X-146300Y25400D03*
Y32700D03*
X-142400Y36200D03*
Y28800D03*
X-142500Y25400D03*
Y32800D03*
X-135700Y33100D03*
Y25700D03*
X-138500Y28800D03*
Y36200D03*
X-135700Y36600D03*
Y29200D03*
X-138500Y25400D03*
Y32700D03*
X-146400Y36300D03*
Y28900D03*
X-146300Y40100D03*
Y47500D03*
X-142400Y43600D03*
X-142500Y40200D03*
Y47600D03*
X-135700Y47800D03*
Y40400D03*
X-138500Y43600D03*
X-135700Y44000D03*
X-138500Y40100D03*
Y47500D03*
X-146400Y43700D03*
X-146300Y54900D03*
Y62300D03*
X-142400Y58400D03*
Y51000D03*
X-142500Y55000D03*
Y62300D03*
X-135700Y55200D03*
X-138500Y51000D03*
Y58400D03*
X-135800Y62500D03*
X-135700Y58700D03*
Y51400D03*
X-138500Y54900D03*
Y62300D03*
X-146400Y58400D03*
Y51000D03*
X-146300Y69700D03*
X-142400Y73100D03*
Y65700D03*
X-142500Y69700D03*
X-138500Y65700D03*
Y73100D03*
X-135600Y69000D03*
X-134900Y71300D03*
X-135700Y73500D03*
Y66100D03*
X-138500Y69700D03*
X-146400Y73200D03*
Y65800D03*
X-146300Y77000D03*
Y84400D03*
X-142400Y87900D03*
Y80500D03*
X-142500Y77100D03*
Y84500D03*
X-138500Y80500D03*
Y87900D03*
X-135700Y84200D03*
Y76800D03*
Y88300D03*
Y80900D03*
X-138500Y77000D03*
Y84400D03*
X-146400Y88000D03*
Y80600D03*
X-146300Y91800D03*
Y99200D03*
X-142400Y95300D03*
X-142500Y91900D03*
Y99300D03*
X-138500Y95300D03*
X-135700Y99000D03*
Y91600D03*
Y95600D03*
X-138500Y91800D03*
Y99200D03*
X-146400Y95300D03*
X-139400Y110100D03*
X-142400Y110000D03*
X-146300Y106600D03*
X-142400Y102600D03*
X-142500Y106600D03*
X-138500Y102600D03*
X-135700Y106300D03*
Y110400D03*
Y103000D03*
X-138500Y106600D03*
Y113900D03*
X-146400Y110100D03*
Y102700D03*
X-138800Y120300D03*
X-135700Y125200D03*
Y117800D03*
X-146400Y117500D03*
X-138600Y138700D03*
X-135700Y132600D03*
X-135900Y147000D03*
X-141600D03*
X-147200D03*
X-144100Y150800D03*
X-138500D03*
X-141400Y142600D03*
X-138500Y156400D03*
X-144100D03*
X-124300Y-148900D03*
X-129900D03*
X-124000Y-140000D03*
X-132300Y-138300D03*
X-128900Y-138200D03*
X-126800Y-141200D03*
X-132500D03*
X-133200Y-125700D03*
X-130500Y-125500D03*
X-130100Y-122900D03*
X-133300Y-123000D03*
X-131800Y-120300D03*
X-127900Y-124900D03*
X-127800Y-120200D03*
X-130200Y-128500D03*
X-133600Y-128400D03*
X-127800Y-130000D03*
X-130500Y-110400D03*
X-133200Y-111800D03*
X-130400Y-113000D03*
X-133200Y-108500D03*
X-129600Y-108200D03*
X-131700Y-105900D03*
X-127800Y-112800D03*
X-131100Y-115800D03*
X-133900D03*
X-127900Y-110100D03*
X-127800Y-115700D03*
X-133800Y-104200D03*
X-123300Y-94500D03*
X-127200Y-91600D03*
X-132900D03*
X-123500Y-82500D03*
X-129200D03*
X-126300Y-84800D03*
X-131900D03*
X-128400Y-80100D03*
X-128200Y-88200D03*
X-128500Y-77000D03*
X-133600Y-67500D03*
Y-70300D03*
X-121900Y-62300D03*
X-123900Y-62400D03*
X-127100Y-64600D03*
X-128800Y-63800D03*
X-133700Y-63900D03*
Y-60700D03*
X-126200Y-54800D03*
X-132900D03*
X-129500D03*
X-123000Y-54500D03*
X-131200Y-61500D03*
X-123000Y-65300D03*
X-127400Y-61600D03*
X-128500Y-41000D03*
X-122800Y-44400D03*
X-124700D03*
X-126500D03*
X-128400D03*
X-130200D03*
X-132000D03*
X-133900D03*
X-128600Y-38700D03*
X-124800Y-35700D03*
X-128300Y-35800D03*
X-132900Y-35500D03*
X-124400Y-33100D03*
X-128800Y-33000D03*
X-132800Y-32900D03*
X-131300Y-28300D03*
X-130800Y-29900D03*
X-128700Y-27900D03*
X-133500Y-29800D03*
X-126900D03*
X-131500Y-25500D03*
X-133500Y-26900D03*
Y-23600D03*
X-133100Y73100D03*
X-130800Y74500D03*
X-127500Y74200D03*
X-123000Y74100D03*
X-125200Y74900D03*
X-132500Y80100D03*
Y87500D03*
X-132600Y83700D03*
Y76300D03*
X-130200Y82600D03*
X-127500Y82500D03*
X-127200Y78500D03*
Y85900D03*
X-125200Y82300D03*
X-130200Y78700D03*
Y86000D03*
X-132500Y94900D03*
X-132600Y98400D03*
Y91000D03*
X-130200Y90000D03*
Y97300D03*
X-127500D03*
Y89900D03*
X-127200Y93300D03*
Y100600D03*
X-125200Y97000D03*
Y89600D03*
X-130200Y93400D03*
Y100800D03*
X-127400Y107700D03*
X-132900Y108900D03*
X-132500Y102300D03*
X-132600Y105800D03*
X-130200Y104700D03*
X-127500Y104600D03*
X-121900Y104300D03*
X-125200Y111800D03*
Y104400D03*
X-130200Y108200D03*
X-125200Y126600D03*
Y119200D03*
X-130200Y115600D03*
Y122900D03*
X-123200Y138600D03*
X-125200Y133900D03*
X-130200Y130300D03*
Y137700D03*
X-124700Y147000D03*
X-130300D03*
X-132900Y150800D03*
X-127200D03*
X-134000Y142600D03*
X-126600D03*
X-127200Y156400D03*
X-132900D03*
X-113000Y-148900D03*
X-118700D03*
X-116100Y-137700D03*
X-109900Y-141200D03*
X-115600D03*
X-121200D03*
X-109900Y-124900D03*
X-115500D03*
X-115600Y-129600D03*
X-109900Y-120000D03*
X-115500D03*
X-109900Y-115800D03*
X-115500D03*
X-115100Y-107900D03*
X-112400D03*
X-119000Y-94400D03*
X-120100Y-97600D03*
X-116100Y-95600D03*
X-118000Y-100200D03*
X-114900Y-101100D03*
X-113300D03*
X-111700D03*
X-114900Y-99400D03*
X-113300D03*
X-111700D03*
X-116000Y-91600D03*
X-121600D03*
X-114900Y-82100D03*
X-117900Y-82500D03*
X-115000Y-84800D03*
X-120700D03*
X-113600Y-79900D03*
X-117300D03*
X-113500Y-88200D03*
X-120800D03*
X-115500Y-78600D03*
X-119500Y-74500D03*
X-110000Y-76700D03*
X-111400D03*
X-120800Y-60800D03*
X-118900Y-62300D03*
X-119100Y-59600D03*
X-110500Y-61500D03*
X-111400Y-59600D03*
X-113000Y-58100D03*
X-114800Y-56600D03*
X-116500Y-54900D03*
X-117100Y-57200D03*
X-120000Y-51200D03*
X-121600Y-49800D03*
X-121500Y-47200D03*
X-121300Y-52600D03*
X-118300Y-53000D03*
X-121300Y-41900D03*
X-121600Y-38600D03*
X-121500Y-35800D03*
X-109200Y-26500D03*
X-114800Y-21000D03*
X-111500Y-20600D03*
X-109700Y-23300D03*
X-112900D03*
X-113700Y-18700D03*
X-109900Y-18500D03*
X-117600Y-18700D03*
X-110900Y-6000D03*
X-111600Y-3200D03*
X-113600Y-5100D03*
X-117300D03*
Y-8800D03*
X-113600D03*
X-109900D03*
Y-12500D03*
X-113600D03*
X-117300D03*
X-121000D03*
X-120900Y-9500D03*
Y-5800D03*
Y-2100D03*
X-109400Y-3000D03*
X-111600Y500D03*
Y4200D03*
Y7900D03*
X-117300Y9600D03*
X-113600D03*
Y2300D03*
Y5900D03*
X-117300D03*
Y2300D03*
Y-1400D03*
X-113600D03*
X-120900Y1600D03*
Y5300D03*
Y9000D03*
X-118900Y22600D03*
X-111600Y11600D03*
Y15300D03*
Y19000D03*
Y22700D03*
X-113600Y20700D03*
X-117300D03*
Y17000D03*
X-113600D03*
Y13300D03*
X-117300D03*
X-120900Y12700D03*
Y16400D03*
Y20100D03*
Y23700D03*
X-115400Y30100D03*
Y33700D03*
X-118900Y26300D03*
Y30000D03*
X-119000Y33600D03*
X-111600Y26400D03*
Y30100D03*
Y33700D03*
X-113600Y35500D03*
X-117300D03*
Y31800D03*
X-113600D03*
Y28100D03*
X-117300D03*
Y24400D03*
X-113600D03*
X-120900Y27400D03*
Y31100D03*
Y34800D03*
X-115400Y37400D03*
X-119000Y37200D03*
X-110100Y39500D03*
X-111700Y43200D03*
X-109600Y43000D03*
X-115600Y41300D03*
X-119100Y40700D03*
X-115400Y44700D03*
X-119100Y44500D03*
X-118700Y48400D03*
X-115500Y47600D03*
X-109000Y47500D03*
X-111400Y47400D03*
X-111000Y49500D03*
X-114800Y49600D03*
X-113000D03*
X-109000Y49500D03*
X-116700D03*
X-110900Y37600D03*
Y41300D03*
Y45000D03*
X-117300Y46500D03*
X-113600D03*
Y42900D03*
X-117300D03*
Y39200D03*
X-113600D03*
X-120900Y38500D03*
Y42200D03*
Y45900D03*
Y49600D03*
X-120200Y59000D03*
X-120000Y55300D03*
Y51400D03*
X-119000Y62200D03*
X-118400Y53200D03*
Y57200D03*
Y55100D03*
X-118300Y51200D03*
X-118400Y59100D03*
X-110700Y60700D03*
X-114600D03*
X-112600D03*
X-108800Y60500D03*
X-116800Y60600D03*
X-120900Y53300D03*
Y57000D03*
Y60700D03*
X-111600Y62700D03*
X-115500Y62800D03*
X-109700Y64400D03*
X-113400D03*
X-117100D03*
X-120800D03*
X-120600Y74200D03*
X-117600D03*
X-114700Y74100D03*
X-114900Y71400D03*
Y69700D03*
Y67900D03*
X-116900Y71400D03*
Y69700D03*
Y67898D03*
X-120600Y76700D03*
X-117700D03*
X-115300Y82600D03*
X-111900D03*
X-119200D03*
X-115800Y86300D03*
X-114900Y76700D03*
X-114600Y79300D03*
X-109800Y79200D03*
X-112100Y86600D03*
Y79200D03*
X-119500D03*
Y86600D03*
X-108700Y97300D03*
X-116100D03*
X-120200Y97400D03*
X-112900D03*
X-115800Y90000D03*
X-119300Y90100D03*
X-112200Y90000D03*
X-115800Y93600D03*
Y101100D03*
X-112100Y101300D03*
Y94000D03*
X-119500D03*
Y101300D03*
X-110900Y104300D03*
X-114500D03*
X-118200D03*
X-112100Y108800D03*
X-119500D03*
X-112100Y123600D03*
Y116200D03*
X-119500D03*
Y123600D03*
X-112300Y130900D03*
X-119700D03*
X-115800Y138600D03*
X-113400Y147000D03*
X-119000D03*
X-121600Y150800D03*
X-116000D03*
X-110300D03*
X-119200Y142600D03*
X-111900D03*
X-110300Y156400D03*
X-116000D03*
X-121600D03*
X-96100Y-148900D03*
X-101800D03*
X-107400D03*
X-96600Y-137200D03*
X-107000Y-137400D03*
X-98700Y-141200D03*
X-104300D03*
X-95800Y-128400D03*
X-101500D03*
X-107100D03*
X-98600Y-124900D03*
X-104200D03*
X-98600Y-120000D03*
X-104200D03*
X-99200Y-110900D03*
X-104000D03*
X-97400Y-108400D03*
X-101700Y-108300D03*
X-107300D03*
X-106800Y-113400D03*
X-101100D03*
X-98600Y-115800D03*
X-104200D03*
X-98500Y-95100D03*
Y-89400D03*
Y-83800D03*
X-96700Y-69400D03*
X-98500Y-78200D03*
Y-72500D03*
X-96000Y-66500D03*
X-98500Y-66700D03*
X-108500Y-73600D03*
Y-75200D03*
Y-76700D03*
X-99100Y-58300D03*
X-98800Y-65000D03*
X-98700Y-62900D03*
X-100200Y-51300D03*
X-101000Y-49300D03*
X-98400Y-52900D03*
X-101400Y-46700D03*
X-105200Y-41400D03*
X-105000Y-46100D03*
X-108100Y-40900D03*
X-108200Y-43700D03*
X-97400Y-43300D03*
X-100000Y-40900D03*
X-98200Y-48800D03*
X-105100Y-37300D03*
X-106400Y-32800D03*
X-108200Y-38200D03*
X-108000Y-35700D03*
X-105000Y-29700D03*
X-108200Y-29800D03*
X-97200Y-32400D03*
X-96300Y-29100D03*
X-99900Y-38200D03*
X-100000Y-31200D03*
X-100100Y-34700D03*
X-98200Y-27100D03*
X-100400Y-25200D03*
X-102800Y-22400D03*
X-102700Y-25100D03*
X-100500Y-27400D03*
X-105100Y-22300D03*
Y-19300D03*
X-97100Y-20100D03*
X-97500Y-18200D03*
X-102500Y-17900D03*
X-100600D03*
X-101500Y-10500D03*
X-99800Y-10450D03*
X-104100Y-10000D03*
X-97100Y-9950D03*
X-106600Y-4600D03*
X-107900Y-6204D03*
X-96000Y3638D03*
X-106400Y2200D03*
X-106500Y6100D03*
X-106400Y4100D03*
X-105100Y500D03*
X-106300Y10100D03*
X-98950Y10250D03*
X-106450Y8200D03*
X-106600Y-1300D03*
X-99200Y7899D03*
X-98400Y12650D03*
X-96750D03*
X-97200Y21700D03*
X-100600Y20200D03*
X-99900Y22500D03*
X-103600Y18800D03*
Y22500D03*
X-106500Y14600D03*
Y16900D03*
Y19100D03*
Y21200D03*
Y23400D03*
X-104650Y13600D03*
X-105800Y12000D03*
X-103200Y14950D03*
X-100950Y16050D03*
X-99800Y18050D03*
X-96400Y19400D03*
X-97700Y18000D03*
X-102000Y33400D03*
X-101800Y29700D03*
X-99100Y27900D03*
X-102000D03*
X-104500D03*
X-97500Y30100D03*
X-99100Y31800D03*
X-101600Y31700D03*
X-104700D03*
X-97300Y33700D03*
X-99000Y35500D03*
X-101400Y35400D03*
X-97200Y24600D03*
Y28300D03*
Y32000D03*
Y35700D03*
X-99900Y33600D03*
Y29900D03*
Y26200D03*
X-103600D03*
Y29900D03*
Y33600D03*
X-106500Y25600D03*
Y27900D03*
Y30200D03*
Y32300D03*
X-105100Y35700D03*
X-106400Y34400D03*
X-97800Y37400D03*
X-106700Y48300D03*
X-104600Y47700D03*
X-105500Y45400D03*
X-108000D03*
X-103300D03*
X-99900Y37200D03*
X-103700Y37100D03*
X-102400Y38300D03*
X-100700Y40100D03*
X-98400D03*
X-96700Y38800D03*
X-107431Y39431D03*
X-105500Y54000D03*
X-105400Y56400D03*
X-106400Y61400D03*
X-107300Y52900D03*
X-107400Y57300D03*
Y55400D03*
Y51000D03*
Y59400D03*
X-104600Y60700D03*
X-104700Y58700D03*
X-103400Y55400D03*
X-103600Y57200D03*
X-103500Y53500D03*
X-104700Y49900D03*
Y51800D03*
X-108100Y62700D03*
X-107200Y64600D03*
X-104700Y62800D03*
X-104900Y64800D03*
X-102400Y64700D03*
X-103800Y73300D03*
X-106200Y73400D03*
X-108300D03*
X-101800Y74000D03*
X-102100Y71700D03*
X-107900Y82600D03*
X-104500D03*
X-108000Y86200D03*
X-104800Y76400D03*
X-107800Y76000D03*
X-107500Y78700D03*
X-102200Y76200D03*
X-101800Y78700D03*
Y81200D03*
X-101700Y83600D03*
Y85900D03*
X-96000Y83000D03*
X-96100Y80600D03*
X-95800Y85300D03*
X-101000Y88000D03*
X-104700Y79200D03*
Y86600D03*
X-105500Y97400D03*
X-108400Y90000D03*
X-104800D03*
X-108000Y93600D03*
Y101000D03*
X-102700Y95900D03*
Y99600D03*
X-100400Y97800D03*
X-101200Y90100D03*
Y92200D03*
X-96800Y97900D03*
X-98700Y96300D03*
X-100300Y94400D03*
X-96600Y91000D03*
X-97300Y101300D03*
X-104700Y94000D03*
Y101300D03*
X-100400Y101500D03*
X-96100Y104300D03*
X-99800D03*
X-103500D03*
X-107200D03*
X-97300Y108800D03*
X-104700D03*
Y116200D03*
X-97300D03*
Y123600D03*
X-104700D03*
X-104900Y130900D03*
X-101100Y138600D03*
X-108500D03*
X-98000Y146300D03*
X-102100Y147000D03*
X-107800D03*
X-104700Y150800D03*
X-104500Y142600D03*
X-97100D03*
X-104700Y156400D03*
X-84900Y-148900D03*
X-90500D03*
X-86700Y-137400D03*
X-87400Y-141200D03*
X-93000D03*
X-84600Y-128400D03*
X-90200D03*
X-87300Y-124900D03*
X-93000D03*
X-87300Y-120000D03*
X-93000D03*
X-95500Y-110700D03*
Y-113400D03*
X-89900D03*
X-85000Y-113300D03*
X-87300Y-115800D03*
X-93000D03*
X-94600Y-92600D03*
X-84800Y-97300D03*
X-85500Y-99400D03*
X-89100Y-96200D03*
X-94700D03*
X-94500Y-89000D03*
Y-83300D03*
X-90400Y-80400D03*
Y-86100D03*
Y-91700D03*
X-84800D03*
Y-86100D03*
Y-80400D03*
X-94500Y-77700D03*
Y-72100D03*
X-90400Y-74800D03*
X-84800D03*
X-91900Y-69800D03*
X-87900Y-72400D03*
X-83600Y-68400D03*
X-86100Y-68200D03*
X-87700Y-66800D03*
X-94000Y-66600D03*
X-86400Y-60600D03*
X-83000Y-60700D03*
X-89900D03*
X-90700Y-64300D03*
X-92200Y-62500D03*
X-94000Y-53600D03*
X-84600Y-52700D03*
X-85000Y-47700D03*
X-87400Y-50000D03*
X-94000Y-51200D03*
X-92000Y-43500D03*
X-94200Y-43300D03*
X-89800Y-44800D03*
X-91900Y-46400D03*
X-95200Y-45500D03*
X-93800Y-48400D03*
X-88100Y-42700D03*
X-87501Y-52599D03*
X-88300Y-38700D03*
X-94500Y-30700D03*
X-88100Y-30000D03*
X-84600Y-32700D03*
X-87700Y-21100D03*
X-85900Y-22800D03*
X-94400Y-23600D03*
X-91300Y-26700D03*
X-83900Y-20900D03*
X-85800Y-20250D03*
X-87350Y-18900D03*
X-89550D03*
X-95257Y-18057D03*
X-93800Y-19600D03*
X-92300Y-18100D03*
X-89500Y-13400D03*
X-85850Y-6050D03*
X-90700Y-6100D03*
X-85850Y-3600D03*
X-90700D03*
X-83550D03*
X-88350D03*
X-93200D03*
X-88350Y-6100D03*
X-83550D03*
X-93150D03*
X-84850Y5350D03*
X-91400Y5400D03*
X-93750D03*
X-85850Y-1250D03*
X-90750D03*
X-85850Y1100D03*
X-90800D03*
X-85850Y3550D03*
X-90800D03*
X-83550Y1100D03*
X-88350D03*
X-93200D03*
X-88350Y-1250D03*
Y3500D03*
X-83550Y-1250D03*
X-93200D03*
X-83550Y3500D03*
X-93200D03*
X-92700Y23200D03*
X-93646Y21932D03*
X-83600Y18800D03*
X-95050Y20650D03*
X-82900Y16500D03*
X-95400Y35100D03*
X-92900Y34500D03*
X-92800Y36300D03*
X-94500Y33400D03*
X-92800Y32600D03*
X-95000Y27200D03*
Y29400D03*
X-94900Y31200D03*
X-94400Y25000D03*
X-92700Y24700D03*
X-85100Y34700D03*
X-84100Y27700D03*
X-84200Y30300D03*
X-82900Y32600D03*
X-83000Y35100D03*
X-87300Y35500D03*
X-87200Y33700D03*
X-85800Y32000D03*
Y25800D03*
X-87300Y28800D03*
X-87200Y30400D03*
Y27200D03*
X-83800Y23900D03*
X-85900D03*
X-88600Y48400D03*
X-94900Y37100D03*
X-94800Y40100D03*
X-92800Y38200D03*
Y40300D03*
X-85100Y40000D03*
Y37500D03*
X-83000D03*
Y40100D03*
Y42600D03*
X-84200Y43900D03*
X-82900Y45200D03*
X-85600Y42500D03*
X-87300Y39300D03*
Y37400D03*
X-87400Y41300D03*
X-83600Y49600D03*
X-85300Y48200D03*
X-86900Y46700D03*
X-89000Y45900D03*
X-90600Y48000D03*
X-93100Y47800D03*
X-88900Y62000D03*
X-91200Y61800D03*
X-88500Y58600D03*
X-91200Y58000D03*
X-89200Y54700D03*
X-92000Y52700D03*
X-92100Y55000D03*
X-88600Y51500D03*
X-90600Y50500D03*
X-84700Y61700D03*
X-85600Y59000D03*
Y55400D03*
Y51700D03*
X-87300Y60900D03*
Y57200D03*
Y53500D03*
Y49800D03*
X-90300Y52600D03*
Y56300D03*
Y60000D03*
X-83300Y57900D03*
X-83000Y60300D03*
X-83400Y51700D03*
X-83600Y53700D03*
Y55800D03*
X-93000Y50500D03*
X-94400Y54700D03*
X-93900Y53000D03*
Y56400D03*
X-93100Y60800D03*
X-93200Y58500D03*
X-83700Y72500D03*
X-87400D03*
X-91000D03*
X-83700Y68800D03*
X-87400D03*
X-91000D03*
X-90500Y65600D03*
X-92600Y65100D03*
X-88000Y64300D03*
X-86100Y64000D03*
X-90300Y63700D03*
X-83100Y62700D03*
Y64900D03*
X-93000Y63300D03*
X-92700Y67000D03*
X-89000D03*
X-85300D03*
Y70700D03*
Y74300D03*
X-89000D03*
Y70700D03*
X-92700D03*
Y74300D03*
X-95100Y64400D03*
X-94500Y66200D03*
X-95500Y69900D03*
X-95700Y67900D03*
X-95400Y72000D03*
X-95500Y74500D03*
X-83400Y79900D03*
X-87100D03*
X-90800D03*
X-83500Y76100D03*
X-87200D03*
X-90900D03*
X-92700Y78000D03*
X-89000D03*
X-85300D03*
Y81700D03*
X-89000D03*
X-92700D03*
X-95300Y76900D03*
X-94600Y78900D03*
X-84100Y84700D03*
X-94000Y85600D03*
X-92000D03*
X-90000Y84700D03*
X-87900D03*
X-85900Y85400D03*
X-91400Y98600D03*
X-94300D03*
X-95300Y92600D03*
X-94000Y91200D03*
X-91400D03*
X-89200Y92100D03*
X-85900Y91500D03*
X-83100Y98500D03*
X-88700Y98400D03*
Y100300D03*
X-93300Y95100D03*
X-93900Y101600D03*
X-91200D03*
X-92400Y104300D03*
X-83000Y101500D03*
X-82900Y104100D03*
X-88700Y102700D03*
Y105000D03*
Y107400D03*
X-89000Y109900D03*
Y112100D03*
X-89900Y114000D03*
Y116300D03*
Y118600D03*
X-89600Y122500D03*
Y124700D03*
Y120600D03*
X-91700Y117700D03*
X-93900Y118800D03*
Y120700D03*
Y124700D03*
Y126900D03*
X-94300Y122600D03*
X-89700Y126600D03*
X-94900Y139700D03*
X-88700Y128100D03*
X-83100D03*
Y129700D03*
Y132500D03*
Y135300D03*
Y138100D03*
X-88700Y129700D03*
Y132500D03*
Y135300D03*
Y138100D03*
X-91600Y127805D03*
X-86000Y151800D03*
X-90100Y149800D03*
X-93100Y146300D03*
X-90900Y140300D03*
X-89400Y147100D03*
X-91100Y144000D03*
X-86200Y148300D03*
X-89500Y153300D03*
X-85900Y156200D03*
X-91100Y156500D03*
X-73600Y-148900D03*
X-79200D03*
X-76700Y-137200D03*
X-70500Y-141200D03*
X-76100D03*
X-81800D03*
X-72200Y-125000D03*
X-73300Y-128400D03*
X-78900D03*
X-76100Y-124900D03*
X-81700D03*
X-72100Y-121300D03*
X-76100Y-120000D03*
X-81700D03*
X-79600Y-107800D03*
X-81900Y-106600D03*
X-81800Y-109900D03*
X-76900Y-116700D03*
X-81800Y-117000D03*
X-79400Y-114600D03*
X-79200Y-97300D03*
X-73500D03*
X-73800Y-92800D03*
X-77900Y-101500D03*
X-73200Y-101400D03*
X-79700Y-104500D03*
X-82600Y-102900D03*
X-79200Y-80400D03*
Y-86100D03*
Y-91700D03*
X-73800Y-87100D03*
Y-81500D03*
X-79200Y-74800D03*
X-73800Y-75900D03*
X-82200Y-72400D03*
X-76600D03*
X-71000D03*
X-74000Y-68600D03*
X-70500Y-68500D03*
X-77900D03*
X-80950Y-66850D03*
X-72700Y-62000D03*
Y-64600D03*
X-72600Y-59400D03*
X-81919Y-55519D03*
X-72400Y-52800D03*
X-70800Y-47200D03*
X-80400Y-52700D03*
X-76100D03*
X-70800Y-43000D03*
X-78400Y-45700D03*
X-78200Y-48500D03*
X-82100Y-48600D03*
X-81600Y-44800D03*
X-75600Y-47500D03*
X-75700Y-43200D03*
X-79600Y-43000D03*
X-70800Y-31800D03*
X-80000Y-33000D03*
X-76100Y-32800D03*
X-70400Y-23800D03*
X-76700Y-24000D03*
X-80400D03*
X-74600Y-27000D03*
X-78200D03*
X-82000D03*
X-79500Y-20900D03*
X-81600D03*
X-77200Y-20500D03*
X-75100Y-19900D03*
X-71200Y-19800D03*
X-73299Y-22499D03*
X-76500Y-4700D03*
X-78200Y-11500D03*
X-71400Y-8500D03*
X-75300Y-7800D03*
X-75100Y-9800D03*
X-70850Y-12300D03*
X-81750Y-4250D03*
X-73299Y-3599D03*
X-74250Y350D03*
X-72500Y2200D03*
X-72600Y600D03*
X-71480Y9921D03*
X-73050Y8850D03*
X-74450Y7850D03*
X-75750Y6650D03*
X-79500Y9150D03*
X-81600Y-1800D03*
X-81650Y2850D03*
Y450D03*
X-81800Y5300D03*
X-72119Y19119D03*
X-81900Y18800D03*
X-76400Y18900D03*
X-70400Y21100D03*
X-70135Y11264D03*
X-73114Y11700D03*
X-82000Y26300D03*
X-81900Y28900D03*
Y31000D03*
X-81800Y23900D03*
X-74300Y29100D03*
X-74900Y26500D03*
X-75100Y24400D03*
Y31400D03*
X-76300Y29900D03*
Y28100D03*
X-74000Y32900D03*
Y35400D03*
X-75681Y43419D03*
X-74000Y37900D03*
X-75900Y39800D03*
X-77500Y41100D03*
X-70500Y42300D03*
X-71300Y44400D03*
X-71000Y46500D03*
X-73100D03*
X-75600Y47500D03*
X-70200Y53000D03*
X-70300Y55500D03*
X-70200Y50900D03*
X-72100Y56500D03*
X-74600Y56400D03*
X-71000Y58200D03*
X-73600D03*
X-76700Y56800D03*
X-79100Y57200D03*
X-80700Y58800D03*
X-75900Y59200D03*
X-78100D03*
X-81600Y68900D03*
X-78600Y66700D03*
X-77900Y70400D03*
X-70000Y69100D03*
Y72800D03*
X-79100Y68500D03*
Y72200D03*
X-81600Y67000D03*
Y70700D03*
Y74300D03*
X-75600Y67700D03*
X-75700Y71600D03*
Y69700D03*
X-76500Y66000D03*
X-75600Y73700D03*
X-70900Y84700D03*
X-71100Y82400D03*
X-71200Y87200D03*
X-79100Y75900D03*
Y79600D03*
Y83300D03*
X-81600Y78000D03*
Y81700D03*
X-76900Y75700D03*
Y78100D03*
Y80500D03*
X-76800Y83100D03*
X-77300Y85500D03*
X-80000Y85600D03*
X-82000Y84700D03*
X-81100Y100700D03*
X-76200Y99400D03*
X-71800Y98600D03*
X-71700Y95400D03*
X-72400Y92400D03*
X-74200Y94200D03*
X-72600Y89700D03*
X-74900Y91100D03*
X-82400Y92100D03*
X-78400Y92800D03*
X-80000Y91033D03*
X-76100Y93800D03*
X-77400Y91200D03*
X-75800Y95800D03*
X-78000Y97800D03*
X-80400Y98700D03*
X-74400Y97900D03*
X-78700Y95100D03*
X-72600Y103400D03*
X-80600D03*
X-76400Y103100D03*
X-70900Y101700D03*
Y105400D03*
X-78900Y101700D03*
Y105400D03*
X-74200Y101600D03*
X-82800Y107000D03*
X-82500Y109200D03*
X-80100Y110100D03*
X-80300Y112200D03*
X-81600Y113800D03*
X-74400Y105500D03*
Y112900D03*
X-81800Y115700D03*
X-78000Y122500D03*
Y124700D03*
Y120400D03*
X-77600Y118300D03*
X-79600Y117700D03*
X-81800Y117800D03*
X-78000Y126800D03*
X-82200Y122500D03*
Y124700D03*
X-82100Y120600D03*
X-74400Y120300D03*
X-73500Y126600D03*
X-82300D03*
X-71000Y139900D03*
X-77800Y140000D03*
X-80300Y128200D03*
X-81600Y149400D03*
X-71400Y146100D03*
X-78100Y146000D03*
X-70200Y150700D03*
X-81100Y140100D03*
X-82400Y147100D03*
X-80500Y143600D03*
X-74400Y142600D03*
X-82600Y153300D03*
X-80900Y156400D03*
X-70200D03*
X-62300Y-148900D03*
X-68000D03*
X-57400Y-145600D03*
X-62300Y-139100D03*
X-62700Y-135200D03*
X-66000Y-133000D03*
X-66500Y-137000D03*
X-62300Y-131300D03*
X-59100Y-134100D03*
X-64900Y-141200D03*
X-57292Y-143892D03*
X-68700Y-128600D03*
Y-124900D03*
X-65300Y-127900D03*
X-57400Y-108100D03*
Y-113800D03*
X-64600Y-107000D03*
X-64800Y-111600D03*
X-61100Y-115700D03*
Y-110500D03*
X-57400Y-96900D03*
Y-102500D03*
X-63500Y-102700D03*
X-63800Y-98900D03*
X-66600Y-101600D03*
X-61100Y-104900D03*
Y-99300D03*
Y-93600D03*
X-69300Y-92900D03*
X-69400Y-97600D03*
X-65300Y-93700D03*
X-57400Y-80000D03*
Y-85600D03*
Y-91200D03*
X-61100Y-88000D03*
Y-82400D03*
X-69300Y-87300D03*
Y-81700D03*
X-65300Y-82400D03*
Y-88000D03*
X-57400Y-74300D03*
X-61100Y-76700D03*
X-58200Y-68100D03*
X-61100Y-71000D03*
X-69300Y-76000D03*
X-62600Y-66700D03*
X-66100Y-68500D03*
X-65300Y-72400D03*
Y-76700D03*
X-68000Y-70200D03*
X-61900Y-64400D03*
X-68300Y-61000D03*
X-69700Y-59500D03*
X-66600D03*
X-62000Y-59100D03*
X-62819Y-56519D03*
X-59900Y-42700D03*
X-67300Y-46500D03*
X-65100Y-53100D03*
X-68700Y-52900D03*
X-62900Y-46500D03*
X-60000Y-49600D03*
X-65800Y-43100D03*
X-58200Y-34000D03*
X-61100Y-30800D03*
X-68400Y-34600D03*
X-66600Y-32000D03*
X-59600Y-20300D03*
X-57900Y-15000D03*
X-59400Y-23800D03*
X-63100D03*
X-66800D03*
X-69350Y-19850D03*
X-67550Y-19900D03*
X-61300Y-17250D03*
X-61500Y-15050D03*
X-62550Y-19000D03*
X-64300Y-17150D03*
X-64950Y-19200D03*
X-69850Y-9950D03*
X-69500Y-7450D03*
X-64500Y-14600D03*
X-63000Y-13050D03*
X-61550Y-11450D03*
X-60000Y-9850D03*
X-58550Y-8100D03*
X-58250Y-5900D03*
X-58350Y-3800D03*
X-67750Y-9050D03*
X-66100Y-7700D03*
X-65550Y-5800D03*
X-67800Y-5750D03*
X-63600Y-4750D03*
X-63500Y-2950D03*
X-66400Y-11850D03*
X-68200D03*
X-58300Y-1650D03*
X-58350Y500D03*
X-58300Y2750D03*
Y5000D03*
X-58350Y7150D03*
X-58400Y9250D03*
X-63450Y-1050D03*
X-63600Y800D03*
Y2700D03*
X-63900Y4500D03*
Y6400D03*
X-63950Y8200D03*
X-65350Y9500D03*
X-62300Y19700D03*
X-58600Y20000D03*
X-66000D03*
X-63000Y15400D03*
X-64900Y16200D03*
X-67100D03*
X-69700Y18500D03*
X-69500Y16000D03*
X-68800Y22500D03*
X-59600Y16700D03*
X-59200Y11200D03*
X-66350Y11150D03*
X-68150Y11200D03*
X-61900Y14050D03*
X-60700Y12650D03*
X-63200Y24300D03*
X-65600Y33600D03*
X-65400Y36200D03*
X-65800Y28300D03*
X-63300Y28000D03*
Y30600D03*
Y34300D03*
X-59500Y27700D03*
Y35100D03*
X-67900Y26400D03*
Y29300D03*
X-68000Y34100D03*
X-67900Y36700D03*
X-59600Y24100D03*
X-67000D03*
Y31400D03*
X-59600D03*
X-64900Y47200D03*
X-65000Y44200D03*
X-69000Y44300D03*
X-65200Y40200D03*
X-63300Y38000D03*
Y41700D03*
Y45400D03*
Y49100D03*
X-59500Y42500D03*
X-66900D03*
X-68900Y40800D03*
X-69000Y46900D03*
X-66800Y48700D03*
X-59600Y38800D03*
X-67000D03*
Y46200D03*
X-59600D03*
X-65300Y59000D03*
Y55500D03*
X-65600Y51000D03*
X-63400Y54000D03*
Y57200D03*
Y60900D03*
X-63700Y51600D03*
X-59500Y49900D03*
Y57300D03*
X-66900D03*
X-67700Y50900D03*
X-69300Y59800D03*
X-69600Y62100D03*
X-59600Y53600D03*
X-67000D03*
Y61000D03*
X-59600D03*
X-65400Y73600D03*
X-65100Y70200D03*
X-67400Y70800D03*
X-65300Y66400D03*
Y62700D03*
X-63400Y64600D03*
Y68300D03*
Y72000D03*
X-66900Y64700D03*
X-59500D03*
Y72000D03*
X-69700Y64500D03*
X-69900Y71000D03*
Y67200D03*
X-67900Y73700D03*
X-59600Y68300D03*
X-67000D03*
X-68500Y84900D03*
X-65200Y85100D03*
Y81400D03*
Y77800D03*
X-63400Y75700D03*
Y79400D03*
Y83100D03*
Y86800D03*
X-59500Y79400D03*
Y86800D03*
X-66900D03*
X-67400Y77600D03*
X-67200Y79700D03*
X-68600Y81700D03*
X-67000Y75700D03*
X-59600D03*
Y83100D03*
X-67000D03*
X-69900Y99900D03*
X-69200Y97000D03*
X-69400Y94000D03*
X-65200Y92200D03*
X-69900Y91200D03*
X-68800Y88600D03*
X-63400Y90500D03*
Y94100D03*
Y97800D03*
X-66900Y94200D03*
X-59500D03*
X-67000Y90500D03*
X-59600D03*
Y97900D03*
X-67000D03*
X-68900Y103300D03*
X-63400Y101500D03*
Y105200D03*
X-59500Y101600D03*
X-66900D03*
X-59600Y105500D03*
Y112900D03*
X-67000D03*
Y105500D03*
X-59600Y120300D03*
X-67000D03*
X-59600Y127600D03*
X-67000D03*
X-59600Y135100D03*
X-67000D03*
X-67400Y146500D03*
X-61800D03*
X-58900Y150700D03*
X-64600D03*
X-67000Y142600D03*
X-59600D03*
X-64600Y156400D03*
X-58900D03*
X-45400Y-148900D03*
X-51100D03*
X-56700D03*
X-46400Y-139000D03*
X-50100Y-138800D03*
X-44300Y-136400D03*
X-48900Y-136600D03*
X-48400Y-141200D03*
X-52200Y-141100D03*
Y-136500D03*
X-47100Y-123400D03*
X-56800Y-119500D03*
X-53800Y-122500D03*
X-51000Y-131000D03*
X-50350Y-122000D03*
X-47000Y-116600D03*
X-46700Y-110400D03*
Y-113500D03*
X-46800Y-107300D03*
X-54100Y-105300D03*
Y-111000D03*
Y-116600D03*
X-50350Y-114000D03*
X-45300Y-104500D03*
X-47800Y-93900D03*
X-44400Y-92900D03*
X-49500Y-96000D03*
X-47700Y-99000D03*
X-50700Y-102400D03*
X-52900Y-101000D03*
Y-95400D03*
X-49700Y-91100D03*
X-45600Y-90100D03*
X-52900Y-89800D03*
Y-84100D03*
X-49700Y-81900D03*
Y-84100D03*
X-47881Y-87581D03*
X-52900Y-78500D03*
Y-72900D03*
X-47200Y-69400D03*
X-47300Y-74200D03*
X-55800Y-70100D03*
X-52400Y-66700D03*
X-46700Y-76900D03*
X-46900Y-59400D03*
X-47000Y-64000D03*
X-46800Y-55300D03*
X-54400Y-66400D03*
X-54100Y-64200D03*
X-56300Y-64500D03*
Y-60100D03*
X-55600Y-55100D03*
X-53460Y-56460D03*
X-48900Y-49000D03*
X-49100Y-44600D03*
X-53800Y-44500D03*
X-52900Y-50100D03*
X-56600Y-46400D03*
X-46000Y-44600D03*
X-44800Y-49300D03*
X-46200Y-40500D03*
Y-34200D03*
X-51200Y-31000D03*
X-56300D03*
X-48100Y-30700D03*
X-49100Y-20400D03*
X-55600Y-18500D03*
X-53400Y-16300D03*
X-49500Y-16700D03*
X-48300Y-23800D03*
X-52000D03*
X-55700D03*
X-52300Y-20200D03*
X-44800Y-20100D03*
X-55600Y-9200D03*
X-49600Y-8800D03*
X-52300Y-12900D03*
Y-5500D03*
X-44800Y-12700D03*
Y-5300D03*
X-55600Y5500D03*
Y-1900D03*
X-49600Y-1400D03*
Y6000D03*
X-52300Y1900D03*
Y9300D03*
X-44800Y2100D03*
Y9400D03*
X-55500Y18100D03*
X-55600Y12900D03*
X-49600Y13400D03*
X-51300Y20000D03*
X-48100Y23600D03*
X-52300Y16700D03*
X-44800Y16800D03*
X-55400Y24200D03*
X-55700Y35200D03*
Y31500D03*
Y27800D03*
X-48300Y27900D03*
Y31600D03*
Y35300D03*
X-52100Y27700D03*
Y35100D03*
X-52300Y24100D03*
Y31400D03*
X-44800Y24200D03*
Y31600D03*
X-55700Y46300D03*
Y42600D03*
Y38900D03*
X-48300Y39000D03*
Y42700D03*
Y46400D03*
X-52100Y42500D03*
X-52300Y38800D03*
Y46200D03*
X-44800Y39000D03*
Y46400D03*
X-55700Y61000D03*
Y57400D03*
Y53700D03*
Y50000D03*
X-48300D03*
Y53700D03*
Y57400D03*
Y61100D03*
X-52100Y49900D03*
Y57300D03*
X-52300Y53600D03*
Y61000D03*
X-44800Y53700D03*
Y61100D03*
X-55700Y72100D03*
Y68400D03*
Y64700D03*
X-48300Y64800D03*
Y68500D03*
Y72200D03*
X-52100Y64700D03*
Y72000D03*
X-52300Y68300D03*
X-44800Y68500D03*
X-55700Y86900D03*
Y83200D03*
Y79500D03*
Y75800D03*
X-48300Y75900D03*
Y79600D03*
Y83300D03*
Y87000D03*
X-52100Y79400D03*
Y86800D03*
X-52300Y75700D03*
Y83100D03*
X-44800Y75900D03*
Y83300D03*
X-55700Y98000D03*
Y94300D03*
Y90600D03*
X-48300D03*
Y94300D03*
Y98000D03*
X-52100Y94200D03*
X-52300Y90500D03*
Y97900D03*
X-44800Y90600D03*
Y98000D03*
X-48300Y101700D03*
Y105400D03*
X-55600Y101500D03*
Y105200D03*
X-52100Y101600D03*
X-44900Y105500D03*
Y112900D03*
X-52300D03*
Y105500D03*
X-44900Y120300D03*
X-52300D03*
X-44900Y127600D03*
X-52300D03*
X-44900Y135100D03*
X-52300D03*
X-56200Y146500D03*
X-50500D03*
X-44900D03*
X-47700Y150700D03*
X-53300D03*
X-52300Y142600D03*
X-44900D03*
X-53300Y156400D03*
X-47700D03*
X-34200Y-148900D03*
X-39800D03*
X-42300Y-139000D03*
X-44000Y-141600D03*
X-41000Y-141300D03*
Y-136800D03*
X-39200Y-139700D03*
X-37600Y-141400D03*
X-37300Y-138400D03*
X-38700Y-136300D03*
X-37949Y-132349D03*
X-31800Y-108600D03*
X-41100Y-110900D03*
X-37400Y-108000D03*
X-39500Y-107400D03*
X-38200Y-105600D03*
X-38900Y-109800D03*
X-41300Y-108700D03*
X-41400Y-113000D03*
X-37949Y-113451D03*
X-34800Y-102600D03*
X-40300Y-99700D03*
X-42500Y-101900D03*
X-38000Y-97300D03*
X-35900Y-96000D03*
X-33600Y-95000D03*
X-41700Y-93600D03*
X-44100Y-95900D03*
X-42300Y-91300D03*
X-36000Y-83000D03*
X-33400Y-82900D03*
X-38700D03*
X-36000Y-85600D03*
X-33400D03*
X-38700D03*
X-36000Y-80300D03*
X-33400D03*
X-38700D03*
X-39700Y-91700D03*
X-33055Y-91290D03*
X-35025D03*
X-34300Y-73100D03*
X-33000Y-74700D03*
X-36700Y-73200D03*
X-42400D03*
X-40100Y-67300D03*
X-31500Y-69000D03*
X-37200D03*
X-42800D03*
X-33300Y-64200D03*
X-33100Y-56500D03*
X-38000Y-59200D03*
X-42300Y-60300D03*
X-34100Y-51600D03*
X-41600Y-50700D03*
X-39500Y-53200D03*
X-35700Y-48500D03*
X-39300Y-46300D03*
X-34600Y-43200D03*
X-32100Y-44600D03*
X-37000D03*
X-39300Y-41500D03*
X-31800Y-41200D03*
X-36600D03*
X-42300Y-44200D03*
X-39400Y-31400D03*
X-31500Y-30500D03*
X-40900Y-39400D03*
X-40700Y-34600D03*
X-36200Y-30600D03*
X-41100Y-29800D03*
X-41300Y-27300D03*
X-40000Y-21600D03*
X-33400Y-19900D03*
X-41100Y-24300D03*
X-37400Y-20100D03*
Y-5300D03*
Y-12700D03*
X-32300Y-900D03*
X-33000Y6500D03*
X-37400Y9400D03*
Y2100D03*
Y16800D03*
Y31600D03*
Y24200D03*
Y46400D03*
Y39000D03*
Y61100D03*
Y53700D03*
Y68500D03*
Y83300D03*
Y75900D03*
Y98000D03*
Y90600D03*
X-37500Y112900D03*
Y105500D03*
Y120300D03*
Y127600D03*
Y135100D03*
X-39300Y146500D03*
X-33600D03*
X-36400Y150700D03*
X-42000D03*
X-37500Y142600D03*
X-42000Y156400D03*
X-36400D03*
X-22000Y-145800D03*
X-22900Y-148900D03*
X-28500D03*
X-19800Y-143300D03*
X-20700Y-134300D03*
Y-138100D03*
X-28300Y-132000D03*
X-28200Y-137600D03*
X-20800Y-129900D03*
X-20700Y-122100D03*
X-20900Y-126100D03*
X-30600Y-130300D03*
X-28600Y-123300D03*
Y-120600D03*
X-30900Y-125600D03*
X-20800Y-118100D03*
X-30500Y-118000D03*
X-20600Y-111000D03*
X-20400Y-108000D03*
X-20700Y-114100D03*
X-28100Y-110200D03*
X-28300Y-107800D03*
Y-113800D03*
X-25800Y-99500D03*
X-29100Y-99700D03*
X-31200Y-102600D03*
X-28100Y-102800D03*
X-23100Y-97400D03*
X-20200Y-95000D03*
X-22300Y-95300D03*
X-20100Y-92900D03*
X-25200Y-96200D03*
X-27300Y-97000D03*
X-24400Y-94100D03*
X-18400Y-90600D03*
X-28400Y-90700D03*
X-20300Y-82300D03*
X-20900Y-86700D03*
X-21100Y-79700D03*
X-29215Y-88600D03*
X-23700Y-76300D03*
X-27700Y-75500D03*
X-20300Y-76900D03*
X-27400Y-78200D03*
X-21600Y-73500D03*
X-25500Y-73200D03*
X-31100D03*
X-26000Y-69100D03*
X-20900Y-67200D03*
X-25200Y-66800D03*
X-19600Y-56400D03*
X-25400Y-60300D03*
X-22700D03*
X-29100Y-60000D03*
X-30000Y-63500D03*
X-29600Y-57600D03*
X-20007Y-53607D03*
X-22800Y-51600D03*
X-28500D03*
X-21000Y-48500D03*
X-28300D03*
X-22500Y-44800D03*
X-28600Y-44600D03*
X-19000Y-44700D03*
X-25300Y-45000D03*
X-23200Y-41500D03*
X-27200D03*
X-22700Y-31100D03*
X-27100Y-30900D03*
X-19800Y-30000D03*
X-20000Y-32800D03*
X-22100Y-34500D03*
X-22200Y-37800D03*
X-26000Y-20000D03*
X-18700Y-20100D03*
X-30000D03*
X-22600D03*
X-25400Y-8000D03*
X-20400Y-8400D03*
X-22600Y-12700D03*
X-30000D03*
Y-5300D03*
X-28300Y12800D03*
X-30000Y16800D03*
X-22600D03*
X-30000Y24200D03*
Y31600D03*
X-22600D03*
Y24200D03*
X-30000Y39000D03*
Y46400D03*
X-22600D03*
Y39000D03*
X-30000Y53700D03*
Y61100D03*
X-22600D03*
Y53700D03*
X-30000Y68500D03*
X-22600D03*
X-30000Y75900D03*
Y83300D03*
X-22600D03*
Y75900D03*
X-30000Y90600D03*
Y98000D03*
X-22600D03*
Y90600D03*
X-22700Y112900D03*
Y105500D03*
X-30100D03*
Y112900D03*
Y120300D03*
X-30700Y136500D03*
X-28000Y146500D03*
X-22400D03*
X-19500Y150700D03*
X-25100D03*
X-30800D03*
X-30100Y142600D03*
X-22700D03*
X-30800Y156400D03*
X-25100D03*
X-19500D03*
X-14700Y-146100D03*
X-18000D03*
X-10500Y-146000D03*
X-8200Y-148900D03*
X-11600D03*
X-17300D03*
X-11200Y-143100D03*
X-14300Y-143200D03*
X-11900Y-134900D03*
X-11700Y-131700D03*
X-15600Y-133600D03*
X-16300Y-136700D03*
X-12000Y-138400D03*
X-8200Y-132000D03*
Y-137600D03*
Y-143200D03*
X-11500Y-127700D03*
X-15700Y-130100D03*
X-17800Y-123600D03*
X-15200Y-121700D03*
X-17600Y-119600D03*
X-12200Y-118600D03*
X-12000Y-122100D03*
X-15800Y-126000D03*
X-8200Y-120700D03*
Y-126300D03*
X-15600Y-117600D03*
X-12000Y-114100D03*
X-17600Y-111500D03*
X-16900Y-109100D03*
X-17300Y-114200D03*
X-14100Y-110700D03*
X-8200Y-109400D03*
Y-115100D03*
X-14700Y-100700D03*
X-16500Y-102700D03*
X-8700Y-95300D03*
X-10900Y-97000D03*
X-8200Y-92500D03*
Y-98200D03*
Y-103800D03*
X-17200Y-88000D03*
X-16200Y-80900D03*
Y-84800D03*
X-7900Y-86000D03*
X-16200Y-76900D03*
X-18300Y-70100D03*
X-16400Y-72500D03*
X-7900Y-71200D03*
Y-78600D03*
X-16300Y-60300D03*
X-16400Y-64400D03*
X-16500Y-56400D03*
X-7900Y-56500D03*
Y-63800D03*
X-16800Y-47300D03*
X-16600Y-50800D03*
X-7900Y-41700D03*
Y-49100D03*
X-14800Y-40900D03*
X-9800Y-30300D03*
X-10100Y-39100D03*
X-11800Y-36000D03*
X-12000Y-32800D03*
X-12900Y-29500D03*
X-7900Y-34300D03*
X-14800Y-38900D03*
X-10000Y-22900D03*
X-12800Y-25800D03*
X-13400Y-22500D03*
X-15300Y-20100D03*
X-7900Y-19500D03*
Y-26900D03*
X-12300Y-5500D03*
X-15300Y-12700D03*
X-7900Y-4800D03*
Y-12200D03*
Y10000D03*
Y2600D03*
X-18000Y14700D03*
X-12400Y11400D03*
X-15200Y16800D03*
X-7900Y17400D03*
X-15200Y24200D03*
Y31600D03*
X-7900Y32100D03*
Y24700D03*
X-15200Y39000D03*
Y46400D03*
X-7900Y46900D03*
Y39500D03*
X-15200Y53700D03*
Y61100D03*
X-7900Y61700D03*
Y54300D03*
X-15200Y68500D03*
X-7900Y69000D03*
X-15200Y75900D03*
Y83300D03*
X-7900Y83800D03*
Y76400D03*
X-15200Y90600D03*
Y98000D03*
X-7900Y98600D03*
Y91200D03*
X-15300Y112900D03*
Y105500D03*
X-7900Y113300D03*
Y106000D03*
Y120700D03*
Y135500D03*
Y128100D03*
X-16700Y146500D03*
X-11100D03*
X-8200Y150700D03*
X-13900D03*
X-15300Y142600D03*
X-8000D03*
X-13900Y156400D03*
X-8200D03*
G54D20*
X-16483Y-139908D03*
Y-105892D03*
G54D11*
X-141800Y-133500D03*
G54D21*
G01X-73299Y-22499D02*
X-83199D01*
X-93300Y-32600D01*
Y-38050D01*
G01X-42300Y-44200D02*
X-44800Y-46700D01*
Y-49300D01*
G54D12*
X-141700Y-118000D03*
Y-108000D03*
X-83300Y-38050D03*
X-73300D03*
X-63300D03*
X-53300D03*
G54D22*
G01X-5760Y-91210D02*
Y145010D01*
Y158759D01*
X-163240D01*
Y145010D01*
Y-91208D01*
X-163243D01*
Y-151452D01*
X-5760D01*
Y-91210D01*
G54D13*
X-141700Y-98000D03*
X-93300Y-38050D03*
G54D23*
G01X-138592Y3266D02*
G03I-8858J0D01*
G01Y129250D02*
G03I-8858J0D01*
G01X-12608Y3266D02*
G03I-8858J0D01*
G01Y129250D02*
G03I-8858J0D01*
G54D14*
X-131800Y-133500D03*
X-121800D03*
X-111800D03*
X-101800D03*
X-91800D03*
X-81800D03*
X-85898Y142702D03*
X-71800Y-133500D03*
G54D15*
X-95898Y132702D03*
Y152702D03*
X-75898Y132702D03*
Y152702D03*
G54D16*
X-32822Y-139908D03*
Y-105892D03*
G54D17*
X-35264Y-35500D03*
G54D18*
Y-25500D03*
G54D19*
X-30853Y-134278D03*
Y-111522D03*
M02*
