G04 ================== begin FILE IDENTIFICATION RECORD ==================*
G04 Layout Name:  ELRS-TX-MODULE-V13-20260610.brd*
G04 Film Name:    L3*
G04 File Format:  Gerber RS274X*
G04 File Origin:  Cadence Allegro 16.6-2015-S108*
G04 Origin Date:  Thu Jun 11 13:53:02 2026*
G04 *
G04 Layer:  VIA CLASS/L3*
G04 Layer:  PIN/L3*
G04 Layer:  ETCH/L3*
G04 Layer:  BOARD GEOMETRY/OUTLINE*
G04 *
G04 Offset:    (0.00 0.00)*
G04 Mirror:    No*
G04 Mode:      Positive*
G04 Rotation:  0*
G04 FullContactRelief:  No*
G04 UndefLineWidth:     6.50*
G04 ================== end FILE IDENTIFICATION RECORD ====================*
%FSLAX25Y25*MOIN*%
%IR0*IPPOS*OFA0.00000B0.00000*MIA0B0*SFA1.00000B1.00000*%
%ADD10C,.014*%
%ADD13C,.063*%
%ADD12C,.065*%
%ADD14C,.093*%
%ADD15C,.0591*%
%ADD11R,.063X.063*%
%ADD17C,.05906*%
%ADD18C,.02559*%
%ADD19O,.06693X.03543*%
%ADD16O,.07874X.03543*%
%ADD20C,.01*%
%ADD21C,.02*%
%ADD22C,.03*%
%ADD23C,.04*%
%ADD24C,.005*%
%ADD25C,.0065*%
%ADD26C,.006*%
%ADD27O,.05002X.239*%
%ADD28C,.07304*%
%ADD33C,.08314*%
%ADD32C,.03562*%
%ADD30C,.0691*%
%ADD29C,.07504*%
%ADD31C,.2012*%
G75*
%LPD*%
G75*
G36*
G01X-162040Y-92408D02*
Y157340D01*
G02X-162036Y157380I201J0D01*
G01X-162029Y157415D01*
X-162014Y157446D01*
G02X-161833Y157559I181J-88D01*
G01X-7181D01*
X-7146Y157556D01*
X-7123Y157552D01*
G02X-6960Y157354I-38J-197D01*
G01Y-150051D01*
G02X-7161Y-150252I-201J0D01*
G01X-161842D01*
G02X-162043Y-150051I0J201D01*
G01Y-92408D01*
X-162040D01*
G37*
%LPC*%
G75*
G36*
G01X-48965Y-121678D02*
X-49121Y-121833D01*
X-49151Y-121910D01*
X-49149Y-121953D01*
G02X-50303Y-120799I-1201J-47D01*
G01X-50260Y-120801D01*
X-50183Y-120771D01*
X-50090Y-120677D01*
X-50064Y-120651D01*
X-49511Y-120098D01*
X-49483Y-120070D01*
X-49467Y-120033D01*
G03X-49452Y-119956I-186J76D01*
G01Y-115525D01*
G03X-49535Y-115362I-201J0D01*
G01X-49837Y-115143D01*
X-49932Y-115128D01*
X-49978Y-115143D01*
G02X-51242Y-113192I-373J1143D01*
G01X-51161Y-113111D01*
G03X-51102Y-112969I-142J142D01*
G01Y-105023D01*
G02X-51094Y-104969I201J-2D01*
G01X-51090Y-104956D01*
X-51071Y-104909D01*
X-51046Y-104884D01*
G02X-51044Y-104882I143J-141D01*
G01X-36758Y-90596D01*
G02X-36756Y-90594I143J-141D01*
G01X-36731Y-90569D01*
X-36684Y-90550D01*
X-36671Y-90546D01*
G02X-36617Y-90538I56J-193D01*
G01X-36065D01*
X-36044Y-90536D01*
X-36034Y-90534D01*
X-35986Y-90525D01*
X-35925Y-90492D01*
X-35902Y-90468D01*
G02X-34234Y-90384I878J-822D01*
G01X-34233Y-90385D01*
G03X-34101Y-90434I132J152D01*
G01X-33940D01*
X-33874Y-90409D01*
X-33845Y-90384D01*
G02X-32191Y-92126I791J-905D01*
G01X-32192Y-92127D01*
G03X-32248Y-92266I145J-139D01*
G01Y-92428D01*
G02Y-92439I-201J-6D01*
G01Y-92511D01*
X-32278Y-92541D01*
X-32304Y-92567D01*
G02X-32306Y-92569I-143J141D01*
G01X-33431Y-93694D01*
G02X-33433Y-93696I-143J141D01*
G01X-33459Y-93722D01*
X-33489Y-93752D01*
X-33561D01*
G02X-33572I-6J201D01*
G01X-36281D01*
G03X-36297Y-93753I5J-201D01*
G01X-36307Y-93754D01*
G03X-36433Y-93812I16J-200D01*
G01X-47889Y-105268D01*
X-47917Y-105296D01*
X-47933Y-105333D01*
G03X-47948Y-105410I186J-76D01*
G01Y-120578D01*
G02Y-120589I-201J-5D01*
G01Y-120661D01*
X-47978Y-120691D01*
X-48004Y-120717D01*
G02X-48006Y-120719I-143J141D01*
G01X-48965Y-121678D01*
G37*
G36*
G01X-36637Y-97998D02*
X-34434D01*
X-34402Y-97996D01*
X-34363Y-97989D01*
G03X-34257Y-97933I-37J198D01*
G01X-21962Y-85638D01*
G02X-21799Y-85496I1065J-1058D01*
G01X-21741Y-85456D01*
X-21715Y-85439D01*
G02X-21669Y-85410I824J-1256D01*
G02X-21103Y-85210I773J-1288D01*
G01X-21100D01*
X-21092Y-85209D01*
G02X-21073Y-85208I88J-1499D01*
G01X-21069D01*
X-21058Y-85207D01*
G02X-20841Y-85200I157J-1493D01*
G01X-20815D01*
X-20782Y-85203D01*
X-20780D01*
G02X-20718Y-85209I-114J-1497D01*
G02X-20712Y-85210I-30J-199D01*
G01X-20707Y-85211D01*
X-20674Y-85215D01*
X-20663Y-85217D01*
X-20656Y-85218D01*
X-20651Y-85219D01*
X-20643Y-85221D01*
X-20632Y-85222D01*
X-20631Y-85223D01*
X-20611Y-85226D01*
G03X-20433Y-85170I36J198D01*
G01X-18811Y-83548D01*
G03X-18767Y-83483I-141J143D01*
G01X-18752Y-83446D01*
Y-74398D01*
X-18760Y-74355D01*
X-18765Y-74326D01*
X-18793Y-74270D01*
X-20148Y-72915D01*
X-21215Y-71847D01*
X-25033Y-68029D01*
X-25109Y-67999D01*
X-25152Y-68001D01*
G02X-23999Y-66848I-48J1201D01*
G01X-24001Y-66891D01*
X-23971Y-66967D01*
X-20790Y-70147D01*
X-17306Y-73631D01*
G02X-17304Y-73633I-141J-143D01*
G01X-17278Y-73659D01*
X-17263Y-73695D01*
G02X-17248Y-73772I-186J-76D01*
G01Y-84028D01*
G02X-17263Y-84105I-201J-1D01*
G01X-17278Y-84141D01*
X-17304Y-84167D01*
G02X-17306Y-84169I-143J141D01*
G01X-19407Y-86270D01*
X-19436Y-86364D01*
X-19426Y-86414D01*
G02X-19423Y-86429I-1471J-302D01*
G01Y-86431D01*
G02X-19419Y-86451I-1470J-304D01*
G01X-19418Y-86457D01*
G02X-19400Y-86759I-1482J-240D01*
G01Y-86770D01*
G02X-19438Y-87044I-1500J68D01*
G02X-19489Y-87214I-1461J346D01*
G02X-19838Y-87762I-1411J513D01*
G01X-33023Y-100947D01*
G02X-33026Y-100950I-144J141D01*
G01X-33048Y-100972D01*
X-33134D01*
X-33163Y-101002D01*
X-35369D01*
G03X-35404Y-101005I0J-201D01*
G01X-35466Y-101016D01*
X-35494Y-101031D01*
X-35521Y-101045D01*
X-42439Y-107963D01*
G03X-42498Y-108105I142J-142D01*
G01Y-124543D01*
G02Y-124546I-201J-1D01*
G01Y-124622D01*
X-42513Y-124637D01*
X-42518Y-124641D01*
X-42537Y-124660D01*
X-42555Y-124679D01*
G02X-42557Y-124681I-143J141D01*
G01X-49938Y-132062D01*
G02X-52062Y-129938I-1062J1062D01*
G01X-52001Y-129877D01*
X-52000D01*
X-51430Y-129307D01*
Y-129306D01*
X-45561Y-123437D01*
G03X-45502Y-123295I-142J142D01*
G01Y-106857D01*
G02Y-106854I201J1D01*
G01Y-106778D01*
X-45487Y-106763D01*
X-45482Y-106759D01*
X-45463Y-106740D01*
X-45445Y-106721D01*
G02X-45443Y-106719I143J-141D01*
G01X-36777Y-98053D01*
G02X-36774Y-98050I144J-141D01*
G01X-36752Y-98028D01*
X-36666D01*
X-36637Y-97998D01*
G37*
G36*
G01X-21267Y-80929D02*
X-26626Y-86289D01*
X-28172Y-87835D01*
X-28191Y-87967D01*
X-28159Y-88026D01*
G02X-29312Y-89798I-1056J-574D01*
G02X-30032Y-87717I96J1198D01*
G01X-30000Y-87688D01*
X-29967Y-87612D01*
Y-87587D01*
G02X-29951Y-87510I201J-2D01*
G01X-29936Y-87473D01*
X-29911Y-87448D01*
G02X-29908Y-87445I144J-141D01*
G01X-28252Y-85789D01*
X-22329Y-79867D01*
X-22299Y-79791D01*
X-22301Y-79748D01*
G02X-21148Y-80901I1201J48D01*
G01X-21191Y-80899D01*
X-21267Y-80929D01*
G37*
G36*
G01X-106275Y-102602D02*
X-115425D01*
G02X-115503Y-102586I1J201D01*
G01X-115538Y-102571D01*
X-115562Y-102547D01*
X-115567Y-102543D01*
X-116143Y-101967D01*
X-116147Y-101962D01*
X-116171Y-101938D01*
X-116186Y-101903D01*
G02X-116202Y-101825I185J79D01*
G01Y-98075D01*
G02X-116186Y-97997I201J-1D01*
G01X-116171Y-97962D01*
X-116147Y-97938D01*
X-116143Y-97933D01*
X-113455Y-95246D01*
X-112661Y-94452D01*
X-112633Y-94424D01*
X-112617Y-94387D01*
G03X-112602Y-94310I-186J76D01*
G01Y-76717D01*
G02Y-76683I1202J17D01*
G01Y-74575D01*
G02X-112586Y-74497I201J-1D01*
G01X-112571Y-74462D01*
X-112547Y-74438D01*
X-112543Y-74433D01*
X-110318Y-72209D01*
X-109661Y-71552D01*
X-109633Y-71524D01*
X-109617Y-71487D01*
G03X-109602Y-71410I-186J76D01*
G01Y-60114D01*
G03X-109604Y-60082I-201J3D01*
G01X-109609Y-60054D01*
G03X-109665Y-59944I-198J-32D01*
G01X-120293Y-49317D01*
X-120297Y-49312D01*
X-120321Y-49288D01*
X-120336Y-49253D01*
G02X-120352Y-49175I185J79D01*
G01Y-34964D01*
G03X-120354Y-34932I-201J3D01*
G01X-120359Y-34904D01*
G03X-120415Y-34794I-198J-32D01*
G01X-133843Y-21367D01*
X-133847Y-21362D01*
X-133871Y-21338D01*
X-133886Y-21303D01*
G02X-133902Y-21225I185J79D01*
G01Y69525D01*
G02X-133886Y69603I201J-1D01*
G01X-133871Y69638D01*
X-133847Y69662D01*
X-133843Y69667D01*
X-130767Y72743D01*
X-130762Y72747D01*
X-130738Y72771D01*
X-130703Y72786D01*
G02X-130625Y72802I79J-185D01*
G01X-114075D01*
G02X-113997Y72786I-1J-201D01*
G01X-113962Y72771D01*
X-113938Y72747D01*
X-113933Y72743D01*
X-113457Y72267D01*
X-113453Y72262D01*
X-113429Y72238D01*
X-113414Y72203D01*
G02X-113398Y72125I-185J-79D01*
G01Y66975D01*
G02X-113414Y66897I-201J1D01*
G01X-113429Y66862D01*
X-113453Y66838D01*
X-113457Y66833D01*
X-114333Y65957D01*
X-114338Y65953D01*
X-114362Y65929D01*
X-114397Y65914D01*
G02X-114475Y65898I-79J185D01*
G01X-121586D01*
G03X-121622Y65895I-1J-201D01*
G01X-121650Y65890D01*
G03X-121757Y65834I35J-198D01*
G01X-123139Y64452D01*
G03X-123183Y64387I141J-143D01*
G01X-123198Y64350D01*
Y-15086D01*
G03X-123196Y-15118I201J-3D01*
G01X-123191Y-15146D01*
G03X-123135Y-15256I198J32D01*
G01X-109807Y-28583D01*
X-109803Y-28588D01*
X-109779Y-28612D01*
X-109764Y-28647D01*
G02X-109748Y-28725I-185J-79D01*
G01Y-44136D01*
G03X-109745Y-44172I201J-1D01*
G01X-109740Y-44200D01*
G03X-109684Y-44307I198J35D01*
G01X-107465Y-46526D01*
X-99957Y-54033D01*
X-99953Y-54038D01*
X-99929Y-54062D01*
X-99914Y-54097D01*
G02X-99898Y-54175I-185J-79D01*
G01Y-96225D01*
G02X-99914Y-96303I-201J1D01*
G01X-99929Y-96338D01*
X-99953Y-96362D01*
X-99957Y-96367D01*
X-106133Y-102543D01*
X-106138Y-102547D01*
X-106162Y-102571D01*
X-106197Y-102586D01*
G02X-106275Y-102602I-79J185D01*
G37*
G36*
G01X-122302Y-73498D02*
X-120195D01*
X-120143Y-73484D01*
X-120119Y-73470D01*
G02Y-75530I619J-1030D01*
G01X-120143Y-75516D01*
X-120195Y-75502D01*
X-123132D01*
G02X-123274Y-75443I0J201D01*
G01X-132143Y-66574D01*
G02X-132202Y-66432I142J142D01*
G01Y-62195D01*
X-132216Y-62143D01*
X-132230Y-62119D01*
G02X-130170I1030J619D01*
G01X-130184Y-62143D01*
X-130198Y-62195D01*
Y-65602D01*
G03X-130140Y-65744I201J-1D01*
G01X-122444Y-73440D01*
G03X-122302Y-73498I141J143D01*
G37*
G36*
G01X-124011Y-66052D02*
X-127233Y-62829D01*
X-127310Y-62799D01*
X-127353Y-62801D01*
G02X-126199Y-61647I-47J1201D01*
G01X-126201Y-61690D01*
X-126171Y-61767D01*
X-123710Y-64227D01*
X-123585Y-64248D01*
X-123526Y-64219D01*
G02X-123883Y-66116I526J-1081D01*
G01X-123912Y-66085D01*
X-123987Y-66052D01*
X-124011D01*
G37*
G36*
G01X-85198Y-41669D02*
X-85237Y-41311D01*
X-85284Y-41235D01*
X-85323Y-41210D01*
G02X-86837Y-36798I2023J3160D01*
G01X-86817Y-36743D01*
X-86843Y-36631D01*
X-103943Y-19531D01*
G02X-104002Y-19389I142J142D01*
G01Y-19262D01*
X-104025Y-19197D01*
X-104047Y-19170D01*
G02X-102500Y-15898I1547J1270D01*
G01X-100600D01*
G02X-99252Y-19380I0J-2002D01*
G01X-99283Y-19408D01*
X-99317Y-19481D01*
X-99324Y-19814D01*
G03X-99266Y-19961I201J-6D01*
G01X-84719Y-34507D01*
X-84607Y-34533D01*
X-84552Y-34513D01*
G02X-81684Y-41436I1252J-3537D01*
G03X-81798Y-41618I87J-181D01*
G01Y-42539D01*
G02X-81857Y-42681I-201J0D01*
G01X-90040Y-50863D01*
G03X-90098Y-51005I143J-141D01*
G01Y-53795D01*
G03X-90040Y-53937I201J-1D01*
G01X-89337Y-54640D01*
G03X-89195Y-54698I141J143D01*
G01X-83305D01*
G03X-83163Y-54640I1J201D01*
G01X-82981Y-54457D01*
G02X-80551Y-54899I1062J-1062D01*
G01X-80527Y-54954D01*
X-80428Y-55018D01*
X-62819D01*
G02Y-58020I0J-1501D01*
G01X-82020D01*
G02X-82162Y-57962I-1J201D01*
G01X-82363Y-57760D01*
G03X-82505Y-57702I-141J-143D01*
G01X-90439D01*
G02X-90581Y-57643I0J201D01*
G01X-93043Y-55181D01*
G02X-93102Y-55039I142J142D01*
G01Y-49761D01*
G02X-93043Y-49619I201J0D01*
G01X-85256Y-41832D01*
G03X-85198Y-41669I-142J142D01*
G37*
G36*
G01X-74619Y44481D02*
X-69557Y39419D01*
G02X-69498Y39277I-142J-142D01*
G01Y24061D01*
G02X-69557Y23919I-201J0D01*
G01X-72034Y21442D01*
G03Y21158I142J-142D01*
G01X-71057Y20181D01*
G02X-73181Y18057I-1062J-1062D01*
G01X-74863Y19740D01*
G03X-75005Y19798I-141J-143D01*
G01X-89995D01*
G03X-90137Y19740I-1J-201D01*
G01X-95190Y14687D01*
G03X-95248Y14545I143J-141D01*
G01Y12650D01*
G02X-96750Y11148I-1502J0D01*
G01X-100795D01*
G03X-100937Y11090I-1J-201D01*
G01X-102040Y9987D01*
G03X-102098Y9845I143J-141D01*
G01Y3805D01*
G03X-102040Y3663I201J-1D01*
G01X-99757Y1381D01*
G02X-99698Y1239I-142J-142D01*
G01Y-8345D01*
G03X-99640Y-8487I201J-1D01*
G01X-96287Y-11840D01*
G03X-96145Y-11898I141J143D01*
G01X-80805D01*
G03X-80663Y-11840I1J201D01*
G01X-79262Y-10438D01*
G02X-77138Y-12562I1062J-1062D01*
G01X-79419Y-14843D01*
G02X-79561Y-14902I-142J142D01*
G01X-97389D01*
G02X-97531Y-14843I0J201D01*
G01X-100363Y-12010D01*
G03X-100505Y-11952I-141J-143D01*
G01X-101674D01*
G02X-101817Y-11893I-1J201D01*
G01X-102643Y-11067D01*
G02X-102702Y-10924I142J142D01*
G01Y-10532D01*
G02Y-10468I1202J32D01*
G01Y-5D01*
G03X-102760Y137I-201J1D01*
G01X-105043Y2419D01*
G02X-105102Y2561I142J142D01*
G01Y11089D01*
G02X-105043Y11231I201J0D01*
G01X-102181Y14093D01*
G02X-102039Y14152I142J-142D01*
G01X-100041D01*
G03X-99899Y14210I1J201D01*
G01X-97927Y16182D01*
X-97921Y16190D01*
G02X-97812Y16312I1173J-938D01*
G01X-91381Y22743D01*
G02X-91239Y22802I142J-142D01*
G01X-75005D01*
G03X-74863Y22860I1J201D01*
G01X-72560Y25163D01*
G03X-72502Y25305I-143J141D01*
G01Y38033D01*
G03X-72560Y38175I-201J1D01*
G01X-76743Y42357D01*
G02X-74619Y44481I1062J1062D01*
G37*
G36*
G01X-62660Y8837D02*
X-65863Y12040D01*
G03X-66005Y12098I-141J-143D01*
G01X-70509D01*
G03X-70651Y12040I-1J-201D01*
G01X-72052Y10638D01*
G02X-73114Y10198I-1062J1062D01*
G01X-76239D01*
G02X-76381Y10257I0J201D01*
G01X-80963Y14840D01*
G03X-81105Y14898I-141J-143D01*
G01X-84594D01*
G03X-84736Y14840I-1J-201D01*
G01X-93119Y6456D01*
G02X-93261Y6398I-141J143D01*
G01X-99200D01*
G02Y9400I0J1501D01*
G01X-94505D01*
G03X-94363Y9459I0J201D01*
G01X-85980Y17843D01*
G02X-85838Y17902I142J-142D01*
G01X-79861D01*
G02X-79719Y17843I0J-201D01*
G01X-75137Y13260D01*
G03X-74995Y13202I141J143D01*
G01X-73819D01*
G03X-73677Y13260I1J201D01*
G01X-71895Y15043D01*
G02X-71753Y15102I142J-142D01*
G01X-64761D01*
G02X-64619Y15043I0J-201D01*
G01X-59657Y10081D01*
G02X-59598Y9939I-142J-142D01*
G01Y-7089D01*
G02X-59657Y-7231I-201J0D01*
G01X-65338Y-12912D01*
G02X-66400Y-13352I-1062J1062D01*
G01X-68200D01*
G02Y-10348I0J1502D01*
G01X-67105D01*
G03X-66963Y-10290I1J201D01*
G01X-62660Y-5987D01*
G03X-62602Y-5845I-143J141D01*
G01Y8695D01*
G03X-62660Y8837I-201J1D01*
G37*
G36*
G01X-82963Y-7090D02*
X-79131Y-3257D01*
G02X-78989Y-3198I142J-142D01*
G01X-76500D01*
G02Y-6202I0J-1502D01*
G01X-77745D01*
G03X-77887Y-6260I-1J-201D01*
G01X-81719Y-10093D01*
G02X-81861Y-10152I-142J142D01*
G01X-95089D01*
G02X-95231Y-10093I0J201D01*
G01X-97443Y-7881D01*
G02X-97502Y-7739I142J142D01*
G01Y3638D01*
G02X-94498I1502J0D01*
G01Y-6495D01*
G03X-94440Y-6637I201J-1D01*
G01X-93987Y-7090D01*
G03X-93845Y-7148I141J143D01*
G01X-83105D01*
G03X-82963Y-7090I1J201D01*
G37*
G36*
G01X-97448Y-47638D02*
Y-47770D01*
X-97432Y-47846D01*
X-97402Y-47900D01*
X-97379Y-47921D01*
G02X-99018Y-47919I-821J-879D01*
G03X-98969Y-47847I-138J146D01*
G01X-98952Y-47806D01*
Y-47212D01*
G03X-98966Y-47137I-201J1D01*
G01X-98969Y-47131D01*
G03X-99013Y-47064I-187J-75D01*
G01X-103493Y-42585D01*
G02X-103552Y-42443I142J142D01*
G01Y-29295D01*
G03X-103566Y-29221I-201J0D01*
G01X-103583Y-29179D01*
X-108593Y-24170D01*
G02X-108652Y-24028I142J142D01*
G01Y-7235D01*
G02Y-7233I201J1D01*
G01Y-7192D01*
X-108685Y-7115D01*
X-108716Y-7086D01*
G02X-108128Y-5024I816J882D01*
G01X-108127D01*
G03X-108009Y-4953I-38J197D01*
G01X-107846Y-4751D01*
G03X-107813Y-4691I-157J126D01*
G01X-107802Y-4658D01*
Y-4619D01*
G02X-107549Y-3862I1202J19D01*
G01X-107502Y-3802D01*
X-107511Y-3651D01*
X-107697Y-3465D01*
G03X-107869Y-3408I-142J-142D01*
G01X-108175Y-3454D01*
G03X-108287Y-3511I31J-199D01*
G01X-108336Y-3560D01*
X-108350Y-3585D01*
G02X-110231Y-2132I-1050J585D01*
G02X-110223Y-2124I146J-138D01*
G03X-110153Y-1992I-130J154D01*
G03X-110152Y-1971I-200J20D01*
G01Y35843D01*
G02X-110093Y35985I201J0D01*
G01X-109012Y37065D01*
G03X-108968Y37132I-143J142D01*
G01X-108952Y37171D01*
Y38890D01*
G02X-108893Y39032I201J0D01*
G01X-108691Y39233D01*
G03X-108632Y39380I-142J142D01*
G01Y39390D01*
G02X-107384Y40632I1201J41D01*
G01X-107341Y40630D01*
X-107263Y40661D01*
X-107132Y40793D01*
G02X-106990Y40852I142J-142D01*
G01X-105312D01*
G03X-105237Y40866I1J201D01*
G01X-105231Y40869D01*
G03X-105164Y40913I-75J187D01*
G01X-102412Y43665D01*
G03X-102368Y43732I-143J142D01*
G01X-102352Y43771D01*
Y47543D01*
G02X-102293Y47685I201J0D01*
G01X-100012Y49965D01*
G03X-99968Y50032I-143J142D01*
G01X-99952Y50071D01*
Y92727D01*
G02X-99893Y92869I201J0D01*
G01X-95269Y97493D01*
G02X-95127Y97552I142J-142D01*
G01X-80172D01*
G02X-80030Y97493I0J-201D01*
G01X-78981Y96443D01*
X-78898Y96360D01*
G03X-78829Y96315I142J142D01*
G01X-78791Y96300D01*
X-78749Y96301D01*
X-78741D01*
G02X-79901Y95141I41J-1201D01*
G01Y95149D01*
X-79900Y95191D01*
X-79915Y95229D01*
G03X-79960Y95298I-187J-73D01*
G01X-80651Y95989D01*
G03X-80715Y96032I-142J-142D01*
G01X-80753Y96048D01*
X-91782D01*
G03X-91871Y96027I0J-201D01*
G01X-91889Y96018D01*
G03X-91964Y95954I89J-180D01*
G01X-92174Y95653D01*
X-92187Y95556D01*
X-92170Y95510D01*
G02X-94184Y94283I-1130J-412D01*
G01X-94185Y94284D01*
G03X-94332Y94348I-147J-137D01*
G01X-94789D01*
G03X-94863Y94334I0J-201D01*
G01X-94905Y94317D01*
X-97388Y91834D01*
G03X-97432Y91767I143J-142D01*
G01X-97448Y91728D01*
Y49072D01*
G02X-97507Y48930I-201J0D01*
G01X-99788Y46650D01*
G03X-99832Y46583I143J-142D01*
G01X-99848Y46544D01*
Y43952D01*
G03X-99648Y43752I201J1D01*
G01X-88097D01*
G03X-88022Y43766I1J201D01*
G01X-88016Y43769D01*
G03X-87949Y43813I-75J187D01*
G01X-83570Y48193D01*
G02X-83428Y48252I142J-142D01*
G01X-76640D01*
X-76618Y48254D01*
X-76590Y48260D01*
X-76555Y48266D01*
X-76499Y48299D01*
X-76478Y48321D01*
X-76471Y48328D01*
X-76469Y48330D01*
G02X-76481Y46682I869J-830D01*
G01X-76496Y46698D01*
X-76532Y46723D01*
X-76558Y46733D01*
G03X-76633Y46748I-76J-186D01*
G01X-82803D01*
G03X-82878Y46734I-1J-201D01*
G01X-82884Y46731D01*
G03X-82951Y46687I75J-187D01*
G01X-87330Y42307D01*
G02X-87472Y42248I-142J142D01*
G01X-100203D01*
G03X-100278Y42234I-1J-201D01*
G01X-100284Y42231D01*
G03X-100351Y42187I75J-187D01*
G01X-107588Y34950D01*
G03X-107632Y34883I143J-142D01*
G01X-107648Y34844D01*
Y169D01*
G03X-107557Y0I201J-1D01*
G01X-107234Y-212D01*
X-107181Y-216D01*
X-107129Y-220D01*
X-107083Y-200D01*
G02X-105399Y-1341I483J-1100D01*
G01Y-1349D01*
X-105400Y-1390D01*
X-105385Y-1428D01*
G03X-105340Y-1497I187J73D01*
G01X-104533Y-2304D01*
X-104357Y-2481D01*
X-104356D01*
X-104307Y-2530D01*
G02X-104304Y-2533I-141J-144D01*
G01X-104303Y-2534D01*
X-104279Y-2558D01*
X-104248Y-2589D01*
Y-5911D01*
X-104279Y-5942D01*
X-104303Y-5966D01*
X-104304Y-5967D01*
G02X-104306Y-5969I-143J141D01*
G01X-104307Y-5970D01*
X-104696Y-6359D01*
X-105000Y-6663D01*
X-106089Y-7752D01*
G03X-106133Y-7818I142J-142D01*
G01X-106148Y-7855D01*
Y-22990D01*
G03X-106135Y-23062I201J-1D01*
G01X-106118Y-23104D01*
X-103058Y-26165D01*
X-102202Y-27020D01*
X-101346Y-27876D01*
X-101107Y-28115D01*
X-101106Y-28116D01*
G02X-101104Y-28118I-141J-143D01*
G01X-101103Y-28119D01*
X-101079Y-28143D01*
X-101048Y-28174D01*
Y-41403D01*
G03X-101035Y-41473I201J1D01*
G01X-101034Y-41478D01*
G03X-100987Y-41550I188J71D01*
G01X-97408Y-45130D01*
X-97407D01*
X-96398Y-46139D01*
X-95107Y-47430D01*
X-95106Y-47431D01*
G02X-95104Y-47433I-141J-143D01*
G01X-95103Y-47434D01*
X-95079Y-47458D01*
X-95048Y-47489D01*
Y-61903D01*
G03X-95035Y-61973I201J1D01*
G01X-95034Y-61978D01*
G03X-94987Y-62050I188J71D01*
G01X-89258Y-67779D01*
X-87648Y-69389D01*
G03X-87506Y-69448I142J142D01*
G01X-69040D01*
X-69018Y-69446D01*
X-68990Y-69440D01*
X-68955Y-69434D01*
X-68899Y-69401D01*
X-68878Y-69379D01*
X-68877Y-69378D01*
X-68875Y-69376D01*
G02X-67069Y-69440I875J-824D01*
G02X-68881Y-71018I-932J-760D01*
G01X-68896Y-71002D01*
X-68932Y-70977D01*
X-68958Y-70967D01*
G03X-69033Y-70952I-76J-186D01*
G01X-88211D01*
X-88242Y-70921D01*
X-88266Y-70897D01*
X-88267Y-70896D01*
G02X-88269Y-70894I141J143D01*
G01X-88270Y-70893D01*
X-96493Y-62670D01*
X-96494Y-62669D01*
G02X-96496Y-62667I141J143D01*
G01X-96497Y-62666D01*
X-96521Y-62642D01*
X-96552Y-62611D01*
Y-48195D01*
G03X-96565Y-48123I-201J1D01*
G01X-96582Y-48081D01*
X-96902Y-47761D01*
X-96991Y-47672D01*
X-97106Y-47557D01*
G03X-97325Y-47514I-142J-143D01*
G01X-97381Y-47537D01*
X-97448Y-47638D01*
G37*
G36*
G01X-80070Y-67671D02*
X-80087Y-67688D01*
X-80088Y-67689D01*
G02X-80094Y-66007I-862J838D01*
G01X-80050Y-66051D01*
X-80014Y-66074D01*
X-79994Y-66082D01*
X-79952Y-66098D01*
X-64882D01*
X-64809Y-66128D01*
X-64783Y-66154D01*
G02X-64781Y-66156I-141J-143D01*
G01X-62406Y-68531D01*
G02X-62404Y-68533I-141J-143D01*
G01X-62378Y-68559D01*
X-62348Y-68632D01*
Y-68665D01*
G02Y-68668I-201J-1D01*
G01Y-94732D01*
G02Y-94735I-201J-1D01*
G01Y-94768D01*
X-62378Y-94841D01*
X-62404Y-94867D01*
G02X-62406Y-94869I-143J141D01*
G01X-86131Y-118594D01*
G02X-86133Y-118596I-143J141D01*
G01X-86159Y-118622D01*
X-86232Y-118652D01*
X-137909D01*
X-138019Y-118741D01*
X-138034Y-118810D01*
G02X-140889Y-121666I-3666J810D01*
G01X-140892D01*
G03X-141048Y-121862I45J-196D01*
G01Y-129648D01*
G03X-140848Y-129848I201J1D01*
G01X-138349D01*
G02X-138148Y-130049I0J-201D01*
G01Y-136951D01*
G02X-138349Y-137152I-201J0D01*
G01X-145251D01*
G02X-145452Y-136951I0J201D01*
G01Y-130049D01*
G02X-145251Y-129848I201J0D01*
G01X-142752D01*
G03X-142552Y-129648I-1J201D01*
G01Y-121743D01*
X-142634Y-121636D01*
X-142700Y-121618D01*
G02X-138082Y-117000I1000J3618D01*
G01X-138064Y-117066D01*
X-137957Y-117148D01*
X-86875D01*
X-86831Y-117138D01*
X-86776Y-117113D01*
X-86750Y-117087D01*
X-63880Y-94217D01*
X-63865Y-94175D01*
X-63852Y-94139D01*
Y-69275D01*
X-63862Y-69231D01*
X-63887Y-69176D01*
X-63913Y-69150D01*
X-65402Y-67661D01*
X-65430Y-67633D01*
X-65467Y-67617D01*
G03X-65544Y-67602I-76J-186D01*
G01X-79910D01*
X-79932Y-67604D01*
X-79960Y-67610D01*
X-79988Y-67615D01*
X-80046Y-67646D01*
X-80070Y-67671D01*
G37*
G36*
G01X-74050Y-25729D02*
Y-25505D01*
G02Y-25497I751J4D01*
G01Y-23544D01*
X-74052Y-23523D01*
X-74060Y-23483D01*
G03X-74115Y-23382I-197J-42D01*
G01X-74143Y-23354D01*
G02X-74189Y-21690I844J856D01*
G01X-74109Y-21610D01*
G03X-74066Y-21546I-142J142D01*
G01X-74050Y-21508D01*
Y-4653D01*
G03X-74054Y-4612I-201J1D01*
G01X-74066Y-4555D01*
X-74082Y-4527D01*
X-74097Y-4500D01*
X-74120Y-4478D01*
X-74121Y-4477D01*
G02X-72408Y-4407I822J878D01*
G01X-72489Y-4488D01*
G03X-72532Y-4552I142J-142D01*
G01X-72548Y-4590D01*
Y-21454D01*
X-72546Y-21475D01*
X-72538Y-21515D01*
G03X-72483Y-21616I197J42D01*
G01X-72455Y-21644D01*
G02X-72409Y-23308I-844J-856D01*
G01X-72489Y-23388D01*
G03X-72532Y-23452I142J-142D01*
G01X-72548Y-23490D01*
Y-25085D01*
G03X-72544Y-25127I201J-2D01*
G01X-72537Y-25155D01*
G03X-72483Y-25255I197J42D01*
G01X-70849Y-26889D01*
G03X-70785Y-26932I142J142D01*
G01X-70747Y-26948D01*
X-46457D01*
G02X-46315Y-27007I0J-201D01*
G01X-42207Y-31115D01*
G02X-42148Y-31257I-142J-142D01*
G01Y-42912D01*
X-42065Y-43020D01*
X-41998Y-43037D01*
G02X-41752Y-45269I-303J-1163D01*
G01X-41754Y-45270D01*
X-41782Y-45285D01*
X-41786Y-45287D01*
X-41832Y-45308D01*
X-41892Y-45386D01*
X-41956Y-45762D01*
G03X-41900Y-45937I198J-33D01*
G01X-40146Y-47691D01*
X-39031Y-48807D01*
X-35041Y-52797D01*
G03X-34898Y-52856I142J142D01*
G01X-21051D01*
X-21001Y-52848D01*
X-20981Y-52843D01*
G03X-20882Y-52785I-48J195D01*
G01X-20830Y-52730D01*
G02X-20815Y-54498I823J-877D01*
G01X-20894Y-54418D01*
G03X-21037Y-54358I-143J-141D01*
G01X-35604D01*
X-35634Y-54329D01*
X-35660Y-54303D01*
G02X-35663Y-54300I141J144D01*
G01X-44594Y-45369D01*
G02X-44596Y-45367I141J143D01*
G01X-44622Y-45341D01*
X-44652Y-45268D01*
Y-45235D01*
G02Y-45232I201J2D01*
G01Y-32276D01*
X-44662Y-32232D01*
X-44671Y-32212D01*
X-44688Y-32175D01*
X-47352Y-29511D01*
G03X-47416Y-29468I-142J-142D01*
G01X-47454Y-29452D01*
X-64100D01*
G03X-64286Y-29575I-1J-201D01*
G01Y-29576D01*
G03X-64243Y-29795I186J-77D01*
G01X-62607Y-31430D01*
G02X-62548Y-31572I-142J-142D01*
G01Y-34194D01*
X-62549Y-34221D01*
X-62538Y-34263D01*
G03X-62391Y-34410I195J48D01*
G02X-62395Y-41691I-909J-3640D01*
G01X-62396D01*
G03X-62504Y-41762I51J-194D01*
G01X-62505D01*
G03X-62548Y-41887I158J-124D01*
G01Y-42881D01*
X-62545Y-42916D01*
X-62536Y-42967D01*
X-62524Y-42992D01*
X-62506Y-43031D01*
X-54892Y-50646D01*
X-52766Y-52771D01*
G02X-52764Y-52773I-141J-143D01*
G01X-52739Y-52798D01*
X-52720Y-52845D01*
X-52716Y-52858D01*
G02X-52708Y-52912I-193J-56D01*
G01Y-55420D01*
X-52706Y-55442D01*
X-52700Y-55470D01*
X-52694Y-55505D01*
X-52661Y-55561D01*
X-52639Y-55582D01*
X-52638Y-55583D01*
G02X-52641Y-57342I-822J-878D01*
G01X-52663Y-57363D01*
X-52681Y-57394D01*
G03X-52708Y-57495I174J-101D01*
G01Y-58149D01*
X-52698Y-58193D01*
X-52689Y-58213D01*
X-52672Y-58250D01*
X-48807Y-62114D01*
G02X-48748Y-62256I-142J-142D01*
G01Y-79295D01*
G03X-48739Y-79354I201J0D01*
G01X-48735Y-79369D01*
G03X-48684Y-79453I192J59D01*
G01X-47307Y-80830D01*
G02X-47248Y-80972I-142J-142D01*
G01Y-83228D01*
G02X-47307Y-83370I-201J0D01*
G01X-48695Y-84757D01*
X-48706Y-84773D01*
G02X-50578Y-83279I-997J671D01*
G01X-50549Y-83248D01*
X-50532Y-83201D01*
G03X-50520Y-83133I-189J68D01*
G01Y-82889D01*
G03X-50522Y-82857I-201J3D01*
G01X-50527Y-82827D01*
G03X-50579Y-82721I-199J-32D01*
G02X-50901Y-81853I879J820D01*
G01X-50899Y-81810D01*
X-50930Y-81732D01*
X-51055Y-81608D01*
X-51194Y-81469D01*
G02X-51196Y-81467I141J143D01*
G01X-51222Y-81441D01*
X-51237Y-81405D01*
G02X-51252Y-81328I186J76D01*
G01Y-63318D01*
X-51255Y-63283D01*
X-51264Y-63232D01*
X-51276Y-63207D01*
X-51294Y-63168D01*
X-63151Y-51311D01*
G03X-63215Y-51268I-142J-142D01*
G01X-63253Y-51252D01*
X-71030D01*
G02X-71105Y-51237I1J201D01*
G01X-71141Y-51222D01*
X-71167Y-51196D01*
G02X-71169Y-51194I141J143D01*
G01X-73158Y-49205D01*
G03X-73300Y-49146I-142J-142D01*
G01X-73340D01*
X-73413Y-49176D01*
X-75430Y-51193D01*
G02X-75572Y-51252I-142J142D01*
G01X-85027D01*
X-85071Y-51262D01*
X-85091Y-51271D01*
X-85128Y-51288D01*
X-86241Y-52401D01*
G03X-86284Y-52465I142J-142D01*
G01X-86300Y-52503D01*
Y-52590D01*
G03Y-52592I201J-1D01*
G02X-87466Y-51398I-1201J-7D01*
G01X-87445D01*
X-87402Y-51390D01*
G03X-87298Y-51334I-39J197D01*
G01X-85772Y-49807D01*
G02X-85630Y-49748I142J-142D01*
G01X-76175D01*
X-76131Y-49738D01*
X-76111Y-49729D01*
X-76074Y-49712D01*
X-74099Y-47737D01*
X-74076Y-47704D01*
X-74067Y-47682D01*
G03X-74052Y-47605I-186J76D01*
G01Y-41905D01*
G03X-74058Y-41852I-201J4D01*
G01X-74075Y-41782D01*
X-74153Y-41703D01*
X-74208Y-41690D01*
G02X-74205Y-34409I908J3640D01*
G01X-74204D01*
G03X-74096Y-34338I-51J194D01*
G01X-74095D01*
G03X-74052Y-34213I-158J124D01*
G01Y-32675D01*
X-74062Y-32631D01*
X-74071Y-32611D01*
X-74088Y-32574D01*
X-75151Y-31511D01*
G03X-75215Y-31468I-142J-142D01*
G01X-75253Y-31452D01*
X-85127D01*
G02X-85269Y-31393I0J201D01*
G01X-95950Y-20712D01*
G02X-96008Y-20570I143J141D01*
G01Y-19102D01*
X-96010Y-19081D01*
X-96018Y-19041D01*
G03X-96073Y-18940I-197J-42D01*
G01X-96083Y-18930D01*
G02X-94056Y-18097I826J873D01*
G03X-93995Y-18249I201J-7D01*
G01X-93942Y-18304D01*
X-93940Y-18306D01*
G02X-93937Y-18309I-141J-144D01*
G01X-93849Y-18397D01*
G02X-93821Y-18396I57J-1203D01*
G01X-93722Y-18371D01*
G03X-93679Y-18354I-52J194D01*
G01X-93654Y-18341D01*
X-93566Y-18253D01*
G03X-93510Y-18149I-141J143D01*
G01X-93502Y-18107D01*
Y-18088D01*
G02X-91313Y-18786I1202J-12D01*
G01X-91347Y-18831D01*
G03X-91378Y-19008I162J-120D01*
G01X-91371Y-19030D01*
X-91348Y-19075D01*
G03X-91310Y-19127I179J91D01*
G01X-82548Y-27889D01*
G03X-82484Y-27932I142J142D01*
G01X-82446Y-27948D01*
X-72398D01*
G03X-72212Y-27824I0J201D01*
G01X-72189Y-27768D01*
X-72213Y-27649D01*
X-72384Y-27478D01*
X-73992Y-25871D01*
G02X-74050Y-25729I143J141D01*
G37*
G36*
G01X-46682Y-87491D02*
X-46680Y-87533D01*
G02X-47851Y-86380I-1201J-48D01*
G01X-47825D01*
X-47748Y-86365D01*
X-47711Y-86349D01*
X-47683Y-86321D01*
X-46313Y-84951D01*
X-46297Y-84935D01*
X-46274Y-84899D01*
X-46264Y-84872D01*
G03X-46252Y-84803I-189J68D01*
G01Y-78514D01*
G03X-46254Y-78484I-201J2D01*
G01X-46258Y-78460D01*
G03X-46278Y-78398I-199J-30D01*
G01X-46292Y-78370D01*
X-46315Y-78347D01*
X-46502Y-78160D01*
G03X-46567Y-78116I-143J-141D01*
G01X-46604Y-78101D01*
X-46671D01*
G02X-46672Y-75699I-36J1201D01*
G01X-46645D01*
G03X-46503Y-75640I0J201D01*
G01X-45611Y-74748D01*
G03X-45568Y-74684I-142J142D01*
G01X-45552Y-74646D01*
Y-50348D01*
G03X-45557Y-50306I-201J-3D01*
G01X-45568Y-50254D01*
X-45598Y-50200D01*
X-45621Y-50179D01*
G02X-43983Y-50182I821J879D01*
G01X-44014Y-50211D01*
X-44031Y-50250D01*
G03X-44048Y-50331I184J-81D01*
G01Y-75230D01*
G02Y-75237I-201J-4D01*
G01Y-75268D01*
X-44078Y-75341D01*
X-44104Y-75367D01*
G02X-44106Y-75369I-143J141D01*
G01X-44233Y-75496D01*
X-44237Y-75499D01*
X-44241Y-75504D01*
G02X-44289Y-75552I-555J507D01*
G03X-44296Y-75559I139J-146D01*
G01X-45470Y-76733D01*
X-45500Y-76808D01*
X-45499Y-76850D01*
Y-76870D01*
G02Y-76930I-1201J-30D01*
G01Y-76949D01*
X-45500Y-76991D01*
X-45470Y-77068D01*
X-45440Y-77098D01*
X-44807Y-77730D01*
G02X-44748Y-77872I-142J-142D01*
G01Y-85428D01*
G02X-44807Y-85570I-201J0D01*
G01X-46651Y-87412D01*
X-46682Y-87491D01*
G37*
G36*
G01X-138288Y-71025D02*
X-136614Y-69352D01*
G03X-136571Y-69289I-142J143D01*
G01X-136562Y-69268D01*
X-136552Y-69228D01*
Y-59372D01*
G02X-136493Y-59230I201J0D01*
G01X-133964Y-56701D01*
X-133961Y-56697D01*
G02X-133915Y-56651I555J-509D01*
G01X-133911Y-56648D01*
X-133770Y-56507D01*
G02X-133628Y-56448I142J-142D01*
G01X-118128D01*
X-118104Y-56442D01*
X-118055Y-56432D01*
X-117995Y-56396D01*
X-117976Y-56375D01*
G02X-117956Y-58043I876J-824D01*
G01X-118009Y-57990D01*
X-118043Y-57975D01*
X-118054Y-57970D01*
G03X-118137Y-57952I-83J-183D01*
G01X-133025D01*
X-133069Y-57962D01*
X-133089Y-57971D01*
X-133126Y-57988D01*
X-134986Y-59848D01*
G03X-135029Y-59911I142J-143D01*
G01X-135038Y-59932D01*
X-135048Y-59972D01*
Y-69828D01*
G02X-135107Y-69970I-201J0D01*
G01X-137162Y-72025D01*
G03X-137221Y-72167I142J-142D01*
G01Y-72258D01*
X-137204Y-72297D01*
G02X-138479Y-75584I-2294J-1001D01*
G01X-138506Y-75596D01*
X-138549Y-75633D01*
X-138566Y-75658D01*
G03X-138598Y-75768I169J-109D01*
G01Y-83657D01*
G02Y-83660I-201J-1D01*
G01Y-83693D01*
X-138613Y-83729D01*
G02X-138656Y-83794I-186J76D01*
G01X-148839Y-93977D01*
G03X-148898Y-94119I142J-142D01*
G01Y-137881D01*
G03X-148839Y-138023I201J0D01*
G01X-144323Y-142539D01*
G03X-144181Y-142598I142J142D01*
G01X-59568D01*
G03X-59546Y-142597I2J201D01*
G01X-59526Y-142595D01*
G03X-59406Y-142537I-23J200D01*
G01X-59376Y-142507D01*
X-59354Y-142475D01*
G02X-55208Y-142490I2068J-1414D01*
G01X-55197Y-142506D01*
X-55164Y-142539D01*
G03X-55022Y-142598I142J142D01*
G01X-28519D01*
G03X-28377Y-142539I0J201D01*
G01X-26961Y-141123D01*
G03X-26902Y-140981I-142J142D01*
G01Y-103443D01*
G02Y-103440I201J2D01*
G01Y-103364D01*
X-26872Y-103335D01*
Y-103334D01*
X-15131Y-91594D01*
G03X-15072Y-91452I-142J142D01*
G01Y-44234D01*
X-15080Y-44211D01*
G03X-15137Y-44101I-198J-33D01*
G01X-16569Y-42669D01*
G02X-17186Y-41657I1767J1771D01*
G01X-17193Y-41634D01*
X-17219Y-41591D01*
X-17243Y-41567D01*
G02X-17302Y-41424I142J142D01*
G01Y-38176D01*
G02X-17243Y-38033I201J1D01*
G01X-16467Y-37257D01*
G02X-16325Y-37198I142J-142D01*
G01X-13375D01*
G02X-13233Y-37257I0J-201D01*
G01X-12357Y-38133D01*
G02X-12299Y-38275I-143J-141D01*
G01Y-39770D01*
X-12297Y-39791D01*
X-12290Y-39826D01*
G03X-12235Y-39927I197J42D01*
G01X-10125Y-42037D01*
G02X-10123Y-42039I-141J-143D01*
G01X-10100Y-42062D01*
X-10070Y-42136D01*
Y-93607D01*
X-10100Y-93637D01*
Y-93638D01*
X-21839Y-105377D01*
G03X-21883Y-105442I141J-143D01*
G01X-21898Y-105479D01*
Y-143057D01*
G02Y-143060I-201J-2D01*
G01Y-143136D01*
X-21928Y-143165D01*
Y-143166D01*
X-26309Y-147547D01*
G02X-26311Y-147549I-143J141D01*
G01X-26334Y-147572D01*
X-26364Y-147602D01*
X-26449D01*
X-146336D01*
X-146339Y-147598D01*
X-146360Y-147578D01*
X-153847Y-140091D01*
G02X-153849Y-140089I141J143D01*
G01X-153872Y-140066D01*
X-153902Y-139993D01*
Y-139960D01*
G02Y-139957I201J1D01*
G01Y-92043D01*
G02Y-92040I201J1D01*
G01Y-92007D01*
X-153887Y-91971D01*
G02X-153844Y-91906I186J-76D01*
G01X-143661Y-81723D01*
G03X-143602Y-81581I-142J142D01*
G01Y-74000D01*
G02X-142869Y-72231I2501J0D01*
G01X-141495Y-70857D01*
G02X-141353Y-70798I142J-142D01*
G01X-139500D01*
G02X-138468Y-71021I-1J-2502D01*
G01X-138411Y-71047D01*
X-138288Y-71025D01*
G37*
G54D27*
X-37949Y-122900D03*
G54D28*
X-91800Y-133500D03*
X-111800D03*
X-121800D03*
X-101800D03*
X-81800D03*
X-71800D03*
G54D33*
X-85898Y142702D03*
G54D32*
X-30853Y-111522D03*
Y-134278D03*
G54D30*
X-35264Y-25500D03*
G54D29*
X-141700Y-98000D03*
X-93300Y-38050D03*
G54D31*
X-21466Y129250D03*
Y3266D03*
X-147450Y129250D03*
Y3266D03*
%LPD*%
G75*
G36*
G01X-100400Y-76700D02*
Y-78000D01*
Y-96100D01*
X-106400Y-102100D01*
X-115300D01*
X-115700Y-101700D01*
Y-98200D01*
X-112100Y-94600D01*
Y-77900D01*
Y-74700D01*
X-109100Y-71700D01*
Y-59800D01*
X-119850Y-49050D01*
Y-34650D01*
X-133400Y-21100D01*
Y69400D01*
X-130500Y72300D01*
X-114200D01*
X-113900Y72000D01*
Y67100D01*
X-114600Y66400D01*
X-121900D01*
X-123700Y64600D01*
Y-15400D01*
X-110250Y-28850D01*
Y-44450D01*
X-100400Y-54300D01*
Y-67300D01*
Y-76700D01*
G37*
G36*
G01X-102200Y-8850D02*
Y-10800D01*
X-101550Y-11450D01*
X-99650D01*
X-98900Y-10700D01*
Y-10050D01*
X-100150Y-8800D01*
X-102150D01*
X-102200Y-8850D01*
G37*
G36*
G01X-96800Y16250D02*
X-97150D01*
X-100200Y13200D01*
Y12700D01*
X-99950Y12450D01*
X-97300D01*
X-96400Y13350D01*
Y15850D01*
X-96800Y16250D01*
G37*
G36*
G01X-63993Y-43670D02*
X-61868Y-45794D01*
X-54271Y-53392D01*
G02X-54212Y-53534I-142J-142D01*
G01Y-55387D01*
G02X-54228Y-55466I-201J0D01*
G01X-54275Y-55575D01*
X-54303Y-55603D01*
G03X-54276Y-57343I843J-857D01*
G01X-54245Y-57372D01*
X-54212Y-57447D01*
Y-57640D01*
G02X-54336Y-57825I-201J1D01*
G01X-54392Y-57849D01*
X-54511Y-57825D01*
X-62529Y-49807D01*
X-62530Y-49806D01*
G03X-62532Y-49804I-143J-141D01*
G01X-62533Y-49803D01*
X-62557Y-49779D01*
X-62588Y-49748D01*
X-70404D01*
X-70446D01*
X-70519Y-49718D01*
X-72489Y-47748D01*
G02X-72548Y-47606I142J142D01*
G01Y-41886D01*
G02X-72395Y-41691I201J0D01*
G03Y-34409I-905J3641D01*
G02X-72548Y-34214I48J195D01*
G01Y-32072D01*
G03X-72607Y-31930I-201J0D01*
G01X-73743Y-30794D01*
G02X-73786Y-30575I143J142D01*
G01X-73763Y-30519D01*
X-73662Y-30452D01*
X-65794D01*
G02X-65719Y-30467I-1J-201D01*
G01X-65679Y-30483D01*
X-64112Y-32050D01*
G02X-64067Y-32117I-141J-143D01*
G01X-64052Y-32155D01*
Y-34214D01*
G02X-64205Y-34409I-201J0D01*
G03Y-41691I905J-3641D01*
G02X-64052Y-41886I-48J-195D01*
G01Y-43528D01*
G03X-64036Y-43605I201J2D01*
G01X-64021Y-43642D01*
X-63997Y-43666D01*
X-63996Y-43667D01*
G03X-63994Y-43669I143J141D01*
G01X-63993Y-43670D01*
G37*
G36*
G01X-16800Y-41300D02*
Y-38300D01*
X-16200Y-37700D01*
X-13500D01*
X-12800Y-38400D01*
Y-42000D01*
X-16100D01*
X-16800Y-41300D01*
G37*
G54D10*
X-160700Y-144800D03*
Y-133500D03*
Y-139100D03*
Y-122200D03*
Y-127900D03*
Y-105300D03*
Y-111000D03*
Y-116600D03*
Y-94100D03*
Y-99700D03*
X-160600Y-86400D03*
Y-79100D03*
Y-71700D03*
Y-64300D03*
Y-56900D03*
Y-49500D03*
Y-42200D03*
Y-34800D03*
Y-27400D03*
Y-20000D03*
Y-12600D03*
Y-5200D03*
Y2100D03*
Y9500D03*
Y16900D03*
Y24300D03*
Y31700D03*
Y39100D03*
Y46400D03*
Y53800D03*
Y61200D03*
Y68600D03*
Y76000D03*
Y83300D03*
Y90700D03*
Y98100D03*
Y105500D03*
Y112900D03*
Y120300D03*
Y127600D03*
Y135000D03*
X-161000Y150800D03*
X-160600Y142400D03*
X-161000Y156400D03*
X-155900Y-146100D03*
X-159400Y-148800D03*
X-152500Y-148900D03*
X-151000Y-145200D03*
X-147500Y-134400D03*
X-155100Y-142100D03*
Y-136400D03*
X-147500Y-128800D03*
Y-123200D03*
X-155100Y-130800D03*
Y-125200D03*
Y-119500D03*
X-147500Y-117500D03*
Y-111900D03*
Y-106300D03*
X-155100Y-113900D03*
Y-108300D03*
X-147500Y-100600D03*
Y-95000D03*
X-155100Y-102600D03*
Y-97000D03*
Y-91400D03*
X-152500Y-87800D03*
X-149400Y-84800D03*
X-153600Y-82100D03*
X-157800Y-88200D03*
X-150100Y-67300D03*
Y-72900D03*
Y-78600D03*
X-153600Y-74800D03*
Y-67400D03*
X-150100Y-56000D03*
Y-61700D03*
X-153600Y-60000D03*
X-150100Y-44800D03*
Y-50400D03*
X-153600Y-52600D03*
Y-45200D03*
X-150100Y-39100D03*
X-153600Y-37800D03*
Y-30500D03*
Y-23100D03*
Y-15700D03*
Y-8300D03*
X-150500Y14900D03*
X-153600Y17700D03*
X-150100Y21400D03*
Y17700D03*
X-153600Y13800D03*
Y21200D03*
Y25100D03*
Y32400D03*
X-150100Y36200D03*
Y28800D03*
Y25100D03*
Y32500D03*
X-153600Y28600D03*
Y36000D03*
Y39800D03*
Y47200D03*
X-150100Y43600D03*
Y39900D03*
Y47300D03*
X-153600Y43400D03*
Y54600D03*
Y62000D03*
X-150100Y58400D03*
Y51000D03*
Y54700D03*
Y62000D03*
X-153600Y50700D03*
Y58100D03*
Y69300D03*
X-150100Y73100D03*
Y65700D03*
Y69400D03*
X-153600Y65500D03*
Y72900D03*
Y76700D03*
Y84100D03*
X-150100Y87900D03*
Y80500D03*
Y76800D03*
Y84200D03*
X-153600Y80300D03*
Y87600D03*
Y91500D03*
Y98900D03*
X-150100Y95300D03*
Y91600D03*
Y99000D03*
X-153600Y95000D03*
Y106300D03*
X-150100Y110000D03*
Y102600D03*
Y106300D03*
X-153600Y102400D03*
Y109800D03*
Y117200D03*
X-155500Y138200D03*
X-152800Y147000D03*
X-158500D03*
X-155400Y150800D03*
X-149800D03*
X-156100Y142600D03*
X-148800D03*
X-149800Y156400D03*
X-155400D03*
X-135600Y-148900D03*
X-141200D03*
X-146800D03*
X-141000Y-139100D03*
X-136300Y-133600D03*
X-135600Y-138200D03*
X-138100Y-141200D03*
X-143700D03*
X-147300Y-137800D03*
X-144300Y-125600D03*
X-136300Y-125000D03*
X-135600Y-120200D03*
X-138700Y-127700D03*
X-138600Y-122800D03*
X-136500Y-130000D03*
X-135500Y-113200D03*
X-136900Y-110400D03*
X-136400Y-107400D03*
X-138700Y-112900D03*
X-144800Y-113000D03*
X-146800Y-114800D03*
Y-109000D03*
X-136900Y-115800D03*
X-145800Y-103900D03*
X-137300Y-104000D03*
X-138500Y-91600D03*
X-140600Y-88300D03*
X-144200Y-91600D03*
X-146700Y-82700D03*
X-134800Y-82500D03*
X-137600Y-84800D03*
X-137300Y-80100D03*
X-144900Y-80000D03*
X-135600Y-88200D03*
X-137900Y-68400D03*
X-139600Y-69200D03*
X-144900Y-77200D03*
X-145800Y-70600D03*
X-146200Y-67400D03*
Y-74800D03*
X-141100Y-74000D03*
X-139500Y-73300D03*
X-139400Y-66200D03*
X-139200Y-61500D03*
X-137600Y-64100D03*
X-137400Y-58500D03*
X-145600Y-63800D03*
X-136100Y-55000D03*
X-143300Y-55900D03*
X-145000Y-57600D03*
X-141500Y-54200D03*
X-146200Y-60000D03*
X-142100Y-51800D03*
X-141300Y-48100D03*
X-140800Y-46100D03*
Y-44200D03*
X-138700Y-45000D03*
X-142500Y-49500D03*
X-141700Y-42100D03*
X-146200Y-45200D03*
Y-52600D03*
X-139600Y-29900D03*
X-141500Y-39300D03*
X-140000Y-36800D03*
Y-34200D03*
X-146200Y-30500D03*
Y-37800D03*
X-139700Y-23300D03*
X-139300Y-16600D03*
X-140000Y-26900D03*
Y-19500D03*
X-146200Y-15700D03*
Y-23100D03*
X-135600Y-9900D03*
X-135500Y-3600D03*
X-137200Y-14500D03*
X-135500Y-12600D03*
X-135700Y-7700D03*
X-138500Y-11500D03*
Y-4200D03*
X-146200Y-8300D03*
X-135600Y3300D03*
X-135700Y10900D03*
Y7100D03*
Y-300D03*
X-138500Y10600D03*
X-142500Y14300D03*
X-146300Y18000D03*
X-142400Y21400D03*
X-142500Y18100D03*
X-135700Y18300D03*
X-138500Y14100D03*
Y21400D03*
X-135700Y21800D03*
Y14400D03*
X-138500Y18000D03*
X-146400Y21500D03*
Y14100D03*
X-146300Y25400D03*
Y32700D03*
X-142400Y36200D03*
Y28800D03*
X-142500Y25400D03*
Y32800D03*
X-135700Y33100D03*
Y25700D03*
X-138500Y28800D03*
Y36200D03*
X-135700Y36600D03*
Y29200D03*
X-138500Y25400D03*
Y32700D03*
X-146400Y36300D03*
Y28900D03*
X-146300Y40100D03*
Y47500D03*
X-142400Y43600D03*
X-142500Y40200D03*
Y47600D03*
X-135700Y47800D03*
Y40400D03*
X-138500Y43600D03*
X-135700Y44000D03*
X-138500Y40100D03*
Y47500D03*
X-146400Y43700D03*
X-146300Y54900D03*
Y62300D03*
X-142400Y58400D03*
Y51000D03*
X-142500Y55000D03*
Y62300D03*
X-135700Y55200D03*
X-138500Y51000D03*
Y58400D03*
X-135800Y62500D03*
X-135700Y58700D03*
Y51400D03*
X-138500Y54900D03*
Y62300D03*
X-146400Y58400D03*
Y51000D03*
X-146300Y69700D03*
X-142400Y73100D03*
Y65700D03*
X-142500Y69700D03*
X-138500Y65700D03*
Y73100D03*
X-135600Y69000D03*
X-134900Y71300D03*
X-135700Y73500D03*
Y66100D03*
X-138500Y69700D03*
X-146400Y73200D03*
Y65800D03*
X-146300Y77000D03*
Y84400D03*
X-142400Y87900D03*
Y80500D03*
X-142500Y77100D03*
Y84500D03*
X-138500Y80500D03*
Y87900D03*
X-135700Y84200D03*
Y76800D03*
Y88300D03*
Y80900D03*
X-138500Y77000D03*
Y84400D03*
X-146400Y88000D03*
Y80600D03*
X-146300Y91800D03*
Y99200D03*
X-142400Y95300D03*
X-142500Y91900D03*
Y99300D03*
X-138500Y95300D03*
X-135700Y99000D03*
Y91600D03*
Y95600D03*
X-138500Y91800D03*
Y99200D03*
X-146400Y95300D03*
X-139400Y110100D03*
X-142400Y110000D03*
X-146300Y106600D03*
X-142400Y102600D03*
X-142500Y106600D03*
X-138500Y102600D03*
X-135700Y106300D03*
Y110400D03*
Y103000D03*
X-138500Y106600D03*
Y113900D03*
X-146400Y110100D03*
Y102700D03*
X-138800Y120300D03*
X-135700Y125200D03*
Y117800D03*
X-146400Y117500D03*
X-138600Y138700D03*
X-135700Y132600D03*
X-135900Y147000D03*
X-141600D03*
X-147200D03*
X-144100Y150800D03*
X-138500D03*
X-141400Y142600D03*
X-138500Y156400D03*
X-144100D03*
X-124300Y-148900D03*
X-129900D03*
X-124000Y-140000D03*
X-132300Y-138300D03*
X-128900Y-138200D03*
X-126800Y-141200D03*
X-132500D03*
X-133200Y-125700D03*
X-130500Y-125500D03*
X-130100Y-122900D03*
X-133300Y-123000D03*
X-131800Y-120300D03*
X-127900Y-124900D03*
X-127800Y-120200D03*
X-130200Y-128500D03*
X-133600Y-128400D03*
X-127800Y-130000D03*
X-130500Y-110400D03*
X-133200Y-111800D03*
X-130400Y-113000D03*
X-133200Y-108500D03*
X-129600Y-108200D03*
X-131700Y-105900D03*
X-127800Y-112800D03*
X-131100Y-115800D03*
X-133900D03*
X-127900Y-110100D03*
X-127800Y-115700D03*
X-133800Y-104200D03*
X-123300Y-94500D03*
X-127200Y-91600D03*
X-132900D03*
X-123500Y-82500D03*
X-129200D03*
X-126300Y-84800D03*
X-131900D03*
X-128400Y-80100D03*
X-128200Y-88200D03*
X-128500Y-77000D03*
X-133600Y-67500D03*
Y-70300D03*
X-121900Y-62300D03*
X-123900Y-62400D03*
X-127100Y-64600D03*
X-128800Y-63800D03*
X-133700Y-63900D03*
Y-60700D03*
X-126200Y-54800D03*
X-132900D03*
X-129500D03*
X-123000Y-54500D03*
X-131200Y-61500D03*
X-123000Y-65300D03*
X-127400Y-61600D03*
X-128500Y-41000D03*
X-122800Y-44400D03*
X-124700D03*
X-126500D03*
X-128400D03*
X-130200D03*
X-132000D03*
X-133900D03*
X-128600Y-38700D03*
X-124800Y-35700D03*
X-128300Y-35800D03*
X-132900Y-35500D03*
X-124400Y-33100D03*
X-128800Y-33000D03*
X-132800Y-32900D03*
X-131300Y-28300D03*
X-130800Y-29900D03*
X-128700Y-27900D03*
X-133500Y-29800D03*
X-126900D03*
X-131500Y-25500D03*
X-133500Y-26900D03*
Y-23600D03*
X-133100Y73100D03*
X-130800Y74500D03*
X-127500Y74200D03*
X-123000Y74100D03*
X-125200Y74900D03*
X-132500Y80100D03*
Y87500D03*
X-132600Y83700D03*
Y76300D03*
X-130200Y82600D03*
X-127500Y82500D03*
X-127200Y78500D03*
Y85900D03*
X-125200Y82300D03*
X-130200Y78700D03*
Y86000D03*
X-132500Y94900D03*
X-132600Y98400D03*
Y91000D03*
X-130200Y90000D03*
Y97300D03*
X-127500D03*
Y89900D03*
X-127200Y93300D03*
Y100600D03*
X-125200Y97000D03*
Y89600D03*
X-130200Y93400D03*
Y100800D03*
X-127400Y107700D03*
X-132900Y108900D03*
X-132500Y102300D03*
X-132600Y105800D03*
X-130200Y104700D03*
X-127500Y104600D03*
X-121900Y104300D03*
X-125200Y111800D03*
Y104400D03*
X-130200Y108200D03*
X-125200Y126600D03*
Y119200D03*
X-130200Y115600D03*
Y122900D03*
X-123200Y138600D03*
X-125200Y133900D03*
X-130200Y130300D03*
Y137700D03*
X-124700Y147000D03*
X-130300D03*
X-132900Y150800D03*
X-127200D03*
X-134000Y142600D03*
X-126600D03*
X-127200Y156400D03*
X-132900D03*
X-113000Y-148900D03*
X-118700D03*
X-116100Y-137700D03*
X-109900Y-141200D03*
X-115600D03*
X-121200D03*
X-109900Y-124900D03*
X-115500D03*
X-115600Y-129600D03*
X-109900Y-120000D03*
X-115500D03*
X-109900Y-115800D03*
X-115500D03*
X-115100Y-107900D03*
X-112400D03*
X-119000Y-94400D03*
X-120100Y-97600D03*
X-116100Y-95600D03*
X-118000Y-100200D03*
X-114900Y-101100D03*
X-113300D03*
X-111700D03*
X-114900Y-99400D03*
X-113300D03*
X-111700D03*
X-116000Y-91600D03*
X-121600D03*
X-114900Y-82100D03*
X-117900Y-82500D03*
X-115000Y-84800D03*
X-120700D03*
X-113600Y-79900D03*
X-117300D03*
X-113500Y-88200D03*
X-120800D03*
X-115500Y-78600D03*
X-119500Y-74500D03*
X-110000Y-76700D03*
X-111400D03*
X-120800Y-60800D03*
X-118900Y-62300D03*
X-119100Y-59600D03*
X-110500Y-61500D03*
X-111400Y-59600D03*
X-113000Y-58100D03*
X-114800Y-56600D03*
X-116500Y-54900D03*
X-117100Y-57200D03*
X-120000Y-51200D03*
X-121600Y-49800D03*
X-121500Y-47200D03*
X-121300Y-52600D03*
X-118300Y-53000D03*
X-121300Y-41900D03*
X-121600Y-38600D03*
X-121500Y-35800D03*
X-109200Y-26500D03*
X-114800Y-21000D03*
X-111500Y-20600D03*
X-109700Y-23300D03*
X-112900D03*
X-113700Y-18700D03*
X-109900Y-18500D03*
X-117600Y-18700D03*
X-110900Y-6000D03*
X-111600Y-3200D03*
X-113600Y-5100D03*
X-117300D03*
Y-8800D03*
X-113600D03*
X-109900D03*
Y-12500D03*
X-113600D03*
X-117300D03*
X-121000D03*
X-120900Y-9500D03*
Y-5800D03*
Y-2100D03*
X-109400Y-3000D03*
X-111600Y500D03*
Y4200D03*
Y7900D03*
X-117300Y9600D03*
X-113600D03*
Y2300D03*
Y5900D03*
X-117300D03*
Y2300D03*
Y-1400D03*
X-113600D03*
X-120900Y1600D03*
Y5300D03*
Y9000D03*
X-118900Y22600D03*
X-111600Y11600D03*
Y15300D03*
Y19000D03*
Y22700D03*
X-113600Y20700D03*
X-117300D03*
Y17000D03*
X-113600D03*
Y13300D03*
X-117300D03*
X-120900Y12700D03*
Y16400D03*
Y20100D03*
Y23700D03*
X-115400Y30100D03*
Y33700D03*
X-118900Y26300D03*
Y30000D03*
X-119000Y33600D03*
X-111600Y26400D03*
Y30100D03*
Y33700D03*
X-113600Y35500D03*
X-117300D03*
Y31800D03*
X-113600D03*
Y28100D03*
X-117300D03*
Y24400D03*
X-113600D03*
X-120900Y27400D03*
Y31100D03*
Y34800D03*
X-115400Y37400D03*
X-119000Y37200D03*
X-110100Y39500D03*
X-111700Y43200D03*
X-109600Y43000D03*
X-115600Y41300D03*
X-119100Y40700D03*
X-115400Y44700D03*
X-119100Y44500D03*
X-118700Y48400D03*
X-115500Y47600D03*
X-109000Y47500D03*
X-111400Y47400D03*
X-111000Y49500D03*
X-114800Y49600D03*
X-113000D03*
X-109000Y49500D03*
X-116700D03*
X-110900Y37600D03*
Y41300D03*
Y45000D03*
X-117300Y46500D03*
X-113600D03*
Y42900D03*
X-117300D03*
Y39200D03*
X-113600D03*
X-120900Y38500D03*
Y42200D03*
Y45900D03*
Y49600D03*
X-120200Y59000D03*
X-120000Y55300D03*
Y51400D03*
X-119000Y62200D03*
X-118400Y53200D03*
Y57200D03*
Y55100D03*
X-118300Y51200D03*
X-118400Y59100D03*
X-110700Y60700D03*
X-114600D03*
X-112600D03*
X-108800Y60500D03*
X-116800Y60600D03*
X-120900Y53300D03*
Y57000D03*
Y60700D03*
X-111600Y62700D03*
X-115500Y62800D03*
X-109700Y64400D03*
X-113400D03*
X-117100D03*
X-120800D03*
X-120600Y74200D03*
X-117600D03*
X-114700Y74100D03*
X-114900Y71400D03*
Y69700D03*
Y67900D03*
X-116900Y71400D03*
Y69700D03*
Y67898D03*
X-120600Y76700D03*
X-117700D03*
X-115300Y82600D03*
X-111900D03*
X-119200D03*
X-115800Y86300D03*
X-114900Y76700D03*
X-114600Y79300D03*
X-109800Y79200D03*
X-112100Y86600D03*
Y79200D03*
X-119500D03*
Y86600D03*
X-108700Y97300D03*
X-116100D03*
X-120200Y97400D03*
X-112900D03*
X-115800Y90000D03*
X-119300Y90100D03*
X-112200Y90000D03*
X-115800Y93600D03*
Y101100D03*
X-112100Y101300D03*
Y94000D03*
X-119500D03*
Y101300D03*
X-110900Y104300D03*
X-114500D03*
X-118200D03*
X-112100Y108800D03*
X-119500D03*
X-112100Y123600D03*
Y116200D03*
X-119500D03*
Y123600D03*
X-112300Y130900D03*
X-119700D03*
X-115800Y138600D03*
X-113400Y147000D03*
X-119000D03*
X-121600Y150800D03*
X-116000D03*
X-110300D03*
X-119200Y142600D03*
X-111900D03*
X-110300Y156400D03*
X-116000D03*
X-121600D03*
X-96100Y-148900D03*
X-101800D03*
X-107400D03*
X-96600Y-137200D03*
X-107000Y-137400D03*
X-98700Y-141200D03*
X-104300D03*
X-95800Y-128400D03*
X-101500D03*
X-107100D03*
X-98600Y-124900D03*
X-104200D03*
X-98600Y-120000D03*
X-104200D03*
X-99200Y-110900D03*
X-104000D03*
X-97400Y-108400D03*
X-101700Y-108300D03*
X-107300D03*
X-106800Y-113400D03*
X-101100D03*
X-98600Y-115800D03*
X-104200D03*
X-98500Y-95100D03*
Y-89400D03*
Y-83800D03*
X-96700Y-69400D03*
X-98500Y-78200D03*
Y-72500D03*
X-96000Y-66500D03*
X-98500Y-66700D03*
X-108500Y-73600D03*
Y-75200D03*
Y-76700D03*
X-99100Y-58300D03*
X-98800Y-65000D03*
X-98700Y-62900D03*
X-100200Y-51300D03*
X-101000Y-49300D03*
X-98400Y-52900D03*
X-101400Y-46700D03*
X-105200Y-41400D03*
X-105000Y-46100D03*
X-108100Y-40900D03*
X-108200Y-43700D03*
X-97400Y-43300D03*
X-100000Y-40900D03*
X-98200Y-48800D03*
X-105100Y-37300D03*
X-106400Y-32800D03*
X-108200Y-38200D03*
X-108000Y-35700D03*
X-105000Y-29700D03*
X-108200Y-29800D03*
X-97200Y-32400D03*
X-96300Y-29100D03*
X-99900Y-38200D03*
X-100000Y-31200D03*
X-100100Y-34700D03*
X-98200Y-27100D03*
X-100400Y-25200D03*
X-102800Y-22400D03*
X-102700Y-25100D03*
X-100500Y-27400D03*
X-105100Y-22300D03*
Y-19300D03*
X-97100Y-20100D03*
X-97500Y-18200D03*
X-102500Y-17900D03*
X-100600D03*
X-101500Y-10500D03*
X-99800Y-10450D03*
X-104100Y-10000D03*
X-97100Y-9950D03*
X-106600Y-4600D03*
X-107900Y-6204D03*
X-96000Y3638D03*
X-106400Y2200D03*
X-106500Y6100D03*
X-106400Y4100D03*
X-105100Y500D03*
X-106300Y10100D03*
X-98950Y10250D03*
X-106450Y8200D03*
X-106600Y-1300D03*
X-99200Y7899D03*
X-98400Y12650D03*
X-96750D03*
X-97200Y21700D03*
X-100600Y20200D03*
X-99900Y22500D03*
X-103600Y18800D03*
Y22500D03*
X-106500Y14600D03*
Y16900D03*
Y19100D03*
Y21200D03*
Y23400D03*
X-104650Y13600D03*
X-105800Y12000D03*
X-103200Y14950D03*
X-100950Y16050D03*
X-99800Y18050D03*
X-96400Y19400D03*
X-97700Y18000D03*
X-102000Y33400D03*
X-101800Y29700D03*
X-99100Y27900D03*
X-102000D03*
X-104500D03*
X-97500Y30100D03*
X-99100Y31800D03*
X-101600Y31700D03*
X-104700D03*
X-97300Y33700D03*
X-99000Y35500D03*
X-101400Y35400D03*
X-97200Y24600D03*
Y28300D03*
Y32000D03*
Y35700D03*
X-99900Y33600D03*
Y29900D03*
Y26200D03*
X-103600D03*
Y29900D03*
Y33600D03*
X-106500Y25600D03*
Y27900D03*
Y30200D03*
Y32300D03*
X-105100Y35700D03*
X-106400Y34400D03*
X-97800Y37400D03*
X-106700Y48300D03*
X-104600Y47700D03*
X-105500Y45400D03*
X-108000D03*
X-103300D03*
X-99900Y37200D03*
X-103700Y37100D03*
X-102400Y38300D03*
X-100700Y40100D03*
X-98400D03*
X-96700Y38800D03*
X-107431Y39431D03*
X-105500Y54000D03*
X-105400Y56400D03*
X-106400Y61400D03*
X-107300Y52900D03*
X-107400Y57300D03*
Y55400D03*
Y51000D03*
Y59400D03*
X-104600Y60700D03*
X-104700Y58700D03*
X-103400Y55400D03*
X-103600Y57200D03*
X-103500Y53500D03*
X-104700Y49900D03*
Y51800D03*
X-108100Y62700D03*
X-107200Y64600D03*
X-104700Y62800D03*
X-104900Y64800D03*
X-102400Y64700D03*
X-103800Y73300D03*
X-106200Y73400D03*
X-108300D03*
X-101800Y74000D03*
X-102100Y71700D03*
X-107900Y82600D03*
X-104500D03*
X-108000Y86200D03*
X-104800Y76400D03*
X-107800Y76000D03*
X-107500Y78700D03*
X-102200Y76200D03*
X-101800Y78700D03*
Y81200D03*
X-101700Y83600D03*
Y85900D03*
X-96000Y83000D03*
X-96100Y80600D03*
X-95800Y85300D03*
X-101000Y88000D03*
X-104700Y79200D03*
Y86600D03*
X-105500Y97400D03*
X-108400Y90000D03*
X-104800D03*
X-108000Y93600D03*
Y101000D03*
X-102700Y95900D03*
Y99600D03*
X-100400Y97800D03*
X-101200Y90100D03*
Y92200D03*
X-96800Y97900D03*
X-98700Y96300D03*
X-100300Y94400D03*
X-96600Y91000D03*
X-97300Y101300D03*
X-104700Y94000D03*
Y101300D03*
X-100400Y101500D03*
X-96100Y104300D03*
X-99800D03*
X-103500D03*
X-107200D03*
X-97300Y108800D03*
X-104700D03*
Y116200D03*
X-97300D03*
Y123600D03*
X-104700D03*
X-104900Y130900D03*
X-101100Y138600D03*
X-108500D03*
X-98000Y146300D03*
X-102100Y147000D03*
X-107800D03*
X-104700Y150800D03*
X-104500Y142600D03*
X-97100D03*
X-104700Y156400D03*
X-84900Y-148900D03*
X-90500D03*
X-86700Y-137400D03*
X-87400Y-141200D03*
X-93000D03*
X-84600Y-128400D03*
X-90200D03*
X-87300Y-124900D03*
X-93000D03*
X-87300Y-120000D03*
X-93000D03*
X-95500Y-110700D03*
Y-113400D03*
X-89900D03*
X-85000Y-113300D03*
X-87300Y-115800D03*
X-93000D03*
X-94600Y-92600D03*
X-84800Y-97300D03*
X-85500Y-99400D03*
X-89100Y-96200D03*
X-94700D03*
X-94500Y-89000D03*
Y-83300D03*
X-90400Y-80400D03*
Y-86100D03*
Y-91700D03*
X-84800D03*
Y-86100D03*
Y-80400D03*
X-94500Y-77700D03*
Y-72100D03*
X-90400Y-74800D03*
X-84800D03*
X-91900Y-69800D03*
X-87900Y-72400D03*
X-83600Y-68400D03*
X-86100Y-68200D03*
X-87700Y-66800D03*
X-94000Y-66600D03*
X-86400Y-60600D03*
X-83000Y-60700D03*
X-89900D03*
X-90700Y-64300D03*
X-92200Y-62500D03*
X-94000Y-53600D03*
X-84600Y-52700D03*
X-85000Y-47700D03*
X-87400Y-50000D03*
X-94000Y-51200D03*
X-92000Y-43500D03*
X-94200Y-43300D03*
X-89800Y-44800D03*
X-91900Y-46400D03*
X-95200Y-45500D03*
X-93800Y-48400D03*
X-88100Y-42700D03*
X-87501Y-52599D03*
X-88300Y-38700D03*
X-94500Y-30700D03*
X-88100Y-30000D03*
X-84600Y-32700D03*
X-87700Y-21100D03*
X-85900Y-22800D03*
X-94400Y-23600D03*
X-91300Y-26700D03*
X-83900Y-20900D03*
X-85800Y-20250D03*
X-87350Y-18900D03*
X-89550D03*
X-95257Y-18057D03*
X-93800Y-19600D03*
X-92300Y-18100D03*
X-89500Y-13400D03*
X-85850Y-6050D03*
X-90700Y-6100D03*
X-85850Y-3600D03*
X-90700D03*
X-83550D03*
X-88350D03*
X-93200D03*
X-88350Y-6100D03*
X-83550D03*
X-93150D03*
X-84850Y5350D03*
X-91400Y5400D03*
X-93750D03*
X-85850Y-1250D03*
X-90750D03*
X-85850Y1100D03*
X-90800D03*
X-85850Y3550D03*
X-90800D03*
X-83550Y1100D03*
X-88350D03*
X-93200D03*
X-88350Y-1250D03*
Y3500D03*
X-83550Y-1250D03*
X-93200D03*
X-83550Y3500D03*
X-93200D03*
X-92700Y23200D03*
X-93646Y21932D03*
X-83600Y18800D03*
X-95050Y20650D03*
X-82900Y16500D03*
X-95400Y35100D03*
X-92900Y34500D03*
X-92800Y36300D03*
X-94500Y33400D03*
X-92800Y32600D03*
X-95000Y27200D03*
Y29400D03*
X-94900Y31200D03*
X-94400Y25000D03*
X-92700Y24700D03*
X-85100Y34700D03*
X-84100Y27700D03*
X-84200Y30300D03*
X-82900Y32600D03*
X-83000Y35100D03*
X-87300Y35500D03*
X-87200Y33700D03*
X-85800Y32000D03*
Y25800D03*
X-87300Y28800D03*
X-87200Y30400D03*
Y27200D03*
X-83800Y23900D03*
X-85900D03*
X-88600Y48400D03*
X-94900Y37100D03*
X-94800Y40100D03*
X-92800Y38200D03*
Y40300D03*
X-85100Y40000D03*
Y37500D03*
X-83000D03*
Y40100D03*
Y42600D03*
X-84200Y43900D03*
X-82900Y45200D03*
X-85600Y42500D03*
X-87300Y39300D03*
Y37400D03*
X-87400Y41300D03*
X-83600Y49600D03*
X-85300Y48200D03*
X-86900Y46700D03*
X-89000Y45900D03*
X-90600Y48000D03*
X-93100Y47800D03*
X-88900Y62000D03*
X-91200Y61800D03*
X-88500Y58600D03*
X-91200Y58000D03*
X-89200Y54700D03*
X-92000Y52700D03*
X-92100Y55000D03*
X-88600Y51500D03*
X-90600Y50500D03*
X-84700Y61700D03*
X-85600Y59000D03*
Y55400D03*
Y51700D03*
X-87300Y60900D03*
Y57200D03*
Y53500D03*
Y49800D03*
X-90300Y52600D03*
Y56300D03*
Y60000D03*
X-83300Y57900D03*
X-83000Y60300D03*
X-83400Y51700D03*
X-83600Y53700D03*
Y55800D03*
X-93000Y50500D03*
X-94400Y54700D03*
X-93900Y53000D03*
Y56400D03*
X-93100Y60800D03*
X-93200Y58500D03*
X-83700Y72500D03*
X-87400D03*
X-91000D03*
X-83700Y68800D03*
X-87400D03*
X-91000D03*
X-90500Y65600D03*
X-92600Y65100D03*
X-88000Y64300D03*
X-86100Y64000D03*
X-90300Y63700D03*
X-83100Y62700D03*
Y64900D03*
X-93000Y63300D03*
X-92700Y67000D03*
X-89000D03*
X-85300D03*
Y70700D03*
Y74300D03*
X-89000D03*
Y70700D03*
X-92700D03*
Y74300D03*
X-95100Y64400D03*
X-94500Y66200D03*
X-95500Y69900D03*
X-95700Y67900D03*
X-95400Y72000D03*
X-95500Y74500D03*
X-83400Y79900D03*
X-87100D03*
X-90800D03*
X-83500Y76100D03*
X-87200D03*
X-90900D03*
X-92700Y78000D03*
X-89000D03*
X-85300D03*
Y81700D03*
X-89000D03*
X-92700D03*
X-95300Y76900D03*
X-94600Y78900D03*
X-84100Y84700D03*
X-94000Y85600D03*
X-92000D03*
X-90000Y84700D03*
X-87900D03*
X-85900Y85400D03*
X-91400Y98600D03*
X-94300D03*
X-95300Y92600D03*
X-94000Y91200D03*
X-91400D03*
X-89200Y92100D03*
X-85900Y91500D03*
X-83100Y98500D03*
X-88700Y98400D03*
Y100300D03*
X-93300Y95100D03*
X-93900Y101600D03*
X-91200D03*
X-92400Y104300D03*
X-83000Y101500D03*
X-82900Y104100D03*
X-88700Y102700D03*
Y105000D03*
Y107400D03*
X-89000Y109900D03*
Y112100D03*
X-89900Y114000D03*
Y116300D03*
Y118600D03*
X-89600Y122500D03*
Y124700D03*
Y120600D03*
X-91700Y117700D03*
X-93900Y118800D03*
Y120700D03*
Y124700D03*
Y126900D03*
X-94300Y122600D03*
X-89700Y126600D03*
X-94900Y139700D03*
X-88700Y128100D03*
X-83100D03*
Y129700D03*
Y132500D03*
Y135300D03*
Y138100D03*
X-88700Y129700D03*
Y132500D03*
Y135300D03*
Y138100D03*
X-91600Y127805D03*
X-86000Y151800D03*
X-90100Y149800D03*
X-93100Y146300D03*
X-90900Y140300D03*
X-89400Y147100D03*
X-91100Y144000D03*
X-86200Y148300D03*
X-89500Y153300D03*
X-85900Y156200D03*
X-91100Y156500D03*
X-73600Y-148900D03*
X-79200D03*
X-76700Y-137200D03*
X-70500Y-141200D03*
X-76100D03*
X-81800D03*
X-72200Y-125000D03*
X-73300Y-128400D03*
X-78900D03*
X-76100Y-124900D03*
X-81700D03*
X-72100Y-121300D03*
X-76100Y-120000D03*
X-81700D03*
X-79600Y-107800D03*
X-81900Y-106600D03*
X-81800Y-109900D03*
X-76900Y-116700D03*
X-81800Y-117000D03*
X-79400Y-114600D03*
X-79200Y-97300D03*
X-73500D03*
X-73800Y-92800D03*
X-77900Y-101500D03*
X-73200Y-101400D03*
X-79700Y-104500D03*
X-82600Y-102900D03*
X-79200Y-80400D03*
Y-86100D03*
Y-91700D03*
X-73800Y-87100D03*
Y-81500D03*
X-79200Y-74800D03*
X-73800Y-75900D03*
X-82200Y-72400D03*
X-76600D03*
X-71000D03*
X-74000Y-68600D03*
X-70500Y-68500D03*
X-77900D03*
X-80950Y-66850D03*
X-72700Y-62000D03*
Y-64600D03*
X-72600Y-59400D03*
X-81919Y-55519D03*
X-72400Y-52800D03*
X-70800Y-47200D03*
X-80400Y-52700D03*
X-76100D03*
X-70800Y-43000D03*
X-78400Y-45700D03*
X-78200Y-48500D03*
X-82100Y-48600D03*
X-81600Y-44800D03*
X-75600Y-47500D03*
X-75700Y-43200D03*
X-79600Y-43000D03*
X-70800Y-31800D03*
X-80000Y-33000D03*
X-76100Y-32800D03*
X-70400Y-23800D03*
X-76700Y-24000D03*
X-80400D03*
X-74600Y-27000D03*
X-78200D03*
X-82000D03*
X-79500Y-20900D03*
X-81600D03*
X-77200Y-20500D03*
X-75100Y-19900D03*
X-71200Y-19800D03*
X-73299Y-22499D03*
X-76500Y-4700D03*
X-78200Y-11500D03*
X-71400Y-8500D03*
X-75300Y-7800D03*
X-75100Y-9800D03*
X-70850Y-12300D03*
X-81750Y-4250D03*
X-73299Y-3599D03*
X-74250Y350D03*
X-72500Y2200D03*
X-72600Y600D03*
X-71480Y9921D03*
X-73050Y8850D03*
X-74450Y7850D03*
X-75750Y6650D03*
X-79500Y9150D03*
X-81600Y-1800D03*
X-81650Y2850D03*
Y450D03*
X-81800Y5300D03*
X-72119Y19119D03*
X-81900Y18800D03*
X-76400Y18900D03*
X-70400Y21100D03*
X-70135Y11264D03*
X-73114Y11700D03*
X-82000Y26300D03*
X-81900Y28900D03*
Y31000D03*
X-81800Y23900D03*
X-74300Y29100D03*
X-74900Y26500D03*
X-75100Y24400D03*
Y31400D03*
X-76300Y29900D03*
Y28100D03*
X-74000Y32900D03*
Y35400D03*
X-75681Y43419D03*
X-74000Y37900D03*
X-75900Y39800D03*
X-77500Y41100D03*
X-70500Y42300D03*
X-71300Y44400D03*
X-71000Y46500D03*
X-73100D03*
X-75600Y47500D03*
X-70200Y53000D03*
X-70300Y55500D03*
X-70200Y50900D03*
X-72100Y56500D03*
X-74600Y56400D03*
X-71000Y58200D03*
X-73600D03*
X-76700Y56800D03*
X-79100Y57200D03*
X-80700Y58800D03*
X-75900Y59200D03*
X-78100D03*
X-81600Y68900D03*
X-78600Y66700D03*
X-77900Y70400D03*
X-70000Y69100D03*
Y72800D03*
X-79100Y68500D03*
Y72200D03*
X-81600Y67000D03*
Y70700D03*
Y74300D03*
X-75600Y67700D03*
X-75700Y71600D03*
Y69700D03*
X-76500Y66000D03*
X-75600Y73700D03*
X-70900Y84700D03*
X-71100Y82400D03*
X-71200Y87200D03*
X-79100Y75900D03*
Y79600D03*
Y83300D03*
X-81600Y78000D03*
Y81700D03*
X-76900Y75700D03*
Y78100D03*
Y80500D03*
X-76800Y83100D03*
X-77300Y85500D03*
X-80000Y85600D03*
X-82000Y84700D03*
X-81100Y100700D03*
X-76200Y99400D03*
X-71800Y98600D03*
X-71700Y95400D03*
X-72400Y92400D03*
X-74200Y94200D03*
X-72600Y89700D03*
X-74900Y91100D03*
X-82400Y92100D03*
X-78400Y92800D03*
X-80000Y91033D03*
X-76100Y93800D03*
X-77400Y91200D03*
X-75800Y95800D03*
X-78000Y97800D03*
X-80400Y98700D03*
X-74400Y97900D03*
X-78700Y95100D03*
X-72600Y103400D03*
X-80600D03*
X-76400Y103100D03*
X-70900Y101700D03*
Y105400D03*
X-78900Y101700D03*
Y105400D03*
X-74200Y101600D03*
X-82800Y107000D03*
X-82500Y109200D03*
X-80100Y110100D03*
X-80300Y112200D03*
X-81600Y113800D03*
X-74400Y105500D03*
Y112900D03*
X-81800Y115700D03*
X-78000Y122500D03*
Y124700D03*
Y120400D03*
X-77600Y118300D03*
X-79600Y117700D03*
X-81800Y117800D03*
X-78000Y126800D03*
X-82200Y122500D03*
Y124700D03*
X-82100Y120600D03*
X-74400Y120300D03*
X-73500Y126600D03*
X-82300D03*
X-71000Y139900D03*
X-77800Y140000D03*
X-80300Y128200D03*
X-81600Y149400D03*
X-71400Y146100D03*
X-78100Y146000D03*
X-70200Y150700D03*
X-81100Y140100D03*
X-82400Y147100D03*
X-80500Y143600D03*
X-74400Y142600D03*
X-82600Y153300D03*
X-80900Y156400D03*
X-70200D03*
X-62300Y-148900D03*
X-68000D03*
X-57400Y-145600D03*
X-62300Y-139100D03*
X-62700Y-135200D03*
X-66000Y-133000D03*
X-66500Y-137000D03*
X-62300Y-131300D03*
X-59100Y-134100D03*
X-64900Y-141200D03*
X-57292Y-143892D03*
X-68700Y-128600D03*
Y-124900D03*
X-65300Y-127900D03*
X-57400Y-108100D03*
Y-113800D03*
X-64600Y-107000D03*
X-64800Y-111600D03*
X-61100Y-115700D03*
Y-110500D03*
X-57400Y-96900D03*
Y-102500D03*
X-63500Y-102700D03*
X-63800Y-98900D03*
X-66600Y-101600D03*
X-61100Y-104900D03*
Y-99300D03*
Y-93600D03*
X-69300Y-92900D03*
X-69400Y-97600D03*
X-65300Y-93700D03*
X-57400Y-80000D03*
Y-85600D03*
Y-91200D03*
X-61100Y-88000D03*
Y-82400D03*
X-69300Y-87300D03*
Y-81700D03*
X-65300Y-82400D03*
Y-88000D03*
X-57400Y-74300D03*
X-61100Y-76700D03*
X-58200Y-68100D03*
X-61100Y-71000D03*
X-69300Y-76000D03*
X-62600Y-66700D03*
X-66100Y-68500D03*
X-65300Y-72400D03*
Y-76700D03*
X-68000Y-70200D03*
X-61900Y-64400D03*
X-68300Y-61000D03*
X-69700Y-59500D03*
X-66600D03*
X-62000Y-59100D03*
X-62819Y-56519D03*
X-59900Y-42700D03*
X-67300Y-46500D03*
X-65100Y-53100D03*
X-68700Y-52900D03*
X-62900Y-46500D03*
X-60000Y-49600D03*
X-65800Y-43100D03*
X-58200Y-34000D03*
X-61100Y-30800D03*
X-68400Y-34600D03*
X-66600Y-32000D03*
X-59600Y-20300D03*
X-57900Y-15000D03*
X-59400Y-23800D03*
X-63100D03*
X-66800D03*
X-69350Y-19850D03*
X-67550Y-19900D03*
X-61300Y-17250D03*
X-61500Y-15050D03*
X-62550Y-19000D03*
X-64300Y-17150D03*
X-64950Y-19200D03*
X-69850Y-9950D03*
X-69500Y-7450D03*
X-64500Y-14600D03*
X-63000Y-13050D03*
X-61550Y-11450D03*
X-60000Y-9850D03*
X-58550Y-8100D03*
X-58250Y-5900D03*
X-58350Y-3800D03*
X-67750Y-9050D03*
X-66100Y-7700D03*
X-65550Y-5800D03*
X-67800Y-5750D03*
X-63600Y-4750D03*
X-63500Y-2950D03*
X-66400Y-11850D03*
X-68200D03*
X-58300Y-1650D03*
X-58350Y500D03*
X-58300Y2750D03*
Y5000D03*
X-58350Y7150D03*
X-58400Y9250D03*
X-63450Y-1050D03*
X-63600Y800D03*
Y2700D03*
X-63900Y4500D03*
Y6400D03*
X-63950Y8200D03*
X-65350Y9500D03*
X-62300Y19700D03*
X-58600Y20000D03*
X-66000D03*
X-63000Y15400D03*
X-64900Y16200D03*
X-67100D03*
X-69700Y18500D03*
X-69500Y16000D03*
X-68800Y22500D03*
X-59600Y16700D03*
X-59200Y11200D03*
X-66350Y11150D03*
X-68150Y11200D03*
X-61900Y14050D03*
X-60700Y12650D03*
X-63200Y24300D03*
X-65600Y33600D03*
X-65400Y36200D03*
X-65800Y28300D03*
X-63300Y28000D03*
Y30600D03*
Y34300D03*
X-59500Y27700D03*
Y35100D03*
X-67900Y26400D03*
Y29300D03*
X-68000Y34100D03*
X-67900Y36700D03*
X-59600Y24100D03*
X-67000D03*
Y31400D03*
X-59600D03*
X-64900Y47200D03*
X-65000Y44200D03*
X-69000Y44300D03*
X-65200Y40200D03*
X-63300Y38000D03*
Y41700D03*
Y45400D03*
Y49100D03*
X-59500Y42500D03*
X-66900D03*
X-68900Y40800D03*
X-69000Y46900D03*
X-66800Y48700D03*
X-59600Y38800D03*
X-67000D03*
Y46200D03*
X-59600D03*
X-65300Y59000D03*
Y55500D03*
X-65600Y51000D03*
X-63400Y54000D03*
Y57200D03*
Y60900D03*
X-63700Y51600D03*
X-59500Y49900D03*
Y57300D03*
X-66900D03*
X-67700Y50900D03*
X-69300Y59800D03*
X-69600Y62100D03*
X-59600Y53600D03*
X-67000D03*
Y61000D03*
X-59600D03*
X-65400Y73600D03*
X-65100Y70200D03*
X-67400Y70800D03*
X-65300Y66400D03*
Y62700D03*
X-63400Y64600D03*
Y68300D03*
Y72000D03*
X-66900Y64700D03*
X-59500D03*
Y72000D03*
X-69700Y64500D03*
X-69900Y71000D03*
Y67200D03*
X-67900Y73700D03*
X-59600Y68300D03*
X-67000D03*
X-68500Y84900D03*
X-65200Y85100D03*
Y81400D03*
Y77800D03*
X-63400Y75700D03*
Y79400D03*
Y83100D03*
Y86800D03*
X-59500Y79400D03*
Y86800D03*
X-66900D03*
X-67400Y77600D03*
X-67200Y79700D03*
X-68600Y81700D03*
X-67000Y75700D03*
X-59600D03*
Y83100D03*
X-67000D03*
X-69900Y99900D03*
X-69200Y97000D03*
X-69400Y94000D03*
X-65200Y92200D03*
X-69900Y91200D03*
X-68800Y88600D03*
X-63400Y90500D03*
Y94100D03*
Y97800D03*
X-66900Y94200D03*
X-59500D03*
X-67000Y90500D03*
X-59600D03*
Y97900D03*
X-67000D03*
X-68900Y103300D03*
X-63400Y101500D03*
Y105200D03*
X-59500Y101600D03*
X-66900D03*
X-59600Y105500D03*
Y112900D03*
X-67000D03*
Y105500D03*
X-59600Y120300D03*
X-67000D03*
X-59600Y127600D03*
X-67000D03*
X-59600Y135100D03*
X-67000D03*
X-67400Y146500D03*
X-61800D03*
X-58900Y150700D03*
X-64600D03*
X-67000Y142600D03*
X-59600D03*
X-64600Y156400D03*
X-58900D03*
X-45400Y-148900D03*
X-51100D03*
X-56700D03*
X-46400Y-139000D03*
X-50100Y-138800D03*
X-44300Y-136400D03*
X-48900Y-136600D03*
X-48400Y-141200D03*
X-52200Y-141100D03*
Y-136500D03*
X-47100Y-123400D03*
X-56800Y-119500D03*
X-53800Y-122500D03*
X-51000Y-131000D03*
X-50350Y-122000D03*
X-47000Y-116600D03*
X-46700Y-110400D03*
Y-113500D03*
X-46800Y-107300D03*
X-54100Y-105300D03*
Y-111000D03*
Y-116600D03*
X-50350Y-114000D03*
X-45300Y-104500D03*
X-47800Y-93900D03*
X-44400Y-92900D03*
X-49500Y-96000D03*
X-47700Y-99000D03*
X-50700Y-102400D03*
X-52900Y-101000D03*
Y-95400D03*
X-49700Y-91100D03*
X-45600Y-90100D03*
X-52900Y-89800D03*
Y-84100D03*
X-49700Y-81900D03*
Y-84100D03*
X-47881Y-87581D03*
X-52900Y-78500D03*
Y-72900D03*
X-47200Y-69400D03*
X-47300Y-74200D03*
X-55800Y-70100D03*
X-52400Y-66700D03*
X-46700Y-76900D03*
X-46900Y-59400D03*
X-47000Y-64000D03*
X-46800Y-55300D03*
X-54400Y-66400D03*
X-54100Y-64200D03*
X-56300Y-64500D03*
Y-60100D03*
X-55600Y-55100D03*
X-53460Y-56460D03*
X-48900Y-49000D03*
X-49100Y-44600D03*
X-53800Y-44500D03*
X-52900Y-50100D03*
X-56600Y-46400D03*
X-46000Y-44600D03*
X-44800Y-49300D03*
X-46200Y-40500D03*
Y-34200D03*
X-51200Y-31000D03*
X-56300D03*
X-48100Y-30700D03*
X-49100Y-20400D03*
X-55600Y-18500D03*
X-53400Y-16300D03*
X-49500Y-16700D03*
X-48300Y-23800D03*
X-52000D03*
X-55700D03*
X-52300Y-20200D03*
X-44800Y-20100D03*
X-55600Y-9200D03*
X-49600Y-8800D03*
X-52300Y-12900D03*
Y-5500D03*
X-44800Y-12700D03*
Y-5300D03*
X-55600Y5500D03*
Y-1900D03*
X-49600Y-1400D03*
Y6000D03*
X-52300Y1900D03*
Y9300D03*
X-44800Y2100D03*
Y9400D03*
X-55500Y18100D03*
X-55600Y12900D03*
X-49600Y13400D03*
X-51300Y20000D03*
X-48100Y23600D03*
X-52300Y16700D03*
X-44800Y16800D03*
X-55400Y24200D03*
X-55700Y35200D03*
Y31500D03*
Y27800D03*
X-48300Y27900D03*
Y31600D03*
Y35300D03*
X-52100Y27700D03*
Y35100D03*
X-52300Y24100D03*
Y31400D03*
X-44800Y24200D03*
Y31600D03*
X-55700Y46300D03*
Y42600D03*
Y38900D03*
X-48300Y39000D03*
Y42700D03*
Y46400D03*
X-52100Y42500D03*
X-52300Y38800D03*
Y46200D03*
X-44800Y39000D03*
Y46400D03*
X-55700Y61000D03*
Y57400D03*
Y53700D03*
Y50000D03*
X-48300D03*
Y53700D03*
Y57400D03*
Y61100D03*
X-52100Y49900D03*
Y57300D03*
X-52300Y53600D03*
Y61000D03*
X-44800Y53700D03*
Y61100D03*
X-55700Y72100D03*
Y68400D03*
Y64700D03*
X-48300Y64800D03*
Y68500D03*
Y72200D03*
X-52100Y64700D03*
Y72000D03*
X-52300Y68300D03*
X-44800Y68500D03*
X-55700Y86900D03*
Y83200D03*
Y79500D03*
Y75800D03*
X-48300Y75900D03*
Y79600D03*
Y83300D03*
Y87000D03*
X-52100Y79400D03*
Y86800D03*
X-52300Y75700D03*
Y83100D03*
X-44800Y75900D03*
Y83300D03*
X-55700Y98000D03*
Y94300D03*
Y90600D03*
X-48300D03*
Y94300D03*
Y98000D03*
X-52100Y94200D03*
X-52300Y90500D03*
Y97900D03*
X-44800Y90600D03*
Y98000D03*
X-48300Y101700D03*
Y105400D03*
X-55600Y101500D03*
Y105200D03*
X-52100Y101600D03*
X-44900Y105500D03*
Y112900D03*
X-52300D03*
Y105500D03*
X-44900Y120300D03*
X-52300D03*
X-44900Y127600D03*
X-52300D03*
X-44900Y135100D03*
X-52300D03*
X-56200Y146500D03*
X-50500D03*
X-44900D03*
X-47700Y150700D03*
X-53300D03*
X-52300Y142600D03*
X-44900D03*
X-53300Y156400D03*
X-47700D03*
X-34200Y-148900D03*
X-39800D03*
X-42300Y-139000D03*
X-44000Y-141600D03*
X-41000Y-141300D03*
Y-136800D03*
X-39200Y-139700D03*
X-37600Y-141400D03*
X-37300Y-138400D03*
X-38700Y-136300D03*
X-37949Y-132349D03*
X-31800Y-108600D03*
X-41100Y-110900D03*
X-37400Y-108000D03*
X-39500Y-107400D03*
X-38200Y-105600D03*
X-38900Y-109800D03*
X-41300Y-108700D03*
X-41400Y-113000D03*
X-37949Y-113451D03*
X-34800Y-102600D03*
X-40300Y-99700D03*
X-42500Y-101900D03*
X-38000Y-97300D03*
X-35900Y-96000D03*
X-33600Y-95000D03*
X-41700Y-93600D03*
X-44100Y-95900D03*
X-42300Y-91300D03*
X-36000Y-83000D03*
X-33400Y-82900D03*
X-38700D03*
X-36000Y-85600D03*
X-33400D03*
X-38700D03*
X-36000Y-80300D03*
X-33400D03*
X-38700D03*
X-39700Y-91700D03*
X-33055Y-91290D03*
X-35025D03*
X-34300Y-73100D03*
X-33000Y-74700D03*
X-36700Y-73200D03*
X-42400D03*
X-40100Y-67300D03*
X-31500Y-69000D03*
X-37200D03*
X-42800D03*
X-33300Y-64200D03*
X-33100Y-56500D03*
X-38000Y-59200D03*
X-42300Y-60300D03*
X-34100Y-51600D03*
X-41600Y-50700D03*
X-39500Y-53200D03*
X-35700Y-48500D03*
X-39300Y-46300D03*
X-34600Y-43200D03*
X-32100Y-44600D03*
X-37000D03*
X-39300Y-41500D03*
X-31800Y-41200D03*
X-36600D03*
X-42300Y-44200D03*
X-39400Y-31400D03*
X-31500Y-30500D03*
X-40900Y-39400D03*
X-40700Y-34600D03*
X-36200Y-30600D03*
X-41100Y-29800D03*
X-41300Y-27300D03*
X-40000Y-21600D03*
X-33400Y-19900D03*
X-41100Y-24300D03*
X-37400Y-20100D03*
Y-5300D03*
Y-12700D03*
X-32300Y-900D03*
X-33000Y6500D03*
X-37400Y9400D03*
Y2100D03*
Y16800D03*
Y31600D03*
Y24200D03*
Y46400D03*
Y39000D03*
Y61100D03*
Y53700D03*
Y68500D03*
Y83300D03*
Y75900D03*
Y98000D03*
Y90600D03*
X-37500Y112900D03*
Y105500D03*
Y120300D03*
Y127600D03*
Y135100D03*
X-39300Y146500D03*
X-33600D03*
X-36400Y150700D03*
X-42000D03*
X-37500Y142600D03*
X-42000Y156400D03*
X-36400D03*
X-22000Y-145800D03*
X-22900Y-148900D03*
X-28500D03*
X-19800Y-143300D03*
X-20700Y-134300D03*
Y-138100D03*
X-28300Y-132000D03*
X-28200Y-137600D03*
X-20800Y-129900D03*
X-20700Y-122100D03*
X-20900Y-126100D03*
X-30600Y-130300D03*
X-28600Y-123300D03*
Y-120600D03*
X-30900Y-125600D03*
X-20800Y-118100D03*
X-30500Y-118000D03*
X-20600Y-111000D03*
X-20400Y-108000D03*
X-20700Y-114100D03*
X-28100Y-110200D03*
X-28300Y-107800D03*
Y-113800D03*
X-25800Y-99500D03*
X-29100Y-99700D03*
X-31200Y-102600D03*
X-28100Y-102800D03*
X-23100Y-97400D03*
X-20200Y-95000D03*
X-22300Y-95300D03*
X-20100Y-92900D03*
X-25200Y-96200D03*
X-27300Y-97000D03*
X-24400Y-94100D03*
X-18400Y-90600D03*
X-28400Y-90700D03*
X-20300Y-82300D03*
X-20900Y-86700D03*
X-21100Y-79700D03*
X-29215Y-88600D03*
X-23700Y-76300D03*
X-27700Y-75500D03*
X-20300Y-76900D03*
X-27400Y-78200D03*
X-21600Y-73500D03*
X-25500Y-73200D03*
X-31100D03*
X-26000Y-69100D03*
X-20900Y-67200D03*
X-25200Y-66800D03*
X-19600Y-56400D03*
X-25400Y-60300D03*
X-22700D03*
X-29100Y-60000D03*
X-30000Y-63500D03*
X-29600Y-57600D03*
X-20007Y-53607D03*
X-22800Y-51600D03*
X-28500D03*
X-21000Y-48500D03*
X-28300D03*
X-22500Y-44800D03*
X-28600Y-44600D03*
X-19000Y-44700D03*
X-25300Y-45000D03*
X-23200Y-41500D03*
X-27200D03*
X-22700Y-31100D03*
X-27100Y-30900D03*
X-19800Y-30000D03*
X-20000Y-32800D03*
X-22100Y-34500D03*
X-22200Y-37800D03*
X-26000Y-20000D03*
X-18700Y-20100D03*
X-30000D03*
X-22600D03*
X-25400Y-8000D03*
X-20400Y-8400D03*
X-22600Y-12700D03*
X-30000D03*
Y-5300D03*
X-28300Y12800D03*
X-30000Y16800D03*
X-22600D03*
X-30000Y24200D03*
Y31600D03*
X-22600D03*
Y24200D03*
X-30000Y39000D03*
Y46400D03*
X-22600D03*
Y39000D03*
X-30000Y53700D03*
Y61100D03*
X-22600D03*
Y53700D03*
X-30000Y68500D03*
X-22600D03*
X-30000Y75900D03*
Y83300D03*
X-22600D03*
Y75900D03*
X-30000Y90600D03*
Y98000D03*
X-22600D03*
Y90600D03*
X-22700Y112900D03*
Y105500D03*
X-30100D03*
Y112900D03*
Y120300D03*
X-30700Y136500D03*
X-28000Y146500D03*
X-22400D03*
X-19500Y150700D03*
X-25100D03*
X-30800D03*
X-30100Y142600D03*
X-22700D03*
X-30800Y156400D03*
X-25100D03*
X-19500D03*
X-14700Y-146100D03*
X-18000D03*
X-10500Y-146000D03*
X-8200Y-148900D03*
X-11600D03*
X-17300D03*
X-11200Y-143100D03*
X-14300Y-143200D03*
X-11900Y-134900D03*
X-11700Y-131700D03*
X-15600Y-133600D03*
X-16300Y-136700D03*
X-12000Y-138400D03*
X-8200Y-132000D03*
Y-137600D03*
Y-143200D03*
X-11500Y-127700D03*
X-15700Y-130100D03*
X-17800Y-123600D03*
X-15200Y-121700D03*
X-17600Y-119600D03*
X-12200Y-118600D03*
X-12000Y-122100D03*
X-15800Y-126000D03*
X-8200Y-120700D03*
Y-126300D03*
X-15600Y-117600D03*
X-12000Y-114100D03*
X-17600Y-111500D03*
X-16900Y-109100D03*
X-17300Y-114200D03*
X-14100Y-110700D03*
X-8200Y-109400D03*
Y-115100D03*
X-14700Y-100700D03*
X-16500Y-102700D03*
X-8700Y-95300D03*
X-10900Y-97000D03*
X-8200Y-92500D03*
Y-98200D03*
Y-103800D03*
X-17200Y-88000D03*
X-16200Y-80900D03*
Y-84800D03*
X-7900Y-86000D03*
X-16200Y-76900D03*
X-18300Y-70100D03*
X-16400Y-72500D03*
X-7900Y-71200D03*
Y-78600D03*
X-16300Y-60300D03*
X-16400Y-64400D03*
X-16500Y-56400D03*
X-7900Y-56500D03*
Y-63800D03*
X-16800Y-47300D03*
X-16600Y-50800D03*
X-7900Y-41700D03*
Y-49100D03*
X-14800Y-40900D03*
X-9800Y-30300D03*
X-10100Y-39100D03*
X-11800Y-36000D03*
X-12000Y-32800D03*
X-12900Y-29500D03*
X-7900Y-34300D03*
X-14800Y-38900D03*
X-10000Y-22900D03*
X-12800Y-25800D03*
X-13400Y-22500D03*
X-15300Y-20100D03*
X-7900Y-19500D03*
Y-26900D03*
X-12300Y-5500D03*
X-15300Y-12700D03*
X-7900Y-4800D03*
Y-12200D03*
Y10000D03*
Y2600D03*
X-18000Y14700D03*
X-12400Y11400D03*
X-15200Y16800D03*
X-7900Y17400D03*
X-15200Y24200D03*
Y31600D03*
X-7900Y32100D03*
Y24700D03*
X-15200Y39000D03*
Y46400D03*
X-7900Y46900D03*
Y39500D03*
X-15200Y53700D03*
Y61100D03*
X-7900Y61700D03*
Y54300D03*
X-15200Y68500D03*
X-7900Y69000D03*
X-15200Y75900D03*
Y83300D03*
X-7900Y83800D03*
Y76400D03*
X-15200Y90600D03*
Y98000D03*
X-7900Y98600D03*
Y91200D03*
X-15300Y112900D03*
Y105500D03*
X-7900Y113300D03*
Y106000D03*
Y120700D03*
Y135500D03*
Y128100D03*
X-16700Y146500D03*
X-11100D03*
X-8200Y150700D03*
X-13900D03*
X-15300Y142600D03*
X-8000D03*
X-13900Y156400D03*
X-8200D03*
G54D20*
G01X-131200Y-61500D02*
Y-66100D01*
X-122800Y-74500D01*
X-119500D01*
G01X-82900Y16500D02*
X-82800Y16400D01*
G54D11*
X-141800Y-133500D03*
G54D21*
G01X-83300Y-38050D02*
X-102500Y-18850D01*
Y-17900D01*
G01X-76500Y-4700D02*
X-78450D01*
X-82400Y-8650D01*
X-94550D01*
X-96000Y-7200D01*
Y3638D01*
G01X-99800Y-10450D02*
X-96850Y-13400D01*
X-89500D01*
G01X-98400Y12650D02*
X-101500D01*
X-103600Y10550D01*
Y3100D01*
X-101200Y700D01*
Y-9050D01*
G01D02*
X-99800Y-10450D01*
G01X-82800Y16400D02*
X-85299D01*
X-93800Y7899D01*
X-99200D01*
G01X-96750Y12650D02*
X-98400D01*
G01X-96750D02*
Y15250D01*
G01X-74300Y21300D02*
X-90700D01*
X-96750Y15250D01*
G01X-83300Y-38050D02*
Y-42000D01*
X-91600Y-50300D01*
Y-54500D01*
X-89900Y-56200D01*
X-82600D01*
X-81919Y-55519D01*
G01X-89500Y-13400D02*
X-80100D01*
X-78200Y-11500D01*
G01X-81919Y-55519D02*
Y-56081D01*
X-81481Y-56519D01*
X-62819D01*
G01X-72119Y19119D02*
X-74300Y21300D01*
G01X-75681Y43419D02*
X-71000Y38738D01*
Y24600D01*
X-74300Y21300D01*
G01X-73114Y11700D02*
X-71214Y13600D01*
X-65300D01*
X-61100Y9400D01*
Y-6550D01*
X-66400Y-11850D01*
G01X-73114Y11700D02*
X-75700D01*
X-80400Y16400D01*
X-82800D01*
G01X-68200Y-11850D02*
X-66400D01*
G01X-51000Y-131000D02*
X-44000Y-124000D01*
Y-107400D01*
X-36100Y-99500D01*
X-33700D01*
X-20900Y-86700D01*
G54D12*
X-141700Y-118000D03*
Y-108000D03*
Y-98000D03*
X-93300Y-38050D03*
X-83300D03*
X-73300D03*
X-63300D03*
X-53300D03*
G54D22*
G01X-100600Y-17900D02*
X-102500D01*
G54D13*
X-131800Y-133500D03*
X-121800D03*
X-111800D03*
X-101800D03*
X-91800D03*
X-81800D03*
X-71800D03*
G54D23*
G01X-57300Y-145100D02*
X-145300D01*
X-151400Y-139000D01*
Y-93000D01*
X-141100Y-82700D01*
Y-74000D01*
G01X-139500Y-73300D02*
X-140400D01*
X-141100Y-74000D01*
G01X-14800Y-40900D02*
X-12571Y-43129D01*
Y-92571D01*
X-24400Y-104400D01*
Y-142100D01*
X-27400Y-145100D01*
X-57300D01*
G01D02*
X-57292Y-145092D01*
Y-143892D01*
G01X-37949Y-113451D02*
Y-132349D01*
G54D14*
X-95898Y132702D03*
Y152702D03*
X-75898Y132702D03*
Y152702D03*
G54D24*
G01X-141800Y-133500D02*
Y-118100D01*
X-141700Y-118000D01*
G01D02*
X-141600Y-117900D01*
X-86500D01*
X-63100Y-94500D01*
Y-68900D01*
X-65150Y-66850D01*
X-80950D01*
G01X-139500Y-73300D02*
X-135800Y-69600D01*
Y-59600D01*
X-133400Y-57200D01*
X-117100D01*
G01X-127400Y-61600D02*
X-123700Y-65300D01*
X-123000D01*
G01X-111400Y-76700D02*
X-110000D01*
G01X-108500D02*
Y-75200D01*
G01D02*
Y-73600D01*
G01X-68000Y-70200D02*
X-87900D01*
X-95800Y-62300D01*
Y-47800D01*
X-101800Y-41800D01*
Y-28485D01*
X-106900Y-23385D01*
Y-7500D01*
X-105000Y-5600D01*
Y-2900D01*
X-106600Y-1300D01*
G01X-98200Y-48800D02*
Y-46815D01*
X-102800Y-42215D01*
Y-28900D01*
X-107900Y-23800D01*
Y-6204D01*
G01X-100600Y43000D02*
X-108400Y35200D01*
Y-1699D01*
X-106600Y-3499D01*
Y-4600D01*
G01X-107431Y39431D02*
X-108200Y38662D01*
Y36815D01*
X-109400Y35615D01*
Y-3000D01*
G01X-93300Y95100D02*
X-95184D01*
X-98200Y92084D01*
Y49300D01*
X-100600Y46900D01*
Y43000D01*
G01D02*
X-87700D01*
X-83200Y47500D01*
X-75600D01*
G01X-107431Y39431D02*
X-106762Y40100D01*
X-104915D01*
X-101600Y43415D01*
Y47315D01*
X-99200Y49715D01*
Y92499D01*
X-94899Y96800D01*
X-80400D01*
X-78700Y95100D01*
G01X-87501Y-52599D02*
X-85402Y-50500D01*
X-75800D01*
X-73300Y-48000D01*
G01X-95257Y-18057D02*
Y-20342D01*
X-84899Y-30700D01*
X-74900D01*
X-73300Y-32300D01*
Y-38050D01*
G01X-93800Y-19600D02*
X-83700Y-29700D01*
X-65400D01*
X-63300Y-31800D01*
Y-38050D01*
G01X-20007Y-53607D02*
X-35293D01*
X-43900Y-45000D01*
Y-31900D01*
X-47100Y-28700D01*
X-82800D01*
X-92300Y-19200D01*
Y-18100D01*
G01X-49700Y-81900D02*
X-50500Y-81100D01*
Y-62899D01*
X-62899Y-50500D01*
X-70800D01*
X-73300Y-48000D01*
G01D02*
Y-38050D01*
G01X-42300Y-44200D02*
X-42900Y-43600D01*
Y-31485D01*
X-46685Y-27700D01*
X-71100D01*
X-73299Y-25501D01*
Y-22499D01*
G01Y-3599D02*
Y-22499D01*
G01X-53460Y-56460D02*
Y-53140D01*
X-63300Y-43300D01*
Y-38050D01*
G01X-50350Y-122000D02*
X-48700Y-120350D01*
Y-105016D01*
X-36684Y-93000D01*
X-33800D01*
X-33000Y-92200D01*
Y-91345D01*
X-33055Y-91290D01*
G01X-50350Y-114000D02*
Y-105251D01*
X-36389Y-91290D01*
X-35025D01*
G01X-53460Y-56460D02*
Y-58524D01*
X-49500Y-62484D01*
Y-79700D01*
X-48000Y-81200D01*
Y-83000D01*
X-49100Y-84100D01*
X-49700D01*
G01X-46700Y-76900D02*
X-45500Y-78100D01*
Y-85200D01*
X-47881Y-87581D01*
G01X-44800Y-49300D02*
Y-75000D01*
X-46700Y-76900D01*
G01X-20900Y-86700D02*
X-18000Y-83800D01*
Y-74000D01*
X-25200Y-66800D01*
G01X-21100Y-79700D02*
X-29215Y-87815D01*
Y-88600D01*
G54D15*
X-85898Y142702D03*
G54D25*
G01X-5760Y-91210D02*
Y145010D01*
Y158759D01*
X-163240D01*
Y145010D01*
Y-91208D01*
X-163243D01*
Y-151452D01*
X-5760D01*
Y-91210D01*
G54D16*
X-32822Y-139908D03*
Y-105892D03*
G54D26*
G01X-138592Y3266D02*
G03I-8858J0D01*
G01Y129250D02*
G03I-8858J0D01*
G01X-12608Y3266D02*
G03I-8858J0D01*
G01Y129250D02*
G03I-8858J0D01*
G54D17*
X-35264Y-35500D03*
Y-25500D03*
G54D18*
X-30853Y-134278D03*
Y-111522D03*
G54D19*
X-16483Y-139908D03*
Y-105892D03*
M02*
