G04 ================== begin FILE IDENTIFICATION RECORD ==================*
G04 Layout Name:  ELRS-TX-MODULE-V13-20260610.brd*
G04 Film Name:    SILKTOP*
G04 File Format:  Gerber RS274X*
G04 File Origin:  Cadence Allegro 16.6-2015-S108*
G04 Origin Date:  Thu Jun 11 13:53:02 2026*
G04 *
G04 Layer:  REF DES/SILKSCREEN_TOP*
G04 Layer:  PACKAGE GEOMETRY/SILKSCREEN_TOP*
G04 Layer:  BOARD GEOMETRY/SILKSCREEN_TOP*
G04 Layer:  BOARD GEOMETRY/OUTLINE*
G04 *
G04 Offset:    (0.00 0.00)*
G04 Mirror:    No*
G04 Mode:      Positive*
G04 Rotation:  0*
G04 FullContactRelief:  No*
G04 UndefLineWidth:     5.00*
G04 ================== end FILE IDENTIFICATION RECORD ====================*
%FSLAX25Y25*MOIN*%
%IR0*IPPOS*OFA0.00000B0.00000*MIA0B0*SFA1.00000B1.00000*%
%ADD10C,.01*%
%ADD11C,.02*%
%ADD12C,.0002*%
%ADD13C,.003*%
%ADD14C,.004*%
%ADD15C,.005*%
%ADD16C,.006*%
%ADD17C,.0063*%
%ADD18C,.00236*%
%ADD19C,.0039*%
%ADD20C,.00591*%
%ADD21C,.00394*%
%ADD22C,.00984*%
%ADD23C,.00598*%
G75*
%LPD*%
G75*
G36*
G01X-134629Y-51560D02*
G03I-1181J0D01*
G37*
G36*
G01X-87819Y85786D02*
G03I-670J0D01*
G37*
G36*
G01X-52479Y-52940D02*
G03I-1181J0D01*
G37*
G36*
G01X-40000Y-21050D02*
Y-41150D01*
X-30600D01*
Y-21050D01*
X-40000D01*
G37*
G54D10*
G01X-146800Y-165780D02*
X-66800D01*
G01X-146800D02*
Y-138220D01*
G01D02*
X-66800D01*
G01X-113200Y49250D02*
Y45870D01*
X-113170Y45900D01*
X-98800D01*
Y47025D01*
G01X-113345Y60825D02*
Y63805D01*
X-113250Y63900D01*
X-98800D01*
X-98790Y63890D01*
Y63010D01*
G01X-66800Y-165780D02*
Y-138220D01*
G01X-43485Y-90480D02*
Y-87920D01*
G01Y-90480D02*
X-40925D01*
G01X-42855Y-78080D02*
Y-75520D01*
G01D02*
X-40295D01*
G01X-31715Y-90480D02*
X-29155D01*
G01D02*
Y-87920D01*
G01X-28525Y-78080D02*
Y-75520D01*
G01X-31085D02*
X-28525D01*
G54D20*
G01X-147700Y-92000D02*
Y-124000D01*
X-135700D01*
Y-92000D01*
X-147700D01*
G54D11*
G01X-40585Y-92340D02*
X-40545Y-92510D01*
G01X-40695Y-92200D02*
X-40585Y-92340D01*
G01X-41295D02*
X-41185Y-92200D01*
G01X-41335Y-92510D02*
X-41295Y-92340D01*
G01X-41335Y-92510D02*
X-41295Y-92680D01*
G01D02*
X-41185Y-92810D01*
G01D02*
X-41025Y-92890D01*
G01D02*
X-40855D01*
G01D02*
X-40695Y-92810D01*
G01D02*
X-40585Y-92680D01*
G01D02*
X-40545Y-92510D01*
G01X-40855Y-92120D02*
X-40695Y-92200D01*
G01X-41025Y-92120D02*
X-40855D01*
G01X-41185Y-92200D02*
X-41025Y-92120D01*
G54D21*
G01X-133699Y-71769D02*
Y-80431D01*
X-121101D01*
Y-71769D01*
X-133699D01*
G01X-51808Y-51497D02*
Y-52648D01*
X-51729Y-52889D01*
X-51571Y-53049D01*
X-51375Y-53103D01*
X-51178Y-53049D01*
X-51020Y-52889D01*
X-50941Y-52648D01*
Y-51497D01*
G01X-49800Y-53103D02*
Y-51497D01*
X-50036Y-51818D01*
G01Y-53103D02*
X-49563D01*
G01X-48658Y-52862D02*
X-48539Y-52996D01*
X-48402Y-53076D01*
X-48225Y-53103D01*
X-48047Y-53049D01*
X-47910Y-52942D01*
X-47811Y-52755D01*
X-47791Y-52541D01*
X-47831Y-52327D01*
X-47929Y-52193D01*
X-48067Y-52086D01*
X-48205Y-52059D01*
X-48343Y-52086D01*
X-48520Y-52193D01*
X-48461Y-51497D01*
X-47929D01*
G54D12*
G01X-115755Y49870D02*
X-115800Y49825D01*
G54D22*
G01X-133643Y-68900D02*
G03I-557J0D01*
G01X-69143Y63100D02*
G03I-557J0D01*
G54D13*
G01X-152800Y-144750D02*
X-152675Y-144900D01*
X-152525Y-145000D01*
X-152350Y-145050D01*
X-152150Y-145000D01*
X-152000Y-144900D01*
X-151850Y-144750D01*
X-151800Y-144550D01*
Y-143550D01*
G01X-150700Y-145050D02*
Y-143550D01*
X-151000Y-143850D01*
G01Y-145050D02*
X-150400D01*
G01X-149650Y-144750D02*
X-149500Y-144925D01*
X-149300Y-145025D01*
X-149075Y-145050D01*
X-148875Y-145025D01*
X-148675Y-144900D01*
X-148550Y-144750D01*
X-148525Y-144600D01*
X-148575Y-144425D01*
X-148750Y-144300D01*
X-148925Y-144250D01*
X-149150D01*
G01X-148925D02*
X-148775Y-144175D01*
X-148650Y-144050D01*
X-148600Y-143900D01*
X-148650Y-143750D01*
X-148775Y-143625D01*
X-149000Y-143550D01*
X-149225Y-143575D01*
X-149450Y-143675D01*
G01X-151500Y-93550D02*
X-151375Y-93700D01*
X-151225Y-93800D01*
X-151050Y-93850D01*
X-150850Y-93800D01*
X-150700Y-93700D01*
X-150550Y-93550D01*
X-150500Y-93350D01*
Y-92350D01*
G01X-149950Y-93625D02*
X-149800Y-93750D01*
X-149625Y-93825D01*
X-149400Y-93850D01*
X-149175Y-93800D01*
X-149000Y-93700D01*
X-148875Y-93525D01*
X-148850Y-93325D01*
X-148900Y-93125D01*
X-149025Y-93000D01*
X-149200Y-92900D01*
X-149375Y-92875D01*
X-149550Y-92900D01*
X-149775Y-93000D01*
X-149700Y-92350D01*
X-149025D01*
G01X-142225Y-79650D02*
X-142300Y-79800D01*
X-142350Y-79975D01*
Y-80175D01*
X-142275Y-80400D01*
X-142150Y-80575D01*
X-142000Y-80700D01*
X-141750Y-80800D01*
X-141525Y-80825D01*
X-141300Y-80775D01*
X-141150Y-80700D01*
X-141000Y-80550D01*
X-140900Y-80375D01*
X-140850Y-80200D01*
Y-80025D01*
X-140900Y-79850D01*
X-140975Y-79700D01*
X-141075Y-79575D01*
G01X-140850Y-78600D02*
X-142350D01*
X-142050Y-78900D01*
G01X-140850D02*
Y-78300D01*
G01X-141075Y-77550D02*
X-140950Y-77400D01*
X-140875Y-77225D01*
X-140850Y-77000D01*
X-140900Y-76775D01*
X-141000Y-76600D01*
X-141175Y-76475D01*
X-141375Y-76450D01*
X-141575Y-76500D01*
X-141700Y-76625D01*
X-141800Y-76800D01*
X-141825Y-76975D01*
X-141800Y-77150D01*
X-141700Y-77375D01*
X-142350Y-77300D01*
Y-76625D01*
G01Y-75400D02*
X-142300Y-75600D01*
X-142175Y-75750D01*
X-142025Y-75850D01*
X-141825Y-75925D01*
X-141600Y-75950D01*
X-141375Y-75925D01*
X-141175Y-75850D01*
X-141025Y-75750D01*
X-140900Y-75600D01*
X-140850Y-75400D01*
X-140900Y-75200D01*
X-141025Y-75050D01*
X-141175Y-74950D01*
X-141375Y-74875D01*
X-141600Y-74850D01*
X-141825Y-74875D01*
X-142025Y-74950D01*
X-142175Y-75050D01*
X-142300Y-75200D01*
X-142350Y-75400D01*
G01X-144725Y-79650D02*
X-144800Y-79800D01*
X-144850Y-79975D01*
Y-80175D01*
X-144775Y-80400D01*
X-144650Y-80575D01*
X-144500Y-80700D01*
X-144250Y-80800D01*
X-144025Y-80825D01*
X-143800Y-80775D01*
X-143650Y-80700D01*
X-143500Y-80550D01*
X-143400Y-80375D01*
X-143350Y-80200D01*
Y-80025D01*
X-143400Y-79850D01*
X-143475Y-79700D01*
X-143575Y-79575D01*
G01X-143975Y-79075D02*
X-144150Y-78900D01*
X-144250Y-78750D01*
X-144300Y-78550D01*
X-144250Y-78375D01*
X-144150Y-78250D01*
X-144000Y-78150D01*
X-143825Y-78125D01*
X-143675Y-78150D01*
X-143525Y-78250D01*
X-143400Y-78400D01*
X-143350Y-78575D01*
X-143400Y-78775D01*
X-143550Y-78950D01*
X-143775Y-79050D01*
X-144025Y-79075D01*
X-144350Y-79025D01*
X-144525Y-78950D01*
X-144700Y-78825D01*
X-144825Y-78650D01*
X-144850Y-78475D01*
X-144800Y-78300D01*
X-144675Y-78175D01*
G01X-143650Y-77550D02*
X-143475Y-77400D01*
X-143375Y-77200D01*
X-143350Y-76975D01*
X-143375Y-76775D01*
X-143500Y-76575D01*
X-143650Y-76450D01*
X-143800Y-76425D01*
X-143975Y-76475D01*
X-144100Y-76650D01*
X-144150Y-76825D01*
Y-77050D01*
G01Y-76825D02*
X-144225Y-76675D01*
X-144350Y-76550D01*
X-144500Y-76500D01*
X-144650Y-76550D01*
X-144775Y-76675D01*
X-144850Y-76900D01*
X-144825Y-77125D01*
X-144725Y-77350D01*
G01X-144625Y-72750D02*
X-144700Y-72900D01*
X-144750Y-73075D01*
Y-73275D01*
X-144675Y-73500D01*
X-144550Y-73675D01*
X-144400Y-73800D01*
X-144150Y-73900D01*
X-143925Y-73925D01*
X-143700Y-73875D01*
X-143550Y-73800D01*
X-143400Y-73650D01*
X-143300Y-73475D01*
X-143250Y-73300D01*
Y-73125D01*
X-143300Y-72950D01*
X-143375Y-72800D01*
X-143475Y-72675D01*
G01X-143875Y-72175D02*
X-144050Y-72000D01*
X-144150Y-71850D01*
X-144200Y-71650D01*
X-144150Y-71475D01*
X-144050Y-71350D01*
X-143900Y-71250D01*
X-143725Y-71225D01*
X-143575Y-71250D01*
X-143425Y-71350D01*
X-143300Y-71500D01*
X-143250Y-71675D01*
X-143300Y-71875D01*
X-143450Y-72050D01*
X-143675Y-72150D01*
X-143925Y-72175D01*
X-144250Y-72125D01*
X-144425Y-72050D01*
X-144600Y-71925D01*
X-144725Y-71750D01*
X-144750Y-71575D01*
X-144700Y-71400D01*
X-144575Y-71275D01*
G01X-143250Y-70150D02*
X-143575Y-70100D01*
X-143850Y-70025D01*
X-144100Y-69925D01*
X-144375Y-69800D01*
X-144750Y-69600D01*
Y-70600D01*
G01X-142225Y-72850D02*
X-142300Y-73000D01*
X-142350Y-73175D01*
Y-73375D01*
X-142275Y-73600D01*
X-142150Y-73775D01*
X-142000Y-73900D01*
X-141750Y-74000D01*
X-141525Y-74025D01*
X-141300Y-73975D01*
X-141150Y-73900D01*
X-141000Y-73750D01*
X-140900Y-73575D01*
X-140850Y-73400D01*
Y-73225D01*
X-140900Y-73050D01*
X-140975Y-72900D01*
X-141075Y-72775D01*
G01X-142100Y-72275D02*
X-142250Y-72125D01*
X-142325Y-71950D01*
X-142350Y-71750D01*
X-142300Y-71500D01*
X-142175Y-71325D01*
X-142025Y-71275D01*
X-141875Y-71300D01*
X-141750Y-71400D01*
X-141500Y-71900D01*
X-141325Y-72125D01*
X-141075Y-72275D01*
X-140850Y-72325D01*
Y-71275D01*
G01Y-70200D02*
X-142350D01*
X-142050Y-70500D01*
G01X-140850D02*
Y-69900D01*
G01X-141475Y-69075D02*
X-141650Y-68900D01*
X-141750Y-68750D01*
X-141800Y-68550D01*
X-141750Y-68375D01*
X-141650Y-68250D01*
X-141500Y-68150D01*
X-141325Y-68125D01*
X-141175Y-68150D01*
X-141025Y-68250D01*
X-140900Y-68400D01*
X-140850Y-68575D01*
X-140900Y-68775D01*
X-141050Y-68950D01*
X-141275Y-69050D01*
X-141525Y-69075D01*
X-141850Y-69025D01*
X-142025Y-68950D01*
X-142200Y-68825D01*
X-142325Y-68650D01*
X-142350Y-68475D01*
X-142300Y-68300D01*
X-142175Y-68175D01*
G01X-142150Y-55500D02*
X-142225Y-55400D01*
X-142350Y-55325D01*
X-142525Y-55275D01*
X-142675Y-55325D01*
X-142775Y-55425D01*
X-142850Y-55600D01*
Y-56275D01*
X-141350D01*
Y-55450D01*
X-141450Y-55275D01*
X-141600Y-55175D01*
X-141775Y-55125D01*
X-141950Y-55175D01*
X-142100Y-55325D01*
X-142150Y-55500D01*
Y-56275D01*
G01X-141350Y-54100D02*
X-142850D01*
X-142550Y-54400D01*
G01X-141350D02*
Y-53800D01*
G01Y-52500D02*
X-142850D01*
X-142550Y-52800D01*
G01X-141350D02*
Y-52200D01*
G01X-137050Y-67450D02*
X-135975D01*
X-135750Y-67350D01*
X-135600Y-67150D01*
X-135550Y-66900D01*
X-135600Y-66650D01*
X-135750Y-66450D01*
X-135975Y-66350D01*
X-137050D01*
G01X-135550Y-65350D02*
X-135875Y-65300D01*
X-136150Y-65225D01*
X-136400Y-65125D01*
X-136675Y-65000D01*
X-137050Y-64800D01*
Y-65800D01*
G01X-142425Y-42650D02*
X-142500Y-42800D01*
X-142550Y-42975D01*
Y-43175D01*
X-142475Y-43400D01*
X-142350Y-43575D01*
X-142200Y-43700D01*
X-141950Y-43800D01*
X-141725Y-43825D01*
X-141500Y-43775D01*
X-141350Y-43700D01*
X-141200Y-43550D01*
X-141100Y-43375D01*
X-141050Y-43200D01*
Y-43025D01*
X-141100Y-42850D01*
X-141175Y-42700D01*
X-141275Y-42575D01*
G01X-142300Y-42075D02*
X-142450Y-41925D01*
X-142525Y-41750D01*
X-142550Y-41550D01*
X-142500Y-41300D01*
X-142375Y-41125D01*
X-142225Y-41075D01*
X-142075Y-41100D01*
X-141950Y-41200D01*
X-141700Y-41700D01*
X-141525Y-41925D01*
X-141275Y-42075D01*
X-141050Y-42125D01*
Y-41075D01*
G01X-142550Y-40000D02*
X-142500Y-40200D01*
X-142375Y-40350D01*
X-142225Y-40450D01*
X-142025Y-40525D01*
X-141800Y-40550D01*
X-141575Y-40525D01*
X-141375Y-40450D01*
X-141225Y-40350D01*
X-141100Y-40200D01*
X-141050Y-40000D01*
X-141100Y-39800D01*
X-141225Y-39650D01*
X-141375Y-39550D01*
X-141575Y-39475D01*
X-141800Y-39450D01*
X-142025Y-39475D01*
X-142225Y-39550D01*
X-142375Y-39650D01*
X-142500Y-39800D01*
X-142550Y-40000D01*
G01X-141675Y-38875D02*
X-141850Y-38700D01*
X-141950Y-38550D01*
X-142000Y-38350D01*
X-141950Y-38175D01*
X-141850Y-38050D01*
X-141700Y-37950D01*
X-141525Y-37925D01*
X-141375Y-37950D01*
X-141225Y-38050D01*
X-141100Y-38200D01*
X-141050Y-38375D01*
X-141100Y-38575D01*
X-141250Y-38750D01*
X-141475Y-38850D01*
X-141725Y-38875D01*
X-142050Y-38825D01*
X-142225Y-38750D01*
X-142400Y-38625D01*
X-142525Y-38450D01*
X-142550Y-38275D01*
X-142500Y-38100D01*
X-142375Y-37975D01*
G01X-142525Y-49550D02*
X-142600Y-49700D01*
X-142650Y-49875D01*
Y-50075D01*
X-142575Y-50300D01*
X-142450Y-50475D01*
X-142300Y-50600D01*
X-142050Y-50700D01*
X-141825Y-50725D01*
X-141600Y-50675D01*
X-141450Y-50600D01*
X-141300Y-50450D01*
X-141200Y-50275D01*
X-141150Y-50100D01*
Y-49925D01*
X-141200Y-49750D01*
X-141275Y-49600D01*
X-141375Y-49475D01*
G01X-142400Y-48975D02*
X-142550Y-48825D01*
X-142625Y-48650D01*
X-142650Y-48450D01*
X-142600Y-48200D01*
X-142475Y-48025D01*
X-142325Y-47975D01*
X-142175Y-48000D01*
X-142050Y-48100D01*
X-141800Y-48600D01*
X-141625Y-48825D01*
X-141375Y-48975D01*
X-141150Y-49025D01*
Y-47975D01*
G01X-142650Y-46900D02*
X-142600Y-47100D01*
X-142475Y-47250D01*
X-142325Y-47350D01*
X-142125Y-47425D01*
X-141900Y-47450D01*
X-141675Y-47425D01*
X-141475Y-47350D01*
X-141325Y-47250D01*
X-141200Y-47100D01*
X-141150Y-46900D01*
X-141200Y-46700D01*
X-141325Y-46550D01*
X-141475Y-46450D01*
X-141675Y-46375D01*
X-141900Y-46350D01*
X-142125Y-46375D01*
X-142325Y-46450D01*
X-142475Y-46550D01*
X-142600Y-46700D01*
X-142650Y-46900D01*
G01X-141150Y-45300D02*
X-141175Y-45125D01*
X-141250Y-44925D01*
X-141375Y-44800D01*
X-141550Y-44750D01*
X-141725Y-44800D01*
X-141875Y-44950D01*
X-141950Y-45175D01*
Y-45425D01*
X-142000Y-45575D01*
X-142125Y-45700D01*
X-142300Y-45750D01*
X-142475Y-45675D01*
X-142600Y-45500D01*
X-142650Y-45300D01*
X-142600Y-45100D01*
X-142475Y-44925D01*
X-142300Y-44850D01*
X-142125Y-44900D01*
X-142000Y-45025D01*
X-141950Y-45175D01*
Y-45425D01*
X-141875Y-45650D01*
X-141725Y-45800D01*
X-141550Y-45850D01*
X-141375Y-45800D01*
X-141250Y-45675D01*
X-141175Y-45475D01*
X-141150Y-45300D01*
G01X-144925Y-49550D02*
X-145000Y-49700D01*
X-145050Y-49875D01*
Y-50075D01*
X-144975Y-50300D01*
X-144850Y-50475D01*
X-144700Y-50600D01*
X-144450Y-50700D01*
X-144225Y-50725D01*
X-144000Y-50675D01*
X-143850Y-50600D01*
X-143700Y-50450D01*
X-143600Y-50275D01*
X-143550Y-50100D01*
Y-49925D01*
X-143600Y-49750D01*
X-143675Y-49600D01*
X-143775Y-49475D01*
G01X-144800Y-48975D02*
X-144950Y-48825D01*
X-145025Y-48650D01*
X-145050Y-48450D01*
X-145000Y-48200D01*
X-144875Y-48025D01*
X-144725Y-47975D01*
X-144575Y-48000D01*
X-144450Y-48100D01*
X-144200Y-48600D01*
X-144025Y-48825D01*
X-143775Y-48975D01*
X-143550Y-49025D01*
Y-47975D01*
G01X-145050Y-46900D02*
X-145000Y-47100D01*
X-144875Y-47250D01*
X-144725Y-47350D01*
X-144525Y-47425D01*
X-144300Y-47450D01*
X-144075Y-47425D01*
X-143875Y-47350D01*
X-143725Y-47250D01*
X-143600Y-47100D01*
X-143550Y-46900D01*
X-143600Y-46700D01*
X-143725Y-46550D01*
X-143875Y-46450D01*
X-144075Y-46375D01*
X-144300Y-46350D01*
X-144525Y-46375D01*
X-144725Y-46450D01*
X-144875Y-46550D01*
X-145000Y-46700D01*
X-145050Y-46900D01*
G01X-143550Y-45350D02*
X-143875Y-45300D01*
X-144150Y-45225D01*
X-144400Y-45125D01*
X-144675Y-45000D01*
X-145050Y-44800D01*
Y-45800D01*
G01X-144925Y-42650D02*
X-145000Y-42800D01*
X-145050Y-42975D01*
Y-43175D01*
X-144975Y-43400D01*
X-144850Y-43575D01*
X-144700Y-43700D01*
X-144450Y-43800D01*
X-144225Y-43825D01*
X-144000Y-43775D01*
X-143850Y-43700D01*
X-143700Y-43550D01*
X-143600Y-43375D01*
X-143550Y-43200D01*
Y-43025D01*
X-143600Y-42850D01*
X-143675Y-42700D01*
X-143775Y-42575D01*
G01X-144800Y-42075D02*
X-144950Y-41925D01*
X-145025Y-41750D01*
X-145050Y-41550D01*
X-145000Y-41300D01*
X-144875Y-41125D01*
X-144725Y-41075D01*
X-144575Y-41100D01*
X-144450Y-41200D01*
X-144200Y-41700D01*
X-144025Y-41925D01*
X-143775Y-42075D01*
X-143550Y-42125D01*
Y-41075D01*
G01X-145050Y-40000D02*
X-145000Y-40200D01*
X-144875Y-40350D01*
X-144725Y-40450D01*
X-144525Y-40525D01*
X-144300Y-40550D01*
X-144075Y-40525D01*
X-143875Y-40450D01*
X-143725Y-40350D01*
X-143600Y-40200D01*
X-143550Y-40000D01*
X-143600Y-39800D01*
X-143725Y-39650D01*
X-143875Y-39550D01*
X-144075Y-39475D01*
X-144300Y-39450D01*
X-144525Y-39475D01*
X-144725Y-39550D01*
X-144875Y-39650D01*
X-145000Y-39800D01*
X-145050Y-40000D01*
G01X-143775Y-38950D02*
X-143650Y-38800D01*
X-143575Y-38625D01*
X-143550Y-38400D01*
X-143600Y-38175D01*
X-143700Y-38000D01*
X-143875Y-37875D01*
X-144075Y-37850D01*
X-144275Y-37900D01*
X-144400Y-38025D01*
X-144500Y-38200D01*
X-144525Y-38375D01*
X-144500Y-38550D01*
X-144400Y-38775D01*
X-145050Y-38700D01*
Y-38025D01*
G01X-129600Y-81350D02*
Y-82850D01*
X-128600D01*
G01X-127500D02*
Y-81350D01*
X-127800Y-81650D01*
G01Y-82850D02*
X-127200D01*
G01X-125900D02*
Y-81350D01*
X-126200Y-81650D01*
G01Y-82850D02*
X-125600D01*
G01X-133950Y-52550D02*
Y-53625D01*
X-133850Y-53850D01*
X-133650Y-54000D01*
X-133400Y-54050D01*
X-133150Y-54000D01*
X-132950Y-53850D01*
X-132850Y-53625D01*
Y-52550D01*
G01X-131800Y-54050D02*
Y-52550D01*
X-132100Y-52850D01*
G01Y-54050D02*
X-131500D01*
G01X-130200Y-52550D02*
X-130400Y-52600D01*
X-130550Y-52725D01*
X-130650Y-52875D01*
X-130725Y-53075D01*
X-130750Y-53300D01*
X-130725Y-53525D01*
X-130650Y-53725D01*
X-130550Y-53875D01*
X-130400Y-54000D01*
X-130200Y-54050D01*
X-130000Y-54000D01*
X-129850Y-53875D01*
X-129750Y-53725D01*
X-129675Y-53525D01*
X-129650Y-53300D01*
X-129675Y-53075D01*
X-129750Y-52875D01*
X-129850Y-52725D01*
X-130000Y-52600D01*
X-130200Y-52550D01*
G01X-117900Y-99850D02*
X-118100Y-99825D01*
X-118275Y-99725D01*
X-118425Y-99575D01*
X-118525Y-99400D01*
X-118575Y-99200D01*
Y-99000D01*
X-118525Y-98800D01*
X-118425Y-98625D01*
X-118275Y-98475D01*
X-118100Y-98375D01*
X-117900Y-98350D01*
X-117700Y-98375D01*
X-117525Y-98475D01*
X-117375Y-98625D01*
X-117275Y-98800D01*
X-117225Y-99000D01*
Y-99200D01*
X-117275Y-99400D01*
X-117375Y-99575D01*
X-117525Y-99725D01*
X-117700Y-99825D01*
X-117900Y-99850D01*
G01X-117700Y-99450D02*
X-117400Y-99850D01*
G01X-116300D02*
Y-98350D01*
X-116600Y-98650D01*
G01Y-99850D02*
X-116000D01*
G01X-116125Y-82050D02*
X-116200Y-82200D01*
X-116250Y-82375D01*
Y-82575D01*
X-116175Y-82800D01*
X-116050Y-82975D01*
X-115900Y-83100D01*
X-115650Y-83200D01*
X-115425Y-83225D01*
X-115200Y-83175D01*
X-115050Y-83100D01*
X-114900Y-82950D01*
X-114800Y-82775D01*
X-114750Y-82600D01*
Y-82425D01*
X-114800Y-82250D01*
X-114875Y-82100D01*
X-114975Y-81975D01*
G01X-115375Y-81475D02*
X-115550Y-81300D01*
X-115650Y-81150D01*
X-115700Y-80950D01*
X-115650Y-80775D01*
X-115550Y-80650D01*
X-115400Y-80550D01*
X-115225Y-80525D01*
X-115075Y-80550D01*
X-114925Y-80650D01*
X-114800Y-80800D01*
X-114750Y-80975D01*
X-114800Y-81175D01*
X-114950Y-81350D01*
X-115175Y-81450D01*
X-115425Y-81475D01*
X-115750Y-81425D01*
X-115925Y-81350D01*
X-116100Y-81225D01*
X-116225Y-81050D01*
X-116250Y-80875D01*
X-116200Y-80700D01*
X-116075Y-80575D01*
G01X-114750Y-79100D02*
X-116250D01*
X-115175Y-80025D01*
Y-78775D01*
G01X-120025Y-83950D02*
X-120100Y-84100D01*
X-120150Y-84275D01*
Y-84475D01*
X-120075Y-84700D01*
X-119950Y-84875D01*
X-119800Y-85000D01*
X-119550Y-85100D01*
X-119325Y-85125D01*
X-119100Y-85075D01*
X-118950Y-85000D01*
X-118800Y-84850D01*
X-118700Y-84675D01*
X-118650Y-84500D01*
Y-84325D01*
X-118700Y-84150D01*
X-118775Y-84000D01*
X-118875Y-83875D01*
G01X-119275Y-83375D02*
X-119450Y-83200D01*
X-119550Y-83050D01*
X-119600Y-82850D01*
X-119550Y-82675D01*
X-119450Y-82550D01*
X-119300Y-82450D01*
X-119125Y-82425D01*
X-118975Y-82450D01*
X-118825Y-82550D01*
X-118700Y-82700D01*
X-118650Y-82875D01*
X-118700Y-83075D01*
X-118850Y-83250D01*
X-119075Y-83350D01*
X-119325Y-83375D01*
X-119650Y-83325D01*
X-119825Y-83250D01*
X-120000Y-83125D01*
X-120125Y-82950D01*
X-120150Y-82775D01*
X-120100Y-82600D01*
X-119975Y-82475D01*
G01X-119275Y-81775D02*
X-119450Y-81600D01*
X-119550Y-81450D01*
X-119600Y-81250D01*
X-119550Y-81075D01*
X-119450Y-80950D01*
X-119300Y-80850D01*
X-119125Y-80825D01*
X-118975Y-80850D01*
X-118825Y-80950D01*
X-118700Y-81100D01*
X-118650Y-81275D01*
X-118700Y-81475D01*
X-118850Y-81650D01*
X-119075Y-81750D01*
X-119325Y-81775D01*
X-119650Y-81725D01*
X-119825Y-81650D01*
X-120000Y-81525D01*
X-120125Y-81350D01*
X-120150Y-81175D01*
X-120100Y-81000D01*
X-119975Y-80875D01*
G01X-110950Y-78600D02*
X-111025Y-78500D01*
X-111150Y-78425D01*
X-111325Y-78375D01*
X-111475Y-78425D01*
X-111575Y-78525D01*
X-111650Y-78700D01*
Y-79375D01*
X-110150D01*
Y-78550D01*
X-110250Y-78375D01*
X-110400Y-78275D01*
X-110575Y-78225D01*
X-110750Y-78275D01*
X-110900Y-78425D01*
X-110950Y-78600D01*
Y-79375D01*
G01X-110325Y-77625D02*
X-110200Y-77450D01*
X-110150Y-77250D01*
X-110200Y-77050D01*
X-110350Y-76875D01*
X-110575Y-76750D01*
X-110800Y-76700D01*
X-111075D01*
X-111300Y-76750D01*
X-111500Y-76875D01*
X-111600Y-77025D01*
X-111650Y-77200D01*
X-111600Y-77400D01*
X-111500Y-77550D01*
X-111350Y-77650D01*
X-111150Y-77700D01*
X-110975Y-77650D01*
X-110800Y-77525D01*
X-110700Y-77375D01*
X-110675Y-77200D01*
X-110725Y-77000D01*
X-110850Y-76850D01*
X-111075Y-76700D01*
G01X-119925Y-66650D02*
X-120000Y-66800D01*
X-120050Y-66975D01*
Y-67175D01*
X-119975Y-67400D01*
X-119850Y-67575D01*
X-119700Y-67700D01*
X-119450Y-67800D01*
X-119225Y-67825D01*
X-119000Y-67775D01*
X-118850Y-67700D01*
X-118700Y-67550D01*
X-118600Y-67375D01*
X-118550Y-67200D01*
Y-67025D01*
X-118600Y-66850D01*
X-118675Y-66700D01*
X-118775Y-66575D01*
G01X-119175Y-66075D02*
X-119350Y-65900D01*
X-119450Y-65750D01*
X-119500Y-65550D01*
X-119450Y-65375D01*
X-119350Y-65250D01*
X-119200Y-65150D01*
X-119025Y-65125D01*
X-118875Y-65150D01*
X-118725Y-65250D01*
X-118600Y-65400D01*
X-118550Y-65575D01*
X-118600Y-65775D01*
X-118750Y-65950D01*
X-118975Y-66050D01*
X-119225Y-66075D01*
X-119550Y-66025D01*
X-119725Y-65950D01*
X-119900Y-65825D01*
X-120025Y-65650D01*
X-120050Y-65475D01*
X-120000Y-65300D01*
X-119875Y-65175D01*
G01X-118775Y-64550D02*
X-118650Y-64400D01*
X-118575Y-64225D01*
X-118550Y-64000D01*
X-118600Y-63775D01*
X-118700Y-63600D01*
X-118875Y-63475D01*
X-119075Y-63450D01*
X-119275Y-63500D01*
X-119400Y-63625D01*
X-119500Y-63800D01*
X-119525Y-63975D01*
X-119500Y-64150D01*
X-119400Y-64375D01*
X-120050Y-64300D01*
Y-63625D01*
G01X-112125Y-60250D02*
X-112200Y-60400D01*
X-112250Y-60575D01*
Y-60775D01*
X-112175Y-61000D01*
X-112050Y-61175D01*
X-111900Y-61300D01*
X-111650Y-61400D01*
X-111425Y-61425D01*
X-111200Y-61375D01*
X-111050Y-61300D01*
X-110900Y-61150D01*
X-110800Y-60975D01*
X-110750Y-60800D01*
Y-60625D01*
X-110800Y-60450D01*
X-110875Y-60300D01*
X-110975Y-60175D01*
G01X-110750Y-59200D02*
X-112250D01*
X-111950Y-59500D01*
G01X-110750D02*
Y-58900D01*
G01X-110925Y-58025D02*
X-110800Y-57850D01*
X-110750Y-57650D01*
X-110800Y-57450D01*
X-110950Y-57275D01*
X-111175Y-57150D01*
X-111400Y-57100D01*
X-111675D01*
X-111900Y-57150D01*
X-112100Y-57275D01*
X-112200Y-57425D01*
X-112250Y-57600D01*
X-112200Y-57800D01*
X-112100Y-57950D01*
X-111950Y-58050D01*
X-111750Y-58100D01*
X-111575Y-58050D01*
X-111400Y-57925D01*
X-111300Y-57775D01*
X-111275Y-57600D01*
X-111325Y-57400D01*
X-111450Y-57250D01*
X-111675Y-57100D01*
G01X-110750Y-56000D02*
X-110775Y-55825D01*
X-110850Y-55625D01*
X-110975Y-55500D01*
X-111150Y-55450D01*
X-111325Y-55500D01*
X-111475Y-55650D01*
X-111550Y-55875D01*
Y-56125D01*
X-111600Y-56275D01*
X-111725Y-56400D01*
X-111900Y-56450D01*
X-112075Y-56375D01*
X-112200Y-56200D01*
X-112250Y-56000D01*
X-112200Y-55800D01*
X-112075Y-55625D01*
X-111900Y-55550D01*
X-111725Y-55600D01*
X-111600Y-55725D01*
X-111550Y-55875D01*
Y-56125D01*
X-111475Y-56350D01*
X-111325Y-56500D01*
X-111150Y-56550D01*
X-110975Y-56500D01*
X-110850Y-56375D01*
X-110775Y-56175D01*
X-110750Y-56000D01*
G01X-117000Y-55550D02*
Y-54050D01*
X-116375D01*
X-116175Y-54125D01*
X-116050Y-54225D01*
X-116000Y-54425D01*
X-116050Y-54625D01*
X-116200Y-54750D01*
X-116375Y-54825D01*
X-117000D01*
G01X-116375D02*
X-116000Y-55550D01*
G01X-115375Y-54300D02*
X-115225Y-54150D01*
X-115050Y-54075D01*
X-114850Y-54050D01*
X-114600Y-54100D01*
X-114425Y-54225D01*
X-114375Y-54375D01*
X-114400Y-54525D01*
X-114500Y-54650D01*
X-115000Y-54900D01*
X-115225Y-55075D01*
X-115375Y-55325D01*
X-115425Y-55550D01*
X-114375D01*
G01X-113300D02*
X-113125Y-55525D01*
X-112925Y-55450D01*
X-112800Y-55325D01*
X-112750Y-55150D01*
X-112800Y-54975D01*
X-112950Y-54825D01*
X-113175Y-54750D01*
X-113425D01*
X-113575Y-54700D01*
X-113700Y-54575D01*
X-113750Y-54400D01*
X-113675Y-54225D01*
X-113500Y-54100D01*
X-113300Y-54050D01*
X-113100Y-54100D01*
X-112925Y-54225D01*
X-112850Y-54400D01*
X-112900Y-54575D01*
X-113025Y-54700D01*
X-113175Y-54750D01*
X-113425D01*
X-113650Y-54825D01*
X-113800Y-54975D01*
X-113850Y-55150D01*
X-113800Y-55325D01*
X-113675Y-55450D01*
X-113475Y-55525D01*
X-113300Y-55550D01*
G01X-117100Y-57750D02*
Y-56250D01*
X-116475D01*
X-116275Y-56325D01*
X-116150Y-56425D01*
X-116100Y-56625D01*
X-116150Y-56825D01*
X-116300Y-56950D01*
X-116475Y-57025D01*
X-117100D01*
G01X-116475D02*
X-116100Y-57750D01*
G01X-115475Y-56500D02*
X-115325Y-56350D01*
X-115150Y-56275D01*
X-114950Y-56250D01*
X-114700Y-56300D01*
X-114525Y-56425D01*
X-114475Y-56575D01*
X-114500Y-56725D01*
X-114600Y-56850D01*
X-115100Y-57100D01*
X-115325Y-57275D01*
X-115475Y-57525D01*
X-115525Y-57750D01*
X-114475D01*
G01X-113450D02*
X-113400Y-57425D01*
X-113325Y-57150D01*
X-113225Y-56900D01*
X-113100Y-56625D01*
X-112900Y-56250D01*
X-113900D01*
G01X-109825Y-60350D02*
X-109900Y-60500D01*
X-109950Y-60675D01*
Y-60875D01*
X-109875Y-61100D01*
X-109750Y-61275D01*
X-109600Y-61400D01*
X-109350Y-61500D01*
X-109125Y-61525D01*
X-108900Y-61475D01*
X-108750Y-61400D01*
X-108600Y-61250D01*
X-108500Y-61075D01*
X-108450Y-60900D01*
Y-60725D01*
X-108500Y-60550D01*
X-108575Y-60400D01*
X-108675Y-60275D01*
G01X-109700Y-59775D02*
X-109850Y-59625D01*
X-109925Y-59450D01*
X-109950Y-59250D01*
X-109900Y-59000D01*
X-109775Y-58825D01*
X-109625Y-58775D01*
X-109475Y-58800D01*
X-109350Y-58900D01*
X-109100Y-59400D01*
X-108925Y-59625D01*
X-108675Y-59775D01*
X-108450Y-59825D01*
Y-58775D01*
G01Y-57700D02*
X-109950D01*
X-109650Y-58000D01*
G01X-108450D02*
Y-57400D01*
G01X-108675Y-56650D02*
X-108550Y-56500D01*
X-108475Y-56325D01*
X-108450Y-56100D01*
X-108500Y-55875D01*
X-108600Y-55700D01*
X-108775Y-55575D01*
X-108975Y-55550D01*
X-109175Y-55600D01*
X-109300Y-55725D01*
X-109400Y-55900D01*
X-109425Y-56075D01*
X-109400Y-56250D01*
X-109300Y-56475D01*
X-109950Y-56400D01*
Y-55725D01*
G01X-109049Y7900D02*
X-108949Y7975D01*
X-108874Y8100D01*
X-108824Y8275D01*
X-108874Y8425D01*
X-108974Y8525D01*
X-109149Y8600D01*
X-109824D01*
Y7100D01*
X-108999D01*
X-108824Y7200D01*
X-108724Y7350D01*
X-108674Y7525D01*
X-108724Y7700D01*
X-108874Y7850D01*
X-109049Y7900D01*
X-109824D01*
G01X-108199Y7325D02*
X-108049Y7200D01*
X-107874Y7125D01*
X-107649Y7100D01*
X-107424Y7150D01*
X-107249Y7250D01*
X-107124Y7425D01*
X-107099Y7625D01*
X-107149Y7825D01*
X-107274Y7950D01*
X-107449Y8050D01*
X-107624Y8075D01*
X-107799Y8050D01*
X-108024Y7950D01*
X-107949Y8600D01*
X-107274D01*
G01X-108799Y6275D02*
X-108949Y6350D01*
X-109124Y6400D01*
X-109324D01*
X-109549Y6325D01*
X-109724Y6200D01*
X-109849Y6050D01*
X-109949Y5800D01*
X-109974Y5575D01*
X-109924Y5350D01*
X-109849Y5200D01*
X-109699Y5050D01*
X-109524Y4950D01*
X-109349Y4900D01*
X-109174D01*
X-108999Y4950D01*
X-108849Y5025D01*
X-108724Y5125D01*
G01X-107749Y4900D02*
Y6400D01*
X-108049Y6100D01*
G01Y4900D02*
X-107449D01*
G01X-106624Y6150D02*
X-106474Y6300D01*
X-106299Y6375D01*
X-106099Y6400D01*
X-105849Y6350D01*
X-105674Y6225D01*
X-105624Y6075D01*
X-105649Y5925D01*
X-105749Y5800D01*
X-106249Y5550D01*
X-106474Y5375D01*
X-106624Y5125D01*
X-106674Y4900D01*
X-105624D01*
G01X-108799Y4225D02*
X-108949Y4300D01*
X-109124Y4350D01*
X-109324D01*
X-109549Y4275D01*
X-109724Y4150D01*
X-109849Y4000D01*
X-109949Y3750D01*
X-109974Y3525D01*
X-109924Y3300D01*
X-109849Y3150D01*
X-109699Y3000D01*
X-109524Y2900D01*
X-109349Y2850D01*
X-109174D01*
X-108999Y2900D01*
X-108849Y2975D01*
X-108724Y3075D01*
G01X-107749Y2850D02*
Y4350D01*
X-108049Y4050D01*
G01Y2850D02*
X-107449D01*
G01X-105849D02*
Y4350D01*
X-106774Y3275D01*
X-105524D01*
G01X-110800Y13950D02*
Y12450D01*
X-109800D01*
G01X-109175Y13700D02*
X-109025Y13850D01*
X-108850Y13925D01*
X-108650Y13950D01*
X-108400Y13900D01*
X-108225Y13775D01*
X-108175Y13625D01*
X-108200Y13475D01*
X-108300Y13350D01*
X-108800Y13100D01*
X-109025Y12925D01*
X-109175Y12675D01*
X-109225Y12450D01*
X-108175D01*
G01X-116125Y13550D02*
X-116200Y13400D01*
X-116250Y13225D01*
Y13025D01*
X-116175Y12800D01*
X-116050Y12625D01*
X-115900Y12500D01*
X-115650Y12400D01*
X-115425Y12375D01*
X-115200Y12425D01*
X-115050Y12500D01*
X-114900Y12650D01*
X-114800Y12825D01*
X-114750Y13000D01*
Y13175D01*
X-114800Y13350D01*
X-114875Y13500D01*
X-114975Y13625D01*
G01X-116000Y14125D02*
X-116150Y14275D01*
X-116225Y14450D01*
X-116250Y14650D01*
X-116200Y14900D01*
X-116075Y15075D01*
X-115925Y15125D01*
X-115775Y15100D01*
X-115650Y15000D01*
X-115400Y14500D01*
X-115225Y14275D01*
X-114975Y14125D01*
X-114750Y14075D01*
Y15125D01*
G01X-116250Y16200D02*
X-116200Y16000D01*
X-116075Y15850D01*
X-115925Y15750D01*
X-115725Y15675D01*
X-115500Y15650D01*
X-115275Y15675D01*
X-115075Y15750D01*
X-114925Y15850D01*
X-114800Y16000D01*
X-114750Y16200D01*
X-114800Y16400D01*
X-114925Y16550D01*
X-115075Y16650D01*
X-115275Y16725D01*
X-115500Y16750D01*
X-115725Y16725D01*
X-115925Y16650D01*
X-116075Y16550D01*
X-116200Y16400D01*
X-116250Y16200D01*
G01X-115050Y17250D02*
X-114875Y17400D01*
X-114775Y17600D01*
X-114750Y17825D01*
X-114775Y18025D01*
X-114900Y18225D01*
X-115050Y18350D01*
X-115200Y18375D01*
X-115375Y18325D01*
X-115500Y18150D01*
X-115550Y17975D01*
Y17750D01*
G01Y17975D02*
X-115625Y18125D01*
X-115750Y18250D01*
X-115900Y18300D01*
X-116050Y18250D01*
X-116175Y18125D01*
X-116250Y17900D01*
X-116225Y17675D01*
X-116125Y17450D01*
G01X-111225Y15950D02*
X-111300Y15800D01*
X-111350Y15625D01*
Y15425D01*
X-111275Y15200D01*
X-111150Y15025D01*
X-111000Y14900D01*
X-110750Y14800D01*
X-110525Y14775D01*
X-110300Y14825D01*
X-110150Y14900D01*
X-110000Y15050D01*
X-109900Y15225D01*
X-109850Y15400D01*
Y15575D01*
X-109900Y15750D01*
X-109975Y15900D01*
X-110075Y16025D01*
G01X-110150Y16450D02*
X-109975Y16600D01*
X-109875Y16800D01*
X-109850Y17025D01*
X-109875Y17225D01*
X-110000Y17425D01*
X-110150Y17550D01*
X-110300Y17575D01*
X-110475Y17525D01*
X-110600Y17350D01*
X-110650Y17175D01*
Y16950D01*
G01Y17175D02*
X-110725Y17325D01*
X-110850Y17450D01*
X-111000Y17500D01*
X-111150Y17450D01*
X-111275Y17325D01*
X-111350Y17100D01*
X-111325Y16875D01*
X-111225Y16650D01*
G01X-110475Y18125D02*
X-110650Y18300D01*
X-110750Y18450D01*
X-110800Y18650D01*
X-110750Y18825D01*
X-110650Y18950D01*
X-110500Y19050D01*
X-110325Y19075D01*
X-110175Y19050D01*
X-110025Y18950D01*
X-109900Y18800D01*
X-109850Y18625D01*
X-109900Y18425D01*
X-110050Y18250D01*
X-110275Y18150D01*
X-110525Y18125D01*
X-110850Y18175D01*
X-111025Y18250D01*
X-111200Y18375D01*
X-111325Y18550D01*
X-111350Y18725D01*
X-111300Y18900D01*
X-111175Y19025D01*
G01X-113525Y13550D02*
X-113600Y13400D01*
X-113650Y13225D01*
Y13025D01*
X-113575Y12800D01*
X-113450Y12625D01*
X-113300Y12500D01*
X-113050Y12400D01*
X-112825Y12375D01*
X-112600Y12425D01*
X-112450Y12500D01*
X-112300Y12650D01*
X-112200Y12825D01*
X-112150Y13000D01*
Y13175D01*
X-112200Y13350D01*
X-112275Y13500D01*
X-112375Y13625D01*
G01X-112775Y14125D02*
X-112950Y14300D01*
X-113050Y14450D01*
X-113100Y14650D01*
X-113050Y14825D01*
X-112950Y14950D01*
X-112800Y15050D01*
X-112625Y15075D01*
X-112475Y15050D01*
X-112325Y14950D01*
X-112200Y14800D01*
X-112150Y14625D01*
X-112200Y14425D01*
X-112350Y14250D01*
X-112575Y14150D01*
X-112825Y14125D01*
X-113150Y14175D01*
X-113325Y14250D01*
X-113500Y14375D01*
X-113625Y14550D01*
X-113650Y14725D01*
X-113600Y14900D01*
X-113475Y15025D01*
G01X-114850Y47200D02*
X-114875Y47000D01*
X-114975Y46825D01*
X-115125Y46675D01*
X-115300Y46575D01*
X-115500Y46525D01*
X-115700D01*
X-115900Y46575D01*
X-116075Y46675D01*
X-116225Y46825D01*
X-116325Y47000D01*
X-116350Y47200D01*
X-116325Y47400D01*
X-116225Y47575D01*
X-116075Y47725D01*
X-115900Y47825D01*
X-115700Y47875D01*
X-115500D01*
X-115300Y47825D01*
X-115125Y47725D01*
X-114975Y47575D01*
X-114875Y47400D01*
X-114850Y47200D01*
G01X-115250Y47400D02*
X-114850Y47700D01*
G01Y48800D02*
X-114875Y48975D01*
X-114950Y49175D01*
X-115075Y49300D01*
X-115250Y49350D01*
X-115425Y49300D01*
X-115575Y49150D01*
X-115650Y48925D01*
Y48675D01*
X-115700Y48525D01*
X-115825Y48400D01*
X-116000Y48350D01*
X-116175Y48425D01*
X-116300Y48600D01*
X-116350Y48800D01*
X-116300Y49000D01*
X-116175Y49175D01*
X-116000Y49250D01*
X-115825Y49200D01*
X-115700Y49075D01*
X-115650Y48925D01*
Y48675D01*
X-115575Y48450D01*
X-115425Y48300D01*
X-115250Y48250D01*
X-115075Y48300D01*
X-114950Y48425D01*
X-114875Y48625D01*
X-114850Y48800D01*
G01X-112025Y79850D02*
X-112100Y79700D01*
X-112150Y79525D01*
Y79325D01*
X-112075Y79100D01*
X-111950Y78925D01*
X-111800Y78800D01*
X-111550Y78700D01*
X-111325Y78675D01*
X-111100Y78725D01*
X-110950Y78800D01*
X-110800Y78950D01*
X-110700Y79125D01*
X-110650Y79300D01*
Y79475D01*
X-110700Y79650D01*
X-110775Y79800D01*
X-110875Y79925D01*
G01X-110650Y80900D02*
X-112150D01*
X-111850Y80600D01*
G01X-110650D02*
Y81200D01*
G01Y82500D02*
X-112150D01*
X-111850Y82200D01*
G01X-110650D02*
Y82800D01*
G01Y84100D02*
X-112150D01*
X-111850Y83800D01*
G01X-110650D02*
Y84400D01*
G01X-106650Y-112800D02*
X-108150D01*
Y-112175D01*
X-108075Y-111975D01*
X-107975Y-111850D01*
X-107775Y-111800D01*
X-107575Y-111850D01*
X-107450Y-112000D01*
X-107375Y-112175D01*
Y-112800D01*
G01Y-112175D02*
X-106650Y-111800D01*
G01Y-110700D02*
X-106675Y-110525D01*
X-106750Y-110325D01*
X-106875Y-110200D01*
X-107050Y-110150D01*
X-107225Y-110200D01*
X-107375Y-110350D01*
X-107450Y-110575D01*
Y-110825D01*
X-107500Y-110975D01*
X-107625Y-111100D01*
X-107800Y-111150D01*
X-107975Y-111075D01*
X-108100Y-110900D01*
X-108150Y-110700D01*
X-108100Y-110500D01*
X-107975Y-110325D01*
X-107800Y-110250D01*
X-107625Y-110300D01*
X-107500Y-110425D01*
X-107450Y-110575D01*
Y-110825D01*
X-107375Y-111050D01*
X-107225Y-111200D01*
X-107050Y-111250D01*
X-106875Y-111200D01*
X-106750Y-111075D01*
X-106675Y-110875D01*
X-106650Y-110700D01*
G01Y-109150D02*
X-106975Y-109100D01*
X-107250Y-109025D01*
X-107500Y-108925D01*
X-107775Y-108800D01*
X-108150Y-108600D01*
Y-109600D01*
G01X-106750Y-107600D02*
X-108250D01*
Y-106975D01*
X-108175Y-106775D01*
X-108075Y-106650D01*
X-107875Y-106600D01*
X-107675Y-106650D01*
X-107550Y-106800D01*
X-107475Y-106975D01*
Y-107600D01*
G01Y-106975D02*
X-106750Y-106600D01*
G01Y-105500D02*
X-106775Y-105325D01*
X-106850Y-105125D01*
X-106975Y-105000D01*
X-107150Y-104950D01*
X-107325Y-105000D01*
X-107475Y-105150D01*
X-107550Y-105375D01*
Y-105625D01*
X-107600Y-105775D01*
X-107725Y-105900D01*
X-107900Y-105950D01*
X-108075Y-105875D01*
X-108200Y-105700D01*
X-108250Y-105500D01*
X-108200Y-105300D01*
X-108075Y-105125D01*
X-107900Y-105050D01*
X-107725Y-105100D01*
X-107600Y-105225D01*
X-107550Y-105375D01*
Y-105625D01*
X-107475Y-105850D01*
X-107325Y-106000D01*
X-107150Y-106050D01*
X-106975Y-106000D01*
X-106850Y-105875D01*
X-106775Y-105675D01*
X-106750Y-105500D01*
G01Y-103900D02*
X-106775Y-103725D01*
X-106850Y-103525D01*
X-106975Y-103400D01*
X-107150Y-103350D01*
X-107325Y-103400D01*
X-107475Y-103550D01*
X-107550Y-103775D01*
Y-104025D01*
X-107600Y-104175D01*
X-107725Y-104300D01*
X-107900Y-104350D01*
X-108075Y-104275D01*
X-108200Y-104100D01*
X-108250Y-103900D01*
X-108200Y-103700D01*
X-108075Y-103525D01*
X-107900Y-103450D01*
X-107725Y-103500D01*
X-107600Y-103625D01*
X-107550Y-103775D01*
Y-104025D01*
X-107475Y-104250D01*
X-107325Y-104400D01*
X-107150Y-104450D01*
X-106975Y-104400D01*
X-106850Y-104275D01*
X-106775Y-104075D01*
X-106750Y-103900D01*
G01X-98150Y-108550D02*
Y-107050D01*
X-97650D01*
X-97450Y-107125D01*
X-97300Y-107225D01*
X-97175Y-107375D01*
X-97075Y-107550D01*
X-97050Y-107800D01*
X-97075Y-108050D01*
X-97175Y-108225D01*
X-97300Y-108375D01*
X-97450Y-108475D01*
X-97650Y-108550D01*
X-98150D01*
G01X-96050D02*
X-96000Y-108225D01*
X-95925Y-107950D01*
X-95825Y-107700D01*
X-95700Y-107425D01*
X-95500Y-107050D01*
X-96500D01*
G01X-98550Y-51950D02*
Y-53025D01*
X-98450Y-53250D01*
X-98250Y-53400D01*
X-98000Y-53450D01*
X-97750Y-53400D01*
X-97550Y-53250D01*
X-97450Y-53025D01*
Y-51950D01*
G01X-96400Y-53450D02*
Y-51950D01*
X-96700Y-52250D01*
G01Y-53450D02*
X-96100D01*
G01X-95350Y-53150D02*
X-95200Y-53325D01*
X-95000Y-53425D01*
X-94775Y-53450D01*
X-94575Y-53425D01*
X-94375Y-53300D01*
X-94250Y-53150D01*
X-94225Y-53000D01*
X-94275Y-52825D01*
X-94450Y-52700D01*
X-94625Y-52650D01*
X-94850D01*
G01X-94625D02*
X-94475Y-52575D01*
X-94350Y-52450D01*
X-94300Y-52300D01*
X-94350Y-52150D01*
X-94475Y-52025D01*
X-94700Y-51950D01*
X-94925Y-51975D01*
X-95150Y-52075D01*
G01X-100750Y-19500D02*
X-100825Y-19400D01*
X-100950Y-19325D01*
X-101125Y-19275D01*
X-101275Y-19325D01*
X-101375Y-19425D01*
X-101450Y-19600D01*
Y-20275D01*
X-99950D01*
Y-19450D01*
X-100050Y-19275D01*
X-100200Y-19175D01*
X-100375Y-19125D01*
X-100550Y-19175D01*
X-100700Y-19325D01*
X-100750Y-19500D01*
Y-20275D01*
G01X-99950Y-18100D02*
X-101450D01*
X-101150Y-18400D01*
G01X-99950D02*
Y-17800D01*
G01X-104525Y-19050D02*
X-104600Y-19200D01*
X-104650Y-19375D01*
Y-19575D01*
X-104575Y-19800D01*
X-104450Y-19975D01*
X-104300Y-20100D01*
X-104050Y-20200D01*
X-103825Y-20225D01*
X-103600Y-20175D01*
X-103450Y-20100D01*
X-103300Y-19950D01*
X-103200Y-19775D01*
X-103150Y-19600D01*
Y-19425D01*
X-103200Y-19250D01*
X-103275Y-19100D01*
X-103375Y-18975D01*
G01X-103150Y-18000D02*
X-104650D01*
X-104350Y-18300D01*
G01X-103150D02*
Y-17700D01*
G01X-98525Y-19150D02*
X-98600Y-19300D01*
X-98650Y-19475D01*
Y-19675D01*
X-98575Y-19900D01*
X-98450Y-20075D01*
X-98300Y-20200D01*
X-98050Y-20300D01*
X-97825Y-20325D01*
X-97600Y-20275D01*
X-97450Y-20200D01*
X-97300Y-20050D01*
X-97200Y-19875D01*
X-97150Y-19700D01*
Y-19525D01*
X-97200Y-19350D01*
X-97275Y-19200D01*
X-97375Y-19075D01*
G01X-98400Y-18575D02*
X-98550Y-18425D01*
X-98625Y-18250D01*
X-98650Y-18050D01*
X-98600Y-17800D01*
X-98475Y-17625D01*
X-98325Y-17575D01*
X-98175Y-17600D01*
X-98050Y-17700D01*
X-97800Y-18200D01*
X-97625Y-18425D01*
X-97375Y-18575D01*
X-97150Y-18625D01*
Y-17575D01*
G01X-107050Y-7375D02*
X-107200Y-7300D01*
X-107375Y-7250D01*
X-107575D01*
X-107800Y-7325D01*
X-107975Y-7450D01*
X-108100Y-7600D01*
X-108200Y-7850D01*
X-108225Y-8075D01*
X-108175Y-8300D01*
X-108100Y-8450D01*
X-107950Y-8600D01*
X-107775Y-8700D01*
X-107600Y-8750D01*
X-107425D01*
X-107250Y-8700D01*
X-107100Y-8625D01*
X-106975Y-8525D01*
G01X-106050Y-8750D02*
X-106000Y-8425D01*
X-105925Y-8150D01*
X-105825Y-7900D01*
X-105700Y-7625D01*
X-105500Y-7250D01*
X-106500D01*
G01X-101825Y18750D02*
X-101900Y18600D01*
X-101950Y18425D01*
Y18225D01*
X-101875Y18000D01*
X-101750Y17825D01*
X-101600Y17700D01*
X-101350Y17600D01*
X-101125Y17575D01*
X-100900Y17625D01*
X-100750Y17700D01*
X-100600Y17850D01*
X-100500Y18025D01*
X-100450Y18200D01*
Y18375D01*
X-100500Y18550D01*
X-100575Y18700D01*
X-100675Y18825D01*
G01X-100450Y19800D02*
X-101950D01*
X-101650Y19500D01*
G01X-100450D02*
Y20100D01*
G01Y21400D02*
X-101950D01*
X-101650Y21100D01*
G01X-100450D02*
Y21700D01*
G01X-109025Y15950D02*
X-109100Y15800D01*
X-109150Y15625D01*
Y15425D01*
X-109075Y15200D01*
X-108950Y15025D01*
X-108800Y14900D01*
X-108550Y14800D01*
X-108325Y14775D01*
X-108100Y14825D01*
X-107950Y14900D01*
X-107800Y15050D01*
X-107700Y15225D01*
X-107650Y15400D01*
Y15575D01*
X-107700Y15750D01*
X-107775Y15900D01*
X-107875Y16025D01*
G01X-108900Y16525D02*
X-109050Y16675D01*
X-109125Y16850D01*
X-109150Y17050D01*
X-109100Y17300D01*
X-108975Y17475D01*
X-108825Y17525D01*
X-108675Y17500D01*
X-108550Y17400D01*
X-108300Y16900D01*
X-108125Y16675D01*
X-107875Y16525D01*
X-107650Y16475D01*
Y17525D01*
G01Y18900D02*
X-109150D01*
X-108075Y17975D01*
Y19225D01*
G01X-102850Y17700D02*
X-104350D01*
Y18325D01*
X-104275Y18525D01*
X-104175Y18650D01*
X-103975Y18700D01*
X-103775Y18650D01*
X-103650Y18500D01*
X-103575Y18325D01*
Y17700D01*
G01Y18325D02*
X-102850Y18700D01*
G01X-104100Y19325D02*
X-104250Y19475D01*
X-104325Y19650D01*
X-104350Y19850D01*
X-104300Y20100D01*
X-104175Y20275D01*
X-104025Y20325D01*
X-103875Y20300D01*
X-103750Y20200D01*
X-103500Y19700D01*
X-103325Y19475D01*
X-103075Y19325D01*
X-102850Y19275D01*
Y20325D01*
G01Y21400D02*
X-104350D01*
X-104050Y21100D01*
G01X-102850D02*
Y21700D01*
G01X-106750Y17700D02*
X-105250D01*
Y18700D01*
G01X-105550Y19250D02*
X-105375Y19400D01*
X-105275Y19600D01*
X-105250Y19825D01*
X-105275Y20025D01*
X-105400Y20225D01*
X-105550Y20350D01*
X-105700Y20375D01*
X-105875Y20325D01*
X-106000Y20150D01*
X-106050Y19975D01*
Y19750D01*
G01Y19975D02*
X-106125Y20125D01*
X-106250Y20250D01*
X-106400Y20300D01*
X-106550Y20250D01*
X-106675Y20125D01*
X-106750Y19900D01*
X-106725Y19675D01*
X-106625Y19450D01*
G01X-104550Y34800D02*
X-106050D01*
Y35425D01*
X-105975Y35625D01*
X-105875Y35750D01*
X-105675Y35800D01*
X-105475Y35750D01*
X-105350Y35600D01*
X-105275Y35425D01*
Y34800D01*
G01Y35425D02*
X-104550Y35800D01*
G01Y36900D02*
X-106050D01*
X-105750Y36600D01*
G01X-104550D02*
Y37200D01*
G01X-104775Y37950D02*
X-104650Y38100D01*
X-104575Y38275D01*
X-104550Y38500D01*
X-104600Y38725D01*
X-104700Y38900D01*
X-104875Y39025D01*
X-105075Y39050D01*
X-105275Y39000D01*
X-105400Y38875D01*
X-105500Y38700D01*
X-105525Y38525D01*
X-105500Y38350D01*
X-105400Y38125D01*
X-106050Y38200D01*
Y38875D01*
G01X-106850Y34800D02*
X-108350D01*
Y35425D01*
X-108275Y35625D01*
X-108175Y35750D01*
X-107975Y35800D01*
X-107775Y35750D01*
X-107650Y35600D01*
X-107575Y35425D01*
Y34800D01*
G01Y35425D02*
X-106850Y35800D01*
G01Y36900D02*
X-108350D01*
X-108050Y36600D01*
G01X-106850D02*
Y37200D01*
G01X-107150Y37950D02*
X-106975Y38100D01*
X-106875Y38300D01*
X-106850Y38525D01*
X-106875Y38725D01*
X-107000Y38925D01*
X-107150Y39050D01*
X-107300Y39075D01*
X-107475Y39025D01*
X-107600Y38850D01*
X-107650Y38675D01*
Y38450D01*
G01Y38675D02*
X-107725Y38825D01*
X-107850Y38950D01*
X-108000Y39000D01*
X-108150Y38950D01*
X-108275Y38825D01*
X-108350Y38600D01*
X-108325Y38375D01*
X-108225Y38150D01*
G01X-103725Y35750D02*
X-103800Y35600D01*
X-103850Y35425D01*
Y35225D01*
X-103775Y35000D01*
X-103650Y34825D01*
X-103500Y34700D01*
X-103250Y34600D01*
X-103025Y34575D01*
X-102800Y34625D01*
X-102650Y34700D01*
X-102500Y34850D01*
X-102400Y35025D01*
X-102350Y35200D01*
Y35375D01*
X-102400Y35550D01*
X-102475Y35700D01*
X-102575Y35825D01*
G01X-102650Y36250D02*
X-102475Y36400D01*
X-102375Y36600D01*
X-102350Y36825D01*
X-102375Y37025D01*
X-102500Y37225D01*
X-102650Y37350D01*
X-102800Y37375D01*
X-102975Y37325D01*
X-103100Y37150D01*
X-103150Y36975D01*
Y36750D01*
G01Y36975D02*
X-103225Y37125D01*
X-103350Y37250D01*
X-103500Y37300D01*
X-103650Y37250D01*
X-103775Y37125D01*
X-103850Y36900D01*
X-103825Y36675D01*
X-103725Y36450D01*
G01X-102525Y37975D02*
X-102400Y38150D01*
X-102350Y38350D01*
X-102400Y38550D01*
X-102550Y38725D01*
X-102775Y38850D01*
X-103000Y38900D01*
X-103275D01*
X-103500Y38850D01*
X-103700Y38725D01*
X-103800Y38575D01*
X-103850Y38400D01*
X-103800Y38200D01*
X-103700Y38050D01*
X-103550Y37950D01*
X-103350Y37900D01*
X-103175Y37950D01*
X-103000Y38075D01*
X-102900Y38225D01*
X-102875Y38400D01*
X-102925Y38600D01*
X-103050Y38750D01*
X-103275Y38900D01*
G01X-97225Y34550D02*
X-97300Y34400D01*
X-97350Y34225D01*
Y34025D01*
X-97275Y33800D01*
X-97150Y33625D01*
X-97000Y33500D01*
X-96750Y33400D01*
X-96525Y33375D01*
X-96300Y33425D01*
X-96150Y33500D01*
X-96000Y33650D01*
X-95900Y33825D01*
X-95850Y34000D01*
Y34175D01*
X-95900Y34350D01*
X-95975Y34500D01*
X-96075Y34625D01*
G01X-95850Y35600D02*
X-97350D01*
X-97050Y35300D01*
G01X-95850D02*
Y35900D01*
G01X-96025Y36775D02*
X-95900Y36950D01*
X-95850Y37150D01*
X-95900Y37350D01*
X-96050Y37525D01*
X-96275Y37650D01*
X-96500Y37700D01*
X-96775D01*
X-97000Y37650D01*
X-97200Y37525D01*
X-97300Y37375D01*
X-97350Y37200D01*
X-97300Y37000D01*
X-97200Y36850D01*
X-97050Y36750D01*
X-96850Y36700D01*
X-96675Y36750D01*
X-96500Y36875D01*
X-96400Y37025D01*
X-96375Y37200D01*
X-96425Y37400D01*
X-96550Y37550D01*
X-96775Y37700D01*
G01X-96475Y38325D02*
X-96650Y38500D01*
X-96750Y38650D01*
X-96800Y38850D01*
X-96750Y39025D01*
X-96650Y39150D01*
X-96500Y39250D01*
X-96325Y39275D01*
X-96175Y39250D01*
X-96025Y39150D01*
X-95900Y39000D01*
X-95850Y38825D01*
X-95900Y38625D01*
X-96050Y38450D01*
X-96275Y38350D01*
X-96525Y38325D01*
X-96850Y38375D01*
X-97025Y38450D01*
X-97200Y38575D01*
X-97325Y38750D01*
X-97350Y38925D01*
X-97300Y39100D01*
X-97175Y39225D01*
G01X-102000Y39950D02*
Y41450D01*
X-101375D01*
X-101175Y41375D01*
X-101050Y41275D01*
X-101000Y41075D01*
X-101050Y40875D01*
X-101200Y40750D01*
X-101375Y40675D01*
X-102000D01*
G01X-101375D02*
X-101000Y39950D01*
G01X-99900D02*
X-99725Y39975D01*
X-99525Y40050D01*
X-99400Y40175D01*
X-99350Y40350D01*
X-99400Y40525D01*
X-99550Y40675D01*
X-99775Y40750D01*
X-100025D01*
X-100175Y40800D01*
X-100300Y40925D01*
X-100350Y41100D01*
X-100275Y41275D01*
X-100100Y41400D01*
X-99900Y41450D01*
X-99700Y41400D01*
X-99525Y41275D01*
X-99450Y41100D01*
X-99500Y40925D01*
X-99625Y40800D01*
X-99775Y40750D01*
X-100025D01*
X-100250Y40675D01*
X-100400Y40525D01*
X-100450Y40350D01*
X-100400Y40175D01*
X-100275Y40050D01*
X-100075Y39975D01*
X-99900Y39950D01*
G01X-98850Y40175D02*
X-98700Y40050D01*
X-98525Y39975D01*
X-98300Y39950D01*
X-98075Y40000D01*
X-97900Y40100D01*
X-97775Y40275D01*
X-97750Y40475D01*
X-97800Y40675D01*
X-97925Y40800D01*
X-98100Y40900D01*
X-98275Y40925D01*
X-98450Y40900D01*
X-98675Y40800D01*
X-98600Y41450D01*
X-97925D01*
G01X-105625Y74250D02*
X-105700Y74100D01*
X-105750Y73925D01*
Y73725D01*
X-105675Y73500D01*
X-105550Y73325D01*
X-105400Y73200D01*
X-105150Y73100D01*
X-104925Y73075D01*
X-104700Y73125D01*
X-104550Y73200D01*
X-104400Y73350D01*
X-104300Y73525D01*
X-104250Y73700D01*
Y73875D01*
X-104300Y74050D01*
X-104375Y74200D01*
X-104475Y74325D01*
G01X-104250Y75300D02*
X-105750D01*
X-105450Y75000D01*
G01X-104250D02*
Y75600D01*
G01X-105750Y76900D02*
X-105700Y76700D01*
X-105575Y76550D01*
X-105425Y76450D01*
X-105225Y76375D01*
X-105000Y76350D01*
X-104775Y76375D01*
X-104575Y76450D01*
X-104425Y76550D01*
X-104300Y76700D01*
X-104250Y76900D01*
X-104300Y77100D01*
X-104425Y77250D01*
X-104575Y77350D01*
X-104775Y77425D01*
X-105000Y77450D01*
X-105225Y77425D01*
X-105425Y77350D01*
X-105575Y77250D01*
X-105700Y77100D01*
X-105750Y76900D01*
G01X-104425Y78075D02*
X-104300Y78250D01*
X-104250Y78450D01*
X-104300Y78650D01*
X-104450Y78825D01*
X-104675Y78950D01*
X-104900Y79000D01*
X-105175D01*
X-105400Y78950D01*
X-105600Y78825D01*
X-105700Y78675D01*
X-105750Y78500D01*
X-105700Y78300D01*
X-105600Y78150D01*
X-105450Y78050D01*
X-105250Y78000D01*
X-105075Y78050D01*
X-104900Y78175D01*
X-104800Y78325D01*
X-104775Y78500D01*
X-104825Y78700D01*
X-104950Y78850D01*
X-105175Y79000D01*
G01X-107925Y74350D02*
X-108000Y74200D01*
X-108050Y74025D01*
Y73825D01*
X-107975Y73600D01*
X-107850Y73425D01*
X-107700Y73300D01*
X-107450Y73200D01*
X-107225Y73175D01*
X-107000Y73225D01*
X-106850Y73300D01*
X-106700Y73450D01*
X-106600Y73625D01*
X-106550Y73800D01*
Y73975D01*
X-106600Y74150D01*
X-106675Y74300D01*
X-106775Y74425D01*
G01X-106550Y75400D02*
X-108050D01*
X-107750Y75100D01*
G01X-106550D02*
Y75700D01*
G01Y77000D02*
X-108050D01*
X-107750Y76700D01*
G01X-106550D02*
Y77300D01*
G01X-108050Y78600D02*
X-108000Y78400D01*
X-107875Y78250D01*
X-107725Y78150D01*
X-107525Y78075D01*
X-107300Y78050D01*
X-107075Y78075D01*
X-106875Y78150D01*
X-106725Y78250D01*
X-106600Y78400D01*
X-106550Y78600D01*
X-106600Y78800D01*
X-106725Y78950D01*
X-106875Y79050D01*
X-107075Y79125D01*
X-107300Y79150D01*
X-107525Y79125D01*
X-107725Y79050D01*
X-107875Y78950D01*
X-108000Y78800D01*
X-108050Y78600D01*
G01X-97025Y81650D02*
X-97100Y81500D01*
X-97150Y81325D01*
Y81125D01*
X-97075Y80900D01*
X-96950Y80725D01*
X-96800Y80600D01*
X-96550Y80500D01*
X-96325Y80475D01*
X-96100Y80525D01*
X-95950Y80600D01*
X-95800Y80750D01*
X-95700Y80925D01*
X-95650Y81100D01*
Y81275D01*
X-95700Y81450D01*
X-95775Y81600D01*
X-95875Y81725D01*
G01X-95650Y83000D02*
X-97150D01*
X-96075Y82075D01*
Y83325D01*
G01X-95950Y83750D02*
X-95775Y83900D01*
X-95675Y84100D01*
X-95650Y84325D01*
X-95675Y84525D01*
X-95800Y84725D01*
X-95950Y84850D01*
X-96100Y84875D01*
X-96275Y84825D01*
X-96400Y84650D01*
X-96450Y84475D01*
Y84250D01*
G01Y84475D02*
X-96525Y84625D01*
X-96650Y84750D01*
X-96800Y84800D01*
X-96950Y84750D01*
X-97075Y84625D01*
X-97150Y84400D01*
X-97125Y84175D01*
X-97025Y83950D01*
G01X-103600Y142050D02*
X-103475Y141900D01*
X-103325Y141800D01*
X-103150Y141750D01*
X-102950Y141800D01*
X-102800Y141900D01*
X-102650Y142050D01*
X-102600Y142250D01*
Y143250D01*
G01X-101500Y141750D02*
Y143250D01*
X-101800Y142950D01*
G01Y141750D02*
X-101200D01*
G01X-99900Y143250D02*
X-100100Y143200D01*
X-100250Y143075D01*
X-100350Y142925D01*
X-100425Y142725D01*
X-100450Y142500D01*
X-100425Y142275D01*
X-100350Y142075D01*
X-100250Y141925D01*
X-100100Y141800D01*
X-99900Y141750D01*
X-99700Y141800D01*
X-99550Y141925D01*
X-99450Y142075D01*
X-99375Y142275D01*
X-99350Y142500D01*
X-99375Y142725D01*
X-99450Y142925D01*
X-99550Y143075D01*
X-99700Y143200D01*
X-99900Y143250D01*
G01X-87700Y-53450D02*
Y-51950D01*
X-87075D01*
X-86875Y-52025D01*
X-86750Y-52125D01*
X-86700Y-52325D01*
X-86750Y-52525D01*
X-86900Y-52650D01*
X-87075Y-52725D01*
X-87700D01*
G01X-87075D02*
X-86700Y-53450D01*
G01X-85650D02*
X-85600Y-53125D01*
X-85525Y-52850D01*
X-85425Y-52600D01*
X-85300Y-52325D01*
X-85100Y-51950D01*
X-86100D01*
G01X-84000Y-53450D02*
Y-51950D01*
X-84300Y-52250D01*
G01Y-53450D02*
X-83700D01*
G01X-89925Y-21750D02*
X-90000Y-21900D01*
X-90050Y-22075D01*
Y-22275D01*
X-89975Y-22500D01*
X-89850Y-22675D01*
X-89700Y-22800D01*
X-89450Y-22900D01*
X-89225Y-22925D01*
X-89000Y-22875D01*
X-88850Y-22800D01*
X-88700Y-22650D01*
X-88600Y-22475D01*
X-88550Y-22300D01*
Y-22125D01*
X-88600Y-21950D01*
X-88675Y-21800D01*
X-88775Y-21675D01*
G01X-88850Y-21250D02*
X-88675Y-21100D01*
X-88575Y-20900D01*
X-88550Y-20675D01*
X-88575Y-20475D01*
X-88700Y-20275D01*
X-88850Y-20150D01*
X-89000Y-20125D01*
X-89175Y-20175D01*
X-89300Y-20350D01*
X-89350Y-20525D01*
Y-20750D01*
G01Y-20525D02*
X-89425Y-20375D01*
X-89550Y-20250D01*
X-89700Y-20200D01*
X-89850Y-20250D01*
X-89975Y-20375D01*
X-90050Y-20600D01*
X-90025Y-20825D01*
X-89925Y-21050D01*
G01X-88775Y-19650D02*
X-88650Y-19500D01*
X-88575Y-19325D01*
X-88550Y-19100D01*
X-88600Y-18875D01*
X-88700Y-18700D01*
X-88875Y-18575D01*
X-89075Y-18550D01*
X-89275Y-18600D01*
X-89400Y-18725D01*
X-89500Y-18900D01*
X-89525Y-19075D01*
X-89500Y-19250D01*
X-89400Y-19475D01*
X-90050Y-19400D01*
Y-18725D01*
G01X-86250Y-23000D02*
X-87750D01*
Y-22375D01*
X-87675Y-22175D01*
X-87575Y-22050D01*
X-87375Y-22000D01*
X-87175Y-22050D01*
X-87050Y-22200D01*
X-86975Y-22375D01*
Y-23000D01*
G01Y-22375D02*
X-86250Y-22000D01*
G01Y-20600D02*
X-87750D01*
X-86675Y-21525D01*
Y-20275D01*
G01X-94050Y-13550D02*
Y-14625D01*
X-93950Y-14850D01*
X-93750Y-15000D01*
X-93500Y-15050D01*
X-93250Y-15000D01*
X-93050Y-14850D01*
X-92950Y-14625D01*
Y-13550D01*
G01X-91900Y-15050D02*
Y-13550D01*
X-92200Y-13850D01*
G01Y-15050D02*
X-91600D01*
G01X-83360Y13011D02*
X-83342Y13135D01*
X-83378Y13277D01*
X-83466Y13436D01*
X-83607Y13506D01*
X-83749D01*
X-83926Y13436D01*
X-84403Y12958D01*
X-83342Y11898D01*
X-82759Y12481D01*
X-82706Y12676D01*
X-82741Y12852D01*
X-82830Y13011D01*
X-82989Y13100D01*
X-83201D01*
X-83360Y13011D01*
X-83908Y12463D01*
G01X-82582Y13541D02*
Y13789D01*
X-82547Y13966D01*
X-82441Y14142D01*
X-82282Y14231D01*
X-82123Y14249D01*
X-81946Y14213D01*
X-81805Y14107D01*
X-81716Y13983D01*
X-81681Y13807D01*
X-81699Y13612D01*
X-81787Y13453D01*
X-81964Y13347D01*
X-82194Y13329D01*
X-82423Y13418D01*
X-82618Y13577D01*
X-82812Y13842D01*
X-82883Y14019D01*
X-82918Y14231D01*
X-82883Y14443D01*
X-82777Y14584D01*
X-82618Y14673D01*
X-82441D01*
G01X-94750Y23725D02*
X-94900Y23800D01*
X-95075Y23850D01*
X-95275D01*
X-95500Y23775D01*
X-95675Y23650D01*
X-95800Y23500D01*
X-95900Y23250D01*
X-95925Y23025D01*
X-95875Y22800D01*
X-95800Y22650D01*
X-95650Y22500D01*
X-95475Y22400D01*
X-95300Y22350D01*
X-95125D01*
X-94950Y22400D01*
X-94800Y22475D01*
X-94675Y22575D01*
G01X-94175Y23600D02*
X-94025Y23750D01*
X-93850Y23825D01*
X-93650Y23850D01*
X-93400Y23800D01*
X-93225Y23675D01*
X-93175Y23525D01*
X-93200Y23375D01*
X-93300Y23250D01*
X-93800Y23000D01*
X-94025Y22825D01*
X-94175Y22575D01*
X-94225Y22350D01*
X-93175D01*
G01X-92650Y22575D02*
X-92500Y22450D01*
X-92325Y22375D01*
X-92100Y22350D01*
X-91875Y22400D01*
X-91700Y22500D01*
X-91575Y22675D01*
X-91550Y22875D01*
X-91600Y23075D01*
X-91725Y23200D01*
X-91900Y23300D01*
X-92075Y23325D01*
X-92250Y23300D01*
X-92475Y23200D01*
X-92400Y23850D01*
X-91725D01*
G01X-93950Y32625D02*
X-94100Y32700D01*
X-94275Y32750D01*
X-94475D01*
X-94700Y32675D01*
X-94875Y32550D01*
X-95000Y32400D01*
X-95100Y32150D01*
X-95125Y31925D01*
X-95075Y31700D01*
X-95000Y31550D01*
X-94850Y31400D01*
X-94675Y31300D01*
X-94500Y31250D01*
X-94325D01*
X-94150Y31300D01*
X-94000Y31375D01*
X-93875Y31475D01*
G01X-92600Y31250D02*
Y32750D01*
X-93525Y31675D01*
X-92275D01*
G01X-91300Y31250D02*
Y32750D01*
X-91600Y32450D01*
G01Y31250D02*
X-91000D01*
G01X-94650Y25725D02*
X-94800Y25800D01*
X-94975Y25850D01*
X-95175D01*
X-95400Y25775D01*
X-95575Y25650D01*
X-95700Y25500D01*
X-95800Y25250D01*
X-95825Y25025D01*
X-95775Y24800D01*
X-95700Y24650D01*
X-95550Y24500D01*
X-95375Y24400D01*
X-95200Y24350D01*
X-95025D01*
X-94850Y24400D01*
X-94700Y24475D01*
X-94575Y24575D01*
G01X-93300Y24350D02*
Y25850D01*
X-94225Y24775D01*
X-92975D01*
G01X-92000Y25850D02*
X-92200Y25800D01*
X-92350Y25675D01*
X-92450Y25525D01*
X-92525Y25325D01*
X-92550Y25100D01*
X-92525Y24875D01*
X-92450Y24675D01*
X-92350Y24525D01*
X-92200Y24400D01*
X-92000Y24350D01*
X-91800Y24400D01*
X-91650Y24525D01*
X-91550Y24675D01*
X-91475Y24875D01*
X-91450Y25100D01*
X-91475Y25325D01*
X-91550Y25525D01*
X-91650Y25675D01*
X-91800Y25800D01*
X-92000Y25850D01*
G01X-94825Y27350D02*
X-94900Y27200D01*
X-94950Y27025D01*
Y26825D01*
X-94875Y26600D01*
X-94750Y26425D01*
X-94600Y26300D01*
X-94350Y26200D01*
X-94125Y26175D01*
X-93900Y26225D01*
X-93750Y26300D01*
X-93600Y26450D01*
X-93500Y26625D01*
X-93450Y26800D01*
Y26975D01*
X-93500Y27150D01*
X-93575Y27300D01*
X-93675Y27425D01*
G01X-93450Y28700D02*
X-94950D01*
X-93875Y27775D01*
Y29025D01*
G01X-94700Y29525D02*
X-94850Y29675D01*
X-94925Y29850D01*
X-94950Y30050D01*
X-94900Y30300D01*
X-94775Y30475D01*
X-94625Y30525D01*
X-94475Y30500D01*
X-94350Y30400D01*
X-94100Y29900D01*
X-93925Y29675D01*
X-93675Y29525D01*
X-93450Y29475D01*
Y30525D01*
G01X-88750Y34000D02*
X-87250D01*
Y35000D01*
G01X-87425Y35675D02*
X-87300Y35850D01*
X-87250Y36050D01*
X-87300Y36250D01*
X-87450Y36425D01*
X-87675Y36550D01*
X-87900Y36600D01*
X-88175D01*
X-88400Y36550D01*
X-88600Y36425D01*
X-88700Y36275D01*
X-88750Y36100D01*
X-88700Y35900D01*
X-88600Y35750D01*
X-88450Y35650D01*
X-88250Y35600D01*
X-88075Y35650D01*
X-87900Y35775D01*
X-87800Y35925D01*
X-87775Y36100D01*
X-87825Y36300D01*
X-87950Y36450D01*
X-88175Y36600D01*
G01X-88650Y27400D02*
X-87150D01*
Y28400D01*
G01Y29500D02*
X-87175Y29675D01*
X-87250Y29875D01*
X-87375Y30000D01*
X-87550Y30050D01*
X-87725Y30000D01*
X-87875Y29850D01*
X-87950Y29625D01*
Y29375D01*
X-88000Y29225D01*
X-88125Y29100D01*
X-88300Y29050D01*
X-88475Y29125D01*
X-88600Y29300D01*
X-88650Y29500D01*
X-88600Y29700D01*
X-88475Y29875D01*
X-88300Y29950D01*
X-88125Y29900D01*
X-88000Y29775D01*
X-87950Y29625D01*
Y29375D01*
X-87875Y29150D01*
X-87725Y29000D01*
X-87550Y28950D01*
X-87375Y29000D01*
X-87250Y29125D01*
X-87175Y29325D01*
X-87150Y29500D01*
G01X-84750Y33450D02*
X-83675D01*
X-83450Y33550D01*
X-83300Y33750D01*
X-83250Y34000D01*
X-83300Y34250D01*
X-83450Y34450D01*
X-83675Y34550D01*
X-84750D01*
G01X-83250Y35600D02*
X-84750D01*
X-84450Y35300D01*
G01X-83250D02*
Y35900D01*
G01Y37150D02*
X-83575Y37200D01*
X-83850Y37275D01*
X-84100Y37375D01*
X-84375Y37500D01*
X-84750Y37700D01*
Y36700D01*
G01X-94600Y48750D02*
Y50250D01*
X-93975D01*
X-93775Y50175D01*
X-93650Y50075D01*
X-93600Y49875D01*
X-93650Y49675D01*
X-93800Y49550D01*
X-93975Y49475D01*
X-94600D01*
G01X-93975D02*
X-93600Y48750D01*
G01X-92500D02*
X-92325Y48775D01*
X-92125Y48850D01*
X-92000Y48975D01*
X-91950Y49150D01*
X-92000Y49325D01*
X-92150Y49475D01*
X-92375Y49550D01*
X-92625D01*
X-92775Y49600D01*
X-92900Y49725D01*
X-92950Y49900D01*
X-92875Y50075D01*
X-92700Y50200D01*
X-92500Y50250D01*
X-92300Y50200D01*
X-92125Y50075D01*
X-92050Y49900D01*
X-92100Y49725D01*
X-92225Y49600D01*
X-92375Y49550D01*
X-92625D01*
X-92850Y49475D01*
X-93000Y49325D01*
X-93050Y49150D01*
X-93000Y48975D01*
X-92875Y48850D01*
X-92675Y48775D01*
X-92500Y48750D01*
G01X-91375Y49375D02*
X-91200Y49550D01*
X-91050Y49650D01*
X-90850Y49700D01*
X-90675Y49650D01*
X-90550Y49550D01*
X-90450Y49400D01*
X-90425Y49225D01*
X-90450Y49075D01*
X-90550Y48925D01*
X-90700Y48800D01*
X-90875Y48750D01*
X-91075Y48800D01*
X-91250Y48950D01*
X-91350Y49175D01*
X-91375Y49425D01*
X-91325Y49750D01*
X-91250Y49925D01*
X-91125Y50100D01*
X-90950Y50225D01*
X-90775Y50250D01*
X-90600Y50200D01*
X-90475Y50075D01*
G01X-89350Y45825D02*
X-89500Y45900D01*
X-89675Y45950D01*
X-89875D01*
X-90100Y45875D01*
X-90275Y45750D01*
X-90400Y45600D01*
X-90500Y45350D01*
X-90525Y45125D01*
X-90475Y44900D01*
X-90400Y44750D01*
X-90250Y44600D01*
X-90075Y44500D01*
X-89900Y44450D01*
X-89725D01*
X-89550Y44500D01*
X-89400Y44575D01*
X-89275Y44675D01*
G01X-88300Y44450D02*
Y45950D01*
X-88600Y45650D01*
G01Y44450D02*
X-88000D01*
G01X-87125Y44625D02*
X-86950Y44500D01*
X-86750Y44450D01*
X-86550Y44500D01*
X-86375Y44650D01*
X-86250Y44875D01*
X-86200Y45100D01*
Y45375D01*
X-86250Y45600D01*
X-86375Y45800D01*
X-86525Y45900D01*
X-86700Y45950D01*
X-86900Y45900D01*
X-87050Y45800D01*
X-87150Y45650D01*
X-87200Y45450D01*
X-87150Y45275D01*
X-87025Y45100D01*
X-86875Y45000D01*
X-86700Y44975D01*
X-86500Y45025D01*
X-86350Y45150D01*
X-86200Y45375D01*
G01X-85150Y44450D02*
X-85100Y44775D01*
X-85025Y45050D01*
X-84925Y45300D01*
X-84800Y45575D01*
X-84600Y45950D01*
X-85600D01*
G01X-93650Y47825D02*
X-93800Y47900D01*
X-93975Y47950D01*
X-94175D01*
X-94400Y47875D01*
X-94575Y47750D01*
X-94700Y47600D01*
X-94800Y47350D01*
X-94825Y47125D01*
X-94775Y46900D01*
X-94700Y46750D01*
X-94550Y46600D01*
X-94375Y46500D01*
X-94200Y46450D01*
X-94025D01*
X-93850Y46500D01*
X-93700Y46575D01*
X-93575Y46675D01*
G01X-93150Y46750D02*
X-93000Y46575D01*
X-92800Y46475D01*
X-92575Y46450D01*
X-92375Y46475D01*
X-92175Y46600D01*
X-92050Y46750D01*
X-92025Y46900D01*
X-92075Y47075D01*
X-92250Y47200D01*
X-92425Y47250D01*
X-92650D01*
G01X-92425D02*
X-92275Y47325D01*
X-92150Y47450D01*
X-92100Y47600D01*
X-92150Y47750D01*
X-92275Y47875D01*
X-92500Y47950D01*
X-92725Y47925D01*
X-92950Y47825D01*
G01X-91050Y46450D02*
X-91000Y46775D01*
X-90925Y47050D01*
X-90825Y47300D01*
X-90700Y47575D01*
X-90500Y47950D01*
X-91500D01*
G01X-87550Y40425D02*
X-87700Y40500D01*
X-87875Y40550D01*
X-88075D01*
X-88300Y40475D01*
X-88475Y40350D01*
X-88600Y40200D01*
X-88700Y39950D01*
X-88725Y39725D01*
X-88675Y39500D01*
X-88600Y39350D01*
X-88450Y39200D01*
X-88275Y39100D01*
X-88100Y39050D01*
X-87925D01*
X-87750Y39100D01*
X-87600Y39175D01*
X-87475Y39275D01*
G01X-86500Y39050D02*
Y40550D01*
X-86800Y40250D01*
G01Y39050D02*
X-86200D01*
G01X-85325Y39225D02*
X-85150Y39100D01*
X-84950Y39050D01*
X-84750Y39100D01*
X-84575Y39250D01*
X-84450Y39475D01*
X-84400Y39700D01*
Y39975D01*
X-84450Y40200D01*
X-84575Y40400D01*
X-84725Y40500D01*
X-84900Y40550D01*
X-85100Y40500D01*
X-85250Y40400D01*
X-85350Y40250D01*
X-85400Y40050D01*
X-85350Y39875D01*
X-85225Y39700D01*
X-85075Y39600D01*
X-84900Y39575D01*
X-84700Y39625D01*
X-84550Y39750D01*
X-84400Y39975D01*
G01X-83775Y40300D02*
X-83625Y40450D01*
X-83450Y40525D01*
X-83250Y40550D01*
X-83000Y40500D01*
X-82825Y40375D01*
X-82775Y40225D01*
X-82800Y40075D01*
X-82900Y39950D01*
X-83400Y39700D01*
X-83625Y39525D01*
X-83775Y39275D01*
X-83825Y39050D01*
X-82775D01*
G01X-96600Y70050D02*
Y68550D01*
X-95600D01*
G01X-94975Y69800D02*
X-94825Y69950D01*
X-94650Y70025D01*
X-94450Y70050D01*
X-94200Y70000D01*
X-94025Y69875D01*
X-93975Y69725D01*
X-94000Y69575D01*
X-94100Y69450D01*
X-94600Y69200D01*
X-94825Y69025D01*
X-94975Y68775D01*
X-95025Y68550D01*
X-93975D01*
G01X-92600D02*
Y70050D01*
X-93525Y68975D01*
X-92275D01*
G01X-96850Y72600D02*
X-95350D01*
Y73600D01*
G01Y74700D02*
X-96850D01*
X-96550Y74400D01*
G01X-95350D02*
Y75000D01*
G01X-96850Y76300D02*
X-96800Y76100D01*
X-96675Y75950D01*
X-96525Y75850D01*
X-96325Y75775D01*
X-96100Y75750D01*
X-95875Y75775D01*
X-95675Y75850D01*
X-95525Y75950D01*
X-95400Y76100D01*
X-95350Y76300D01*
X-95400Y76500D01*
X-95525Y76650D01*
X-95675Y76750D01*
X-95875Y76825D01*
X-96100Y76850D01*
X-96325Y76825D01*
X-96525Y76750D01*
X-96675Y76650D01*
X-96800Y76500D01*
X-96850Y76300D01*
G01X-93650Y66825D02*
X-93800Y66900D01*
X-93975Y66950D01*
X-94175D01*
X-94400Y66875D01*
X-94575Y66750D01*
X-94700Y66600D01*
X-94800Y66350D01*
X-94825Y66125D01*
X-94775Y65900D01*
X-94700Y65750D01*
X-94550Y65600D01*
X-94375Y65500D01*
X-94200Y65450D01*
X-94025D01*
X-93850Y65500D01*
X-93700Y65575D01*
X-93575Y65675D01*
G01X-92600Y65450D02*
Y66950D01*
X-92900Y66650D01*
G01Y65450D02*
X-92300D01*
G01X-91425Y65625D02*
X-91250Y65500D01*
X-91050Y65450D01*
X-90850Y65500D01*
X-90675Y65650D01*
X-90550Y65875D01*
X-90500Y66100D01*
Y66375D01*
X-90550Y66600D01*
X-90675Y66800D01*
X-90825Y66900D01*
X-91000Y66950D01*
X-91200Y66900D01*
X-91350Y66800D01*
X-91450Y66650D01*
X-91500Y66450D01*
X-91450Y66275D01*
X-91325Y66100D01*
X-91175Y66000D01*
X-91000Y65975D01*
X-90800Y66025D01*
X-90650Y66150D01*
X-90500Y66375D01*
G01X-89950Y65750D02*
X-89800Y65575D01*
X-89600Y65475D01*
X-89375Y65450D01*
X-89175Y65475D01*
X-88975Y65600D01*
X-88850Y65750D01*
X-88825Y65900D01*
X-88875Y66075D01*
X-89050Y66200D01*
X-89225Y66250D01*
X-89450D01*
G01X-89225D02*
X-89075Y66325D01*
X-88950Y66450D01*
X-88900Y66600D01*
X-88950Y66750D01*
X-89075Y66875D01*
X-89300Y66950D01*
X-89525Y66925D01*
X-89750Y66825D01*
G01X-91750Y85550D02*
X-90675D01*
X-90450Y85650D01*
X-90300Y85850D01*
X-90250Y86100D01*
X-90300Y86350D01*
X-90450Y86550D01*
X-90675Y86650D01*
X-91750D01*
G01X-91500Y87225D02*
X-91650Y87375D01*
X-91725Y87550D01*
X-91750Y87750D01*
X-91700Y88000D01*
X-91575Y88175D01*
X-91425Y88225D01*
X-91275Y88200D01*
X-91150Y88100D01*
X-90900Y87600D01*
X-90725Y87375D01*
X-90475Y87225D01*
X-90250Y87175D01*
Y88225D01*
G01X-93350Y79525D02*
X-93500Y79600D01*
X-93675Y79650D01*
X-93875D01*
X-94100Y79575D01*
X-94275Y79450D01*
X-94400Y79300D01*
X-94500Y79050D01*
X-94525Y78825D01*
X-94475Y78600D01*
X-94400Y78450D01*
X-94250Y78300D01*
X-94075Y78200D01*
X-93900Y78150D01*
X-93725D01*
X-93550Y78200D01*
X-93400Y78275D01*
X-93275Y78375D01*
G01X-92000Y78150D02*
Y79650D01*
X-92925Y78575D01*
X-91675D01*
G01X-91175Y78775D02*
X-91000Y78950D01*
X-90850Y79050D01*
X-90650Y79100D01*
X-90475Y79050D01*
X-90350Y78950D01*
X-90250Y78800D01*
X-90225Y78625D01*
X-90250Y78475D01*
X-90350Y78325D01*
X-90500Y78200D01*
X-90675Y78150D01*
X-90875Y78200D01*
X-91050Y78350D01*
X-91150Y78575D01*
X-91175Y78825D01*
X-91125Y79150D01*
X-91050Y79325D01*
X-90925Y79500D01*
X-90750Y79625D01*
X-90575Y79650D01*
X-90400Y79600D01*
X-90275Y79475D01*
G01X-84125Y98750D02*
X-84200Y98600D01*
X-84250Y98425D01*
Y98225D01*
X-84175Y98000D01*
X-84050Y97825D01*
X-83900Y97700D01*
X-83650Y97600D01*
X-83425Y97575D01*
X-83200Y97625D01*
X-83050Y97700D01*
X-82900Y97850D01*
X-82800Y98025D01*
X-82750Y98200D01*
Y98375D01*
X-82800Y98550D01*
X-82875Y98700D01*
X-82975Y98825D01*
G01X-84000Y99325D02*
X-84150Y99475D01*
X-84225Y99650D01*
X-84250Y99850D01*
X-84200Y100100D01*
X-84075Y100275D01*
X-83925Y100325D01*
X-83775Y100300D01*
X-83650Y100200D01*
X-83400Y99700D01*
X-83225Y99475D01*
X-82975Y99325D01*
X-82750Y99275D01*
Y100325D01*
G01X-83050Y100850D02*
X-82875Y101000D01*
X-82775Y101200D01*
X-82750Y101425D01*
X-82775Y101625D01*
X-82900Y101825D01*
X-83050Y101950D01*
X-83200Y101975D01*
X-83375Y101925D01*
X-83500Y101750D01*
X-83550Y101575D01*
Y101350D01*
G01Y101575D02*
X-83625Y101725D01*
X-83750Y101850D01*
X-83900Y101900D01*
X-84050Y101850D01*
X-84175Y101725D01*
X-84250Y101500D01*
X-84225Y101275D01*
X-84125Y101050D01*
G01X-94825Y92950D02*
X-94900Y92800D01*
X-94950Y92625D01*
Y92425D01*
X-94875Y92200D01*
X-94750Y92025D01*
X-94600Y91900D01*
X-94350Y91800D01*
X-94125Y91775D01*
X-93900Y91825D01*
X-93750Y91900D01*
X-93600Y92050D01*
X-93500Y92225D01*
X-93450Y92400D01*
Y92575D01*
X-93500Y92750D01*
X-93575Y92900D01*
X-93675Y93025D01*
G01X-94700Y93525D02*
X-94850Y93675D01*
X-94925Y93850D01*
X-94950Y94050D01*
X-94900Y94300D01*
X-94775Y94475D01*
X-94625Y94525D01*
X-94475Y94500D01*
X-94350Y94400D01*
X-94100Y93900D01*
X-93925Y93675D01*
X-93675Y93525D01*
X-93450Y93475D01*
Y94525D01*
G01X-94075Y95125D02*
X-94250Y95300D01*
X-94350Y95450D01*
X-94400Y95650D01*
X-94350Y95825D01*
X-94250Y95950D01*
X-94100Y96050D01*
X-93925Y96075D01*
X-93775Y96050D01*
X-93625Y95950D01*
X-93500Y95800D01*
X-93450Y95625D01*
X-93500Y95425D01*
X-93650Y95250D01*
X-93875Y95150D01*
X-94125Y95125D01*
X-94450Y95175D01*
X-94625Y95250D01*
X-94800Y95375D01*
X-94925Y95550D01*
X-94950Y95725D01*
X-94900Y95900D01*
X-94775Y96025D01*
G01X-91250Y110950D02*
Y112450D01*
X-90750D01*
X-90550Y112375D01*
X-90400Y112275D01*
X-90275Y112125D01*
X-90175Y111950D01*
X-90150Y111700D01*
X-90175Y111450D01*
X-90275Y111275D01*
X-90400Y111125D01*
X-90550Y111025D01*
X-90750Y110950D01*
X-91250D01*
G01X-89575Y112200D02*
X-89425Y112350D01*
X-89250Y112425D01*
X-89050Y112450D01*
X-88800Y112400D01*
X-88625Y112275D01*
X-88575Y112125D01*
X-88600Y111975D01*
X-88700Y111850D01*
X-89200Y111600D01*
X-89425Y111425D01*
X-89575Y111175D01*
X-89625Y110950D01*
X-88575D01*
G01X-96200Y122250D02*
X-96075Y122100D01*
X-95925Y122000D01*
X-95750Y121950D01*
X-95550Y122000D01*
X-95400Y122100D01*
X-95250Y122250D01*
X-95200Y122450D01*
Y123450D01*
G01X-94100Y121950D02*
Y123450D01*
X-94400Y123150D01*
G01Y121950D02*
X-93800D01*
G01X-78550Y-71100D02*
X-80050D01*
Y-70475D01*
X-79975Y-70275D01*
X-79875Y-70150D01*
X-79675Y-70100D01*
X-79475Y-70150D01*
X-79350Y-70300D01*
X-79275Y-70475D01*
Y-71100D01*
G01Y-70475D02*
X-78550Y-70100D01*
G01Y-69050D02*
X-78875Y-69000D01*
X-79150Y-68925D01*
X-79400Y-68825D01*
X-79675Y-68700D01*
X-80050Y-68500D01*
Y-69500D01*
G01X-79175Y-67875D02*
X-79350Y-67700D01*
X-79450Y-67550D01*
X-79500Y-67350D01*
X-79450Y-67175D01*
X-79350Y-67050D01*
X-79200Y-66950D01*
X-79025Y-66925D01*
X-78875Y-66950D01*
X-78725Y-67050D01*
X-78600Y-67200D01*
X-78550Y-67375D01*
X-78600Y-67575D01*
X-78750Y-67750D01*
X-78975Y-67850D01*
X-79225Y-67875D01*
X-79550Y-67825D01*
X-79725Y-67750D01*
X-79900Y-67625D01*
X-80025Y-67450D01*
X-80050Y-67275D01*
X-80000Y-67100D01*
X-79875Y-66975D01*
G01X-80650Y-71100D02*
X-82150D01*
Y-70475D01*
X-82075Y-70275D01*
X-81975Y-70150D01*
X-81775Y-70100D01*
X-81575Y-70150D01*
X-81450Y-70300D01*
X-81375Y-70475D01*
Y-71100D01*
G01Y-70475D02*
X-80650Y-70100D01*
G01Y-69050D02*
X-80975Y-69000D01*
X-81250Y-68925D01*
X-81500Y-68825D01*
X-81775Y-68700D01*
X-82150Y-68500D01*
Y-69500D01*
G01X-80950Y-67950D02*
X-80775Y-67800D01*
X-80675Y-67600D01*
X-80650Y-67375D01*
X-80675Y-67175D01*
X-80800Y-66975D01*
X-80950Y-66850D01*
X-81100Y-66825D01*
X-81275Y-66875D01*
X-81400Y-67050D01*
X-81450Y-67225D01*
Y-67450D01*
G01Y-67225D02*
X-81525Y-67075D01*
X-81650Y-66950D01*
X-81800Y-66900D01*
X-81950Y-66950D01*
X-82075Y-67075D01*
X-82150Y-67300D01*
X-82125Y-67525D01*
X-82025Y-67750D01*
G01X-81925Y-57550D02*
X-82000Y-57700D01*
X-82050Y-57875D01*
Y-58075D01*
X-81975Y-58300D01*
X-81850Y-58475D01*
X-81700Y-58600D01*
X-81450Y-58700D01*
X-81225Y-58725D01*
X-81000Y-58675D01*
X-80850Y-58600D01*
X-80700Y-58450D01*
X-80600Y-58275D01*
X-80550Y-58100D01*
Y-57925D01*
X-80600Y-57750D01*
X-80675Y-57600D01*
X-80775Y-57475D01*
G01X-80550Y-56500D02*
X-82050D01*
X-81750Y-56800D01*
G01X-80550D02*
Y-56200D01*
G01X-80725Y-55325D02*
X-80600Y-55150D01*
X-80550Y-54950D01*
X-80600Y-54750D01*
X-80750Y-54575D01*
X-80975Y-54450D01*
X-81200Y-54400D01*
X-81475D01*
X-81700Y-54450D01*
X-81900Y-54575D01*
X-82000Y-54725D01*
X-82050Y-54900D01*
X-82000Y-55100D01*
X-81900Y-55250D01*
X-81750Y-55350D01*
X-81550Y-55400D01*
X-81375Y-55350D01*
X-81200Y-55225D01*
X-81100Y-55075D01*
X-81075Y-54900D01*
X-81125Y-54700D01*
X-81250Y-54550D01*
X-81475Y-54400D01*
G01X-82050Y-53300D02*
X-82000Y-53500D01*
X-81875Y-53650D01*
X-81725Y-53750D01*
X-81525Y-53825D01*
X-81300Y-53850D01*
X-81075Y-53825D01*
X-80875Y-53750D01*
X-80725Y-53650D01*
X-80600Y-53500D01*
X-80550Y-53300D01*
X-80600Y-53100D01*
X-80725Y-52950D01*
X-80875Y-52850D01*
X-81075Y-52775D01*
X-81300Y-52750D01*
X-81525Y-52775D01*
X-81725Y-52850D01*
X-81875Y-52950D01*
X-82000Y-53100D01*
X-82050Y-53300D01*
G01X-74750Y-51750D02*
Y-52825D01*
X-74650Y-53050D01*
X-74450Y-53200D01*
X-74200Y-53250D01*
X-73950Y-53200D01*
X-73750Y-53050D01*
X-73650Y-52825D01*
Y-51750D01*
G01X-72600Y-53250D02*
Y-51750D01*
X-72900Y-52050D01*
G01Y-53250D02*
X-72300D01*
G01X-70700D02*
Y-51750D01*
X-71625Y-52825D01*
X-70375D01*
G01X-73425Y-23250D02*
X-73500Y-23400D01*
X-73550Y-23575D01*
Y-23775D01*
X-73475Y-24000D01*
X-73350Y-24175D01*
X-73200Y-24300D01*
X-72950Y-24400D01*
X-72725Y-24425D01*
X-72500Y-24375D01*
X-72350Y-24300D01*
X-72200Y-24150D01*
X-72100Y-23975D01*
X-72050Y-23800D01*
Y-23625D01*
X-72100Y-23450D01*
X-72175Y-23300D01*
X-72275Y-23175D01*
G01X-72050Y-22200D02*
X-73550D01*
X-73250Y-22500D01*
G01X-72050D02*
Y-21900D01*
G01Y-20600D02*
X-72075Y-20425D01*
X-72150Y-20225D01*
X-72275Y-20100D01*
X-72450Y-20050D01*
X-72625Y-20100D01*
X-72775Y-20250D01*
X-72850Y-20475D01*
Y-20725D01*
X-72900Y-20875D01*
X-73025Y-21000D01*
X-73200Y-21050D01*
X-73375Y-20975D01*
X-73500Y-20800D01*
X-73550Y-20600D01*
X-73500Y-20400D01*
X-73375Y-20225D01*
X-73200Y-20150D01*
X-73025Y-20200D01*
X-72900Y-20325D01*
X-72850Y-20475D01*
Y-20725D01*
X-72775Y-20950D01*
X-72625Y-21100D01*
X-72450Y-21150D01*
X-72275Y-21100D01*
X-72150Y-20975D01*
X-72075Y-20775D01*
X-72050Y-20600D01*
G01X-72275Y-19550D02*
X-72150Y-19400D01*
X-72075Y-19225D01*
X-72050Y-19000D01*
X-72100Y-18775D01*
X-72200Y-18600D01*
X-72375Y-18475D01*
X-72575Y-18450D01*
X-72775Y-18500D01*
X-72900Y-18625D01*
X-73000Y-18800D01*
X-73025Y-18975D01*
X-73000Y-19150D01*
X-72900Y-19375D01*
X-73550Y-19300D01*
Y-18625D01*
G01X-81500Y-19250D02*
Y-20750D01*
X-80500D01*
G01X-79875Y-19500D02*
X-79725Y-19350D01*
X-79550Y-19275D01*
X-79350Y-19250D01*
X-79100Y-19300D01*
X-78925Y-19425D01*
X-78875Y-19575D01*
X-78900Y-19725D01*
X-79000Y-19850D01*
X-79500Y-20100D01*
X-79725Y-20275D01*
X-79875Y-20525D01*
X-79925Y-20750D01*
X-78875D01*
G01X-78275Y-19500D02*
X-78125Y-19350D01*
X-77950Y-19275D01*
X-77750Y-19250D01*
X-77500Y-19300D01*
X-77325Y-19425D01*
X-77275Y-19575D01*
X-77300Y-19725D01*
X-77400Y-19850D01*
X-77900Y-20100D01*
X-78125Y-20275D01*
X-78275Y-20525D01*
X-78325Y-20750D01*
X-77275D01*
G01X-75150Y-8575D02*
X-75300Y-8500D01*
X-75475Y-8450D01*
X-75675D01*
X-75900Y-8525D01*
X-76075Y-8650D01*
X-76200Y-8800D01*
X-76300Y-9050D01*
X-76325Y-9275D01*
X-76275Y-9500D01*
X-76200Y-9650D01*
X-76050Y-9800D01*
X-75875Y-9900D01*
X-75700Y-9950D01*
X-75525D01*
X-75350Y-9900D01*
X-75200Y-9825D01*
X-75075Y-9725D01*
G01X-74650Y-9650D02*
X-74500Y-9825D01*
X-74300Y-9925D01*
X-74075Y-9950D01*
X-73875Y-9925D01*
X-73675Y-9800D01*
X-73550Y-9650D01*
X-73525Y-9500D01*
X-73575Y-9325D01*
X-73750Y-9200D01*
X-73925Y-9150D01*
X-74150D01*
G01X-73925D02*
X-73775Y-9075D01*
X-73650Y-8950D01*
X-73600Y-8800D01*
X-73650Y-8650D01*
X-73775Y-8525D01*
X-74000Y-8450D01*
X-74225Y-8475D01*
X-74450Y-8575D01*
G01X-75555Y3885D02*
X-76616Y4945D01*
X-76174Y5387D01*
X-75979Y5476D01*
X-75820Y5493D01*
X-75644Y5387D01*
X-75538Y5211D01*
X-75555Y5016D01*
X-75626Y4839D01*
X-76068Y4397D01*
G01X-75626Y4839D02*
X-74848Y4592D01*
G01X-74071Y5369D02*
X-73965Y5511D01*
X-73876Y5705D01*
Y5882D01*
X-73965Y6041D01*
X-74124Y6129D01*
X-74336D01*
X-74548Y6023D01*
X-74725Y5847D01*
X-74866Y5776D01*
X-75043D01*
X-75202Y5864D01*
X-75273Y6041D01*
X-75237Y6253D01*
X-75131Y6430D01*
X-74955Y6536D01*
X-74742Y6571D01*
X-74566Y6501D01*
X-74477Y6342D01*
Y6165D01*
X-74548Y6023D01*
X-74725Y5847D01*
X-74831Y5634D01*
Y5422D01*
X-74742Y5263D01*
X-74583Y5175D01*
X-74407D01*
X-74212Y5263D01*
X-74071Y5369D01*
G01X-72940Y6500D02*
X-74000Y7561D01*
Y7137D01*
G01X-73152Y6288D02*
X-72728Y6712D01*
G01X-72560Y9611D02*
X-72542Y9735D01*
X-72578Y9877D01*
X-72666Y10036D01*
X-72807Y10106D01*
X-72949D01*
X-73126Y10036D01*
X-73603Y9558D01*
X-72542Y8498D01*
X-71959Y9081D01*
X-71906Y9276D01*
X-71941Y9452D01*
X-72030Y9611D01*
X-72189Y9700D01*
X-72401D01*
X-72560Y9611D01*
X-73108Y9063D01*
G01X-70793Y10247D02*
X-71853Y11308D01*
X-71747Y9894D01*
X-70863Y10778D01*
G01X-79885Y12199D02*
X-80044Y12146D01*
X-80203Y12058D01*
X-80345Y11917D01*
X-80451Y11704D01*
X-80486Y11492D01*
X-80468Y11298D01*
X-80362Y11050D01*
X-80221Y10874D01*
X-80026Y10750D01*
X-79867Y10697D01*
X-79655D01*
X-79461Y10750D01*
X-79302Y10838D01*
X-79178Y10962D01*
X-79090Y11121D01*
X-79036Y11280D01*
X-79019Y11439D01*
G01X-78171Y11969D02*
X-79231Y13030D01*
Y12606D01*
G01X-78383Y11757D02*
X-77959Y12181D01*
G01X-78100Y14161D02*
X-78206Y13984D01*
X-78224Y13790D01*
X-78189Y13613D01*
X-78100Y13419D01*
X-77959Y13242D01*
X-77782Y13100D01*
X-77588Y13012D01*
X-77411Y12977D01*
X-77216Y12994D01*
X-77040Y13100D01*
X-76934Y13277D01*
X-76916Y13472D01*
X-76951Y13648D01*
X-77040Y13843D01*
X-77181Y14020D01*
X-77358Y14161D01*
X-77552Y14249D01*
X-77729Y14285D01*
X-77924Y14267D01*
X-78100Y14161D01*
G01X-72625Y21850D02*
X-72700Y21700D01*
X-72750Y21525D01*
Y21325D01*
X-72675Y21100D01*
X-72550Y20925D01*
X-72400Y20800D01*
X-72150Y20700D01*
X-71925Y20675D01*
X-71700Y20725D01*
X-71550Y20800D01*
X-71400Y20950D01*
X-71300Y21125D01*
X-71250Y21300D01*
Y21475D01*
X-71300Y21650D01*
X-71375Y21800D01*
X-71475Y21925D01*
G01X-71550Y22350D02*
X-71375Y22500D01*
X-71275Y22700D01*
X-71250Y22925D01*
X-71275Y23125D01*
X-71400Y23325D01*
X-71550Y23450D01*
X-71700Y23475D01*
X-71875Y23425D01*
X-72000Y23250D01*
X-72050Y23075D01*
Y22850D01*
G01Y23075D02*
X-72125Y23225D01*
X-72250Y23350D01*
X-72400Y23400D01*
X-72550Y23350D01*
X-72675Y23225D01*
X-72750Y23000D01*
X-72725Y22775D01*
X-72625Y22550D01*
G01X-71550Y23950D02*
X-71375Y24100D01*
X-71275Y24300D01*
X-71250Y24525D01*
X-71275Y24725D01*
X-71400Y24925D01*
X-71550Y25050D01*
X-71700Y25075D01*
X-71875Y25025D01*
X-72000Y24850D01*
X-72050Y24675D01*
Y24450D01*
G01Y24675D02*
X-72125Y24825D01*
X-72250Y24950D01*
X-72400Y25000D01*
X-72550Y24950D01*
X-72675Y24825D01*
X-72750Y24600D01*
X-72725Y24375D01*
X-72625Y24150D01*
G01X-75250Y20900D02*
X-73750D01*
Y21900D01*
G01X-74375Y22525D02*
X-74550Y22700D01*
X-74650Y22850D01*
X-74700Y23050D01*
X-74650Y23225D01*
X-74550Y23350D01*
X-74400Y23450D01*
X-74225Y23475D01*
X-74075Y23450D01*
X-73925Y23350D01*
X-73800Y23200D01*
X-73750Y23025D01*
X-73800Y22825D01*
X-73950Y22650D01*
X-74175Y22550D01*
X-74425Y22525D01*
X-74750Y22575D01*
X-74925Y22650D01*
X-75100Y22775D01*
X-75225Y22950D01*
X-75250Y23125D01*
X-75200Y23300D01*
X-75075Y23425D01*
G01X-73950Y27025D02*
X-74100Y27100D01*
X-74275Y27150D01*
X-74475D01*
X-74700Y27075D01*
X-74875Y26950D01*
X-75000Y26800D01*
X-75100Y26550D01*
X-75125Y26325D01*
X-75075Y26100D01*
X-75000Y25950D01*
X-74850Y25800D01*
X-74675Y25700D01*
X-74500Y25650D01*
X-74325D01*
X-74150Y25700D01*
X-74000Y25775D01*
X-73875Y25875D01*
G01X-73450Y25950D02*
X-73300Y25775D01*
X-73100Y25675D01*
X-72875Y25650D01*
X-72675Y25675D01*
X-72475Y25800D01*
X-72350Y25950D01*
X-72325Y26100D01*
X-72375Y26275D01*
X-72550Y26400D01*
X-72725Y26450D01*
X-72950D01*
G01X-72725D02*
X-72575Y26525D01*
X-72450Y26650D01*
X-72400Y26800D01*
X-72450Y26950D01*
X-72575Y27075D01*
X-72800Y27150D01*
X-73025Y27125D01*
X-73250Y27025D01*
G01X-71000Y25650D02*
Y27150D01*
X-71925Y26075D01*
X-70675D01*
G01X-73650Y33300D02*
X-75150D01*
Y33925D01*
X-75075Y34125D01*
X-74975Y34250D01*
X-74775Y34300D01*
X-74575Y34250D01*
X-74450Y34100D01*
X-74375Y33925D01*
Y33300D01*
G01Y33925D02*
X-73650Y34300D01*
G01Y35400D02*
X-73675Y35575D01*
X-73750Y35775D01*
X-73875Y35900D01*
X-74050Y35950D01*
X-74225Y35900D01*
X-74375Y35750D01*
X-74450Y35525D01*
Y35275D01*
X-74500Y35125D01*
X-74625Y35000D01*
X-74800Y34950D01*
X-74975Y35025D01*
X-75100Y35200D01*
X-75150Y35400D01*
X-75100Y35600D01*
X-74975Y35775D01*
X-74800Y35850D01*
X-74625Y35800D01*
X-74500Y35675D01*
X-74450Y35525D01*
Y35275D01*
X-74375Y35050D01*
X-74225Y34900D01*
X-74050Y34850D01*
X-73875Y34900D01*
X-73750Y35025D01*
X-73675Y35225D01*
X-73650Y35400D01*
G01X-73825Y36575D02*
X-73700Y36750D01*
X-73650Y36950D01*
X-73700Y37150D01*
X-73850Y37325D01*
X-74075Y37450D01*
X-74300Y37500D01*
X-74575D01*
X-74800Y37450D01*
X-75000Y37325D01*
X-75100Y37175D01*
X-75150Y37000D01*
X-75100Y36800D01*
X-75000Y36650D01*
X-74850Y36550D01*
X-74650Y36500D01*
X-74475Y36550D01*
X-74300Y36675D01*
X-74200Y36825D01*
X-74175Y37000D01*
X-74225Y37200D01*
X-74350Y37350D01*
X-74575Y37500D01*
G01X-76150Y30425D02*
X-76300Y30500D01*
X-76475Y30550D01*
X-76675D01*
X-76900Y30475D01*
X-77075Y30350D01*
X-77200Y30200D01*
X-77300Y29950D01*
X-77325Y29725D01*
X-77275Y29500D01*
X-77200Y29350D01*
X-77050Y29200D01*
X-76875Y29100D01*
X-76700Y29050D01*
X-76525D01*
X-76350Y29100D01*
X-76200Y29175D01*
X-76075Y29275D01*
G01X-75575Y30300D02*
X-75425Y30450D01*
X-75250Y30525D01*
X-75050Y30550D01*
X-74800Y30500D01*
X-74625Y30375D01*
X-74575Y30225D01*
X-74600Y30075D01*
X-74700Y29950D01*
X-75200Y29700D01*
X-75425Y29525D01*
X-75575Y29275D01*
X-75625Y29050D01*
X-74575D01*
G01X-73500D02*
Y30550D01*
X-73800Y30250D01*
G01Y29050D02*
X-73200D01*
G01X-71900D02*
X-71725Y29075D01*
X-71525Y29150D01*
X-71400Y29275D01*
X-71350Y29450D01*
X-71400Y29625D01*
X-71550Y29775D01*
X-71775Y29850D01*
X-72025D01*
X-72175Y29900D01*
X-72300Y30025D01*
X-72350Y30200D01*
X-72275Y30375D01*
X-72100Y30500D01*
X-71900Y30550D01*
X-71700Y30500D01*
X-71525Y30375D01*
X-71450Y30200D01*
X-71500Y30025D01*
X-71625Y29900D01*
X-71775Y29850D01*
X-72025D01*
X-72250Y29775D01*
X-72400Y29625D01*
X-72450Y29450D01*
X-72400Y29275D01*
X-72275Y29150D01*
X-72075Y29075D01*
X-71900Y29050D01*
G01X-72125Y82550D02*
X-72200Y82400D01*
X-72250Y82225D01*
Y82025D01*
X-72175Y81800D01*
X-72050Y81625D01*
X-71900Y81500D01*
X-71650Y81400D01*
X-71425Y81375D01*
X-71200Y81425D01*
X-71050Y81500D01*
X-70900Y81650D01*
X-70800Y81825D01*
X-70750Y82000D01*
Y82175D01*
X-70800Y82350D01*
X-70875Y82500D01*
X-70975Y82625D01*
G01X-72000Y83125D02*
X-72150Y83275D01*
X-72225Y83450D01*
X-72250Y83650D01*
X-72200Y83900D01*
X-72075Y84075D01*
X-71925Y84125D01*
X-71775Y84100D01*
X-71650Y84000D01*
X-71400Y83500D01*
X-71225Y83275D01*
X-70975Y83125D01*
X-70750Y83075D01*
Y84125D01*
G01Y85200D02*
X-72250D01*
X-71950Y84900D01*
G01X-70750D02*
Y85500D01*
G01Y86750D02*
X-71075Y86800D01*
X-71350Y86875D01*
X-71600Y86975D01*
X-71875Y87100D01*
X-72250Y87300D01*
Y86300D01*
G01X-78450Y75450D02*
X-77375D01*
X-77150Y75550D01*
X-77000Y75750D01*
X-76950Y76000D01*
X-77000Y76250D01*
X-77150Y76450D01*
X-77375Y76550D01*
X-78450D01*
G01X-76950Y77600D02*
X-78450D01*
X-78150Y77300D01*
G01X-76950D02*
Y77900D01*
G01X-77575Y78725D02*
X-77750Y78900D01*
X-77850Y79050D01*
X-77900Y79250D01*
X-77850Y79425D01*
X-77750Y79550D01*
X-77600Y79650D01*
X-77425Y79675D01*
X-77275Y79650D01*
X-77125Y79550D01*
X-77000Y79400D01*
X-76950Y79225D01*
X-77000Y79025D01*
X-77150Y78850D01*
X-77375Y78750D01*
X-77625Y78725D01*
X-77950Y78775D01*
X-78125Y78850D01*
X-78300Y78975D01*
X-78425Y79150D01*
X-78450Y79325D01*
X-78400Y79500D01*
X-78275Y79625D01*
G01X-78625Y92950D02*
X-78700Y92800D01*
X-78750Y92625D01*
Y92425D01*
X-78675Y92200D01*
X-78550Y92025D01*
X-78400Y91900D01*
X-78150Y91800D01*
X-77925Y91775D01*
X-77700Y91825D01*
X-77550Y91900D01*
X-77400Y92050D01*
X-77300Y92225D01*
X-77250Y92400D01*
Y92575D01*
X-77300Y92750D01*
X-77375Y92900D01*
X-77475Y93025D01*
G01X-78500Y93525D02*
X-78650Y93675D01*
X-78725Y93850D01*
X-78750Y94050D01*
X-78700Y94300D01*
X-78575Y94475D01*
X-78425Y94525D01*
X-78275Y94500D01*
X-78150Y94400D01*
X-77900Y93900D01*
X-77725Y93675D01*
X-77475Y93525D01*
X-77250Y93475D01*
Y94525D01*
G01Y95600D02*
X-77275Y95775D01*
X-77350Y95975D01*
X-77475Y96100D01*
X-77650Y96150D01*
X-77825Y96100D01*
X-77975Y95950D01*
X-78050Y95725D01*
Y95475D01*
X-78100Y95325D01*
X-78225Y95200D01*
X-78400Y95150D01*
X-78575Y95225D01*
X-78700Y95400D01*
X-78750Y95600D01*
X-78700Y95800D01*
X-78575Y95975D01*
X-78400Y96050D01*
X-78225Y96000D01*
X-78100Y95875D01*
X-78050Y95725D01*
Y95475D01*
X-77975Y95250D01*
X-77825Y95100D01*
X-77650Y95050D01*
X-77475Y95100D01*
X-77350Y95225D01*
X-77275Y95425D01*
X-77250Y95600D01*
G01X-61850Y-134150D02*
X-63350D01*
Y-133650D01*
X-63275Y-133450D01*
X-63175Y-133300D01*
X-63025Y-133175D01*
X-62850Y-133075D01*
X-62600Y-133050D01*
X-62350Y-133075D01*
X-62175Y-133175D01*
X-62025Y-133300D01*
X-61925Y-133450D01*
X-61850Y-133650D01*
Y-134150D01*
G01Y-132000D02*
X-61875Y-131825D01*
X-61950Y-131625D01*
X-62075Y-131500D01*
X-62250Y-131450D01*
X-62425Y-131500D01*
X-62575Y-131650D01*
X-62650Y-131875D01*
Y-132125D01*
X-62700Y-132275D01*
X-62825Y-132400D01*
X-63000Y-132450D01*
X-63175Y-132375D01*
X-63300Y-132200D01*
X-63350Y-132000D01*
X-63300Y-131800D01*
X-63175Y-131625D01*
X-63000Y-131550D01*
X-62825Y-131600D01*
X-62700Y-131725D01*
X-62650Y-131875D01*
Y-132125D01*
X-62575Y-132350D01*
X-62425Y-132500D01*
X-62250Y-132550D01*
X-62075Y-132500D01*
X-61950Y-132375D01*
X-61875Y-132175D01*
X-61850Y-132000D01*
G01X-61350Y-65500D02*
X-62850D01*
Y-64875D01*
X-62775Y-64675D01*
X-62675Y-64550D01*
X-62475Y-64500D01*
X-62275Y-64550D01*
X-62150Y-64700D01*
X-62075Y-64875D01*
Y-65500D01*
G01Y-64875D02*
X-61350Y-64500D01*
G01Y-63450D02*
X-61675Y-63400D01*
X-61950Y-63325D01*
X-62200Y-63225D01*
X-62475Y-63100D01*
X-62850Y-62900D01*
Y-63900D01*
G01X-61350Y-61500D02*
X-62850D01*
X-61775Y-62425D01*
Y-61175D01*
G01X-62625Y-56250D02*
X-62700Y-56400D01*
X-62750Y-56575D01*
Y-56775D01*
X-62675Y-57000D01*
X-62550Y-57175D01*
X-62400Y-57300D01*
X-62150Y-57400D01*
X-61925Y-57425D01*
X-61700Y-57375D01*
X-61550Y-57300D01*
X-61400Y-57150D01*
X-61300Y-56975D01*
X-61250Y-56800D01*
Y-56625D01*
X-61300Y-56450D01*
X-61375Y-56300D01*
X-61475Y-56175D01*
G01X-61250Y-55200D02*
X-62750D01*
X-62450Y-55500D01*
G01X-61250D02*
Y-54900D01*
G01Y-53600D02*
X-61275Y-53425D01*
X-61350Y-53225D01*
X-61475Y-53100D01*
X-61650Y-53050D01*
X-61825Y-53100D01*
X-61975Y-53250D01*
X-62050Y-53475D01*
Y-53725D01*
X-62100Y-53875D01*
X-62225Y-54000D01*
X-62400Y-54050D01*
X-62575Y-53975D01*
X-62700Y-53800D01*
X-62750Y-53600D01*
X-62700Y-53400D01*
X-62575Y-53225D01*
X-62400Y-53150D01*
X-62225Y-53200D01*
X-62100Y-53325D01*
X-62050Y-53475D01*
Y-53725D01*
X-61975Y-53950D01*
X-61825Y-54100D01*
X-61650Y-54150D01*
X-61475Y-54100D01*
X-61350Y-53975D01*
X-61275Y-53775D01*
X-61250Y-53600D01*
G01X-61425Y-52425D02*
X-61300Y-52250D01*
X-61250Y-52050D01*
X-61300Y-51850D01*
X-61450Y-51675D01*
X-61675Y-51550D01*
X-61900Y-51500D01*
X-62175D01*
X-62400Y-51550D01*
X-62600Y-51675D01*
X-62700Y-51825D01*
X-62750Y-52000D01*
X-62700Y-52200D01*
X-62600Y-52350D01*
X-62450Y-52450D01*
X-62250Y-52500D01*
X-62075Y-52450D01*
X-61900Y-52325D01*
X-61800Y-52175D01*
X-61775Y-52000D01*
X-61825Y-51800D01*
X-61950Y-51650D01*
X-62175Y-51500D01*
G01X-67150Y-21100D02*
X-67225Y-21000D01*
X-67350Y-20925D01*
X-67525Y-20875D01*
X-67675Y-20925D01*
X-67775Y-21025D01*
X-67850Y-21200D01*
Y-21875D01*
X-66350D01*
Y-21050D01*
X-66450Y-20875D01*
X-66600Y-20775D01*
X-66775Y-20725D01*
X-66950Y-20775D01*
X-67100Y-20925D01*
X-67150Y-21100D01*
Y-21875D01*
G01X-66350Y-19750D02*
X-66675Y-19700D01*
X-66950Y-19625D01*
X-67200Y-19525D01*
X-67475Y-19400D01*
X-67850Y-19200D01*
Y-20200D01*
G01X-70625Y-23150D02*
X-70700Y-23300D01*
X-70750Y-23475D01*
Y-23675D01*
X-70675Y-23900D01*
X-70550Y-24075D01*
X-70400Y-24200D01*
X-70150Y-24300D01*
X-69925Y-24325D01*
X-69700Y-24275D01*
X-69550Y-24200D01*
X-69400Y-24050D01*
X-69300Y-23875D01*
X-69250Y-23700D01*
Y-23525D01*
X-69300Y-23350D01*
X-69375Y-23200D01*
X-69475Y-23075D01*
G01X-69250Y-22100D02*
X-70750D01*
X-70450Y-22400D01*
G01X-69250D02*
Y-21800D01*
G01Y-20500D02*
X-69275Y-20325D01*
X-69350Y-20125D01*
X-69475Y-20000D01*
X-69650Y-19950D01*
X-69825Y-20000D01*
X-69975Y-20150D01*
X-70050Y-20375D01*
Y-20625D01*
X-70100Y-20775D01*
X-70225Y-20900D01*
X-70400Y-20950D01*
X-70575Y-20875D01*
X-70700Y-20700D01*
X-70750Y-20500D01*
X-70700Y-20300D01*
X-70575Y-20125D01*
X-70400Y-20050D01*
X-70225Y-20100D01*
X-70100Y-20225D01*
X-70050Y-20375D01*
Y-20625D01*
X-69975Y-20850D01*
X-69825Y-21000D01*
X-69650Y-21050D01*
X-69475Y-21000D01*
X-69350Y-20875D01*
X-69275Y-20675D01*
X-69250Y-20500D01*
G01X-69550Y-19450D02*
X-69375Y-19300D01*
X-69275Y-19100D01*
X-69250Y-18875D01*
X-69275Y-18675D01*
X-69400Y-18475D01*
X-69550Y-18350D01*
X-69700Y-18325D01*
X-69875Y-18375D01*
X-70000Y-18550D01*
X-70050Y-18725D01*
Y-18950D01*
G01Y-18725D02*
X-70125Y-18575D01*
X-70250Y-18450D01*
X-70400Y-18400D01*
X-70550Y-18450D01*
X-70675Y-18575D01*
X-70750Y-18800D01*
X-70725Y-19025D01*
X-70625Y-19250D01*
G01X-62550Y-5475D02*
X-62700Y-5400D01*
X-62875Y-5350D01*
X-63075D01*
X-63300Y-5425D01*
X-63475Y-5550D01*
X-63600Y-5700D01*
X-63700Y-5950D01*
X-63725Y-6175D01*
X-63675Y-6400D01*
X-63600Y-6550D01*
X-63450Y-6700D01*
X-63275Y-6800D01*
X-63100Y-6850D01*
X-62925D01*
X-62750Y-6800D01*
X-62600Y-6725D01*
X-62475Y-6625D01*
G01X-61975Y-5600D02*
X-61825Y-5450D01*
X-61650Y-5375D01*
X-61450Y-5350D01*
X-61200Y-5400D01*
X-61025Y-5525D01*
X-60975Y-5675D01*
X-61000Y-5825D01*
X-61100Y-5950D01*
X-61600Y-6200D01*
X-61825Y-6375D01*
X-61975Y-6625D01*
X-62025Y-6850D01*
X-60975D01*
G01X-59900Y-5350D02*
X-60100Y-5400D01*
X-60250Y-5525D01*
X-60350Y-5675D01*
X-60425Y-5875D01*
X-60450Y-6100D01*
X-60425Y-6325D01*
X-60350Y-6525D01*
X-60250Y-6675D01*
X-60100Y-6800D01*
X-59900Y-6850D01*
X-59700Y-6800D01*
X-59550Y-6675D01*
X-59450Y-6525D01*
X-59375Y-6325D01*
X-59350Y-6100D01*
X-59375Y-5875D01*
X-59450Y-5675D01*
X-59550Y-5525D01*
X-59700Y-5400D01*
X-59900Y-5350D01*
G01X-58000Y-6850D02*
Y-5350D01*
X-58925Y-6425D01*
X-57675D01*
G01X-63600Y-4550D02*
Y-3050D01*
X-62975D01*
X-62775Y-3125D01*
X-62650Y-3225D01*
X-62600Y-3425D01*
X-62650Y-3625D01*
X-62800Y-3750D01*
X-62975Y-3825D01*
X-63600D01*
G01X-62975D02*
X-62600Y-4550D01*
G01X-61500D02*
Y-3050D01*
X-61800Y-3350D01*
G01Y-4550D02*
X-61200D01*
G01X-59900D02*
Y-3050D01*
X-60200Y-3350D01*
G01Y-4550D02*
X-59600D01*
G01X-62350Y2975D02*
X-63850Y4025D01*
G01Y2975D02*
X-62350Y4025D01*
G01Y5100D02*
X-63850D01*
X-63550Y4800D01*
G01X-62350D02*
Y5400D01*
G01X-63600Y-2250D02*
Y-750D01*
X-62975D01*
X-62775Y-825D01*
X-62650Y-925D01*
X-62600Y-1125D01*
X-62650Y-1325D01*
X-62800Y-1450D01*
X-62975Y-1525D01*
X-63600D01*
G01X-62975D02*
X-62600Y-2250D01*
G01X-61500D02*
X-61325Y-2225D01*
X-61125Y-2150D01*
X-61000Y-2025D01*
X-60950Y-1850D01*
X-61000Y-1675D01*
X-61150Y-1525D01*
X-61375Y-1450D01*
X-61625D01*
X-61775Y-1400D01*
X-61900Y-1275D01*
X-61950Y-1100D01*
X-61875Y-925D01*
X-61700Y-800D01*
X-61500Y-750D01*
X-61300Y-800D01*
X-61125Y-925D01*
X-61050Y-1100D01*
X-61100Y-1275D01*
X-61225Y-1400D01*
X-61375Y-1450D01*
X-61625D01*
X-61850Y-1525D01*
X-62000Y-1675D01*
X-62050Y-1850D01*
X-62000Y-2025D01*
X-61875Y-2150D01*
X-61675Y-2225D01*
X-61500Y-2250D01*
G01X-60450Y-1950D02*
X-60300Y-2125D01*
X-60100Y-2225D01*
X-59875Y-2250D01*
X-59675Y-2225D01*
X-59475Y-2100D01*
X-59350Y-1950D01*
X-59325Y-1800D01*
X-59375Y-1625D01*
X-59550Y-1500D01*
X-59725Y-1450D01*
X-59950D01*
G01X-59725D02*
X-59575Y-1375D01*
X-59450Y-1250D01*
X-59400Y-1100D01*
X-59450Y-950D01*
X-59575Y-825D01*
X-59800Y-750D01*
X-60025Y-775D01*
X-60250Y-875D01*
G01X-64650Y10025D02*
X-64800Y10100D01*
X-64975Y10150D01*
X-65175D01*
X-65400Y10075D01*
X-65575Y9950D01*
X-65700Y9800D01*
X-65800Y9550D01*
X-65825Y9325D01*
X-65775Y9100D01*
X-65700Y8950D01*
X-65550Y8800D01*
X-65375Y8700D01*
X-65200Y8650D01*
X-65025D01*
X-64850Y8700D01*
X-64700Y8775D01*
X-64575Y8875D01*
G01X-63600Y8650D02*
Y10150D01*
X-63900Y9850D01*
G01Y8650D02*
X-63300D01*
G01X-62425Y8825D02*
X-62250Y8700D01*
X-62050Y8650D01*
X-61850Y8700D01*
X-61675Y8850D01*
X-61550Y9075D01*
X-61500Y9300D01*
Y9575D01*
X-61550Y9800D01*
X-61675Y10000D01*
X-61825Y10100D01*
X-62000Y10150D01*
X-62200Y10100D01*
X-62350Y10000D01*
X-62450Y9850D01*
X-62500Y9650D01*
X-62450Y9475D01*
X-62325Y9300D01*
X-62175Y9200D01*
X-62000Y9175D01*
X-61800Y9225D01*
X-61650Y9350D01*
X-61500Y9575D01*
G01X-68750Y15825D02*
X-68900Y15900D01*
X-69075Y15950D01*
X-69275D01*
X-69500Y15875D01*
X-69675Y15750D01*
X-69800Y15600D01*
X-69900Y15350D01*
X-69925Y15125D01*
X-69875Y14900D01*
X-69800Y14750D01*
X-69650Y14600D01*
X-69475Y14500D01*
X-69300Y14450D01*
X-69125D01*
X-68950Y14500D01*
X-68800Y14575D01*
X-68675Y14675D01*
G01X-68250D02*
X-68100Y14550D01*
X-67925Y14475D01*
X-67700Y14450D01*
X-67475Y14500D01*
X-67300Y14600D01*
X-67175Y14775D01*
X-67150Y14975D01*
X-67200Y15175D01*
X-67325Y15300D01*
X-67500Y15400D01*
X-67675Y15425D01*
X-67850Y15400D01*
X-68075Y15300D01*
X-68000Y15950D01*
X-67325D01*
G01X-70000Y17050D02*
Y18550D01*
X-69375D01*
X-69175Y18475D01*
X-69050Y18375D01*
X-69000Y18175D01*
X-69050Y17975D01*
X-69200Y17850D01*
X-69375Y17775D01*
X-70000D01*
G01X-69375D02*
X-69000Y17050D01*
G01X-68375Y18300D02*
X-68225Y18450D01*
X-68050Y18525D01*
X-67850Y18550D01*
X-67600Y18500D01*
X-67425Y18375D01*
X-67375Y18225D01*
X-67400Y18075D01*
X-67500Y17950D01*
X-68000Y17700D01*
X-68225Y17525D01*
X-68375Y17275D01*
X-68425Y17050D01*
X-67375D01*
G01X-66300Y18550D02*
X-66500Y18500D01*
X-66650Y18375D01*
X-66750Y18225D01*
X-66825Y18025D01*
X-66850Y17800D01*
X-66825Y17575D01*
X-66750Y17375D01*
X-66650Y17225D01*
X-66500Y17100D01*
X-66300Y17050D01*
X-66100Y17100D01*
X-65950Y17225D01*
X-65850Y17375D01*
X-65775Y17575D01*
X-65750Y17800D01*
X-65775Y18025D01*
X-65850Y18225D01*
X-65950Y18375D01*
X-66100Y18500D01*
X-66300Y18550D01*
G01X-67000Y48050D02*
Y49550D01*
X-66375D01*
X-66175Y49475D01*
X-66050Y49375D01*
X-66000Y49175D01*
X-66050Y48975D01*
X-66200Y48850D01*
X-66375Y48775D01*
X-67000D01*
G01X-66375D02*
X-66000Y48050D01*
G01X-65450Y48350D02*
X-65300Y48175D01*
X-65100Y48075D01*
X-64875Y48050D01*
X-64675Y48075D01*
X-64475Y48200D01*
X-64350Y48350D01*
X-64325Y48500D01*
X-64375Y48675D01*
X-64550Y48800D01*
X-64725Y48850D01*
X-64950D01*
G01X-64725D02*
X-64575Y48925D01*
X-64450Y49050D01*
X-64400Y49200D01*
X-64450Y49350D01*
X-64575Y49475D01*
X-64800Y49550D01*
X-65025Y49525D01*
X-65250Y49425D01*
G01X-63350Y48050D02*
X-63300Y48375D01*
X-63225Y48650D01*
X-63125Y48900D01*
X-63000Y49175D01*
X-62800Y49550D01*
X-63800D01*
G01X-66900Y47450D02*
Y45950D01*
X-65900D01*
G01X-64800D02*
Y47450D01*
X-65100Y47150D01*
G01Y45950D02*
X-64500D01*
G01X-63200D02*
X-63025Y45975D01*
X-62825Y46050D01*
X-62700Y46175D01*
X-62650Y46350D01*
X-62700Y46525D01*
X-62850Y46675D01*
X-63075Y46750D01*
X-63325D01*
X-63475Y46800D01*
X-63600Y46925D01*
X-63650Y47100D01*
X-63575Y47275D01*
X-63400Y47400D01*
X-63200Y47450D01*
X-63000Y47400D01*
X-62825Y47275D01*
X-62750Y47100D01*
X-62800Y46925D01*
X-62925Y46800D01*
X-63075Y46750D01*
X-63325D01*
X-63550Y46675D01*
X-63700Y46525D01*
X-63750Y46350D01*
X-63700Y46175D01*
X-63575Y46050D01*
X-63375Y45975D01*
X-63200Y45950D01*
G01X-66050Y45025D02*
X-66200Y45100D01*
X-66375Y45150D01*
X-66575D01*
X-66800Y45075D01*
X-66975Y44950D01*
X-67100Y44800D01*
X-67200Y44550D01*
X-67225Y44325D01*
X-67175Y44100D01*
X-67100Y43950D01*
X-66950Y43800D01*
X-66775Y43700D01*
X-66600Y43650D01*
X-66425D01*
X-66250Y43700D01*
X-66100Y43775D01*
X-65975Y43875D01*
G01X-65050Y43650D02*
X-65000Y43975D01*
X-64925Y44250D01*
X-64825Y44500D01*
X-64700Y44775D01*
X-64500Y45150D01*
X-65500D01*
G01X-63400Y43650D02*
X-63225Y43675D01*
X-63025Y43750D01*
X-62900Y43875D01*
X-62850Y44050D01*
X-62900Y44225D01*
X-63050Y44375D01*
X-63275Y44450D01*
X-63525D01*
X-63675Y44500D01*
X-63800Y44625D01*
X-63850Y44800D01*
X-63775Y44975D01*
X-63600Y45100D01*
X-63400Y45150D01*
X-63200Y45100D01*
X-63025Y44975D01*
X-62950Y44800D01*
X-63000Y44625D01*
X-63125Y44500D01*
X-63275Y44450D01*
X-63525D01*
X-63750Y44375D01*
X-63900Y44225D01*
X-63950Y44050D01*
X-63900Y43875D01*
X-63775Y43750D01*
X-63575Y43675D01*
X-63400Y43650D01*
G01X-60550Y45125D02*
X-60700Y45200D01*
X-60875Y45250D01*
X-61075D01*
X-61300Y45175D01*
X-61475Y45050D01*
X-61600Y44900D01*
X-61700Y44650D01*
X-61725Y44425D01*
X-61675Y44200D01*
X-61600Y44050D01*
X-61450Y43900D01*
X-61275Y43800D01*
X-61100Y43750D01*
X-60925D01*
X-60750Y43800D01*
X-60600Y43875D01*
X-60475Y43975D01*
G01X-59500Y43750D02*
X-59325Y43775D01*
X-59125Y43850D01*
X-59000Y43975D01*
X-58950Y44150D01*
X-59000Y44325D01*
X-59150Y44475D01*
X-59375Y44550D01*
X-59625D01*
X-59775Y44600D01*
X-59900Y44725D01*
X-59950Y44900D01*
X-59875Y45075D01*
X-59700Y45200D01*
X-59500Y45250D01*
X-59300Y45200D01*
X-59125Y45075D01*
X-59050Y44900D01*
X-59100Y44725D01*
X-59225Y44600D01*
X-59375Y44550D01*
X-59625D01*
X-59850Y44475D01*
X-60000Y44325D01*
X-60050Y44150D01*
X-60000Y43975D01*
X-59875Y43850D01*
X-59675Y43775D01*
X-59500Y43750D01*
G01X-57900Y45250D02*
X-58100Y45200D01*
X-58250Y45075D01*
X-58350Y44925D01*
X-58425Y44725D01*
X-58450Y44500D01*
X-58425Y44275D01*
X-58350Y44075D01*
X-58250Y43925D01*
X-58100Y43800D01*
X-57900Y43750D01*
X-57700Y43800D01*
X-57550Y43925D01*
X-57450Y44075D01*
X-57375Y44275D01*
X-57350Y44500D01*
X-57375Y44725D01*
X-57450Y44925D01*
X-57550Y45075D01*
X-57700Y45200D01*
X-57900Y45250D01*
G01X-60700Y48850D02*
X-60600Y48925D01*
X-60525Y49050D01*
X-60475Y49225D01*
X-60525Y49375D01*
X-60625Y49475D01*
X-60800Y49550D01*
X-61475D01*
Y48050D01*
X-60650D01*
X-60475Y48150D01*
X-60375Y48300D01*
X-60325Y48475D01*
X-60375Y48650D01*
X-60525Y48800D01*
X-60700Y48850D01*
X-61475D01*
G01X-59300Y48050D02*
X-59125Y48075D01*
X-58925Y48150D01*
X-58800Y48275D01*
X-58750Y48450D01*
X-58800Y48625D01*
X-58950Y48775D01*
X-59175Y48850D01*
X-59425D01*
X-59575Y48900D01*
X-59700Y49025D01*
X-59750Y49200D01*
X-59675Y49375D01*
X-59500Y49500D01*
X-59300Y49550D01*
X-59100Y49500D01*
X-58925Y49375D01*
X-58850Y49200D01*
X-58900Y49025D01*
X-59025Y48900D01*
X-59175Y48850D01*
X-59425D01*
X-59650Y48775D01*
X-59800Y48625D01*
X-59850Y48450D01*
X-59800Y48275D01*
X-59675Y48150D01*
X-59475Y48075D01*
X-59300Y48050D01*
G01X-66525Y39650D02*
X-66600Y39500D01*
X-66650Y39325D01*
Y39125D01*
X-66575Y38900D01*
X-66450Y38725D01*
X-66300Y38600D01*
X-66050Y38500D01*
X-65825Y38475D01*
X-65600Y38525D01*
X-65450Y38600D01*
X-65300Y38750D01*
X-65200Y38925D01*
X-65150Y39100D01*
Y39275D01*
X-65200Y39450D01*
X-65275Y39600D01*
X-65375Y39725D01*
G01X-65150Y40650D02*
X-65475Y40700D01*
X-65750Y40775D01*
X-66000Y40875D01*
X-66275Y41000D01*
X-66650Y41200D01*
Y40200D01*
G01X-65325Y41875D02*
X-65200Y42050D01*
X-65150Y42250D01*
X-65200Y42450D01*
X-65350Y42625D01*
X-65575Y42750D01*
X-65800Y42800D01*
X-66075D01*
X-66300Y42750D01*
X-66500Y42625D01*
X-66600Y42475D01*
X-66650Y42300D01*
X-66600Y42100D01*
X-66500Y41950D01*
X-66350Y41850D01*
X-66150Y41800D01*
X-65975Y41850D01*
X-65800Y41975D01*
X-65700Y42125D01*
X-65675Y42300D01*
X-65725Y42500D01*
X-65850Y42650D01*
X-66075Y42800D01*
G01X-66650Y62250D02*
X-67725D01*
X-67950Y62150D01*
X-68100Y61950D01*
X-68150Y61700D01*
X-68100Y61450D01*
X-67950Y61250D01*
X-67725Y61150D01*
X-66650D01*
G01X-67975Y60525D02*
X-68100Y60350D01*
X-68150Y60150D01*
X-68100Y59950D01*
X-67950Y59775D01*
X-67725Y59650D01*
X-67500Y59600D01*
X-67225D01*
X-67000Y59650D01*
X-66800Y59775D01*
X-66700Y59925D01*
X-66650Y60100D01*
X-66700Y60300D01*
X-66800Y60450D01*
X-66950Y60550D01*
X-67150Y60600D01*
X-67325Y60550D01*
X-67500Y60425D01*
X-67600Y60275D01*
X-67625Y60100D01*
X-67575Y59900D01*
X-67450Y59750D01*
X-67225Y59600D01*
G01X-70750Y65100D02*
X-69250D01*
Y66100D01*
G01Y67200D02*
X-70750D01*
X-70450Y66900D01*
G01X-69250D02*
Y67500D01*
G01Y68750D02*
X-69575Y68800D01*
X-69850Y68875D01*
X-70100Y68975D01*
X-70375Y69100D01*
X-70750Y69300D01*
Y68300D01*
G01X-70925Y71050D02*
X-71000Y70900D01*
X-71050Y70725D01*
Y70525D01*
X-70975Y70300D01*
X-70850Y70125D01*
X-70700Y70000D01*
X-70450Y69900D01*
X-70225Y69875D01*
X-70000Y69925D01*
X-69850Y70000D01*
X-69700Y70150D01*
X-69600Y70325D01*
X-69550Y70500D01*
Y70675D01*
X-69600Y70850D01*
X-69675Y71000D01*
X-69775Y71125D01*
G01X-69550Y72400D02*
X-71050D01*
X-69975Y71475D01*
Y72725D01*
G01X-69550Y74000D02*
X-71050D01*
X-69975Y73075D01*
Y74325D01*
G01X-67150Y75600D02*
X-68650D01*
Y76225D01*
X-68575Y76425D01*
X-68475Y76550D01*
X-68275Y76600D01*
X-68075Y76550D01*
X-67950Y76400D01*
X-67875Y76225D01*
Y75600D01*
G01Y76225D02*
X-67150Y76600D01*
G01X-67325Y77275D02*
X-67200Y77450D01*
X-67150Y77650D01*
X-67200Y77850D01*
X-67350Y78025D01*
X-67575Y78150D01*
X-67800Y78200D01*
X-68075D01*
X-68300Y78150D01*
X-68500Y78025D01*
X-68600Y77875D01*
X-68650Y77700D01*
X-68600Y77500D01*
X-68500Y77350D01*
X-68350Y77250D01*
X-68150Y77200D01*
X-67975Y77250D01*
X-67800Y77375D01*
X-67700Y77525D01*
X-67675Y77700D01*
X-67725Y77900D01*
X-67850Y78050D01*
X-68075Y78200D01*
G01X-68650Y79300D02*
X-68600Y79100D01*
X-68475Y78950D01*
X-68325Y78850D01*
X-68125Y78775D01*
X-67900Y78750D01*
X-67675Y78775D01*
X-67475Y78850D01*
X-67325Y78950D01*
X-67200Y79100D01*
X-67150Y79300D01*
X-67200Y79500D01*
X-67325Y79650D01*
X-67475Y79750D01*
X-67675Y79825D01*
X-67900Y79850D01*
X-68125Y79825D01*
X-68325Y79750D01*
X-68475Y79650D01*
X-68600Y79500D01*
X-68650Y79300D01*
G01X-47600Y-135550D02*
Y-137050D01*
X-46600D01*
G01X-46050Y-136750D02*
X-45900Y-136925D01*
X-45700Y-137025D01*
X-45475Y-137050D01*
X-45275Y-137025D01*
X-45075Y-136900D01*
X-44950Y-136750D01*
X-44925Y-136600D01*
X-44975Y-136425D01*
X-45150Y-136300D01*
X-45325Y-136250D01*
X-45550D01*
G01X-45325D02*
X-45175Y-136175D01*
X-45050Y-136050D01*
X-45000Y-135900D01*
X-45050Y-135750D01*
X-45175Y-135625D01*
X-45400Y-135550D01*
X-45625Y-135575D01*
X-45850Y-135675D01*
G01X-44375Y-135800D02*
X-44225Y-135650D01*
X-44050Y-135575D01*
X-43850Y-135550D01*
X-43600Y-135600D01*
X-43425Y-135725D01*
X-43375Y-135875D01*
X-43400Y-136025D01*
X-43500Y-136150D01*
X-44000Y-136400D01*
X-44225Y-136575D01*
X-44375Y-136825D01*
X-44425Y-137050D01*
X-43375D01*
G01X-54950Y-121850D02*
X-53875D01*
X-53650Y-121750D01*
X-53500Y-121550D01*
X-53450Y-121300D01*
X-53500Y-121050D01*
X-53650Y-120850D01*
X-53875Y-120750D01*
X-54950D01*
G01X-53450Y-119400D02*
X-54950D01*
X-53875Y-120325D01*
Y-119075D01*
G01X-47050Y-93550D02*
Y-94625D01*
X-46950Y-94850D01*
X-46750Y-95000D01*
X-46500Y-95050D01*
X-46250Y-95000D01*
X-46050Y-94850D01*
X-45950Y-94625D01*
Y-93550D01*
G01X-44900Y-95050D02*
Y-93550D01*
X-45200Y-93850D01*
G01Y-95050D02*
X-44600D01*
G01X-43300D02*
X-43125Y-95025D01*
X-42925Y-94950D01*
X-42800Y-94825D01*
X-42750Y-94650D01*
X-42800Y-94475D01*
X-42950Y-94325D01*
X-43175Y-94250D01*
X-43425D01*
X-43575Y-94200D01*
X-43700Y-94075D01*
X-43750Y-93900D01*
X-43675Y-93725D01*
X-43500Y-93600D01*
X-43300Y-93550D01*
X-43100Y-93600D01*
X-42925Y-93725D01*
X-42850Y-93900D01*
X-42900Y-94075D01*
X-43025Y-94200D01*
X-43175Y-94250D01*
X-43425D01*
X-43650Y-94325D01*
X-43800Y-94475D01*
X-43850Y-94650D01*
X-43800Y-94825D01*
X-43675Y-94950D01*
X-43475Y-95025D01*
X-43300Y-95050D01*
G01X-50400Y-89250D02*
Y-87750D01*
X-49775D01*
X-49575Y-87825D01*
X-49450Y-87925D01*
X-49400Y-88125D01*
X-49450Y-88325D01*
X-49600Y-88450D01*
X-49775Y-88525D01*
X-50400D01*
G01X-49775D02*
X-49400Y-89250D01*
G01X-48300D02*
Y-87750D01*
X-48600Y-88050D01*
G01Y-89250D02*
X-48000D01*
G01X-47250Y-89025D02*
X-47100Y-89150D01*
X-46925Y-89225D01*
X-46700Y-89250D01*
X-46475Y-89200D01*
X-46300Y-89100D01*
X-46175Y-88925D01*
X-46150Y-88725D01*
X-46200Y-88525D01*
X-46325Y-88400D01*
X-46500Y-88300D01*
X-46675Y-88275D01*
X-46850Y-88300D01*
X-47075Y-88400D01*
X-47000Y-87750D01*
X-46325D01*
G01X-45650Y-89025D02*
X-45500Y-89150D01*
X-45325Y-89225D01*
X-45100Y-89250D01*
X-44875Y-89200D01*
X-44700Y-89100D01*
X-44575Y-88925D01*
X-44550Y-88725D01*
X-44600Y-88525D01*
X-44725Y-88400D01*
X-44900Y-88300D01*
X-45075Y-88275D01*
X-45250Y-88300D01*
X-45475Y-88400D01*
X-45400Y-87750D01*
X-44725D01*
G01X-50400Y-91350D02*
Y-89850D01*
X-49775D01*
X-49575Y-89925D01*
X-49450Y-90025D01*
X-49400Y-90225D01*
X-49450Y-90425D01*
X-49600Y-90550D01*
X-49775Y-90625D01*
X-50400D01*
G01X-49775D02*
X-49400Y-91350D01*
G01X-48300D02*
Y-89850D01*
X-48600Y-90150D01*
G01Y-91350D02*
X-48000D01*
G01X-47250Y-91125D02*
X-47100Y-91250D01*
X-46925Y-91325D01*
X-46700Y-91350D01*
X-46475Y-91300D01*
X-46300Y-91200D01*
X-46175Y-91025D01*
X-46150Y-90825D01*
X-46200Y-90625D01*
X-46325Y-90500D01*
X-46500Y-90400D01*
X-46675Y-90375D01*
X-46850Y-90400D01*
X-47075Y-90500D01*
X-47000Y-89850D01*
X-46325D01*
G01X-44800Y-91350D02*
Y-89850D01*
X-45725Y-90925D01*
X-44475D01*
G01X-50400Y-78250D02*
Y-76750D01*
X-49775D01*
X-49575Y-76825D01*
X-49450Y-76925D01*
X-49400Y-77125D01*
X-49450Y-77325D01*
X-49600Y-77450D01*
X-49775Y-77525D01*
X-50400D01*
G01X-49775D02*
X-49400Y-78250D01*
G01X-48300D02*
Y-76750D01*
X-48600Y-77050D01*
G01Y-78250D02*
X-48000D01*
G01X-47250Y-78025D02*
X-47100Y-78150D01*
X-46925Y-78225D01*
X-46700Y-78250D01*
X-46475Y-78200D01*
X-46300Y-78100D01*
X-46175Y-77925D01*
X-46150Y-77725D01*
X-46200Y-77525D01*
X-46325Y-77400D01*
X-46500Y-77300D01*
X-46675Y-77275D01*
X-46850Y-77300D01*
X-47075Y-77400D01*
X-47000Y-76750D01*
X-46325D01*
G01X-45575Y-77625D02*
X-45400Y-77450D01*
X-45250Y-77350D01*
X-45050Y-77300D01*
X-44875Y-77350D01*
X-44750Y-77450D01*
X-44650Y-77600D01*
X-44625Y-77775D01*
X-44650Y-77925D01*
X-44750Y-78075D01*
X-44900Y-78200D01*
X-45075Y-78250D01*
X-45275Y-78200D01*
X-45450Y-78050D01*
X-45550Y-77825D01*
X-45575Y-77575D01*
X-45525Y-77250D01*
X-45450Y-77075D01*
X-45325Y-76900D01*
X-45150Y-76775D01*
X-44975Y-76750D01*
X-44800Y-76800D01*
X-44675Y-76925D01*
G01X-50400Y-76150D02*
Y-74650D01*
X-49775D01*
X-49575Y-74725D01*
X-49450Y-74825D01*
X-49400Y-75025D01*
X-49450Y-75225D01*
X-49600Y-75350D01*
X-49775Y-75425D01*
X-50400D01*
G01X-49775D02*
X-49400Y-76150D01*
G01X-48300D02*
Y-74650D01*
X-48600Y-74950D01*
G01Y-76150D02*
X-48000D01*
G01X-47250Y-75925D02*
X-47100Y-76050D01*
X-46925Y-76125D01*
X-46700Y-76150D01*
X-46475Y-76100D01*
X-46300Y-76000D01*
X-46175Y-75825D01*
X-46150Y-75625D01*
X-46200Y-75425D01*
X-46325Y-75300D01*
X-46500Y-75200D01*
X-46675Y-75175D01*
X-46850Y-75200D01*
X-47075Y-75300D01*
X-47000Y-74650D01*
X-46325D01*
G01X-45650Y-75850D02*
X-45500Y-76025D01*
X-45300Y-76125D01*
X-45075Y-76150D01*
X-44875Y-76125D01*
X-44675Y-76000D01*
X-44550Y-75850D01*
X-44525Y-75700D01*
X-44575Y-75525D01*
X-44750Y-75400D01*
X-44925Y-75350D01*
X-45150D01*
G01X-44925D02*
X-44775Y-75275D01*
X-44650Y-75150D01*
X-44600Y-75000D01*
X-44650Y-74850D01*
X-44775Y-74725D01*
X-45000Y-74650D01*
X-45225Y-74675D01*
X-45450Y-74775D01*
G01X-55550Y-64150D02*
X-57050D01*
Y-63650D01*
X-56975Y-63450D01*
X-56875Y-63300D01*
X-56725Y-63175D01*
X-56550Y-63075D01*
X-56300Y-63050D01*
X-56050Y-63075D01*
X-55875Y-63175D01*
X-55725Y-63300D01*
X-55625Y-63450D01*
X-55550Y-63650D01*
Y-64150D01*
G01X-56175Y-62475D02*
X-56350Y-62300D01*
X-56450Y-62150D01*
X-56500Y-61950D01*
X-56450Y-61775D01*
X-56350Y-61650D01*
X-56200Y-61550D01*
X-56025Y-61525D01*
X-55875Y-61550D01*
X-55725Y-61650D01*
X-55600Y-61800D01*
X-55550Y-61975D01*
X-55600Y-62175D01*
X-55750Y-62350D01*
X-55975Y-62450D01*
X-56225Y-62475D01*
X-56550Y-62425D01*
X-56725Y-62350D01*
X-56900Y-62225D01*
X-57025Y-62050D01*
X-57050Y-61875D01*
X-57000Y-61700D01*
X-56875Y-61575D01*
G01X-55750Y-59500D02*
X-57250D01*
Y-58875D01*
X-57175Y-58675D01*
X-57075Y-58550D01*
X-56875Y-58500D01*
X-56675Y-58550D01*
X-56550Y-58700D01*
X-56475Y-58875D01*
Y-59500D01*
G01Y-58875D02*
X-55750Y-58500D01*
G01Y-57400D02*
X-57250D01*
X-56950Y-57700D01*
G01X-55750D02*
Y-57100D01*
G01Y-55500D02*
X-57250D01*
X-56175Y-56425D01*
Y-55175D01*
G01X-47200Y-38350D02*
X-47075Y-38500D01*
X-46925Y-38600D01*
X-46750Y-38650D01*
X-46550Y-38600D01*
X-46400Y-38500D01*
X-46250Y-38350D01*
X-46200Y-38150D01*
Y-37150D01*
G01X-45575Y-38025D02*
X-45400Y-37850D01*
X-45250Y-37750D01*
X-45050Y-37700D01*
X-44875Y-37750D01*
X-44750Y-37850D01*
X-44650Y-38000D01*
X-44625Y-38175D01*
X-44650Y-38325D01*
X-44750Y-38475D01*
X-44900Y-38600D01*
X-45075Y-38650D01*
X-45275Y-38600D01*
X-45450Y-38450D01*
X-45550Y-38225D01*
X-45575Y-37975D01*
X-45525Y-37650D01*
X-45450Y-37475D01*
X-45325Y-37300D01*
X-45150Y-37175D01*
X-44975Y-37150D01*
X-44800Y-37200D01*
X-44675Y-37325D01*
G01X-57225Y-3350D02*
X-57300Y-3500D01*
X-57350Y-3675D01*
Y-3875D01*
X-57275Y-4100D01*
X-57150Y-4275D01*
X-57000Y-4400D01*
X-56750Y-4500D01*
X-56525Y-4525D01*
X-56300Y-4475D01*
X-56150Y-4400D01*
X-56000Y-4250D01*
X-55900Y-4075D01*
X-55850Y-3900D01*
Y-3725D01*
X-55900Y-3550D01*
X-55975Y-3400D01*
X-56075Y-3275D01*
G01X-55850Y-2300D02*
X-57350D01*
X-57050Y-2600D01*
G01X-55850D02*
Y-2000D01*
G01X-56025Y-1125D02*
X-55900Y-950D01*
X-55850Y-750D01*
X-55900Y-550D01*
X-56050Y-375D01*
X-56275Y-250D01*
X-56500Y-200D01*
X-56775D01*
X-57000Y-250D01*
X-57200Y-375D01*
X-57300Y-525D01*
X-57350Y-700D01*
X-57300Y-900D01*
X-57200Y-1050D01*
X-57050Y-1150D01*
X-56850Y-1200D01*
X-56675Y-1150D01*
X-56500Y-1025D01*
X-56400Y-875D01*
X-56375Y-700D01*
X-56425Y-500D01*
X-56550Y-350D01*
X-56775Y-200D01*
G01X-55850Y900D02*
X-57350D01*
X-57050Y600D01*
G01X-55850D02*
Y1200D01*
G01X-54725Y-3350D02*
X-54800Y-3500D01*
X-54850Y-3675D01*
Y-3875D01*
X-54775Y-4100D01*
X-54650Y-4275D01*
X-54500Y-4400D01*
X-54250Y-4500D01*
X-54025Y-4525D01*
X-53800Y-4475D01*
X-53650Y-4400D01*
X-53500Y-4250D01*
X-53400Y-4075D01*
X-53350Y-3900D01*
Y-3725D01*
X-53400Y-3550D01*
X-53475Y-3400D01*
X-53575Y-3275D01*
G01X-53350Y-2300D02*
X-54850D01*
X-54550Y-2600D01*
G01X-53350D02*
Y-2000D01*
G01Y-700D02*
X-53375Y-525D01*
X-53450Y-325D01*
X-53575Y-200D01*
X-53750Y-150D01*
X-53925Y-200D01*
X-54075Y-350D01*
X-54150Y-575D01*
Y-825D01*
X-54200Y-975D01*
X-54325Y-1100D01*
X-54500Y-1150D01*
X-54675Y-1075D01*
X-54800Y-900D01*
X-54850Y-700D01*
X-54800Y-500D01*
X-54675Y-325D01*
X-54500Y-250D01*
X-54325Y-300D01*
X-54200Y-425D01*
X-54150Y-575D01*
Y-825D01*
X-54075Y-1050D01*
X-53925Y-1200D01*
X-53750Y-1250D01*
X-53575Y-1200D01*
X-53450Y-1075D01*
X-53375Y-875D01*
X-53350Y-700D01*
G01X-56150Y49425D02*
X-56300Y49500D01*
X-56475Y49550D01*
X-56675D01*
X-56900Y49475D01*
X-57075Y49350D01*
X-57200Y49200D01*
X-57300Y48950D01*
X-57325Y48725D01*
X-57275Y48500D01*
X-57200Y48350D01*
X-57050Y48200D01*
X-56875Y48100D01*
X-56700Y48050D01*
X-56525D01*
X-56350Y48100D01*
X-56200Y48175D01*
X-56075Y48275D01*
G01X-55150Y48050D02*
X-55100Y48375D01*
X-55025Y48650D01*
X-54925Y48900D01*
X-54800Y49175D01*
X-54600Y49550D01*
X-55600D01*
G01X-53975Y48675D02*
X-53800Y48850D01*
X-53650Y48950D01*
X-53450Y49000D01*
X-53275Y48950D01*
X-53150Y48850D01*
X-53050Y48700D01*
X-53025Y48525D01*
X-53050Y48375D01*
X-53150Y48225D01*
X-53300Y48100D01*
X-53475Y48050D01*
X-53675Y48100D01*
X-53850Y48250D01*
X-53950Y48475D01*
X-53975Y48725D01*
X-53925Y49050D01*
X-53850Y49225D01*
X-53725Y49400D01*
X-53550Y49525D01*
X-53375Y49550D01*
X-53200Y49500D01*
X-53075Y49375D01*
G01X-39650Y-110450D02*
X-38575D01*
X-38350Y-110350D01*
X-38200Y-110150D01*
X-38150Y-109900D01*
X-38200Y-109650D01*
X-38350Y-109450D01*
X-38575Y-109350D01*
X-39650D01*
G01X-38350Y-108825D02*
X-38225Y-108625D01*
X-38150Y-108400D01*
Y-108200D01*
X-38225Y-108000D01*
X-38350Y-107850D01*
X-38525Y-107775D01*
X-38700Y-107825D01*
X-38850Y-107950D01*
X-38950Y-108175D01*
X-39000Y-108475D01*
X-39100Y-108650D01*
X-39275Y-108725D01*
X-39450Y-108675D01*
X-39575Y-108550D01*
X-39650Y-108375D01*
Y-108200D01*
X-39600Y-108025D01*
X-39475Y-107875D01*
G01X-38950Y-106500D02*
X-39025Y-106400D01*
X-39150Y-106325D01*
X-39325Y-106275D01*
X-39475Y-106325D01*
X-39575Y-106425D01*
X-39650Y-106600D01*
Y-107275D01*
X-38150D01*
Y-106450D01*
X-38250Y-106275D01*
X-38400Y-106175D01*
X-38575Y-106125D01*
X-38750Y-106175D01*
X-38900Y-106325D01*
X-38950Y-106500D01*
Y-107275D01*
G01X-38150Y-105100D02*
X-39650D01*
X-39350Y-105400D01*
G01X-38150D02*
Y-104800D01*
G01X-37350Y-94075D02*
X-37500Y-94000D01*
X-37675Y-93950D01*
X-37875D01*
X-38100Y-94025D01*
X-38275Y-94150D01*
X-38400Y-94300D01*
X-38500Y-94550D01*
X-38525Y-94775D01*
X-38475Y-95000D01*
X-38400Y-95150D01*
X-38250Y-95300D01*
X-38075Y-95400D01*
X-37900Y-95450D01*
X-37725D01*
X-37550Y-95400D01*
X-37400Y-95325D01*
X-37275Y-95225D01*
G01X-36775Y-94200D02*
X-36625Y-94050D01*
X-36450Y-93975D01*
X-36250Y-93950D01*
X-36000Y-94000D01*
X-35825Y-94125D01*
X-35775Y-94275D01*
X-35800Y-94425D01*
X-35900Y-94550D01*
X-36400Y-94800D01*
X-36625Y-94975D01*
X-36775Y-95225D01*
X-36825Y-95450D01*
X-35775D01*
G01X-35175Y-94200D02*
X-35025Y-94050D01*
X-34850Y-93975D01*
X-34650Y-93950D01*
X-34400Y-94000D01*
X-34225Y-94125D01*
X-34175Y-94275D01*
X-34200Y-94425D01*
X-34300Y-94550D01*
X-34800Y-94800D01*
X-35025Y-94975D01*
X-35175Y-95225D01*
X-35225Y-95450D01*
X-34175D01*
G01X-33100D02*
Y-93950D01*
X-33400Y-94250D01*
G01Y-95450D02*
X-32800D01*
G01X-37350Y-91575D02*
X-37500Y-91500D01*
X-37675Y-91450D01*
X-37875D01*
X-38100Y-91525D01*
X-38275Y-91650D01*
X-38400Y-91800D01*
X-38500Y-92050D01*
X-38525Y-92275D01*
X-38475Y-92500D01*
X-38400Y-92650D01*
X-38250Y-92800D01*
X-38075Y-92900D01*
X-37900Y-92950D01*
X-37725D01*
X-37550Y-92900D01*
X-37400Y-92825D01*
X-37275Y-92725D01*
G01X-36775Y-91700D02*
X-36625Y-91550D01*
X-36450Y-91475D01*
X-36250Y-91450D01*
X-36000Y-91500D01*
X-35825Y-91625D01*
X-35775Y-91775D01*
X-35800Y-91925D01*
X-35900Y-92050D01*
X-36400Y-92300D01*
X-36625Y-92475D01*
X-36775Y-92725D01*
X-36825Y-92950D01*
X-35775D01*
G01X-35175Y-91700D02*
X-35025Y-91550D01*
X-34850Y-91475D01*
X-34650Y-91450D01*
X-34400Y-91500D01*
X-34225Y-91625D01*
X-34175Y-91775D01*
X-34200Y-91925D01*
X-34300Y-92050D01*
X-34800Y-92300D01*
X-35025Y-92475D01*
X-35175Y-92725D01*
X-35225Y-92950D01*
X-34175D01*
G01X-33575Y-91700D02*
X-33425Y-91550D01*
X-33250Y-91475D01*
X-33050Y-91450D01*
X-32800Y-91500D01*
X-32625Y-91625D01*
X-32575Y-91775D01*
X-32600Y-91925D01*
X-32700Y-92050D01*
X-33200Y-92300D01*
X-33425Y-92475D01*
X-33575Y-92725D01*
X-33625Y-92950D01*
X-32575D01*
G01X-44800Y-70150D02*
Y-68650D01*
X-44175D01*
X-43975Y-68725D01*
X-43850Y-68825D01*
X-43800Y-69025D01*
X-43850Y-69225D01*
X-44000Y-69350D01*
X-44175Y-69425D01*
X-44800D01*
G01X-44175D02*
X-43800Y-70150D01*
G01X-43175Y-68900D02*
X-43025Y-68750D01*
X-42850Y-68675D01*
X-42650Y-68650D01*
X-42400Y-68700D01*
X-42225Y-68825D01*
X-42175Y-68975D01*
X-42200Y-69125D01*
X-42300Y-69250D01*
X-42800Y-69500D01*
X-43025Y-69675D01*
X-43175Y-69925D01*
X-43225Y-70150D01*
X-42175D01*
G01X-41650Y-69850D02*
X-41500Y-70025D01*
X-41300Y-70125D01*
X-41075Y-70150D01*
X-40875Y-70125D01*
X-40675Y-70000D01*
X-40550Y-69850D01*
X-40525Y-69700D01*
X-40575Y-69525D01*
X-40750Y-69400D01*
X-40925Y-69350D01*
X-41150D01*
G01X-40925D02*
X-40775Y-69275D01*
X-40650Y-69150D01*
X-40600Y-69000D01*
X-40650Y-68850D01*
X-40775Y-68725D01*
X-41000Y-68650D01*
X-41225Y-68675D01*
X-41450Y-68775D01*
G01X-44800Y-68250D02*
Y-66750D01*
X-44175D01*
X-43975Y-66825D01*
X-43850Y-66925D01*
X-43800Y-67125D01*
X-43850Y-67325D01*
X-44000Y-67450D01*
X-44175Y-67525D01*
X-44800D01*
G01X-44175D02*
X-43800Y-68250D01*
G01X-42700D02*
Y-66750D01*
X-43000Y-67050D01*
G01Y-68250D02*
X-42400D01*
G01X-41650Y-68025D02*
X-41500Y-68150D01*
X-41325Y-68225D01*
X-41100Y-68250D01*
X-40875Y-68200D01*
X-40700Y-68100D01*
X-40575Y-67925D01*
X-40550Y-67725D01*
X-40600Y-67525D01*
X-40725Y-67400D01*
X-40900Y-67300D01*
X-41075Y-67275D01*
X-41250Y-67300D01*
X-41475Y-67400D01*
X-41400Y-66750D01*
X-40725D01*
G01X-39550Y-68250D02*
X-39500Y-67925D01*
X-39425Y-67650D01*
X-39325Y-67400D01*
X-39200Y-67125D01*
X-39000Y-66750D01*
X-40000D01*
G01X-38350Y-51775D02*
X-38500Y-51700D01*
X-38675Y-51650D01*
X-38875D01*
X-39100Y-51725D01*
X-39275Y-51850D01*
X-39400Y-52000D01*
X-39500Y-52250D01*
X-39525Y-52475D01*
X-39475Y-52700D01*
X-39400Y-52850D01*
X-39250Y-53000D01*
X-39075Y-53100D01*
X-38900Y-53150D01*
X-38725D01*
X-38550Y-53100D01*
X-38400Y-53025D01*
X-38275Y-52925D01*
G01X-37775Y-51900D02*
X-37625Y-51750D01*
X-37450Y-51675D01*
X-37250Y-51650D01*
X-37000Y-51700D01*
X-36825Y-51825D01*
X-36775Y-51975D01*
X-36800Y-52125D01*
X-36900Y-52250D01*
X-37400Y-52500D01*
X-37625Y-52675D01*
X-37775Y-52925D01*
X-37825Y-53150D01*
X-36775D01*
G01X-36175Y-51900D02*
X-36025Y-51750D01*
X-35850Y-51675D01*
X-35650Y-51650D01*
X-35400Y-51700D01*
X-35225Y-51825D01*
X-35175Y-51975D01*
X-35200Y-52125D01*
X-35300Y-52250D01*
X-35800Y-52500D01*
X-36025Y-52675D01*
X-36175Y-52925D01*
X-36225Y-53150D01*
X-35175D01*
G01X-34650Y-52850D02*
X-34500Y-53025D01*
X-34300Y-53125D01*
X-34075Y-53150D01*
X-33875Y-53125D01*
X-33675Y-53000D01*
X-33550Y-52850D01*
X-33525Y-52700D01*
X-33575Y-52525D01*
X-33750Y-52400D01*
X-33925Y-52350D01*
X-34150D01*
G01X-33925D02*
X-33775Y-52275D01*
X-33650Y-52150D01*
X-33600Y-52000D01*
X-33650Y-51850D01*
X-33775Y-51725D01*
X-34000Y-51650D01*
X-34225Y-51675D01*
X-34450Y-51775D01*
G01X-19350Y-57300D02*
X-20850D01*
Y-56675D01*
X-20775Y-56475D01*
X-20675Y-56350D01*
X-20475Y-56300D01*
X-20275Y-56350D01*
X-20150Y-56500D01*
X-20075Y-56675D01*
Y-57300D01*
G01Y-56675D02*
X-19350Y-56300D01*
G01Y-55200D02*
X-19375Y-55025D01*
X-19450Y-54825D01*
X-19575Y-54700D01*
X-19750Y-54650D01*
X-19925Y-54700D01*
X-20075Y-54850D01*
X-20150Y-55075D01*
Y-55325D01*
X-20200Y-55475D01*
X-20325Y-55600D01*
X-20500Y-55650D01*
X-20675Y-55575D01*
X-20800Y-55400D01*
X-20850Y-55200D01*
X-20800Y-55000D01*
X-20675Y-54825D01*
X-20500Y-54750D01*
X-20325Y-54800D01*
X-20200Y-54925D01*
X-20150Y-55075D01*
Y-55325D01*
X-20075Y-55550D01*
X-19925Y-55700D01*
X-19750Y-55750D01*
X-19575Y-55700D01*
X-19450Y-55575D01*
X-19375Y-55375D01*
X-19350Y-55200D01*
G01Y-53300D02*
X-20850D01*
X-19775Y-54225D01*
Y-52975D01*
G01X-29800Y-52450D02*
X-30000Y-52425D01*
X-30175Y-52325D01*
X-30325Y-52175D01*
X-30425Y-52000D01*
X-30475Y-51800D01*
Y-51600D01*
X-30425Y-51400D01*
X-30325Y-51225D01*
X-30175Y-51075D01*
X-30000Y-50975D01*
X-29800Y-50950D01*
X-29600Y-50975D01*
X-29425Y-51075D01*
X-29275Y-51225D01*
X-29175Y-51400D01*
X-29125Y-51600D01*
Y-51800D01*
X-29175Y-52000D01*
X-29275Y-52175D01*
X-29425Y-52325D01*
X-29600Y-52425D01*
X-29800Y-52450D01*
G01X-29600Y-52050D02*
X-29300Y-52450D01*
G01X-28750Y-52225D02*
X-28600Y-52350D01*
X-28425Y-52425D01*
X-28200Y-52450D01*
X-27975Y-52400D01*
X-27800Y-52300D01*
X-27675Y-52125D01*
X-27650Y-51925D01*
X-27700Y-51725D01*
X-27825Y-51600D01*
X-28000Y-51500D01*
X-28175Y-51475D01*
X-28350Y-51500D01*
X-28575Y-51600D01*
X-28500Y-50950D01*
X-27825D01*
G01X-19825Y-19550D02*
X-19900Y-19700D01*
X-19950Y-19875D01*
Y-20075D01*
X-19875Y-20300D01*
X-19750Y-20475D01*
X-19600Y-20600D01*
X-19350Y-20700D01*
X-19125Y-20725D01*
X-18900Y-20675D01*
X-18750Y-20600D01*
X-18600Y-20450D01*
X-18500Y-20275D01*
X-18450Y-20100D01*
Y-19925D01*
X-18500Y-19750D01*
X-18575Y-19600D01*
X-18675Y-19475D01*
G01X-19700Y-18975D02*
X-19850Y-18825D01*
X-19925Y-18650D01*
X-19950Y-18450D01*
X-19900Y-18200D01*
X-19775Y-18025D01*
X-19625Y-17975D01*
X-19475Y-18000D01*
X-19350Y-18100D01*
X-19100Y-18600D01*
X-18925Y-18825D01*
X-18675Y-18975D01*
X-18450Y-19025D01*
Y-17975D01*
G01Y-16900D02*
X-19950D01*
X-19650Y-17200D01*
G01X-18450D02*
Y-16600D01*
G01X-18750Y-15850D02*
X-18575Y-15700D01*
X-18475Y-15500D01*
X-18450Y-15275D01*
X-18475Y-15075D01*
X-18600Y-14875D01*
X-18750Y-14750D01*
X-18900Y-14725D01*
X-19075Y-14775D01*
X-19200Y-14950D01*
X-19250Y-15125D01*
Y-15350D01*
G01Y-15125D02*
X-19325Y-14975D01*
X-19450Y-14850D01*
X-19600Y-14800D01*
X-19750Y-14850D01*
X-19875Y-14975D01*
X-19950Y-15200D01*
X-19925Y-15425D01*
X-19825Y-15650D01*
G01X-22125Y-19550D02*
X-22200Y-19700D01*
X-22250Y-19875D01*
Y-20075D01*
X-22175Y-20300D01*
X-22050Y-20475D01*
X-21900Y-20600D01*
X-21650Y-20700D01*
X-21425Y-20725D01*
X-21200Y-20675D01*
X-21050Y-20600D01*
X-20900Y-20450D01*
X-20800Y-20275D01*
X-20750Y-20100D01*
Y-19925D01*
X-20800Y-19750D01*
X-20875Y-19600D01*
X-20975Y-19475D01*
G01X-22000Y-18975D02*
X-22150Y-18825D01*
X-22225Y-18650D01*
X-22250Y-18450D01*
X-22200Y-18200D01*
X-22075Y-18025D01*
X-21925Y-17975D01*
X-21775Y-18000D01*
X-21650Y-18100D01*
X-21400Y-18600D01*
X-21225Y-18825D01*
X-20975Y-18975D01*
X-20750Y-19025D01*
Y-17975D01*
G01Y-16900D02*
X-22250D01*
X-21950Y-17200D01*
G01X-20750D02*
Y-16600D01*
G01Y-15000D02*
X-22250D01*
X-21175Y-15925D01*
Y-14675D01*
G01X-25950Y-20550D02*
X-27450D01*
Y-20050D01*
X-27375Y-19850D01*
X-27275Y-19700D01*
X-27125Y-19575D01*
X-26950Y-19475D01*
X-26700Y-19450D01*
X-26450Y-19475D01*
X-26275Y-19575D01*
X-26125Y-19700D01*
X-26025Y-19850D01*
X-25950Y-20050D01*
Y-20550D01*
G01Y-18400D02*
X-27450D01*
X-27150Y-18700D01*
G01X-25950D02*
Y-18100D01*
G01X-9775Y-89550D02*
X-9700Y-89400D01*
X-9650Y-89225D01*
Y-89025D01*
X-9725Y-88800D01*
X-9850Y-88625D01*
X-10000Y-88500D01*
X-10250Y-88400D01*
X-10475Y-88375D01*
X-10700Y-88425D01*
X-10850Y-88500D01*
X-11000Y-88650D01*
X-11100Y-88825D01*
X-11150Y-89000D01*
Y-89175D01*
X-11100Y-89350D01*
X-11025Y-89500D01*
X-10925Y-89625D01*
G01X-9900Y-90125D02*
X-9750Y-90275D01*
X-9675Y-90450D01*
X-9650Y-90650D01*
X-9700Y-90900D01*
X-9825Y-91075D01*
X-9975Y-91125D01*
X-10125Y-91100D01*
X-10250Y-91000D01*
X-10500Y-90500D01*
X-10675Y-90275D01*
X-10925Y-90125D01*
X-11150Y-90075D01*
Y-91125D01*
G01Y-92200D02*
X-9650D01*
X-9950Y-91900D01*
G01X-11150D02*
Y-92500D01*
G01X-10975Y-93375D02*
X-11100Y-93550D01*
X-11150Y-93750D01*
X-11100Y-93950D01*
X-10950Y-94125D01*
X-10725Y-94250D01*
X-10500Y-94300D01*
X-10225D01*
X-10000Y-94250D01*
X-9800Y-94125D01*
X-9700Y-93975D01*
X-9650Y-93800D01*
X-9700Y-93600D01*
X-9800Y-93450D01*
X-9950Y-93350D01*
X-10150Y-93300D01*
X-10325Y-93350D01*
X-10500Y-93475D01*
X-10600Y-93625D01*
X-10625Y-93800D01*
X-10575Y-94000D01*
X-10450Y-94150D01*
X-10225Y-94300D01*
G01X-13450Y-102200D02*
X-14950D01*
Y-101575D01*
X-14875Y-101375D01*
X-14775Y-101250D01*
X-14575Y-101200D01*
X-14375Y-101250D01*
X-14250Y-101400D01*
X-14175Y-101575D01*
Y-102200D01*
G01Y-101575D02*
X-13450Y-101200D01*
G01X-14700Y-100575D02*
X-14850Y-100425D01*
X-14925Y-100250D01*
X-14950Y-100050D01*
X-14900Y-99800D01*
X-14775Y-99625D01*
X-14625Y-99575D01*
X-14475Y-99600D01*
X-14350Y-99700D01*
X-14100Y-100200D01*
X-13925Y-100425D01*
X-13675Y-100575D01*
X-13450Y-100625D01*
Y-99575D01*
G01X-7150Y-102300D02*
X-8650D01*
Y-101675D01*
X-8575Y-101475D01*
X-8475Y-101350D01*
X-8275Y-101300D01*
X-8075Y-101350D01*
X-7950Y-101500D01*
X-7875Y-101675D01*
Y-102300D01*
G01Y-101675D02*
X-7150Y-101300D01*
G01Y-100200D02*
X-8650D01*
X-8350Y-100500D01*
G01X-7150D02*
Y-99900D01*
G01Y-98300D02*
X-8650D01*
X-7575Y-99225D01*
Y-97975D01*
G01X-7325Y-97425D02*
X-7200Y-97250D01*
X-7150Y-97050D01*
X-7200Y-96850D01*
X-7350Y-96675D01*
X-7575Y-96550D01*
X-7800Y-96500D01*
X-8075D01*
X-8300Y-96550D01*
X-8500Y-96675D01*
X-8600Y-96825D01*
X-8650Y-97000D01*
X-8600Y-97200D01*
X-8500Y-97350D01*
X-8350Y-97450D01*
X-8150Y-97500D01*
X-7975Y-97450D01*
X-7800Y-97325D01*
X-7700Y-97175D01*
X-7675Y-97000D01*
X-7725Y-96800D01*
X-7850Y-96650D01*
X-8075Y-96500D01*
G01X-12675Y-89550D02*
X-12600Y-89400D01*
X-12550Y-89225D01*
Y-89025D01*
X-12625Y-88800D01*
X-12750Y-88625D01*
X-12900Y-88500D01*
X-13150Y-88400D01*
X-13375Y-88375D01*
X-13600Y-88425D01*
X-13750Y-88500D01*
X-13900Y-88650D01*
X-14000Y-88825D01*
X-14050Y-89000D01*
Y-89175D01*
X-14000Y-89350D01*
X-13925Y-89500D01*
X-13825Y-89625D01*
G01X-12800Y-90125D02*
X-12650Y-90275D01*
X-12575Y-90450D01*
X-12550Y-90650D01*
X-12600Y-90900D01*
X-12725Y-91075D01*
X-12875Y-91125D01*
X-13025Y-91100D01*
X-13150Y-91000D01*
X-13400Y-90500D01*
X-13575Y-90275D01*
X-13825Y-90125D01*
X-14050Y-90075D01*
Y-91125D01*
G01X-12800Y-91725D02*
X-12650Y-91875D01*
X-12575Y-92050D01*
X-12550Y-92250D01*
X-12600Y-92500D01*
X-12725Y-92675D01*
X-12875Y-92725D01*
X-13025Y-92700D01*
X-13150Y-92600D01*
X-13400Y-92100D01*
X-13575Y-91875D01*
X-13825Y-91725D01*
X-14050Y-91675D01*
Y-92725D01*
G01X-12550Y-93800D02*
X-12600Y-93600D01*
X-12725Y-93450D01*
X-12875Y-93350D01*
X-13075Y-93275D01*
X-13300Y-93250D01*
X-13525Y-93275D01*
X-13725Y-93350D01*
X-13875Y-93450D01*
X-14000Y-93600D01*
X-14050Y-93800D01*
X-14000Y-94000D01*
X-13875Y-94150D01*
X-13725Y-94250D01*
X-13525Y-94325D01*
X-13300Y-94350D01*
X-13075Y-94325D01*
X-12875Y-94250D01*
X-12725Y-94150D01*
X-12600Y-94000D01*
X-12550Y-93800D01*
G01X-13300Y-86450D02*
X-13200Y-86375D01*
X-13125Y-86250D01*
X-13075Y-86075D01*
X-13125Y-85925D01*
X-13225Y-85825D01*
X-13400Y-85750D01*
X-14075D01*
Y-87250D01*
X-13250D01*
X-13075Y-87150D01*
X-12975Y-87000D01*
X-12925Y-86825D01*
X-12975Y-86650D01*
X-13125Y-86500D01*
X-13300Y-86450D01*
X-14075D01*
G01X-11900Y-87250D02*
Y-85750D01*
X-12200Y-86050D01*
G01Y-87250D02*
X-11600D01*
G01X-10775Y-86000D02*
X-10625Y-85850D01*
X-10450Y-85775D01*
X-10250Y-85750D01*
X-10000Y-85800D01*
X-9825Y-85925D01*
X-9775Y-86075D01*
X-9800Y-86225D01*
X-9900Y-86350D01*
X-10400Y-86600D01*
X-10625Y-86775D01*
X-10775Y-87025D01*
X-10825Y-87250D01*
X-9775D01*
G01X-14100Y-80450D02*
Y-78950D01*
X-13475D01*
X-13275Y-79025D01*
X-13150Y-79125D01*
X-13100Y-79325D01*
X-13150Y-79525D01*
X-13300Y-79650D01*
X-13475Y-79725D01*
X-14100D01*
G01X-13475D02*
X-13100Y-80450D01*
G01X-12000D02*
Y-78950D01*
X-12300Y-79250D01*
G01Y-80450D02*
X-11700D01*
G01X-10950Y-80225D02*
X-10800Y-80350D01*
X-10625Y-80425D01*
X-10400Y-80450D01*
X-10175Y-80400D01*
X-10000Y-80300D01*
X-9875Y-80125D01*
X-9850Y-79925D01*
X-9900Y-79725D01*
X-10025Y-79600D01*
X-10200Y-79500D01*
X-10375Y-79475D01*
X-10550Y-79500D01*
X-10775Y-79600D01*
X-10700Y-78950D01*
X-10025D01*
G01X-8800D02*
X-9000Y-79000D01*
X-9150Y-79125D01*
X-9250Y-79275D01*
X-9325Y-79475D01*
X-9350Y-79700D01*
X-9325Y-79925D01*
X-9250Y-80125D01*
X-9150Y-80275D01*
X-9000Y-80400D01*
X-8800Y-80450D01*
X-8600Y-80400D01*
X-8450Y-80275D01*
X-8350Y-80125D01*
X-8275Y-79925D01*
X-8250Y-79700D01*
X-8275Y-79475D01*
X-8350Y-79275D01*
X-8450Y-79125D01*
X-8600Y-79000D01*
X-8800Y-78950D01*
G01X-14100Y-84850D02*
Y-83350D01*
X-13475D01*
X-13275Y-83425D01*
X-13150Y-83525D01*
X-13100Y-83725D01*
X-13150Y-83925D01*
X-13300Y-84050D01*
X-13475Y-84125D01*
X-14100D01*
G01X-13475D02*
X-13100Y-84850D01*
G01X-12000D02*
Y-83350D01*
X-12300Y-83650D01*
G01Y-84850D02*
X-11700D01*
G01X-10950Y-84625D02*
X-10800Y-84750D01*
X-10625Y-84825D01*
X-10400Y-84850D01*
X-10175Y-84800D01*
X-10000Y-84700D01*
X-9875Y-84525D01*
X-9850Y-84325D01*
X-9900Y-84125D01*
X-10025Y-84000D01*
X-10200Y-83900D01*
X-10375Y-83875D01*
X-10550Y-83900D01*
X-10775Y-84000D01*
X-10700Y-83350D01*
X-10025D01*
G01X-8800Y-84850D02*
Y-83350D01*
X-9100Y-83650D01*
G01Y-84850D02*
X-8500D01*
G01X-14100Y-82650D02*
Y-81150D01*
X-13475D01*
X-13275Y-81225D01*
X-13150Y-81325D01*
X-13100Y-81525D01*
X-13150Y-81725D01*
X-13300Y-81850D01*
X-13475Y-81925D01*
X-14100D01*
G01X-13475D02*
X-13100Y-82650D01*
G01X-12000D02*
Y-81150D01*
X-12300Y-81450D01*
G01Y-82650D02*
X-11700D01*
G01X-10950Y-82425D02*
X-10800Y-82550D01*
X-10625Y-82625D01*
X-10400Y-82650D01*
X-10175Y-82600D01*
X-10000Y-82500D01*
X-9875Y-82325D01*
X-9850Y-82125D01*
X-9900Y-81925D01*
X-10025Y-81800D01*
X-10200Y-81700D01*
X-10375Y-81675D01*
X-10550Y-81700D01*
X-10775Y-81800D01*
X-10700Y-81150D01*
X-10025D01*
G01X-9275Y-81400D02*
X-9125Y-81250D01*
X-8950Y-81175D01*
X-8750Y-81150D01*
X-8500Y-81200D01*
X-8325Y-81325D01*
X-8275Y-81475D01*
X-8300Y-81625D01*
X-8400Y-81750D01*
X-8900Y-82000D01*
X-9125Y-82175D01*
X-9275Y-82425D01*
X-9325Y-82650D01*
X-8275D01*
G01X-16425Y-51750D02*
X-16225Y-51875D01*
X-16000Y-51950D01*
X-15800D01*
X-15600Y-51875D01*
X-15450Y-51750D01*
X-15375Y-51575D01*
X-15425Y-51400D01*
X-15550Y-51250D01*
X-15775Y-51150D01*
X-16075Y-51100D01*
X-16250Y-51000D01*
X-16325Y-50825D01*
X-16275Y-50650D01*
X-16150Y-50525D01*
X-15975Y-50450D01*
X-15800D01*
X-15625Y-50500D01*
X-15475Y-50625D01*
G01X-15050Y-50450D02*
X-14700Y-51950D01*
X-14300Y-50450D01*
X-13900Y-51950D01*
X-13550Y-50450D01*
G01X-12750Y-51950D02*
X-12700Y-51625D01*
X-12625Y-51350D01*
X-12525Y-51100D01*
X-12400Y-50825D01*
X-12200Y-50450D01*
X-13200D01*
G01X-13550Y-40175D02*
X-13700Y-40100D01*
X-13875Y-40050D01*
X-14075D01*
X-14300Y-40125D01*
X-14475Y-40250D01*
X-14600Y-40400D01*
X-14700Y-40650D01*
X-14725Y-40875D01*
X-14675Y-41100D01*
X-14600Y-41250D01*
X-14450Y-41400D01*
X-14275Y-41500D01*
X-14100Y-41550D01*
X-13925D01*
X-13750Y-41500D01*
X-13600Y-41425D01*
X-13475Y-41325D01*
G01X-12975Y-40300D02*
X-12825Y-40150D01*
X-12650Y-40075D01*
X-12450Y-40050D01*
X-12200Y-40100D01*
X-12025Y-40225D01*
X-11975Y-40375D01*
X-12000Y-40525D01*
X-12100Y-40650D01*
X-12600Y-40900D01*
X-12825Y-41075D01*
X-12975Y-41325D01*
X-13025Y-41550D01*
X-11975D01*
G01X-10900D02*
Y-40050D01*
X-11200Y-40350D01*
G01Y-41550D02*
X-10600D01*
G01X-9300D02*
Y-40050D01*
X-9600Y-40350D01*
G01Y-41550D02*
X-9000D01*
G01X-13550Y-31900D02*
X-13625Y-31800D01*
X-13750Y-31725D01*
X-13925Y-31675D01*
X-14075Y-31725D01*
X-14175Y-31825D01*
X-14250Y-32000D01*
Y-32675D01*
X-12750D01*
Y-31850D01*
X-12850Y-31675D01*
X-13000Y-31575D01*
X-13175Y-31525D01*
X-13350Y-31575D01*
X-13500Y-31725D01*
X-13550Y-31900D01*
Y-32675D01*
G01X-12750Y-30500D02*
X-14250D01*
X-13950Y-30800D01*
G01X-12750D02*
Y-30200D01*
G01X-14250Y-28900D02*
X-14200Y-29100D01*
X-14075Y-29250D01*
X-13925Y-29350D01*
X-13725Y-29425D01*
X-13500Y-29450D01*
X-13275Y-29425D01*
X-13075Y-29350D01*
X-12925Y-29250D01*
X-12800Y-29100D01*
X-12750Y-28900D01*
X-12800Y-28700D01*
X-12925Y-28550D01*
X-13075Y-28450D01*
X-13275Y-28375D01*
X-13500Y-28350D01*
X-13725Y-28375D01*
X-13925Y-28450D01*
X-14075Y-28550D01*
X-14200Y-28700D01*
X-14250Y-28900D01*
G01X-13650Y-34975D02*
X-13800Y-34900D01*
X-13975Y-34850D01*
X-14175D01*
X-14400Y-34925D01*
X-14575Y-35050D01*
X-14700Y-35200D01*
X-14800Y-35450D01*
X-14825Y-35675D01*
X-14775Y-35900D01*
X-14700Y-36050D01*
X-14550Y-36200D01*
X-14375Y-36300D01*
X-14200Y-36350D01*
X-14025D01*
X-13850Y-36300D01*
X-13700Y-36225D01*
X-13575Y-36125D01*
G01X-13075Y-35100D02*
X-12925Y-34950D01*
X-12750Y-34875D01*
X-12550Y-34850D01*
X-12300Y-34900D01*
X-12125Y-35025D01*
X-12075Y-35175D01*
X-12100Y-35325D01*
X-12200Y-35450D01*
X-12700Y-35700D01*
X-12925Y-35875D01*
X-13075Y-36125D01*
X-13125Y-36350D01*
X-12075D01*
G01X-11000Y-34850D02*
X-11200Y-34900D01*
X-11350Y-35025D01*
X-11450Y-35175D01*
X-11525Y-35375D01*
X-11550Y-35600D01*
X-11525Y-35825D01*
X-11450Y-36025D01*
X-11350Y-36175D01*
X-11200Y-36300D01*
X-11000Y-36350D01*
X-10800Y-36300D01*
X-10650Y-36175D01*
X-10550Y-36025D01*
X-10475Y-35825D01*
X-10450Y-35600D01*
X-10475Y-35375D01*
X-10550Y-35175D01*
X-10650Y-35025D01*
X-10800Y-34900D01*
X-11000Y-34850D01*
G01X-9825Y-36175D02*
X-9650Y-36300D01*
X-9450Y-36350D01*
X-9250Y-36300D01*
X-9075Y-36150D01*
X-8950Y-35925D01*
X-8900Y-35700D01*
Y-35425D01*
X-8950Y-35200D01*
X-9075Y-35000D01*
X-9225Y-34900D01*
X-9400Y-34850D01*
X-9600Y-34900D01*
X-9750Y-35000D01*
X-9850Y-35150D01*
X-9900Y-35350D01*
X-9850Y-35525D01*
X-9725Y-35700D01*
X-9575Y-35800D01*
X-9400Y-35825D01*
X-9200Y-35775D01*
X-9050Y-35650D01*
X-8900Y-35425D01*
G01X-13650Y-37775D02*
X-13800Y-37700D01*
X-13975Y-37650D01*
X-14175D01*
X-14400Y-37725D01*
X-14575Y-37850D01*
X-14700Y-38000D01*
X-14800Y-38250D01*
X-14825Y-38475D01*
X-14775Y-38700D01*
X-14700Y-38850D01*
X-14550Y-39000D01*
X-14375Y-39100D01*
X-14200Y-39150D01*
X-14025D01*
X-13850Y-39100D01*
X-13700Y-39025D01*
X-13575Y-38925D01*
G01X-13075Y-37900D02*
X-12925Y-37750D01*
X-12750Y-37675D01*
X-12550Y-37650D01*
X-12300Y-37700D01*
X-12125Y-37825D01*
X-12075Y-37975D01*
X-12100Y-38125D01*
X-12200Y-38250D01*
X-12700Y-38500D01*
X-12925Y-38675D01*
X-13075Y-38925D01*
X-13125Y-39150D01*
X-12075D01*
G01X-11000D02*
Y-37650D01*
X-11300Y-37950D01*
G01Y-39150D02*
X-10700D01*
G01X-9400Y-37650D02*
X-9600Y-37700D01*
X-9750Y-37825D01*
X-9850Y-37975D01*
X-9925Y-38175D01*
X-9950Y-38400D01*
X-9925Y-38625D01*
X-9850Y-38825D01*
X-9750Y-38975D01*
X-9600Y-39100D01*
X-9400Y-39150D01*
X-9200Y-39100D01*
X-9050Y-38975D01*
X-8950Y-38825D01*
X-8875Y-38625D01*
X-8850Y-38400D01*
X-8875Y-38175D01*
X-8950Y-37975D01*
X-9050Y-37825D01*
X-9200Y-37700D01*
X-9400Y-37650D01*
G01X-17025Y-19450D02*
X-17100Y-19600D01*
X-17150Y-19775D01*
Y-19975D01*
X-17075Y-20200D01*
X-16950Y-20375D01*
X-16800Y-20500D01*
X-16550Y-20600D01*
X-16325Y-20625D01*
X-16100Y-20575D01*
X-15950Y-20500D01*
X-15800Y-20350D01*
X-15700Y-20175D01*
X-15650Y-20000D01*
Y-19825D01*
X-15700Y-19650D01*
X-15775Y-19500D01*
X-15875Y-19375D01*
G01X-16900Y-18875D02*
X-17050Y-18725D01*
X-17125Y-18550D01*
X-17150Y-18350D01*
X-17100Y-18100D01*
X-16975Y-17925D01*
X-16825Y-17875D01*
X-16675Y-17900D01*
X-16550Y-18000D01*
X-16300Y-18500D01*
X-16125Y-18725D01*
X-15875Y-18875D01*
X-15650Y-18925D01*
Y-17875D01*
G01Y-16800D02*
X-17150D01*
X-16850Y-17100D01*
G01X-15650D02*
Y-16500D01*
G01X-16900Y-15675D02*
X-17050Y-15525D01*
X-17125Y-15350D01*
X-17150Y-15150D01*
X-17100Y-14900D01*
X-16975Y-14725D01*
X-16825Y-14675D01*
X-16675Y-14700D01*
X-16550Y-14800D01*
X-16300Y-15300D01*
X-16125Y-15525D01*
X-15875Y-15675D01*
X-15650Y-15725D01*
Y-14675D01*
G54D23*
G01X-136348Y-77048D02*
Y-77552D01*
G01X-138252D02*
Y-77048D01*
G01X-139748D02*
Y-77552D01*
G01X-138019Y-54497D02*
X-138413Y-54103D01*
X-138806Y-54497D01*
X-139200Y-54103D01*
X-139594Y-54497D01*
X-139987Y-54103D01*
X-140381Y-54497D01*
G01X-135702Y-41952D02*
Y-41448D01*
G01X-137198D02*
Y-41952D01*
G01Y-47948D02*
Y-48452D01*
G01X-135702D02*
Y-47948D01*
G01X-134852Y-77552D02*
Y-77048D01*
G01X-109819Y-72997D02*
X-110213Y-72603D01*
X-110606Y-72997D01*
X-111000Y-72603D01*
X-111394Y-72997D01*
X-111787Y-72603D01*
X-112181Y-72997D01*
G01X-100503Y70281D02*
X-100897Y69887D01*
X-100503Y69494D01*
X-100897Y69100D01*
X-100503Y68706D01*
X-100897Y68313D01*
X-100503Y67919D01*
G01X-97619Y74103D02*
X-98013Y74497D01*
X-98406Y74103D01*
X-98800Y74497D01*
X-99194Y74103D01*
X-99587Y74497D01*
X-99981Y74103D01*
G01X-73548Y-15348D02*
Y-15852D01*
G01X-72052D02*
Y-15348D01*
G01X-29352Y-95648D02*
X-28848D01*
G01Y-94152D02*
X-29352D01*
G01X-24103Y-85519D02*
X-24497Y-85913D01*
X-24103Y-86306D01*
X-24497Y-86700D01*
X-24103Y-87094D01*
X-24497Y-87487D01*
X-24103Y-87881D01*
G01X-21652Y-91652D02*
Y-91148D01*
G01X-23148D02*
Y-91652D01*
G01X-15219Y-30897D02*
X-15613Y-30503D01*
X-16006Y-30897D01*
X-16400Y-30503D01*
X-16794Y-30897D01*
X-17187Y-30503D01*
X-17581Y-30897D01*
G01X-18352Y-36448D02*
X-17848D01*
G01Y-34952D02*
X-18352D01*
G01X-17148Y-24048D02*
Y-24552D01*
G01X-15652D02*
Y-24048D01*
G54D14*
G01X-143767Y-127900D02*
Y-124900D01*
X-142933D01*
X-142667Y-125050D01*
X-142500Y-125250D01*
X-142433Y-125650D01*
X-142500Y-126050D01*
X-142700Y-126300D01*
X-142933Y-126450D01*
X-143767D01*
G01X-142933D02*
X-142433Y-127900D01*
G01X-141300D02*
X-139900Y-124900D01*
G01X-141300D02*
X-139900Y-127900D01*
G01X-125033Y-124800D02*
X-124200Y-127800D01*
X-123367Y-124800D01*
G01X-120967Y-125050D02*
X-121167Y-124900D01*
X-121400Y-124800D01*
X-121667D01*
X-121967Y-124950D01*
X-122200Y-125200D01*
X-122367Y-125500D01*
X-122500Y-126000D01*
X-122533Y-126450D01*
X-122467Y-126900D01*
X-122367Y-127200D01*
X-122167Y-127500D01*
X-121933Y-127700D01*
X-121700Y-127800D01*
X-121467D01*
X-121233Y-127700D01*
X-121033Y-127550D01*
X-120867Y-127350D01*
G01X-118467Y-125050D02*
X-118667Y-124900D01*
X-118900Y-124800D01*
X-119167D01*
X-119467Y-124950D01*
X-119700Y-125200D01*
X-119867Y-125500D01*
X-120000Y-126000D01*
X-120033Y-126450D01*
X-119967Y-126900D01*
X-119867Y-127200D01*
X-119667Y-127500D01*
X-119433Y-127700D01*
X-119200Y-127800D01*
X-118967D01*
X-118733Y-127700D01*
X-118533Y-127550D01*
X-118367Y-127350D01*
G01X-134250Y-126250D02*
X-133583D01*
Y-127150D01*
X-133783Y-127450D01*
X-134017Y-127650D01*
X-134350Y-127750D01*
X-134683Y-127650D01*
X-134917Y-127450D01*
X-135117Y-127150D01*
X-135250Y-126800D01*
X-135317Y-126400D01*
Y-126050D01*
X-135250Y-125750D01*
X-135117Y-125400D01*
X-134917Y-125100D01*
X-134717Y-124900D01*
X-134450Y-124750D01*
X-134217D01*
X-133950Y-124850D01*
X-133750Y-125050D01*
G01X-132717Y-127750D02*
Y-124750D01*
X-131183Y-127750D01*
Y-124750D01*
G01X-130183Y-127750D02*
Y-124750D01*
X-129517D01*
X-129250Y-124900D01*
X-129050Y-125100D01*
X-128883Y-125400D01*
X-128750Y-125750D01*
X-128717Y-126250D01*
X-128750Y-126750D01*
X-128883Y-127100D01*
X-129050Y-127400D01*
X-129250Y-127600D01*
X-129517Y-127750D01*
X-130183D01*
G01X-130191Y-119336D02*
X-133191D01*
Y-118502D01*
X-133041Y-118236D01*
X-132841Y-118069D01*
X-132441Y-118002D01*
X-132041Y-118069D01*
X-131791Y-118269D01*
X-131641Y-118502D01*
Y-119336D01*
G01Y-118502D02*
X-130191Y-118002D01*
G01Y-116869D02*
X-133191Y-115469D01*
G01Y-116869D02*
X-130191Y-115469D01*
G01X-131741Y-110019D02*
Y-109352D01*
X-130841D01*
X-130541Y-109552D01*
X-130341Y-109786D01*
X-130241Y-110119D01*
X-130341Y-110452D01*
X-130541Y-110686D01*
X-130841Y-110886D01*
X-131191Y-111019D01*
X-131591Y-111086D01*
X-131941D01*
X-132241Y-111019D01*
X-132591Y-110886D01*
X-132891Y-110686D01*
X-133091Y-110486D01*
X-133241Y-110219D01*
Y-109986D01*
X-133141Y-109719D01*
X-132941Y-109519D01*
G01X-130241Y-108486D02*
X-133241D01*
X-130241Y-106952D01*
X-133241D01*
G01X-130241Y-105952D02*
X-133241D01*
Y-105286D01*
X-133091Y-105019D01*
X-132891Y-104819D01*
X-132591Y-104652D01*
X-132241Y-104519D01*
X-131741Y-104486D01*
X-131241Y-104519D01*
X-130891Y-104652D01*
X-130591Y-104819D01*
X-130391Y-105019D01*
X-130241Y-105286D01*
Y-105952D01*
G01X-133100Y-101433D02*
X-130100Y-100600D01*
X-133100Y-99767D01*
G01X-132850Y-97367D02*
X-133000Y-97567D01*
X-133100Y-97800D01*
Y-98067D01*
X-132950Y-98367D01*
X-132700Y-98600D01*
X-132400Y-98767D01*
X-131900Y-98900D01*
X-131450Y-98933D01*
X-131000Y-98867D01*
X-130700Y-98767D01*
X-130400Y-98567D01*
X-130200Y-98333D01*
X-130100Y-98100D01*
Y-97867D01*
X-130200Y-97633D01*
X-130350Y-97433D01*
X-130550Y-97267D01*
G01X-132850Y-94867D02*
X-133000Y-95067D01*
X-133100Y-95300D01*
Y-95567D01*
X-132950Y-95867D01*
X-132700Y-96100D01*
X-132400Y-96267D01*
X-131900Y-96400D01*
X-131450Y-96433D01*
X-131000Y-96367D01*
X-130700Y-96267D01*
X-130400Y-96067D01*
X-130200Y-95833D01*
X-130100Y-95600D01*
Y-95367D01*
X-130200Y-95133D01*
X-130350Y-94933D01*
X-130550Y-94767D01*
G01X-84851Y-53999D02*
X-84048D01*
Y-66401D01*
X-98851D01*
Y-53999D01*
X-84851D01*
G01X-98209Y-11126D02*
X-96635D01*
G01X-98209Y-9551D02*
Y-11126D01*
G01X-99419Y-14197D02*
X-99812Y-13803D01*
X-100206Y-14197D01*
X-100600Y-13803D01*
X-100993Y-14197D01*
X-101387Y-13803D01*
X-101781Y-14197D01*
G01X-104650Y-13648D02*
Y-14148D01*
G01X-103150D02*
Y-13648D01*
G01X-96635Y8559D02*
X-98209D01*
Y6984D01*
G01X-89851Y-54798D02*
Y-65601D01*
X-93048D01*
Y-54798D01*
X-89851D01*
G01X-82400Y-50833D02*
X-82050Y-50633D01*
X-81850Y-50367D01*
X-81800Y-50067D01*
X-81850Y-49800D01*
X-82100Y-49533D01*
X-82400Y-49367D01*
X-82700Y-49333D01*
X-83050Y-49400D01*
X-83300Y-49633D01*
X-83400Y-49867D01*
Y-50167D01*
G01Y-49867D02*
X-83550Y-49667D01*
X-83800Y-49500D01*
X-84100Y-49433D01*
X-84400Y-49500D01*
X-84650Y-49667D01*
X-84800Y-49967D01*
X-84750Y-50267D01*
X-84550Y-50567D01*
G01X-84800Y-48433D02*
X-81800Y-47600D01*
X-84800Y-46767D01*
G01X-82400Y-45833D02*
X-82050Y-45633D01*
X-81850Y-45367D01*
X-81800Y-45067D01*
X-81850Y-44800D01*
X-82100Y-44533D01*
X-82400Y-44367D01*
X-82700Y-44333D01*
X-83050Y-44400D01*
X-83300Y-44633D01*
X-83400Y-44867D01*
Y-45167D01*
G01Y-44867D02*
X-83550Y-44667D01*
X-83800Y-44500D01*
X-84100Y-44433D01*
X-84400Y-44500D01*
X-84650Y-44667D01*
X-84800Y-44967D01*
X-84750Y-45267D01*
X-84550Y-45567D01*
G01X-91800Y-50667D02*
X-94800D01*
Y-49833D01*
X-94650Y-49567D01*
X-94450Y-49400D01*
X-94050Y-49333D01*
X-93650Y-49400D01*
X-93400Y-49600D01*
X-93250Y-49833D01*
Y-50667D01*
G01Y-49833D02*
X-91800Y-49333D01*
G01X-92200Y-48200D02*
X-91950Y-47933D01*
X-91800Y-47633D01*
Y-47367D01*
X-91950Y-47100D01*
X-92200Y-46900D01*
X-92550Y-46800D01*
X-92900Y-46867D01*
X-93200Y-47033D01*
X-93400Y-47333D01*
X-93500Y-47733D01*
X-93700Y-47967D01*
X-94050Y-48067D01*
X-94400Y-48000D01*
X-94650Y-47833D01*
X-94800Y-47600D01*
Y-47367D01*
X-94700Y-47133D01*
X-94450Y-46933D01*
G01X-94800Y-45000D02*
X-91800D01*
G01X-94800Y-45767D02*
Y-44233D01*
G01X-94968Y-14007D02*
G03I-882J0D01*
G01X-92097Y12815D02*
X-91703Y13212D01*
X-92097Y13606D01*
X-91707Y14000D01*
X-92097Y14393D01*
X-91707Y14783D01*
X-92101Y15181D01*
G01X-90113Y94506D02*
Y88994D01*
G01X-80951Y113450D02*
Y109950D01*
X-87652D01*
Y113450D01*
X-80951D01*
G01X-84321D02*
Y109950D01*
G01X-91028Y118003D02*
Y117385D01*
X-90863Y117219D01*
X-88638D01*
G01X-91111Y127644D02*
Y128341D01*
X-90902Y128550D01*
X-81426D01*
X-81056Y128180D01*
Y127806D01*
X-81099Y127766D01*
G01X-66051Y-53999D02*
X-65248D01*
Y-66401D01*
X-80051D01*
Y-53999D01*
X-66051D01*
G01X-71051Y-54799D02*
Y-65602D01*
X-74248D01*
Y-54799D01*
X-71051D01*
G01X-74800Y-48050D02*
X-71800D01*
G01X-74800Y-48817D02*
Y-47283D01*
G01X-71800Y-46250D02*
X-74800Y-44850D01*
G01Y-46250D02*
X-71800Y-44850D01*
G01X-80099Y-11126D02*
X-78524D01*
Y-9551D01*
G01Y6984D02*
Y8559D01*
X-80099D01*
G01X-73049Y15950D02*
X-73549D01*
G01Y14450D02*
X-73049D01*
G01X-81688Y94506D02*
Y88994D01*
G01X-80851Y118168D02*
Y117385D01*
X-80934Y117302D01*
X-83280D01*
G01X-60084Y-61991D02*
Y-63227D01*
G01X-59698Y-65542D02*
X-58462D01*
G01X-62887Y-59446D02*
X-61313D01*
G01X-62100Y-60233D02*
Y-58658D01*
G01X-61900Y-48617D02*
X-64900D01*
Y-47783D01*
X-64750Y-47517D01*
X-64550Y-47350D01*
X-64150Y-47283D01*
X-63750Y-47350D01*
X-63500Y-47550D01*
X-63350Y-47783D01*
Y-48617D01*
G01Y-47783D02*
X-61900Y-47283D01*
G01Y-46150D02*
X-64900Y-44750D01*
G01Y-46150D02*
X-61900Y-44750D01*
G01X-66119Y-15598D02*
X-66512Y-15204D01*
X-66906Y-15598D01*
X-67300Y-15204D01*
X-67693Y-15598D01*
X-68087Y-15204D01*
X-68481Y-15598D01*
G01X-67170Y-488D02*
X-64415D01*
G01D02*
Y1874D01*
G01X-51383Y-148300D02*
X-52717D01*
Y-145300D01*
X-51383D01*
G01X-51917Y-146750D02*
X-52717D01*
G01X-50217Y-145300D02*
Y-148300D01*
X-48883D01*
G01X-47717D02*
Y-145300D01*
X-46883D01*
X-46617Y-145450D01*
X-46450Y-145650D01*
X-46383Y-146050D01*
X-46450Y-146450D01*
X-46650Y-146700D01*
X-46883Y-146850D01*
X-47717D01*
G01X-46883D02*
X-46383Y-148300D01*
G01X-45250Y-147900D02*
X-44983Y-148150D01*
X-44683Y-148300D01*
X-44417D01*
X-44150Y-148150D01*
X-43950Y-147900D01*
X-43850Y-147550D01*
X-43917Y-147200D01*
X-44083Y-146900D01*
X-44383Y-146700D01*
X-44783Y-146600D01*
X-45017Y-146400D01*
X-45117Y-146050D01*
X-45050Y-145700D01*
X-44883Y-145450D01*
X-44650Y-145300D01*
X-44417D01*
X-44183Y-145400D01*
X-43983Y-145650D01*
G01X-42483Y-147300D02*
X-41617D01*
G01X-39550Y-145300D02*
Y-148300D01*
G01X-40317Y-145300D02*
X-38783D01*
G01X-37750Y-148300D02*
X-36350Y-145300D01*
G01X-37750D02*
X-36350Y-148300D01*
G01X-34983Y-147300D02*
X-34117D01*
G01X-32917Y-148300D02*
Y-145300D01*
X-32050Y-147800D01*
X-31183Y-145300D01*
Y-148300D01*
G01X-29550D02*
X-29817Y-148250D01*
X-30050Y-148050D01*
X-30250Y-147750D01*
X-30383Y-147400D01*
X-30450Y-147000D01*
Y-146600D01*
X-30383Y-146200D01*
X-30250Y-145850D01*
X-30050Y-145550D01*
X-29817Y-145350D01*
X-29550Y-145300D01*
X-29283Y-145350D01*
X-29050Y-145550D01*
X-28850Y-145850D01*
X-28717Y-146200D01*
X-28650Y-146600D01*
Y-147000D01*
X-28717Y-147400D01*
X-28850Y-147750D01*
X-29050Y-148050D01*
X-29283Y-148250D01*
X-29550Y-148300D01*
G01X-27783D02*
Y-145300D01*
X-27117D01*
X-26850Y-145450D01*
X-26650Y-145650D01*
X-26483Y-145950D01*
X-26350Y-146300D01*
X-26317Y-146800D01*
X-26350Y-147300D01*
X-26483Y-147650D01*
X-26650Y-147950D01*
X-26850Y-148150D01*
X-27117Y-148300D01*
X-27783D01*
G01X-25283Y-145300D02*
Y-147450D01*
X-25150Y-147900D01*
X-24883Y-148200D01*
X-24550Y-148300D01*
X-24217Y-148200D01*
X-23950Y-147900D01*
X-23817Y-147450D01*
Y-145300D01*
G01X-22717D02*
Y-148300D01*
X-21383D01*
G01X-18883D02*
X-20217D01*
Y-145300D01*
X-18883D01*
G01X-19417Y-146750D02*
X-20217D01*
G01X-17483Y-147300D02*
X-16617D01*
G01X-15383Y-145300D02*
X-14550Y-148300D01*
X-13717Y-145300D01*
G01X-12050Y-148300D02*
Y-145300D01*
X-12450Y-145900D01*
G01Y-148300D02*
X-11650D01*
G01X-10283Y-147700D02*
X-10083Y-148050D01*
X-9817Y-148250D01*
X-9517Y-148300D01*
X-9250Y-148250D01*
X-8983Y-148000D01*
X-8817Y-147700D01*
X-8783Y-147400D01*
X-8850Y-147050D01*
X-9083Y-146800D01*
X-9317Y-146700D01*
X-9617D01*
G01X-9317D02*
X-9117Y-146550D01*
X-8950Y-146300D01*
X-8883Y-146000D01*
X-8950Y-145700D01*
X-9117Y-145450D01*
X-9417Y-145300D01*
X-9717Y-145350D01*
X-10017Y-145550D01*
G01X-58116Y-61991D02*
Y-63227D01*
G01X-53300Y-49300D02*
Y-48633D01*
X-52400D01*
X-52100Y-48833D01*
X-51900Y-49067D01*
X-51800Y-49400D01*
X-51900Y-49733D01*
X-52100Y-49967D01*
X-52400Y-50167D01*
X-52750Y-50300D01*
X-53150Y-50367D01*
X-53500D01*
X-53800Y-50300D01*
X-54150Y-50167D01*
X-54450Y-49967D01*
X-54650Y-49767D01*
X-54800Y-49500D01*
Y-49267D01*
X-54700Y-49000D01*
X-54500Y-48800D01*
G01X-51800Y-47767D02*
X-54800D01*
X-51800Y-46233D01*
X-54800D01*
G01X-51800Y-45233D02*
X-54800D01*
Y-44567D01*
X-54650Y-44300D01*
X-54450Y-44100D01*
X-54150Y-43933D01*
X-53800Y-43800D01*
X-53300Y-43767D01*
X-52800Y-43800D01*
X-52450Y-43933D01*
X-52150Y-44100D01*
X-51950Y-44300D01*
X-51800Y-44567D01*
Y-45233D01*
G01X-21900Y-67300D02*
X-24900D01*
X-24300Y-67700D01*
G01X-21900D02*
Y-66900D01*
G01X-10363Y-66206D02*
X-10725D01*
G01X-18237D02*
X-17867D01*
G01X-18237D02*
Y-54395D01*
G01X-10363D02*
Y-66206D01*
G01Y-54395D02*
X-10725D01*
G01X-18237D02*
X-17867D01*
G54D15*
G01X-134751Y-37702D02*
Y-36898D01*
X-122349D01*
Y-51702D01*
X-134751D01*
Y-37702D01*
G01X-133952Y-42702D02*
X-123148D01*
Y-45898D01*
X-133952D01*
Y-42702D01*
G01X-47800Y-32550D02*
X-98800D01*
G01X-97709Y148702D02*
Y136702D01*
G01X-94300Y-114400D02*
X-93800D01*
Y-101400D01*
G01Y-114400D02*
X-66800D01*
Y-101400D01*
X-94800D01*
Y-114400D01*
X-94300D01*
G01X-91898Y130891D02*
X-79898D01*
G01Y154513D02*
X-91898D01*
G01X-82300Y-110400D02*
Y-105400D01*
G01Y-107900D02*
X-82800D01*
G01X-78300D02*
X-77800D01*
G01X-82300D02*
X-78300Y-110400D01*
Y-105400D01*
X-82300Y-107900D01*
G01X-74087Y136702D02*
Y148702D01*
G01X-65300Y-108400D02*
X-62300D01*
G01X-63800Y-110400D02*
Y-106400D01*
G01X-48200Y-134800D02*
X-51200D01*
Y-129800D01*
X-48200D01*
G01X-39802Y-53999D02*
X-38998D01*
Y-66401D01*
X-53802D01*
Y-53999D01*
X-39802D01*
G01X-44802Y-54798D02*
Y-65602D01*
X-47998D01*
Y-54798D01*
X-44802D01*
G01X-42200Y-129800D02*
X-39200D01*
Y-134800D01*
G01D02*
X-42200D01*
G01X-5760Y-91210D02*
Y145010D01*
Y158759D01*
X-163240D01*
Y145010D01*
Y-91208D01*
X-163243D01*
Y-151452D01*
X-5760D01*
Y-91210D01*
G01X-40650Y-123650D02*
X-52450D01*
Y-118050D01*
X-40650D01*
Y-123650D01*
G54D16*
G01X-138592Y3266D02*
G03I-8858J0D01*
G01Y129250D02*
G03I-8858J0D01*
G01X-133400Y-67500D02*
X-134400D01*
Y-65000D01*
G01D02*
X-132900Y-63500D01*
X-134400Y-62000D01*
G01D02*
Y-59500D01*
X-133400D01*
G01X-114000Y-114400D02*
Y-114900D01*
X-116500D01*
X-117500Y-113900D01*
X-118500Y-114900D01*
X-121000D01*
Y-110900D01*
G01X-114000Y-106900D02*
Y-108900D01*
G01X-121000Y-104900D02*
Y-100900D01*
X-114000D01*
Y-101400D01*
G01X-118050Y-64950D02*
Y-67950D01*
G01D02*
X-113150D01*
G01D02*
Y-64950D01*
G01Y-71550D02*
Y-68550D01*
G01D02*
X-118050D01*
G01D02*
Y-71550D01*
G01Y-74850D02*
Y-77850D01*
G01D02*
X-113150D01*
G01D02*
Y-74850D01*
G01X-121400Y-59500D02*
X-120400D01*
Y-67500D01*
X-121400D01*
G01X-113150Y-61650D02*
Y-58650D01*
G01D02*
X-118050D01*
G01D02*
Y-61650D01*
G01X-113850Y71450D02*
Y68450D01*
G01D02*
X-108950D01*
G01Y77750D02*
X-113850D01*
G01D02*
Y74750D01*
G01X-98800Y-32550D02*
Y-43050D01*
X-47800D01*
Y-32550D01*
X-98800D01*
G01X-108950Y68450D02*
Y71450D01*
G01Y74750D02*
Y77750D01*
G01X-84250Y-13150D02*
Y-18050D01*
G01D02*
X-81250D01*
G01Y-13150D02*
X-84250D01*
G01X-77950Y-18050D02*
X-74950D01*
G01D02*
Y-13150D01*
G01D02*
X-77950D01*
G01X-82500Y53700D02*
X-83500D01*
Y61700D01*
X-82500D01*
G01X-69500Y59200D02*
X-71000Y57700D01*
X-69500Y56200D01*
G01X-70500Y61700D02*
X-69500D01*
Y59200D01*
G01Y56200D02*
Y53700D01*
X-70500D01*
G01X-25900Y-66800D02*
Y-67300D01*
X-28400D01*
X-29400Y-66300D01*
X-30400Y-67300D01*
X-32900D01*
Y-63300D01*
G01Y-57300D02*
Y-53300D01*
X-25900D01*
Y-53800D01*
G01X-38167Y-44723D02*
Y-43077D01*
G01X-37703Y-17967D02*
X-39223D01*
G01X-38400Y-19050D02*
Y-16883D01*
G01X-25900Y-59300D02*
Y-61300D01*
G01X-12608Y3266D02*
G03I-8858J0D01*
G01Y129250D02*
G03I-8858J0D01*
G54D17*
G01X-60835Y-136431D02*
Y-141549D01*
X-53749D01*
Y-136431D01*
G01X-55068Y-134128D02*
X-59493D01*
G01X-55300Y-131762D02*
X-59804D01*
X-57339Y-134227D01*
X-57327D01*
X-54906Y-131805D01*
Y-131778D01*
X-54922Y-131762D01*
X-55300D01*
G01X-60835Y-129345D02*
Y-124227D01*
X-53749D01*
Y-129345D01*
G01X-57288Y-135341D02*
Y-130601D01*
G01X-20420Y-141561D02*
X-28688D01*
G01Y-104239D02*
X-20420D01*
G01X-23065Y-34055D02*
Y-39173D01*
X-30151D01*
Y-34055D01*
G01X-28832Y-29272D02*
X-24407D01*
G01X-28600Y-31638D02*
X-24096D01*
X-26561Y-29173D01*
X-26573D01*
X-28994Y-31595D01*
Y-31622D01*
X-28978Y-31638D01*
X-28600D01*
G01X-26612Y-28059D02*
Y-32799D01*
G01X-23065Y-26969D02*
Y-21851D01*
X-30151D01*
Y-26969D01*
G01X-12940Y-141561D02*
X-6247D01*
Y-104239D01*
X-12940D01*
G54D18*
G01X-137313Y-71506D02*
Y-69932D01*
X-138887D01*
Y-71506D01*
G01X-137313Y-72294D02*
Y-73868D01*
X-138887D01*
Y-72294D01*
G01X-136687D02*
Y-73868D01*
X-135113D01*
Y-72294D01*
G01X-136687Y-71506D02*
Y-69932D01*
X-135113D01*
Y-71506D01*
G01X-140037Y-49094D02*
Y-50668D01*
X-138463D01*
Y-49094D01*
G01X-140037Y-48306D02*
Y-46732D01*
X-138463D01*
Y-48306D01*
G01Y-41994D02*
Y-43568D01*
X-140037D01*
Y-41994D01*
G01X-138463Y-41206D02*
Y-39632D01*
X-140037D01*
Y-41206D01*
G01X-109113Y-109806D02*
Y-108232D01*
X-110687D01*
Y-109806D01*
G01X-109113Y-110594D02*
Y-112168D01*
X-110687D01*
Y-110594D01*
G01X-109113Y-106094D02*
Y-107668D01*
X-110687D01*
Y-106094D01*
G01X-109113Y-105306D02*
Y-103732D01*
X-110687D01*
Y-105306D01*
G01X-120187Y-70894D02*
Y-72468D01*
X-118613D01*
Y-70894D01*
G01X-120187Y-70106D02*
Y-68532D01*
X-118613D01*
Y-70106D01*
G01X-118713Y-78006D02*
Y-76432D01*
X-120287D01*
Y-78006D01*
G01X-118713Y-78794D02*
Y-80368D01*
X-120287D01*
Y-78794D01*
G01X-119206Y-55887D02*
X-117632D01*
Y-54313D01*
X-119206D01*
G01X-119994Y-55887D02*
X-121568D01*
Y-54313D01*
X-119994D01*
G01Y-56413D02*
X-121568D01*
Y-57987D01*
X-119994D01*
G01X-119206Y-56413D02*
X-117632D01*
Y-57987D01*
X-119206D01*
G01X-111787Y-64894D02*
Y-66468D01*
X-110213D01*
Y-64894D01*
G01X-111787Y-64106D02*
Y-62532D01*
X-110213D01*
Y-64106D01*
G01X-102505Y-8787D02*
X-100931D01*
Y-7213D01*
X-102505D01*
G01X-103293Y-8787D02*
X-104867D01*
Y-7213D01*
X-103293D01*
G01X-98687Y-14393D02*
Y-15967D01*
X-97113D01*
Y-14393D01*
G01X-98687Y-13605D02*
Y-12031D01*
X-97113D01*
Y-13605D01*
G01X-103294Y8686D02*
X-104868D01*
Y7112D01*
X-103294D01*
G01X-102506Y8686D02*
X-100932D01*
Y7112D01*
X-102506D01*
G01X-102505Y4912D02*
X-100931D01*
Y6486D01*
X-102505D01*
G01X-103293Y4912D02*
X-104867D01*
Y6486D01*
X-103293D01*
G01X-102506Y2813D02*
X-100932D01*
Y4387D01*
X-102506D01*
G01X-103294Y2813D02*
X-104868D01*
Y4387D01*
X-103294D01*
G01X-99787Y14806D02*
Y13232D01*
X-98213D01*
Y14806D01*
G01X-99787Y15594D02*
Y17168D01*
X-98213D01*
Y15594D01*
G01X-97588Y14805D02*
Y13231D01*
X-96014D01*
Y14805D01*
G01X-97588Y15593D02*
Y17167D01*
X-96014D01*
Y15593D01*
G01X-100325Y43787D02*
X-101899D01*
Y42213D01*
X-100325D01*
G01X-99537Y43787D02*
X-97963D01*
Y42213D01*
X-99537D01*
G01X-104544Y42194D02*
Y43768D01*
X-106118D01*
Y42194D01*
G01X-104544Y41406D02*
Y39832D01*
X-106118D01*
Y41406D01*
G01X-108218D02*
Y39832D01*
X-106644D01*
Y41406D01*
G01X-108218Y42194D02*
Y43768D01*
X-106644D01*
Y42194D01*
G01X-102444D02*
Y43768D01*
X-104018D01*
Y42194D01*
G01X-102444Y41406D02*
Y39832D01*
X-104018D01*
Y41406D01*
G01X-97387D02*
Y39832D01*
X-95813D01*
Y41406D01*
G01X-97387Y42194D02*
Y43768D01*
X-95813D01*
Y42194D01*
G01X-105887Y69906D02*
Y68332D01*
X-104313D01*
Y69906D01*
G01X-105887Y70694D02*
Y72268D01*
X-104313D01*
Y70694D01*
G01X-97206Y65413D02*
X-95632D01*
Y66987D01*
X-97206D01*
G01X-97994Y65413D02*
X-99568D01*
Y66987D01*
X-97994D01*
G01X-108087Y69906D02*
Y68332D01*
X-106513D01*
Y69906D01*
G01X-108087Y70694D02*
Y72268D01*
X-106513D01*
Y70694D01*
G01X-97206Y78013D02*
X-95632D01*
Y79587D01*
X-97206D01*
G01X-97994Y78013D02*
X-99568D01*
Y79587D01*
X-97994D01*
G01X-99587Y81806D02*
Y80232D01*
X-98013D01*
Y81806D01*
G01X-99587Y82594D02*
Y84168D01*
X-98013D01*
Y82594D01*
G01X-90644Y-51812D02*
X-92218D01*
Y-53386D01*
X-90644D01*
G01X-89856Y-51812D02*
X-88282D01*
Y-53386D01*
X-89856D01*
G01X-88713Y-16293D02*
Y-17867D01*
X-90287D01*
Y-16293D01*
G01X-86613Y-16295D02*
Y-17869D01*
X-88187D01*
Y-16295D01*
G01X-88713Y-15505D02*
Y-13931D01*
X-90287D01*
Y-15505D01*
G01X-86613Y-15507D02*
Y-13933D01*
X-88187D01*
Y-15507D01*
G01X-83766Y14524D02*
X-82653Y15637D01*
X-83766Y16749D01*
X-84879Y15637D01*
G01X-84324Y13966D02*
X-85437Y12853D01*
X-86549Y13966D01*
X-85437Y15079D01*
G01X-86286Y19506D02*
Y17932D01*
X-84712D01*
Y19506D01*
G01X-86286Y20294D02*
Y21868D01*
X-84712D01*
Y20294D01*
G01X-95487Y17206D02*
Y15632D01*
X-93913D01*
Y17206D01*
G01X-95487Y17994D02*
Y19568D01*
X-93913D01*
Y17994D01*
G01X-92987Y17206D02*
Y15632D01*
X-91413D01*
Y17206D01*
G01X-92987Y17994D02*
Y19568D01*
X-91413D01*
Y17994D01*
G01X-89195Y23987D02*
X-90769D01*
Y22413D01*
X-89195D01*
G01X-88407Y23987D02*
X-86833D01*
Y22413D01*
X-88407D01*
G01X-88487Y19506D02*
Y17932D01*
X-86913D01*
Y19506D01*
G01X-88487Y20294D02*
Y21868D01*
X-86913D01*
Y20294D01*
G01X-90788Y19507D02*
Y17933D01*
X-89214D01*
Y19507D01*
G01X-90788Y20295D02*
Y21869D01*
X-89214D01*
Y20295D01*
G01X-89194Y32687D02*
X-90768D01*
Y31113D01*
X-89194D01*
G01X-88406Y32687D02*
X-86832D01*
Y31113D01*
X-88406D01*
G01X-89193Y26087D02*
X-90767D01*
Y24513D01*
X-89193D01*
G01X-88405Y26087D02*
X-86831D01*
Y24513D01*
X-88405D01*
G01X-92887Y28206D02*
Y26632D01*
X-91313D01*
Y28206D01*
G01X-92887Y28994D02*
Y30568D01*
X-91313D01*
Y28994D01*
G01X-90787Y34806D02*
Y33232D01*
X-89213D01*
Y34806D01*
G01X-90787Y28206D02*
Y26632D01*
X-89213D01*
Y28206D01*
G01X-90787Y28994D02*
Y30568D01*
X-89213D01*
Y28994D01*
G01X-92906Y44313D02*
X-91332D01*
Y45887D01*
X-92906D01*
G01X-93694Y44313D02*
X-95268D01*
Y45887D01*
X-93694D01*
G01X-89194Y43787D02*
X-90768D01*
Y42213D01*
X-89194D01*
G01X-88406Y43787D02*
X-86832D01*
Y42213D01*
X-88406D01*
G01X-93694Y43787D02*
X-95268D01*
Y42213D01*
X-93694D01*
G01X-92906Y43787D02*
X-91332D01*
Y42213D01*
X-92906D01*
G01X-90787Y39306D02*
Y37732D01*
X-89213D01*
Y39306D01*
G01X-90787Y40094D02*
Y41668D01*
X-89213D01*
Y40094D01*
G01X-90787Y35594D02*
Y37168D01*
X-89213D01*
Y35594D01*
G01X-86687Y98806D02*
Y97232D01*
X-85113D01*
Y98806D01*
G01X-86687Y99594D02*
Y101168D01*
X-85113D01*
Y99594D01*
G01X-91013Y94294D02*
Y95868D01*
X-92587D01*
Y94294D01*
G01X-91013Y93506D02*
Y91932D01*
X-92587D01*
Y93506D01*
G01X-81737Y-64794D02*
Y-66368D01*
X-80163D01*
Y-64794D01*
G01X-81737Y-64006D02*
Y-62432D01*
X-80163D01*
Y-64006D01*
G01X-83937Y-64794D02*
Y-66368D01*
X-82363D01*
Y-64794D01*
G01X-83937Y-64006D02*
Y-62432D01*
X-82363D01*
Y-64006D01*
G01X-83938Y-57094D02*
Y-58668D01*
X-82364D01*
Y-57094D01*
G01X-83938Y-56306D02*
Y-54732D01*
X-82364D01*
Y-56306D01*
G01X-71294Y-4913D02*
X-72868D01*
Y-6487D01*
X-71294D01*
G01X-76094Y-10713D02*
X-77668D01*
Y-12287D01*
X-76094D01*
G01X-75306Y-10713D02*
X-73732D01*
Y-12287D01*
X-75306D01*
G01X-71295Y-2812D02*
X-72869D01*
Y-4386D01*
X-71295D01*
G01X-71294Y-714D02*
X-72868D01*
Y-2288D01*
X-71294D01*
G01X-75035Y3478D02*
X-76148Y2365D01*
X-75035Y1252D01*
X-73922Y2365D01*
G01X-74478Y4035D02*
X-73365Y5148D01*
X-72252Y4035D01*
X-73365Y2922D01*
G01X-74366Y9523D02*
X-73253Y10636D01*
X-74366Y11749D01*
X-75479Y10636D01*
G01X-74923Y8966D02*
X-76036Y7853D01*
X-77149Y8966D01*
X-76036Y10079D01*
G01X-77534Y11577D02*
X-78647Y10464D01*
X-77534Y9351D01*
X-76421Y10464D01*
G01X-76977Y12134D02*
X-75864Y13247D01*
X-74751Y12134D01*
X-75864Y11021D01*
G01X-77687Y22506D02*
Y20932D01*
X-76113D01*
Y22506D01*
G01X-72906Y17113D02*
X-71332D01*
Y18687D01*
X-72906D01*
G01X-73694Y17113D02*
X-75268D01*
Y18687D01*
X-73694D01*
G01X-79887Y22506D02*
Y20932D01*
X-78313D01*
Y22506D01*
G01X-77687Y23294D02*
Y24868D01*
X-76113D01*
Y23294D01*
G01X-78294Y26987D02*
X-79868D01*
Y25413D01*
X-78294D01*
G01X-77506Y26987D02*
X-75932D01*
Y25413D01*
X-77506D01*
G01X-79887Y23294D02*
Y24868D01*
X-78313D01*
Y23294D01*
G01X-77487Y35006D02*
Y33432D01*
X-75913D01*
Y35006D01*
G01X-79887Y29206D02*
Y27632D01*
X-78313D01*
Y29206D01*
G01X-79887Y29994D02*
Y31568D01*
X-78313D01*
Y29994D01*
G01X-70294Y48013D02*
X-71868D01*
Y49587D01*
X-70294D01*
G01X-78606Y48013D02*
X-77032D01*
Y49587D01*
X-78606D01*
G01X-79394Y48013D02*
X-80968D01*
Y49587D01*
X-79394D01*
G01Y47487D02*
X-80968D01*
Y45913D01*
X-79394D01*
G01X-78606Y47487D02*
X-77032D01*
Y45913D01*
X-78606D01*
G01X-79394Y45387D02*
X-80968D01*
Y43813D01*
X-79394D01*
G01X-78606Y45387D02*
X-77032D01*
Y43813D01*
X-78606D01*
G01X-74894Y45387D02*
X-76468D01*
Y43813D01*
X-74894D01*
G01X-74106Y45387D02*
X-72532D01*
Y43813D01*
X-74106D01*
G01X-74006Y48013D02*
X-72432D01*
Y49587D01*
X-74006D01*
G01X-74794Y48013D02*
X-76368D01*
Y49587D01*
X-74794D01*
G01X-80987Y40906D02*
Y39332D01*
X-79413D01*
Y40906D01*
G01X-80987Y41694D02*
Y43268D01*
X-79413D01*
Y41694D01*
G01X-77487Y35794D02*
Y37368D01*
X-75913D01*
Y35794D01*
G01X-73587Y66906D02*
Y65332D01*
X-72013D01*
Y66906D01*
G01X-73587Y67694D02*
Y69268D01*
X-72013D01*
Y67694D01*
G01X-73587Y71407D02*
Y69833D01*
X-72013D01*
Y71407D01*
G01X-73587Y72195D02*
Y73769D01*
X-72013D01*
Y72195D01*
G01X-74687Y83006D02*
Y81432D01*
X-73113D01*
Y83006D01*
G01X-74687Y83794D02*
Y85368D01*
X-73113D01*
Y83794D01*
G01X-79313Y94294D02*
Y95868D01*
X-80887D01*
Y94294D01*
G01X-79313Y93506D02*
Y91932D01*
X-80887D01*
Y93506D01*
G01X-59887Y-57994D02*
Y-59568D01*
X-58313D01*
Y-57994D01*
G01X-59887Y-57206D02*
Y-55632D01*
X-58313D01*
Y-57206D01*
G01X-65137Y-63094D02*
Y-64668D01*
X-63563D01*
Y-63094D01*
G01X-65137Y-62306D02*
Y-60732D01*
X-63563D01*
Y-62306D01*
G01X-65136Y-58094D02*
Y-59668D01*
X-63562D01*
Y-58094D01*
G01X-65136Y-57306D02*
Y-55732D01*
X-63562D01*
Y-57306D01*
G01X-69212Y-15895D02*
Y-17469D01*
X-70786D01*
Y-15895D01*
G01X-70506Y-4913D02*
X-68932D01*
Y-6487D01*
X-70506D01*
G01X-68288Y-3194D02*
Y-4768D01*
X-66714D01*
Y-3194D01*
G01X-64513Y-3195D02*
Y-4769D01*
X-66087D01*
Y-3195D01*
G01X-70507Y-2812D02*
X-68933D01*
Y-4386D01*
X-70507D01*
G01X-69212Y-15107D02*
Y-13533D01*
X-70786D01*
Y-15107D01*
G01X-70506Y-714D02*
X-68932D01*
Y-2288D01*
X-70506D01*
G01X-68288Y-2406D02*
Y-832D01*
X-66714D01*
Y-2406D01*
G01X-64513Y-2407D02*
Y-833D01*
X-66087D01*
Y-2407D01*
G01X-68893Y10187D02*
X-70467D01*
Y8613D01*
X-68893D01*
G01X-68105Y10187D02*
X-66531D01*
Y8613D01*
X-68105D01*
G01X-69506Y48013D02*
X-67932D01*
Y49587D01*
X-69506D01*
G01X-71087Y77106D02*
Y75532D01*
X-69513D01*
Y77106D01*
G01X-71087Y77894D02*
Y79468D01*
X-69513D01*
Y77894D01*
G01X-47094Y-83313D02*
X-48668D01*
Y-84887D01*
X-47094D01*
G01X-46306Y-83313D02*
X-44732D01*
Y-84887D01*
X-46306D01*
G01X-47094Y-81113D02*
X-48668D01*
Y-82687D01*
X-47094D01*
G01X-46306Y-81113D02*
X-44732D01*
Y-82687D01*
X-46306D01*
G01Y-87087D02*
X-44732D01*
Y-85513D01*
X-46306D01*
G01X-47094Y-87087D02*
X-48668D01*
Y-85513D01*
X-47094D01*
G01X-46306Y-80487D02*
X-44732D01*
Y-78913D01*
X-46306D01*
G01X-47094Y-80487D02*
X-48668D01*
Y-78913D01*
X-47094D01*
G01X-36206Y-67087D02*
X-34632D01*
Y-65513D01*
X-36206D01*
G01X-36994Y-67087D02*
X-38568D01*
Y-65513D01*
X-36994D01*
G01Y-63213D02*
X-38568D01*
Y-64787D01*
X-36994D01*
G01X-36206Y-63213D02*
X-34632D01*
Y-64787D01*
X-36206D01*
G01Y-57287D02*
X-34632D01*
Y-55713D01*
X-36206D01*
G01X-36994Y-57287D02*
X-38568D01*
Y-55713D01*
X-36994D01*
G01X-23006Y-84687D02*
X-21432D01*
Y-83113D01*
X-23006D01*
G01X-23794Y-84687D02*
X-25368D01*
Y-83113D01*
X-23794D01*
G01X-23006Y-82587D02*
X-21432D01*
Y-81013D01*
X-23006D01*
G01X-23794Y-82587D02*
X-25368D01*
Y-81013D01*
X-23794D01*
G01X-24413Y-90306D02*
Y-88732D01*
X-25987D01*
Y-90306D01*
G01X-24413Y-91094D02*
Y-92668D01*
X-25987D01*
Y-91094D01*
G01X-29306Y-93087D02*
X-27732D01*
Y-91513D01*
X-29306D01*
G01X-30094Y-93087D02*
X-31668D01*
Y-91513D01*
X-30094D01*
G01X-23006Y-80487D02*
X-21432D01*
Y-78913D01*
X-23006D01*
G01X-23794Y-80487D02*
X-25368D01*
Y-78913D01*
X-23794D01*
G01X-21087Y-60694D02*
Y-62268D01*
X-19513D01*
Y-60694D01*
G01X-21087Y-59906D02*
Y-58332D01*
X-19513D01*
Y-59906D01*
G01X-19194Y-39387D02*
X-20768D01*
Y-37813D01*
X-19194D01*
G01Y-41587D02*
X-20768D01*
Y-40013D01*
X-19194D01*
G01X-19887Y-23994D02*
Y-25568D01*
X-18313D01*
Y-23994D01*
G01X-19887Y-23206D02*
Y-21632D01*
X-18313D01*
Y-23206D01*
G01X-21987Y-23994D02*
Y-25568D01*
X-20413D01*
Y-23994D01*
G01X-21987Y-23206D02*
Y-21632D01*
X-20413D01*
Y-23206D01*
G01X-12987Y-100794D02*
Y-102368D01*
X-11413D01*
Y-100794D01*
G01X-12987Y-100006D02*
Y-98432D01*
X-11413D01*
Y-100006D01*
G01X-10787Y-100794D02*
Y-102368D01*
X-9213D01*
Y-100794D01*
G01X-10787Y-100006D02*
Y-98432D01*
X-9213D01*
Y-100006D01*
G01X-18406Y-39387D02*
X-16832D01*
Y-37813D01*
X-18406D01*
G01Y-41587D02*
X-16832D01*
Y-40013D01*
X-18406D01*
G54D19*
G01X-78035Y38155D02*
Y32645D01*
G01X-82365Y38155D02*
Y32645D01*
G01D02*
X-78035D01*
G01X-81435Y38742D02*
G03I-200J0D01*
G01X-82365Y38155D02*
X-78035D01*
G01X-81475Y37565D02*
G03I-200J0D01*
G01X-75135Y80842D02*
G03I-200J0D01*
G01X-71735Y80255D02*
Y74745D01*
G01X-76065Y80255D02*
X-71735D01*
G01X-76065D02*
Y74745D01*
G01D02*
X-71735D01*
G01X-75175Y79665D02*
G03I-200J0D01*
M02*
