G04 ================== begin FILE IDENTIFICATION RECORD ==================*
G04 Layout Name:  ELRS-TX-MODULE-V13-20260610.brd*
G04 Film Name:    SILKBOT*
G04 File Format:  Gerber RS274X*
G04 File Origin:  Cadence Allegro 16.6-2015-S108*
G04 Origin Date:  Thu Jun 11 13:53:02 2026*
G04 *
G04 Layer:  BOARD GEOMETRY/OUTLINE*
G04 Layer:  BOARD GEOMETRY/SILKSCREEN_BOTTOM*
G04 Layer:  PACKAGE GEOMETRY/SILKSCREEN_BOTTOM*
G04 *
G04 Offset:    (0.00 0.00)*
G04 Mirror:    No*
G04 Mode:      Positive*
G04 Rotation:  0*
G04 FullContactRelief:  No*
G04 UndefLineWidth:     5.98*
G04 ================== end FILE IDENTIFICATION RECORD ====================*
%FSLAX25Y25*MOIN*%
%IR0*IPPOS*OFA0.00000B0.00000*MIA0B0*SFA1.00000B1.00000*%
%ADD10C,.004*%
%ADD11C,.00598*%
%ADD12C,.006*%
%ADD13C,.008*%
%ADD14C,.0063*%
G75*
%LPD*%
G75*
G36*
G01X-146900Y-138300D02*
Y-128200D01*
X-66700D01*
Y-138300D01*
X-146900D01*
G37*
G36*
G01X-135450Y-91850D02*
X-147750D01*
Y-124150D01*
X-135450D01*
Y-91850D01*
G37*
G36*
G01X-118400Y72800D02*
Y66400D01*
X-113400D01*
Y72800D01*
X-118400D01*
G37*
G36*
G01X-98900Y-32400D02*
Y-43400D01*
X-47600D01*
Y-32400D01*
X-98900D01*
G37*
G36*
G01X-105986Y39400D02*
G03I-1414J0D01*
G37*
G36*
G01X-91879Y95100D02*
G03I-1421J0D01*
G37*
G36*
G01X-74124Y47500D02*
G03I-1476J0D01*
G37*
G36*
G01X-74213Y43400D02*
G03I-1487J0D01*
G37*
G36*
G01X-77258Y95100D02*
G03I-1442J0D01*
G37*
G36*
G01X-40000Y-21000D02*
Y-41100D01*
X-30600D01*
Y-21000D01*
X-40000D01*
G37*
G54D10*
G01X-139933Y-127800D02*
Y-124800D01*
X-140767D01*
X-141033Y-124950D01*
X-141200Y-125150D01*
X-141267Y-125550D01*
X-141200Y-125950D01*
X-141000Y-126200D01*
X-140767Y-126350D01*
X-139933D01*
G01X-140767D02*
X-141267Y-127800D01*
G01X-142400D02*
X-143800Y-124800D01*
G01X-142400D02*
X-143800Y-127800D01*
G01X-118117Y-124850D02*
X-118950Y-127850D01*
X-119783Y-124850D01*
G01X-122183Y-125100D02*
X-121983Y-124950D01*
X-121750Y-124850D01*
X-121483D01*
X-121183Y-125000D01*
X-120950Y-125250D01*
X-120783Y-125550D01*
X-120650Y-126050D01*
X-120617Y-126500D01*
X-120683Y-126950D01*
X-120783Y-127250D01*
X-120983Y-127550D01*
X-121217Y-127750D01*
X-121450Y-127850D01*
X-121683D01*
X-121917Y-127750D01*
X-122117Y-127600D01*
X-122283Y-127400D01*
G01X-124683Y-125100D02*
X-124483Y-124950D01*
X-124250Y-124850D01*
X-123983D01*
X-123683Y-125000D01*
X-123450Y-125250D01*
X-123283Y-125550D01*
X-123150Y-126050D01*
X-123117Y-126500D01*
X-123183Y-126950D01*
X-123283Y-127250D01*
X-123483Y-127550D01*
X-123717Y-127750D01*
X-123950Y-127850D01*
X-124183D01*
X-124417Y-127750D01*
X-124617Y-127600D01*
X-124783Y-127400D01*
G01X-129600Y-126350D02*
X-130267D01*
Y-127250D01*
X-130067Y-127550D01*
X-129833Y-127750D01*
X-129500Y-127850D01*
X-129167Y-127750D01*
X-128933Y-127550D01*
X-128733Y-127250D01*
X-128600Y-126900D01*
X-128533Y-126500D01*
Y-126150D01*
X-128600Y-125850D01*
X-128733Y-125500D01*
X-128933Y-125200D01*
X-129133Y-125000D01*
X-129400Y-124850D01*
X-129633D01*
X-129900Y-124950D01*
X-130100Y-125150D01*
G01X-131133Y-127850D02*
Y-124850D01*
X-132667Y-127850D01*
Y-124850D01*
G01X-133667Y-127850D02*
Y-124850D01*
X-134333D01*
X-134600Y-125000D01*
X-134800Y-125200D01*
X-134967Y-125500D01*
X-135100Y-125850D01*
X-135133Y-126350D01*
X-135100Y-126850D01*
X-134967Y-127200D01*
X-134800Y-127500D01*
X-134600Y-127700D01*
X-134333Y-127850D01*
X-133667D01*
G01X-130291Y-115502D02*
X-133291D01*
Y-116336D01*
X-133141Y-116602D01*
X-132941Y-116769D01*
X-132541Y-116836D01*
X-132141Y-116769D01*
X-131891Y-116569D01*
X-131741Y-116336D01*
Y-115502D01*
G01Y-116336D02*
X-130291Y-116836D01*
G01Y-117969D02*
X-133291Y-119369D01*
G01Y-117969D02*
X-130291Y-119369D01*
G01X-131641Y-105369D02*
Y-106036D01*
X-130741D01*
X-130441Y-105836D01*
X-130241Y-105602D01*
X-130141Y-105269D01*
X-130241Y-104936D01*
X-130441Y-104702D01*
X-130741Y-104502D01*
X-131091Y-104369D01*
X-131491Y-104302D01*
X-131841D01*
X-132141Y-104369D01*
X-132491Y-104502D01*
X-132791Y-104702D01*
X-132991Y-104902D01*
X-133141Y-105169D01*
Y-105402D01*
X-133041Y-105669D01*
X-132841Y-105869D01*
G01X-130141Y-106902D02*
X-133141D01*
X-130141Y-108436D01*
X-133141D01*
G01X-130141Y-109436D02*
X-133141D01*
Y-110102D01*
X-132991Y-110369D01*
X-132791Y-110569D01*
X-132491Y-110736D01*
X-132141Y-110869D01*
X-131641Y-110902D01*
X-131141Y-110869D01*
X-130791Y-110736D01*
X-130491Y-110569D01*
X-130291Y-110369D01*
X-130141Y-110102D01*
Y-109436D01*
G01X-133041Y-94486D02*
X-130041Y-95319D01*
X-133041Y-96152D01*
G01X-132791Y-98552D02*
X-132941Y-98352D01*
X-133041Y-98119D01*
Y-97852D01*
X-132891Y-97552D01*
X-132641Y-97319D01*
X-132341Y-97152D01*
X-131841Y-97019D01*
X-131391Y-96986D01*
X-130941Y-97052D01*
X-130641Y-97152D01*
X-130341Y-97352D01*
X-130141Y-97586D01*
X-130041Y-97819D01*
Y-98052D01*
X-130141Y-98286D01*
X-130291Y-98486D01*
X-130491Y-98652D01*
G01X-132791Y-101052D02*
X-132941Y-100852D01*
X-133041Y-100619D01*
Y-100352D01*
X-132891Y-100052D01*
X-132641Y-99819D01*
X-132341Y-99652D01*
X-131841Y-99519D01*
X-131391Y-99486D01*
X-130941Y-99552D01*
X-130641Y-99652D01*
X-130341Y-99852D01*
X-130141Y-100086D01*
X-130041Y-100319D01*
Y-100552D01*
X-130141Y-100786D01*
X-130291Y-100986D01*
X-130491Y-101152D01*
G01X-82400Y-44267D02*
X-82050Y-44467D01*
X-81850Y-44733D01*
X-81800Y-45033D01*
X-81850Y-45300D01*
X-82100Y-45567D01*
X-82400Y-45733D01*
X-82700Y-45767D01*
X-83050Y-45700D01*
X-83300Y-45467D01*
X-83400Y-45233D01*
Y-44933D01*
G01Y-45233D02*
X-83550Y-45433D01*
X-83800Y-45600D01*
X-84100Y-45667D01*
X-84400Y-45600D01*
X-84650Y-45433D01*
X-84800Y-45133D01*
X-84750Y-44833D01*
X-84550Y-44533D01*
G01X-84800Y-46667D02*
X-81800Y-47500D01*
X-84800Y-48333D01*
G01X-82400Y-49267D02*
X-82050Y-49467D01*
X-81850Y-49733D01*
X-81800Y-50033D01*
X-81850Y-50300D01*
X-82100Y-50567D01*
X-82400Y-50733D01*
X-82700Y-50767D01*
X-83050Y-50700D01*
X-83300Y-50467D01*
X-83400Y-50233D01*
Y-49933D01*
G01Y-50233D02*
X-83550Y-50433D01*
X-83800Y-50600D01*
X-84100Y-50667D01*
X-84400Y-50600D01*
X-84650Y-50433D01*
X-84800Y-50133D01*
X-84750Y-49833D01*
X-84550Y-49533D01*
G01X-91900Y-44433D02*
X-94900D01*
Y-45267D01*
X-94750Y-45533D01*
X-94550Y-45700D01*
X-94150Y-45767D01*
X-93750Y-45700D01*
X-93500Y-45500D01*
X-93350Y-45267D01*
Y-44433D01*
G01Y-45267D02*
X-91900Y-45767D01*
G01X-92300Y-46900D02*
X-92050Y-47167D01*
X-91900Y-47467D01*
Y-47733D01*
X-92050Y-48000D01*
X-92300Y-48200D01*
X-92650Y-48300D01*
X-93000Y-48233D01*
X-93300Y-48067D01*
X-93500Y-47767D01*
X-93600Y-47367D01*
X-93800Y-47133D01*
X-94150Y-47033D01*
X-94500Y-47100D01*
X-94750Y-47267D01*
X-94900Y-47500D01*
Y-47733D01*
X-94800Y-47967D01*
X-94550Y-48167D01*
G01X-94900Y-50100D02*
X-91900D01*
G01X-94900Y-49333D02*
Y-50867D01*
G01X-74800Y-45550D02*
X-71800D01*
G01X-74800Y-44783D02*
Y-46317D01*
G01X-71800Y-47350D02*
X-74800Y-48750D01*
G01Y-47350D02*
X-71800Y-48750D01*
G01X-61900Y-44783D02*
X-64900D01*
Y-45617D01*
X-64750Y-45883D01*
X-64550Y-46050D01*
X-64150Y-46117D01*
X-63750Y-46050D01*
X-63500Y-45850D01*
X-63350Y-45617D01*
Y-44783D01*
G01Y-45617D02*
X-61900Y-46117D01*
G01Y-47250D02*
X-64900Y-48650D01*
G01Y-47250D02*
X-61900Y-48650D01*
G01X-53300Y-44800D02*
Y-45467D01*
X-52400D01*
X-52100Y-45267D01*
X-51900Y-45033D01*
X-51800Y-44700D01*
X-51900Y-44367D01*
X-52100Y-44133D01*
X-52400Y-43933D01*
X-52750Y-43800D01*
X-53150Y-43733D01*
X-53500D01*
X-53800Y-43800D01*
X-54150Y-43933D01*
X-54450Y-44133D01*
X-54650Y-44333D01*
X-54800Y-44600D01*
Y-44833D01*
X-54700Y-45100D01*
X-54500Y-45300D01*
G01X-51800Y-46333D02*
X-54800D01*
X-51800Y-47867D01*
X-54800D01*
G01X-51800Y-48867D02*
X-54800D01*
Y-49533D01*
X-54650Y-49800D01*
X-54450Y-50000D01*
X-54150Y-50167D01*
X-53800Y-50300D01*
X-53300Y-50333D01*
X-52800Y-50300D01*
X-52450Y-50167D01*
X-52150Y-50000D01*
X-51950Y-49800D01*
X-51800Y-49533D01*
Y-48867D01*
G01X-34167Y108100D02*
Y111100D01*
X-35433D01*
G01X-34967Y109650D02*
X-34167D01*
G01X-36467Y108100D02*
X-37300Y111100D01*
X-38133Y108100D01*
G01X-37833Y109150D02*
X-36767D01*
G01X-39033Y108100D02*
Y111100D01*
X-40567Y108100D01*
Y111100D01*
G01X-10767Y-50400D02*
Y-47400D01*
X-12033D01*
G01X-11567Y-48850D02*
X-10767D01*
G01X-13067Y-50400D02*
X-13900Y-47400D01*
X-14733Y-50400D01*
G01X-14433Y-49350D02*
X-13367D01*
G01X-15633Y-50400D02*
Y-47400D01*
X-17167Y-50400D01*
Y-47400D01*
G01X-18467Y-49400D02*
X-19333D01*
G01X-20733Y-50400D02*
Y-47400D01*
X-21533D01*
X-21800Y-47550D01*
X-22000Y-47900D01*
X-22067Y-48300D01*
X-22000Y-48700D01*
X-21833Y-49000D01*
X-21533Y-49150D01*
X-20733D01*
G01X-23900Y-50400D02*
X-23633Y-50350D01*
X-23400Y-50150D01*
X-23200Y-49850D01*
X-23067Y-49500D01*
X-23000Y-49100D01*
Y-48700D01*
X-23067Y-48300D01*
X-23200Y-47950D01*
X-23400Y-47650D01*
X-23633Y-47450D01*
X-23900Y-47400D01*
X-24167Y-47450D01*
X-24400Y-47650D01*
X-24600Y-47950D01*
X-24733Y-48300D01*
X-24800Y-48700D01*
Y-49100D01*
X-24733Y-49500D01*
X-24600Y-49850D01*
X-24400Y-50150D01*
X-24167Y-50350D01*
X-23900Y-50400D01*
G01X-25400Y-47400D02*
X-25867Y-50400D01*
X-26400Y-47400D01*
X-26933Y-50400D01*
X-27400Y-47400D01*
G01X-29567Y-50400D02*
X-28233D01*
Y-47400D01*
X-29567D01*
G01X-29033Y-48850D02*
X-28233D01*
G01X-30733Y-50400D02*
Y-47400D01*
X-31567D01*
X-31833Y-47550D01*
X-32000Y-47750D01*
X-32067Y-48150D01*
X-32000Y-48550D01*
X-31800Y-48800D01*
X-31567Y-48950D01*
X-30733D01*
G01X-31567D02*
X-32067Y-50400D01*
G54D11*
G01X-5760Y-91210D02*
Y145010D01*
Y158759D01*
X-163240D01*
Y145010D01*
Y-91208D01*
X-163243D01*
Y-151452D01*
X-5760D01*
Y-91210D01*
G54D12*
G01X-163198Y-12482D02*
Y144998D01*
G01X-5718Y-12482D02*
X-163198D01*
G01Y144998D02*
X-5718D01*
G01X-138592Y3266D02*
G03I-8858J0D01*
G01Y129250D02*
G03I-8858J0D01*
G01X-38133Y-44623D02*
Y-42977D01*
G01X-37703Y-18033D02*
X-39223D01*
G01X-38400Y-16950D02*
Y-19117D01*
G01X-12608Y3266D02*
G03I-8858J0D01*
G01Y129250D02*
G03I-8858J0D01*
G01X-5718Y144998D02*
Y-12482D01*
G54D13*
G01X-41064Y-35800D02*
X-43764Y-38500D01*
Y-33000D01*
X-41064Y-35700D01*
Y-35800D01*
G54D14*
G01X-35264Y-45658D02*
X-5736D01*
G01X-35264Y-39437D02*
Y-45658D01*
G01Y-29161D02*
Y-31720D01*
G01Y-15342D02*
Y-21799D01*
G01X-5736Y-15342D02*
X-35264D01*
G01X-5736Y-45658D02*
Y-15342D01*
M02*
