G04 ================== begin FILE IDENTIFICATION RECORD ==================*
G04 Layout Name:  ELRS-TX-MODULE-V13-20260610.brd*
G04 Film Name:    SOLDTOP*
G04 File Format:  Gerber RS274X*
G04 File Origin:  Cadence Allegro 16.6-2015-S108*
G04 Origin Date:  Thu Jun 11 13:53:02 2026*
G04 *
G04 Layer:  PIN/SOLDERMASK_TOP*
G04 Layer:  PACKAGE GEOMETRY/SOLDERMASK_TOP*
G04 Layer:  BOARD GEOMETRY/SOLDERMASK_TOP*
G04 Layer:  BOARD GEOMETRY/OUTLINE*
G04 *
G04 Offset:    (0.00 0.00)*
G04 Mirror:    No*
G04 Mode:      Positive*
G04 Rotation:  0*
G04 FullContactRelief:  No*
G04 UndefLineWidth:     5.00*
G04 ================== end FILE IDENTIFICATION RECORD ====================*
%FSLAX25Y25*MOIN*%
%IR0*IPPOS*OFA0.00000B0.00000*MIA0B0*SFA1.00000B1.00000*%
%ADD11C,.07*%
%ADD35R,.024X.024*%
%ADD17C,.067*%
%ADD12R,.07X.07*%
%ADD18R,.044X.044*%
%ADD36R,.04331X.04331*%
%ADD56C,.06706*%
%ADD10R,.067X.067*%
%AMMACRO58*
4,1,44,-.00827,.01378,
.00827,.01378,
.008884,.013727,
.009479,.013569,
.010038,.013309,
.010543,.012956,
.01098,.012521,
.011334,.012017,
.011595,.011459,
.011755,.010864,
.01181,.01025,
.01181,.01024,
.01181,-.01024,
.011757,-.010854,
.011599,-.011449,
.011339,-.012008,
.010986,-.012513,
.010551,-.01295,
.010047,-.013304,
.009489,-.013565,
.008894,-.013725,
.00828,-.01378,
.00827,-.01378,
-.00827,-.01378,
-.008884,-.013727,
-.009479,-.013569,
-.010038,-.013309,
-.010543,-.012956,
-.01098,-.012521,
-.011334,-.012017,
-.011595,-.011459,
-.011755,-.010864,
-.01181,-.01025,
-.01181,-.01024,
-.01181,.01024,
-.011757,.010854,
-.011599,.011449,
-.011339,.012008,
-.010986,.012513,
-.010551,.01295,
-.010047,.013304,
-.009489,.013565,
-.008894,.013725,
-.00828,.01378,
-.00827,.01378,
0.0*
%
%ADD58MACRO58*%
%ADD38C,.0669*%
%AMMACRO14*
4,1,44,-.01378,-.00827,
-.01378,.00827,
-.013727,.008884,
-.013569,.009479,
-.013309,.010038,
-.012956,.010543,
-.012521,.01098,
-.012017,.011334,
-.011459,.011595,
-.010864,.011755,
-.01025,.01181,
-.01024,.01181,
.01024,.01181,
.010854,.011757,
.011449,.011599,
.012008,.011339,
.012513,.010986,
.01295,.010551,
.013304,.010047,
.013565,.009489,
.013725,.008894,
.01378,.00828,
.01378,.00827,
.01378,-.00827,
.013727,-.008884,
.013569,-.009479,
.013309,-.010038,
.012956,-.010543,
.012521,-.01098,
.012017,-.011334,
.011459,-.011595,
.010864,-.011755,
.01025,-.01181,
.01024,-.01181,
-.01024,-.01181,
-.010854,-.011757,
-.011449,-.011599,
-.012008,-.011339,
-.012513,-.010986,
-.01295,-.010551,
-.013304,-.010047,
-.013565,-.009489,
-.013725,-.008894,
-.01378,-.00828,
-.01378,-.00827,
0.0*
%
%ADD14MACRO14*%
%ADD54R,.0709X.0709*%
%ADD55R,.06706X.06706*%
%ADD29C,.11*%
%ADD27R,.08X.04*%
%ADD45R,.041X.036*%
%ADD47R,.052X.064*%
%ADD24R,.1X.1*%
%ADD19R,.024X.049*%
%ADD46R,.092X.064*%
%ADD22R,.039X.036*%
%ADD44R,.03161X.0335*%
%ADD39R,.036X.039*%
%ADD53R,.0138X.0316*%
%ADD52R,.0316X.0138*%
%ADD51R,.0174X.0237*%
%ADD30R,.085X.075*%
%ADD16O,.02756X.0252*%
%ADD28O,.0252X.02756*%
%ADD41R,.0168X.0138*%
%ADD32R,.11614X.11614*%
%ADD50R,.04921X.01575*%
%ADD26O,.03346X.01299*%
%ADD31O,.01299X.03346*%
%AMMACRO13*
4,1,44,.01378,.00827,
.01378,-.00827,
.013727,-.008884,
.013569,-.009479,
.013309,-.010038,
.012956,-.010543,
.012521,-.01098,
.012017,-.011334,
.011459,-.011595,
.010864,-.011755,
.01025,-.01181,
.01024,-.01181,
-.01024,-.01181,
-.010854,-.011757,
-.011449,-.011599,
-.012008,-.011339,
-.012513,-.010986,
-.01295,-.010551,
-.013304,-.010047,
-.013565,-.009489,
-.013725,-.008894,
-.01378,-.00828,
-.01378,-.00827,
-.01378,.00827,
-.013727,.008884,
-.013569,.009479,
-.013309,.010038,
-.012956,.010543,
-.012521,.01098,
-.012017,.011334,
-.011459,.011595,
-.010864,.011755,
-.01025,.01181,
-.01024,.01181,
.01024,.01181,
.010854,.011757,
.011449,.011599,
.012008,.011339,
.012513,.010986,
.01295,.010551,
.013304,.010047,
.013565,.009489,
.013725,.008894,
.01378,.00828,
.01378,.00827,
0.0*
%
%ADD13MACRO13*%
%ADD48R,.04921X.02756*%
%ADD42R,.05197X.05315*%
%AMMACRO40*
4,1,44,.00827,-.01378,
-.00827,-.01378,
-.008884,-.013727,
-.009479,-.013569,
-.010038,-.013309,
-.010543,-.012956,
-.01098,-.012521,
-.011334,-.012017,
-.011595,-.011459,
-.011755,-.010864,
-.01181,-.01025,
-.01181,-.01024,
-.01181,.01024,
-.011757,.010854,
-.011599,.011449,
-.011339,.012008,
-.010986,.012513,
-.010551,.01295,
-.010047,.013304,
-.009489,.013565,
-.008894,.013725,
-.00828,.01378,
-.00827,.01378,
.00827,.01378,
.008884,.013727,
.009479,.013569,
.010038,.013309,
.010543,.012956,
.01098,.012521,
.011334,.012017,
.011595,.011459,
.011755,.010864,
.01181,.01025,
.01181,.01024,
.01181,-.01024,
.011757,-.010854,
.011599,-.011449,
.011339,-.012008,
.010986,-.012513,
.010551,-.01295,
.010047,-.013304,
.009489,-.013565,
.008894,-.013725,
.00828,-.01378,
.00827,-.01378,
0.0*
%
%ADD40MACRO40*%
%ADD43R,.02559X.01772*%
%ADD34R,.01575X.03268*%
%AMMACRO33*
21,1,.01378,.01378,0.0,0.0,45.*%
%ADD33MACRO33*%
%ADD20R,.0374X.08268*%
%ADD15R,.01378X.01378*%
%ADD59R,.06299X.02362*%
%ADD23R,.01378X.01378*%
%ADD57O,.07087X.03937*%
%ADD25R,.04567X.02953*%
%ADD21R,.02953X.04567*%
%ADD49O,.08268X.03937*%
%ADD37R,.02756X.08268*%
%ADD60C,.04*%
%ADD61C,.005*%
%ADD62C,.006*%
G75*
%LPD*%
G75*
G54D10*
X-141800Y-133500D03*
G54D20*
X-131435Y-76100D03*
X-123365D03*
G54D11*
X-141700Y-118000D03*
Y-108000D03*
X-83300Y-38050D03*
X-73300D03*
X-63300D03*
X-53300D03*
G54D21*
X-132290Y-48631D03*
X-128550D03*
X-124810D03*
Y-39969D03*
X-132290D03*
G54D30*
X-88070Y-107900D03*
X-72530D03*
G54D12*
X-141700Y-98000D03*
X-93300Y-38050D03*
G54D40*
X-71568Y15201D03*
X-75032D03*
G54D13*
X-135600Y-75568D03*
Y-79032D03*
X-136450Y-46468D03*
Y-49932D03*
X-103898Y-15632D03*
Y-12168D03*
X-72800Y-17332D03*
Y-13868D03*
X-16400Y-22568D03*
Y-26032D03*
G54D31*
X-95257Y-11126D03*
X-93288D03*
X-91320D03*
X-89351D03*
X-87383D03*
X-85414D03*
Y8560D03*
X-87383D03*
X-89351D03*
X-91320D03*
X-93288D03*
X-95257D03*
X-83446Y-11126D03*
X-81477D03*
Y8560D03*
X-83446D03*
G54D22*
X-115600Y-70850D03*
Y-75550D03*
Y-65650D03*
Y-60950D03*
X-111400Y70750D03*
Y75450D03*
G54D23*
X-120781Y-55100D03*
X-118419D03*
Y-57200D03*
X-120781D03*
X-104080Y-8000D03*
X-101718D03*
X-101719Y7899D03*
X-104081D03*
X-104080Y5699D03*
X-101718D03*
X-104081Y3600D03*
X-101719D03*
X-98750Y43000D03*
X-101112D03*
X-98781Y66200D03*
Y78800D03*
X-89069Y-52599D03*
X-91431D03*
X-87619Y31900D03*
X-89981D03*
X-87620Y23200D03*
X-89982D03*
X-87618Y25300D03*
X-89980D03*
X-94481Y45100D03*
X-92119D03*
X-87619Y43000D03*
X-89981D03*
X-92119D03*
X-94481D03*
X-96419Y66200D03*
Y78800D03*
X-72081Y-5700D03*
X-74519Y-11500D03*
X-76881D03*
X-72082Y-3599D03*
X-72081Y-1501D03*
X-74481Y17900D03*
X-72119D03*
X-76719Y26200D03*
X-79081D03*
X-71081Y48800D03*
X-80181D03*
X-77819D03*
Y46700D03*
X-80181D03*
X-77819Y44600D03*
X-80181D03*
X-73319D03*
X-75681D03*
X-75581Y48800D03*
X-73219D03*
X-69719Y-5700D03*
X-69720Y-3599D03*
X-69719Y-1501D03*
X-67318Y9400D03*
X-69680D03*
X-68719Y48800D03*
X-45519Y-84100D03*
X-47881D03*
X-45519Y-81900D03*
X-47881D03*
Y-86300D03*
X-45519D03*
X-47881Y-79700D03*
X-45519D03*
X-37781Y-66300D03*
X-35419D03*
Y-64000D03*
X-37781D03*
Y-56500D03*
X-35419D03*
X-24581Y-83900D03*
X-22219D03*
X-24581Y-81800D03*
X-22219D03*
X-30881Y-92300D03*
X-28519D03*
X-24581Y-79700D03*
X-22219D03*
X-19981Y-38600D03*
Y-40800D03*
X-17619Y-38600D03*
Y-40800D03*
G54D50*
X-35086Y-119947D03*
Y-121916D03*
Y-123884D03*
Y-125853D03*
Y-127821D03*
Y-129790D03*
Y-116010D03*
Y-117979D03*
G54D32*
X-88367Y-1283D03*
G54D41*
X-79065Y35405D03*
Y33435D03*
X-81335D03*
Y35405D03*
X-80205Y37375D03*
X-72765Y77505D03*
Y75535D03*
X-75035D03*
Y77505D03*
X-73905Y79475D03*
G54D14*
X-139000Y-79032D03*
Y-75568D03*
X-136450Y-43432D03*
Y-39968D03*
X-22400Y-93132D03*
Y-89668D03*
G54D60*
G01X-130500Y-32763D02*
X-104782D01*
Y-87837D01*
X-159919D01*
Y-32763D01*
G01D02*
X-141600D01*
G01X-123680Y-26623D02*
Y-21000D01*
G01X-45721Y-26623D02*
X-123680D01*
G01Y-11200D02*
Y106023D01*
G01D02*
X-89100D01*
G01X-82200D02*
X-45721D01*
G01X-52900Y-72250D02*
X-17300D01*
Y-99550D01*
X-52900D01*
Y-72250D01*
G01X-45721Y106023D02*
Y-26623D01*
G54D15*
X-138100Y-73081D03*
Y-70719D03*
X-135900D03*
Y-73081D03*
X-139250Y-47519D03*
Y-49881D03*
Y-42781D03*
Y-40419D03*
X-109900Y-111381D03*
Y-109019D03*
Y-106881D03*
Y-104519D03*
X-119400Y-69319D03*
Y-71681D03*
X-119500Y-79581D03*
Y-77219D03*
X-111000Y-63319D03*
Y-65681D03*
X-97900Y-12818D03*
Y-15180D03*
X-99000Y16381D03*
Y14019D03*
X-96801Y16380D03*
Y14018D03*
X-105331Y40619D03*
Y42981D03*
X-107431D03*
Y40619D03*
X-103231D03*
Y42981D03*
X-96600D03*
Y40619D03*
X-105100Y71481D03*
Y69119D03*
X-107300Y71481D03*
Y69119D03*
X-98800Y83381D03*
Y81019D03*
X-89500Y-17080D03*
X-87400Y-17082D03*
X-89500Y-14718D03*
X-87400Y-14720D03*
X-85499Y21081D03*
Y18719D03*
X-94700Y18781D03*
Y16419D03*
X-92200Y18781D03*
Y16419D03*
X-87700Y21081D03*
Y18719D03*
X-90001Y21082D03*
Y18720D03*
X-92100Y29781D03*
Y27419D03*
X-90000Y34019D03*
Y29781D03*
Y27419D03*
Y40881D03*
Y38519D03*
Y36381D03*
X-85900Y100381D03*
Y98019D03*
X-91800Y92719D03*
Y95081D03*
X-80950Y-63219D03*
Y-65581D03*
X-83150Y-63219D03*
Y-65581D03*
X-83151Y-55519D03*
Y-57881D03*
X-76900Y21719D03*
X-79100D03*
X-76900Y24081D03*
X-79100D03*
X-76700Y34219D03*
X-79100Y30781D03*
Y28419D03*
X-80200Y42481D03*
Y40119D03*
X-76700Y36581D03*
X-72800Y68481D03*
Y66119D03*
Y72982D03*
Y70620D03*
X-73900Y84581D03*
Y82219D03*
X-80100Y92719D03*
Y95081D03*
X-59100Y-56419D03*
Y-58781D03*
X-64350Y-61519D03*
Y-63881D03*
X-64349Y-56519D03*
Y-58881D03*
X-69999Y-16682D03*
X-67501Y-3981D03*
X-65300Y-3982D03*
X-69999Y-14320D03*
X-67501Y-1619D03*
X-65300Y-1620D03*
X-70300Y78681D03*
Y76319D03*
X-25200Y-91881D03*
Y-89519D03*
X-20300Y-59119D03*
Y-61481D03*
X-19100Y-22419D03*
Y-24781D03*
X-21200Y-22419D03*
Y-24781D03*
X-12200Y-99219D03*
Y-101581D03*
X-10000Y-99219D03*
Y-101581D03*
G54D33*
X-85436Y13966D03*
X-83766Y15636D03*
X-73365Y4035D03*
X-75035Y2365D03*
X-76036Y8966D03*
X-77534Y10464D03*
X-74366Y10636D03*
X-75864Y12134D03*
G54D42*
X-57292Y-138695D03*
Y-127081D03*
X-26608Y-36319D03*
Y-24705D03*
G54D51*
X-40925Y-88420D03*
Y-77580D03*
X-31085Y-88420D03*
Y-77580D03*
G54D24*
X-112800Y55100D03*
G54D61*
G01X-5760Y-91210D02*
Y145010D01*
Y158759D01*
X-163240D01*
Y145010D01*
Y-91208D01*
X-163243D01*
Y-151452D01*
X-5760D01*
Y-91210D01*
G54D25*
X-95781Y-56460D03*
Y-60200D03*
Y-63940D03*
X-87119D03*
Y-56460D03*
X-76981D03*
Y-60200D03*
Y-63940D03*
X-68319D03*
Y-56460D03*
X-50731D03*
Y-60200D03*
Y-63940D03*
X-42069D03*
Y-56460D03*
G54D34*
X-85900Y88443D03*
X-88459D03*
Y95057D03*
X-85900D03*
X-83341Y88443D03*
Y95057D03*
G54D43*
X-59100Y-64164D03*
Y-61014D03*
G54D16*
X-139200Y-56190D03*
Y-52410D03*
X-111000Y-70910D03*
Y-74690D03*
X-100600Y-15890D03*
Y-12110D03*
X-98800Y72410D03*
Y76190D03*
X-67300Y-17291D03*
Y-13511D03*
X-16400Y-28810D03*
Y-32590D03*
G54D52*
X-41715Y-82020D03*
Y-83980D03*
Y-85950D03*
Y-80050D03*
X-30285Y-85950D03*
Y-83980D03*
Y-82020D03*
Y-80050D03*
G54D62*
G01X-138592Y3266D02*
G03I-8858J0D01*
G01Y129250D02*
G03I-8858J0D01*
G01X-12608Y3266D02*
G03I-8858J0D01*
G01Y129250D02*
G03I-8858J0D01*
G54D26*
X-98210Y-4236D03*
Y-6204D03*
Y-8173D03*
Y5607D03*
Y3638D03*
Y1670D03*
Y-299D03*
Y-2267D03*
X-78524Y-8173D03*
Y-6204D03*
Y-4236D03*
Y-2267D03*
Y-299D03*
Y1670D03*
Y3638D03*
Y5607D03*
G54D53*
X-38955Y-88710D03*
X-36985D03*
X-35025D03*
X-33055D03*
Y-77290D03*
X-35025D03*
X-36985D03*
X-38955D03*
G54D44*
X-66213Y1441D03*
Y6559D03*
X-69757D03*
Y1441D03*
G54D17*
X-131800Y-133500D03*
X-121800D03*
X-111800D03*
X-101800D03*
X-91800D03*
X-81800D03*
X-71800D03*
G54D35*
X-85899Y111702D03*
X-82703D03*
G54D45*
X-48350Y-132300D03*
X-42050D03*
G54D27*
X-98800Y49400D03*
Y60800D03*
Y55100D03*
G54D54*
X-36005Y-83000D03*
G54D36*
X-85902Y116668D03*
G54D18*
X-121700Y-107900D03*
X-113300Y-111650D03*
Y-104150D03*
X-33600Y-60300D03*
X-25200Y-64050D03*
Y-56550D03*
G54D37*
X-91713Y122668D03*
X-80091D03*
G54D28*
X-102590Y69100D03*
X-98810D03*
X-90010Y14000D03*
X-93790D03*
X-26190Y-86700D03*
X-22410D03*
G54D46*
X-42750Y-116850D03*
G54D19*
X-131140Y-68500D03*
X-127400D03*
X-123660D03*
X-127400Y-58500D03*
X-123660D03*
X-131140D03*
X-76500Y52700D03*
X-72760Y62700D03*
X-76500D03*
X-80240D03*
Y52700D03*
X-72760D03*
G54D55*
X-35264Y-35500D03*
G54D47*
X-50350Y-124850D03*
Y-116850D03*
X-42750Y-124850D03*
G54D29*
X-95898Y132702D03*
Y152702D03*
X-75898Y132702D03*
Y152702D03*
G54D38*
X-85898Y142702D03*
G54D56*
X-35264Y-25500D03*
G54D57*
X-16483Y-139908D03*
Y-105892D03*
G54D48*
X-35086Y-132349D03*
Y-135498D03*
Y-113451D03*
Y-110302D03*
G54D39*
X-81950Y-15600D03*
X-77250D03*
G54D49*
X-32822Y-139908D03*
Y-105892D03*
G54D58*
X-30832Y-94900D03*
X-27368D03*
X-19832Y-35700D03*
X-16368D03*
G54D59*
X-14300Y-66993D03*
Y-53607D03*
M02*
