G04 ================== begin FILE IDENTIFICATION RECORD ==================*
G04 Layout Name:  ELRS-TX-MODULE-V13-20260610.brd*
G04 Film Name:    TOP*
G04 File Format:  Gerber RS274X*
G04 File Origin:  Cadence Allegro 16.6-2015-S108*
G04 Origin Date:  Thu Jun 11 13:53:02 2026*
G04 *
G04 Layer:  VIA CLASS/TOP*
G04 Layer:  PIN/TOP*
G04 Layer:  ETCH/TOP*
G04 Layer:  BOARD GEOMETRY/OUTLINE*
G04 *
G04 Offset:    (0.00 0.00)*
G04 Mirror:    No*
G04 Mode:      Positive*
G04 Rotation:  0*
G04 FullContactRelief:  No*
G04 UndefLineWidth:     5.00*
G04 ================== end FILE IDENTIFICATION RECORD ====================*
%FSLAX25Y25*MOIN*%
%IR0*IPPOS*OFA0.00000B0.00000*MIA0B0*SFA1.00000B1.00000*%
%ADD10C,.014*%
%ADD36R,.02X.02*%
%ADD18C,.063*%
%ADD19R,.04X.04*%
%ADD12C,.065*%
%ADD30C,.093*%
%AMMACRO59*
4,1,44,-.00689,.01181,
.00689,.01181,
.007401,.011767,
.007897,.011635,
.008362,.011419,
.008783,.011126,
.009147,.010765,
.009442,.010345,
.00966,.009881,
.009794,.009386,
.00984,.008875,
.00984,.00886,
.00984,-.00886,
.009797,-.009371,
.009665,-.009867,
.009449,-.010332,
.009156,-.010753,
.008795,-.011117,
.008375,-.011412,
.007911,-.01163,
.007416,-.011764,
.006905,-.01181,
.00689,-.01181,
-.00689,-.01181,
-.007401,-.011767,
-.007897,-.011635,
-.008362,-.011419,
-.008783,-.011126,
-.009147,-.010765,
-.009442,-.010345,
-.00966,-.009881,
-.009794,-.009386,
-.00984,-.008875,
-.00984,-.00886,
-.00984,.00886,
-.009797,.009371,
-.009665,.009867,
-.009449,.010332,
-.009156,.010753,
-.008795,.011117,
-.008375,.011412,
-.007911,.01163,
-.007416,.011764,
-.006905,.01181,
-.00689,.01181,
0.0*
%
%ADD59MACRO59*%
%AMMACRO15*
4,1,44,-.01181,-.00689,
-.01181,.00689,
-.011767,.007401,
-.011635,.007897,
-.011419,.008362,
-.011126,.008783,
-.010765,.009147,
-.010345,.009442,
-.009881,.00966,
-.009386,.009794,
-.008875,.00984,
-.00886,.00984,
.00886,.00984,
.009371,.009797,
.009867,.009665,
.010332,.009449,
.010753,.009156,
.011117,.008795,
.011412,.008375,
.01163,.007911,
.011764,.007416,
.01181,.006905,
.01181,.00689,
.01181,-.00689,
.011767,-.007401,
.011635,-.007897,
.011419,-.008362,
.011126,-.008783,
.010765,-.009147,
.010345,-.009442,
.009881,-.00966,
.009386,-.009794,
.008875,-.00984,
.00886,-.00984,
-.00886,-.00984,
-.009371,-.009797,
-.009867,-.009665,
-.010332,-.009449,
-.010753,-.009156,
-.011117,-.008795,
-.011412,-.008375,
-.01163,-.007911,
-.011764,-.007416,
-.01181,-.006905,
-.01181,-.00689,
0.0*
%
%ADD15MACRO15*%
%ADD25R,.09X.09*%
%ADD11R,.063X.063*%
%ADD13R,.065X.065*%
%ADD56C,.05906*%
%ADD41R,.0128X.0098*%
%ADD57C,.02559*%
%ADD53R,.0098X.0276*%
%ADD52R,.0276X.0098*%
%ADD55R,.05906X.05906*%
%ADD54R,.0669X.0669*%
%ADD37R,.03937X.03937*%
%ADD28R,.07X.03*%
%ADD27O,.0315X.01102*%
%ADD32O,.01102X.0315*%
%ADD20R,.02X.045*%
%ADD47R,.032X.044*%
%ADD45R,.036X.031*%
%ADD23R,.035X.032*%
%ADD39R,.032X.035*%
%ADD31R,.08X.07*%
%ADD46R,.072X.044*%
%ADD17O,.02362X.02126*%
%AMMACRO34*
21,1,.01181,.01181,0.0,0.0,45.*%
%ADD34MACRO34*%
%ADD29O,.02126X.02362*%
%ADD16R,.01181X.01181*%
%ADD24R,.01181X.01181*%
%ADD51R,.0134X.0197*%
%AMMACRO14*
4,1,44,.01181,.00689,
.01181,-.00689,
.011767,-.007401,
.011635,-.007897,
.011419,-.008362,
.011126,-.008783,
.010765,-.009147,
.010345,-.009442,
.009881,-.00966,
.009386,-.009794,
.008875,-.00984,
.00886,-.00984,
-.00886,-.00984,
-.009371,-.009797,
-.009867,-.009665,
-.010332,-.009449,
-.010753,-.009156,
-.011117,-.008795,
-.011412,-.008375,
-.01163,-.007911,
-.011764,-.007416,
-.01181,-.006905,
-.01181,-.00689,
-.01181,.00689,
-.011767,.007401,
-.011635,.007897,
-.011419,.008362,
-.011126,.008783,
-.010765,.009147,
-.010345,.009442,
-.009881,.00966,
-.009386,.009794,
-.008875,.00984,
-.00886,.00984,
.00886,.00984,
.009371,.009797,
.009867,.009665,
.010332,.009449,
.010753,.009156,
.011117,.008795,
.011412,.008375,
.01163,.007911,
.011764,.007416,
.01181,.006905,
.01181,.00689,
0.0*
%
%ADD14MACRO14*%
%AMMACRO40*
4,1,44,.00689,-.01181,
-.00689,-.01181,
-.007401,-.011767,
-.007897,-.011635,
-.008362,-.011419,
-.008783,-.011126,
-.009147,-.010765,
-.009442,-.010345,
-.00966,-.009881,
-.009794,-.009386,
-.00984,-.008875,
-.00984,-.00886,
-.00984,.00886,
-.009797,.009371,
-.009665,.009867,
-.009449,.010332,
-.009156,.010753,
-.008795,.011117,
-.008375,.011412,
-.007911,.01163,
-.007416,.011764,
-.006905,.01181,
-.00689,.01181,
.00689,.01181,
.007401,.011767,
.007897,.011635,
.008362,.011419,
.008783,.011126,
.009147,.010765,
.009442,.010345,
.00966,.009881,
.009794,.009386,
.00984,.008875,
.00984,.00886,
.00984,-.00886,
.009797,-.009371,
.009665,-.009867,
.009449,-.010332,
.009156,-.010753,
.008795,-.011117,
.008375,-.011412,
.007911,-.01163,
.007416,-.011764,
.006905,-.01181,
.00689,-.01181,
0.0*
%
%ADD40MACRO40*%
%ADD50R,.04528X.01181*%
%ADD33R,.11417X.11417*%
%ADD43R,.02362X.01575*%
%ADD42R,.04803X.04921*%
%ADD35R,.01378X.03071*%
%ADD48R,.04528X.02362*%
%ADD58O,.06693X.03543*%
%ADD26R,.04173X.02559*%
%ADD22R,.02559X.04173*%
%ADD49O,.07874X.03543*%
%ADD44R,.0276X.02949*%
%ADD38R,.02362X.07874*%
%ADD21R,.03346X.07874*%
%ADD60R,.05906X.01969*%
%ADD61C,.01*%
%ADD62C,.02*%
%ADD63C,.011*%
%ADD64C,.012*%
%ADD65C,.03*%
%ADD66C,.04*%
%ADD67C,.0132*%
%ADD68C,.025*%
%ADD69C,.005*%
%ADD70C,.006*%
%ADD74C,.02404*%
%ADD73C,.07304*%
%ADD72C,.07504*%
%ADD71C,.2012*%
G75*
%LPD*%
G75*
G36*
G01X-6960Y157358D02*
Y-150051D01*
G02X-7161Y-150252I-201J0D01*
G01X-161842D01*
G02X-162043Y-150051I0J201D01*
G01Y-92408D01*
X-162040D01*
Y157358D01*
G02X-161839Y157559I201J0D01*
G01X-7161D01*
G02X-6960Y157358I0J-201D01*
G37*
%LPC*%
G75*
G36*
G01X-73688Y-15846D02*
X-71912D01*
G02X-71863Y-15848I-8J-796D01*
G01X-71292D01*
G03X-71091Y-15647I0J201D01*
G01Y-15590D01*
X-68907D01*
X-68799Y-15698D01*
X-66675D01*
G02X-66533Y-15757I0J-201D01*
G01X-66274Y-16017D01*
X-66261Y-16026D01*
G02X-65917Y-16370I-921J-1265D01*
G03X-65897Y-16393I161J120D01*
G01X-65707Y-16583D01*
G02X-65648Y-16725I-142J-142D01*
G01Y-16981D01*
X-65645Y-16999D01*
G02Y-17583I-1537J-292D01*
G01X-65648Y-17601D01*
Y-17925D01*
G02X-65707Y-18067I-201J0D01*
G01X-66433Y-18793D01*
G02X-66575Y-18852I-142J142D01*
G01X-67070D01*
G03X-67084I-7J-201D01*
G02X-67182Y-18856I-113J1560D01*
G01X-67418D01*
G02X-67516Y-18852I15J1564D01*
G03X-67530I-7J-201D01*
G01X-77231D01*
G03X-77373Y-18911I0J-201D01*
G01X-78455Y-19993D01*
G02X-78597Y-20052I-142J142D01*
G01X-84253D01*
G02X-84395Y-19993I0J201D01*
G01X-86407Y-17981D01*
G02X-86466Y-17839I142J142D01*
G01Y-16013D01*
G03X-86667Y-15812I-201J0D01*
G01X-88492D01*
Y-15810D01*
X-90391D01*
G02X-90592Y-15609I0J201D01*
G01Y-13904D01*
X-90608Y-13867D01*
G02X-90654Y-13737I1109J465D01*
G01X-90661Y-13713D01*
X-90686Y-13670D01*
X-90705Y-13651D01*
G03X-90989I-142J-142D01*
G01X-91489Y-14152D01*
G03X-91548Y-14294I142J-142D01*
G01Y-17070D01*
G03X-91483Y-17218I201J0D01*
G02X-92224Y-19300I-817J-882D01*
G01X-92261Y-19302D01*
X-92328Y-19332D01*
X-92568Y-19572D01*
X-92598Y-19639D01*
X-92600Y-19676D01*
G02X-95001Y-19642I-1200J76D01*
G01Y-19640D01*
G03X-95056Y-19510I-201J-8D01*
G01X-95264Y-19289D01*
X-95330Y-19257D01*
X-95366Y-19254D01*
G02X-96073Y-17175I109J1197D01*
G03X-96008Y-17027I-136J148D01*
G01Y-12965D01*
G03X-96056Y-12834I-201J1D01*
G02X-96310Y-12150I798J686D01*
G01Y-10102D01*
G02X-94545Y-9327I1053J0D01*
G03X-94409Y-9380I136J148D01*
G01X-94136D01*
G03X-94000Y-9327I0J201D01*
G02X-92576I712J-775D01*
G03X-92440Y-9380I136J148D01*
G01X-92168D01*
G03X-92032Y-9327I0J201D01*
G02X-90608I712J-775D01*
G03X-90472Y-9380I136J148D01*
G01X-90199D01*
G03X-90063Y-9327I0J201D01*
G02X-88639I712J-775D01*
G03X-88503Y-9380I136J148D01*
G01X-88231D01*
G03X-88095Y-9327I0J201D01*
G02X-86671I712J-775D01*
G03X-86535Y-9380I136J148D01*
G01X-86262D01*
G03X-86126Y-9327I0J201D01*
G02X-84702I712J-775D01*
G03X-84566Y-9380I136J148D01*
G01X-84294D01*
G03X-84158Y-9327I0J201D01*
G02X-82734I712J-775D01*
G03X-82598Y-9380I136J148D01*
G01X-82325D01*
G03X-82189Y-9327I0J201D01*
G02X-80424Y-10102I712J-775D01*
G01Y-10297D01*
G03X-80223Y-10498I201J0D01*
G01X-78921D01*
G03X-78820Y-10471I0J201D01*
G01X-78819Y-10470D01*
G02X-77733Y-10392I620J-1030D01*
G01X-77696Y-10408D01*
X-75990D01*
G02X-75789Y-10609I0J-201D01*
G01Y-12391D01*
G02X-75990Y-12592I-201J0D01*
G01X-77696D01*
X-77733Y-12608D01*
G02X-78818Y-12531I-467J1108D01*
G03X-78820Y-12529I-139J-137D01*
G01X-78844Y-12516D01*
X-78894Y-12502D01*
X-80410D01*
X-80507Y-12562D01*
X-80532Y-12614D01*
G02X-80596Y-12726I-944J465D01*
G01Y-12727D01*
G03X-80605Y-12932I168J-110D01*
G01X-80437Y-13243D01*
G03X-80260Y-13348I177J96D01*
G01X-80049D01*
G02X-79848Y-13549I0J-201D01*
G01Y-17747D01*
G03X-79647Y-17948I201J0D01*
G01X-79427D01*
X-79354Y-17918D01*
X-79352Y-17916D01*
Y-13549D01*
G02X-79151Y-13348I201J0D01*
G01X-75349D01*
G02X-75148Y-13549I0J-201D01*
G01Y-14959D01*
G03X-75089Y-15101I201J0D01*
G01X-74401Y-15789D01*
G03X-74259Y-15848I142J142D01*
G01X-73737D01*
G02X-73688Y-15846I57J-794D01*
G37*
G36*
G01X-69502Y-12625D02*
Y-11375D01*
G02X-69443Y-11233I201J0D01*
G01X-68817Y-10607D01*
G02X-68675Y-10548I142J-142D01*
G01X-65825D01*
G02X-65683Y-10607I0J-201D01*
G01X-65157Y-11133D01*
G02X-65098Y-11275I-142J-142D01*
G01Y-12525D01*
G02X-65157Y-12667I-201J0D01*
G01X-65439Y-12949D01*
G03X-65498Y-13091I142J-142D01*
G01Y-14025D01*
G02X-65557Y-14167I-201J0D01*
G01X-66433Y-15043D01*
G02X-66575Y-15102I-142J142D01*
G01X-68075D01*
G02X-68217Y-15043I0J201D01*
G01X-69093Y-14167D01*
G02X-69152Y-14025I142J142D01*
G01Y-13141D01*
G03X-69211Y-12999I-201J0D01*
G01X-69443Y-12767D01*
G02X-69502Y-12625I142J142D01*
G37*
G36*
G01X-126633Y-93357D02*
X-117057Y-102933D01*
G02X-116998Y-103075I-142J-142D01*
G01Y-135625D01*
G02X-117057Y-135767I-201J0D01*
G01X-119133Y-137843D01*
G02X-119275Y-137902I-142J142D01*
G01X-123925D01*
G02X-124067Y-137843I0J201D01*
G01X-126243Y-135667D01*
G02X-126302Y-135525I142J142D01*
G01Y-109691D01*
G03X-126361Y-109549I-201J0D01*
G01X-133149Y-102761D01*
G03X-133291Y-102702I-142J-142D01*
G01X-144425D01*
G02X-144567Y-102643I0J201D01*
G01X-145843Y-101367D01*
G02X-145902Y-101225I142J142D01*
G01Y-94175D01*
G02X-145843Y-94033I201J0D01*
G01X-145167Y-93357D01*
G02X-145025Y-93298I142J-142D01*
G01X-126775D01*
G02X-126633Y-93357I0J-201D01*
G37*
G36*
G01X-84040Y138641D02*
Y120039D01*
G03X-83839Y119838I201J0D01*
G01X-82933D01*
G02X-82732Y119637I0J-201D01*
G01Y113699D01*
G02X-82933Y113498I-201J0D01*
G01X-83497D01*
G03X-83698Y113297I0J-201D01*
G01Y109701D01*
G02X-83899Y109500I-201J0D01*
G01X-83921D01*
X-84038Y109383D01*
Y100381D01*
G02X-84101Y99902I-1862J1D01*
G01X-84108Y99876D01*
Y98524D01*
X-84101Y98498D01*
G02X-84038Y98019I-1799J-480D01*
G01Y97794D01*
X-84010D01*
Y97295D01*
G03X-83809Y97094I201J0D01*
G01X-82351D01*
G02X-82150Y96893I0J-201D01*
G01Y96033D01*
G03X-81949Y95832I201J0D01*
G01X-81393D01*
G03X-81192Y96033I0J201D01*
G01Y96056D01*
X-81075Y96173D01*
X-79244D01*
X-79203Y96191D01*
G02X-79126Y93976I503J-1091D01*
G01X-79160Y93989D01*
X-80991D01*
G02X-81192Y94190I0J201D01*
G01Y94213D01*
X-81309Y94330D01*
X-81949D01*
G03X-82150Y94129I0J-201D01*
G01Y93221D01*
G02X-82351Y93020I-201J0D01*
G01X-83809D01*
G03X-84010Y92819I0J-201D01*
G01Y92521D01*
G02X-84211Y92320I-201J0D01*
G01X-87589D01*
G02X-87790Y92521I0J201D01*
G01Y92819D01*
G03X-87991Y93020I-201J0D01*
G01X-89449D01*
G02X-89650Y93221I0J201D01*
G01Y94129D01*
G03X-89851Y94330I-201J0D01*
G01X-90507D01*
G03X-90708Y94129I0J-201D01*
G01Y94106D01*
X-90825Y93989D01*
X-92840D01*
X-92874Y93976D01*
G02X-92797Y96191I-426J1124D01*
G01X-92756Y96173D01*
X-90909D01*
G02X-90708Y95972I0J-201D01*
G01Y95949D01*
X-90591Y95832D01*
X-89851D01*
G03X-89650Y96033I0J201D01*
G01Y96893D01*
G02X-89449Y97094I201J0D01*
G01X-87991D01*
G03X-87790Y97295I0J201D01*
G01Y97794D01*
X-87762D01*
Y98019D01*
G02X-87699Y98498I1862J-1D01*
G01X-87692Y98524D01*
Y99876D01*
X-87699Y99902D01*
G02X-87762Y100381I1799J480D01*
G01Y109299D01*
G03X-87963Y109500I-201J0D01*
G01X-87983D01*
X-88100Y109617D01*
Y113297D01*
G03X-88301Y113498I-201J0D01*
G01X-88871D01*
G02X-89072Y113699I0J201D01*
G01Y119637D01*
G02X-88871Y119838I201J0D01*
G01X-87965D01*
G03X-87764Y120039I0J201D01*
G01Y138645D01*
G03X-87874Y138824I-201J0D01*
G02X-83930Y138820I1976J3878D01*
G03X-84040Y138641I91J-179D01*
G37*
G36*
G01X-74599Y66598D02*
X-74592Y66624D01*
Y67976D01*
X-74599Y68002D01*
G02X-74662Y68481I1799J480D01*
G01Y70620D01*
G02X-74599Y71099I1862J-1D01*
G01X-74592Y71125D01*
Y72477D01*
X-74599Y72503D01*
G02X-74662Y72982I1799J480D01*
G01Y76228D01*
X-74631Y76301D01*
X-74606Y76326D01*
Y77025D01*
G02X-74405Y77226I201J0D01*
G01X-74153D01*
G03X-73952Y77427I0J201D01*
G01Y77504D01*
X-74053Y77618D01*
X-74129Y77627D01*
G02X-74645Y77767I224J1848D01*
G01X-74683Y77784D01*
X-75545D01*
G02X-75746Y77985I0J201D01*
G01Y79202D01*
X-75748Y79216D01*
G02X-75766Y79473I1843J258D01*
G01Y82903D01*
G02X-75708Y83044I201J0D01*
G01X-75692Y83060D01*
Y84076D01*
X-75699Y84102D01*
G02X-75762Y84581I1799J480D01*
G01Y85722D01*
G03X-75836Y85904I-258J1D01*
G01X-75837Y85905D01*
X-76230Y86298D01*
G03X-76915Y86582I-685J-684D01*
G01X-81249D01*
G03X-81450Y86381I0J-201D01*
G01Y85907D01*
G02X-81651Y85706I-201J0D01*
G01X-85031D01*
G02X-85232Y85907I0J201D01*
G01Y90979D01*
G02X-85031Y91180I201J0D01*
G01X-81651D01*
G02X-81450Y90979I0J-201D01*
G01Y90505D01*
G03X-81249Y90304I201J0D01*
G01X-76915D01*
G02X-73598Y88930I0J-4691D01*
G01X-73205Y88537D01*
G02X-72038Y85722I-2814J-2816D01*
G01Y84581D01*
G02X-72101Y84102I-1862J1D01*
G01X-72108Y84076D01*
Y82724D01*
X-72101Y82698D01*
G02X-72043Y82089I-1799J-479D01*
G01X-72044Y82082D01*
Y81537D01*
G03X-71843Y81336I201J0D01*
G01X-70406D01*
G02X-70264Y81277I0J-201D01*
G01X-69518Y80532D01*
G03X-69376Y80473I142J142D01*
G01X-68709D01*
G02X-68508Y80272I0J-201D01*
G01Y79186D01*
X-68501Y79160D01*
G02Y78202I-1799J-479D01*
G01X-68508Y78176D01*
Y76824D01*
X-68501Y76798D01*
G02Y75840I-1799J-479D01*
G01X-68508Y75814D01*
Y74728D01*
G02X-68709Y74527I-201J0D01*
G01X-69376D01*
G03X-69518Y74468I0J-201D01*
G01X-70254Y73733D01*
G02X-70396Y73674I-142J142D01*
G01X-70737D01*
G03X-70938Y73473I0J-201D01*
G01Y72982D01*
G02X-71001Y72503I-1862J1D01*
G01X-71008Y72477D01*
Y71125D01*
X-71001Y71099D01*
G02X-70938Y70620I-1799J-480D01*
G01Y68481D01*
G02X-71001Y68002I-1862J1D01*
G01X-71008Y67976D01*
Y67043D01*
G03X-70949Y66901I201J0D01*
G01X-70928Y66880D01*
X-70898Y66807D01*
Y66353D01*
G03X-70697Y66152I201J0D01*
G01X-70675D01*
X-70558Y66035D01*
Y59449D01*
G02X-70759Y59248I-201J0D01*
G01X-74761D01*
G02X-74962Y59449I0J201D01*
G01Y65951D01*
G02X-74761Y66152I201J0D01*
G01X-74660Y66242D01*
X-74650Y66330D01*
G02X-74599Y66598I1850J-213D01*
G37*
G36*
G01X-96938Y83381D02*
G02X-97001Y82902I-1862J1D01*
G01X-97008Y82876D01*
Y81943D01*
G03X-96950Y81801I201J-1D01*
G01X-96920Y81771D01*
Y78798D01*
G02X-96937Y78548I-1861J1D01*
G01X-96938Y78534D01*
Y77706D01*
G03X-96896Y77582I201J-1D01*
G02X-97085Y74585I-1786J-1392D01*
G01X-97114Y74556D01*
X-97144Y74483D01*
Y74157D01*
G03X-97085Y74015I201J0D01*
G02X-96905Y71006I-1597J-1605D01*
G03X-96948Y70882I158J-124D01*
G01Y70568D01*
G03X-96916Y70459I201J0D01*
G02X-96546Y69219I-1894J-1240D01*
G01Y68980D01*
G02X-96915Y67742I-2264J1D01*
G03X-96948Y67632I168J-110D01*
G01Y66612D01*
G03X-96938Y66551I201J2D01*
G01X-96011Y63642D01*
G03X-95819Y63502I192J61D01*
G01X-94299D01*
G02X-94098Y63301I0J-201D01*
G01Y58299D01*
G02X-94299Y58098I-201J0D01*
G01X-103301D01*
G02X-103502Y58299I0J201D01*
G01Y63301D01*
G02X-103301Y63502I201J0D01*
G01X-101774D01*
G03X-101583Y63640I0J201D01*
G01X-100682Y66379D01*
G03X-100672Y66442I-191J63D01*
G01Y66835D01*
G03X-100796Y67021I-201J0D01*
G01X-100852Y67044D01*
X-100971Y67020D01*
X-102033Y65957D01*
G02X-102175Y65898I-142J142D01*
G01X-117625D01*
G02X-117767Y65957I0J201D01*
G01X-118243Y66433D01*
G02X-118302Y66575I142J142D01*
G01Y71925D01*
G02X-118243Y72067I201J0D01*
G01X-117567Y72743D01*
G02X-117425Y72802I142J-142D01*
G01X-113652D01*
Y72852D01*
X-109349D01*
G02X-109148Y72651I0J-201D01*
G01Y71041D01*
G03X-109089Y70899I201J0D01*
G01X-108461Y70270D01*
G03X-108319Y70211I142J142D01*
G01X-104381D01*
G03X-104239Y70270I0J201D01*
G01X-103767Y70743D01*
G02X-103625Y70802I142J-142D01*
G01X-101975D01*
G02X-101833Y70743I0J-201D01*
G01X-101387Y70296D01*
G03X-101219Y70238I143J142D01*
G01X-100859Y70284D01*
X-100781Y70335D01*
X-100757Y70375D01*
G02X-100705Y70458I1945J-1161D01*
G03X-100703Y70460I-138J140D01*
G01X-100688Y70484D01*
X-100672Y70539D01*
Y70908D01*
G03X-100712Y71028I-201J0D01*
G01X-100713Y71030D01*
G02X-100515Y74015I1795J1380D01*
G01X-100486Y74044D01*
X-100456Y74117D01*
Y74443D01*
G03X-100515Y74585I-201J0D01*
G02X-100704Y77582I1597J1605D01*
G03X-100662Y77706I-159J123D01*
G01Y79552D01*
X-100642Y79571D01*
Y80753D01*
X-100644Y80767D01*
G02X-100599Y81498I1844J253D01*
G01X-100592Y81524D01*
Y82876D01*
X-100599Y82902D01*
G02X-100662Y83381I1799J480D01*
G01Y84922D01*
G02X-99212Y88420I4947J-1D01*
G01X-98902Y88730D01*
G02X-95102Y90304I3800J-3800D01*
G01X-90551D01*
G03X-90350Y90505I0J201D01*
G01Y90979D01*
G02X-90149Y91180I201J0D01*
G01X-86769D01*
G02X-86568Y90979I0J-201D01*
G01Y85907D01*
G02X-86769Y85706I-201J0D01*
G01X-90149D01*
G02X-90350Y85907I0J201D01*
G01Y86381D01*
G03X-90551Y86582I-201J0D01*
G01X-95102D01*
G03X-96270Y86098I0J-1651D01*
G01X-96580Y85788D01*
G03X-96938Y84924I866J-865D01*
G01Y83381D01*
G37*
G36*
G01X-98598Y-10485D02*
Y-10925D01*
G02X-98657Y-11067I-201J0D01*
G01X-98839Y-11249D01*
G03X-98898Y-11391I142J-142D01*
G01Y-12625D01*
G02X-98957Y-12767I-201J0D01*
G01X-99206Y-13015D01*
X-99215Y-13028D01*
G02X-99564Y-13377I-1267J918D01*
G03X-99589Y-13398I116J-164D01*
G01X-99783Y-13593D01*
G02X-99925Y-13652I-142J142D01*
G01X-100214D01*
X-100230Y-13654D01*
G02X-100482Y-13674I-249J1544D01*
G01X-100718D01*
G02X-100970Y-13654I-3J1564D01*
G01X-100986Y-13652D01*
X-101325D01*
G02X-101467Y-13593I0J201D01*
G01X-102243Y-12817D01*
G02X-102302Y-12675I142J142D01*
G01Y-11491D01*
G03X-102361Y-11349I-201J0D01*
G01X-102643Y-11067D01*
G02X-102702Y-10925I142J142D01*
G01Y-10534D01*
Y-10530D01*
G02Y-10488I1202J21D01*
G03X-102705Y-10452I-201J1D01*
G02X-102720Y-10282I987J173D01*
G01Y-9182D01*
X-102751Y-9151D01*
G02X-102810Y-9009I142J142D01*
G01Y-7157D01*
G03X-103011Y-6956I-201J0D01*
G01X-106870D01*
G03X-107018Y-7020I-1J-201D01*
G02X-108128Y-5024I-882J816D01*
G03X-108010Y-4953I-38J197D01*
G01X-107824Y-4724D01*
X-107801Y-4657D01*
X-107802Y-4622D01*
G02X-107754Y-4266I1202J19D01*
G01Y-4264D01*
X-107741Y-4219D01*
X-107758Y-4127D01*
X-107980Y-3832D01*
G03X-108140Y-3752I-160J-121D01*
G01X-108370D01*
G03X-108518Y-3816I-1J-201D01*
G02Y-2184I-882J816D01*
G03X-108370Y-2248I147J137D01*
G01X-108107D01*
G03X-107943Y-2163I0J201D01*
G01X-107726Y-1853D01*
X-107713Y-1756D01*
X-107730Y-1710D01*
G02X-105718Y-483I1130J410D01*
G03X-105570Y-548I148J136D01*
G01X-101294D01*
G03X-101152Y-489I0J201D01*
G01X-100269Y393D01*
G02X-100127Y452I142J-142D01*
G01X-100049D01*
G03X-99918Y500I1J201D01*
G02X-99234Y754I686J-798D01*
G01X-97186D01*
G02X-96411Y-1011I0J-1053D01*
G03X-96464Y-1147I148J-136D01*
G01Y-1419D01*
G03X-96411Y-1555I201J0D01*
G02Y-2979I-775J-712D01*
G03X-96464Y-3115I148J-136D01*
G01Y-3388D01*
G03X-96411Y-3524I201J0D01*
G02Y-4948I-775J-712D01*
G03X-96464Y-5084I148J-136D01*
G01Y-5356D01*
G03X-96411Y-5492I201J0D01*
G02Y-6916I-775J-712D01*
G03X-96464Y-7052I148J-136D01*
G01Y-7325D01*
G03X-96411Y-7461I201J0D01*
G02X-97186Y-9226I-775J-712D01*
G01X-98781D01*
G03X-98967Y-9350I0J-201D01*
G01X-98990Y-9406D01*
X-98966Y-9525D01*
X-98657Y-9833D01*
G02X-98598Y-9975I-142J-142D01*
G01Y-10415D01*
G03Y-10420I201J-2D01*
G02Y-10480I-1202J-30D01*
G03Y-10485I201J-2D01*
G37*
G36*
G01X-15260Y-24588D02*
X-15228Y-24598D01*
X-15175D01*
G02X-15033Y-24657I0J-201D01*
G01X-14657Y-25033D01*
G02X-14598Y-25175I-142J-142D01*
G01Y-29325D01*
G02X-14657Y-29467I-201J0D01*
G01X-15433Y-30243D01*
G02X-15575Y-30302I-142J142D01*
G01X-15809D01*
X-15837Y-30310D01*
G02X-16282Y-30374I-443J1500D01*
G01X-16518D01*
G02X-16963Y-30310I-2J1564D01*
G01X-16991Y-30302D01*
X-17325D01*
G02X-17467Y-30243I0J201D01*
G01X-18043Y-29667D01*
G02X-18102Y-29525I142J142D01*
G01Y-28991D01*
G03X-18161Y-28849I-201J0D01*
G01X-18349Y-28661D01*
G03X-18491Y-28602I-142J-142D01*
G01X-33696D01*
G03X-33782Y-28621I-1J-201D01*
G02X-36746I-1482J3121D01*
G01X-36787Y-28602D01*
X-36925D01*
G02X-37067Y-28543I0J201D01*
G01X-37371Y-28238D01*
X-37381Y-28230D01*
G02X-37994Y-27617I2117J2730D01*
G01X-38002Y-27607D01*
X-38543Y-27067D01*
G02X-38602Y-26925I142J142D01*
G01Y-26394D01*
X-38608Y-26369D01*
G02Y-24631I3344J869D01*
G01X-38602Y-24606D01*
Y-23875D01*
G02X-38543Y-23733I201J0D01*
G01X-36567Y-21757D01*
G02X-36425Y-21698I142J-142D01*
G01X-23875D01*
G02X-23733Y-21757I0J-201D01*
G01X-21861Y-23630D01*
G03X-21719Y-23689I142J142D01*
G01X-18125D01*
X-18008Y-23806D01*
Y-23840D01*
X-17978Y-23913D01*
X-17403Y-24487D01*
G03X-17261Y-24546I142J142D01*
G01X-15512D01*
G02X-15260Y-24588I-3J-796D01*
G37*
G36*
G01X-17854Y-36586D02*
Y-34814D01*
G02X-17812Y-34560I796J-1D01*
G01X-17802Y-34528D01*
Y-33791D01*
G03X-17861Y-33649I-201J0D01*
G01X-18043Y-33467D01*
G02X-18102Y-33325I142J142D01*
G01Y-31875D01*
G02X-18043Y-31733I201J0D01*
G01X-17367Y-31057D01*
G02X-17225Y-30998I142J-142D01*
G01X-14275D01*
G02X-14133Y-31057I0J-201D01*
G01X-13557Y-31633D01*
G02X-13498Y-31775I-142J-142D01*
G01Y-41425D01*
G02X-13557Y-41567I-201J0D01*
G01X-14133Y-42143D01*
G02X-14275Y-42202I-142J142D01*
G01X-18025D01*
G02X-18167Y-42143I0J201D01*
G01X-18358Y-41951D01*
G03X-18500Y-41892I-142J-142D01*
G01X-18510D01*
G02X-18711Y-41691I0J201D01*
G01Y-37709D01*
G02X-18510Y-37508I201J0D01*
G01X-18500D01*
G03X-18358Y-37449I0J201D01*
G01X-17802Y-36892D01*
Y-36870D01*
G02X-17854Y-36586I744J283D01*
G37*
G36*
G01X-135558Y-41475D02*
G02X-137342I-892J1507D01*
G03X-137422Y-41449I-101J-174D01*
G02X-137758Y-41332I87J791D01*
G01X-137760D01*
X-137784Y-41317D01*
X-137836Y-41302D01*
X-138010D01*
G03X-138151Y-41360I0J-201D01*
G01X-138158Y-41367D01*
Y-41394D01*
X-138275Y-41511D01*
X-140141D01*
G02X-140342Y-41310I0J201D01*
G01Y-41110D01*
X-140373Y-41037D01*
X-140402Y-41008D01*
Y-39075D01*
G02X-140343Y-38933I201J0D01*
G01X-138261Y-36851D01*
G03X-138202Y-36709I-142J142D01*
G01Y-17608D01*
G02X-138143Y-17466I201J0D01*
G01X-134584Y-13907D01*
G02X-134442Y-13848I142J-142D01*
G01X-103930D01*
G02X-102987Y-14124I-1J-1752D01*
G03X-102906Y-14154I109J169D01*
G02X-102590Y-14268I-106J-788D01*
G03X-102588Y-14269I91J179D01*
G01X-102564Y-14283D01*
X-102512Y-14298D01*
X-99193D01*
G03X-98992Y-14097I0J201D01*
G01Y-14088D01*
X-97009D01*
G02X-96808Y-14289I0J-201D01*
G01Y-14583D01*
X-96798Y-14592D01*
Y-16108D01*
X-96808Y-16117D01*
Y-16155D01*
X-96925Y-16272D01*
X-96963D01*
X-99733Y-19043D01*
G02X-99875Y-19102I-142J142D01*
G01X-100565D01*
G03X-100570I-2J-201D01*
G02X-100630I-30J1202D01*
G03X-100635I-3J-201D01*
G01X-102465D01*
G03X-102470I-2J-201D01*
G02X-102530I-30J1202D01*
G03X-102535I-3J-201D01*
G01X-103225D01*
G02X-103367Y-19043I0J201D01*
G01X-104999Y-17411D01*
G03X-105141Y-17352I-142J-142D01*
G01X-132992D01*
G03X-133134Y-17411I0J-201D01*
G01X-134639Y-18916D01*
G03X-134698Y-19058I142J-142D01*
G01Y-36297D01*
G03X-134497Y-36498I201J0D01*
G01X-131275D01*
G02X-131133Y-36557I0J-201D01*
G01X-130557Y-37133D01*
G02X-130498Y-37275I-142J-142D01*
G01Y-42502D01*
X-130509D01*
Y-42557D01*
X-133954D01*
X-134071Y-42440D01*
Y-42438D01*
X-135064Y-41446D01*
G03X-135277Y-41400I-142J-142D01*
G01X-135278D01*
G02X-135478Y-41449I-288J742D01*
G03X-135558Y-41475I21J-200D01*
G37*
G36*
G01X-139081Y-53974D02*
X-139319D01*
G02X-139991Y-53822I1J1564D01*
G03X-139995Y-53820I-92J-179D01*
G01X-140035Y-53802D01*
X-140065D01*
X-140138Y-53771D01*
X-140223Y-53686D01*
X-140236Y-53677D01*
G02X-140585Y-53328I918J1267D01*
G01X-140594Y-53315D01*
X-140843Y-53067D01*
G02X-140902Y-52925I142J142D01*
G01Y-49675D01*
G02X-140843Y-49533I201J0D01*
G01X-140401Y-49092D01*
G03X-140342Y-48950I-142J142D01*
G01Y-48906D01*
X-140225Y-48789D01*
X-138381D01*
G03X-138239Y-48730I0J201D01*
G01X-138067Y-48557D01*
G02X-137925Y-48498I142J-142D01*
G01X-137622D01*
X-137590Y-48488D01*
G02X-137338Y-48446I255J-754D01*
G01X-135562D01*
G02X-135470Y-48452I-6J-796D01*
G01X-135424Y-48458D01*
X-135337Y-48428D01*
X-134130Y-47221D01*
G03X-134071Y-47079I-142J142D01*
G01Y-46244D01*
G02X-133870Y-46043I201J0D01*
G01X-130710D01*
G02X-130509Y-46244I0J-201D01*
G01Y-46482D01*
X-130498Y-46492D01*
Y-50709D01*
G03X-130439Y-50851I201J0D01*
G01X-130151Y-51139D01*
G03X-130009Y-51198I142J142D01*
G01X-126791D01*
G03X-126649Y-51140I1J201D01*
G01X-126622Y-51112D01*
X-126591Y-51039D01*
Y-46244D01*
G02X-126390Y-46043I201J0D01*
G01X-123230D01*
G02X-123029Y-46244I0J-201D01*
G01Y-46419D01*
X-123014Y-46454D01*
G02X-122998Y-46533I-185J-79D01*
G01Y-52825D01*
G02X-123057Y-52967I-201J0D01*
G01X-123833Y-53743D01*
G02X-123975Y-53802I-142J142D01*
G01X-138322D01*
G03X-138404Y-53820I1J-201D01*
G01X-138407Y-53821D01*
G02X-139081Y-53974I-675J1411D01*
G37*
G36*
G01X-18977Y-52856D02*
X-17955D01*
G03X-17754Y-52655I0J201D01*
G01Y-52322D01*
G02X-17553Y-52121I201J0D01*
G01X-11047D01*
G02X-10846Y-52322I0J-201D01*
G01Y-54892D01*
G02X-11047Y-55093I-201J0D01*
G01X-17553D01*
G02X-17754Y-54892I0J201D01*
G01Y-54559D01*
G03X-17955Y-54358I-201J0D01*
G01X-18977D01*
G03X-19125Y-54423I0J-201D01*
G02Y-52791I-882J816D01*
G03X-18977Y-52856I148J136D01*
G37*
G36*
G01X-82386Y-56627D02*
X-82423Y-56611D01*
X-84330D01*
G03X-84531Y-56812I0J-201D01*
G01Y-58040D01*
G02X-84732Y-58241I-201J0D01*
G01X-89506D01*
G02X-89707Y-58040I0J201D01*
G01Y-54880D01*
G02X-89506Y-54679I201J0D01*
G01X-85677D01*
G03X-85535Y-54620I0J201D01*
G01X-85492Y-54577D01*
G02X-85350Y-54518I142J-142D01*
G01X-84334D01*
X-84302Y-54486D01*
G02X-84160Y-54427I142J-142D01*
G01X-82423D01*
X-82386Y-54411D01*
G02Y-56627I467J-1108D01*
G37*
G36*
G01X-117566Y-58308D02*
X-117603Y-58292D01*
X-120728D01*
G03X-120870Y-58351I0J-201D01*
G01X-121711Y-59193D01*
G02X-121853Y-59252I-142J142D01*
G01X-121957D01*
G03X-122158Y-59453I0J-201D01*
G01Y-61051D01*
G02X-122359Y-61252I-201J0D01*
G01X-124961D01*
G02X-125162Y-61051I0J201D01*
G01Y-55949D01*
G02X-124961Y-55748I201J0D01*
G01X-122074D01*
G03X-121873Y-55547I0J201D01*
G01Y-54209D01*
G02X-121672Y-54008I201J0D01*
G01X-119890D01*
G02X-119689Y-54209I0J-201D01*
G01Y-55907D01*
G03X-119488Y-56108I201J0D01*
G01X-117603D01*
X-117566Y-56092D01*
G02Y-58308I466J-1108D01*
G37*
G36*
G01X-132396Y-61615D02*
Y-61614D01*
G03X-132461Y-61486I-200J-21D01*
G01X-132576Y-61382D01*
G02X-132642Y-61233I135J149D01*
G01Y-55949D01*
G02X-132441Y-55748I201J0D01*
G01X-129839D01*
G02X-129638Y-55949I0J-201D01*
G01Y-61252D01*
X-129681D01*
X-129939Y-61486D01*
G03X-130004Y-61614I135J-149D01*
G01Y-61615D01*
G02X-132396I-1196J115D01*
G37*
G36*
G01X-128601Y-61640D02*
G03X-128662Y-61503I-201J-7D01*
G01X-128841Y-61330D01*
G02X-128902Y-61186I140J144D01*
G01Y-55949D01*
G02X-128701Y-55748I201J0D01*
G01X-126099D01*
G02X-125898Y-55949I0J-201D01*
G01Y-61186D01*
G02X-125959Y-61330I-201J0D01*
G01X-126138Y-61503D01*
G03X-126199Y-61640I140J-144D01*
G02X-128601I-1201J40D01*
G37*
G36*
G01X-110728Y-110141D02*
X-110739Y-110152D01*
G03X-110798Y-110294I142J-142D01*
G01Y-113951D01*
G02X-110999Y-114152I-201J0D01*
G01X-115601D01*
G02X-115802Y-113951I0J201D01*
G01Y-109349D01*
G02X-115601Y-109148I201J0D01*
G01X-111944D01*
G03X-111802Y-109089I0J201D01*
G01X-111051Y-108338D01*
G03X-110992Y-108196I-142J142D01*
G01Y-106853D01*
G03X-111193Y-106652I-201J0D01*
G01X-115601D01*
G02X-115802Y-106451I0J201D01*
G01Y-102391D01*
G03X-115861Y-102249I-201J0D01*
G01X-116143Y-101967D01*
G02X-116202Y-101825I142J142D01*
G01Y-98775D01*
G02X-116143Y-98633I201J0D01*
G01X-115567Y-98057D01*
G02X-115425Y-97998I142J-142D01*
G01X-89775D01*
G02X-89633Y-98057I0J-201D01*
G01X-83851Y-103839D01*
G03X-83709Y-103898I142J142D01*
G01X-83685D01*
X-83568Y-104015D01*
Y-111701D01*
G02X-83769Y-111902I-201J0D01*
G01X-92371D01*
G02X-92572Y-111701I0J201D01*
G01Y-111621D01*
G03X-92631Y-111479I-201J0D01*
G01X-97149Y-106961D01*
G03X-97291Y-106902I-142J-142D01*
G01X-107225D01*
G02X-107367Y-106843I0J201D01*
G01X-108466Y-105744D01*
G03X-108685Y-105700I-142J-142D01*
G01X-108741Y-105723D01*
X-108808Y-105824D01*
Y-109910D01*
G02X-109009Y-110111I-201J0D01*
G01X-110655D01*
X-110728Y-110141D01*
G37*
G36*
G01X-138349Y-137152D02*
X-145251D01*
G02X-145452Y-136951I0J201D01*
G01Y-130049D01*
G02X-145251Y-129848I201J0D01*
G01X-138349D01*
G02X-138148Y-130049I0J-201D01*
G01Y-136951D01*
G02X-138349Y-137152I-201J0D01*
G37*
G36*
G01X-123230Y-42557D02*
X-126390D01*
G02X-126591Y-42356I0J201D01*
G01Y-37582D01*
G02X-126390Y-37381I201J0D01*
G01X-123230D01*
G02X-123029Y-37582I0J-201D01*
G01Y-42356D01*
G02X-123230Y-42557I-201J0D01*
G37*
G36*
G01X-89749Y-41802D02*
X-96851D01*
G02X-97052Y-41601I0J201D01*
G01Y-34499D01*
G02X-96851Y-34298I201J0D01*
G01X-89749D01*
G02X-89548Y-34499I0J-201D01*
G01Y-41601D01*
G02X-89749Y-41802I-201J0D01*
G37*
G36*
G01X-78939Y59948D02*
X-81541D01*
G02X-81742Y60149I0J201D01*
G01Y65251D01*
G02X-81541Y65452I201J0D01*
G01X-78939D01*
G02X-78738Y65251I0J-201D01*
G01Y60149D01*
G02X-78939Y59948I-201J0D01*
G37*
G36*
G01X-59402Y-145600D02*
Y-145294D01*
G03X-59431Y-145190I-201J0D01*
G02X-59794Y-143892I2139J1298D01*
G01Y-141858D01*
G03X-59995Y-141657I-201J0D01*
G01X-60078D01*
X-60195Y-141540D01*
Y-135934D01*
G02X-59994Y-135733I201J0D01*
G01X-55860D01*
G03X-55675Y-135609I-1J201D01*
G01X-55652Y-135553D01*
X-55676Y-135434D01*
X-78043Y-113067D01*
G02X-78102Y-112925I142J142D01*
G01Y-103775D01*
G02X-78043Y-103633I201J0D01*
G01X-77367Y-102957D01*
G02X-77225Y-102898I142J-142D01*
G01X-67275D01*
G02X-67133Y-102957I0J-201D01*
G01X-66257Y-103833D01*
G02X-66198Y-103975I-142J-142D01*
G01Y-112209D01*
G03X-66139Y-112351I201J0D01*
G01X-53457Y-125033D01*
G02X-53398Y-125175I-142J-142D01*
G01Y-127209D01*
G03X-53339Y-127351I201J0D01*
G01X-51251Y-129439D01*
G03X-51109Y-129498I142J142D01*
G01X-47175D01*
G02X-47033Y-129557I0J-201D01*
G01X-46401Y-130189D01*
G03X-46259Y-130248I142J142D01*
G01X-46249D01*
G02X-46048Y-130449I0J-201D01*
G01Y-134352D01*
X-46098D01*
Y-134525D01*
G02X-46157Y-134667I-201J0D01*
G01X-46833Y-135343D01*
G02X-46975Y-135402I-142J142D01*
G01X-54188D01*
G03X-54389Y-135603I0J-201D01*
G01Y-141456D01*
G02X-54590Y-141657I-201J0D01*
G01X-54673D01*
X-54790Y-141774D01*
Y-143892D01*
G02X-55353Y-145473I-2501J0D01*
G01X-55375Y-145500D01*
X-55398Y-145564D01*
Y-145600D01*
G02X-59402I-2002J0D01*
G37*
G36*
G01X-32318Y-94013D02*
G02X-32050Y-93418I796J-1D01*
G03X-31982Y-93267I-133J151D01*
G01Y-92747D01*
G03X-32075Y-92578I-201J0D01*
G01X-32360Y-92395D01*
G03X-32553Y-92382I-108J-169D01*
G02X-33846Y-92196I-503J1092D01*
G03X-33978Y-92146I-133J-151D01*
G01X-34102D01*
G03X-34234Y-92196I1J-201D01*
G02X-36047Y-90657I-791J905D01*
G03X-36017Y-90551I-171J106D01*
G01Y-87029D01*
G02X-35816Y-86828I201J0D01*
G01X-32367D01*
G03X-32166Y-86627I0J201D01*
G01Y-79156D01*
X-32197Y-79125D01*
G02X-32256Y-78983I142J142D01*
G01Y-76295D01*
G02X-32055Y-76094I201J0D01*
G01X-30115D01*
G02X-29914Y-76295I0J-201D01*
G01Y-78857D01*
G03X-29713Y-79058I201J0D01*
G01X-28605D01*
G02X-28404Y-79259I0J-201D01*
G01Y-81067D01*
G03X-28203Y-81268I201J0D01*
G01X-28114D01*
G03X-27972Y-81209I0J201D01*
G01X-25733Y-78970D01*
G03X-25674Y-78828I-142J142D01*
G01Y-78809D01*
G02X-25473Y-78608I201J0D01*
G01X-21603D01*
X-21566Y-78592D01*
G02Y-80808I466J-1108D01*
G01X-21603Y-80792D01*
X-23288D01*
G03X-23489Y-80993I0J-201D01*
G01Y-82607D01*
G03X-23288Y-82808I201J0D01*
G01X-21327D01*
G02X-21126Y-83009I0J-201D01*
G01Y-84997D01*
G03X-20925Y-85198I201J0D01*
G01X-20900D01*
G02X-20721Y-88191I0J-1502D01*
G01X-20797Y-88200D01*
X-20898Y-88314D01*
Y-88406D01*
G03X-20862Y-88521I201J0D01*
G02X-20717Y-88979I-651J-458D01*
G01X-20718D01*
Y-90357D01*
X-20717D01*
G02X-21512Y-91154I-796J-1D01*
G01X-22181D01*
X-22195Y-91155D01*
G02X-22605I-205J1487D01*
G01X-22619Y-91154D01*
X-23288D01*
G02X-23991Y-90728I2J796D01*
G01Y-90727D01*
G03X-24169Y-90620I-178J-94D01*
G01X-25201D01*
G02X-25333Y-90612I0J1101D01*
G01X-25345Y-90611D01*
X-26091D01*
G02X-26292Y-90410I0J201D01*
G01Y-89664D01*
X-26293Y-89652D01*
G02Y-89386I1093J133D01*
G01X-26292Y-89374D01*
Y-88483D01*
X-26386Y-88372D01*
X-26458Y-88359D01*
G02X-27425Y-87779I267J1542D01*
G01X-27454Y-87742D01*
X-27536Y-87702D01*
X-27690D01*
G03X-27852Y-87785I1J-201D01*
G01X-28043Y-88047D01*
G03X-28072Y-88228I162J-119D01*
G02X-29641Y-89724I-1143J-372D01*
G01X-29676Y-89711D01*
X-29713D01*
G03X-29914Y-89912I0J-201D01*
G01Y-89947D01*
G03X-29855Y-90089I201J0D01*
G01X-29839Y-90105D01*
G02X-29780Y-90247I-142J-142D01*
G01Y-93191D01*
G03X-29692Y-93357I201J0D01*
G02X-29346Y-94013I-450J-657D01*
G01Y-95786D01*
G02X-30141Y-96582I-796J0D01*
G01X-31523D01*
G02X-32318Y-95786I1J796D01*
G01Y-94013D01*
G37*
G36*
G01X-34034Y-75609D02*
Y-78971D01*
G02X-34235Y-79172I-201J0D01*
G01X-39633D01*
G03X-39834Y-79373I0J-201D01*
G01Y-86627D01*
G03X-39633Y-86828I201J0D01*
G01X-38165D01*
G02X-37964Y-87029I0J-201D01*
G01Y-90391D01*
G02X-38165Y-90592I-201J0D01*
G01X-39745D01*
G02X-39946Y-90391I0J201D01*
G01Y-90107D01*
G03X-40147Y-89906I-201J0D01*
G01X-41895D01*
G02X-42096Y-89705I0J201D01*
G01Y-89373D01*
G03X-42297Y-89172I-201J0D01*
G01X-43627D01*
G02X-43769Y-89113I0J201D01*
G01X-45430Y-87451D01*
G03X-45572Y-87392I-142J-142D01*
G01X-46478D01*
G03X-46679Y-87591I0J-201D01*
G01Y-87592D01*
G02X-48989Y-87115I-1202J11D01*
G01X-48974Y-87078D01*
Y-85670D01*
G03X-49048Y-85515I-201J-1D01*
G01X-49289Y-85318D01*
G03X-49456Y-85277I-127J-156D01*
G01X-49457D01*
G02X-50575Y-83275I-243J1177D01*
G03X-50520Y-83138I-146J138D01*
G01Y-82862D01*
G03X-50575Y-82725I-201J-1D01*
G02X-49457Y-80723I875J825D01*
G01X-49456D01*
G03X-49289Y-80682I40J197D01*
G01X-49048Y-80485D01*
G03X-48974Y-80330I-127J156D01*
G01Y-78809D01*
G02X-48773Y-78608I201J0D01*
G01X-48749D01*
X-48632Y-78491D01*
Y-77853D01*
G02X-48573Y-77711I201J0D01*
G01X-47960Y-77097D01*
G03X-47901Y-76948I-142J142D01*
G01Y-76947D01*
G02X-46747Y-78101I1201J47D01*
G01X-46748D01*
G03X-46897Y-78160I-7J-201D01*
G01X-47002Y-78265D01*
G03X-47046Y-78484I142J-142D01*
G01X-47023Y-78540D01*
X-46922Y-78608D01*
X-45572D01*
G03X-45430Y-78549I0J201D01*
G01X-43769Y-76887D01*
G02X-43627Y-76828I142J-142D01*
G01X-42297D01*
G03X-42096Y-76627I0J201D01*
G01Y-76295D01*
G02X-41895Y-76094I201J0D01*
G01X-40148D01*
G03X-39947Y-75893I0J201D01*
G01Y-75609D01*
G02X-39746Y-75408I201J0D01*
G01X-34235D01*
G02X-34034Y-75609I0J-201D01*
G37*
G36*
G01X-134712Y-77054D02*
X-136488D01*
G02X-136740Y-77012I3J796D01*
G01X-136772Y-77002D01*
X-137828D01*
X-137860Y-77012D01*
G02X-137951Y-77037I-256J754D01*
G03X-138042Y-77083I42J-196D01*
G02X-140053Y-77297I-1157J1315D01*
G03X-140095Y-77280I-96J-177D01*
G02X-140838Y-76838I496J1679D01*
G01X-144293Y-73384D01*
G02X-144352Y-73242I142J142D01*
G01Y-58948D01*
G02X-144293Y-58806I201J0D01*
G01X-140438Y-54952D01*
G02X-137962Y-57428I1238J-1238D01*
G01X-140789Y-60256D01*
G03X-140848Y-60398I142J-142D01*
G01Y-71792D01*
G03X-140789Y-71934I201J0D01*
G01X-140458Y-72265D01*
G03X-140174Y-72264I141J143D01*
G01X-140067Y-72157D01*
G02X-139925Y-72098I142J-142D01*
G01X-139535D01*
G03X-139530I2J201D01*
G02X-139470I30J-1202D01*
G03X-139465I3J201D01*
G01X-139301D01*
X-139251Y-72048D01*
G02X-139109Y-71989I142J-142D01*
G01X-134681D01*
G03X-134539Y-71930I0J201D01*
G01X-134367Y-71757D01*
G02X-134225Y-71698I142J-142D01*
G01X-133610D01*
Y-71662D01*
X-129103D01*
G03X-128902Y-71461I0J201D01*
G01Y-65949D01*
G02X-128701Y-65748I201J0D01*
G01X-126099D01*
G02X-125898Y-65949I0J-201D01*
G01Y-70509D01*
G03X-125839Y-70651I201J0D01*
G01X-125504Y-70987D01*
G03X-125285Y-71030I142J142D01*
G01X-125229Y-71007D01*
X-125162Y-70906D01*
Y-65748D01*
X-125102D01*
Y-65375D01*
G02X-125043Y-65233I201J0D01*
G01X-123467Y-63657D01*
G02X-123325Y-63598I142J-142D01*
G01X-117852D01*
Y-63548D01*
X-113348D01*
Y-63598D01*
X-113175D01*
G02X-113033Y-63657I0J-201D01*
G01X-112161Y-64530D01*
G03X-112019Y-64589I142J142D01*
G01X-110025D01*
X-109908Y-64706D01*
Y-64740D01*
X-109878Y-64813D01*
X-109357Y-65333D01*
G02X-109298Y-65475I-142J-142D01*
G01Y-71625D01*
G02X-109357Y-71767I-201J0D01*
G01X-110347Y-72756D01*
G03X-110390Y-72975I142J-142D01*
G01X-110367Y-73031D01*
X-110266Y-73098D01*
X-110091D01*
G03X-109949Y-73039I0J201D01*
G01X-109267Y-72357D01*
G02X-109125Y-72298I142J-142D01*
G01X-107975D01*
G02X-107833Y-72357I0J-201D01*
G01X-107157Y-73033D01*
G02X-107098Y-73175I-142J-142D01*
G01Y-77325D01*
G02X-107157Y-77467I-201J0D01*
G01X-107633Y-77943D01*
G02X-107775Y-78002I-142J142D01*
G01X-112025D01*
G02X-112167Y-77943I0J201D01*
G01X-112643Y-77467D01*
G02X-112702Y-77325I142J142D01*
G01Y-74075D01*
G02X-112643Y-73933I201J0D01*
G01X-111953Y-73244D01*
G03X-111910Y-73025I-142J142D01*
G01X-111933Y-72969D01*
X-112034Y-72902D01*
X-113348D01*
Y-72952D01*
X-117651D01*
G02X-117852Y-72751I0J201D01*
G01Y-71041D01*
G03X-117911Y-70899I-201J0D01*
G01X-118339Y-70470D01*
G03X-118481Y-70411I-142J-142D01*
G01X-120419D01*
G03X-120561Y-70470I0J-201D01*
G01X-121233Y-71143D01*
G02X-121375Y-71202I-142J142D01*
G01X-122158D01*
Y-71252D01*
X-124755D01*
G03X-124941Y-71376I0J-201D01*
G01X-124964Y-71432D01*
X-124940Y-71551D01*
X-124888Y-71603D01*
G03X-124746Y-71662I142J142D01*
G01X-121391D01*
G02X-121190Y-71863I0J-201D01*
G01Y-77717D01*
G03X-121131Y-77859I201J0D01*
G01X-120934Y-78056D01*
G03X-120715Y-78100I142J142D01*
G01X-120659Y-78077D01*
X-120592Y-77976D01*
Y-76127D01*
X-120502Y-76037D01*
Y-75221D01*
G03X-120529Y-75120I-201J0D01*
G01X-120530Y-75119D01*
G02X-118469Y-75118I1030J619D01*
G03X-118471Y-75120I137J-139D01*
G01X-118484Y-75144D01*
X-118498Y-75194D01*
Y-76037D01*
X-118467Y-76068D01*
G02X-118408Y-76210I-142J-142D01*
G01Y-78983D01*
X-118398Y-78992D01*
Y-80501D01*
G02X-118599Y-80702I-201J0D01*
G01X-126425D01*
G02X-126567Y-80643I0J201D01*
G01X-127543Y-79667D01*
G02X-127602Y-79525I142J142D01*
G01Y-76291D01*
G03X-127661Y-76149I-201J0D01*
G01X-128918Y-74891D01*
G03X-129137Y-74848I-142J-142D01*
G01X-129193Y-74871D01*
X-129260Y-74972D01*
Y-80337D01*
G02X-129461Y-80538I-201J0D01*
G01X-133409D01*
G02X-133610Y-80337I0J201D01*
G01Y-78083D01*
G03X-133669Y-77941I-201J0D01*
G01X-134500Y-77109D01*
G03X-134655Y-77051I-142J-143D01*
G01X-134656D01*
G02X-134712Y-77054I-71J793D01*
G37*
G36*
G01X-66970Y-69448D02*
X-63694D01*
G03X-63552Y-69389I0J201D01*
G01X-59958Y-65795D01*
G03X-59915Y-65576I-142J142D01*
G01X-59938Y-65520D01*
X-60039Y-65453D01*
X-60581D01*
G02X-60782Y-65252I0J201D01*
G01Y-63553D01*
G03X-60983Y-63352I-201J0D01*
G01X-62328D01*
G02X-62470Y-63293I0J201D01*
G01X-62916Y-62847D01*
G03X-63135Y-62804I-142J-142D01*
G01X-63191Y-62827D01*
X-63258Y-62928D01*
Y-64772D01*
G02X-63459Y-64973I-201J0D01*
G01X-65530D01*
G03X-65731Y-65174I0J-201D01*
G01Y-65520D01*
G02X-65932Y-65721I-201J0D01*
G01X-70706D01*
G02X-70907Y-65520I0J201D01*
G01Y-62360D01*
G02X-70706Y-62159I201J0D01*
G01X-65643D01*
G03X-65442Y-61958I0J201D01*
G01Y-60628D01*
G02X-65241Y-60427I201J0D01*
G01X-63459D01*
G02X-63258Y-60628I0J-201D01*
G01Y-60651D01*
X-63141Y-60768D01*
X-62953D01*
G02X-62811Y-60827I0J-201D01*
G01X-61848Y-61789D01*
G03X-61706Y-61848I142J142D01*
G01X-60983D01*
G03X-60782Y-61647I0J201D01*
G01Y-59926D01*
G02X-60581Y-59725I201J0D01*
G01X-60393D01*
G03X-60192Y-59524I0J201D01*
G01Y-57621D01*
G03X-60393Y-57420I-201J0D01*
G01X-61951D01*
G03X-62076Y-57463I-1J-201D01*
G02X-63286Y-57627I-744J944D01*
G01X-63323Y-57611D01*
X-65530D01*
G03X-65731Y-57812I0J-201D01*
G01Y-58040D01*
G02X-65932Y-58241I-201J0D01*
G01X-70706D01*
G02X-70907Y-58040I0J201D01*
G01Y-54880D01*
G02X-70706Y-54679I201J0D01*
G01X-65932D01*
G02X-65731Y-54880I0J-201D01*
G01Y-55226D01*
G03X-65530Y-55427I201J0D01*
G01X-63323D01*
X-63286Y-55411D01*
G02X-62372Y-55403I467J-1108D01*
G01X-62336Y-55418D01*
X-60283D01*
X-60251Y-55386D01*
G02X-60109Y-55327I142J-142D01*
G01X-60102D01*
Y-54767D01*
G02X-60043Y-54625I201J0D01*
G01X-57475Y-52057D01*
G02X-57333Y-51998I142J-142D01*
G01X-43469D01*
G02X-43327Y-52057I0J-201D01*
G01X-41127Y-54258D01*
G02X-41068Y-54400I-142J-142D01*
G01Y-54478D01*
G03X-40867Y-54679I201J0D01*
G01X-39682D01*
G02X-39481Y-54880I0J-201D01*
G01Y-55297D01*
G03X-39280Y-55498I201J0D01*
G01X-38963D01*
X-38932Y-55467D01*
G02X-38790Y-55408I142J-142D01*
G01X-38733D01*
G03X-38532Y-55207I0J201D01*
G01Y-54853D01*
G02X-38473Y-54711I201J0D01*
G01X-37370Y-53607D01*
G02X-37228Y-53548I142J-142D01*
G01X-29572D01*
G02X-29430Y-53607I0J-201D01*
G01X-28044Y-54993D01*
G03X-27825Y-55037I142J142D01*
G01X-27769Y-55014D01*
X-27702Y-54913D01*
Y-54249D01*
G02X-27501Y-54048I201J0D01*
G01X-22899D01*
G02X-22698Y-54249I0J-201D01*
G01Y-55681D01*
X-22581Y-55798D01*
X-22558D01*
X-20388Y-57968D01*
G03X-20246Y-58027I142J142D01*
G01X-19409D01*
G02X-19208Y-58228I0J-201D01*
G01Y-62372D01*
G02X-19409Y-62573I-201J0D01*
G01X-19431D01*
X-19548Y-62690D01*
Y-64107D01*
G03X-19489Y-64249I201J0D01*
G01X-18097Y-65641D01*
G03X-17878Y-65685I142J142D01*
G01X-17822Y-65662D01*
X-17754Y-65561D01*
Y-65507D01*
X-11047D01*
G02X-10846Y-65708I0J-201D01*
G01Y-68278D01*
G02X-11047Y-68479I-201J0D01*
G01X-17553D01*
G02X-17754Y-68278I0J201D01*
G01Y-67945D01*
G03X-17955Y-67744I-201J0D01*
G01X-18036D01*
G02X-18178Y-67685I0J201D01*
G01X-20993Y-64871D01*
G02X-21052Y-64729I142J142D01*
G01Y-62774D01*
G03X-21253Y-62573I-201J0D01*
G01X-21275D01*
X-21392Y-62456D01*
Y-59173D01*
G03X-21451Y-59031I-201J0D01*
G01X-22356Y-58126D01*
G03X-22575Y-58082I-142J-142D01*
G01X-22631Y-58105D01*
X-22698Y-58206D01*
Y-58851D01*
G02X-22899Y-59052I-201J0D01*
G01X-27501D01*
G02X-27702Y-58851I0J201D01*
G01Y-57419D01*
X-27819Y-57302D01*
X-27861D01*
X-30052Y-55111D01*
G03X-30194Y-55052I-142J-142D01*
G01X-36488D01*
G03X-36689Y-55253I0J-201D01*
G01Y-57391D01*
G02X-36890Y-57592I-201J0D01*
G01X-38873D01*
X-38963Y-57502D01*
X-39280D01*
G03X-39481Y-57703I0J-201D01*
G01Y-58040D01*
G02X-39682Y-58241I-201J0D01*
G01X-44456D01*
G02X-44657Y-58040I0J201D01*
G01Y-54880D01*
G02X-44456Y-54679I201J0D01*
G01X-44022D01*
G03X-43837Y-54555I-1J201D01*
G01X-43814Y-54499D01*
X-43838Y-54380D01*
X-44157Y-54061D01*
G03X-44299Y-54002I-142J-142D01*
G01X-56503D01*
G03X-56645Y-54061I0J-201D01*
G01X-57949Y-55364D01*
G03X-58008Y-55506I142J-142D01*
G01Y-59524D01*
G03X-57807Y-59725I201J0D01*
G01X-57619D01*
G02X-57418Y-59926I0J-201D01*
G01Y-61647D01*
G03X-57217Y-61848I201J0D01*
G01X-56294D01*
G03X-56152Y-61789I0J201D01*
G01X-53870Y-59507D01*
G02X-53728Y-59448I142J-142D01*
G01X-53520D01*
G03X-53319Y-59247I0J201D01*
G01Y-57943D01*
G03X-53375Y-57804I-201J0D01*
G01X-53458Y-57717D01*
G03X-53582Y-57656I-145J-139D01*
G02Y-55264I122J1196D01*
G03X-53458Y-55203I-21J200D01*
G01X-53375Y-55116D01*
G03X-53319Y-54977I-145J139D01*
G01Y-54880D01*
G02X-53118Y-54679I201J0D01*
G01X-48344D01*
G02X-48143Y-54880I0J-201D01*
G01Y-61780D01*
G02X-48344Y-61981I-201J0D01*
G01X-53118D01*
G02X-53319Y-61780I0J201D01*
G01Y-61566D01*
G03X-53443Y-61380I-201J0D01*
G01X-53499Y-61357D01*
X-53618Y-61381D01*
X-55530Y-63293D01*
G02X-55672Y-63352I-142J142D01*
G01X-57217D01*
G03X-57418Y-63553I0J-201D01*
G01Y-65252D01*
G02X-57619Y-65453I-201J0D01*
G01X-58147D01*
G03X-58348Y-65654I0J-201D01*
G01Y-66228D01*
G02X-58407Y-66370I-201J0D01*
G01X-62930Y-70893D01*
G02X-63072Y-70952I-142J142D01*
G01X-66970D01*
G03X-67118Y-71016I-1J-201D01*
G02Y-69384I-882J816D01*
G03X-66970Y-69448I147J137D01*
G37*
G36*
G01X-82152Y-66871D02*
G03X-82353Y-66673I-201J-3D01*
G01X-84041D01*
G02X-84242Y-66472I0J201D01*
G01Y-65922D01*
G03X-84443Y-65721I-201J0D01*
G01X-89506D01*
G02X-89707Y-65520I0J201D01*
G01Y-62360D01*
G02X-89506Y-62159I201J0D01*
G01X-84242D01*
Y-62127D01*
X-81903D01*
G03X-81702Y-61926I0J201D01*
G01Y-60722D01*
G02X-81643Y-60580I201J0D01*
G01X-80570Y-59507D01*
G02X-80428Y-59448I142J-142D01*
G01X-79770D01*
G03X-79569Y-59247I0J201D01*
G01Y-54880D01*
G02X-79368Y-54679I201J0D01*
G01X-74594D01*
G02X-74393Y-54880I0J-201D01*
G01Y-61780D01*
G02X-74594Y-61981I-201J0D01*
G01X-79657D01*
G03X-79858Y-62182I0J-201D01*
G01Y-66346D01*
X-79842Y-66383D01*
G02X-82152Y-66871I-1108J-466D01*
G37*
G36*
G01X-96999Y-48847D02*
Y-48848D01*
G03X-96940Y-48997I201J-7D01*
G01X-95089Y-50849D01*
G02X-95030Y-50991I-142J-142D01*
G01Y-54478D01*
G03X-94829Y-54679I201J0D01*
G01X-93394D01*
G02X-93193Y-54880I0J-201D01*
G01Y-59247D01*
G03X-92992Y-59448I201J0D01*
G01X-92894D01*
G03X-92752Y-59389I0J201D01*
G01X-92211Y-58848D01*
G03X-92152Y-58706I-142J142D01*
G01Y-53893D01*
G03X-92353Y-53692I-201J0D01*
G01X-92407D01*
X-92524Y-53575D01*
Y-51707D01*
G02X-92323Y-51506I201J0D01*
G01X-88004D01*
X-87967Y-51491D01*
G02Y-53707I466J-1108D01*
G01X-88004Y-53692D01*
X-90447D01*
G03X-90648Y-53893I0J-201D01*
G01Y-59328D01*
G02X-90707Y-59470I-201J0D01*
G01X-92130Y-60893D01*
G02X-92272Y-60952I-142J142D01*
G01X-92992D01*
G03X-93193Y-61153I0J-201D01*
G01Y-61780D01*
G02X-93394Y-61981I-201J0D01*
G01X-98168D01*
G02X-98369Y-61780I0J201D01*
G01Y-54880D01*
G02X-98168Y-54679I201J0D01*
G01X-96733D01*
G03X-96532Y-54478I0J201D01*
G01Y-51613D01*
G03X-96591Y-51471I-201J0D01*
G01X-98003Y-50060D01*
G03X-98152Y-50001I-142J-142D01*
G01X-98153D01*
G02X-96999Y-48847I-47J1201D01*
G37*
G36*
G01X-96619Y2608D02*
X-96620Y2609D01*
G03X-96721Y2636I-101J-174D01*
G01X-96861D01*
X-96889Y2628D01*
G02X-97186Y2586I-294J1010D01*
G01X-99233D01*
G03X-99235I-1J-201D01*
G02X-99385Y2596I-5J1052D01*
G01X-99400Y2598D01*
X-100537D01*
X-100568Y2567D01*
G02X-100710Y2508I-142J142D01*
G01X-102610D01*
G02X-102811Y2709I0J201D01*
G01Y4692D01*
X-102810D01*
Y6605D01*
G03X-103011Y6806I-201J0D01*
G01X-104973D01*
G02X-105174Y7007I0J201D01*
G01Y8992D01*
X-105125D01*
X-103574Y10543D01*
G02X-103432Y10602I142J-142D01*
G01X-100417D01*
G02X-100275Y10543I0J-201D01*
G01X-98745Y9012D01*
X-98711Y8997D01*
G02X-98175Y7271I-489J-1098D01*
G01X-98203Y7225D01*
X-98205Y7116D01*
X-98008Y6763D01*
G03X-97832Y6660I176J98D01*
G01X-97186D01*
G02X-96170Y5332I0J-1053D01*
G03X-96144Y5168I194J-53D01*
G01X-95953Y4880D01*
X-95880Y4835D01*
X-95837Y4829D01*
G02X-96619Y2608I-163J-1191D01*
G37*
G36*
G01X-90057Y44862D02*
X-89981D01*
G02X-89502Y44799I-1J-1862D01*
G01X-89476Y44792D01*
X-88390D01*
G02X-88189Y44591I0J-201D01*
G01Y43505D01*
X-88182Y43479D01*
G02X-88137Y42748I-1799J-478D01*
G01X-88138Y42734D01*
Y40881D01*
G02X-88201Y40402I-1862J1D01*
G01X-88208Y40376D01*
Y39024D01*
X-88201Y38998D01*
G02X-88138Y38519I-1799J-480D01*
G01Y36381D01*
G02X-88201Y35902I-1862J1D01*
G01X-88208Y35876D01*
Y34943D01*
G03X-88150Y34801I201J-1D01*
G01X-88120Y34771D01*
Y31898D01*
G02X-88137Y31648I-1861J1D01*
G01X-88138Y31634D01*
Y29781D01*
G02X-88201Y29302I-1862J1D01*
G01X-88208Y29276D01*
Y28343D01*
G03X-88149Y28201I201J0D01*
G01X-88148Y28200D01*
X-88118Y28127D01*
Y25300D01*
G02X-88120Y25222I-1862J9D01*
G03Y25213I201J-4D01*
G01Y23200D01*
G02X-88138Y22948I-1862J6D01*
G01X-88140Y22934D01*
Y21082D01*
G02X-88202Y20603I-1861J-3D01*
G01X-88209Y20577D01*
Y20012D01*
G03X-88008Y19811I201J0D01*
G01X-84608D01*
G02X-84407Y19610I0J-201D01*
G01Y17828D01*
G02X-84608Y17627I-201J0D01*
G01X-84698Y17537D01*
Y16732D01*
G03X-84574Y16546I201J0D01*
G01X-84518Y16523D01*
X-84399Y16547D01*
X-84027Y16919D01*
X-84012Y16956D01*
G02X-81976Y17269I1112J-456D01*
G03X-81796Y17198I155J128D01*
G01X-81459Y17241D01*
G03X-81302Y17355I-25J200D01*
G03X-80942Y18977I-3472J1621D01*
G01Y21453D01*
X-80944Y21467D01*
G02X-80899Y22198I1844J253D01*
G01X-80892Y22224D01*
Y23576D01*
X-80899Y23602D01*
G02X-80962Y24081I1799J480D01*
G01Y26952D01*
X-80942Y26971D01*
Y28153D01*
X-80944Y28167D01*
G02X-80899Y28898I1844J253D01*
G01X-80892Y28924D01*
Y30276D01*
X-80899Y30302D01*
G02X-80962Y30781I1799J480D01*
G01Y34128D01*
X-80931Y34201D01*
X-80906Y34226D01*
Y34925D01*
G02X-80705Y35126I201J0D01*
G01X-80453D01*
G03X-80252Y35327I0J201D01*
G01Y35404D01*
X-80353Y35518D01*
X-80429Y35527D01*
G02X-80945Y35667I224J1848D01*
G01X-80983Y35684D01*
X-81845D01*
G02X-82046Y35885I0J201D01*
G01Y37102D01*
X-82048Y37116D01*
G02X-82066Y37373I1843J258D01*
G01Y40803D01*
G02X-82008Y40944I201J0D01*
G01X-81992Y40960D01*
Y41976D01*
X-81999Y42002D01*
G02X-82062Y42481I1799J480D01*
G01Y45352D01*
X-82042Y45371D01*
Y49047D01*
G03X-82243Y49248I-201J0D01*
G01X-82325D01*
X-82442Y49365D01*
Y55951D01*
G02X-82241Y56152I201J0D01*
G01X-78239D01*
G02X-78038Y55951I0J-201D01*
G01Y55653D01*
G03X-77837Y55452I201J0D01*
G01X-75199D01*
G02X-74998Y55251I0J-201D01*
G01Y50043D01*
G03X-74940Y49902I201J0D01*
G01X-74930Y49892D01*
X-74463D01*
G03X-74262Y50093I0J201D01*
G01Y55251D01*
G02X-74061Y55452I201J0D01*
G01X-71459D01*
G02X-71258Y55251I0J-201D01*
G01Y50093D01*
G03X-71057Y49892I201J0D01*
G01X-70190D01*
G02X-69989Y49691I0J-201D01*
G01Y47909D01*
G02X-70190Y47708I-201J0D01*
G01X-74197D01*
G03X-74398Y47507I0J-201D01*
G01Y47506D01*
G02X-76143Y46428I-1202J-6D01*
G01X-76144D01*
G03X-76340Y46420I-91J-179D01*
G01X-76631Y46241D01*
G03X-76727Y46070I105J-171D01*
G01Y45893D01*
G03X-76526Y45692I201J0D01*
G01X-74790D01*
G02X-74589Y45491I0J-201D01*
G01Y43923D01*
X-74573Y43886D01*
G02X-76879Y43323I-1108J-467D01*
G03X-77079Y43508I-200J-16D01*
G01X-78137D01*
G03X-78338Y43307I0J-201D01*
G01Y42481D01*
G02X-78401Y42002I-1862J1D01*
G01X-78408Y41976D01*
Y40624D01*
X-78401Y40598D01*
G02X-78343Y39989I-1799J-479D01*
G01X-78344Y39982D01*
Y39437D01*
G03X-78143Y39236I201J0D01*
G01X-76806D01*
G02X-76664Y39177I0J-201D01*
G01X-75918Y38432D01*
G03X-75776Y38373I142J142D01*
G01X-75109D01*
G02X-74908Y38172I0J-201D01*
G01Y37086D01*
X-74901Y37060D01*
G02Y36102I-1799J-479D01*
G01X-74908Y36076D01*
Y34724D01*
X-74901Y34698D01*
G02Y33740I-1799J-479D01*
G01X-74908Y33714D01*
Y32628D01*
G02X-75109Y32427I-201J0D01*
G01X-75776D01*
G03X-75918Y32368I0J-201D01*
G01X-76654Y31633D01*
G02X-76796Y31574I-142J142D01*
G01X-77037D01*
G03X-77238Y31373I0J-201D01*
G01Y30781D01*
G02X-77301Y30302I-1862J1D01*
G01X-77308Y30276D01*
Y29343D01*
G03X-77250Y29201I201J-1D01*
G01X-77220Y29171D01*
Y26198D01*
G02X-77237Y25948I-1861J1D01*
G01X-77238Y25934D01*
Y24081D01*
G02X-77258Y23811I-1862J2D01*
G01X-77260Y23796D01*
Y23781D01*
G03X-77059Y23580I201J0D01*
G01X-76900D01*
G02X-76421Y23518I3J-1861D01*
G01X-76395Y23511D01*
X-75309D01*
G02X-75108Y23310I0J-201D01*
G01Y22224D01*
X-75101Y22198D01*
G02Y21240I-1799J-479D01*
G01X-75108Y21214D01*
Y20128D01*
G02X-75309Y19927I-201J0D01*
G01X-76395D01*
X-76421Y19920D01*
G02X-76900Y19858I-476J1799D01*
G01X-77019D01*
G03X-77220Y19657I0J-201D01*
G01Y18973D01*
G02X-77920Y15799I-7554J2D01*
G03X-77853Y15549I182J-85D01*
G01X-77529Y15323D01*
G03X-77272Y15346I115J165D01*
G01X-76571Y16047D01*
G03X-76513Y16167I-142J143D01*
G01Y16168D01*
G02X-76131Y16770I792J-80D01*
G01X-76085Y16798D01*
X-76034Y16889D01*
Y17681D01*
G02X-75975Y17823I201J0D01*
G01X-75633Y18165D01*
G03X-75574Y18307I-142J142D01*
G01Y18791D01*
G02X-75373Y18992I201J0D01*
G01X-73520D01*
G03X-73319Y19182I0J201D01*
G01Y19183D01*
G02X-71011Y18653I1200J-64D01*
G01X-71026Y18616D01*
Y17009D01*
G02X-71227Y16808I-201J0D01*
G01X-73187D01*
G03X-73347Y16729I0J-201D01*
G01X-73541Y16474D01*
G03X-73575Y16300I160J-122D01*
G01Y16299D01*
G02X-73546Y16087I-767J-213D01*
G01Y14313D01*
G02X-74341Y13518I-796J1D01*
G01X-75723D01*
G02X-76028Y13580I3J796D01*
G01X-76029D01*
G03X-76248Y13537I-77J-185D01*
G01X-77513Y12271D01*
G03Y11987I142J-142D01*
G01X-76178Y10652D01*
G03X-75894I142J142D01*
G01X-74366Y12180D01*
X-74273Y12181D01*
X-74160Y12294D01*
X-74147Y12315D01*
G02X-72822Y10534I1033J-615D01*
G01X-72824D01*
G03X-72916Y10481I51J-195D01*
G01X-73763Y9634D01*
X-73823D01*
X-75894Y7564D01*
G02X-76178I-142J142D01*
G01X-76307Y7693D01*
G03X-76591I-142J-142D01*
G01X-77106Y7178D01*
G03X-77163Y7006I142J-142D01*
G01X-77107Y6637D01*
X-77052Y6560D01*
X-77009Y6538D01*
G02X-76785Y4835I-491J-931D01*
G03X-76849Y4688I137J-147D01*
G01Y4558D01*
G03X-76784Y4410I201J0D01*
G02X-76763Y4390I-715J-772D01*
G01X-76206D01*
G03X-76064Y4449I0J201D01*
G01X-73261Y7251D01*
G02X-73119Y7310I142J-142D01*
G01X-71839D01*
G03X-71638Y7511I0J201D01*
G01Y8334D01*
G02X-71437Y8535I201J0D01*
G01X-70973D01*
G03X-70772Y8736I0J201D01*
G01Y10291D01*
G02X-70571Y10492I201J0D01*
G01X-68789D01*
G02X-68588Y10291I0J-201D01*
G01Y8736D01*
G03X-68387Y8535I201J0D01*
G01X-68077D01*
G02X-67876Y8334I0J-201D01*
G01Y4987D01*
G03X-67675Y4786I201J0D01*
G01X-66907D01*
G02X-66765Y4727I0J-201D01*
G01X-65514Y3477D01*
G03X-65372Y3418I142J142D01*
G01X-64532D01*
G02X-64331Y3217I0J-201D01*
G01Y-411D01*
X-64214Y-528D01*
X-64208D01*
Y-2511D01*
G02X-64409Y-2712I-201J0D01*
G01X-66392D01*
Y-2711D01*
X-68593D01*
X-68684Y-2620D01*
X-70016D01*
X-70043Y-2594D01*
X-70789D01*
G03X-70990Y-2795I0J-201D01*
G01Y-4608D01*
X-70989D01*
Y-6591D01*
G02X-71190Y-6792I-201J0D01*
G01X-73173D01*
X-73263Y-6702D01*
X-75832D01*
G02X-75974Y-6643I0J201D01*
G01X-75995Y-6622D01*
X-76082Y-6592D01*
X-76491Y-6645D01*
X-76568Y-6695D01*
X-76592Y-6736D01*
G02X-76725Y-6916I-908J532D01*
G03X-76778Y-7052I148J-136D01*
G01Y-7325D01*
G03X-76725Y-7461I201J0D01*
G02X-77500Y-9226I-775J-712D01*
G01X-79548D01*
G02X-80323Y-7461I0J1053D01*
G03X-80270Y-7325I-148J136D01*
G01Y-7052D01*
G03X-80323Y-6916I-201J0D01*
G02Y-5492I775J712D01*
G03X-80270Y-5356I-148J136D01*
G01Y-5084D01*
G03X-80323Y-4948I-201J0D01*
G02Y-3524I775J712D01*
G03X-80270Y-3388I-148J136D01*
G01Y-3115D01*
G03X-80323Y-2979I-201J0D01*
G02Y-1555I775J712D01*
G03X-80270Y-1419I-148J136D01*
G01Y-1147D01*
G03X-80323Y-1011I-201J0D01*
G02Y413I775J712D01*
G03X-80270Y549I-148J136D01*
G01Y822D01*
G03X-80323Y958I-201J0D01*
G02Y2382I775J712D01*
G03X-80270Y2518I-148J136D01*
G01Y2790D01*
G03X-80323Y2926I-201J0D01*
G02Y4350I775J712D01*
G03X-80270Y4486I-148J136D01*
G01Y4759D01*
G03X-80323Y4895I-201J0D01*
G02X-79698Y6649I775J712D01*
G01X-79624Y6660D01*
X-79526Y6773D01*
Y7508D01*
G02X-79467Y7650I201J0D01*
G01X-78007Y9109D01*
G03Y9393I-142J142D01*
G01X-79057Y10443D01*
G03X-79341I-142J-142D01*
G01X-80365Y9419D01*
G03X-80424Y9277I142J-142D01*
G01Y7536D01*
G02X-81825Y6542I-1053J0D01*
G03X-82052Y6474I-67J-189D01*
G02X-84841I-1394J1062D01*
G03X-85067Y6542I-160J-121D01*
G02X-86126Y6761I-347J994D01*
G03X-86262Y6814I-136J-148D01*
G01X-86535D01*
G03X-86671Y6761I0J-201D01*
G02X-87730Y6542I-712J775D01*
G03X-87956Y6474I-66J-189D01*
G02X-90746I-1395J1062D01*
G03X-90972Y6542I-160J-121D01*
G02X-92032Y6761I-347J994D01*
G03X-92168Y6814I-136J-148D01*
G01X-92440D01*
G03X-92576Y6761I0J-201D01*
G02X-94000I-712J775D01*
G03X-94136Y6814I-136J-148D01*
G01X-94409D01*
G03X-94545Y6761I0J-201D01*
G02X-96310Y7536I-712J775D01*
G01Y8567D01*
G03X-96369Y8709I-201J0D01*
G01X-99993Y12333D01*
G02X-100052Y12475I142J142D01*
G01Y12927D01*
X-100092D01*
Y15111D01*
X-100052D01*
Y15326D01*
G02X-99709Y15468I201J0D01*
G01X-99411Y15170D01*
G03X-99269Y15111I142J142D01*
G01X-97908D01*
Y15110D01*
X-95903D01*
G03X-95702Y15311I0J201D01*
G01Y15438D01*
X-95733Y15469D01*
G02X-95792Y15611I142J142D01*
G01Y17310D01*
G02X-95591Y17511I201J0D01*
G01X-94193D01*
G03X-93992Y17712I0J201D01*
G01Y18010D01*
G02X-93791Y18211I201J0D01*
G01X-92705D01*
X-92679Y18218D01*
G02X-92200Y18280I476J-1799D01*
G01X-92063D01*
G03X-91862Y18481I0J201D01*
G01Y18720D01*
G02X-91800Y19199I1861J3D01*
G01X-91793Y19225D01*
Y20577D01*
X-91800Y20603D01*
G02X-91862Y21082I1799J476D01*
G01Y23952D01*
X-91844Y23971D01*
Y25357D01*
G03X-92045Y25558I-201J0D01*
G01X-92100D01*
G02X-92579Y25620I-3J1861D01*
G01X-92605Y25627D01*
X-93691D01*
G02X-93892Y25828I0J201D01*
G01Y26914D01*
X-93899Y26940D01*
G02Y27898I1799J479D01*
G01X-93892Y27924D01*
Y29276D01*
X-93899Y29302D01*
G02Y30260I1799J479D01*
G01X-93892Y30286D01*
Y31372D01*
G02X-93691Y31573I201J0D01*
G01X-92605D01*
X-92579Y31580D01*
G02X-92100Y31642I476J-1799D01*
G01X-92063D01*
G03X-91862Y31843I0J201D01*
G01Y32652D01*
X-91842Y32671D01*
Y33753D01*
X-91844Y33767D01*
G02X-91799Y34498I1844J253D01*
G01X-91792Y34524D01*
Y35876D01*
X-91799Y35902D01*
G02X-91862Y36381I1799J480D01*
G01Y38519D01*
G02X-91799Y38998I1862J-1D01*
G01X-91792Y39024D01*
Y40376D01*
X-91799Y40402D01*
G02X-91862Y40881I1799J480D01*
G01Y40937D01*
G03X-92063Y41138I-201J0D01*
G01X-92119D01*
G02X-92596Y41201I3J1862D01*
G01X-92622Y41208D01*
X-93978D01*
X-94004Y41201D01*
G02X-94481Y41138I-480J1799D01*
G01X-96334D01*
X-96348Y41137D01*
G02X-96852I-252J1844D01*
G01X-96866Y41138D01*
X-98750D01*
G02X-99229Y41201I1J1862D01*
G01X-99255Y41208D01*
X-100341D01*
G02X-100542Y41409I0J201D01*
G01Y41707D01*
G03X-100743Y41908I-201J0D01*
G01X-102139D01*
Y41889D01*
X-106138D01*
G03X-106339Y41688I0J-201D01*
G01Y39935D01*
X-106323Y39898D01*
G02X-108539I-1108J-467D01*
G01X-108523Y39935D01*
Y43872D01*
G02X-108322Y44073I201J0D01*
G01X-102204D01*
Y44092D01*
X-101228D01*
G03X-101069Y44171I-1J201D01*
G01X-101041Y44208D01*
X-101022Y44299D01*
X-101621Y46549D01*
G03X-101815Y46698I-194J-52D01*
G01X-103301D01*
G02X-103502Y46899I0J201D01*
G01Y51901D01*
G02X-103301Y52102I201J0D01*
G01X-94299D01*
G02X-94098Y51901I0J-201D01*
G01Y46922D01*
G02X-94004Y46899I-395J-1819D01*
G03X-93951Y46892I53J194D01*
G01X-92622D01*
X-92596Y46899D01*
G02X-91642I477J-1799D01*
G01X-91616Y46892D01*
X-90527D01*
G02X-90326Y46691I0J-201D01*
G01Y45603D01*
X-90320Y45577D01*
G02X-90258Y45101I-1799J-476D01*
G01Y45063D01*
G03X-90057Y44862I201J0D01*
G37*
G36*
G01X-38990Y-64692D02*
X-39280D01*
G03X-39481Y-64893I0J-201D01*
G01Y-65520D01*
G02X-39682Y-65721I-201J0D01*
G01X-44456D01*
G02X-44657Y-65520I0J201D01*
G01Y-62360D01*
G02X-44456Y-62159I201J0D01*
G01X-39682D01*
G02X-39481Y-62360I0J-201D01*
G01Y-62987D01*
G03X-39280Y-63188I201J0D01*
G01X-39074D01*
G03X-38873Y-62987I0J201D01*
G01Y-62908D01*
X-38733D01*
G03X-38532Y-62707I0J201D01*
G01Y-61952D01*
G02X-38473Y-61810I201J0D01*
G01X-36161Y-59497D01*
G03X-36102Y-59355I-142J142D01*
G01Y-57999D01*
G02X-35901Y-57798I201J0D01*
G01X-31299D01*
G02X-31098Y-57999I0J-201D01*
G01Y-62601D01*
G02X-31299Y-62802I-201J0D01*
G01X-35901D01*
G02X-36102Y-62601I0J201D01*
G01Y-62047D01*
G03X-36226Y-61862I-201J-1D01*
G01X-36282Y-61839D01*
X-36401Y-61863D01*
X-36971Y-62432D01*
G03X-37030Y-62574I142J-142D01*
G01Y-62707D01*
G03X-36829Y-62908I201J0D01*
G01X-36806D01*
X-36689Y-63025D01*
Y-64891D01*
G02X-36890Y-65092I-201J0D01*
G01X-38672D01*
G02X-38873Y-64891I0J201D01*
G01Y-64809D01*
X-38990Y-64692D01*
G37*
G36*
G01X-26396Y-66915D02*
Y-66914D01*
G03X-26461Y-66786I-200J-21D01*
G01X-26662Y-66604D01*
G03X-26797Y-66552I-135J-149D01*
G01X-27501D01*
G02X-27702Y-66351I0J201D01*
G01Y-65748D01*
G03X-27826Y-65563I-201J-1D01*
G01X-27882Y-65540D01*
X-28001Y-65564D01*
X-29430Y-66993D01*
G02X-29572Y-67052I-142J142D01*
G01X-34126D01*
G03X-34327Y-67253I0J-201D01*
G01Y-67275D01*
X-34444Y-67392D01*
X-36310D01*
G02X-36511Y-67191I0J201D01*
G01Y-65409D01*
G02X-36310Y-65208I201J0D01*
G01X-34528D01*
G02X-34327Y-65409I0J-201D01*
G01Y-65431D01*
X-34210Y-65548D01*
X-30194D01*
G03X-30052Y-65489I0J201D01*
G01X-27920Y-63357D01*
G02X-27778Y-63298I142J-142D01*
G01X-27702Y-63222D01*
Y-61749D01*
G02X-27501Y-61548I201J0D01*
G01X-22899D01*
G02X-22698Y-61749I0J-201D01*
G01Y-66351D01*
G02X-22899Y-66552I-201J0D01*
G01X-23603D01*
G03X-23738Y-66604I0J-201D01*
G01X-23939Y-66786D01*
G03X-24004Y-66914I135J-149D01*
G01Y-66915D01*
G02X-26396I-1196J115D01*
G37*
G36*
G01X-32119Y-115258D02*
X-17104D01*
G03X-16962Y-115199I0J201D01*
G01X-13011Y-111248D01*
G03X-12952Y-111106I-142J142D01*
G01Y-102874D01*
G03X-13153Y-102673I-201J0D01*
G01X-13175D01*
X-13292Y-102556D01*
Y-100690D01*
G02X-13091Y-100489I201J0D01*
G01X-9109D01*
G02X-8908Y-100690I0J-201D01*
G01Y-102472D01*
G02X-9109Y-102673I-201J0D01*
G01X-9131D01*
X-9248Y-102790D01*
Y-123028D01*
G02X-9307Y-123170I-201J0D01*
G01X-14651Y-128513D01*
G02X-14793Y-128572I-142J142D01*
G01X-32119D01*
G03X-32320Y-128773I0J-201D01*
G01Y-130883D01*
G03X-32319Y-130903I201J0D01*
G01X-32299Y-131093D01*
G02X-32298Y-131113I-200J-20D01*
G01Y-132361D01*
G03X-32200Y-132533I201J1D01*
G01X-31902Y-132710D01*
G03X-31705Y-132715I103J173D01*
G01X-31704Y-132714D01*
G02X-32634Y-134300I851J-1565D01*
G01X-32635Y-134218D01*
X-32752Y-134102D01*
X-38509D01*
G03X-38651Y-134161I0J-201D01*
G01X-39533Y-135043D01*
G02X-39675Y-135102I-142J142D01*
G01X-43925D01*
G02X-44067Y-135043I0J201D01*
G01X-45043Y-134067D01*
G02X-45102Y-133925I142J142D01*
G01Y-122675D01*
G02X-45043Y-122533I201J0D01*
G01X-44904Y-122394D01*
G03X-44860Y-122174I-141J143D01*
G01X-44883Y-122119D01*
X-44984Y-122052D01*
X-47006D01*
G03X-47148Y-122111I0J-201D01*
G01X-48189Y-123152D01*
G03X-48248Y-123294I142J-142D01*
G01Y-127351D01*
G02X-48449Y-127552I-201J0D01*
G01X-52251D01*
G02X-52452Y-127351I0J201D01*
G01Y-122349D01*
G02X-52251Y-122148I201J0D01*
G01X-51670D01*
X-51554Y-122036D01*
X-51551Y-121955D01*
G02X-49300Y-121414I1201J-45D01*
G01X-49278Y-121455D01*
X-49200Y-121508D01*
X-48835Y-121559D01*
G03X-48665Y-121502I28J199D01*
G01X-48155Y-120992D01*
G03Y-120708I-142J142D01*
G01X-49252Y-119611D01*
G03X-49394Y-119552I-142J-142D01*
G01X-52251D01*
G02X-52452Y-119351I0J201D01*
G01Y-114349D01*
G02X-52251Y-114148I201J0D01*
G01X-51670D01*
X-51554Y-114036D01*
X-51551Y-113955D01*
G02X-49149I1201J-45D01*
G01X-49146Y-114036D01*
X-49030Y-114148D01*
X-48449D01*
G02X-48248Y-114349I0J-201D01*
G01Y-118406D01*
G03X-48189Y-118548I201J0D01*
G01X-47248Y-119489D01*
G03X-47106Y-119548I142J142D01*
G01X-38747D01*
G03X-38605Y-119489I0J201D01*
G01X-38370Y-119255D01*
G02X-38228Y-119196I142J-142D01*
G01X-38053D01*
G03X-37852Y-118995I0J201D01*
G01Y-115481D01*
G03X-37907Y-115343I-201J0D01*
G01X-37989Y-115257D01*
G03X-38116Y-115195I-146J-138D01*
G02X-37949Y-111700I167J1744D01*
G01X-35086D01*
G02X-34624Y-111761I4J-1751D01*
G01X-34598Y-111768D01*
X-33030D01*
G03X-32893Y-111714I0J201D01*
G01X-32693Y-111528D01*
G03X-32629Y-111396I-136J148D01*
G01Y-111395D01*
G02X-31722Y-113076I1776J-127D01*
G01X-31723D01*
G03X-31922Y-113078I-98J-176D01*
G01X-32221Y-113254D01*
G03X-32320Y-113427I102J-173D01*
G01Y-115057D01*
G03X-32119Y-115258I201J0D01*
G37*
G54D74*
X-73299Y-22499D03*
X-44800Y-49300D03*
X-42300Y-44200D03*
G54D73*
X-111800Y-133500D03*
X-101800D03*
X-91800D03*
X-81800D03*
X-71800D03*
G54D72*
X-141700Y-118000D03*
X-83300Y-38050D03*
X-73300D03*
X-63300D03*
G54D71*
X-147450Y3266D03*
Y129250D03*
X-21466Y3266D03*
Y129250D03*
%LPD*%
G75*
G36*
G01X-125800Y-135400D02*
Y-109400D01*
X-133000Y-102200D01*
X-144300D01*
X-145400Y-101100D01*
Y-94300D01*
X-144900Y-93800D01*
X-126900D01*
X-117500Y-103200D01*
Y-135500D01*
X-119400Y-137400D01*
X-123800D01*
X-125800Y-135400D01*
G37*
G36*
G01X-129800Y-72200D02*
X-134100D01*
X-134500Y-72600D01*
X-139800D01*
X-140300Y-73100D01*
Y-76200D01*
X-140000Y-76500D01*
X-134400D01*
X-133000Y-77900D01*
Y-79900D01*
X-132900Y-80000D01*
X-129800D01*
Y-72200D01*
G37*
G36*
G01X-139900Y-53300D02*
X-140400Y-52800D01*
Y-49800D01*
X-140000Y-49400D01*
X-138200D01*
X-137800Y-49000D01*
X-135200D01*
X-133500Y-47300D01*
Y-46800D01*
X-133300Y-46600D01*
X-131100D01*
X-131000Y-46700D01*
Y-51000D01*
X-130300Y-51700D01*
X-126500D01*
X-126000Y-51200D01*
Y-46600D01*
X-123600D01*
X-123500Y-46700D01*
Y-52700D01*
X-124100Y-53300D01*
X-139900D01*
G37*
G36*
G01X-131000Y-42000D02*
X-133800D01*
X-135000Y-40800D01*
X-138300D01*
X-138400Y-40900D01*
X-139800D01*
X-139900Y-40800D01*
Y-39200D01*
X-137700Y-37000D01*
X-131400D01*
X-131000Y-37400D01*
Y-42000D01*
G37*
G36*
G01X-126400Y-66300D02*
Y-70800D01*
X-125000Y-72200D01*
X-121800D01*
X-121700Y-72300D01*
Y-78000D01*
X-120600Y-79100D01*
X-119000D01*
X-118900Y-79200D01*
Y-80200D01*
X-126300D01*
X-127100Y-79400D01*
Y-76000D01*
X-128400Y-74700D01*
Y-72700D01*
Y-66400D01*
X-128300Y-66300D01*
X-126400D01*
G37*
G36*
G01X-109800Y-65600D02*
Y-71500D01*
X-110700Y-72400D01*
X-117200D01*
X-117300Y-72300D01*
Y-70800D01*
X-118300Y-69800D01*
X-120600D01*
X-121500Y-70700D01*
X-124500D01*
X-124600Y-70600D01*
Y-65500D01*
X-123200Y-64100D01*
X-113300D01*
X-112200Y-65200D01*
X-110200D01*
X-109800Y-65600D01*
G37*
G36*
G01X-115300Y-106100D02*
Y-102100D01*
X-115700Y-101700D01*
Y-98900D01*
X-115300Y-98500D01*
X-89900D01*
X-84100Y-104300D01*
Y-111300D01*
X-84200Y-111400D01*
X-92000D01*
X-97000Y-106400D01*
X-107100D01*
X-108500Y-105000D01*
X-110600D01*
X-111700Y-106100D01*
X-115300D01*
G37*
G36*
G01X-112200Y-74200D02*
Y-77200D01*
X-111900Y-77500D01*
X-107900D01*
X-107600Y-77200D01*
Y-73300D01*
X-108100Y-72800D01*
X-109000D01*
X-109800Y-73600D01*
X-111600D01*
X-112200Y-74200D01*
G37*
G36*
G01X-102100Y70300D02*
X-103500D01*
X-104200Y69600D01*
X-108500D01*
X-109700Y70800D01*
Y71800D01*
X-110200Y72300D01*
X-117300D01*
X-117800Y71800D01*
Y66700D01*
X-117500Y66400D01*
X-102300D01*
X-101500Y67200D01*
Y69700D01*
X-102100Y70300D01*
G37*
G36*
G01X-105000Y-14800D02*
X-98700D01*
X-98600Y-14700D01*
X-97400D01*
X-97300Y-14800D01*
Y-15900D01*
X-100000Y-18600D01*
X-103100D01*
X-105000Y-16700D01*
X-105100D01*
Y-14900D01*
X-105000Y-14800D01*
G37*
G36*
G01X-102200Y-10200D02*
Y-10800D01*
X-101800Y-11200D01*
Y-12550D01*
X-101200Y-13150D01*
X-100050D01*
X-99400Y-12500D01*
Y-11100D01*
X-99100Y-10800D01*
Y-10100D01*
X-99500Y-9700D01*
X-101700D01*
X-102200Y-10200D01*
G37*
G36*
G01X-99550Y14600D02*
Y12600D01*
X-96600Y9650D01*
X-95700Y8750D01*
X-92950D01*
X-92800Y8900D01*
Y9800D01*
X-96300Y13300D01*
Y14500D01*
X-96350Y14550D01*
X-99500D01*
X-99550Y14600D01*
G37*
G36*
G01X-46600Y-130700D02*
X-47300Y-130000D01*
X-51400D01*
X-53900Y-127500D01*
Y-125300D01*
X-66700Y-112500D01*
Y-104100D01*
X-67400Y-103400D01*
X-77100D01*
X-77600Y-103900D01*
Y-112800D01*
X-55500Y-134900D01*
X-47100D01*
X-46600Y-134400D01*
Y-130700D01*
G37*
G36*
G01X-78750Y-13900D02*
X-75850D01*
X-75700Y-14050D01*
Y-15200D01*
X-74550Y-16350D01*
X-70750D01*
X-70600Y-16200D01*
X-66800D01*
X-66150Y-16850D01*
Y-17800D01*
X-66700Y-18350D01*
X-77750D01*
X-78750Y-17350D01*
Y-13900D01*
G37*
G36*
G01X-83950Y-9950D02*
Y-16900D01*
X-83550Y-17300D01*
X-80500D01*
X-80400Y-17200D01*
Y-13950D01*
X-80450Y-13900D01*
X-81700D01*
X-82900Y-12700D01*
Y-10000D01*
X-83250Y-9650D01*
X-83650D01*
X-83950Y-9950D01*
G37*
G36*
G01X-72489Y3284D02*
X-71840D01*
G02X-71639Y3082I0J-201D01*
G01Y-208D01*
G02X-71840Y-408I-201J1D01*
G01X-73082D01*
X-73115Y-441D01*
G02X-73257Y-500I-142J142D01*
G01X-75001D01*
G02X-75143Y-441I0J201D01*
G01X-76160Y576D01*
G02X-76203Y795I143J142D01*
G01X-76180Y851D01*
X-76079Y918D01*
X-75502D01*
G03X-75360Y977I0J201D01*
G01X-75359Y979D01*
X-75193D01*
X-75177Y963D01*
G03X-74893I142J142D01*
G01X-72631Y3225D01*
G02X-72489Y3284I142J-142D01*
G37*
G36*
G01X-65600Y-11483D02*
Y-12317D01*
G02X-65659Y-12459I-201J0D01*
G01X-65941Y-12741D01*
G03X-66000Y-12883I142J-142D01*
G01Y-13817D01*
G02X-66059Y-13959I-201J0D01*
G01X-66641Y-14541D01*
G02X-66783Y-14600I-142J142D01*
G01X-67867D01*
G02X-68009Y-14541I0J201D01*
G01X-68591Y-13959D01*
G02X-68650Y-13817I142J142D01*
G01Y-12933D01*
G03X-68709Y-12791I-201J0D01*
G01X-68941Y-12559D01*
G02X-69000Y-12417I142J142D01*
G01Y-11583D01*
G02X-68941Y-11441I201J0D01*
G01X-68609Y-11109D01*
G02X-68467Y-11050I142J-142D01*
G01X-66033D01*
G02X-65891Y-11109I0J-201D01*
G01X-65659Y-11341D01*
G02X-65600Y-11483I-142J-142D01*
G37*
G36*
G01X-32900Y-131200D02*
X-39000D01*
X-40300Y-129900D01*
Y-123100D01*
X-40800Y-122600D01*
X-44400D01*
X-44600Y-122800D01*
Y-133800D01*
X-43800Y-134600D01*
X-39800D01*
X-38800Y-133600D01*
X-32900D01*
X-32800Y-133500D01*
Y-131300D01*
X-32900Y-131200D01*
G37*
G36*
G01X-17600Y-29400D02*
Y-28700D01*
X-18200Y-28100D01*
X-36800D01*
X-38100Y-26800D01*
Y-24000D01*
X-36300Y-22200D01*
X-24000D01*
X-21900Y-24300D01*
X-18300D01*
X-17500Y-25100D01*
X-15300D01*
X-15100Y-25300D01*
Y-29200D01*
X-15700Y-29800D01*
X-17200D01*
X-17600Y-29400D01*
G37*
G36*
G01X-32320Y-126868D02*
Y-124752D01*
X-32203Y-124636D01*
X-32173D01*
X-31207Y-123670D01*
G03X-31148Y-123528I-142J142D01*
G01Y-120172D01*
G03X-31207Y-120030I-201J0D01*
G01X-32130Y-119107D01*
G03X-32272Y-119048I-142J-142D01*
G01X-32320D01*
Y-116962D01*
G02X-32119Y-116762I201J-1D01*
G01X-16482D01*
G03X-16340Y-116703I0J201D01*
G01X-11507Y-111870D01*
G03X-11448Y-111728I-142J142D01*
G01Y-102874D01*
G02X-11248Y-102673I201J0D01*
G01X-10952D01*
G02X-10752Y-102874I-1J-201D01*
G01Y-122405D01*
G02X-10810Y-122548I-201J-2D01*
G01X-15273Y-127011D01*
G02X-15416Y-127070I-142J142D01*
G01X-32119D01*
G02X-32320Y-126868I0J201D01*
G37*
G36*
G01X-18100Y-41500D02*
Y-37900D01*
X-17300Y-37100D01*
Y-33500D01*
X-17600Y-33200D01*
Y-32000D01*
X-17100Y-31500D01*
X-14400D01*
X-14000Y-31900D01*
Y-41300D01*
X-14400Y-41700D01*
X-17900D01*
X-18100Y-41500D01*
G37*
G54D10*
X-160700Y-144800D03*
Y-133500D03*
Y-139100D03*
Y-122200D03*
Y-127900D03*
Y-105300D03*
Y-111000D03*
Y-116600D03*
Y-94100D03*
Y-99700D03*
X-160600Y-86400D03*
Y-79100D03*
Y-71700D03*
Y-64300D03*
Y-56900D03*
Y-49500D03*
Y-42200D03*
Y-34800D03*
Y-27400D03*
Y-20000D03*
Y-12600D03*
Y-5200D03*
Y2100D03*
Y9500D03*
Y16900D03*
Y24300D03*
Y31700D03*
Y39100D03*
Y46400D03*
Y53800D03*
Y61200D03*
Y68600D03*
Y76000D03*
Y83300D03*
Y90700D03*
Y98100D03*
Y105500D03*
Y112900D03*
Y120300D03*
Y127600D03*
Y135000D03*
X-161000Y150800D03*
X-160600Y142400D03*
X-161000Y156400D03*
X-155900Y-146100D03*
X-159400Y-148800D03*
X-152500Y-148900D03*
X-151000Y-145200D03*
X-147500Y-134400D03*
X-155100Y-142100D03*
Y-136400D03*
X-147500Y-128800D03*
Y-123200D03*
X-155100Y-130800D03*
Y-125200D03*
Y-119500D03*
X-147500Y-117500D03*
Y-111900D03*
Y-106300D03*
X-155100Y-113900D03*
Y-108300D03*
X-147500Y-100600D03*
Y-95000D03*
X-155100Y-102600D03*
Y-97000D03*
Y-91400D03*
X-152500Y-87800D03*
X-149400Y-84800D03*
X-153600Y-82100D03*
X-157800Y-88200D03*
X-150100Y-67300D03*
Y-72900D03*
Y-78600D03*
X-153600Y-74800D03*
Y-67400D03*
X-150100Y-56000D03*
Y-61700D03*
X-153600Y-60000D03*
X-150100Y-44800D03*
Y-50400D03*
X-153600Y-52600D03*
Y-45200D03*
X-150100Y-39100D03*
X-153600Y-37800D03*
Y-30500D03*
Y-23100D03*
Y-15700D03*
Y-8300D03*
X-150500Y14900D03*
X-153600Y17700D03*
X-150100Y21400D03*
Y17700D03*
X-153600Y13800D03*
Y21200D03*
Y25100D03*
Y32400D03*
X-150100Y36200D03*
Y28800D03*
Y25100D03*
Y32500D03*
X-153600Y28600D03*
Y36000D03*
Y39800D03*
Y47200D03*
X-150100Y43600D03*
Y39900D03*
Y47300D03*
X-153600Y43400D03*
Y54600D03*
Y62000D03*
X-150100Y58400D03*
Y51000D03*
Y54700D03*
Y62000D03*
X-153600Y50700D03*
Y58100D03*
Y69300D03*
X-150100Y73100D03*
Y65700D03*
Y69400D03*
X-153600Y65500D03*
Y72900D03*
Y76700D03*
Y84100D03*
X-150100Y87900D03*
Y80500D03*
Y76800D03*
Y84200D03*
X-153600Y80300D03*
Y87600D03*
Y91500D03*
Y98900D03*
X-150100Y95300D03*
Y91600D03*
Y99000D03*
X-153600Y95000D03*
Y106300D03*
X-150100Y110000D03*
Y102600D03*
Y106300D03*
X-153600Y102400D03*
Y109800D03*
Y117200D03*
X-155500Y138200D03*
X-152800Y147000D03*
X-158500D03*
X-155400Y150800D03*
X-149800D03*
X-156100Y142600D03*
X-148800D03*
X-149800Y156400D03*
X-155400D03*
X-135600Y-148900D03*
X-141200D03*
X-146800D03*
X-141000Y-139100D03*
X-136300Y-133600D03*
X-135600Y-138200D03*
X-138100Y-141200D03*
X-143700D03*
X-147300Y-137800D03*
X-144300Y-125600D03*
X-136300Y-125000D03*
X-135600Y-120200D03*
X-138700Y-127700D03*
X-138600Y-122800D03*
X-136500Y-130000D03*
X-135500Y-113200D03*
X-136900Y-110400D03*
X-136400Y-107400D03*
X-138700Y-112900D03*
X-144800Y-113000D03*
X-146800Y-114800D03*
Y-109000D03*
X-136900Y-115800D03*
X-145800Y-103900D03*
X-137300Y-104000D03*
X-138500Y-91600D03*
X-140600Y-88300D03*
X-144200Y-91600D03*
X-146700Y-82700D03*
X-134800Y-82500D03*
X-137600Y-84800D03*
X-137300Y-80100D03*
X-144900Y-80000D03*
X-135600Y-88200D03*
X-137900Y-68400D03*
X-139600Y-69200D03*
X-144900Y-77200D03*
X-145800Y-70600D03*
X-146200Y-67400D03*
Y-74800D03*
X-141100Y-74000D03*
X-139500Y-73300D03*
X-139400Y-66200D03*
X-139200Y-61500D03*
X-137600Y-64100D03*
X-137400Y-58500D03*
X-145600Y-63800D03*
X-136100Y-55000D03*
X-143300Y-55900D03*
X-145000Y-57600D03*
X-141500Y-54200D03*
X-146200Y-60000D03*
X-142100Y-51800D03*
X-141300Y-48100D03*
X-140800Y-46100D03*
Y-44200D03*
X-138700Y-45000D03*
X-142500Y-49500D03*
X-141700Y-42100D03*
X-146200Y-45200D03*
Y-52600D03*
X-139600Y-29900D03*
X-141500Y-39300D03*
X-140000Y-36800D03*
Y-34200D03*
X-146200Y-30500D03*
Y-37800D03*
X-139700Y-23300D03*
X-139300Y-16600D03*
X-140000Y-26900D03*
Y-19500D03*
X-146200Y-15700D03*
Y-23100D03*
X-135600Y-9900D03*
X-135500Y-3600D03*
X-137200Y-14500D03*
X-135500Y-12600D03*
X-135700Y-7700D03*
X-138500Y-11500D03*
Y-4200D03*
X-146200Y-8300D03*
X-135600Y3300D03*
X-135700Y10900D03*
Y7100D03*
Y-300D03*
X-138500Y10600D03*
X-142500Y14300D03*
X-146300Y18000D03*
X-142400Y21400D03*
X-142500Y18100D03*
X-135700Y18300D03*
X-138500Y14100D03*
Y21400D03*
X-135700Y21800D03*
Y14400D03*
X-138500Y18000D03*
X-146400Y21500D03*
Y14100D03*
X-146300Y25400D03*
Y32700D03*
X-142400Y36200D03*
Y28800D03*
X-142500Y25400D03*
Y32800D03*
X-135700Y33100D03*
Y25700D03*
X-138500Y28800D03*
Y36200D03*
X-135700Y36600D03*
Y29200D03*
X-138500Y25400D03*
Y32700D03*
X-146400Y36300D03*
Y28900D03*
X-146300Y40100D03*
Y47500D03*
X-142400Y43600D03*
X-142500Y40200D03*
Y47600D03*
X-135700Y47800D03*
Y40400D03*
X-138500Y43600D03*
X-135700Y44000D03*
X-138500Y40100D03*
Y47500D03*
X-146400Y43700D03*
X-146300Y54900D03*
Y62300D03*
X-142400Y58400D03*
Y51000D03*
X-142500Y55000D03*
Y62300D03*
X-135700Y55200D03*
X-138500Y51000D03*
Y58400D03*
X-135800Y62500D03*
X-135700Y58700D03*
Y51400D03*
X-138500Y54900D03*
Y62300D03*
X-146400Y58400D03*
Y51000D03*
X-146300Y69700D03*
X-142400Y73100D03*
Y65700D03*
X-142500Y69700D03*
X-138500Y65700D03*
Y73100D03*
X-135600Y69000D03*
X-134900Y71300D03*
X-135700Y73500D03*
Y66100D03*
X-138500Y69700D03*
X-146400Y73200D03*
Y65800D03*
X-146300Y77000D03*
Y84400D03*
X-142400Y87900D03*
Y80500D03*
X-142500Y77100D03*
Y84500D03*
X-138500Y80500D03*
Y87900D03*
X-135700Y84200D03*
Y76800D03*
Y88300D03*
Y80900D03*
X-138500Y77000D03*
Y84400D03*
X-146400Y88000D03*
Y80600D03*
X-146300Y91800D03*
Y99200D03*
X-142400Y95300D03*
X-142500Y91900D03*
Y99300D03*
X-138500Y95300D03*
X-135700Y99000D03*
Y91600D03*
Y95600D03*
X-138500Y91800D03*
Y99200D03*
X-146400Y95300D03*
X-139400Y110100D03*
X-142400Y110000D03*
X-146300Y106600D03*
X-142400Y102600D03*
X-142500Y106600D03*
X-138500Y102600D03*
X-135700Y106300D03*
Y110400D03*
Y103000D03*
X-138500Y106600D03*
Y113900D03*
X-146400Y110100D03*
Y102700D03*
X-138800Y120300D03*
X-135700Y125200D03*
Y117800D03*
X-146400Y117500D03*
X-138600Y138700D03*
X-135700Y132600D03*
X-135900Y147000D03*
X-141600D03*
X-147200D03*
X-144100Y150800D03*
X-138500D03*
X-141400Y142600D03*
X-138500Y156400D03*
X-144100D03*
X-124300Y-148900D03*
X-129900D03*
X-124000Y-140000D03*
X-132300Y-138300D03*
X-128900Y-138200D03*
X-126800Y-141200D03*
X-132500D03*
X-133200Y-125700D03*
X-130500Y-125500D03*
X-130100Y-122900D03*
X-133300Y-123000D03*
X-131800Y-120300D03*
X-127900Y-124900D03*
X-127800Y-120200D03*
X-130200Y-128500D03*
X-133600Y-128400D03*
X-127800Y-130000D03*
X-130500Y-110400D03*
X-133200Y-111800D03*
X-130400Y-113000D03*
X-133200Y-108500D03*
X-129600Y-108200D03*
X-131700Y-105900D03*
X-127800Y-112800D03*
X-131100Y-115800D03*
X-133900D03*
X-127900Y-110100D03*
X-127800Y-115700D03*
X-133800Y-104200D03*
X-123300Y-94500D03*
X-127200Y-91600D03*
X-132900D03*
X-123500Y-82500D03*
X-129200D03*
X-126300Y-84800D03*
X-131900D03*
X-128400Y-80100D03*
X-128200Y-88200D03*
X-128500Y-77000D03*
X-133600Y-67500D03*
Y-70300D03*
X-121900Y-62300D03*
X-123900Y-62400D03*
X-127100Y-64600D03*
X-128800Y-63800D03*
X-133700Y-63900D03*
Y-60700D03*
X-126200Y-54800D03*
X-132900D03*
X-129500D03*
X-123000Y-54500D03*
X-131200Y-61500D03*
X-123000Y-65300D03*
X-127400Y-61600D03*
X-128500Y-41000D03*
X-122800Y-44400D03*
X-124700D03*
X-126500D03*
X-128400D03*
X-130200D03*
X-132000D03*
X-133900D03*
X-128600Y-38700D03*
X-124800Y-35700D03*
X-128300Y-35800D03*
X-132900Y-35500D03*
X-124400Y-33100D03*
X-128800Y-33000D03*
X-132800Y-32900D03*
X-131300Y-28300D03*
X-130800Y-29900D03*
X-128700Y-27900D03*
X-133500Y-29800D03*
X-126900D03*
X-131500Y-25500D03*
X-133500Y-26900D03*
Y-23600D03*
X-133100Y73100D03*
X-130800Y74500D03*
X-127500Y74200D03*
X-123000Y74100D03*
X-125200Y74900D03*
X-132500Y80100D03*
Y87500D03*
X-132600Y83700D03*
Y76300D03*
X-130200Y82600D03*
X-127500Y82500D03*
X-127200Y78500D03*
Y85900D03*
X-125200Y82300D03*
X-130200Y78700D03*
Y86000D03*
X-132500Y94900D03*
X-132600Y98400D03*
Y91000D03*
X-130200Y90000D03*
Y97300D03*
X-127500D03*
Y89900D03*
X-127200Y93300D03*
Y100600D03*
X-125200Y97000D03*
Y89600D03*
X-130200Y93400D03*
Y100800D03*
X-127400Y107700D03*
X-132900Y108900D03*
X-132500Y102300D03*
X-132600Y105800D03*
X-130200Y104700D03*
X-127500Y104600D03*
X-121900Y104300D03*
X-125200Y111800D03*
Y104400D03*
X-130200Y108200D03*
X-125200Y126600D03*
Y119200D03*
X-130200Y115600D03*
Y122900D03*
X-123200Y138600D03*
X-125200Y133900D03*
X-130200Y130300D03*
Y137700D03*
X-124700Y147000D03*
X-130300D03*
X-132900Y150800D03*
X-127200D03*
X-134000Y142600D03*
X-126600D03*
X-127200Y156400D03*
X-132900D03*
X-113000Y-148900D03*
X-118700D03*
X-116100Y-137700D03*
X-109900Y-141200D03*
X-115600D03*
X-121200D03*
X-109900Y-124900D03*
X-115500D03*
X-115600Y-129600D03*
X-109900Y-120000D03*
X-115500D03*
X-109900Y-115800D03*
X-115500D03*
X-115100Y-107900D03*
X-112400D03*
X-119000Y-94400D03*
X-120100Y-97600D03*
X-116100Y-95600D03*
X-118000Y-100200D03*
X-114900Y-101100D03*
X-113300D03*
X-111700D03*
X-114900Y-99400D03*
X-113300D03*
X-111700D03*
X-116000Y-91600D03*
X-121600D03*
X-114900Y-82100D03*
X-117900Y-82500D03*
X-115000Y-84800D03*
X-120700D03*
X-113600Y-79900D03*
X-117300D03*
X-113500Y-88200D03*
X-120800D03*
X-115500Y-78600D03*
X-119500Y-74500D03*
X-110000Y-76700D03*
X-111400D03*
X-120800Y-60800D03*
X-118900Y-62300D03*
X-119100Y-59600D03*
X-110500Y-61500D03*
X-111400Y-59600D03*
X-113000Y-58100D03*
X-114800Y-56600D03*
X-116500Y-54900D03*
X-117100Y-57200D03*
X-120000Y-51200D03*
X-121600Y-49800D03*
X-121500Y-47200D03*
X-121300Y-52600D03*
X-118300Y-53000D03*
X-121300Y-41900D03*
X-121600Y-38600D03*
X-121500Y-35800D03*
X-109200Y-26500D03*
X-114800Y-21000D03*
X-111500Y-20600D03*
X-109700Y-23300D03*
X-112900D03*
X-113700Y-18700D03*
X-109900Y-18500D03*
X-117600Y-18700D03*
X-110900Y-6000D03*
X-111600Y-3200D03*
X-113600Y-5100D03*
X-117300D03*
Y-8800D03*
X-113600D03*
X-109900D03*
Y-12500D03*
X-113600D03*
X-117300D03*
X-121000D03*
X-120900Y-9500D03*
Y-5800D03*
Y-2100D03*
X-109400Y-3000D03*
X-111600Y500D03*
Y4200D03*
Y7900D03*
X-117300Y9600D03*
X-113600D03*
Y2300D03*
Y5900D03*
X-117300D03*
Y2300D03*
Y-1400D03*
X-113600D03*
X-120900Y1600D03*
Y5300D03*
Y9000D03*
X-118900Y22600D03*
X-111600Y11600D03*
Y15300D03*
Y19000D03*
Y22700D03*
X-113600Y20700D03*
X-117300D03*
Y17000D03*
X-113600D03*
Y13300D03*
X-117300D03*
X-120900Y12700D03*
Y16400D03*
Y20100D03*
Y23700D03*
X-115400Y30100D03*
Y33700D03*
X-118900Y26300D03*
Y30000D03*
X-119000Y33600D03*
X-111600Y26400D03*
Y30100D03*
Y33700D03*
X-113600Y35500D03*
X-117300D03*
Y31800D03*
X-113600D03*
Y28100D03*
X-117300D03*
Y24400D03*
X-113600D03*
X-120900Y27400D03*
Y31100D03*
Y34800D03*
X-115400Y37400D03*
X-119000Y37200D03*
X-110100Y39500D03*
X-111700Y43200D03*
X-109600Y43000D03*
X-115600Y41300D03*
X-119100Y40700D03*
X-115400Y44700D03*
X-119100Y44500D03*
X-118700Y48400D03*
X-115500Y47600D03*
X-109000Y47500D03*
X-111400Y47400D03*
X-111000Y49500D03*
X-114800Y49600D03*
X-113000D03*
X-109000Y49500D03*
X-116700D03*
X-110900Y37600D03*
Y41300D03*
Y45000D03*
X-117300Y46500D03*
X-113600D03*
Y42900D03*
X-117300D03*
Y39200D03*
X-113600D03*
X-120900Y38500D03*
Y42200D03*
Y45900D03*
Y49600D03*
X-120200Y59000D03*
X-120000Y55300D03*
Y51400D03*
X-119000Y62200D03*
X-118400Y53200D03*
Y57200D03*
Y55100D03*
X-118300Y51200D03*
X-118400Y59100D03*
X-110700Y60700D03*
X-114600D03*
X-112600D03*
X-108800Y60500D03*
X-116800Y60600D03*
X-120900Y53300D03*
Y57000D03*
Y60700D03*
X-111600Y62700D03*
X-115500Y62800D03*
X-109700Y64400D03*
X-113400D03*
X-117100D03*
X-120800D03*
X-120600Y74200D03*
X-117600D03*
X-114700Y74100D03*
X-114900Y71400D03*
Y69700D03*
Y67900D03*
X-116900Y71400D03*
Y69700D03*
Y67898D03*
X-120600Y76700D03*
X-117700D03*
X-115300Y82600D03*
X-111900D03*
X-119200D03*
X-115800Y86300D03*
X-114900Y76700D03*
X-114600Y79300D03*
X-109800Y79200D03*
X-112100Y86600D03*
Y79200D03*
X-119500D03*
Y86600D03*
X-108700Y97300D03*
X-116100D03*
X-120200Y97400D03*
X-112900D03*
X-115800Y90000D03*
X-119300Y90100D03*
X-112200Y90000D03*
X-115800Y93600D03*
Y101100D03*
X-112100Y101300D03*
Y94000D03*
X-119500D03*
Y101300D03*
X-110900Y104300D03*
X-114500D03*
X-118200D03*
X-112100Y108800D03*
X-119500D03*
X-112100Y123600D03*
Y116200D03*
X-119500D03*
Y123600D03*
X-112300Y130900D03*
X-119700D03*
X-115800Y138600D03*
X-113400Y147000D03*
X-119000D03*
X-121600Y150800D03*
X-116000D03*
X-110300D03*
X-119200Y142600D03*
X-111900D03*
X-110300Y156400D03*
X-116000D03*
X-121600D03*
X-96100Y-148900D03*
X-101800D03*
X-107400D03*
X-96600Y-137200D03*
X-107000Y-137400D03*
X-98700Y-141200D03*
X-104300D03*
X-95800Y-128400D03*
X-101500D03*
X-107100D03*
X-98600Y-124900D03*
X-104200D03*
X-98600Y-120000D03*
X-104200D03*
X-99200Y-110900D03*
X-104000D03*
X-97400Y-108400D03*
X-101700Y-108300D03*
X-107300D03*
X-106800Y-113400D03*
X-101100D03*
X-98600Y-115800D03*
X-104200D03*
X-98500Y-95100D03*
Y-89400D03*
Y-83800D03*
X-96700Y-69400D03*
X-98500Y-78200D03*
Y-72500D03*
X-96000Y-66500D03*
X-98500Y-66700D03*
X-108500Y-73600D03*
Y-75200D03*
Y-76700D03*
X-99100Y-58300D03*
X-98800Y-65000D03*
X-98700Y-62900D03*
X-100200Y-51300D03*
X-101000Y-49300D03*
X-98400Y-52900D03*
X-101400Y-46700D03*
X-105200Y-41400D03*
X-105000Y-46100D03*
X-108100Y-40900D03*
X-108200Y-43700D03*
X-97400Y-43300D03*
X-100000Y-40900D03*
X-98200Y-48800D03*
X-105100Y-37300D03*
X-106400Y-32800D03*
X-108200Y-38200D03*
X-108000Y-35700D03*
X-105000Y-29700D03*
X-108200Y-29800D03*
X-97200Y-32400D03*
X-96300Y-29100D03*
X-99900Y-38200D03*
X-100000Y-31200D03*
X-100100Y-34700D03*
X-98200Y-27100D03*
X-100400Y-25200D03*
X-102800Y-22400D03*
X-102700Y-25100D03*
X-100500Y-27400D03*
X-105100Y-22300D03*
Y-19300D03*
X-97100Y-20100D03*
X-97500Y-18200D03*
X-102500Y-17900D03*
X-100600D03*
X-101500Y-10500D03*
X-99800Y-10450D03*
X-104100Y-10000D03*
X-97100Y-9950D03*
X-106600Y-4600D03*
X-107900Y-6204D03*
X-96000Y3638D03*
X-106400Y2200D03*
X-106500Y6100D03*
X-106400Y4100D03*
X-105100Y500D03*
X-106300Y10100D03*
X-98950Y10250D03*
X-106450Y8200D03*
X-106600Y-1300D03*
X-99200Y7899D03*
X-98400Y12650D03*
X-96750D03*
X-97200Y21700D03*
X-100600Y20200D03*
X-99900Y22500D03*
X-103600Y18800D03*
Y22500D03*
X-106500Y14600D03*
Y16900D03*
Y19100D03*
Y21200D03*
Y23400D03*
X-104650Y13600D03*
X-105800Y12000D03*
X-103200Y14950D03*
X-100950Y16050D03*
X-99800Y18050D03*
X-96400Y19400D03*
X-97700Y18000D03*
X-102000Y33400D03*
X-101800Y29700D03*
X-99100Y27900D03*
X-102000D03*
X-104500D03*
X-97500Y30100D03*
X-99100Y31800D03*
X-101600Y31700D03*
X-104700D03*
X-97300Y33700D03*
X-99000Y35500D03*
X-101400Y35400D03*
X-97200Y24600D03*
Y28300D03*
Y32000D03*
Y35700D03*
X-99900Y33600D03*
Y29900D03*
Y26200D03*
X-103600D03*
Y29900D03*
Y33600D03*
X-106500Y25600D03*
Y27900D03*
Y30200D03*
Y32300D03*
X-105100Y35700D03*
X-106400Y34400D03*
X-97800Y37400D03*
X-106700Y48300D03*
X-104600Y47700D03*
X-105500Y45400D03*
X-108000D03*
X-103300D03*
X-99900Y37200D03*
X-103700Y37100D03*
X-102400Y38300D03*
X-100700Y40100D03*
X-98400D03*
X-96700Y38800D03*
X-107431Y39431D03*
X-105500Y54000D03*
X-105400Y56400D03*
X-106400Y61400D03*
X-107300Y52900D03*
X-107400Y57300D03*
Y55400D03*
Y51000D03*
Y59400D03*
X-104600Y60700D03*
X-104700Y58700D03*
X-103400Y55400D03*
X-103600Y57200D03*
X-103500Y53500D03*
X-104700Y49900D03*
Y51800D03*
X-108100Y62700D03*
X-107200Y64600D03*
X-104700Y62800D03*
X-104900Y64800D03*
X-102400Y64700D03*
X-103800Y73300D03*
X-106200Y73400D03*
X-108300D03*
X-101800Y74000D03*
X-102100Y71700D03*
X-107900Y82600D03*
X-104500D03*
X-108000Y86200D03*
X-104800Y76400D03*
X-107800Y76000D03*
X-107500Y78700D03*
X-102200Y76200D03*
X-101800Y78700D03*
Y81200D03*
X-101700Y83600D03*
Y85900D03*
X-96000Y83000D03*
X-96100Y80600D03*
X-95800Y85300D03*
X-101000Y88000D03*
X-104700Y79200D03*
Y86600D03*
X-105500Y97400D03*
X-108400Y90000D03*
X-104800D03*
X-108000Y93600D03*
Y101000D03*
X-102700Y95900D03*
Y99600D03*
X-100400Y97800D03*
X-101200Y90100D03*
Y92200D03*
X-96800Y97900D03*
X-98700Y96300D03*
X-100300Y94400D03*
X-96600Y91000D03*
X-97300Y101300D03*
X-104700Y94000D03*
Y101300D03*
X-100400Y101500D03*
X-96100Y104300D03*
X-99800D03*
X-103500D03*
X-107200D03*
X-97300Y108800D03*
X-104700D03*
Y116200D03*
X-97300D03*
Y123600D03*
X-104700D03*
X-104900Y130900D03*
X-101100Y138600D03*
X-108500D03*
X-98000Y146300D03*
X-102100Y147000D03*
X-107800D03*
X-104700Y150800D03*
X-104500Y142600D03*
X-97100D03*
X-104700Y156400D03*
X-84900Y-148900D03*
X-90500D03*
X-86700Y-137400D03*
X-87400Y-141200D03*
X-93000D03*
X-84600Y-128400D03*
X-90200D03*
X-87300Y-124900D03*
X-93000D03*
X-87300Y-120000D03*
X-93000D03*
X-95500Y-110700D03*
Y-113400D03*
X-89900D03*
X-85000Y-113300D03*
X-87300Y-115800D03*
X-93000D03*
X-94600Y-92600D03*
X-84800Y-97300D03*
X-85500Y-99400D03*
X-89100Y-96200D03*
X-94700D03*
X-94500Y-89000D03*
Y-83300D03*
X-90400Y-80400D03*
Y-86100D03*
Y-91700D03*
X-84800D03*
Y-86100D03*
Y-80400D03*
X-94500Y-77700D03*
Y-72100D03*
X-90400Y-74800D03*
X-84800D03*
X-91900Y-69800D03*
X-87900Y-72400D03*
X-83600Y-68400D03*
X-86100Y-68200D03*
X-87700Y-66800D03*
X-94000Y-66600D03*
X-86400Y-60600D03*
X-83000Y-60700D03*
X-89900D03*
X-90700Y-64300D03*
X-92200Y-62500D03*
X-94000Y-53600D03*
X-84600Y-52700D03*
X-85000Y-47700D03*
X-87400Y-50000D03*
X-94000Y-51200D03*
X-92000Y-43500D03*
X-94200Y-43300D03*
X-89800Y-44800D03*
X-91900Y-46400D03*
X-95200Y-45500D03*
X-93800Y-48400D03*
X-88100Y-42700D03*
X-87501Y-52599D03*
X-88300Y-38700D03*
X-94500Y-30700D03*
X-88100Y-30000D03*
X-84600Y-32700D03*
X-87700Y-21100D03*
X-85900Y-22800D03*
X-94400Y-23600D03*
X-91300Y-26700D03*
X-83900Y-20900D03*
X-85800Y-20250D03*
X-87350Y-18900D03*
X-89550D03*
X-95257Y-18057D03*
X-93800Y-19600D03*
X-92300Y-18100D03*
X-89500Y-13400D03*
X-85850Y-6050D03*
X-90700Y-6100D03*
X-85850Y-3600D03*
X-90700D03*
X-83550D03*
X-88350D03*
X-93200D03*
X-88350Y-6100D03*
X-83550D03*
X-93150D03*
X-84850Y5350D03*
X-91400Y5400D03*
X-93750D03*
X-85850Y-1250D03*
X-90750D03*
X-85850Y1100D03*
X-90800D03*
X-85850Y3550D03*
X-90800D03*
X-83550Y1100D03*
X-88350D03*
X-93200D03*
X-88350Y-1250D03*
Y3500D03*
X-83550Y-1250D03*
X-93200D03*
X-83550Y3500D03*
X-93200D03*
X-92700Y23200D03*
X-93646Y21932D03*
X-83600Y18800D03*
X-95050Y20650D03*
X-82900Y16500D03*
X-95400Y35100D03*
X-92900Y34500D03*
X-92800Y36300D03*
X-94500Y33400D03*
X-92800Y32600D03*
X-95000Y27200D03*
Y29400D03*
X-94900Y31200D03*
X-94400Y25000D03*
X-92700Y24700D03*
X-85100Y34700D03*
X-84100Y27700D03*
X-84200Y30300D03*
X-82900Y32600D03*
X-83000Y35100D03*
X-87300Y35500D03*
X-87200Y33700D03*
X-85800Y32000D03*
Y25800D03*
X-87300Y28800D03*
X-87200Y30400D03*
Y27200D03*
X-83800Y23900D03*
X-85900D03*
X-88600Y48400D03*
X-94900Y37100D03*
X-94800Y40100D03*
X-92800Y38200D03*
Y40300D03*
X-85100Y40000D03*
Y37500D03*
X-83000D03*
Y40100D03*
Y42600D03*
X-84200Y43900D03*
X-82900Y45200D03*
X-85600Y42500D03*
X-87300Y39300D03*
Y37400D03*
X-87400Y41300D03*
X-83600Y49600D03*
X-85300Y48200D03*
X-86900Y46700D03*
X-89000Y45900D03*
X-90600Y48000D03*
X-93100Y47800D03*
X-88900Y62000D03*
X-91200Y61800D03*
X-88500Y58600D03*
X-91200Y58000D03*
X-89200Y54700D03*
X-92000Y52700D03*
X-92100Y55000D03*
X-88600Y51500D03*
X-90600Y50500D03*
X-84700Y61700D03*
X-85600Y59000D03*
Y55400D03*
Y51700D03*
X-87300Y60900D03*
Y57200D03*
Y53500D03*
Y49800D03*
X-90300Y52600D03*
Y56300D03*
Y60000D03*
X-83300Y57900D03*
X-83000Y60300D03*
X-83400Y51700D03*
X-83600Y53700D03*
Y55800D03*
X-93000Y50500D03*
X-94400Y54700D03*
X-93900Y53000D03*
Y56400D03*
X-93100Y60800D03*
X-93200Y58500D03*
X-83700Y72500D03*
X-87400D03*
X-91000D03*
X-83700Y68800D03*
X-87400D03*
X-91000D03*
X-90500Y65600D03*
X-92600Y65100D03*
X-88000Y64300D03*
X-86100Y64000D03*
X-90300Y63700D03*
X-83100Y62700D03*
Y64900D03*
X-93000Y63300D03*
X-92700Y67000D03*
X-89000D03*
X-85300D03*
Y70700D03*
Y74300D03*
X-89000D03*
Y70700D03*
X-92700D03*
Y74300D03*
X-95100Y64400D03*
X-94500Y66200D03*
X-95500Y69900D03*
X-95700Y67900D03*
X-95400Y72000D03*
X-95500Y74500D03*
X-83400Y79900D03*
X-87100D03*
X-90800D03*
X-83500Y76100D03*
X-87200D03*
X-90900D03*
X-92700Y78000D03*
X-89000D03*
X-85300D03*
Y81700D03*
X-89000D03*
X-92700D03*
X-95300Y76900D03*
X-94600Y78900D03*
X-84100Y84700D03*
X-94000Y85600D03*
X-92000D03*
X-90000Y84700D03*
X-87900D03*
X-85900Y85400D03*
X-91400Y98600D03*
X-94300D03*
X-95300Y92600D03*
X-94000Y91200D03*
X-91400D03*
X-89200Y92100D03*
X-85900Y91500D03*
X-83100Y98500D03*
X-88700Y98400D03*
Y100300D03*
X-93300Y95100D03*
X-93900Y101600D03*
X-91200D03*
X-92400Y104300D03*
X-83000Y101500D03*
X-82900Y104100D03*
X-88700Y102700D03*
Y105000D03*
Y107400D03*
X-89000Y109900D03*
Y112100D03*
X-89900Y114000D03*
Y116300D03*
Y118600D03*
X-89600Y122500D03*
Y124700D03*
Y120600D03*
X-91700Y117700D03*
X-93900Y118800D03*
Y120700D03*
Y124700D03*
Y126900D03*
X-94300Y122600D03*
X-89700Y126600D03*
X-94900Y139700D03*
X-88700Y128100D03*
X-83100D03*
Y129700D03*
Y132500D03*
Y135300D03*
Y138100D03*
X-88700Y129700D03*
Y132500D03*
Y135300D03*
Y138100D03*
X-91600Y127805D03*
X-86000Y151800D03*
X-90100Y149800D03*
X-93100Y146300D03*
X-90900Y140300D03*
X-89400Y147100D03*
X-91100Y144000D03*
X-86200Y148300D03*
X-89500Y153300D03*
X-85900Y156200D03*
X-91100Y156500D03*
X-73600Y-148900D03*
X-79200D03*
X-76700Y-137200D03*
X-70500Y-141200D03*
X-76100D03*
X-81800D03*
X-72200Y-125000D03*
X-73300Y-128400D03*
X-78900D03*
X-76100Y-124900D03*
X-81700D03*
X-72100Y-121300D03*
X-76100Y-120000D03*
X-81700D03*
X-79600Y-107800D03*
X-81900Y-106600D03*
X-81800Y-109900D03*
X-76900Y-116700D03*
X-81800Y-117000D03*
X-79400Y-114600D03*
X-79200Y-97300D03*
X-73500D03*
X-73800Y-92800D03*
X-77900Y-101500D03*
X-73200Y-101400D03*
X-79700Y-104500D03*
X-82600Y-102900D03*
X-79200Y-80400D03*
Y-86100D03*
Y-91700D03*
X-73800Y-87100D03*
Y-81500D03*
X-79200Y-74800D03*
X-73800Y-75900D03*
X-82200Y-72400D03*
X-76600D03*
X-71000D03*
X-74000Y-68600D03*
X-70500Y-68500D03*
X-77900D03*
X-80950Y-66850D03*
X-72700Y-62000D03*
Y-64600D03*
X-72600Y-59400D03*
X-81919Y-55519D03*
X-72400Y-52800D03*
X-70800Y-47200D03*
X-80400Y-52700D03*
X-76100D03*
X-70800Y-43000D03*
X-78400Y-45700D03*
X-78200Y-48500D03*
X-82100Y-48600D03*
X-81600Y-44800D03*
X-75600Y-47500D03*
X-75700Y-43200D03*
X-79600Y-43000D03*
X-70800Y-31800D03*
X-80000Y-33000D03*
X-76100Y-32800D03*
X-70400Y-23800D03*
X-76700Y-24000D03*
X-80400D03*
X-74600Y-27000D03*
X-78200D03*
X-82000D03*
X-79500Y-20900D03*
X-81600D03*
X-77200Y-20500D03*
X-75100Y-19900D03*
X-71200Y-19800D03*
X-73299Y-22499D03*
X-76500Y-4700D03*
X-78200Y-11500D03*
X-71400Y-8500D03*
X-75300Y-7800D03*
X-75100Y-9800D03*
X-70850Y-12300D03*
X-81750Y-4250D03*
X-73299Y-3599D03*
X-74250Y350D03*
X-72500Y2200D03*
X-72600Y600D03*
X-71480Y9921D03*
X-73050Y8850D03*
X-74450Y7850D03*
X-75750Y6650D03*
X-79500Y9150D03*
X-81600Y-1800D03*
X-81650Y2850D03*
Y450D03*
X-81800Y5300D03*
X-72119Y19119D03*
X-81900Y18800D03*
X-76400Y18900D03*
X-70400Y21100D03*
X-70135Y11264D03*
X-73114Y11700D03*
X-82000Y26300D03*
X-81900Y28900D03*
Y31000D03*
X-81800Y23900D03*
X-74300Y29100D03*
X-74900Y26500D03*
X-75100Y24400D03*
Y31400D03*
X-76300Y29900D03*
Y28100D03*
X-74000Y32900D03*
Y35400D03*
X-75681Y43419D03*
X-74000Y37900D03*
X-75900Y39800D03*
X-77500Y41100D03*
X-70500Y42300D03*
X-71300Y44400D03*
X-71000Y46500D03*
X-73100D03*
X-75600Y47500D03*
X-70200Y53000D03*
X-70300Y55500D03*
X-70200Y50900D03*
X-72100Y56500D03*
X-74600Y56400D03*
X-71000Y58200D03*
X-73600D03*
X-76700Y56800D03*
X-79100Y57200D03*
X-80700Y58800D03*
X-75900Y59200D03*
X-78100D03*
X-81600Y68900D03*
X-78600Y66700D03*
X-77900Y70400D03*
X-70000Y69100D03*
Y72800D03*
X-79100Y68500D03*
Y72200D03*
X-81600Y67000D03*
Y70700D03*
Y74300D03*
X-75600Y67700D03*
X-75700Y71600D03*
Y69700D03*
X-76500Y66000D03*
X-75600Y73700D03*
X-70900Y84700D03*
X-71100Y82400D03*
X-71200Y87200D03*
X-79100Y75900D03*
Y79600D03*
Y83300D03*
X-81600Y78000D03*
Y81700D03*
X-76900Y75700D03*
Y78100D03*
Y80500D03*
X-76800Y83100D03*
X-77300Y85500D03*
X-80000Y85600D03*
X-82000Y84700D03*
X-81100Y100700D03*
X-76200Y99400D03*
X-71800Y98600D03*
X-71700Y95400D03*
X-72400Y92400D03*
X-74200Y94200D03*
X-72600Y89700D03*
X-74900Y91100D03*
X-82400Y92100D03*
X-78400Y92800D03*
X-80000Y91033D03*
X-76100Y93800D03*
X-77400Y91200D03*
X-75800Y95800D03*
X-78000Y97800D03*
X-80400Y98700D03*
X-74400Y97900D03*
X-78700Y95100D03*
X-72600Y103400D03*
X-80600D03*
X-76400Y103100D03*
X-70900Y101700D03*
Y105400D03*
X-78900Y101700D03*
Y105400D03*
X-74200Y101600D03*
X-82800Y107000D03*
X-82500Y109200D03*
X-80100Y110100D03*
X-80300Y112200D03*
X-81600Y113800D03*
X-74400Y105500D03*
Y112900D03*
X-81800Y115700D03*
X-78000Y122500D03*
Y124700D03*
Y120400D03*
X-77600Y118300D03*
X-79600Y117700D03*
X-81800Y117800D03*
X-78000Y126800D03*
X-82200Y122500D03*
Y124700D03*
X-82100Y120600D03*
X-74400Y120300D03*
X-73500Y126600D03*
X-82300D03*
X-71000Y139900D03*
X-77800Y140000D03*
X-80300Y128200D03*
X-81600Y149400D03*
X-71400Y146100D03*
X-78100Y146000D03*
X-70200Y150700D03*
X-81100Y140100D03*
X-82400Y147100D03*
X-80500Y143600D03*
X-74400Y142600D03*
X-82600Y153300D03*
X-80900Y156400D03*
X-70200D03*
X-62300Y-148900D03*
X-68000D03*
X-57400Y-145600D03*
X-62300Y-139100D03*
X-62700Y-135200D03*
X-66000Y-133000D03*
X-66500Y-137000D03*
X-62300Y-131300D03*
X-59100Y-134100D03*
X-64900Y-141200D03*
X-57292Y-143892D03*
X-68700Y-128600D03*
Y-124900D03*
X-65300Y-127900D03*
X-57400Y-108100D03*
Y-113800D03*
X-64600Y-107000D03*
X-64800Y-111600D03*
X-61100Y-115700D03*
Y-110500D03*
X-57400Y-96900D03*
Y-102500D03*
X-63500Y-102700D03*
X-63800Y-98900D03*
X-66600Y-101600D03*
X-61100Y-104900D03*
Y-99300D03*
Y-93600D03*
X-69300Y-92900D03*
X-69400Y-97600D03*
X-65300Y-93700D03*
X-57400Y-80000D03*
Y-85600D03*
Y-91200D03*
X-61100Y-88000D03*
Y-82400D03*
X-69300Y-87300D03*
Y-81700D03*
X-65300Y-82400D03*
Y-88000D03*
X-57400Y-74300D03*
X-61100Y-76700D03*
X-58200Y-68100D03*
X-61100Y-71000D03*
X-69300Y-76000D03*
X-62600Y-66700D03*
X-66100Y-68500D03*
X-65300Y-72400D03*
Y-76700D03*
X-68000Y-70200D03*
X-61900Y-64400D03*
X-68300Y-61000D03*
X-69700Y-59500D03*
X-66600D03*
X-62000Y-59100D03*
X-62819Y-56519D03*
X-59900Y-42700D03*
X-67300Y-46500D03*
X-65100Y-53100D03*
X-68700Y-52900D03*
X-62900Y-46500D03*
X-60000Y-49600D03*
X-65800Y-43100D03*
X-58200Y-34000D03*
X-61100Y-30800D03*
X-68400Y-34600D03*
X-66600Y-32000D03*
X-59600Y-20300D03*
X-57900Y-15000D03*
X-59400Y-23800D03*
X-63100D03*
X-66800D03*
X-69350Y-19850D03*
X-67550Y-19900D03*
X-61300Y-17250D03*
X-61500Y-15050D03*
X-62550Y-19000D03*
X-64300Y-17150D03*
X-64950Y-19200D03*
X-69850Y-9950D03*
X-69500Y-7450D03*
X-64500Y-14600D03*
X-63000Y-13050D03*
X-61550Y-11450D03*
X-60000Y-9850D03*
X-58550Y-8100D03*
X-58250Y-5900D03*
X-58350Y-3800D03*
X-67750Y-9050D03*
X-66100Y-7700D03*
X-65550Y-5800D03*
X-67800Y-5750D03*
X-63600Y-4750D03*
X-63500Y-2950D03*
X-66400Y-11850D03*
X-68200D03*
X-58300Y-1650D03*
X-58350Y500D03*
X-58300Y2750D03*
Y5000D03*
X-58350Y7150D03*
X-58400Y9250D03*
X-63450Y-1050D03*
X-63600Y800D03*
Y2700D03*
X-63900Y4500D03*
Y6400D03*
X-63950Y8200D03*
X-65350Y9500D03*
X-62300Y19700D03*
X-58600Y20000D03*
X-66000D03*
X-63000Y15400D03*
X-64900Y16200D03*
X-67100D03*
X-69700Y18500D03*
X-69500Y16000D03*
X-68800Y22500D03*
X-59600Y16700D03*
X-59200Y11200D03*
X-66350Y11150D03*
X-68150Y11200D03*
X-61900Y14050D03*
X-60700Y12650D03*
X-63200Y24300D03*
X-65600Y33600D03*
X-65400Y36200D03*
X-65800Y28300D03*
X-63300Y28000D03*
Y30600D03*
Y34300D03*
X-59500Y27700D03*
Y35100D03*
X-67900Y26400D03*
Y29300D03*
X-68000Y34100D03*
X-67900Y36700D03*
X-59600Y24100D03*
X-67000D03*
Y31400D03*
X-59600D03*
X-64900Y47200D03*
X-65000Y44200D03*
X-69000Y44300D03*
X-65200Y40200D03*
X-63300Y38000D03*
Y41700D03*
Y45400D03*
Y49100D03*
X-59500Y42500D03*
X-66900D03*
X-68900Y40800D03*
X-69000Y46900D03*
X-66800Y48700D03*
X-59600Y38800D03*
X-67000D03*
Y46200D03*
X-59600D03*
X-65300Y59000D03*
Y55500D03*
X-65600Y51000D03*
X-63400Y54000D03*
Y57200D03*
Y60900D03*
X-63700Y51600D03*
X-59500Y49900D03*
Y57300D03*
X-66900D03*
X-67700Y50900D03*
X-69300Y59800D03*
X-69600Y62100D03*
X-59600Y53600D03*
X-67000D03*
Y61000D03*
X-59600D03*
X-65400Y73600D03*
X-65100Y70200D03*
X-67400Y70800D03*
X-65300Y66400D03*
Y62700D03*
X-63400Y64600D03*
Y68300D03*
Y72000D03*
X-66900Y64700D03*
X-59500D03*
Y72000D03*
X-69700Y64500D03*
X-69900Y71000D03*
Y67200D03*
X-67900Y73700D03*
X-59600Y68300D03*
X-67000D03*
X-68500Y84900D03*
X-65200Y85100D03*
Y81400D03*
Y77800D03*
X-63400Y75700D03*
Y79400D03*
Y83100D03*
Y86800D03*
X-59500Y79400D03*
Y86800D03*
X-66900D03*
X-67400Y77600D03*
X-67200Y79700D03*
X-68600Y81700D03*
X-67000Y75700D03*
X-59600D03*
Y83100D03*
X-67000D03*
X-69900Y99900D03*
X-69200Y97000D03*
X-69400Y94000D03*
X-65200Y92200D03*
X-69900Y91200D03*
X-68800Y88600D03*
X-63400Y90500D03*
Y94100D03*
Y97800D03*
X-66900Y94200D03*
X-59500D03*
X-67000Y90500D03*
X-59600D03*
Y97900D03*
X-67000D03*
X-68900Y103300D03*
X-63400Y101500D03*
Y105200D03*
X-59500Y101600D03*
X-66900D03*
X-59600Y105500D03*
Y112900D03*
X-67000D03*
Y105500D03*
X-59600Y120300D03*
X-67000D03*
X-59600Y127600D03*
X-67000D03*
X-59600Y135100D03*
X-67000D03*
X-67400Y146500D03*
X-61800D03*
X-58900Y150700D03*
X-64600D03*
X-67000Y142600D03*
X-59600D03*
X-64600Y156400D03*
X-58900D03*
X-45400Y-148900D03*
X-51100D03*
X-56700D03*
X-46400Y-139000D03*
X-50100Y-138800D03*
X-44300Y-136400D03*
X-48900Y-136600D03*
X-48400Y-141200D03*
X-52200Y-141100D03*
Y-136500D03*
X-47100Y-123400D03*
X-56800Y-119500D03*
X-53800Y-122500D03*
X-51000Y-131000D03*
X-50350Y-122000D03*
X-47000Y-116600D03*
X-46700Y-110400D03*
Y-113500D03*
X-46800Y-107300D03*
X-54100Y-105300D03*
Y-111000D03*
Y-116600D03*
X-50350Y-114000D03*
X-45300Y-104500D03*
X-47800Y-93900D03*
X-44400Y-92900D03*
X-49500Y-96000D03*
X-47700Y-99000D03*
X-50700Y-102400D03*
X-52900Y-101000D03*
Y-95400D03*
X-49700Y-91100D03*
X-45600Y-90100D03*
X-52900Y-89800D03*
Y-84100D03*
X-49700Y-81900D03*
Y-84100D03*
X-47881Y-87581D03*
X-52900Y-78500D03*
Y-72900D03*
X-47200Y-69400D03*
X-47300Y-74200D03*
X-55800Y-70100D03*
X-52400Y-66700D03*
X-46700Y-76900D03*
X-46900Y-59400D03*
X-47000Y-64000D03*
X-46800Y-55300D03*
X-54400Y-66400D03*
X-54100Y-64200D03*
X-56300Y-64500D03*
Y-60100D03*
X-55600Y-55100D03*
X-53460Y-56460D03*
X-48900Y-49000D03*
X-49100Y-44600D03*
X-53800Y-44500D03*
X-52900Y-50100D03*
X-56600Y-46400D03*
X-46000Y-44600D03*
X-44800Y-49300D03*
X-46200Y-40500D03*
Y-34200D03*
X-51200Y-31000D03*
X-56300D03*
X-48100Y-30700D03*
X-49100Y-20400D03*
X-55600Y-18500D03*
X-53400Y-16300D03*
X-49500Y-16700D03*
X-48300Y-23800D03*
X-52000D03*
X-55700D03*
X-52300Y-20200D03*
X-44800Y-20100D03*
X-55600Y-9200D03*
X-49600Y-8800D03*
X-52300Y-12900D03*
Y-5500D03*
X-44800Y-12700D03*
Y-5300D03*
X-55600Y5500D03*
Y-1900D03*
X-49600Y-1400D03*
Y6000D03*
X-52300Y1900D03*
Y9300D03*
X-44800Y2100D03*
Y9400D03*
X-55500Y18100D03*
X-55600Y12900D03*
X-49600Y13400D03*
X-51300Y20000D03*
X-48100Y23600D03*
X-52300Y16700D03*
X-44800Y16800D03*
X-55400Y24200D03*
X-55700Y35200D03*
Y31500D03*
Y27800D03*
X-48300Y27900D03*
Y31600D03*
Y35300D03*
X-52100Y27700D03*
Y35100D03*
X-52300Y24100D03*
Y31400D03*
X-44800Y24200D03*
Y31600D03*
X-55700Y46300D03*
Y42600D03*
Y38900D03*
X-48300Y39000D03*
Y42700D03*
Y46400D03*
X-52100Y42500D03*
X-52300Y38800D03*
Y46200D03*
X-44800Y39000D03*
Y46400D03*
X-55700Y61000D03*
Y57400D03*
Y53700D03*
Y50000D03*
X-48300D03*
Y53700D03*
Y57400D03*
Y61100D03*
X-52100Y49900D03*
Y57300D03*
X-52300Y53600D03*
Y61000D03*
X-44800Y53700D03*
Y61100D03*
X-55700Y72100D03*
Y68400D03*
Y64700D03*
X-48300Y64800D03*
Y68500D03*
Y72200D03*
X-52100Y64700D03*
Y72000D03*
X-52300Y68300D03*
X-44800Y68500D03*
X-55700Y86900D03*
Y83200D03*
Y79500D03*
Y75800D03*
X-48300Y75900D03*
Y79600D03*
Y83300D03*
Y87000D03*
X-52100Y79400D03*
Y86800D03*
X-52300Y75700D03*
Y83100D03*
X-44800Y75900D03*
Y83300D03*
X-55700Y98000D03*
Y94300D03*
Y90600D03*
X-48300D03*
Y94300D03*
Y98000D03*
X-52100Y94200D03*
X-52300Y90500D03*
Y97900D03*
X-44800Y90600D03*
Y98000D03*
X-48300Y101700D03*
Y105400D03*
X-55600Y101500D03*
Y105200D03*
X-52100Y101600D03*
X-44900Y105500D03*
Y112900D03*
X-52300D03*
Y105500D03*
X-44900Y120300D03*
X-52300D03*
X-44900Y127600D03*
X-52300D03*
X-44900Y135100D03*
X-52300D03*
X-56200Y146500D03*
X-50500D03*
X-44900D03*
X-47700Y150700D03*
X-53300D03*
X-52300Y142600D03*
X-44900D03*
X-53300Y156400D03*
X-47700D03*
X-34200Y-148900D03*
X-39800D03*
X-42300Y-139000D03*
X-44000Y-141600D03*
X-41000Y-141300D03*
Y-136800D03*
X-39200Y-139700D03*
X-37600Y-141400D03*
X-37300Y-138400D03*
X-38700Y-136300D03*
X-37949Y-132349D03*
X-31800Y-108600D03*
X-41100Y-110900D03*
X-37400Y-108000D03*
X-39500Y-107400D03*
X-38200Y-105600D03*
X-38900Y-109800D03*
X-41300Y-108700D03*
X-41400Y-113000D03*
X-37949Y-113451D03*
X-34800Y-102600D03*
X-40300Y-99700D03*
X-42500Y-101900D03*
X-38000Y-97300D03*
X-35900Y-96000D03*
X-33600Y-95000D03*
X-41700Y-93600D03*
X-44100Y-95900D03*
X-42300Y-91300D03*
X-36000Y-83000D03*
X-33400Y-82900D03*
X-38700D03*
X-36000Y-85600D03*
X-33400D03*
X-38700D03*
X-36000Y-80300D03*
X-33400D03*
X-38700D03*
X-39700Y-91700D03*
X-33055Y-91290D03*
X-35025D03*
X-34300Y-73100D03*
X-33000Y-74700D03*
X-36700Y-73200D03*
X-42400D03*
X-40100Y-67300D03*
X-31500Y-69000D03*
X-37200D03*
X-42800D03*
X-33300Y-64200D03*
X-33100Y-56500D03*
X-38000Y-59200D03*
X-42300Y-60300D03*
X-34100Y-51600D03*
X-41600Y-50700D03*
X-39500Y-53200D03*
X-35700Y-48500D03*
X-39300Y-46300D03*
X-34600Y-43200D03*
X-32100Y-44600D03*
X-37000D03*
X-39300Y-41500D03*
X-31800Y-41200D03*
X-36600D03*
X-42300Y-44200D03*
X-39400Y-31400D03*
X-31500Y-30500D03*
X-40900Y-39400D03*
X-40700Y-34600D03*
X-36200Y-30600D03*
X-41100Y-29800D03*
X-41300Y-27300D03*
X-40000Y-21600D03*
X-33400Y-19900D03*
X-41100Y-24300D03*
X-37400Y-20100D03*
Y-5300D03*
Y-12700D03*
X-32300Y-900D03*
X-33000Y6500D03*
X-37400Y9400D03*
Y2100D03*
Y16800D03*
Y31600D03*
Y24200D03*
Y46400D03*
Y39000D03*
Y61100D03*
Y53700D03*
Y68500D03*
Y83300D03*
Y75900D03*
Y98000D03*
Y90600D03*
X-37500Y112900D03*
Y105500D03*
Y120300D03*
Y127600D03*
Y135100D03*
X-39300Y146500D03*
X-33600D03*
X-36400Y150700D03*
X-42000D03*
X-37500Y142600D03*
X-42000Y156400D03*
X-36400D03*
X-22000Y-145800D03*
X-22900Y-148900D03*
X-28500D03*
X-19800Y-143300D03*
X-20700Y-134300D03*
Y-138100D03*
X-28300Y-132000D03*
X-28200Y-137600D03*
X-20800Y-129900D03*
X-20700Y-122100D03*
X-20900Y-126100D03*
X-30600Y-130300D03*
X-28600Y-123300D03*
Y-120600D03*
X-30900Y-125600D03*
X-20800Y-118100D03*
X-30500Y-118000D03*
X-20600Y-111000D03*
X-20400Y-108000D03*
X-20700Y-114100D03*
X-28100Y-110200D03*
X-28300Y-107800D03*
Y-113800D03*
X-25800Y-99500D03*
X-29100Y-99700D03*
X-31200Y-102600D03*
X-28100Y-102800D03*
X-23100Y-97400D03*
X-20200Y-95000D03*
X-22300Y-95300D03*
X-20100Y-92900D03*
X-25200Y-96200D03*
X-27300Y-97000D03*
X-24400Y-94100D03*
X-18400Y-90600D03*
X-28400Y-90700D03*
X-20300Y-82300D03*
X-20900Y-86700D03*
X-21100Y-79700D03*
X-29215Y-88600D03*
X-23700Y-76300D03*
X-27700Y-75500D03*
X-20300Y-76900D03*
X-27400Y-78200D03*
X-21600Y-73500D03*
X-25500Y-73200D03*
X-31100D03*
X-26000Y-69100D03*
X-20900Y-67200D03*
X-25200Y-66800D03*
X-19600Y-56400D03*
X-25400Y-60300D03*
X-22700D03*
X-29100Y-60000D03*
X-30000Y-63500D03*
X-29600Y-57600D03*
X-20007Y-53607D03*
X-22800Y-51600D03*
X-28500D03*
X-21000Y-48500D03*
X-28300D03*
X-22500Y-44800D03*
X-28600Y-44600D03*
X-19000Y-44700D03*
X-25300Y-45000D03*
X-23200Y-41500D03*
X-27200D03*
X-22700Y-31100D03*
X-27100Y-30900D03*
X-19800Y-30000D03*
X-20000Y-32800D03*
X-22100Y-34500D03*
X-22200Y-37800D03*
X-26000Y-20000D03*
X-18700Y-20100D03*
X-30000D03*
X-22600D03*
X-25400Y-8000D03*
X-20400Y-8400D03*
X-22600Y-12700D03*
X-30000D03*
Y-5300D03*
X-28300Y12800D03*
X-30000Y16800D03*
X-22600D03*
X-30000Y24200D03*
Y31600D03*
X-22600D03*
Y24200D03*
X-30000Y39000D03*
Y46400D03*
X-22600D03*
Y39000D03*
X-30000Y53700D03*
Y61100D03*
X-22600D03*
Y53700D03*
X-30000Y68500D03*
X-22600D03*
X-30000Y75900D03*
Y83300D03*
X-22600D03*
Y75900D03*
X-30000Y90600D03*
Y98000D03*
X-22600D03*
Y90600D03*
X-22700Y112900D03*
Y105500D03*
X-30100D03*
Y112900D03*
Y120300D03*
X-30700Y136500D03*
X-28000Y146500D03*
X-22400D03*
X-19500Y150700D03*
X-25100D03*
X-30800D03*
X-30100Y142600D03*
X-22700D03*
X-30800Y156400D03*
X-25100D03*
X-19500D03*
X-14700Y-146100D03*
X-18000D03*
X-10500Y-146000D03*
X-8200Y-148900D03*
X-11600D03*
X-17300D03*
X-11200Y-143100D03*
X-14300Y-143200D03*
X-11900Y-134900D03*
X-11700Y-131700D03*
X-15600Y-133600D03*
X-16300Y-136700D03*
X-12000Y-138400D03*
X-8200Y-132000D03*
Y-137600D03*
Y-143200D03*
X-11500Y-127700D03*
X-15700Y-130100D03*
X-17800Y-123600D03*
X-15200Y-121700D03*
X-17600Y-119600D03*
X-12200Y-118600D03*
X-12000Y-122100D03*
X-15800Y-126000D03*
X-8200Y-120700D03*
Y-126300D03*
X-15600Y-117600D03*
X-12000Y-114100D03*
X-17600Y-111500D03*
X-16900Y-109100D03*
X-17300Y-114200D03*
X-14100Y-110700D03*
X-8200Y-109400D03*
Y-115100D03*
X-14700Y-100700D03*
X-16500Y-102700D03*
X-8700Y-95300D03*
X-10900Y-97000D03*
X-8200Y-92500D03*
Y-98200D03*
Y-103800D03*
X-17200Y-88000D03*
X-16200Y-80900D03*
Y-84800D03*
X-7900Y-86000D03*
X-16200Y-76900D03*
X-18300Y-70100D03*
X-16400Y-72500D03*
X-7900Y-71200D03*
Y-78600D03*
X-16300Y-60300D03*
X-16400Y-64400D03*
X-16500Y-56400D03*
X-7900Y-56500D03*
Y-63800D03*
X-16800Y-47300D03*
X-16600Y-50800D03*
X-7900Y-41700D03*
Y-49100D03*
X-14800Y-40900D03*
X-9800Y-30300D03*
X-10100Y-39100D03*
X-11800Y-36000D03*
X-12000Y-32800D03*
X-12900Y-29500D03*
X-7900Y-34300D03*
X-14800Y-38900D03*
X-10000Y-22900D03*
X-12800Y-25800D03*
X-13400Y-22500D03*
X-15300Y-20100D03*
X-7900Y-19500D03*
Y-26900D03*
X-12300Y-5500D03*
X-15300Y-12700D03*
X-7900Y-4800D03*
Y-12200D03*
Y10000D03*
Y2600D03*
X-18000Y14700D03*
X-12400Y11400D03*
X-15200Y16800D03*
X-7900Y17400D03*
X-15200Y24200D03*
Y31600D03*
X-7900Y32100D03*
Y24700D03*
X-15200Y39000D03*
Y46400D03*
X-7900Y46900D03*
Y39500D03*
X-15200Y53700D03*
Y61100D03*
X-7900Y61700D03*
Y54300D03*
X-15200Y68500D03*
X-7900Y69000D03*
X-15200Y75900D03*
Y83300D03*
X-7900Y83800D03*
Y76400D03*
X-15200Y90600D03*
Y98000D03*
X-7900Y98600D03*
Y91200D03*
X-15300Y112900D03*
Y105500D03*
X-7900Y113300D03*
Y106000D03*
Y120700D03*
Y135500D03*
Y128100D03*
X-16700Y146500D03*
X-11100D03*
X-8200Y150700D03*
X-13900D03*
X-15300Y142600D03*
X-8000D03*
X-13900Y156400D03*
X-8200D03*
G54D20*
X-131140Y-68500D03*
X-127400D03*
X-123660D03*
X-127400Y-58500D03*
X-123660D03*
X-131140D03*
X-76500Y52700D03*
X-72760Y62700D03*
X-76500D03*
X-80240D03*
Y52700D03*
X-72760D03*
G54D11*
X-141800Y-133500D03*
G54D21*
X-131435Y-76100D03*
X-123365D03*
G54D30*
X-95898Y132702D03*
Y152702D03*
X-75898Y132702D03*
Y152702D03*
G54D12*
X-141700Y-118000D03*
Y-108000D03*
X-83300Y-38050D03*
X-73300D03*
X-63300D03*
X-53300D03*
G54D22*
X-132290Y-48631D03*
X-128550D03*
X-124810D03*
Y-39969D03*
X-132290D03*
G54D40*
X-71568Y15201D03*
X-75032D03*
G54D31*
X-88070Y-107900D03*
X-72530D03*
G54D13*
X-141700Y-98000D03*
X-93300Y-38050D03*
G54D50*
X-35086Y-119947D03*
Y-121916D03*
Y-123884D03*
Y-125853D03*
Y-127821D03*
Y-129790D03*
Y-116010D03*
Y-117979D03*
G54D14*
X-135600Y-75568D03*
Y-79032D03*
X-136450Y-46468D03*
Y-49932D03*
X-103898Y-15632D03*
Y-12168D03*
X-72800Y-17332D03*
Y-13868D03*
X-16400Y-22568D03*
Y-26032D03*
G54D23*
X-115600Y-70850D03*
Y-75550D03*
Y-65650D03*
Y-60950D03*
X-111400Y70750D03*
Y75450D03*
G54D32*
X-95257Y-11126D03*
X-93288D03*
X-91320D03*
X-89351D03*
X-87383D03*
X-85414D03*
Y8560D03*
X-87383D03*
X-89351D03*
X-91320D03*
X-93288D03*
X-95257D03*
X-83446Y-11126D03*
X-81477D03*
Y8560D03*
X-83446D03*
G54D41*
X-79065Y35405D03*
Y33435D03*
X-81335D03*
Y35405D03*
X-80205Y37375D03*
X-72765Y77505D03*
Y75535D03*
X-75035D03*
Y77505D03*
X-73905Y79475D03*
G54D60*
X-14300Y-66993D03*
Y-53607D03*
G54D42*
X-57292Y-138695D03*
Y-127081D03*
X-26608Y-36319D03*
Y-24705D03*
G54D33*
X-88367Y-1283D03*
G54D51*
X-40925Y-88420D03*
Y-77580D03*
X-31085Y-88420D03*
Y-77580D03*
G54D24*
X-120781Y-55100D03*
X-118419D03*
Y-57200D03*
X-120781D03*
X-104080Y-8000D03*
X-101718D03*
X-101719Y7899D03*
X-104081D03*
X-104080Y5699D03*
X-101718D03*
X-104081Y3600D03*
X-101719D03*
X-98750Y43000D03*
X-101112D03*
X-98781Y66200D03*
Y78800D03*
X-89069Y-52599D03*
X-91431D03*
X-87619Y31900D03*
X-89981D03*
X-87620Y23200D03*
X-89982D03*
X-87618Y25300D03*
X-89980D03*
X-94481Y45100D03*
X-92119D03*
X-87619Y43000D03*
X-89981D03*
X-92119D03*
X-94481D03*
X-96419Y66200D03*
Y78800D03*
X-72081Y-5700D03*
X-74519Y-11500D03*
X-76881D03*
X-72082Y-3599D03*
X-72081Y-1501D03*
X-74481Y17900D03*
X-72119D03*
X-76719Y26200D03*
X-79081D03*
X-71081Y48800D03*
X-80181D03*
X-77819D03*
Y46700D03*
X-80181D03*
X-77819Y44600D03*
X-80181D03*
X-73319D03*
X-75681D03*
X-75581Y48800D03*
X-73219D03*
X-69719Y-5700D03*
X-69720Y-3599D03*
X-69719Y-1501D03*
X-67318Y9400D03*
X-69680D03*
X-68719Y48800D03*
X-45519Y-84100D03*
X-47881D03*
X-45519Y-81900D03*
X-47881D03*
Y-86300D03*
X-45519D03*
X-47881Y-79700D03*
X-45519D03*
X-37781Y-66300D03*
X-35419D03*
Y-64000D03*
X-37781D03*
Y-56500D03*
X-35419D03*
X-24581Y-83900D03*
X-22219D03*
X-24581Y-81800D03*
X-22219D03*
X-30881Y-92300D03*
X-28519D03*
X-24581Y-79700D03*
X-22219D03*
X-19981Y-38600D03*
Y-40800D03*
X-17619Y-38600D03*
Y-40800D03*
G54D15*
X-139000Y-79032D03*
Y-75568D03*
X-136450Y-43432D03*
Y-39968D03*
X-22400Y-93132D03*
Y-89668D03*
G54D70*
G01X-138592Y3266D02*
G03I-8858J0D01*
G01Y129250D02*
G03I-8858J0D01*
G01X-12608Y3266D02*
G03I-8858J0D01*
G01Y129250D02*
G03I-8858J0D01*
G54D61*
G01X-131200Y-61500D02*
Y-58560D01*
X-131140Y-58500D01*
G01X-119500Y-77219D02*
Y-74500D01*
G01X-101718Y-10282D02*
X-101500Y-10500D01*
G01X-101718Y-10282D02*
Y-8000D01*
G01D02*
X-101545Y-8173D01*
X-98210D01*
G01X-96000Y3638D02*
X-98210D01*
G01X-101719Y3600D02*
X-98248D01*
X-98210Y3638D01*
G01X-101719Y7899D02*
X-101718Y7898D01*
Y5699D01*
G01D02*
X-101626Y5607D01*
X-98210D01*
G01X-99200Y7899D02*
Y8051D01*
X-100749Y9600D01*
X-103100D01*
X-104081Y8619D01*
Y7899D01*
G01X-96750Y12650D02*
Y13967D01*
G01X-99000Y14019D02*
X-96802D01*
G01D02*
X-96801Y14018D01*
G01X-96750Y13967D02*
X-96801Y14018D01*
G01X-96750Y12050D02*
X-95450Y10750D01*
G01X-96750Y12650D02*
Y12050D01*
G01X-83151Y-55519D02*
X-85018D01*
X-85959Y-56460D01*
X-87119D01*
G01X-89500Y-14718D02*
Y-13400D01*
G01D02*
X-89351Y-13251D01*
Y-11126D01*
G01X-93288Y9638D02*
Y8560D01*
G01X-95257Y10557D02*
Y8560D01*
G01X-94400Y10750D02*
X-93288Y9638D01*
G01X-91320Y8560D02*
Y10170D01*
X-93790Y12640D01*
Y14000D01*
G01X-85414Y8560D02*
Y13944D01*
X-85436Y13966D01*
G01X-95450Y10750D02*
X-95257Y10557D01*
G01X-95450Y10750D02*
X-94400D01*
G01X-93790Y14000D02*
Y14789D01*
X-94700Y15699D01*
Y16419D01*
G01X-85436Y13966D02*
X-85700Y14230D01*
Y18518D01*
X-85499Y18719D01*
G01X-83766Y15636D02*
X-83764D01*
X-82900Y16500D01*
G01X-83151Y-55519D02*
X-81919D01*
G01X-78524Y-4236D02*
X-76964D01*
X-76500Y-4700D01*
G01X-72081Y-5700D02*
X-75500D01*
X-76500Y-4700D01*
G01X-76881Y-11500D02*
X-78200D01*
G01D02*
X-81103D01*
X-81477Y-11126D01*
G01X-76036Y8966D02*
X-77534Y10464D01*
G01X-76036Y8966D02*
X-76734D01*
X-78524Y7176D01*
Y5607D01*
G01X-75032Y15201D02*
X-76000D01*
X-81477Y9724D01*
Y8560D01*
G01X-72081Y-1501D02*
X-75499D01*
X-76701Y-299D01*
X-78524D01*
G01X-72119Y17900D02*
Y19119D01*
G01X-74481Y17900D02*
X-75032Y17349D01*
Y15201D01*
G01X-74366Y10636D02*
X-74178D01*
X-73114Y11700D01*
G01X-79065Y35405D02*
X-81335D01*
G01D02*
Y33435D01*
G01X-77819Y46700D02*
Y48800D01*
G01Y44600D02*
Y46700D01*
G01Y44600D02*
X-75681D01*
G01D02*
Y43419D01*
G01X-73219Y48800D02*
Y52241D01*
X-72760Y52700D01*
G01X-73219Y48800D02*
X-71081D01*
G01X-72765Y77505D02*
X-75035D01*
G01Y75535D02*
Y77505D01*
G01X-59100Y-56419D02*
Y-55099D01*
X-57001Y-53000D01*
X-43801D01*
X-42069Y-54732D01*
Y-56460D01*
G01X-64349Y-56519D02*
X-68260D01*
X-68319Y-56460D01*
G01X-64349Y-56519D02*
X-62819D01*
G01X-59100Y-56419D02*
X-62719D01*
X-62819Y-56519D01*
G01X-59100Y-58781D02*
Y-61014D01*
G01X-69757Y1441D02*
X-69719Y1403D01*
Y-1501D01*
G01X-67501Y-1619D02*
X-69601D01*
X-69719Y-1501D01*
G01X-37781Y-56500D02*
X-42029D01*
X-42069Y-56460D01*
G01X-22219Y-83900D02*
Y-86509D01*
X-22410Y-86700D01*
G01X-30285Y-85950D02*
X-28350D01*
X-27600Y-86700D01*
X-26190D01*
G01X-31085Y-88420D02*
X-30905Y-88600D01*
X-29215D01*
G01X-14800Y-40900D02*
Y-38900D01*
G01D02*
X-17319D01*
X-17619Y-38600D01*
G54D43*
X-59100Y-64164D03*
Y-61014D03*
G54D16*
X-138100Y-73081D03*
Y-70719D03*
X-135900D03*
Y-73081D03*
X-139250Y-47519D03*
Y-49881D03*
Y-42781D03*
Y-40419D03*
X-109900Y-111381D03*
Y-109019D03*
Y-106881D03*
Y-104519D03*
X-119400Y-69319D03*
Y-71681D03*
X-119500Y-79581D03*
Y-77219D03*
X-111000Y-63319D03*
Y-65681D03*
X-97900Y-12818D03*
Y-15180D03*
X-99000Y16381D03*
Y14019D03*
X-96801Y16380D03*
Y14018D03*
X-105331Y40619D03*
Y42981D03*
X-107431D03*
Y40619D03*
X-103231D03*
Y42981D03*
X-96600D03*
Y40619D03*
X-105100Y71481D03*
Y69119D03*
X-107300Y71481D03*
Y69119D03*
X-98800Y83381D03*
Y81019D03*
X-89500Y-17080D03*
X-87400Y-17082D03*
X-89500Y-14718D03*
X-87400Y-14720D03*
X-85499Y21081D03*
Y18719D03*
X-94700Y18781D03*
Y16419D03*
X-92200Y18781D03*
Y16419D03*
X-87700Y21081D03*
Y18719D03*
X-90001Y21082D03*
Y18720D03*
X-92100Y29781D03*
Y27419D03*
X-90000Y34019D03*
Y29781D03*
Y27419D03*
Y40881D03*
Y38519D03*
Y36381D03*
X-85900Y100381D03*
Y98019D03*
X-91800Y92719D03*
Y95081D03*
X-80950Y-63219D03*
Y-65581D03*
X-83150Y-63219D03*
Y-65581D03*
X-83151Y-55519D03*
Y-57881D03*
X-76900Y21719D03*
X-79100D03*
X-76900Y24081D03*
X-79100D03*
X-76700Y34219D03*
X-79100Y30781D03*
Y28419D03*
X-80200Y42481D03*
Y40119D03*
X-76700Y36581D03*
X-72800Y68481D03*
Y66119D03*
Y72982D03*
Y70620D03*
X-73900Y84581D03*
Y82219D03*
X-80100Y92719D03*
Y95081D03*
X-59100Y-56419D03*
Y-58781D03*
X-64350Y-61519D03*
Y-63881D03*
X-64349Y-56519D03*
Y-58881D03*
X-69999Y-16682D03*
X-67501Y-3981D03*
X-65300Y-3982D03*
X-69999Y-14320D03*
X-67501Y-1619D03*
X-65300Y-1620D03*
X-70300Y78681D03*
Y76319D03*
X-25200Y-91881D03*
Y-89519D03*
X-20300Y-59119D03*
Y-61481D03*
X-19100Y-22419D03*
Y-24781D03*
X-21200Y-22419D03*
Y-24781D03*
X-12200Y-99219D03*
Y-101581D03*
X-10000Y-99219D03*
Y-101581D03*
G54D34*
X-85436Y13966D03*
X-83766Y15636D03*
X-73365Y4035D03*
X-75035Y2365D03*
X-76036Y8966D03*
X-77534Y10464D03*
X-74366Y10636D03*
X-75864Y12134D03*
G54D52*
X-41715Y-82020D03*
Y-83980D03*
Y-85950D03*
Y-80050D03*
X-30285Y-85950D03*
Y-83980D03*
Y-82020D03*
Y-80050D03*
G54D25*
X-112800Y55100D03*
G54D62*
G01X-57400Y-144000D02*
X-57292Y-143892D01*
G01X-22410Y-86700D02*
X-20900D01*
G01X-22400Y-89668D02*
Y-86710D01*
G54D44*
X-66213Y1441D03*
Y6559D03*
X-69757D03*
Y1441D03*
G54D26*
X-95781Y-56460D03*
Y-60200D03*
Y-63940D03*
X-87119D03*
Y-56460D03*
X-76981D03*
Y-60200D03*
Y-63940D03*
X-68319D03*
Y-56460D03*
X-50731D03*
Y-60200D03*
Y-63940D03*
X-42069D03*
Y-56460D03*
G54D35*
X-85900Y88443D03*
X-88459D03*
Y95057D03*
X-85900D03*
X-83341Y88443D03*
Y95057D03*
G54D17*
X-139200Y-56190D03*
Y-52410D03*
X-111000Y-70910D03*
Y-74690D03*
X-100600Y-15890D03*
Y-12110D03*
X-98800Y72410D03*
Y76190D03*
X-67300Y-17291D03*
Y-13511D03*
X-16400Y-28810D03*
Y-32590D03*
G54D53*
X-38955Y-88710D03*
X-36985D03*
X-35025D03*
X-33055D03*
Y-77290D03*
X-35025D03*
X-36985D03*
X-38955D03*
G54D63*
G01X-77250Y-17300D02*
X-78950Y-19000D01*
X-83900D01*
X-85414Y-17486D01*
Y-11126D01*
G01X-77250Y-16000D02*
Y-15600D01*
G01Y-16000D02*
Y-17000D01*
G01D02*
Y-17300D01*
G54D45*
X-48350Y-132300D03*
X-42050D03*
G54D27*
X-98210Y-4236D03*
Y-6204D03*
Y-8173D03*
Y5607D03*
Y3638D03*
Y1670D03*
Y-299D03*
Y-2267D03*
X-78524Y-8173D03*
Y-6204D03*
Y-4236D03*
Y-2267D03*
Y-299D03*
Y1670D03*
Y3638D03*
Y5607D03*
G54D54*
X-36005Y-83000D03*
G54D18*
X-131800Y-133500D03*
X-121800D03*
X-111800D03*
X-101800D03*
X-91800D03*
X-81800D03*
X-85898Y142702D03*
X-71800Y-133500D03*
G54D36*
X-85899Y111702D03*
X-82703D03*
G54D64*
G01X-30881Y-92300D02*
Y-94851D01*
X-30832Y-94900D01*
G01X-22400Y-86710D02*
X-22410Y-86700D01*
G01X-25200Y-89519D02*
X-22549D01*
X-22400Y-89668D01*
G01X-31085Y-88420D02*
Y-90416D01*
X-30881Y-90620D01*
Y-92300D01*
G54D46*
X-42750Y-116850D03*
G54D28*
X-98800Y49400D03*
Y60800D03*
Y55100D03*
G54D37*
X-85902Y116668D03*
G54D55*
X-35264Y-35500D03*
G54D19*
X-121700Y-107900D03*
X-113300Y-111650D03*
Y-104150D03*
X-33600Y-60300D03*
X-25200Y-64050D03*
Y-56550D03*
G54D65*
G01X-57400Y-145600D02*
Y-144000D01*
G54D38*
X-91713Y122668D03*
X-80091D03*
G54D29*
X-102590Y69100D03*
X-98810D03*
X-90010Y14000D03*
X-93790D03*
X-26190Y-86700D03*
X-22410D03*
G54D47*
X-50350Y-124850D03*
Y-116850D03*
X-42750Y-124850D03*
G54D56*
X-35264Y-25500D03*
G54D66*
G01X-57292Y-138695D02*
Y-143892D01*
G54D48*
X-35086Y-132349D03*
Y-135498D03*
Y-113451D03*
Y-110302D03*
G54D39*
X-81950Y-15600D03*
X-77250D03*
G54D57*
X-30853Y-134278D03*
Y-111522D03*
G54D67*
G01X-98750Y43000D02*
Y49350D01*
X-98800Y49400D01*
G01X-94481Y43000D02*
X-96581D01*
X-96600Y42981D01*
G01X-98750Y43000D02*
X-96619D01*
X-96600Y42981D01*
G01X-98800Y49400D02*
X-99461Y49179D01*
X-100070Y47960D01*
X-98750Y43000D01*
G01X-98800Y49400D02*
X-98095Y49174D01*
X-97497Y48011D01*
X-98750Y43000D01*
G01X-98800Y60800D02*
X-97830Y61134D01*
X-97428Y61960D01*
X-98781Y66200D01*
G01D02*
X-98780Y66199D01*
X-98800Y60800D01*
G01D02*
X-99773Y61138D01*
X-100174Y61966D01*
X-98781Y66200D01*
G01X-98810Y69100D02*
Y72400D01*
X-98800Y72410D01*
G01X-98810Y69100D02*
Y66229D01*
X-98781Y66200D01*
G01X-98800Y83381D02*
Y84922D01*
G02X-97896Y87104I3085J0D01*
G01X-97586Y87414D01*
G02X-95102Y88443I2484J-2484D01*
G01X-88459D01*
G01X-98781Y78800D02*
Y81000D01*
X-98800Y81019D01*
G01Y76190D02*
Y78781D01*
X-98781Y78800D01*
G01X-90010Y14000D02*
Y13459D01*
X-89351Y12800D01*
Y8560D01*
G01X-90001Y21082D02*
Y23181D01*
X-89982Y23200D01*
G01X-90010Y14000D02*
X-90001Y14009D01*
Y16400D01*
G01D02*
Y18720D01*
G01X-92200Y16419D02*
X-90020D01*
X-90001Y16400D01*
G01X-89980Y25300D02*
Y27399D01*
X-90000Y27419D01*
G01X-89982Y23200D02*
Y25298D01*
X-89980Y25300D01*
G01X-92100Y27419D02*
X-90000D01*
G01X-89981Y31900D02*
Y34000D01*
X-90000Y34019D01*
G01Y29781D02*
Y31881D01*
X-89981Y31900D01*
G01X-92100Y29781D02*
X-90000D01*
G01X-92119Y43000D02*
Y45100D01*
G01X-89981Y43000D02*
X-92119D01*
G01X-90000Y40881D02*
Y42981D01*
X-89981Y43000D01*
G01X-94481Y45100D02*
Y43000D01*
G01X-90000Y36381D02*
Y38519D01*
G01X-85900Y100381D02*
Y111701D01*
X-85899Y111702D01*
G01X-85900Y95057D02*
Y98019D01*
G01X-85899Y111702D02*
Y116665D01*
X-85902Y116668D01*
G01D02*
Y142698D01*
X-85898Y142702D01*
G01X-79100Y21719D02*
X-79081Y21700D01*
Y18977D01*
G02X-80749Y14951I-5693J0D01*
G01X-82233Y13467D01*
G03X-83446Y10539I2927J-2928D01*
G01Y8560D01*
G01X-76900Y21719D02*
X-79100D01*
G01X-79081Y26200D02*
Y28400D01*
X-79100Y28419D01*
G01Y24081D02*
Y26181D01*
X-79081Y26200D01*
G01X-79100Y30781D02*
Y33400D01*
X-79065Y33435D01*
G01X-76700Y34219D02*
X-77484Y33435D01*
X-79065D01*
G01X-80181Y48800D02*
Y52641D01*
X-80240Y52700D01*
G01X-80181Y46700D02*
Y48800D01*
G01Y44600D02*
Y46700D01*
G01X-80200Y42481D02*
Y44581D01*
X-80181Y44600D01*
G01X-80205Y37375D02*
Y40114D01*
X-80200Y40119D01*
G01X-76700Y36581D02*
X-77494Y37375D01*
X-80205D01*
G01X-72800Y68481D02*
Y70620D01*
G01X-72760Y62700D02*
Y66079D01*
X-72800Y66119D01*
G01Y72982D02*
Y75500D01*
X-72765Y75535D01*
G01X-83341Y88443D02*
X-76915D01*
G02X-74914Y87614I0J-2829D01*
G01X-74521Y87221D01*
G02X-73900Y85722I-1499J-1499D01*
G01Y84581D01*
G01X-72765Y75535D02*
X-71084D01*
X-70300Y76319D01*
G01X-73905Y79475D02*
Y82214D01*
X-73900Y82219D01*
G01X-70300Y78681D02*
X-71094Y79475D01*
X-73905D01*
G54D49*
X-32822Y-139908D03*
Y-105892D03*
G54D58*
X-16483Y-139908D03*
Y-105892D03*
G54D68*
G01X-139200Y-56190D02*
X-142600Y-59590D01*
Y-72600D01*
X-139600Y-75600D01*
G01X-139200Y-75768D02*
X-139000Y-75568D01*
G01X-139200Y-75768D02*
Y-75700D01*
G01X-139234Y-75666D02*
X-139268Y-75700D01*
G01X-139200D02*
X-139234Y-75666D01*
G01X-139268Y-75700D02*
X-139368Y-75600D01*
G01D02*
X-139600D01*
G01X-103930Y-15600D02*
X-133800D01*
X-136450Y-18250D01*
Y-39968D01*
G01X-103898Y-15632D02*
X-103930Y-15600D01*
G01X-35086Y-113451D02*
X-37949D01*
G54D59*
X-30832Y-94900D03*
X-27368D03*
X-19832Y-35700D03*
X-16368D03*
G54D69*
G01X-120781Y-57200D02*
X-122081Y-58500D01*
X-123660D01*
G01X-127400D02*
Y-61600D01*
G01X-109900Y-109019D02*
X-110669D01*
X-113300Y-111650D01*
G01X-109900Y-106881D02*
Y-109019D01*
G01X-111000Y-74690D02*
Y-76300D01*
X-111400Y-76700D01*
G01X-110000D02*
X-108500D01*
G01X-120781Y-55100D02*
Y-57200D01*
G01X-118419D02*
X-117100D01*
G01X-95781Y-56460D02*
Y-51219D01*
X-98200Y-48800D01*
G01X-106600Y-4600D02*
X-100500D01*
X-100136Y-4236D01*
X-98210D01*
G01X-109400Y-3000D02*
X-100700D01*
X-99967Y-2267D01*
X-98210D01*
G01X-107900Y-6204D02*
X-98210D01*
G01X-106600Y-1300D02*
X-100900D01*
X-99899Y-299D01*
X-98210D01*
G01X-107431Y40619D02*
Y39431D01*
G01X-105331Y42981D02*
X-107431D01*
G01X-103231D02*
X-105331D01*
G01X-101112Y43000D02*
X-103212D01*
X-103231Y42981D01*
G01X-91431Y-52599D02*
X-91400Y-52630D01*
Y-59100D01*
X-92500Y-60200D01*
X-95781D01*
G01X-83150Y-63219D02*
X-84018D01*
X-84739Y-63940D01*
X-87119D01*
G01X-89069Y-52599D02*
X-87501D01*
G01X-95257Y-11126D02*
Y-18057D01*
G01X-93800Y-19600D02*
Y-13600D01*
X-93288Y-13088D01*
Y-11126D01*
G01X-91320D02*
Y-12920D01*
X-92300Y-13900D01*
Y-18100D01*
G01X-87400Y-14720D02*
X-87383Y-14703D01*
Y-11126D01*
G01Y8560D02*
Y18402D01*
X-87700Y18719D01*
G01X-91800Y95081D02*
X-88483D01*
X-88459Y95057D01*
G01X-93300Y95100D02*
X-91819D01*
X-91800Y95081D01*
G01X-76981Y-60200D02*
X-80200D01*
X-80950Y-60950D01*
Y-63219D01*
G01X-83150Y-65581D02*
X-80950D01*
G01D02*
Y-66850D01*
G01X-72082Y-3599D02*
X-73299D01*
G01D02*
X-73300Y-3600D01*
X-75400D01*
X-76733Y-2267D01*
X-78524D01*
G01X-75035Y2365D02*
X-75730Y1670D01*
X-78524D01*
G01Y3638D02*
X-75812D01*
X-72891Y6559D01*
X-69757D01*
G01X-73365Y4035D02*
X-67135D01*
X-66213Y3113D01*
Y1441D01*
G01X-75600Y47500D02*
Y48781D01*
X-75581Y48800D01*
G01D02*
Y49481D01*
X-76500Y50400D01*
Y52700D01*
G01X-80100Y95081D02*
X-83317D01*
X-83341Y95057D01*
G01X-78700Y95100D02*
X-80081D01*
X-80100Y95081D01*
G01X-68000Y-70200D02*
X-63300D01*
X-59100Y-66000D01*
Y-64164D01*
G01X-68319Y-63940D02*
X-64409D01*
X-64350Y-63881D01*
G01Y-61519D02*
X-63181D01*
X-62100Y-62600D01*
X-55900D01*
X-53500Y-60200D01*
X-50731D01*
G01X-69680Y9400D02*
Y6636D01*
X-69757Y6559D01*
G01X-65300Y-1620D02*
Y528D01*
X-66213Y1441D01*
G01X-50350Y-124850D02*
Y-124250D01*
G01D02*
X-47400Y-121300D01*
X-38299D01*
X-37683Y-121916D01*
G01X-50350Y-124250D02*
Y-122000D01*
G01X-35086Y-119947D02*
X-38000D01*
X-38353Y-120300D01*
X-47500D01*
X-50350Y-117450D01*
Y-116850D01*
G01D02*
Y-114000D01*
G01X-47881Y-81900D02*
X-49700D01*
G01X-47881Y-84100D02*
X-49700D01*
G01X-47881Y-86300D02*
Y-87581D01*
G01X-45519Y-86300D02*
X-43399Y-88420D01*
X-40925D01*
G01X-45519Y-81900D02*
X-45200D01*
X-43350Y-80050D01*
X-41715D01*
G01X-45519Y-84100D02*
X-45200D01*
X-43120Y-82020D01*
X-41715D01*
G01X-46700Y-76900D02*
X-47881Y-78081D01*
Y-79700D01*
G01X-40925Y-77580D02*
X-43399D01*
X-45519Y-79700D01*
G01X-50731Y-56460D02*
X-53460D01*
G01X-10000Y-101581D02*
Y-122800D01*
X-15021Y-127821D01*
X-35086D01*
G01Y-121916D02*
X-37683D01*
G01X-35086Y-125853D02*
X-37647D01*
X-38300Y-125200D01*
Y-122533D01*
X-37683Y-121916D01*
G01X-35086Y-123884D02*
X-32484D01*
X-31900Y-123300D01*
Y-120400D01*
X-32500Y-119800D01*
X-34939D01*
X-35086Y-119947D01*
G01X-12200Y-101581D02*
Y-111500D01*
X-16710Y-116010D01*
X-35086D01*
G01X-33055Y-88710D02*
Y-91290D01*
G01X-35025Y-88710D02*
Y-91290D01*
G01X-37781Y-56500D02*
Y-55081D01*
X-37000Y-54300D01*
X-29800D01*
X-27550Y-56550D01*
X-25200D01*
G01X-42069Y-63940D02*
X-37841D01*
X-37781Y-64000D01*
G01D02*
Y-62180D01*
X-35901Y-60300D01*
X-33600D01*
G01X-35419Y-66300D02*
X-29800D01*
X-27550Y-64050D01*
X-25200D01*
G01X-24581Y-79700D02*
X-25400D01*
X-27720Y-82020D01*
X-30285D01*
G01X-24581Y-83900D02*
Y-81800D01*
G01X-30285Y-83980D02*
X-24661D01*
X-24581Y-83900D01*
G01X-22219Y-79700D02*
X-21100D01*
G01X-25200Y-56550D02*
X-22869D01*
X-20300Y-59119D01*
G01Y-61481D02*
Y-64501D01*
X-17808Y-66993D01*
X-14300D01*
G01X-25200Y-64050D02*
Y-66800D01*
G01X-14300Y-53607D02*
X-20007D01*
G01X-5760Y-91210D02*
Y145010D01*
Y158759D01*
X-163240D01*
Y145010D01*
Y-91208D01*
X-163243D01*
Y-151452D01*
X-5760D01*
Y-91210D01*
M02*
